<?xml version="1.0" standalone="no"?>
<!DOCTYPE svg PUBLIC "-//W3C//DTD SVG 20010904//EN"
 "http://www.w3.org/TR/2001/REC-SVG-20010904/DTD/svg10.dtd">
<svg version="1.0" xmlns="http://www.w3.org/2000/svg"
 width="163.000000pt" height="163.000000pt" viewBox="0 0 163.000000 163.000000"
 preserveAspectRatio="xMidYMid meet">
<metadata>
Created by potrace 1.14, written by Peter Selinger 2001-2017
</metadata>
<g transform="translate(0.000000,163.000000) scale(0.100000,-0.100000)"
fill="#000000" stroke="none">
<path d="M0 815 l0 -815 815 0 815 0 0 815 0 815 -815 0 -815 0 0 -815z m1101
588 c100 -45 166 -137 172 -239 l2 -47 -145 -28 c-80 -16 -155 -31 -166 -34
-17 -4 -23 1 -27 24 -3 16 -13 36 -22 45 -43 43 -205 -8 -205 -64 0 -33 29
-42 176 -56 162 -15 207 -25 275 -59 138 -71 176 -238 94 -414 -87 -183 -316
-311 -565 -314 -130 -2 -187 18 -261 92 -38 38 -61 72 -72 106 -16 47 -34 155
-26 155 2 0 74 14 159 30 85 16 160 30 166 30 6 0 14 -18 18 -39 10 -62 45
-84 123 -78 93 7 171 63 157 113 -8 32 -45 44 -168 55 -181 16 -238 28 -294
60 -89 51 -130 142 -119 266 15 159 138 303 320 373 113 44 141 49 257 47 81
-2 115 -8 151 -24z"/>
</g>
</svg>
