<svg width="447" height="392" viewBox="0 0 447 392" fill="none" xmlns="http://www.w3.org/2000/svg">
<g clip-path="url(#clip0)">
<path fill-rule="evenodd" clip-rule="evenodd" d="M267.363 208.508C266.902 204.332 265.365 200.402 262.632 197.339C245.759 166.412 224.518 124.772 211.792 108.927C204.948 105.307 183.935 111.867 188.373 120.855C191.891 140.26 210.768 171.825 213.639 180.419C197.409 162.523 151.705 132.548 140.277 136.103C140.277 136.103 158.937 175.063 163.941 199.515C167.503 216.996 208.284 229.874 240.538 240.873C253.59 241.135 262.935 231.1 266.18 219.968C267.763 216.728 268.234 212.729 267.363 208.508Z" fill="#EEE1D9"/>
<path fill-rule="evenodd" clip-rule="evenodd" d="M440.476 772.363L369.334 757.312C369.249 757.425 369.163 757.537 369.077 757.65C352.666 675.403 328.592 515.183 315.23 497.607C298.057 453.2 246.265 353.212 222.756 320.958C163.283 333.397 85.8688 345.223 73.5344 359.293C65.278 396.929 81.4631 466.997 128.906 578.165C129.244 647.438 136.233 719.651 146.971 793.478C146.858 793.393 146.746 793.307 146.534 793.234C147.881 803.244 138.681 802.363 142.559 824.443L225.314 813.311C230.666 812.592 230.425 804.047 223.583 801.941L180.938 788.708C191.111 717.314 195.266 646.932 192.226 577.821C190.946 528.551 181.927 420.994 181.927 420.994C181.927 420.994 222.512 504.428 256.085 535.732C269.058 593.922 301.893 679.004 337.19 767.387C337.078 767.302 336.979 767.315 336.966 767.216C338.312 777.226 329.112 776.344 332.991 798.424L442.207 783.734C447.658 783 447.318 774.47 440.476 772.363Z" fill="#EEE1D9"/>
<path fill-rule="evenodd" clip-rule="evenodd" d="M225.985 323.954C234.911 339.301 209.675 414.235 181.903 422.309C178.365 391.505 114.652 336.407 73.9719 359.537C73.8732 337.049 77.115 283.136 73.6327 266.249C63.8909 219.329 63.2323 192.679 74.7013 161.673C77.0862 155.4 84.7638 148.716 88.5989 144.972C103.767 130.218 127.377 134.711 141.85 135.791C168.973 137.894 173.462 180.274 188.925 248.723C196.258 280.732 216.808 308.237 225.985 323.954Z" fill="#07398A"/>
<path fill-rule="evenodd" clip-rule="evenodd" d="M128.453 134.465C125.581 131.118 123.64 133.195 123.392 118.598C131.452 122.256 139.793 112.255 137.846 108.279C135.077 102.698 131.146 97.4757 132.677 90.1058C127.699 88.3538 124.913 79.6474 118.271 79.0273C107.347 78.0751 90.1167 87.254 100.042 110.034C102.388 115.47 108.084 121.061 110.158 137.228C105.814 140.941 104.252 150.333 109.073 153.922C112.658 156.568 129.798 154.969 132.549 150.663C137.878 142.278 133.196 138.973 128.453 134.465Z" fill="#EEE1D9"/>
<path fill-rule="evenodd" clip-rule="evenodd" d="M132.591 90.2183C128.338 93.111 112.672 77.1571 110.752 97.3936C110.642 98.8211 109.993 103.752 103.527 100.686C97.1461 97.5085 97.5415 107.949 103.322 106.667C109.116 105.484 106.978 119.595 104.499 118.415C94.3197 116.253 74.4018 92.6976 92.4381 83.5111C103.935 59.4639 129.692 69.4191 142.637 63.6418C149.381 60.5149 155.22 86.67 132.591 90.2183Z" fill="#A1551F"/>
<path fill-rule="evenodd" clip-rule="evenodd" d="M91.7934 79.4611C76.8241 83.6944 73.1367 60.7814 54.2152 58.8869C40.2109 57.5418 44.9443 47.7232 21.527 43.9109C-1.87686 40.1977 -6.1 74.063 19.0345 77.1398C44.169 80.2166 48.0295 69.9099 61.5986 77.7712C75.2668 85.6192 91.0782 83.896 91.7934 79.4611Z" fill="#A1551F"/>
<path d="M187.262 89.3225C187.262 89.3225 184.429 91.5197 185.332 95.2324C186.334 98.9319 188.915 101.612 188.915 101.612L198.532 103.345C198.532 103.345 197.334 90.6919 198.098 88.8738L198.764 87.069L187.262 89.3225Z" fill="#3294C4"/>
<path d="M227.605 74.2091C227.605 74.2091 195.441 78.1319 196.189 90.4421C196.912 104.067 199.26 117.777 231.769 114.917C246.715 113.512 227.605 74.2091 227.605 74.2091Z" fill="#0D3C88"/>
<path d="M233.045 114.645C243.609 113.224 250.955 103.02 249.454 91.8542C247.952 80.6882 238.17 72.7882 227.606 74.2092C217.042 75.6301 209.696 85.8339 211.198 97C212.7 108.166 222.481 116.066 233.045 114.645Z" fill="#B98984"/>
<path d="M215.856 96.3734C216.989 104.798 224.351 110.769 232.378 109.69C240.307 108.623 245.928 100.905 244.795 92.4808C243.662 84.0566 236.3 78.0847 228.272 79.1645C220.245 80.2443 214.723 87.9493 215.856 96.3734Z" fill="#EEE1D9"/>
<path d="M233.178 81.1281C237.964 82.1997 241.089 87.4298 242.184 91.823C242.815 94.2606 242.851 96.7783 242.067 99.2044C241.343 101.32 239.442 103.694 237.037 103.816C236.74 103.856 236.164 103.328 236.534 103.077C237.359 102.461 238.31 102.03 239.109 101.217C239.921 100.502 240.396 99.5302 240.771 98.5715C241.595 96.4428 241.387 94.15 240.995 91.9829C240.124 87.7613 237.436 82.7752 233.033 81.5512C232.835 81.5778 232.867 81.069 233.178 81.1281Z" fill="white"/>
<path d="M153.605 95.6656C153.605 95.6656 150.773 97.8628 151.676 101.576C152.678 105.275 155.258 107.955 155.258 107.955L164.875 109.688C164.875 109.688 163.678 97.035 164.442 95.2169L165.108 93.4121L153.605 95.6656Z" fill="#0D3C88"/>
<path d="M193.851 80.5656C193.851 80.5656 161.687 84.4884 162.435 96.7986C163.158 110.424 165.506 124.133 198.015 121.274C212.975 119.968 193.851 80.5656 193.851 80.5656Z" fill="#0D3C88"/>
<path d="M199.291 121.001C209.855 119.58 217.202 109.377 215.7 98.2107C214.198 87.0446 204.416 79.1447 193.852 80.5656C183.288 81.9866 175.942 92.1904 177.444 103.356C178.946 114.522 188.727 122.422 199.291 121.001Z" fill="#B98984"/>
<path d="M198.624 116.046C206.616 114.971 212.175 107.266 211.041 98.8372C209.907 90.4079 202.51 84.446 194.519 85.521C186.527 86.5959 180.968 94.3006 182.102 102.73C183.236 111.159 190.633 117.121 198.624 116.046Z" fill="#EEE1D9"/>
<path d="M199.536 87.5703C204.322 88.6419 207.447 93.872 208.542 98.2652C209.173 100.703 209.209 103.221 208.425 105.647C207.701 107.762 205.8 110.137 203.395 110.258C203.098 110.298 202.522 109.77 202.892 109.519C203.717 108.903 204.668 108.473 205.467 107.659C206.279 106.944 206.754 105.972 207.129 105.014C207.953 102.885 207.745 100.592 207.353 98.4252C206.482 94.2035 203.794 89.2175 199.391 87.9934C199.18 87.921 199.212 87.4121 199.536 87.5703Z" fill="white"/>
<path fill-rule="evenodd" clip-rule="evenodd" d="M179.676 108.706C178.603 106.732 168.663 116.847 168.363 115.374C165.189 107.527 173.045 94.6651 165.701 93.3321C164.148 93.0365 156.694 98.378 153.623 100.304C147.198 104.297 143.986 109.673 150.62 126.741C151.741 129.819 129.755 215.414 116.809 231.685C95.148 215.427 83.395 155.055 86.531 146.864C86.531 146.864 54.6892 166.686 53.146 197.971C52.3058 214.228 63.7424 275.248 94.3859 305.029C106.725 317.999 148.777 310.325 153.897 286.127C162.015 248.206 169.376 185.162 167.275 151.542C167.275 151.542 166.57 135.795 169.468 127.334C172.601 122.876 180.596 110.298 179.676 108.706Z" fill="#EEE1D9"/>
<path fill-rule="evenodd" clip-rule="evenodd" d="M97.2533 75.8004C102.136 75.3454 100.518 76.0676 99.902 80.4892C99.5416 83.0602 98.1291 84.5619 93.7644 87.3688C89.8685 89.9108 87.5588 86.9927 87.0314 82.3213C86.504 77.6499 92.5553 76.1296 97.2533 75.8004Z" fill="#07398A"/>
</g>
<defs>
<clipPath id="clip0">
<rect width="344.3" height="791.2" fill="white" transform="translate(0 45.8984) rotate(-7.66087)"/>
</clipPath>
</defs>
</svg>
