<svg width="372" height="159" viewBox="0 0 372 159" fill="none" xmlns="http://www.w3.org/2000/svg">
<path d="M4 76C75.4512 42.8098 108.867 40.2386 186.772 32.863C228.72 28.7142 271.591 28.2533 313.079 36.5508C334.284 40.6996 357.333 49.9191 365.169 69.741C370.701 83.1093 367.474 98.7825 359.637 111.229C351.801 123.214 339.816 131.973 326.447 138.426C290.952 155.943 249.925 155.943 211.203 154.1C173.403 152.256 133.76 147.646 101.03 127.363C90.4279 120.909 80.2864 111.69 78.4425 99.7044C74.7547 76.1947 101.03 55.9118 118.086 45.3093C180.779 6.58742 261.45 -0.327211 332.901 6.12644" stroke="#07398A" stroke-width="7.06379" stroke-miterlimit="10" stroke-linecap="round" stroke-linejoin="round"/>
</svg>
