<svg viewBox="0 0 369 150" fill="none" xmlns="http://www.w3.org/2000/svg"><g clip-path="url(#clip0)" fill="#0D3C88"><path d="M293.794 141.071c0-.446-.521-.223-.781-.446-.26.446-.52.446-.781 0-.26 0-.26.223-.52.223v-.893c-.521 0-.781 0-1.041.447.26 0 .521-.223.781-.223 0 .669 0 .669-.781.892-.26-.223-.26-.669-.781-.669l-1.301 1.116c-.26-.67-.26-.67-1.041-.223-.26-.224-.26-.447-.52-.67-.26.223-.26-.223-.521-.223 0 .223-.26.446-.26.669v.224h.781c.52-.224.52.223.52.446-.52.223-.78.447-1.301.223-.26-.223-.52 0-.78.224 0 0-.261.223-.521.223 0-.223-.26-.447-.26-.447l-.521.447c-.26-.223 0-.893-.78-.893 0 .223.26.67.26.893 0 .223-.26.669-.52.893v-.447c-.521 0-.781 0-1.302-.223l-.26.223c0-.223-.26-.223-.26-.446-.781 0-1.561 0-2.602.223 0 0 0 .223-.261.223-.52-.223 0-.893-.52-1.116-.52.223-.52.67-.781 1.116 0-.223-.26-.223-.26-.223-.52.223-.52.223-.52.67-.261-.224-.261-.447 0-.893-.781.446-1.301.223-2.082.223-.26 0-.521-.223-.781-.446-.26.223-.26.446-.52.446 0 .223.26.446.52.223h.26c.261 0 .261.223.261.223l-.261.224c-.26 0-.78-.224-1.041-.447-.26-.223-.52-.446-.78-.223h-.781l-.26.223c.26.223.52.223.781.447-.261 0-.521.223-.781.223h-.781c0 .223 0 .446.26.669.261-.446.781-.446.521-.669.26 0 .52 0 .781-.223 0 0 0-.224.26-.224.26.447 0 .67-.26.893-.261.223-.781.447-1.041.67 0 0-.261-.223-.521-.223 0 .223-.26.223-.26.446l-.52-.446c0-.224.52-.447 0-.893-.261-.223-.261 0-.521.223 0 0 .26 0 .521.223-.521.447-.521.447-.521 1.116-.52 0-.781.223-1.301.223.26-.446 1.041-.223 1.041-.669h-.26c-.521 0-.781.223-1.301.223-.261 0-.521.223-.521.446-.26 0-.52 0-1.041.224.26-.224.26-.447.521-.67h-.521c-.26 0-.52.223-.781 0h-.78c-.521 0-.781 0-1.041.67 0 0 0 .223-.26.223-.261-.446-.521-.67-.781-.67s-.52-.223-.781-.446h-1.821c-.26 0-.781.223-1.041.223-.26 0-.521 0-.521.223h-.78s-.261 0-.261-.223v.223c0 .223.521.223.261.447 0 .223-.261.223-.521 0h-.78l-.261.223c.261 0 .521 0 .781.223-.52.223-1.301.223-2.082.447v-.447s-.26 0-.52-.223v.67c-.26-.224-.26-.447-.521-.447-.26.447-.78.223-1.041.223 0 .224 0 .224.261.447-.261-.223-.521-.447-.781-.447h-1.041c0-.223.521-.446 0-.669 0 .446-.781.223-.781.446-.26.447-.52 0-1.041.223-.26.224-.78.224-1.04.224 0-.447.26-.447.52-.67.26 0 .52 0 .781-.223-.261-.224-.261-.447-.521-.67-.26 0-.52.223-.52.223h-.781c-.781.223-1.301.447-1.821.67-.261 0-.521 0-.521.223-.26.223-.781 0-1.041.447-.26-.224-.52 0-.78 0-.521 0-1.302 0-1.822.223h-1.041c-.26 0-.52.223-.52.223h-.781c-.26.67-.781.67-1.301.893 0-.223-.26-.223-.26-.447h-.521c-.52.224-1.041 0-1.301.224h-1.822c-.26 0-.52.223-.52.223-.26 0-.26.223-.52.446 0-.223-.261-.223-.261-.223h-.26c-.26.447-.781.447-1.301.223h-.521v-.223c-.52 0-1.04.223-1.301-.223 0 0-.26 0-.26.223h-.26v-.67c-.26 0-.521.224-1.041.224-.52-.224-.781-.224-1.301-.224-.26 0-.521.224-.781 0h-.52l-.781-.669s.26.223.26.446c-.52 0-.78 0-.78.447h.78c-.26.223-.26.446-.52.669-.26 0-.26 0-.521-.223-.26.447-.78.447-1.301.223-.26 0-.26 0-.52.224l-.521-.447c-.52 0-1.041 0-1.821.223.26-.223.26-.446.52-.669 0-.224.26-.224.26-.447-.26 0-.78.223-.26.447h-.52c0 .223 0 .223-.26.446-.261 0-.261-.223-.261-.223 0-.223 0-.67-.26-.893v-.446c-.26 0-.52 0-1.041.223.521.223.781.669.781 1.339-.26-.223-.26-.223-.521-.223v.446c-.26 0-.52.224-.78.224 0-.224.26-.67.26-.67-.26 0-.52 0-.781-.223-.78-.224-1.561 0-2.082.669 0-.223 0-.446.261-.669h-1.301c-.261.223-.521.669-.521.893-.52 0-.781-.447-1.301-.224-.26-.446.26-.446.52-.446-.26-.893-.78 0-1.04-.447v-.446s-.261 0-.261.223 0 .447-.52.447v-.447c-.26.223-.521.223-.781.447v-.67c-.26 0-.52 0-.52-.223 0 .223 0 .223-.26.223h-.261c-.52-.223-.78-.223-1.301 0v.223c-.26 0-.781-.223-1.041.223.521.224.521.224 1.041-.223h1.301c-.26.447-.26.67-.52.893-.521 0-.26-.446-.521-.446-.26 0-.52.223-1.041.223-.26 0-.26-.447-.78-.447-.521 0-1.041 0-1.301.447-.521-.447 0-.447.26-.67-.26-.223-.521-.223-.521 0-.26.447-.78.67-1.04 1.116-.261-.223-.521-.446-1.041-.223-.261 0-.521 0-.781-.223 0-.223-.52-.223-.52-.223-.521.446-1.302.446-2.082.893h2.082c.26 0 .52.223.78.446-1.301-.223-2.342.223-3.383-.223-.26.223-.52.223-.78.446v-.669c.52 0 .52 0 .52-.224-.26.224-.26.224-.52.224-.261 0-.261-.224-.521-.224v.67l-.26-.223c-.26-.447-.26-.67-.781-.447h-1.561s-.26 0-.26.224c.26 0 .52.223 1.041.223v.223c-.261 0-.521.223-.781 0-.521 0-.781 0-1.301-.223.26-.223.52-.223.78-.447 0-.223-.26-.446-.26-.669-.26.223-.52.446-.78.446-.261-.223-.781-.223-1.302-.223h-1.041c-.52 0-.52 0-.52.446v.447c0-.223.26-.223.26-.223h1.041c0 .223.781 0 .521.446h-1.041c-.781.223-1.301 0-2.082-.223-.521.223-.781.446-1.301.223.26-.223.52-.223 1.041-.446l.26-.224c.26.224.52 0 .52-.223s-.26-.223-.52-.223c-.521 0-.781.223-1.301.223 0 0-.26 0-.26-.223-.261-.223-.781-.223-.781 0-.26.223-.521.223-.781 0s-.78 0-1.041-.447c0 0-.26 0-.26.224-.26.223-.52.223-.781.223l.261-.223c-.521 0-1.041 0-1.562.223h-.52c-.521-.223-1.041-.447-1.822-.447.26.224.26.447.521.67.52 0 1.041.223 1.561.223 0 .224 0 .447-.26.224-.26 0-.521-.447-1.041 0 0 0-.26 0-.26-.224-.261 0-.261-.223-.521-.223-.52.223-.78 0-1.301 0-.26 0-.52.223-.781 0h-2.081c-.261 0-.261-.223-.521-.446l-.26.223c-.781 0-1.561-.223-2.602-.223v-.224c.26-.223.52-.446 1.041-.669-.781-.223-1.822-.447-2.603-.223v-.67c-.26.223-.52.446-1.041.446h-1.04c-.261 0-.521.224-.781.224-.521 0-1.301.223-1.822.223h-.26c.26.223.26.223.781 0 .26 0 .78.223 1.041.223 0 .223-.261.223-.521.223-1.041 0-1.821 0-2.862-.223h-1.041s0-.223-.26-.223h-.261c-.52.223-1.301.223-2.081.223h-1.302c-.26-.223-.78-.67-1.561-.223h-2.082c-.26-.223 0-.223.26-.447.521.224 1.041.447 1.822 0 0-.223-.26-.446-.26-.893-.521.224-1.041 0-1.562 0-.52.224-.78.447-.78.893-.521 1.34-.781 1.116-.781 1.116-.26 0-.26 0-.52.224l1.041-.893c-.261-.223-.521-.223-.781 0s-.781.223-1.041.223c-.52 0-.781 0-1.301-.223-.26-.223-.521 0-.781 0s-.52 0-.52-.447c-.261.224-.261.447-.261.447.781.446 1.562.223 2.343.669-.261.224-.781.224-1.041.224-.521-.224-1.302-.224-1.822 0h-.52l.78-.67c0-.223-.26-.223-.26-.446-.26.223-.52.223-.781.446l.521.446h-.521c-.78 0-1.561-.223-2.342-.223h-1.041c-1.04 0-1.821-.223-2.862 0h-.521c-.26-.223-.52 0-.78 0-.521-.446-1.301-.446-1.822-.669l-.26-.224c0 .224-.26.224-.52.224-.261-.224-.521 0-.781 0h-1.822c-.26 0-.52-.224-.78 0-.261 0-.521 0-.781-.224.26-.223.781.224.52-.446.261.223.521.223.781.446.26 0 .521-.223.781-.223-.521-.446-1.041-.67-1.562-.446h-1.301c-.26 0-.26-.224-.52-.224s-.26.224-.521.224c-.26 0-.52-.224-.78-.224 0 0 0 .447-.521.224-.26-.224 0-.447.26-.67h-1.04c-.261 0-.261.223-.261.446-.26 0-.52 0-1.041.224.521.446 1.302.446 2.342.223.261.223.261.223-.26.446h-1.561c-1.041-.223-2.082-.223-3.123-.446h-.26c-.52 0-.781.223-1.301 0-.26 0-.521 0-.781-.223-1.301-.224-2.602-.447-3.903-.447-.521 0-1.041-.223-1.562-.446-.52 0-1.04.223-1.821 0-.521-.223-1.041-.223-1.562-.223h-.26c-.26-.224-.26-.447-.52-.67h-.26c0 .223.26.223.52.67-.52 0-.781-.224-1.041-.224-.26 0-.781 0-1.041-.223 0 0-.26-.223-.52 0-.521.223-1.041 0-1.822 0-.78 0-1.301-.223-2.082-.223-.78 0-1.301-.223-2.081-.223-1.302-.223-2.603-.447-3.904-.447-.52 0-1.041-.223-1.561-.223-.26 0-.78-.446-1.041-.669-.26 0-.26.223-.52.223s-.521-.67-1.041-.223c-.26-.224 0-.67-.52-.67 0 .223 0 .223.26.446-.781 0-1.041 0-1.302-.446-.26 0-.26.223-.52 0s-.52 0-.78 0c-.521-.223-1.042 0-1.562 0 0 0-.26 0-.26.223.26 0 .26.223.26.223-.26.224-.52.224-1.041.447-.26-.447-.52-.223-1.041-.223 0-.447.26-.447.52-.447h.52c.261 0 .261-.223.521-.223-.52-.447-1.04-.67-1.561-.447 0-.223-.26-.223-.26-.446-.26.446-.52.446-.781.223-.26 0-.52 0-.78-.223h-.26c-.521-.223-1.042-.446-1.822-.446-.26 0-.52-.224-.781-.224h-.78c-.261 0-.521-.223-1.042-.223 0-.223.52-.223.52-.223v-.223c-1.3-.893-1.82-.893-1.82-.893-.261-.223-.521-.223-.782-.223h-.52c-.52.223-1.04 0-1.561 0 0 0-.26-.224-.52-.224-.261 0-.521.224-1.042.224h-.26c-.26 0-.52-.224-.78-.447-.521-.446-1.041-.446-1.822-.223-.26-.223-.26-.446-.52-.67l-.26.224c-.781-.447-1.302-.447-1.822.223-.26.223-.52.223-.781 0 .52-.223 1.04-.223 1.561-.893h-.26c-.26 0-.26.223-.52.223s-.26-.223-.52-.223h-.261c-.52.223-1.041 0-1.561 0-.26 0-.52-.223-.52-.223-.261.223-.261.446-.521.669-.26 0-.26 0-.52-.223l.26-.223s.26 0 .26-.223v-.223h-2.082c-.26-.447.26-.67.26-1.117-.26 0-.52-.223-.52-.223-.781.223-1.302-.223-1.822-.446s-1.04-.447-1.561-.223c0 0-.26 0-.52-.224l-.261-.223v.67c-.26 0-.26-.223-.52-.223-.26-.224-.52-.224-.781 0-.52.223-.52 0-.52-.447h.52c-.52-.223-1.301-.446-1.822-.893-.78.447-1.3-.223-2.082-.446-.26.223-.52.223-1.04.223-.26 0-.52.446-.781.223-.52.223-.78 0-1.041-.223-.26-.223-.52-.223-1.04-.446.52 0 .78 0 1.3-.224-.26-.223-.52-.223-.78-.446h-.781c-.26-.223-.26 0-.52 0-.26-.223-.26-.446-.26-.446-.261.223-.261.446-.521.669-.26-.223-.52-.223-.78-.223 0-.223 0-.67-.261-.893-.52-.223-1.041-.446-1.562-.446-.52-.223-.52.223-.78.669-.26-.446-1.041-.223-1.301-.892-.52 0-.781 0-1.041-.224h-.52c-.26-.446-.521-.669-1.042-.669-.26 0-.52-.224-.52-.447-.26 0-.52.223-.52-.223h-.52c-.261 0-.782 0-.782-.446 0-.224-.26-.224-.52-.224-.78 0-1.561-.223-2.342-.669 0 0-.26-.223-.52-.223-.521-.224-1.041-.224-1.562-.67h-.26c-.52-.223-.78-.223-1.301-.67-.26-.223-.52-.446-.78-.446-.521 0-.782-.223-1.302-.447-.26 0-.52 0-.78-.223 0-.446-.781-.669-1.302-.669-.26-.224-.52 0-.78.223.26 0 .52-.223.78-.223 0 .223-.26.223-.26.446.26 0 .26.223.52.223-.78 0-1.561-.223-1.821-.893l.26-.223c.26 0 .52.223.78.223s.26-.446.521-.669c-.78-.447-1.561-.224-2.082-.447-.26-.223-.26-.223-.52 0h.52c-.26.223-.26.223-1.04.67v-.893c0 .223-.26.446-.26.446-.261-.223-.781-.223-1.042-.446-.26-.223-.52-.446-.78-.893 0 0 0-.223.26-.446-.26-.447-.78-.67-1.301-.893-.26 0-.52-.223-.78-.447-.261-.223-.521-.223-.782 0v-.669l-.26-.223c-.52 0-1.04-.447-1.561-.224.26-.223.26-.446.26-.669-.26 0-.52-.223-.78-.223-.521 0-.781-.224-1.042-.447-.52-.67-1.04-.893-1.3-.67-.26-.223-.521-.669-.781-.892.26 0 .26-.224.52-.224 0-.223-.26-.669-.52-.669-.52 0-.781 0-1.041-.447l-.26-.223c-.52.223-1.041-.446-1.302-.446l-.78-1.34c-.26 0-.52.224-.781-.223-.26-.223-.78-.223-.78-.669 0-.224-.521-.447-.781-.67l-.781-.67c-.52-.446-.78-.893-1.301-1.339l-1.561-1.339s-.26-.224-.26-.447c0-.446-.26-.669-.781-.893-.26 0-.52-.223-.52-.446-.261-.446-.521-.67-.782-.893-.26-.446-.26-.893-.78-1.116v-.67s-.26-.223-.26-.446c-.26-.223-.26-.446-.52-.67-.521-.223-.521-.669-.782-.893-.26-.446-.52-.892-1.04-1.116.26-.446.26-.892-.26-1.116 0 0 0-.223-.26-.446v-.223c-.521-.67-.782-1.563-1.042-2.456-.52-.893-.78-2.009-1.04-2.901-.26-.67-.26-1.117-.26-1.786-.261-.67-.521-1.116-.261-1.786C.52 88.17.78 87.5.78 86.83c0-.223-.26-.446-.26-.67 0-.222-.26-.222-.26-.446 0-.223.26-.223.26-.223 0-.446-.521-.67 0-1.116-.521-.446 0-.893-.521-1.116.26-.67-.26-1.34 0-2.009v-.446c0-.447 0-.893.26-1.117.26-.223.26-.446 0-.67-.26-.222.26-.669 0-.892.52-.446.26-1.34.52-1.786v-.893-.223c.521-.446.521-1.116.521-1.562 0-.224 0-.224.26-.447s.26-.446 0-.67c-.26-.223 0-.446 0-.669.26-.223.26-.67.52-.893.261-.446.261-.893.521-1.34.26-.446.78-1.115.78-1.785v-.223c.521 0 .521-.67.521-.893.26-.67.26-1.34.781-2.009.26-.446.26-.893.78-1.34.26-.222 0-.446 0-.892.521 0 .781-.223.781-.67.26-.446.52-.67.781-1.116.26-.223.52-.446.78-.893 0 0 0-.223.261-.446.26-.223.52-.223.78-.446 0-.224-.26-.447 0-.447.26-.446 0-.893.781-1.116.26 0 .26-.223.26-.223.26-.447.521-1.116 1.302-1.116.26-.447.78-.893 1.3-1.116.261-.447.781-.67 1.562-.67-.78-.446-.78-.67-1.04-.67.52-.223.26-.67.78-.892 0-.447.78-.447.78-.893 0-.447.781-.447.781-.893-.26 0-.26 0-.52-.223.26-.447.78-.224.78-.224.52-.67 1.041-1.116 1.562-1.562.78 0 .78-.67.78-1.116.26 0 .521 0 .781-.223.26 0 .26 0 .26-.224.26-.67 1.041-1.116 1.302-1.785h.52c-.26-.447.78-.447.26-.893.26 0 .52-.447.78-.223h.261c.26-.224.52-.67 1.041-.893l.78-.67c.26-.223.781-.446.781-.893h-.52l2.342-1.339h.78c-.26-.446 0-.67.521-.893.26 0 .52-.223.52-.446.26-.224.521-.447.781-.447 0 0 .26 0 .26-.223l.781-1.34c.78.224 1.041-.446 1.562-.446l.26-.223c.26-.446.78-.893 1.561-.67.26-.67 1.041-1.339 1.822-1.116.52-.446.78-.446 1.3-.223h.521c.52-.446 1.041-.893 1.562-1.116-.26-.223-.781 0-.781-.446l.52-.447c0 .224 0 .224.26.447s.521.446.781.223c.52-.223.52-.447.52-.893 0-.223.26-.67.521-.893.52-.446.78-.893 1.562-1.116.26 0 .52-.446 1.04-.67.52-.223.781-.223 1.041 0 .26.224.52.224.52-.223 0-.223-.26-.446-.26-.67.781-.446 1.562-.892 2.082-1.562h1.301c0-.446.52-.67 1.041-.893.52-.223 1.041-.223 1.301.447.521-.224 1.041-.447 1.302-.893h.52c.52 0 .78-.447 1.041-.67-.52.223-.78.223-1.301.447.26-.224.26-.447.52-.893.26-.447.52-.223 1.041-.223-.26-.447 0-.67.26-.893.52-.224.781.223 1.041.446.26-.223.781-.223.781-.67-.26 0-.26.224-.52.224s-.52-.224-.781-.224c.52-.223.78-.67 1.301-.446 0-.446.52-.67.78-.67.521-.223.781 0 1.302.224.52.223.52.223.78-.224 0-.223.26-.223.521-.446 0-.223.26-.67.26-.893.78-.223 1.301-.223 1.822-.67.52.224 1.3-.446 2.082.224l.52-.447c1.561 0 1.822-.223 2.342-.223 0 0 .26-.223.52-.223.26-.223.521-.447.781-.447.78 0 1.041-.446 1.561-.67v-.222c.781.223 1.041-.447 1.562-.447 0-.223-.26-.446-.26-.67.78-.223 1.3-.446 2.082 0 0-.223.78-.223.52-.892.26-.224.52-.224.78 0 .26.223.781 0 1.041-.224.26-.223.521-.446 1.041-.223.26 0 .52-.223.52-.446 0-.447 0-.893.521-1.116 0 .446-.26.67-.26.893.26.223.78.223 1.041 0 .78-.447 1.822-.67 2.602-1.117.26 0 .52-.223.52-.446s.521-.223.521-.223c.52.446 1.041 0 1.561-.223l1.562-.67.26.223c.52-.223 1.041-.223 1.822-.446-.781-.223-1.302 0-1.822 0 0-.447.26-.67.52-.67h1.562c0-.223 0-.223.26-.446.26.223.52-.223.78.223.261.223.521 0 .521-.447.26 0 .52.224.52.224.521-.223-.26-.447.26-.67 0 .223.261.223.261.67.52-.223.78-.223 1.041-.447-.26 0-.52 0-.78.223.26-.446.78-.446 1.04-.446h.78c.261 0 .521 0 .782-.223.52 0 .78 0 1.04-.223.521-.224 1.041-.447 1.562-.447.52 0 1.04-.446 1.301-.67.26 0 .52-.223.52 0 .781 0 1.562-.223 2.082-.446.52-.223 1.041-.446 1.562-.223 0 0 .26 0 .26-.223.52-.447 1.041-.447 1.561-.447.521 0 .781 0 1.041-.446 0-.223.521 0 .781-.223.52 0 .78-.224 1.301-.224.52 0 1.041-.223 1.561-.223.521 0 .521 0 .781-.223.26 0 .781-.223 1.041-.223h1.041c.52-.223 1.041-.447 1.561-.447.521 0 1.041-.223 1.301-.67.26 0 .26 0 .521.224.26.223.52.223.52 0 .521-.447 1.041-.223 1.301-.223h.521c.26-.447.78-.67 1.301-.447.26.223.781 0 .781-.223.26-.223.52-.446.78-.446.521 0 1.301-.224 1.822-.447.52-.223 1.301-.223 1.821-.223.521-.446 1.041-.67 1.822-.446v-.447c.26 0 .26 0 .52-.223.261-.223.521-.223.781 0 0 .223.26.223.521 0 .26-.223.78-.223 1.04-.446 1.041.67 1.562.67 2.082.446.781-.223 1.562-.446 2.342-.446.521 0 .781 0 1.301-.224.261-.223.521-.223 1.041-.223.26 0 .781 0 1.041-.223.521-.447 1.041-.223 1.301-.223.781.223 1.822 0 2.603 0 .78 0 1.301-.224 2.081-.224.261 0 .781.224 1.301.224V.446h1.302c.52.224.78.224 1.301 0 .52-.223 1.041 0 1.561-.223h.521c.26 0 .26.223.52 0 .26 0 .52-.223 1.041 0 0 0 .26-.223.52-.223.261.446.781.223 1.041 0h.521c.26 0 .52.223 1.041.223 0-.223.52-.223 1.041 0 .52 0 1.301.223 1.821 0h2.082c.781 0 1.301 0 1.822.223h.78c.521 0 1.041 0 1.301.224.521.223 1.301.223 1.822.223.781 0 1.561-.223 2.342.223h.52c.521.223 1.301 0 1.822.446.52-.223 1.041.224 1.561.224h1.041c0 .67.781.67 1.301.893.261 0 .521 0 .521.446.26.446.78.446 1.041.67.52.446 1.041.67 1.821.67.26 0 .781.223 1.041.446.521.223.781.446 1.301.67.521 0 .521.223.521.669h1.041s0 .223.26.446c.781.67 1.821 1.117 2.602 1.786l1.041.893 1.041.893c.26.67 1.041.893 1.041 1.562 0 .224 0 .447.26.447.521.223.26.67.26.893 0 .223-.26.223-.52.67.26.223.26.446.52.446 0 .223.261.67.261.893.26 0 .78.223 1.04.446 0 0-.26 0-.26.223.26.447.521 0 .781-.223.26.446.52.67.781 1.34-.261 0-.521-.224-.781-.224 0 .223 0 .447-.26.67-.261 0-.521-.224-.781-.224h-.781c-.26.224-.78.447-1.041.224 0 .446.261.446.521.446.52 0 1.041 0 1.561.223.26 0 .781 0 .781-.223.52 0 .781.223 1.301.223v-.223s-.26 0-.26-.223v-.223c.52 0 .78 0 1.301.223.26-.447.781.223 1.041 0-.26-.223-.26-.67-1.041-.67 0 0-.26-.223-.521-.223l.521-.446c-.26-.224-.521-.224-1.041 0h-.52c-.261-.224 0-.224 0-.447s.26-.446.78-.446c.781-.447 1.822 0 2.602-.223h.261c1.041.223 1.821 0 2.862.223h1.301c.781 0 1.822 0 2.603.223-.261.446.26.67.52 1.116h1.301c.26 0 .521.223.521.447-.261 0-.521.223-1.041.223.52.446.52.446 1.561 0 .26.446.781.446 1.301.446 0-.223 0-.223.26-.446h.781v-.224s0-.223-.26-.223c-.781.224-.781.224-1.041 0h.52v-.67c.521.224 1.041.224 1.302.447.26.223.52 0 .78 0s.781 0 1.041-.223l.26-.223c.261 0 .781.223 1.041.223.26 0 .521-.223.781-.223s.52.223 1.041.446v-.67c.52.224.781.224 1.301.447 0 0 .26.223.26 0 .521-.223.781.223 1.041.446v.224c.26 0 .26 0 .521-.224 0-.223 0-.67.78-.67 0 .224-.26.447-.26.67.52 0 .52 0 .52-.446.521 0 1.041-.223 1.822-.223.52 0 .781.223 1.301.223h.521c0 .223 0 .223-.261.446h.521c.52.224.52.224.26 0 .521-.223 1.301-.223 2.082 0 .26 0 .781 0 1.041.224.26 0 .52.223.78.223.261-.447.521-.224 1.041-.224.261 0 .521 0 1.041.224.781.223 1.562 0 1.822.67 0-.224 0-.224.26-.224s.521-.223 1.041-.223c.52 0 .52.223.52.67h1.302c.52.223 1.301.446 1.821.223-.781-.223-1.301-.223-2.082-.223.781-.67 2.082-.67 2.863 0-.26.223-.26.223-.781.446h.781c0-.223 0-.446.26-.67 0 0 .52-.223.781-.223.52.223 1.301 0 1.821.223.521 0 1.301.224 1.822.447.26 0 .52 0 .781.223.26 0 .52.223 1.04.223-.26.223-.26.447-.26.893.521 0 .781.223 1.301 0h.261c.26.223.52.223.78-.223.26-.223.26 0 .521 0 0 .223-.261.446.26.446 0-.223-.26-.223-.26-.446.26 0 .52-.223.78-.223v.223c.521 0 1.041-.223 1.302-.223 0 0 .26 0 .26.223.26.446.78.446 1.041.446.26 0 .52 0 .78.224.261 0 .261-.224.521-.447.26 0 .52.447.78 0 0 0 .521 0 .781.223.26 0 .781-.223 1.041-.223h.26c.26 0 .521.223.26.447l-.26.223c.26.446 1.041.223 1.562.223 0-.223.26-.447.26-.67.52 0 .78.224 1.301.224h1.301c.521 0 1.041.446 1.301.892l.26.224c.261 0 .261-.447.521-.447v.223l.52-.446c.261.446.781.223 1.301.446.781.224 1.562.224 2.603.224.52 0 .52 0 1.041.67.26-.447.78-.224 1.301-.67v.892l.78.67.521-.446c.26 0 .26.223.52.223.261.223.261.223.521.223h1.561v-.446h.26c.261.67 1.041.446 1.822.67h.26c0-.224.26-.224.26-.224h.781c.26 0 .521.223.781.223s.78.224 1.041.447c.52.223.78.67 1.041.893 0 0-.261 0-.521.223.521.446 1.041.446 1.822.223.78-.223 1.301 0 2.081 0 .261 0 .521 0 .781.223v.447c.781-.224 1.822 0 2.602-.224-.26 0-.52-.223-1.04-.223V25c.26 0 .26-.223.52-.223.52 0 1.041.223 1.561.223.261 0 .521 0 .521.446 0 .224.26.447.52.447s.521.223.781.446c0 0 .26-.223.52-.223l.261.223c.78-.223 1.561-.446 2.342-.446v.893c.78.223 1.561.223 2.081 0v.446h.261a1.903 1.903 0 011.561 0c.26 0 .26 0 .52-.223l.521.446c.26 0 .26.224.52.224.521-.224.781.223 1.301.223.521-.223.781-.447 1.302 0 .26.223.52.223 1.041.223h.26l1.561.67c.26.223.521.223.781.223.52-.223.78-.223.78.446 0-.223.261-.446.521-.223.52.223 1.301.447 1.821.67.261 0 .261.223.521.446 0 0 0-.223.26-.223s.26 0 .521.223v.223c.26.224.78-.67 1.041 0 0 0-.261.224-.261.447s.261.446.261.67c.52 0 .78-.447 1.301-.224 0-.223 0-.446-.261-.67.521.224.521.224.521.67.781.223 1.301.447 2.082.67.52-.447 1.041-.223 1.561-.223-.26.223-.26.223-.52.223.26.223.26.446.52.67.26 0 .52 0 1.041-.224v.447c.52-.224.52.67 1.041.446h.52c.261 0 .781.223 1.041.223.26 0 .26 0 .521.224.26 0 .26 0 .52.223h.521c.52 0 .78.446 1.301.223.26 0 1.041.446 1.301.67.52 0 1.041 0 1.301.446l.26.223c.521 0 .781.447 1.301.447-.26.223-.52.223-.78.446-.261.223-.521.447-1.041.67l.26.223c.52-.67.52-.67 1.821-.223l.521-.447c.26 0 .26.224.26.224l-.52.446c.26.223.52.223.52.446.26-.446.521-.67.781-1.116l.52.447.261.223c.52 0 1.04.446 1.561.223h.26c.521.67 1.561.447 2.342.67l2.342.67c.26 0 .26.223.521.446h.52c.521.223 0 .67.26.893h1.041c.26 0 .521.223 1.041.446v.67l.521-.447c.26.224.78.447 1.04.67.261 0 .781 0 1.041.447 0 .223.521.223.781.223h.52c.521.67 1.302.67 2.343.893.52 0 .78.223 1.301.446.26 0 .26.223.26.223-.521.223-.521-.446-.781-.223.26.67.781.893 1.562.67.26-.224.78 0 .78.223s0 .223.26.223c0 0 .261-.223.521-.223 0 .223.26.223.26.446.26-.223.521 0 .781.447h-.521v.223c.261 0 .521.223.781.223 0-.223-.26-.223-.26-.446.52 0 .781.446 1.041.893l.26-.224c.26.224.52.447 1.041.67 0 0 0 .223.26.223.781.223 1.301.67 1.822 1.116.26.224.52.224.52.67l.26.223c.521 0 .521.447.521.67.78 0 1.561.446 2.082.893l.26.223c0 .67.52 1.116 1.301 1.116 0 0 .26 0 .26.223.521.447 1.301.67 1.562 1.34.26.446.78.892 1.301.892.26 0 .26.224.26.224.26.223.26.446.52.446.521.223.781.67.781 1.116.52 0 .781.446 1.041.67.52.446 1.041 1.116 1.561 1.562l.521.447c0 .223 0 .446.52.223l.26.223c.261.223.261.67.781.67 0 0 0 .223.26.446h.781c.26 0 .26.447.26.67.781.223.781.893 1.301 1.339l-.52-.446c0-.224-.26-.447-.521-.447.261.223.261.447.521.447v.446c.52.223.52.67 1.041.893 0 0 .26 0 .26.223.52.67 1.041 1.116 1.561 2.009.261.446.261.893.781 1.34 0-.224 0-.224.26-.224.521.223.26.893.781.893 0 .223.26.446.26.67.26.223.26.446-.26.67l-.26.222c0 .224.26.224.26.447l-.26.223c.26.223.52.447 1.041.67-.261.446 0 .67.52.893v.67c.521 0 .521.446.781.669.26.223.26.67.52 1.116h.26v.893c0 .446 0 .67.261.893.26.223.26.446.26.67 0 .446.26.892.26 1.339 0 .223.26.67.26.892 0 0 0 .224.261.447 0-.223.26-.447.26-.67.26.447.26.893 0 1.563h.52c.26.446 0 .446-.26.67 0 1.115.52 2.231 1.301 3.124-.26.224-.26.224-.52.224v.67c0 .892-.261 1.562 0 2.455v.892c0 .67-.261 1.34 0 2.233 0 .223 0 .446-.261.67-.26.222-.26.446-.26.446v.892s.26 0 .26.224c-.26.446-.78.893-.52 1.562-.26.447-.26.893 0 1.116v.224c-.52 0-.52.446-.52.892 0 .67 0 1.563-.261 2.233 0 .446 0 1.116-.52 1.562.26.67-.521.893-.521 1.562 0 .447-.26.893-.52 1.34-.26.669-.52 1.562-1.041 2.232v.223c0 .67-.52.893-1.041 1.116-.26.223-.52.223-.52.67 0 .223.26.446.26.669-.521.224-.521.67-.781.893 0 0-.26 0-.26-.223 0 .67 0 1.563-1.041 1.563 0 .223.26.223.26.446.261 0 .261-.223.521-.223 0 .223-.26.446-.26.446-.521.224-.781.224-1.041.447 0 .223 0 .446.26.669-.26-.223-.521-.223-.781-.446-.26.223-.26.446-.26.67 0 .223-.26.446-.26.892 0 .447-.26.67-.781.67-.26 0-.52.223-.781.67-.26.223-.52.669-.78.669s-.26.224-.521.447h.261l-.521.446c.26.447-.52.67-.781 1.116-.52.447-.78.893-1.301 1.34-.26.223-.52.446-1.041.446-.26 0-.26 0-.52.223 0 .223.26.223.26.447l-1.561.669v-.669c-.26.223-.521.446-.26.669 0 .223.26.447-.261.447v.223c0 .223-.26.223-.26.223-.52 0-1.041.447-1.561.893-.781.446-1.301.893-1.822 1.339-.52.224-.781.447-1.301.67-.52 0-.52.223-.52.446-.261 0-.261-.223-.521-.223-.26.223-.52.447-1.041.67-.52.223-1.301.446-1.561.893-.781.223-1.301.892-2.082 1.116-.52.223-1.041.446-1.821.893l-.781-.67c-.26 0-.521.223-.781.223 0 .447.781 0 1.041.447-.26.446-1.041.223-1.561.669-.261.447-1.041.447-1.562.67l-1.561.67c-.26-.224-.26-.67-.781-.67.261.223.26.446.521.893-.261 0-.521.223-.781.223-.26-.223-.26-.223-.26-.446-.26 0-.781 0-1.041-.224 0 .224-.26.447-.26.67.26 0 .52.223.78.223-.52.447-1.301.67-1.821.893l-2.342.67c-.781.223-1.301.669-2.082.892h-.781c-.52.224-.52.224-.78 0-.261.224-.521.447-.781.447-.52 0-.781.223-1.301.223 0-.223.26-.223.26-.446h-.52c-.261 0-.261 0-.521-.224-.26 0-.781-.223-1.301.224-.26.223-.781.446-1.041.669-.26.224-.26.447 0 .67 0 .223-.26.446-.52.446-.261 0-.521 0-.521.224-.26.223-.78.223-.78-.224-.261.224-.261.447-.521.447-.26.223-.26.223-.52 0-.261-.223-.781-.447-1.302-.223-.52.223-1.04 0-1.561.446h-.26c-.521 0-.781 0-1.041.223-.52.224-1.041.447-1.822.447v.446c-.78-.446-.78-.223-1.04.223-.521-.223-.781-.223-1.041.224-.261-.224-.261-.447-.521-.447-.78 0-.78 0-1.301-.446-.26 0-.52.223-.781.223-.26-.223-.52-.223-.78-.446-.521.446-1.041.669-1.301 1.116 0 .223-.261.223-.521.446-.26 0-.781.223-1.041.223 0 .223 0 .447-.26.893h-.26v-.223c.26-.223 0-.447 0-.67-.26-.223-.521-.223-.781 0-.52.223-.781.223-1.301.447-.52.223-.52.223-.781-.224 0 0-.26 0-.26.224 0 0 0-.224-.26-.224 0 .224-.26.224-.26.224-.261.446 0 .446-.781.446h-.521c.261-.223.261-.446.521-.446h-.26c0 .223-.261.446-.261.669l.261.223c.52 0 .52.224.52.447-.26 0-.52 0-1.041.223.521.223.781.223 1.041.447-.26.223-.781.446-1.041.669-.26 0-.78-.223-1.041.223l-.78-.669c.26 0 .26 0 .52-.223 0-.224-.26-.224-.52-.447-.521.893-.521 1.339-1.041 1.339zm46.32-91.74c0-.224 0-.447-.52-.447l.52.446c.26 0 .52.447.781 0h-.781zM182.157 15.624c0 .223 0 .223.52.223-.26-.223-.26-.223-.52-.223 0-.223.26-.446-.26-.446 0 0 0 .223.26.446zm66.618 6.696c.26 0 .78 0 1.041.447v-.447c.26 0 .52.224 1.041.224.52-.224.52-.224.52-.447-1.041.223-1.041.223-1.561-.223 0 .223 0 .446-.261.446-.26 0-.52-.223-.78 0 0-.223.26-.446 0-.446-.521 0-.781.223-1.562.223.521.223 1.041.223 1.562.223zm-65.837-3.348c.26 0 .52 0 .52-.223-.52-.67-.781-.67-1.041-.446 0 .446 0 .446.521.67h-.521.26c0 .222 0 0 .261 0zm92.64 8.706c.26.223.781.223 1.041.446 0-.223.26-.446.26-.67.26-.223.521-.223.781-.223-.26-.223-.521-.223-1.041-.223l-.521.446-.78-.67c-.26-.223-.521-.669-1.041-.892-.26.223-.521.223-1.041.446 0-.223-.26-.446-.781-.446 0 0 0 .223-.26.223v.223c.52.224 1.041.224 1.561.447-.26.223-.52.223-.78.446h.78l.261.223c.78.67 1.041.67 1.561.224zM165.242 17.41c.26 0 .521.223.521.223.78 0 .78.223.78.67.521-.224.781.223 1.041.446.261-.446-.26-.67-.52-1.116l.52-.447c-.26 0-.52.224-.78.224-.521 0-.261-.447-.521-.67h-.781v.223h.781c-.781.224-.781.224-1.041.447-.26-.224-.52 0-.78.223.78.223.78 0 .78-.223zm32.268.893s0 .223.26.223v-.223c0-.224 0 0-.26 0-.26-.67-1.041-.447-1.561-.447 0-.223 0-.223-.26-.446-.521.223-1.301 0-1.562.446.781 0 1.301.223 2.082.223.26.224.781.224 1.301.224zm54.127 4.464c-.52-.223-.52-.223-.52.223.26 0 .26-.223.52-.223 0 .67 0 .67.521.67v-.447c.26 0 .78 0 .78.223.261.447.781.224 1.301.447h.521c0-.447-.521-.447-.781-.67l-.26.223-.52-.446h-1.562zM70.52 23.66c-.26.446-.52.446-.78.446v-.446c-.26 0-.521 0-.521.223-.26.223-.26.446-.26.67v-.224l.26.224c-1.04.892-1.561 1.116-2.602.67l-1.562.669h-.26c-.26 0-.78.223-1.04.223 0 .447.26.67 0 1.116-.261 0 0-.446-.521-.446-.26.223.26.446 0 .67h-.78v.446c-.521.223-.782.446-1.302.446-.52.223-.78.223-1.04.67-.521.67-.782.67-1.302.223 0 .447 0 .447-.26.67l-.78.67-.261.223c-.26 0-.52.223-.52.67-.521-.224-.781-.224-.781-.224-.26.223-.781.446-1.041.446-.78 0-1.562.447-2.082.893-.52.447-1.301.67-1.822 1.116-.52.224-1.56.447-1.56 1.116-.521.447-1.042.447-1.302.893 0 .224-.52 0-.78 0-.521.447-1.302.67-1.822.67 0 .446 0 .67-.26.893-.26.223-.781.223-.781.67-.52-.224-.78.223-1.041.223-.52 0-.52.446-.52.892h-1.041c0 .224-.26.447-.52.67-.261.223-.521.223-.782.447-1.04.67-1.821 1.339-3.122 1.785v.224c-.26.446-.781.892-1.301 1.116-.52.223-1.041.67-1.562 1.116-.26.223-.78.446-.78.892 0 .224-.26.224-.52.447-.521.223-1.042.446-1.302.67-.52.223-.78.67-1.301 1.116l.26.223v.223h-.78l-1.562 1.34c-.26.223-.52.446-.26.669v.223c-.52.223-.78.67-1.301.447 0 .223-.26.446-.26.67-.521.222-1.302.446-1.302 1.115-.78.447-1.04 1.116-1.821 1.563-.52.223-1.301.67-.52 1.562h-1.042c0 .224-.26.224-.26.447.26 0 .26.223.52.223v.223c-.26 0-.52.223-.78.223v.447c-1.041.446-1.301.446-1.301.893h-.26c-.26 0-.52.223-.52.446-.261.223-.261.447-.521.447l-.781.67c-.26.222-.52.446-.26.892v.223c-.26 0-.26.224-.26.224 0 .223 0 .446-.26.67-.521.222-.781.669-.781 1.115 0 .223-.26.223-.26.447-.521.446-.521 1.116-1.302 1.562v.223c-.26.67-.78 1.34-1.04 1.786-.26.223-.26.447-.521.893h-.26c0 .223-.26.446-.26.67v.446c0 .446 0 .67-.521.67-.52.223-.52.223-.52.67v.222h-.26c-.26.224-.26.447-.521.447.26.223.52.67.26.67-.26.223 0 .446.26.67-.78.446-.78 1.115-.78 1.562-.26.893-.781 1.562-.52 2.455v.223c-.261.447-.261.893-.261 1.34v1.339h-.52c.52.223.26.67.26.893V83.259c-.26.446 0 .893 0 1.116h.52c-.52.446-.52 1.116 0 1.563-.52.446-.52.892.26 1.339-.26.893 0 1.562.52 2.455-.26.447-.26.893.261 1.116.52.223.26.67.26 1.116 0 .447 0 .893.26 1.34.26.446.521.892.521 1.562.26 0 .26.223.52.223-.52.447-.78.67-.26.893v.223c0 .224.26.67.26.893.26.223.26.67.52.893.261.223.261.447.521.67h.781c0 .223-.26.223-.26.446l.78.67.26.223c0 .446.26.67.781.893v.223c0 .446.52.67.781 1.116.26.223.52.223.78.447 0 .223 0 .446.521.669l.26.223c0 .447.26.447.781.67.26 0 .26.223.26.447-.26.223 0 .223.52.223v.446c.521.223 1.042.447 1.302.893 0 0 0 .223.26.223.78.223.78.893 1.041 1.339v.224c.52.223.78.446 1.04.669.261.447.782.67 1.302.893.26 0 .26.223.52.223.781.224 1.041 1.117 2.082 1.34 0 .446.781.446 1.041.669.52.447 1.301.67 1.822 1.116.52.224 1.04.447 1.3.893.261.447.782.893 1.562.893.26 0 .26.223.26.447.26.446.26.446.781.446h1.301l.26.223c.521.447 1.041.67 2.082.447 0 0 0 .223.26.223.26.446.781.893 1.562.893.78 0 1.04.223 1.561.446.26 0 .26.223.52.223.521 0 .781.224.781.447.26.223.52.223.781.223h.52c.26.67 1.041.893 1.822 1.116.52 0 .78.223 1.041.67.26-.224.52-.224.78 0 .26.223.781.446 1.042.446.52 0 .78.223 1.04.67.781 0 1.041 0 1.562.446l.26-.223c.26.223.52.446.78.446.521 0 .781.224.781.67.26 0 .52-.223.781-.223.26.67 1.041.446 1.561.446 0 .224.26.447.26.447.521 0 .521.446.521.446.52 0 1.041 0 1.561-.223 0 .223.26.446.26.67h1.042l1.561.669c.52-.223 1.04-.223 1.561.223l.26.224c.521.223 1.041.223 1.562.446.26 0 .78 0 .78.447h.26c.261 0 .261-.001.521.223l.52.446c1.562.223 2.863.67 4.425.893 0 .223-.26.446.26.67.26-.224.26-.447.52-.447.78.893 2.082 1.116 3.123.67l1.561.67c.26 0 .52-.224.781-.224.26.447.78.447 1.04.447.261 0 .521 0 .782.223.78.223 1.3.223 2.081.446.781.224 1.302.224 2.082.447.78.223 1.561.223 2.602.446h.52c.521.223 1.302.447 1.823.447.78.223 1.821.446 2.602.446h.26c.52-.446.78 0 1.04.223h1.042c0 .223-.26.223-.26.223.52-.223 1.04 0 1.3 0 .521.224 1.302.224 1.822.224.78.223 1.822.223 2.602.446.52 0 .781.223 1.302.447.52 0 1.041-.224 1.561.446.26.223.52.223.781.223h1.821c.521 0 1.301-.223 1.822.223h.52c.26 0 .521 0 .781.224 0 0 .26 0 .26.223 1.041.223 1.822.446 2.863.446h1.301c.26 0 .52.224.52.224.521-.224 1.041 0 1.562 0h.26c.52-.224.78.446 1.301.223.26.446.781.223 1.041.669.26-.223.26-.446.781-.446.52.223 1.04 0 1.561 0h.26c.26-.223.521 0 .781 0 .26.223.52.223.78.223.261 0 .521 0 1.041.223.261 0 .781.224 1.041.224.521 0 1.041 0 1.562.223h.78c.521-.223 1.301-.223 1.822.223.26-.223.52-.446.781-.223.26.223.52.223 1.04.223 1.041-.223 2.082.223 3.123.223h.26c.521.223 1.302.223 1.822.447h.52c.521 0 1.041.223 1.562 0h.26c.52.223 1.301.223 1.822.223H140c.521.223 1.041.223 1.822.446H144.164v.447h3.383c.26-.223.781-.223 1.041 0h.78c.261 0 .261-.224.261-.224 0 .447.26.447.78.447h.521c.52.223 1.041.223 1.561.223.26 0 .781-.223 1.041-.223.521 0 .781.223 1.301.223.521 0 .781.223 1.041.447h2.082c.52 0 1.301.446 2.082 0h.26c.52 0 1.041.223 1.301 0h1.041c.52 0 .781.223 1.301.223h3.904c.26 0 .78 0 1.04.446 0 0 .261.223.521.223.52 0 1.041-.223 1.561.224h.26c1.041 0 2.082-.224 2.863 0h.52c.261.446.781.223 1.041 0 .261 0 .261-.224.521-.224.26-.223.52-.223 0-.669h1.041c-.261.223-.521.446-.781.446h1.041c.781 0 1.561.447 2.342.223 0 0 .26 0 .26.224.781-.67 1.561-.224 2.342-.224.26.447.781.67 1.301.447v.67c.261-.224.781-.224 1.041-.447.26-.223.781-.446 1.301-.67.521-.223 1.041 0 1.562.224 0-.224.26-.224.26-.447l.26.223c0 .224.26.447.521.224.26 0 .26-.224.52-.447l.52.447c.261.223.521.223.781.223.521-.223.781-.223 1.301-.223h.261c.78 0 1.561-.224 2.081-.224h3.383c.521-.223.781.224 1.041 0 .26.447.781.224 1.301.224.521 0 .781-.224 1.301 0 .781.223.781.223 1.562 0 0 .223.26.223.26.446.781-.223 1.561-.446 2.082.223.26-.446.52-.223.78-.223.521-.223.781-.223 1.041-.446.261-.447.521-.224 1.041 0h.261c.52-.224.78 0 1.04.223.261 0 .261-.223.261-.223l.26-.224h.52c.521.224.781.224 1.301 0h.261c.52.224 1.041.224 1.561-.223h.26c.26.223.781.223 1.041.223.781.224 1.301.224 1.822-.669l.26-.223.52.446c-.26 0-.52.223-.52.223.52.223 1.041.447 1.561 0h-.52c.26 0 .781-.223 1.041-.223.52.446 1.301.67 2.082.223h.26c.26 0 .78 0 1.041-.223.52-.446 1.041-.223 1.561-.446h1.822c.26 0 .26.446.52.446l.521-.446c1.04 0 1.821.223 2.862.223v.446c0-.223.26-.446.26-.446.521 0 1.301 0 1.822-.223.52-.224 1.041-.224 1.301.223h.26c.521-.447 1.041-.447 1.562-.223h.52c.781 0 1.561-.224 2.082-.67 0 0 .26 0 .26-.223 0 .223.26.223.26.446h1.301c-.26-.446-.26-.446-.78-.446-.261 0-.521 0-.521-.224.26 0 .781-.223 1.041-.223 0 .447 1.041.223.781.67.26 0 .781.223 1.041.223.26-.446.52-.223 1.041-.223 0-.223.26-.446.52-.223h.781c.52 0 1.041 0 1.561-.224.521-.223 1.041 0 1.561.447h.261c.26-.223.52-.223.52-.447.521-.446 1.041-.223 1.561-.223.261 0 .261 0 .521.223.26.224.52.224.52 0 0 0 0-.223.261-.223.26 0 .52.223.52.223.521 0 1.041-.223 1.561 0h.261c0-.446.52-.223.78-.223h.781c.52-.223 1.041-.223 1.561-.223h.781c.781 0 1.301-.223 1.561 0 .521.223.781 0 .781-.223h1.041c.26 0 .26 0 .52-.223.781-.224 1.562-.224 2.342-.447l.261-.223c.78 0 1.301.223 1.821 0h.781c.52.223.781.223 1.301 0 .781-.223 1.301-.446 2.082-.223h1.821s0-.223.261-.223c.78.223 1.301 0 1.821-.447.521.223.521.223 1.041-.223v.223h.781c.26-.223.52-.446.781-.446h.78c.26-.223.521-.223 1.041-.447 0 .224.26.224.26.224l.521-.447h.52c.26.223.781.223 1.041 0h.26c.781.223 1.301 0 2.082 0 .26-.446.781-.223 1.041-.446 0 0 .26 0 .26-.224.521-.446 1.041-.223 1.822 0 .26-.446 1.041-.223 1.561-.446.521.446 1.041 0 1.562 0 .52-.223 1.301-.223 1.821-.446.521-.224 1.301-.224 1.822-.893 0-.224.26-.224.52-.224h.521c.26-.223.52-.223 1.041 0 .26.224.78.224 1.301 0 .52-.223.78-.669 1.301-.446h.26c.26 0 .26-.223.52-.223.521 0 .781 0 1.041-.447.261 0 .521.224.781.224 0-.224.26-.224.26-.447.261 0 .521.223.781 0 .26 0 .781 0 .781-.223.26-.223.52-.223.78 0 .521.223 1.562-.223 1.822-.67l.26-.223c.781.447.521.447 1.301 0l.26.223c.521 0 1.041-.223 1.562-.223.26-.223.26-.446.52-.669 0 .223 0 .446.261.669 0-.223.26-.446.26-.669.52 0 1.301-.224 1.821-.224l.521-.446c.26 0 .52-.223.78-.223h.261c.52 0 1.041 0 1.041-.447.52-.223 1.04-.223 1.561-.446.781-.447 1.561-.447 2.342-.447.26-.446.26-.446 1.041-.446h.26c.521-.223 1.041-.223 1.561-.446.781-.224 1.302-.447 2.082-.447.521 0 1.041-.223 1.562-.446.52-.224.78-.447 1.301-.67v-.223c.52-.223 1.041-.223 1.301-.893.781.446 2.862-.446 3.383-1.339.26 0 .26.223.52.223.521-.223 1.041-.223 1.301-.447.261 0 .521-.223 1.041-.223 0 0 .26 0 .26-.223.261 0 .521-.223.521-.223.26 0 .52 0 .52-.223.261-.447.781-.224 1.302-.447.26-.223 1.04-.223 1.301-.669l.26-.224c.781-.446 1.561-.446 2.082-1.116h.26s.26-.223.26-.446c.26.223.521.223.781-.223.26-.224.781-.447 1.041-.67.78-.223 1.301-.67 1.821-.893 0-.446.261-.223.521-.223 0-.447.26-.447.52-.67l.26-.223c0-.223.261-.223.521-.223 0 0 .26 0 .26-.223.26-.447.781-.67 1.301-1.117.26-.223.781-.446 1.301-.223 0-.446 0-.893.781-.893 0 0 0-.223.26-.223l.26-.223c.521 0 .781-.446 1.041-.893.261 0 .521 0 .781-.223.26-.446.521-.446 1.041-.223.26-.447.26-.893.52-1.34 0-.223 0-.446.261-.446.52-.223.78-.67.78-1.116.261 0 .521.223.781.223.52-.446.52-1.339 1.561-1.562v.892c1.041-.223 1.041-.446.781-.892.26-.224.781-.67.781-1.116 0-.224.52-.67.78-.893h-.78v-.447c.26-.446.52-.669.78-1.116.261-.223.261-.223.261-.446s.26-.223.26-.447c.26-.223.781-.669.781-.893 0-.446.52-.669.52-1.116 0-.223.26-.446.26-.446.26-.223.521-.446.521-.67.26-.223.26-.446.52-.892.26-.447.26-.893.521-1.34v-.223c-.261-.446-.261-.446.26-.893l.26-.223c0-.67.52-1.116.52-1.563 0-.223-.26-.446-.26-.67.26 0 .521-.222.521-.222 0-.224 0-.447.26-.67.26-.67.781-1.116.52-2.009v-.446c.261-.447.521-.67.261-1.117-.261-.446.52-.67 0-1.116.26 0 .26 0 .52-.223-.52-.223-.26-.67-.52-1.116 0-.446 0-1.116-.261-1.562 0-.224.261-.224.261-.447 0-.446-.261-.893-.261-1.34h-.78c.26-.445.52-.669.52-1.115.26-.223.26-.447 0-.67-.26-.446 0-.893-.52-1.116v-.223-1.116-.447a.608.608 0 000-.892l-.261-.224c.261-.67-.26-1.116-.52-1.785-.26-.447-.52-.893-.26-1.563-.26-.223-.521-.223-.781-.446 0-.224.26-.224.26-.447-.26 0-.52 0-.52-.223 0-.893 0-1.562-.781-2.232.26-.447 0-.67-.26-.893v-.446-.447c-.26-.223-.52-.67-.26-1.116 0 0 0-.223-.26-.223-.521-.223-.261-.447-.521-.67 0-.223 0-.446-.26-.446l-1.041-.893c-.26-.223-.521-.446-.521-.893v-.223c-.52-.223-.78-.67-1.04-1.116-.261-.223-.521-.447-1.041-.67 0-.446 0-.67.26-1.116-.26 0-.521-.223-.781-.223v-.447c-1.041 0-1.301-.223-1.821-.892-.261-.224-.261-.447-.521-.893-.26-.223-.52-.447-.52-.67-.521.223-.521-.223-.521-.446l-.26-.224c-.26-.446-.52-.446-.781-.446 0-.223-.26-.446-.26-.67 0-.223 0-.223-.52-.223-.521-.893-.521-.893-1.301-.893 0-.223 0-.223-.261-.446-.52-.447-1.041-.893-1.561-1.116-.26-.223-.52-.223-.52-.447-.261-.446-.521-.67-1.041-.446 0-.223 0-.446.26-.67-.26-.223-.781-.223-1.041-.446-.52-.223-1.301-.447-1.561-.893 0 0-.261 0-.261-.223-.52-.223-.78-.67-1.301-1.116-.26 0-.78 0-1.041-.447-.26-.223-.78-.446-1.041-.446-.52-.447-1.561-.447-1.821-1.116-.26 0-.26.223-.521.223.521.223.781.67 1.562.893h-.521c-.52-.223-.78-.223-1.301-.447-.26-.223-.52-.223-.52-.67 0-.222-.26-.669-.521-.892h-.52c.26-.223.26-.446-.26-.67-.261-.223-.521 0-.781.224l-.26.223v-.893c-.781-.223-1.301-.67-1.822-.893v-.67c-.26.224-.52.224-.781 0-.26-.223-.52-.223-.52-.223-.781-.223-1.561-.446-2.082-.893l-.26-.223c-.26-.223-.52-.446-.781-.446-.26 0-.52-.224-.52-.224-.26 0-.521-.223-.781-.223-.78.224-1.561-.446-2.342-.446h-.26c-.26-.223-.521-.223-.781-.447-.26 0-.26 0-.52-.223s-.781-.446-1.041-.67v.447s0 .223.26.223c-.26.223-.781.223-1.041-.223l-.26-.223c-.52-.223-.781-.223-1.301-.447l-.26-.223c.52 0 .78.223 1.301.223.26.224.78.224 1.301.224-.26-.447-1.041-.224-1.301-.67 0-.447-.521-1.116-1.041-.893-.521 0-1.041 0-1.301-.223h-.261c-.52 0-1.04-.223-1.04-.893.26-.223.26-.223.26-.67-.521.224-.781.447-1.301.224-.521-.224-1.041-.224-1.562-.224-.26 0-.26 0-.52.224l.26.223c-.26 0-.781 0-1.041.223-.52 0-1.041-.223-1.301-.223s-.52 0-.26-.447c.52.224 1.041.447 1.561.447l.26-.223-.52-.447c-.26 0-.26.223-.52.223-.261-.446-.521-.67-.521-1.116-.52 0-.781 0-1.301-.223 0-.223 0-.223-.52-.223.26 0 .26.223.52.223-.52 0-.781.223-1.041.67 0 .223-.26.223-.52 0 0 0 .26 0 .26-.224.26-.223.52-.67.26-.67l-.26.224c-.26-.223-.26-.67-.521-.893-.26-.223-.78-.223-1.041-.446 0 0-.26 0-.26.223-.26.446-.52.223-.78.223.26-.223.52-.446 1.04-.67h.261c.26 0 .26.224.52.224.26-.223.26-.223.781-.447h-1.041c-.26 0-.521-.446-.781-.446s-.78-.223-1.041-.223c-.52.223-.78 0-1.041 0h-.52c-.52.223-1.301.223-1.561.67-.261.223-.261.223-.521.223 0-.67-.52-.67-1.041-.67v-.223c0-.67 0-.67.781-.447h.52c0 .224 0 .447.261.447l.52-.447c0-.223-.26-.67-.26-.893-.521.224-.781.224-1.301.224.26 0 .26 0 .52-.447-.52-.223-.52.223-.78.447-.521-.224-.781-.224-1.302-.447-.26.223-.26.223-.78.223l.26-.223c-.521 0-1.041-.223-1.561-.223 0 0-.261.223-.521.223.26.223.26.223.26.447-.26.223-.52.446-.78.446-.521-.446-.521-.446-1.301-.67-.261 0-.781-.223-1.041-.223-.261 0-.521-.223-.521.223 0 .224-.26.224-.26.224 0-1.116-1.301-1.34-2.082-1.786 0 .223-.26.446-.26.67h-1.041c-.26 0-.26 0-.52-.224-.261 0-.521-.223-.781-.446a1.903 1.903 0 01-1.561 0v-.67c-.261 0-.521 0-.781.224v-.224l.52-.446c0-.223-.26-.447-.26-.447-.52 0-.781-.223-1.301.224-.26.223-.52.446-1.041 0-.26-.224-.781-.224-1.301-.224 0 0-.26.224-.26.447.78 0 1.301.223 1.821.223v.223c-.26.224-.52.224-.78.447-.521-.224-.781-.447-1.301-.67-.781.223-1.562-.223-2.343-.446.521-.224 1.041 0 1.562-.224-.26-.446-.521-.67-1.041-.67-.26 0-.26-.222-.521-.222l-.52.446v-.893c-.52 0-1.041 0-1.301-.223 0-.223 0-.447-.26-.67l-.521.447c-.26-.224-.52-.224-1.041-.447-.26 0-.52.224-.78.224.26.223.26.223.52.223h.26c.261 0 .261.223.521.223h.52c.521.223 1.041.446 1.562.446v.447c.52.223.26.67.26.893-1.041 0-1.822-.447-2.602-.67-.261-.446-.521-.223-1.041-.223 0-.223.26-.223.26-.223h.781c.26 0 .52 0 .78.223 0-.447 0-.67-.52-.447l-.26-.223c-.261 0-.521-.223-.521-.223-.26.223-.52 0-.781 0 0 .223-.26.446-.26.67-.52 0-.781 0-1.301-.224v-.67c.26 0 .52 0 .781-.223 0 .224-.261.447-.261.447.261 0 .521.223.781.223v-.446c.26-.224.521-.224.521-.224 0-.223-.261-.223-.261-.446-.26 0-.26 0-.26.223-.52.447-.52.224-.781-.223 0-.223 0-.223-.26-.446-.52.223-.52.67-.26 1.116-.52 0-1.041-.447-1.561-.447 0 0-.261 0-.261-.223-.26-.446-.52-.223-1.04-.223V24.33h-.521c0 .224.26.224.26.447-.26 0-.52 0-.78.223 0-.223.26-.67.26-.893 0 0-.26 0-.521.223 0 .224-.26.447.261.67-.261.223-.521.223-.521 0-.26-.67-.52-.67-1.041-.67h-.26c-.52 0-1.041 0-1.561-.223-.521-.223.26-.446 0-.446-.521-.224-.781-.224-1.041-.447-.26-.223-.26 0-.521 0 .261 0 .261.224.521.447h-1.041v-.67c0 .223-.26.223-.521.447 0-.447 0-.447-.52-.67 0 .223-.26.223-.26.446-.26-.223-.521-.67-.781-.223-.26-.223-.26-.446-.52-.446h-.521c0-.224 0-.224-.26-.447-.52.223-1.041.447-1.301 0-.26 0-.26.223-.521.223-.78 0-1.301-.223-1.821-.446-.26-.223-.521-.223-1.041-.223-.26 0-.781.223-1.041 0-.781-.223-1.301-.447-2.082-.223h-.26c-.52-.224-.781-.224-1.041 0-.52.446-1.041.446-1.561 0 0 .223-.261.446-.261.892-.78-.223-1.561 0-2.081-.446.26.223.52 0 .78-.223h.521c0-.223-.26-.223-.26-.223-1.041-.224-2.082-.447-2.863-.447-.26 0-.781-.223-1.041-.223-.52 0-.78-.447-1.301-.223h-.26c-.781.223-1.562-.224-2.082 0-.26-.224-.52-.447-.781-.893-.26.223-.26.446-.52.446-.521-.446-.521-.446-1.561-.223 0 0-.261-.223-.261-.446-.26 0-.26.223-.52.223-.26-.223-.26-.447 0-.67.26-.223.52-.223.781-.223 0 0 .26.223.52.223v-.446h.52c.261.446.781.223 1.041 0 .521-.223.781-.223.521-.893v-.223c.26.223.26.223.26.446.781-.223 1.301 0 2.082.223-.521.67-.521.67-1.041.447-.26 0-.52 0-.781.223h2.342v-.893c.261 0 .781.223 1.041 0a1.906 1.906 0 011.562 0c.52.223.78.223 1.04 0-.52 0-.78-.67-1.301-.446-.26-.224-.52 0-.78-.224-.521-.446-.781-.223-1.041 0h-.26c-.781 0-1.302 0-2.082-.223-.521 0-1.041-.223-1.562-.446a1.902 1.902 0 00-1.561 0c-.26.223-.781.67-1.301.446v-.446c-.521-.223-.781-.223-1.301 0 .52 0 .52.223.52.446.26-.223.521-.446.781-.446 0 .223.26.223.26.223-.26.223-.781.447-1.041.67.26.223.26.446.521.67-.521.669-1.301.223-1.822.669-.26-.223-.52-.446-.781-.446-.52 0-.78-.224-1.04-.447-.261 0-.261.223-.261.223-5.725 3.795-5.725 3.795-5.985 3.572-.52 0-1.041.223-1.561.446-.521 0-1.041.223-1.562 0-.52-.223-.78-.223-1.301.223 0-.223 0-.223-.26-.446-.26.223-.52.223-.781 0-.52-.223-1.301-.446-1.821-.223h-.781c-.52-.223-.781 0-1.301.223 0 .223.26.446.26.67-.52 0-1.041.223-1.821 0 .26-.447.78 0 1.041-.224 0-.223 0-.67-.521-.67-.26 0-.781 0-.781.447v-.446c-.78 0-1.301.223-2.081.223-.261 0-.521 0-.781-.223v-.67c.26 0 .52.447.781.223.26-.223.52.447.78.224 0-.224 0-.447.26-.893-.26 0-.52.223-.52.223 0-.223-.26-.447-.26-.447-.781 0-1.301 0-2.082-.223-.52.224 0 .67 0 1.116h-.52c-.521.224-1.041.224-1.302 0-.52 0-.78-.223-1.301 0-.26.224-.52.224-1.041 0h-1.561c-.26-.446-.26-.446-.781-.223l-.26.223c-.26-.446-.781 0-1.041-.223h-.78l-.261-.223c-.26 0-.78.223-1.041 0 .781-.447.781-.67 1.041-.67.261-.223 0-.446-.26-.223s-.52-.223-.781 0c0 .223 0 .447.261.893a541.99 541.99 0 01-.781-.67c-.52.67-1.301.224-1.822.447.261-.224.261-.447.261-.893-.261.446-.521.223-.781.223-.521.223-.521-.223-.781-.223-.26.223-.78.223-1.041.223 0 .223-.26.223-.26.447v-.224c.26-.67 0-.893-.781-1.116h-.78c-.26 0-.26 0-.521-.223-.26 0-.26-.223-.26-.223h-1.561c-.26.223-.521 0-.521 0-.26 0-.52 0-.52-.223-.26-.224-.781-.224-.781 0 0 .223 0 .223.26.446-.26 0-.26.223-.52.223.26.67 1.041.447 1.301.67.521.223.781-.223 1.301-.67.26.223.521.447.26.893-.26-.223-.78-.223-1.301 0 .261.223.521.223.781.447-.52 0-1.301.223-1.561.223-.521-.447-.521-.447-.781-.447-.521 0-1.301-.223-2.082 0h-.52c-.521 0-1.041.224-1.562.224v-.224c-.26-.223-.52-.446-.78-.446-.521 0-.261.446-.521.67-.52 0-.78-.224-1.041-.224-.78 0-1.301 0-1.821-.446 0-.223-.26-.223-.26-.447-.261-.223-.261 0-.521.224.26.223.521 0 .521.446-.521-.223-.521-.223-1.822.67 0-.224-.26-.224-.26-.447-.261-.223-.521 0-1.041 0-.521.447-.781-.223-1.041-.446-.26 0-.521.223-.781.223v-.446c-.26 0-.52-.224-.52 0-.521.446-1.041 0-1.301-.224-.521-.223-1.041-.223-1.302.224 0-.224-.26-.224-.26-.447v.447c-.26 0-.78.223-1.041.223 0 0-.26 0-.52-.223-.26-.224-.781.223-1.041-.224h-1.561c0 .224 0 .447-.261.67-.26-.223-.52-.223-.78-.223 0-.223.26-.223.26-.447h-.781c-.52 0-.26-.446-.52-.446s-.521.223-.781.223c-.26-.223-.26-.446-.52-.67l.52-.446c-.781 0-.781 0-.781.447 0 .223.261.446.261.892h.26l.26-.223v.447a4.11 4.11 0 01-2.862-.447c-.261.223-.261.447-.261.447-.78-.224-1.561-.224-2.081.223-.261-.447-.261-.447-.781 0-.26-.223-.52-.223-.781-.447h-.78c0 .67 0 .893.26 1.116-.781.224-.26-.446-.521-.67-.26 0-.52.224-.52.224-.26-.223-.781 0-1.041 0 0-.446-.781-.223-.781-.893h-.52s-.26.223-.521.223c0-.892.781-.446 1.302-.892v.446c.52-.223.78-.223 1.561-.446-.26-.224-.52-.224-.52-.224-.261 0-.261 0-.521-.223 0-.223.26-.446.26-.893-.26 0-.26.224-.52.224h-.521v-.224l1.041-.893h1.041c.26-.223.781-.223 1.041-.223.26 0 .781 0 1.041-.223-.26-.446-.26-.446-.781-.446h-1.821c-.261 0-.521.223-.781.446s0 .223 0 .446l-.26.224h-.521c-.26.223-.26.446-.26.67-.26-.224-.52-.447-.781-.894-.52.447-.78.224-1.301.224 0-.224.261-.447.521-.447-.26-.446-.781.223-1.041 0-.26 0-.521.223-1.041.447-.26.223-.781.223-1.041.223.26.446.781.446 1.041.223.26 0 .52 0 .52.223l.261-.223c0 1.116 0 1.116.26 1.34-.521 0-1.041 0-1.561.669.26 0 .52-.223.78-.223 0 .446-.26.67-.78.67-.521 0-.261-.447-.261-.67-.26 0-.52 0-1.041.223l.521.446v.893c-.26 0-.26-.223-.26-.223.26-.446-.521-.893-.521-1.562-.26.223-.52.223-.781.446-.52-.446-.52-.446.261-.446.26 0 .26-.224.26-.447h-2.082c0-.223.26-.223.26-.446h-1.041c.261.223.261.67.521.67.26.223.52 0 .781 0 0 .223 0 .446.26.669.26 0 .52 0 1.041.223v.67c-.261 0-.521-.223-.781-.223l-.26.223c-.26-.223-.26 0-.521 0h-.26l.26-.223c.261 0 .261-.224.261-.224-.261 0-.521.224-.521.224-.26-.224-.52 0-1.041 0 .26-.447.521-.67.781-.893-.521 0-.781-.223-1.041-.223-.26 0-.52 0-.781.223-.26.223-.26.446-.52.67h1.041c.52.223 1.041.67 1.821.446l.261.223-.261.223h-1.561c-.26 0-.52 0-.52.224v.446h-1.302v-.223h.781c0-.224-.26-.224-.26-.447-.26.224-.26-.223-.521-.223-.26 0-.26.223-.52.447-1.041.223-1.301-.224-1.301-.224-1.041.447-1.301.224-1.562-.223-.52 0-.78 0-1.301-.223-.78-.447-1.041-.223-1.301.223 0 0 0 .223-.26.223 0-.223-.26-.223-.26-.446-.26.223-.521.446-.521.67 0 0 .261.223.261.446-1.041 0-1.822-.223-2.603.446v-.892c-.26.223-.52.223-.78.446-.261 0-.261.223-.521 0a1.903 1.903 0 00-1.561 0c-.521.223-.781.223-1.301-.447 0 .447-.521.447-.781.67l.52.447c0 .223-.26.446-.26.446h-.26c0-.446-.26-.893-.52-.893-.521-.223-.781-.223-1.302-.223.261 0 .521-.223.781-.223 0-.447-.26-.67-.52-.447-.261.224-.521 0-.521-.223h.521c.52 0 .78.223 1.301 0 .52-.223 1.301-.446 1.821-.67.261 0 .261-.223.521-.446.26.446.52.67.781.893-.261 0-.261.223-.261.223.26.223.521 0 .781-.223 0-.223-.26-.447-.26-.447h.26c.781-.223.781-.223.26-.67-.26-.222-.26-.446-.26-.669.52 0 .781.223 1.041.223 0-.223.26-.446.26-.892h.26c0-.447-.52 0-.52-.447.52-.223 1.041-.223 1.301-.446.26.446 0 .67-.26.67s-.26.223-.26.446h1.301c0 .223-.261.446-.261.446.521.447 0 .447-.26.67.26.223.781.446 1.041.223.26-.223.26-.223.521-.223h1.04c0-.223 0-.447.261-.67.52 0 .78.447 1.301.447.26-.447.26-.67.52-1.116.26.223.26.446.26.67-1.04 0-1.301 0-1.301.222.261.447.781 0 1.041 0-.26.224-.26.447-.52.447h-1.562v.223c.261 0 .521.223.781.223.781.447.781.447 1.301 0 0 0 0 .223.26.223.261 0 .261-.223.261-.223.26 0 .26.223.26.223.52.224.781.224 1.041-.223 0-.67 0-.893.26-1.116-.26-.223-.52-.446-.781-.446-.78.446 0 .67 0 1.116-.26-.223-.52-.223-.52-.447 0-.446-.26-.67-.521-.892l.521-.447c-.521-.223-1.301-.223-1.561-.893h3.383c.78 0 1.561-.223 2.081-.223.261 0 .781-.223 1.041 0 .521.223.781.223 1.301 0 .261 0 .521-.223.781 0s.781.223 1.041 0h.26c-.26.223-.26.223-.26.446.781.224 2.082.224 2.602 0l-.78-.67c.52 0 .78 0 1.04-.222h.521s.26.223.26.446v.223c.26 0 .26-.223.26-.223-.26 0-.26 0 0-.223.781-.223 1.562-.223 2.603-.223 1.04.223 1.821 0 2.862.223.521 0 1.301-.223 2.082-.223H167.064c.26 0 .781 0 1.041.223.26.223.52.223.78 0 .261-.223.781-.223 1.041 0h1.041c.26 0 .781-.223 1.041 0-.52.893-1.301.446-2.342.446.26.447.521.67.781.893.26.223.26.67.52.893.521-.223 1.041 0 1.562 0-.521.446-.781 0-1.041 0 0 .223 0 .223-.261.446 0 0-.26 0-.26.224l.781.67c.52 0 1.041-.224 1.301-.224.26.223.521.67.781.446.52-.446.78-.67 1.041-.892l-.261-.224c.521-.223 1.041.224 1.302-.223 0 0 0-.223-.261-.446h.521c0 .223-.26.446-.26.893 1.04-.447 1.04-.447 1.561 0 .26.223.52.223.781.223.26-.447.52-.223 1.04 0 .261.223.521 0 .781 0-.26-.447-.52-.67-.52-.893h1.561c0 .223.26.446.26.67.521-.224.781-.447 1.041-.447h-.52v-.446c-.521 0-.781 0-1.301.223-.261-.447-.781-.67-1.302-.447v.67h-.78l.52-.446c-.26 0-.26-.224-.52-.224-.521 0-.781.224-1.301.224-.261-.224-.781-.67-1.562-.447-.52 0-.26-.223-.26-.446.521-.223.781-.223 1.041.223.52-.223 1.041-.446 1.301-.67l-.26.224c.26 0 .26.223.26.223.781 0 1.561-.223 2.342-.223h1.041l.26-.224h-.78s-.261 0-.261-.223c.521 0 .781-.223 1.041-.223-.26-.223-.26-.446-.52-.67-.26-.223-.521-.67-1.041-.67-.521 0-.781-.223-1.041-.669l-.26-.223c-.26.223-.26 0-.26-.223-.261-.224-.261-.67-.781-.67-.521 0-.521-.67-.781-.893-.78-.446-1.561-.67-2.342-1.116-.26 0-.52-.223-.52-.223-.521 0-.261-.223-.521-.447h-.52l-.26.224c-.261-.224-.261-.447-.521-.447-.781-.223-1.301-.67-1.821-.893-.261-.223-.521 0-.521 0-.26-.223-.781-.446-1.041-.446-.26 0-.26-.223-.52-.223-.26-.447-.521-.223-.781 0-.26-.67-.781-.447-.781-.67-.52-.446-1.301-.446-2.081-.67-.261-.223-.781-.223-.781-.446h-1.041v.67c-.26 0-.52 0-.781-.224-.26 0-.26 0-.52-.223s-.521-.223-.781-.223h-.52v-.446c-.521-.224-.26.446-.521.446-.52 0-1.301-.223-1.821-.223-1.301 0-2.342-.223-3.643-.223-.261 0-.781.223-1.041 0-.261-.224-.781 0-1.041 0-.521 0-1.301.223-1.822-.224v-.446c-.26-.223-.26 0-.52.223-.261.223-.781 0-1.041-.223l-.26-.223c-.261 0-.261.223-.521.223 0 .67.521.223.781.446 0 .224-.26.224-.521.447-.26 0-.52.223-1.041.223-.52 0-1.04.223-1.821 0-.26.223-.521 0-1.041-.223-.26 0-.52-.223-.781 0-.52.223-.78.446-1.561.223-.26 0-.521-.223-.781 0s-.78 0-.78-.446c.26 0 .52-.224.78-.224-.26 0-.78-.223-1.041.224-.26.446-.78.67-1.301.67-.26 0-.52.222-.78.222-1.041.224-1.822.447-2.863.224-.26 0-.26.223-.52.223-.521 0-1.041 0-1.562.223h-.52c-.26 0-1.041.223-1.041.223 0 .447-.521.223-.521.447l-.52-.447c-.26-.446-.26-.446-.52-.223h-1.302c0-.223-.26-.223-.52-.446 0 .67-.52.446-.781.67-.52.223-1.041.446-1.561.446 0-.447.781-.223.781-.67-.261 0-.521.223-1.041.223 0 .447 0 .447-.781.67-.26 0-.52 0-.781.223-.26.223-.78.223-1.041.223-.78 0-1.301.224-2.081.447-.261 0-.521.223-.781.223s-.52.223-.781 0c-.26-.67-.52-.446-.78-.446h-1.301c-.521 0-.781-.224-.781-.447-.781.223-1.301.893-2.082.223-.26.224-.52.224-.52.447.26 0 .26.223.52.223 0 .446-.26.893-.781.893-.26 0-.26.446-.26.446h-1.821s0 .223-.261.447c-.52-.223-.78-.223-1.041-.447v-.223c-.26 0-.78.223-1.301.223 0 .447.261.67.521.67-.781.446-1.562-.223-2.082.223-.521.447-1.561 0-2.082.67-.26-.447-.781-.447-1.301-.223-.26 0-.52.223-.52 0-.521-.224-1.041 0-1.562-.224-.78 0-1.041.224-1.301.67-.26 0-.52-.223-.78-.223.26.67.26.67-.521.67v-.67c-.26.223-.52.223-.52.223-.521.67 0 .67.26.893l-.52.446c.78 0 .78 0 1.04.223-.26 0-.52.224-.78.224 0-.223-.26-.223-.521-.447l-.26.223c0 .447-.26.447-.52.67-.521.223-1.302.447-1.822.447l-.26-.224c-.52.447-1.562.447-1.302 1.34-.52.223-.78 0-1.04-.447-.26.223-.52.223-1.041.447-.52 0-1.041.223-1.562.446-.26 0-.52.223-.52.223-.52 0-.78 0-1.041.224-.52.446-1.041.67-1.822.892-.26 0-.26 0-.52.224-.52.67-1.822.223-2.342.892l-.26-.223-2.342.67c-.26-.67.52-.223.52-.447-.26-.446-.78-.446-.78-.223-.26.223-.521.223-.521.223-.52 0-1.041.224-1.301.67-.52 0-.52 0-.52.447h.52c-.52.223-1.041.67-1.562.67.26-.224.26-.447.52-.67-.52.223-1.04.446-1.56.446.26.223.52 0 1.04.223l-.26.223c-.26.224-.52.224-.78.224-.781.446-1.562.67-2.082 1.339-.26.223-.52.446-.781.446h-.26c-.26.447-.78.224-1.301.67-.26-.223-.26-.447-.52-.67-1.042-.223-1.042.224-1.302.447zm149.109-3.572h-.26c-.26 0-.78-.223-1.041-.223h-.26c-.26-.223-.52 0-.52 0-.261-.223-.521-.446-.781-.223 0 .223 0 .223-.26.446l-.521-.446c0 .223 0 .223-.26.446-.26-.67-1.041-.446-1.561-.67v.67c.52 0 1.301 0 1.561.67.26-.223.521-.223.781-.447.26.67.78.67 1.301.67.26 0 .52 0 .52.223.261 0 .521.447 1.041 0-.26-.223-.52-.446-1.041-.67 1.041-.223 1.822.447 2.863 0-.521-.223-.781-.669-1.041-.892l.26-.223c-.26-.224-.781-.224-1.041 0 0 .223 0 .446.26.67zm-26.543-3.794h-3.643v.223l.781.67c.52.67 1.561.446 1.822-.224.26 0 .78-.223 1.04-.223v-.446zm78.849 10.937c.52.447.26.893 1.041 1.116 0-.223.26-.223.26-.446.52.446 0 .893.26 1.116.521 0 1.041.67 1.822.446 0-.67-.781-.223-1.041-.67v-.669c-.26-.223-.521-.67-.781-1.116-.26 0-.26 0-.52.223 0-.223-.261-.223-.261-.446-.52.223-.52.446-.78.446zm-37.212 119.643s0-.223 0 0c.26 0 .78-.223 1.04-.223v.446c.521 0 1.041 0 1.302-.446h-.781c-.26-.223-.521-.223-.781-.223-.78 0-1.301 0-2.082-.224-.52 0-.52 0-.78.447.26 0 .52.223.78.223 0 .223 0 .223-.26.446.26-.223.521-.223.781-.223l-.521-.446c.781 0 1.041 0 1.302.223zm101.748-25.446c-.521 0-1.041 0-1.301.446-.261.223-.521.446-.521.67v.223c.26-.223.521-.447.781-.447 1.041 0 1.301-.669 2.082-1.116.26-.223.26-.446 0-.669-.261.446-.781.669-1.041.893zm-215.207 22.544c-.26-.446-.26-.669-.781-.669-.78 0-1.561-.224-2.342-.224-.52 0-.52.224-.52.447s.26.223.26.223c.26-.223.521-.223.781-.223v.446h1.561c-.26-.223-.26-.223-.52-.223.26 0 .52 0 .78.223.261 0 .521.223.781 0zm92.38-125.446c0-.223-.26-.447-.26-.447-.26 0-.52.224-.781.447-.52 0-.78-.223-1.301-.223.26.446.26.67.521.892.26-.223.78-.223 1.041 0l.26.224h1.561v-.67c-.52-.223-.781-.223-1.041-.223zm32.268 3.348c-.26 0-.26-.223-.52-.223s-.26 0-.521-.223c-.52-.67-1.301-.224-2.081-.224l-.261.224s0 .223.261.223h.26c.52 0 1.041.223 1.561.446h-1.561v.223h1.561s.26 0 .26-.223c.521 0 .781-.223 1.041-.223zm-85.614-5.134v.447c0 .446 0 .446.781.446v-.67h.26l.52.447c.261.223.781 0 1.041 0 0 0 .26-.224.26-.447-.52 0-.52 0-.78-.223.26 0 .26-.223.52-.223-.26 0-.52-.447-.78 0h-.781c-.521.446-.781.223-1.041.223zm61.673 3.795v-.447c.261.224.781-.223 1.041 0 0-.67-.78-.893-1.301-1.339-.26.223-.52.67-1.041.223.521.893.521 1.563 1.301 1.563zm8.588-2.01h-.781c.26.224-.26.224-.26.447s-.26.447-.26.447c-.521 0-.781 0-1.041.223h-1.041c.781.446 1.041.446 1.561.67h.261c.52-.224.78-.224 1.04-.893 0-.224.261-.224.261-.447.26 0 .52 0 .78.223-.26-.223-.26-.446-.52-.67zm-86.915 127.456c-.261 0-.521 0-.781-.223h-.781c-.26 0-.26-.223-.52-.223l.26-.224c-.26 0-.521-.223-.781-.223s-.52.223-.52.447c0 .223 0 .446.26.446.781.447 1.822.223 2.863 0-.261.223-.261.223 0 0zm187.622-98.437c0-.224 0-.447-.26-.447s-.26-.223-.52-.446c-.261-.447-1.041-.447-1.562-.223.26 1.339 1.301 1.116 2.342 1.116zm-230.299 93.973c1.561.223 3.382.67 4.944.446l-4.684-.669-.26.223c0-.223 0 0 0 0zM257.362 23.884c.781 0 1.301-.223 1.822 0 .52.223 1.041.223 1.561.446 0 0 .26 0 .26-.223-.52-.223-.78-.223-1.041-.446v-.447c-.52-.223-.78-.223-1.301 0-.52.224-.78.224-1.301-.223.26.447.26.67 0 .893zm-69.22-5.58c.521.446 1.041.223 1.301.446s.521-.223.521-.67c-.261.447-.521.447-1.041 0-.26 0-.26 0-.521.224h-.26c-.26 0-.52.223-.52.446-.261-.223-.261-.223-.781 0 .26 0 .26.223.52.223 0 .223-.52 0-.52.447.52 0 .781-.447 1.301-.67v-.446zM292.493 31.25c-.781-.223-1.302-.223-2.082-.446 0 .223-.26.446-.26.892h.26c.26-.223.781 0 1.041 0 .52.224.78 0 1.041-.446zM175.651 147.991c0 .447 0 .447.261.447h1.561c.52 0 .52 0 .52-.224-.26.224-.78.224-1.041 0l.521-.446h-1.041c0 .223-.26.446-.26.446-.26-.223-.521-.223-.521-.223zm-30.967-1.562h.521c.52 0 1.041 0 1.561.223.26 0 .521 0 .781-.223-.26-.224-.26-.447-.781-.224-.52 0-1.041 0-1.821-.223 0 0-.261.223-.261.447zm20.558-127.456v-.446c-.78 0-.78 0-1.041-.447-.26 0-.26.224-.52.224 0 .223-.26.223-.26.446 0 0 .26.223.52.223h1.301zm91.86 4.241c-.781-.446-1.561-.223-2.342-.223.26.223.781.67 1.301.447.26 0 .26-.224.52 0 .521.223.521 0 .521-.224zM116.58 143.527c0-.67-.781-.223-1.041-.223v-.447c-.26 0-.52 0-.52.223-.261 0-.521.224-.781.224.52.223.781.223 1.041.223h1.301zM217.808 19.42h.781c.26 0 .52-.224.26-.67-.26-.446-.781.223-1.041-.223l-.26.223c0 .446 0 .446.26.67zM110.074 142.857v-.446c-.52-.223-1.04-.447-1.561 0 .521.223 1.041.223 1.561.446zm151.192 1.116c-.261.223-.261.447-.521.447 1.301.223 1.822.223 1.822-.224 0 0-.261-.223-.261-.446-.78.67-.78.67-1.04.223zm-90.819 2.009c-.521.223-1.301.67-1.041.893 0 0 .26.223.52.223.261-.223.521-.446.781-.446 0-.223 0-.447-.26-.67zm59.331-124.777c-.52-.223-1.041 0-1.561-.223 0 0-.26 0-.26.223.26.224.26.224.52.224h.521v.446c.52 0 .78-.223.78-.67zm82.492 18.08c-.26-.446-.521-.222-.781-.222.26.446-.26.892.26 1.339h.521c-.521-.223-.781-.447-.521-.893 0 0 .261-.223.521-.223zM202.975 17.635c.26.67.52.67.781.67.26 0 .52-.224.26-.67 0 .223-.521 0-1.041 0zM133.755 5.58c-.26-.223-.781-.223-.781.224 0 .223-.26.223-.52.223s-.521 0-.521.223c.261.223.521.223.781 0 0-.223.521-.446 1.041-.67zm-7.286 139.509c.26 0 .26 0 0 0 .26 0 .78-.223.78-.446s.261-.223.261-.223h.52v-.224h-1.041s-.26 0-.26.224c0 0 0 .446-.26.669zm35.13-126.785c-.52 0-.781 0-1.041.223v.446c0 .223.26 0 .521-.223l.52-.446zm16.134.892c-.52-.892-.52-.892-1.041-.67.26.224.26.67 1.041.67zm-18.476-1.785c.26 0 .781.223.781-.224 0-.223-.26-.446-.521-.67-.26 0-.26.224-.52.224 0 .447 0 .67.26.67zm88.217 3.348c.26 0 .26 0 0 0 1.561.223 1.821.223 1.821 0-.52 0-1.041-.223-1.561-.223.26 0 0 .223-.26.223zm-35.131 127.455c.26-.223.521-.669.521-.893 0-.223-.261-.223-.261-.446l-.26.223v1.116zm-17.695-.669c-.521-.447-1.041-.447-1.822 0 .521 0 1.041.223 1.562.223 0-.223 0-.223.26-.223zM311.489 36.384c-.26-.223-.52-.223-.52-.447-.261 0-.521 0-.521.224 0 .223-.26.446-.52.67 0 0 0 .223.26.223h.26c0-.224.26-.447.26-.67.261-.223.261.446.781 0zm15.353 89.732v-.446c-.52 0-1.04.223-1.301.669.521 0 1.041 0 1.301-.223zm-23.68-91.741c.52.223.781.446 1.041.67l.26-.224c0-.223-.26-.223-.26-.223-.26-.223-.521-.223-1.041-.223zm-53.867 110.937c-.26 0-.52-.223-.781.224 0 .223 0 .446.261.446.26-.223.78-.223.52-.67zM161.859 18.304c.261.67.261.892.781.892 0-.223-.26-.446-.26-.892h-.521zM308.627 35.49c-.521 0-.781 0-1.041.223.26.224.78.224 1.041.447-.261-.224 0-.447 0-.67zM168.105 18.75c0 .446.26.67.78.446l.261-.223-.261-.223h-.78zm137.919 15.848l-.26-.223c-.26 0-.52 0-.781.223v.223s.261.224.261 0c.26 0 .52 0 .78-.223zm-33.829-7.812c-.26-.224-.52-.224-.781-.447 0 .224-.26.447-.26.67.521.446.521 0 1.041-.223zm29.406 5.357c-.261 0-.781-.223-1.041.223.52.447.78.447 1.041-.223zm39.554 16.518c.26 0 .52-.224.781.223h.52c-.52-.223-.781-.447-1.301-.67v.447zM81.97 18.973c.52 0 .78-.223 1.301-.223 0-.223 0-.223-.26-.446-.26.223-1.041 0-1.041.67zm198.292 11.384c.26.447.781.447 1.301.447-.781.223-.52-.447-.78-.67 0 .223-.261.223-.521.223zm21.078 108.259s.261 0 0 0c.261 0 .521 0 .781-.223v-.223h-.26c-.26 0-.26.223-.521.446zm-8.327.223c.26-.446 0-.669-.26-.893-.26.224-.26.447-.521.67h.521l.26.223zm-54.647 3.349c.52.223.78.223 1.301-.224-.521 0-1.041 0-1.301.224zm-117.102 1.339h1.301s.26 0 .26-.223c-.78-.224-.78-.224-1.561.223zm107.213 3.571c.26.223.781 0 .781.223h.52c-.26-.223-.52-.223-.78-.446 0 0-.261 0-.521.223zM323.46 43.75c0-.446-.261-.67-.261-1.116 0 .223-.26.446-.26.893 0 .223.26.223.521.223zM86.394 12.5H88.215c-.78-.223-1.3-.446-1.821 0zm86.655 134.821c-.26.224-.52.224-.781.447.521.223.781.446 1.041.223 0-.223-.26-.446-.26-.67zM308.887 38.393c-.26.223-.781.446-.521.893.261 0 .521-.224.781-.224-.26-.223-.26-.446-.26-.67zM52.565 130.134c-.52.223-.52.223-.26.67.26 0 .26 0 .52-.224 0 0-.26-.223-.26-.446zM258.663 25c.261 0 .521.223.521.223.26 0 0 .447.26.447.26-.67.26-.67-.781-.67zm-72.082-5.804c0-.223 0-.223 0 0 0-.223-.26-.446-.521-.446h-.26v.223c.26 0 .521 0 .781.223zm-65.057 124.777c0 .223.261.223.261.447h.26v-.447h-.521zM262.046 25.446c.521 0 .521.67 1.041.224-.781-.447-.781-.447-1.041-.224zM72.602 22.545c-.52-.224-.78 0-1.041.223 0 0 0 .223.26.446l.78-.67zm214.426 7.812c-.26.223-.26.447-.26.447.26.223.52.223.78-.224-.26 0-.26 0-.52-.223zm-111.637-11.83c-.52 0-.781 0-1.041.446h1.041v-.446zM342.976 50.67c.261.67.781.67 1.041.446-.26 0-.52-.223-1.041-.446zm-80.67-26.563c.261.67.521.67.781.447-.26-.224-.52-.447-.781-.447zM196.73 147.545c-.521 0-.781-.67-1.302 0h1.302zM312.79 41.071c.26 0 .521 0 .781-.446h-.781v.446zm-48.142-15.848c-.26.223-.52.223-.78.447.26.223.26.223.78 0v-.447zm70.001 103.572c-.52.223-.78.446-.78.893.52-.224 1.04-.447.78-.893zM226.395 20.535c-.26.447-.52.224-.78.67h.78c.261-.223.261-.223 0-.67zm-81.971-2.901c-.26 0-.52.223-.78.223.26.223.52.223.78.447v-.67zm77.027 3.348c.26.447.52.447.781.447.26 0 .26 0 .26-.224-.26-.223-.781-.223-1.041-.223zm-146.247.67c-.52-.223-.52-.223-.78.223.26 0 .52-.223.78-.223zm108.254-3.125s0 .223 0 0c.26.223.521.223.521.223v-.67c0 .224-.261.447-.521.447zm5.985.67h-1.301c.521 0 .781.223 1.301 0zm105.912 121.651c.26-.223.521-.223.781-.446-.26 0-.26-.223-.521-.223-.26.223-.52.223-.26.669zM182.677 12.723c0 .223.261.447.521.447v-.224c0-.223-.26-.223-.521-.223zm-46.58 6.92c.26 0 .26 0 0 0 .52 0 .781 0 .52-.447l-.52.447zm161.6 14.732c-.26-.446-.52-.223-.781-.223 0 .446.261.446.781.223zM150.67 17.857c-.261-.223-.261-.446-.781-.223l.52.446.261-.223zm147.548 16.518c0 .223-.261.446-.261.67.261-.224.521-.224.781-.447-.26 0-.26-.223-.52-.223zM162.38 147.321c-.26-.223-.521-.223-1.041 0 .52.224.781 0 1.041 0zm48.662-.446c.52-.223.52-.223 0-.67v.67zm115.8-103.125c-.26-.446-.26-.446-.78-.223.26 0 .52.223.78.223zm-59.591-20.536c0 .224-.26.224-.26.447.26 0 .52.223.78.223 0-.223-.26-.447-.52-.67zm-98.626-7.143c.26 0 .521 0 .781-.223-.521-.223-.781-.223-.781.223zm142.864 19.42c.26.447.26.447.781.223-.26 0-.521 0-.781-.223zM146.246 17.188c.26-.224.26-.447 0-.447h-.26v.223l.26.224zm160.559 20.758c0 .67 0 .67.521.447l-.521-.447zm20.818 8.483c-.26.223-.26.223-.26.446.26 0 .26.223.52.223-.26-.223-.26-.446-.26-.67zM35.129 35.49c.26.223.52.223.781 0-.26-.223-.52 0-.78 0zm271.936 1.786c.261.223.261.446.261.67.52-.447.52-.447-.261-.67zm-139.22 109.598c0-.446 0-.446-.521-.446l.521.446zm56.729-127.232c-.26 0-.521 0-.521.446.261 0 .521 0 .521-.446zm6.245 127.009c-.52-.223-.52-.223-.781.223.261-.223.521-.223.781-.223zM263.608 24.33c.26.447.26.447.78 0h-.78zm15.613 3.572c-.26 0-.26.223-.52.446.26 0 .26 0 .52.223v-.67zM195.689 147.99c.26.447.26.447.78.223 0-.223-.26-.223-.78-.223zm45.799-126.562c.261.223.521.223.781.446 0-.67-.52-.446-.781-.446zm-43.718-2.456s0 .223 0 0c.261.223.521.223.781.223-.26-.223-.52-.446-.781-.223zM115.799 8.036c-.26.223-.52.223-.78.446.26 0 .52 0 .78-.446zm108.775 9.821c-.26 0-.26 0-.781.223.26.224.521.224.521.224.52 0 .52-.224.26-.447zm-92.641 2.01c-.26.222-.26.445.261.669 0-.224 0-.447-.261-.67zm83.793-.447c0-.224 0-.447-.26-.447 0 .223 0 .447.26.447zm99.146 20.759c-.26 0-.52-.224-.781-.224 0 .67.521.224.781.224zm-74.945-20.313h.521v-.446l-.521.446zm-25.762-2.232c0 .223.26.446.52.446 0-.223 0-.67-.52-.446zM333.348 123.66c-.52-.223-.52-.223-.781.223.521 0 .781 0 .781-.223zM145.205 18.304c0-.224 0-.447.26-.67-.52.223-.52.223-.26.67zm200.374 34.151c.26 0 .26.224.52.224v-.224c0-.223-.26-.223-.52 0zM140 145.982v-.446c-.26 0-.52.223-.78.223.26.223.52.223.78.223zM277.4 28.348c.26 0 .26.223.52.223v-.67c0 .224-.26.224-.52.447zm-6.766 115.179c-.521-.223-.781-.223-.521.223 0 0 .26-.223.521-.223zm.52-115.625c.521.223.521.223.781-.223-.26 0-.521 0-.781.223zm56.209 14.062s0-.223 0 0c-.26-.223-.521-.223-.781-.223v.223h.781zM278.701 27.01c0 .223.26.446.26.67l.52-.447c-.26 0-.52 0-.78-.223zm-12.231-3.572c-.26 0-.26-.223-.26-.223s-.26 0-.26.224l.26.223s0-.224.26-.224zm27.324 114.956c.26 0 .26.446.52.446.26-.446 0-.446-.52-.446zM172.268 19.196c.261-.223.261-.223.261-.446-.261.223-.261.223-.261.446zm-2.081-.446c-.261-.223-.261-.223-.521-.223v.223c.26.223.26.223.521 0zm-37.733 125.67s0 .223 0 0c0 .446 0 .446.52.223-.26 0-.26 0-.52-.223zM284.686 28.571c-.26-.223-.26-.223-.521-.223v.223h.521zm-150.671-9.375c-.26.224-.26.224 0 .67v-.67zm29.666 128.572c.26 0 .26-.223.26-.447h-.26v.447zM73.643 22.321c0-.223 0-.223 0 0-.26-.223-.52-.223-.78 0h.78zm-5.725 112.947c.26.223.52.223.78 0h-.78zm242.53-100.223c.26-.224 0-.447-.26-.447h-.26c.26 0 .26.223.52.447zm-299.52 37.5c.26-.224 0-.447 0-.67-.26.223 0 .446 0 .67zM129.591 6.696c.261.447.521.224.521 0-.26-.223-.26 0-.521 0zM253.199 24.33c-.261-.446-.261-.446-.781-.223.26 0 .52.223.781.223zm8.067 2.01c.26.223.52 0 .78 0-.26-.447-.52 0-.78 0zm36.171 6.473c-.26-.224-.521-.224-.781 0h.781zM177.473 146.651c0 .223 0 .446.26.446.26-.223 0-.446-.26-.446zm49.443-125.67c0 .223 0 .223 0 0 .26.223.26.223.52 0h-.52zm61.153 9.598c0 .224.26.224.52.224l.26-.224h-.78zm24.461 105.134c-.52-.223-.52-.223-.781 0h.781zM170.187 18.08c.26-.223.52-.223.78-.223-.26 0-.26-.223-.52-.223 0 0-.26.223-.26.446zm141.302 16.965c0-.224-.26-.447-.52-.447v.223c0 .224.26.224.52.224zM294.574 138.17s.261 0 0 0c.261 0 .261-.224.261-.224h-.261c.261 0 0 .224 0 .224zM91.598 15.625h.781c0-.223-.26-.223-.78 0zm52.826 130.804c0-.224-.26-.224-.52-.224v.224h.52zM313.05 35.937h-.52c.26.447.52.224.52 0zM192.826 18.08c-.26-.223-.26-.223-.52 0v.224c.26 0 .52-.224.52-.224zM174.35 147.768c-.26 0-.26-.223-.52-.223l-.261.223c.261.223.521.223.781 0-.26.223-.26.223 0 0zm-128.551-19.42c-.26-.446-.26-.446-.52-.223.26.223.26.223.52.223zM158.476 18.527c0 .446.261.223.521.223v-.223h-.521zM147.547 5.134s0-.223 0 0c-.26-.223-.521 0-.781 0v.223c.26-.223.521-.223.781-.223zm109.555 17.634c0-.447 0-.447-.26-.447 0 .224.26.224.26.447zm-7.026.223c0 .223 0 .223 0 0 .26 0 .26 0 .52-.223h-.26l-.26.223zm.781.67s.26 0 0 0c.26 0 .26-.224.52-.224-.52-.223-.52 0-.52.224zm74.164 16.964c.26.223.52.223.52-.223-.26.223-.52.223-.52.223zM158.216 19.196h-.26l-.26.224.26.223c.26-.223.26-.447.26-.447zm88.997 121.206c-.26 0-.52 0-.78-.223.26.446.52.446.78.223zm75.726-95.536c.26 0 .26-.223 0 0 .26-.223 0-.223 0-.446h-.26c.26.223.26.223.26.446zm-34.87 95.536c-.26.223-.26.223-.26.446.52 0 .52 0 .26-.446zm-112.938 7.812l-.521-.446c0 .223.261.446.521.446zm7.807-1.116l.52.447c0-.447 0-.67-.52-.447zm56.469-126.786s0-.223 0 0c0-.223 0-.223-.261-.446v.223s0 .224.261.224zM17.174 49.555c.26.223.26.446.52 0-.26.223-.26.223-.52 0zm209.221 97.321c.261.223.261.223.521 0l.26-.223h-.26c-.26 0-.26.223-.521.223zm29.406-125.223s0 .223 0 0c0 .223.26.223.52.446v-.223s-.26-.223-.52-.223zm-88.477 124.777c-.26-.224-.52 0-.52 0v.223c.26-.223.26-.223.52-.223zm1.561-129.242c.261.224.261.224.521 0h-.521zm70.782 4.911c-.521-.223-.521 0-.521.447l.521-.447zM123.606 143.75c.26 0 .26-.223.521-.223-.261-.223-.261-.223-.521.223zm202.196-18.304s0 .224 0 0c.26 0 .26 0 .52-.223-.26 0-.52.223-.52.223zm-202.977 18.75c.261.224.261.447.521 0h-.521zm210.003-21.205c.26-.223.26-.223 0-.446v.446zM156.134 16.295c-.26 0-.26 0 0 0h-.52c.26.223.26 0 .52 0zM28.104 120.759s-.26 0 0 0v.446h.26c0-.446-.26-.446-.26-.446zm321.118-9.598c.26.223.26 0 .52 0v-.223c-.26.223-.26.223-.52.223zm-339.074-4.465v-.223s-.26 0-.26-.223c0 .223 0 .223.26.446zm351.304-16.071c0-.223 0-.223-.52-.223.26.223.26.223.52.223zm-2.081-8.929s.26 0 0 0c.26-.223.26-.223 0-.446v.446zM69.479 135.268c-.26.223-.26.223-.52.223.26.223.52.447.52-.223zm124.909-118.08c0 .223-.261.223 0 0 0 .223.26.223.26.223v-.224h-.26zm152.492 36.16v-.223h-.26c0-.223 0 0 .26.223-.26-.223-.26-.223 0 0zm-18.476-6.696c0 .223 0 .223 0 0 0 .223.26.223.26.446v-.223s-.26 0-.26-.223zM167.845 18.304c.26 0 .26-.224.26-.224h-.26v.224zm158.477 22.544c.26 0 .26 0 0 0v-.223.223zM202.715 18.304c-.26-.224-.26-.224-.521-.224v.224h.521zm107.213 20.535v-.223h-.26c.26 0 .26 0 .26.223 0-.223 0-.223 0 0zm-83.533-19.42c0 .224 0 .224-.26.447h.521c0-.223 0-.223-.261-.446zM304.463 37.5c.26 0 .26 0 0 0 .26 0 .26-.223.26-.446h-.26v.446zM191.005 147.545s.26-.224 0 0v-.447h-.261c.261.223.261.223.261.447zm-28.105-.447c0 .223-.26.223 0 0 0 .223.26.223.521.223v-.223h-.521zM283.645 32.589c.26 0 .26-.223 0 0v-.446h-.26c.26.223.26.223.26.446zM164.982 146.652c.26 0 .52 0 .26-.447 0 .224-.26.447-.26.447zM278.44 28.795c.261.223.261 0 .521 0v-.224c-.26 0-.26 0-.521.224zm-3.122-.67c0 .223 0 .223 0 0 0 .223.26.223.52.223l.26-.223c-.26.223-.52.223-.78 0zM254.5 24.33c-.261 0-.261-.223-.261-.223l-.26.223h.26c0 .224 0 0 .261 0zm8.327 2.233l-.26-.224v.224h.26zm3.383 117.633c-.26-.223-.521-.223-.521.224.261 0 .261-.224.521-.224zm-140.002.67c0-.223.261-.223.261-.223s0-.223-.261-.223c0 0-.26 0-.26.223.26 0 .26 0 .26.223zm9.629.67s-.26 0-.26-.224h-.261c.261.224.261.224.521.224-.26 0 0 0 0 0zm2.602.223v-.447c-.26.224-.26.224 0 .447zM61.152 27.902h-.26v.223c0-.223 0-.223.26-.223zm197.511-5.58s0-.224 0 0c-.26-.224-.26 0-.26 0h.26zM156.655 145.758h-.26v.223l.26-.223c0 .223 0 .223 0 0zM266.73 28.349c-.26 0-.26 0 0 0-.26-.224-.26 0-.52 0 0 0 .26.222.52 0-.26.222-.26.222 0 0zm9.108 1.785v.446h.26c0-.223 0-.223-.26-.446zm-2.602.67c-.26 0-.26-.224 0 0l-.26-.224c-.261.224-.261.224.26.224-.26 0-.26 0 0 0zm-38.253-8.483v-.223h-.26s.26 0 .26.223zM164.462 146.43c0 .223-.261.223-.261.446.261 0 .521-.223.261-.446zm115.019-4.465h-.52c.26.224.26 0 .52 0zM122.565 8.036h-.26.26zm175.653 25c-.261 0-.261-.224-.261-.224v.447s0-.223.261-.223zM100.186 141.07c0 .224 0 .224 0 0 0 .224.26.224.26.224l-.26-.224zm88.737 6.25c0-.223 0-.223-.521-.223.261 0 .261 0 .521.223zm28.104 0c.26-.223 0-.223 0-.223-.26 0 0 .223 0 .223zm-27.063.224v-.224h-.261l.261.224zM303.162 36.83h-.521v.224c.261 0 .521-.224.521-.224zm13.271.224v.223c.261 0 0-.223 0-.223zM199.332 147.32s0 .224 0 0c.26.224.26.224 0 0 .26.224.52 0 .52 0h-.52zm-109.815-7.812c-.26-.223-.52-.223-.52 0h.52zm70.781-120.536h-.26l-.26.223c.26 0 .26 0 .52-.223-.26.223 0 .223 0 0zm147.548 19.643c-.26 0-.26.223 0 0v.447h.26c-.26-.224-.26-.224-.26-.447zM134.275 18.75c0-.446 0-.446-.26-.223 0 .223.26.223.26.223zM312.53 39.732c.26-.223.26-.223 0 0 .26-.223 0-.223 0-.223v.223c0-.223 0 0 0 0zm-90.298-22.321c-.261 0-.261.223-.261.223h.261v-.223zm109.294 31.026c0 .224.261.224.261.224v-.224h-.261zM217.287 17.412h.521v-.224l-.521.224zm-49.442 0v.223-.223zm-9.889 0s-.26 0 0 0c-.26 0-.26.223-.26.223l.26-.223zm-2.602-12.5c0 .223 0 .223 0 0 0 .223.26.223.26.223l-.26-.223zm154.574 131.696v.223h.26c-.26 0-.26 0-.26-.223zM148.588 17.411v-.224h-.26l.26.224c-.26-.224-.26-.224 0 0zM57.508 131.92s-.26.223 0 0c0 .223.261.223.261.223v-.223c0 .223-.26 0-.26 0z"/><path d="M246.954 146.429c-.26.223-.52.223-.781.223h-.78c-.261 0-.521 0-.521.446 0 .223 0 .447-.26.447-.52 0-.781-.224-1.301-.224 0 0 0 .224-.26.224-.261 0-.781 0-1.041.223v-.223s0-.224.26-.224.52-.223.781-.446c.26-.223.52-.446 1.041-.446.52 0 1.301 0 1.821-.224.521.224.781.224 1.041.224zM271.936 144.42h.78c0-.447.521-.447 1.041-.67v.446c.26 0 .26-.223.521-.223.26 0 .52 0 .52.223 0 0 0 .224-.26.447-.781.223-1.562.223-2.342.223 0 0 0-.223-.26-.446zM201.413 16.741c-.52.223-.78.447-1.301.67-.26-.224-.26-.447-.52-.67.26-.223.52-.446 0-.893h.26c.52 0 .781.223 1.301.223 0 .224-.26.447.26.67zM283.385 142.857c1.041-.223 1.821-.446 2.862-.446v.446c-.52.223-.78.223-1.301.447-.52-.224-1.041 0-1.561-.447zM198.552 16.741c-.52-.223-.781-.446-.781-.67 0-.223.521-.446 1.041-.223.261 0 .261 0 .521.223-.26.224-.521.447-.781.224v.446zM282.605 142.857c0 .223 0 .447-.261.447-.78.223-1.561.446-2.602.223.26-.223.521-.447.521-.223.52.223 1.041-.224 1.561-.224.26 0 .52 0 .781-.223zM216.507 148.661c-.52 0-1.041 0-1.301-.224.521-.223.781-.669 1.561-.669-.26.446-.26.669-.26.893zM184.5 148.884h-1.822l-.26-.223c.781-.447 1.301 0 2.082.223zM299.779 140.179c-.26 0-.52.223-.781 0-.52-.224-.52 0-.52.446h-.781c0-.67.781-.223 1.041-.67.26 0 .521 0 1.041.224zM206.098 149.107a4.183 4.183 0 01-2.342 0c.52-.446.781 0 1.301 0 .26-.223.52-.223 1.041 0 0-.223 0-.223 0 0zM288.329 142.187c-.26.67-.78.67-1.301.67v-.223c0-.447.781-.67 1.301-.447zM318.776 135.268c0-.223.261-.67.781-.447h.52c0 .447-.26.447-.78.447-.26-.223-.521-.223-.521 0zM209.481 148.884c-.52.223-1.041.223-1.561-.223h.26c.521 0 .781 0 1.301.223zM313.572 136.83c.521-.223.781-.669 1.562-.446-.261.223-1.302.446-1.562.446zM61.153 134.821c-.781 0-1.301 0-1.822-.669.52.223 1.041.446 1.822.669zM312.531 137.054c-.521 0-.781.446-1.302.223l.521-.447c.26.224.52.224.781.224zM304.203 138.616c0 .223-.26.447-.26.67h-.52c-.26-.223 0-.447.78-.67zM239.667 147.768c-.52 0-.78.446-1.301.223.521-.67.521-.67 1.301-.223zM55.167 133.036c.52 0 1.04 0 1.561.446-.78 0-1.04-.223-1.561-.446zM304.464 32.59v-.224h-.521c.261 0 .261-.223.521-.223.52 0 .78.223.78.446h-.78zM239.927 147.545h1.561c-.26.223-.781.223-1.561 0 0 .223 0 0 0 0zM264.129 145.759l.26-.223c.26 0 .521-.447 1.041 0-.26 0-.781 0-1.301.223.26 0 0 0 0 0zM293.795 141.071c0 .67 0 .67-1.041.447.26-.447.781-.447 1.041-.447zM195.95 148.661v.669h-.781c.26-.446.26-.446.781-.669zM305.765 138.17c-.261.223-.261.893-1.041.669.52-.223.78-.446 1.041-.669zM366.397 75.67l.261.223v.67c-.261-.224-.261-.67-.261-.893zM67.918 136.83c-.26 0-.52-.223-1.041-.223.52-.223.52-.223 1.04.223zM321.377 134.375c0 .223-.26.223-.26.446h-.52c.26-.223.52-.446.78-.446.261 0 0 0 0 0zM278.961 25.446c.26.224.52.224.781.447-.781 0-.781 0-.781-.447zM185.02 148.661c.26 0 .52.223 1.04.223-.52.223-.78-.223-1.04-.223 0 .223 0 0 0 0zM263.348 145.536c.26 0 .26-.224.52-.224-.26.447-.26.447-.52.224 0 .223 0 .223 0 0zM169.146 147.545h.781c-.26.223-.26.223-.781 0zM250.337 147.098c-.26 0-.26.223-.521.223v-.223c0-.223.261-.223.521 0 0-.223 0-.223 0 0zM25.762 119.42c.26.223.26.446 0 .446h-.26s0-.223.26-.446zM218.849 148.661h1.301c-.521.223-.781.223-1.301 0zM166.544 147.991h.52v.223s-.26.224-.52-.223zM303.163 138.393l.521-.447c.26.67.26.67-.521.447zM290.151 142.188c-.26-.447 0-.447.26-.67h.26c-.26.223-.26.446-.52.67zM181.116 148.438h.521v.223c0 .223-.261 0-.521-.223 0 .223 0 .223 0 0zM87.956 139.955v.67h-.26c0-.223 0-.446.26-.67zM38.253 126.116c.26.223.52 0 .52.447-.26 0-.52-.224-.52-.447-.26.223-.26.223 0 0zM168.105 149.33c0-.223.261-.223.261-.446 0 .223 0 .223-.261.446zM208.961 147.768c-.26 0-.26.223-.521.223 0-.223 0-.223.261-.67.26.224.26.224.26.447zM316.434 36.384h-.781v-.223c.521.223.521.223.781.223zM205.838 148.214c0 .447 0 .447-.521.224.261-.224.521-.224.521-.224.26 0 0 0 0 0zM225.095 148.214l.26.224v.223s-.26-.223-.26-.447c0 .224 0 0 0 0zM366.397 75.67c0-.224-.26-.447 0-.447.52.223.26.223 0 .447zM276.358 143.75c.261.223.261.223 0 .446v-.446zM195.429 150h-.781c.521-.223.521-.223.781 0zM30.446 122.321c.26 0 .26.224.52.224h-.26c-.26.223-.26 0-.26-.224-.26.224 0 .224 0 0zM46.58 129.688l.52.446c-.26 0-.52 0-.52-.446zM50.484 130.357h-.26c0-.223 0-.223.26 0zM49.442 131.027s-.26 0-.26-.223c0 0 0 .223.26.223zM71.561 137.277v-.447h.26v.224c0 .223 0 .223-.26.223zM183.719 14.286v-.447c.26 0 .26 0 .78.223-.52 0-.52 0-.78.224zM291.713 141.741c-.261-.223-.521-.223 0-.446v.446zM41.375 127.902v-.447h.26c0 .224 0 .224-.26.447.26 0 .26 0 0 0zM275.579 144.196h.26c0 .224-.26.224-.26 0 0 .224 0 .224 0 0-.261 0 0 0 0 0zM132.194 145.536h.261c0 .223 0 .223-.261 0zM258.143 146.205l.26-.223c0 .223 0 .223-.26.223.26 0 0 0 0 0zM301.601 31.473h-.521c0-.223.26-.223.521 0 0-.223 0 0 0 0zM248.516 146.875c0 .223.26.223.26.223l-.26.223v-.446zM152.752 147.321h-.26v-.223c0 .223 0 .223.26.223zM70.78 136.384l.26.223s-.26 0-.26.223v-.223-.223zM366.397 73.438c-.26.223-.26 0-.26 0s0-.224.26 0c-.26-.224 0-.224 0 0zM210.001 148.884l.26-.223c0 .223-.26.223-.26.223zM274.277 27.679c0-.224.261-.447.781-.224.52 0 .52.224.52.447-.26-.223-.78-.223-1.301-.223.261 0 .261 0 0 0zM110.856 22.991c0-.446-.521-.446-.781-.446-.26.223-.521.446-1.041.223-.52 0-1.041.223-1.561.223h-.781v-.223l.26-.223h1.041c.26 0 .521 0 .521-.447.26 0 .52 0 1.04.223.261-.223.781-.446 1.302 0-.261-.67.78-.446.78-.892h-.26c-.52.223-1.301-.224-2.082.223h-.26c-.52-.223-.781 0-1.041.223 0 .223.26.223.26.446h-.78c0-.446.26-.67.26-1.116h.52s0-.223-.26-.223h-1.301c-.26 0-.52.447-.52.67.26.223.52.223.78.446-.26 0-.52-.223-.78-.223.26-.223-.261-.446 0-.893h-1.302v-.446c-.26.446-.52.67-1.041 1.116-.26 0-.26-.223-.52-.223v.446c.52.223 1.301.223 1.822 0 .26.67-.781.446-.781.893l.52.446v.224h-1.041c-.26.223-.52.223-.52 0-.52.223-1.041.446-1.301.67-.26.222-.521.222-.781.446l-.26.223c-.52 0-1.04 0-1.561.223v-.223c.26 0 .52-.223 1.041-.447-.261 0-.52-.223-.781-.223.26-.223.781-.223 1.041-.446.26-.224.26-.447.26-.67-1.04.223-1.822 0-2.862 0 0-.223.78-.446.26-.67-.26 0-.78 0-.78.447 0 0 0-.223-.261-.447-.78 0-1.301-.223-2.082-.223 0 0-.26 0-.26-.223-.52-.446-1.041-.446-1.561 0l.52.446s.26 0 .52-.223c.26.223 1.041.223.781.893.52.223.26-.67.78-.446v.446c.261 0 .521-.223.781-.223s.52.223.52.223c-.52.223-1.04.447-1.56.223-.781-.223-1.302-.223-1.822.447-.26.223-.78.446-1.301.67-.26-.224-.52-.224-.78-.447 0 .223-.261.223-.261.446-.26 0-.52-.223-.78 0-.261.224-.782 0-.782-.223v-.446c-.26.223-.26.223-.26 1.116-.26 0-.52 0-1.04.223 0-.223-.26-.67-.26-1.116-.261 0-.521 0-.261.223v.223c0 .224-.26.224-.26.224-.26 0-.26 0-.26-.224v-.223c-.26 0-.781.223-1.041.223-.26 0-.781-.223-1.041-.446 0 .223.26.446.26.67h-.26c0 .223-.26.223-.26.446 0-.446-.26-.67-.521-1.116-.26 0-.26.223-.52.223l.52.447c-.26.223-.26.446-.52 0-.26.892.26 1.562 1.3 1.562.26.223 0 .447-.26.67-.26 0-.78 0-1.04.223-.52 0-.781.223-1.302.223-.26 0-.26.223-.26.223l-.26-.223c.26 0 .52-.223.52-.223.26-.223.26-.223.26-.447.781-.223.781-.223.521-.67 0 .224 0 .224-.26.447-.26-.223-.78-.223-1.041 0 0 .224-.52 0-.52.224-.52-.224-1.041-.447-1.302-.893-.26 0-.26-.224-.26-.447.26 0 .52-.223.78-.223 0-.446 0-.67.261-.67.52 0 .78-.223 1.041-.67 0-.223.26-.223.52-.223s.52 0 .52-.223c.521 0 .782.447 1.302 0 0-.223-.26-.446-.52-.67.26-.223.52-.223.52.224 0 .223 0 .446.26.446h.52c.26 0 .521-.223 1.042-.223.26 0 .52-.223.78-.223.52.223.78-.223 1.301 0 0 0 .26 0 .26-.223l.26-.224c1.042 0 1.562-.67 2.343-.892l.26-.224c.26.224 0 .447-.26.447-.26.223-.78.223-.78.67l-.521.223c.52 0 .52 0 1.561-.447.26.223.26.447.52.893 0-.223 0-.67.521-.67.26.224.26.447.52.67.26 0 .26-.223.52-.223-.26-.223-.26-.447-.52-.67h-.52c-.26 0-.26-.223-.52-.223.26-.446 1.04 0 1.3-.67 0-.223-.26-.223-.26-.446h.781c.78-.447 2.342-.67 3.123-.223 0-.224 0-.447-.26-.67.52.223 1.04.67 1.561.223.26-.223 1.04.224 1.301-.446.521.446 1.041.446 1.561.223.261 0 .261-.223.521-.223.52.223.781 0 1.301 0 .52 0 .781 0 1.041-.223.52-.224 1.041 0 1.561-.447h.261c.52.223 1.04 0 1.561 0h.26c.521-.446 1.041-.223 1.561-.223h.521c.52-.223 1.041-.446 1.821-.223h.261c.52-.223 1.301-.223 1.821-.447.781-.223 1.562-.446 2.342 0l.521-.446.26.223s.26-.223.52-.223c.261.223.521.67.781.893h.26c0-.223-.52-.447 0-.67.521-.223.521.223.781.223 0 .447-.781.224-.52.67.26 0 .52 0 .78-.446 0-.224.26-.224.521-.224-.261 0-.261-.223-.521-.223.521-.446.781-.223 1.301 0-.52 0-.26.447-.26.67.26 0 .521.223.781 0s.52 0 1.041.446c-.26 0-.26 0-.521.223l.261.224c.78 0 1.561-.447 2.342-.893.26.223 0 .223-.261.223-.26.223-.52.223-.26.67-.26.223-.781.446-1.041.67-.52-.447-1.041-.224-1.561 0v.223c.52 0 1.301 0 1.821-.224h.261c.26 0 .52.224.78 0 0 0 .521.224.781.224-.52-.224 0 0-.26.223 0 0 0 .446.26.67 0 0-.26.223-.781.223a.877.877 0 00.521.223s-.26.223-.521.223c0-.223-.26-.446-.26-.67-.26 0-.52 0-.781-.223-.52 0-.78-.223-.78-.67v-.223c-.26 0-.521.224-1.041 0-.521 0-.781 0-1.041.67.52 0 .781 0 1.041-.223 0 .223 0 .446.26.446s.26.223.521.223c-.261.224-.521.447-1.041.224v-.447c-.261 0-.521 0-.521.223-.26.447-.781.67-1.301.67-.26 0-.781.223-1.041 0h-.52l-.781-.67c-.26.224-.781.224-.52.67-.521.223-1.041.446-1.822.223.52-.223.781-.223 1.301-.223-.52-.446-.781-.446-1.561-.446l.78-.67c.781 0 1.562-.223 2.082-.223.26 0 .521 0 .781.446-.521-.223-.781-.223-1.041.223h2.342c-.26-.223-.52-.446-.781-.446.521 0 .781 0 1.301-.223-.26-.224-.26-.224-.26-.447s0 0-.52-.446c-.26-.223-.781-.67-1.301-.447-.521.224-.781.224-1.041 0v.447H115.8l-.26.223c.52 0 .26.447.52.67-.52 0-.781 0-1.041-.224-.52-.223-.78-.223-1.301 0-.26.224-.52.224-.781.224.261.223.521.223.781.446.26 0 .26-.223.521-.223 0 .223 0 .446.26.67-.26 0-.521-.224-.781-.224-.52.224-1.041.447-1.561.447-.261.67-.781.893-1.301 1.34zm-9.369-2.455c-.26 0-.26.223-.52.223 0 .223 0 .223.26.446-.52 0-.78.224-1.041 0-.26-.223-.52 0-.52.224.26.223.781 0 .781.67h-1.041v.446h1.041c.26-.224.78 0 1.04-.224.261 0 .521-.223.261-.446l-.261-.223c.261-.447-.26-.893 0-1.116zm13.012-.893c-1.041 0-2.603 0-2.863.223.781 0 1.822.447 2.863-.223zm2.342-1.34c-.521 0-.781.224-1.301.224-.521 0-1.041 0-1.562.223.261.223.521.446.781.223s.52-.223.781-.223c.52.67.78 0 1.301.223v-.67c0 .224 0 0 0 0zm-10.409 1.34c0 .223.26.446.26.446.52 0 0 .447.52.447.261 0 .261-.224.521-.447s.26-.223 1.041-.223v-.446c-.521.223-1.041.223-1.562.446-.26-.223-.52-.223-.78-.223zm3.383 1.562c1.041-.223 1.821-.223 2.862-.446-.781-.447-1.561 0-2.342 0-.26 0-.52.223-.52.446zm1.561-1.785h2.342c.26 0 .26 0 .26-.224-.26-.223-.52-.223-.78 0-.521.224-.781.447-1.302.224-.26-.224-.52-.224-.52 0zm-17.175 4.24c.26-.223.26-.446.52-.669.26-.223.521-.223.781-.446-.52-.224-1.04 0-1.3.223-.261.446-.521.67 0 .893zm3.123-2.455c.26 0 .26.224.52.224.26-.224.781-.224 1.041-.447l-.26-.223c-.26.223-.78 0-1.301.446zM81.19 25.893c.26.223.26.223 0 0 .52-.223 1.04-.223 1.04-.67h-.26l-.78.67zm22.379-2.679c-.52-.223-.78-.223-1.301.224.26 0 .781-.447 1.301-.224zm21.079-2.455c-.521-.447-.521-.447-1.302-.223.261.223.781.223 1.302.223zm-13.532-.893c-.781-.446-.781-.446-1.041.223.52 0 .781 0 1.041-.223zm-7.287.447c.521 0 .781.223 1.041-.224-.52 0-.52 0-1.041.224zm5.465.892c0-.223.26-.223.26-.446-.26 0-.26 0-.26.446zm-5.725-1.116c-.26.224-.26.224-.26.67 0-.447.26-.67.26-.67zm-20.297 5.134l.52.447c0-.447 0-.67-.52-.447zm26.803-6.027h-.521s0 .447.521 0zm-7.547 1.34h-.52v.223c.26 0 .26 0 .52-.223zm-13.01 4.018c.26-.224.26-.447 0-.67v.67zm7.546-3.349h-.26v.224c-.26 0 0 0 .26-.224-.26.224-.26.224 0 0z"/><path d="M123.867 18.08c.26-.223.521-.67.781-.892.26-.224.52-.447.781-.447h1.821c.781 0 1.822-.223 2.602-.223.521 0 1.041 0 1.302.223v.223c-.261.224-.781.447-1.041.447.26.446.52.67.78 1.116h-.52c-.521-.447-.781 0-1.301 0 0 0 0 .223-.261.446-.26-.223-.26-.446-.52-.67-.52 0 0 .447-.26.447-.26-.223-.521-.223-.781-.446h-.52v1.339c-.781-1.116-1.822-.893-2.863-.223.26-.447.521-1.116 0-1.34zm2.082-.223c-.781-.446-1.041-.446-1.561 0 .26.223.52.447.52.67 0 0 .26 0 .521-.223.52-.447 1.04-.447 1.821-.447.521 0 .521 0 .26-.446-.52.223-1.041 0-1.561.446zm0 .893c.52.447.52.447.781 0-.261-.223-.521-.223-.781 0zm3.383-1.116l.52-.447c-.26.224-.52.224-.52.447zM75.985 25.67v.446h-1.04c0 .223-.26.447-.521.67l.26.223 1.561-.67s-.26-.446.26-.446c.26.223.26.67.781.67 0 0 0-.224.26-.224s.26.224.521.224c.26-.224.26-.224.26-.447.26.223.26.223-.26 1.116 0 .223.26.223.26.447v.223c-.52 0-.78.223-1.3.223-.261 0-.521 0-.782.223-.26.223-.26.223-.78.223l.52-.446s0-.223.26-.223c-.26 0-.26-.223-.52 0l-.26.223c0 .446-.52.446-.78.446-.521 0-.261-.67-.782-.67 0 .447-.52.67-.78.894l-1.562-.67c-.52.223-.78.893-1.561.446.52-.223 1.04-.446 1.04-1.116.521.224 1.042 0 1.562-.223.26-.223.78-.223 1.301-.446.781-.893 1.301-.893 2.082-1.116z"/><path d="M67.918 28.125c.52.223.78-.223 1.561-.446-.26.223-.26.446-.52.67.26.446.78.222 1.04 0 .781-.447 1.302-.67 2.343-.447 0 .446-.26.67-.781.893l.52-.447h-.78c-.52 0-.78.223-1.301.223h-.26c-.26.224-.26.224-.521.224 0 0-.26-.224-.26-.447-.52 0-.78-.223-1.301.223-.26.224-.52 0-.781.224 0-.447.26-.447.52-.447 0 0 .26 0 .52-.223zM85.874 24.777c.26.223.52.67.78.893.52 0 .78-.224 1.041.446.26-.223.52-.446.78-.446.521.223.521.223.261.892-.26 0-.52-.446-.78-.223v.447c-.26-.224-.521-.67-.781-.67h-1.041c-.26-.223-.52-.446-.52-.67 0 0 .26-.446.26-.67zM252.158 27.009c.781 0 1.562 0 2.342.223.26 0 .521 0 1.041.223.781.224 1.561.224 2.342.447h.781c0 .223-.26.446-.521.223-.78-.223-1.301-.446-2.081-.446-.521 0-.781-.224-1.302-.224h-.78c-.521 0-1.041 0-1.822-.223v-.223zM128.551 22.321v.447c-.52.446-.781.223-1.301.223-.26.223-.521.223-.781.447 0-.224 0-.447-.26-.447h1.561c.261 0 .521-.223.521-.446.26 0 .52-.224.78-.224v-.67h.781v.447c.26 0 .521.223.781.223-.26.224-.521.224-1.041.224-.26-.447-.521-.447-1.041-.224zM119.182 22.545c-.781 0-1.301 0-1.821.446-.261 0-.261-.446-.521-.223-.52.223-.781 0-1.301 0 0 0-.26 0-.52-.223.52-.224 1.04-.224 1.561-.224.781 0 1.301-.223 2.082-.223.52 0 .52 0 .52.447zM246.172 26.34c-.78.446-2.862 0-3.643-.67.781.223 1.301.223 1.822.446.781 0 1.301-.223 1.821.223zM290.932 35.268c.52-.223 1.041-.223 1.301.223.52-.223.52-.446.26-.893.52 0 .52 0 .52.893.261.223.781.223 1.041.447-.52.223-1.301 0-1.821-.224-.26 0-.781-.223-1.301-.446zM221.451 22.768c-.78.67-1.561 0-2.342 0-.26 0-.52-.223-.52-.447.52 0 1.041-.446 1.561 0 .26.447 1.041-.223 1.301.447zM80.15 28.125c-.261.223-.521.223-.782.223-.78-.446-1.3 0-1.821.223 0 0-.26-.223-.52-.223 0 0 0-.223.26-.223.52 0 .78-.67 1.3-.447.26.447 1.042 0 1.562.447zM109.034 23.214c.26.224 0 .447-.26.893 0-.446-.261-.446-.781-.446h-1.301c-.26 0-.521 0-.781-.224.521-.223 1.041-.446 1.561-.223a1.906 1.906 0 001.562 0zM97.845 24.777c.26 0 .52 0 .52-.223v.223c-.52.223-.78.67-1.3.893V25h.26c0-.223-.26-.67-.26-.893.26 0 .52.223.78.223 0 .224-.26.224 0 .447-.26 0-.26 0 0 0zM174.09 16.295v-.447c0-.223-.26-.223-.26-.446h1.041c.52.446 0 .893 0 1.34-.26 0-.26.222-.26.222-.521 0-.521-.223-.521-.67zM131.413 18.75c-.261-.223-.521-.67-.781-.893 0-.223.26-.223.26-.446.26 0 .781.223 1.041 0 .52 0 .781.223.781.446-.521.223-1.041.223-1.301.893zm0-.67s0 .224 0 0c.26 0 .52 0 .52-.223-.26 0-.52.223-.52.223zM136.098 17.857c0-.223.26-.446.26-.67.781 0 1.041.447 1.561.893l-.26.224c-.52-.224-1.041-.224-1.561-.447zM151.971 21.429c.26 0 .52-.224.52-.224.521.447 1.041.224 1.562 0l.52.447c-1.041-.223-1.822 0-2.602-.223zM320.337 44.866h.52c0 .447.521.447.781.447s.26.223.521.223c0 .223-.261.223-.521.223-.26-.223-.52-.223-1.041-.447 0 .447-.26 0-.26-.446 0 .223 0 .223 0 0zM327.884 48.66c-.52 0-.781 0-1.041-.222-.26-.224-.52-.447-1.041-.224-.26 0-.26 0-.26-.223s.26-.223.52-.223h.781c.26 0 .26.223.26.223.261.447.521.67.781.67zM144.164 21.652c-.781.446-1.822.446-2.602.223 2.081 0 2.081 0 2.342-.446.26 0 .26 0 .26.223zM221.972 23.66c.26-.223.52-.223.52-.446.26.224.521.224.521.224.26 0 .52 0 .78.223-.26.223-.52.223-1.041.446-.26 0-.52-.223-.78-.446zM185.54 20.982c1.041 0 1.041 0 1.041.223h-.78c0 .224.26.67-.261.893 0-.446-.26-.893 0-1.116zM230.299 24.554h-1.562c.261-.224.521-.447 1.041-.447.26 0 .521 0 .521.223v.224zM93.681 25c-.26.223-.52.446-1.04.67 0-.224-.261-.447-.261-.893.26.223.52.223.52.223s.26-.223.26-.446c0 .223.26.446.521.446zM213.124 21.875v.223c.52 0 1.041 0 1.822.223-.521.224-1.562.224-2.342 0 0-.223 0-.446.52-.446zM115.539 9.821v-.223h-.52l-.26-.223s0-.223.26-.223c.52 0 1.041 0 1.561.446-.52 0-.78 0-1.041.223zM319.817 44.866c-.26 0-.52.223-1.041.223v-.446c.261-.223.521-.223.781-.447 0 0 .26.224.26.67zM79.368 25.67c.26 0 .52.223.52.223-.26.223-.52.446-1.04.446.26 0 .26-.223.52-.67zM238.367 25.223c-.261 0-.781.223-1.041.447l-.261-.224v-.223c0-.446.781-.446 1.302 0zM194.389 18.973l.52.447c.26 0 .26 0 .52-.224-.26.447-.52.67-.52.893l-.26-.223c0-.223-.521-.446-.26-.893-.261.223-.261 0 0 0zM172.268 15.848c-.26.223-.26.447-.52.893h-1.041c.52-.446 1.041-.67 1.561-.893zM112.417 21.875h1.561c0 .67-.52.67-1.561 0zM266.47 29.241c-.781.447-1.041.447-1.301 0 .52-.223.781.223 1.301 0zM318.255 43.973c-.52 0-1.041.224-1.821-.223 0-.223.26-.223.26-.446.26 0 .26 0 .52.223.26.446.521.446 1.041.446zM138.179 17.857c0-.223 0-.446.26-.446h.781v.446c-.261-.223-.521-.446-1.041 0zM155.875 18.08c-.26.224-.521.224-1.041.447-.26 0-.26 0-.521-.223l.261-.224c.26.224.78-.446 1.301 0zM234.723 25.223c.52-.446 1.041-.223 1.561-.223-.26.446-.781.223-1.561.223zM166.283 21.652l-.52-.447h1.561c-.26.224-.781 0-1.041.447zM140.261 20.759c-.781 0-1.302.223-2.082.223.78-.223 1.561-.446 2.082-.223z"/><path d="M174.09 16.295c-.52 0-.52.223-.52.446-.261-.223-.521-.223-.781-.446h.521l.52-.447c.26.223.26.447.26.447zM84.313 25.67c0-.447.52-.447.78-.224.26 0 .26.224.26.67-.52-.223-.78-.223-1.04-.446zM96.543 24.553c-.52-.223-.78.224-1.3 0 .78-.446.78-.446 1.3 0zM124.388 23.214c.52 0 .52-.223.52-.446h.781c-.521 0-.781.893-1.301.446zM74.944 29.018c.26 0 .781-.223 1.041-.223-.26.223-.26.67-.78.67-.26 0-.26 0-.26-.447zM112.678 24.33v-.446h1.041c0 .446 0 .446-1.041.446zM73.383 29.688c.26-.447 1.04-.224 1.3-.67-.26.446-.26.67-1.3.67zM172.789 16.295v-.67c.26 0 .26-.223.52-.223v.223c.261.223 0 .446-.52.67zM111.636 22.991c.26 0 .26-.223.52-.223s.26.223.521.223v.223c-.521-.223-.781 0-1.041-.223zM91.6 25c0 .223.26.223.26.446-.26 0-.52.224-.78.224 0-.447.52-.447.52-.67zM79.888 25.446h-1.04c.26-.223.52-.223.78-.67.26.224.26.447.26.67zM207.66 22.768c-.521 0-.521 0-.781-.447.781 0 .781 0 .781.447zM68.7 29.018c0 .446-.521.223-.782.446 0-.223-.26-.446 0-.446h.781zM131.933 22.768c-.26.223-.781.223-1.301 0 .52-.223 1.041-.223 1.301 0 0-.223 0-.223 0 0zM181.637 21.205h.78l.261.224v.223c-.261 0-.261 0-.261-.223-.26 0-.52 0-.78-.224zM166.804 140.402c.26 0 .78 0 1.041.223-.521.223-.521.223-1.041-.223zM136.098 22.545c-.52-.224-.52-.224-.781-.447.261 0 .521-.223 1.041-.223-.26.223-.26.446-.26.67zM322.419 46.652c.26-.223.26-.223.26-.447.26.224.781 0 .781.447h-1.041zM212.344 20.313c.26.223.26.446 0 .67h-.261c-.26-.447 0-.67.261-.67zM256.841 27.232c-.26 0-.52.223-.78.223v-.446c.26 0 .52 0 .78.223zM77.807 25.446l.26-.223c.26 0 .52 0 .52.447 0-.224-.26-.224-.78-.224zM148.067 21.652h1.302v.223c-.261 0-.521.223-1.041.223 0-.223 0-.446-.261-.446zM240.188 25.223c-.26-.223-.521.67-.781.223 0-.446.521-.223.781-.223zM189.443 21.652h-1.041c.521-.447.781 0 1.041 0zM110.856 22.991v.223c-.26.224-.521.224-.781.224 0-.224.26-.447.781-.447zM140.001 21.652c.26-.223.52-.223.52-.447v.67s-.26-.223-.52-.223zM193.608 18.973c0 .223.26.223.26.447-.26 0-.26.223-.52.223 0-.223 0-.447.26-.67-.26 0 0 0 0 0zM153.273 19.196v.447h-.781c.26-.223.521-.223.781-.447zM231.34 24.777h-.78c.26-.223.26-.447.52-.447 0 0 .26 0 .26.447 0-.223 0-.223 0 0zM182.418 20.759v-.67h.52c.261.224 0 .224-.26.224 0 .223 0 .223-.26.446.26 0 0 0 0 0zM220.671 23.214c.52.224.781.224 1.041.224-.521.223-.521.223-1.041-.224zM179.815 20.759c-.26 0-.78.223-1.041-.223.261 0 .521 0 1.041.223 0-.223 0 0 0 0zM138.959 16.518c-.26.223-.26.223-.52.223 0-.223-.26-.223-.26-.446.26.223.52.223.78.223zM169.406 20.982h.781v.223c-.26 0-.521.224-.781-.223 0 .223 0 0 0 0zM177.213 20.982c-.26 0-.52.223-.78.223v-.223c.26 0 .26-.223.78 0zM252.679 26.786h-.781c.261-.447.261-.447.781 0zM233.421 23.884h-.78c.26-.223.52-.223.78 0zM114.238 23.66c.261.224.261.447.261.67-.521 0-.521 0-.261-.67zM123.866 19.42c-.52-.447 0-.67.26-.893-.26.223-.26.446-.26.893zM87.436 22.768h-.78c0-.223.26-.223.52-.223.26-.224.26 0 .26.223zM80.93 27.679c.52-.224.52-.224 1.04 0h-1.04zM86.134 22.768c-.26 0-.52.223-.78.223.26-.446.52-.446.78-.223zM310.449 126.786l.78.669c-.52 0-.78-.223-.78-.669-.261 0 0 0 0 0zM100.187 13.84c.26-.447.52-.447.78-.224-.26 0-.52.223-.78.223zM181.637 20.982c-.26 0-.52-.223-.781-.223.781-.223.781-.223.781.223zM112.417 24.33c-.52 0-.52-.223-.26-.446.26 0 .26.223.26.446zM88.216 21.875c0 .446 0 .446-.52.67 0-.224.26-.447.52-.67zM230.82 22.098c0 .223 0 .447-.26.893 0-.446 0-.446.26-.893zM82.23 23.438c-.26.223-.52.223-.78.446 0-.447.26-.447.78-.447zM124.388 22.991s0 .223-.26.223h-.26c0-.223 0-.223-.261-.446.521.223.781 0 .781.223zM74.424 25.446c-.26.224-.26.224-.78.224.52-.224.78-.224.78-.224zM240.969 25.223v-.67c.26 0 .26.224.52.224-.26.223-.52.223-.52.446zM154.313 19.643c.261 0 .521.223.521.223v.223c-.26 0-.26-.223-.521-.446zM231.86 24.107l.521.447c-.26.223-.26.223-.521-.447zM293.534 35.045c.26-.224.26-.447.521-.447 0 .223 0 .447-.521.447zM289.111 35.045c0-.224-.26-.224-.26-.224s0-.223.26-.223l.26.223s-.26 0-.26.224zM191.005 21.652c-.26 0-.52 0-.78.223.26-.67.52-.446.78-.223 0-.223 0 0 0 0zM184.239 20.536c.26 0 .521 0 .781.223-.521.223-.521.223-.781-.223zM26.023 52.455l.52-.446c0 .223-.26.446-.52.446zM204.797 21.652c-.52 0-.52 0-.26-.447 0 .224.26.224.26.447zM175.392 15.625c0-.223.26-.446.52-.223-.26.223-.52.223-.52.223zM133.755 16.741c-.26.223-.521.223-.521.447 0-.447 0-.447.521-.447zM99.406 24.777c-.26 0-.52.223-.781.223v-.223c.26 0 .52-.223.78 0 0-.223 0-.223 0 0zM124.127 22.098c.26 0 .52.223.52.223-.26.224-.26.224-.52-.223zM207.139 21.652c-.261 0-.261 0-.521-.223v-.224l.521.447zM318.255 43.973c0 .223.261.223.261.447-.261 0-.521-.224-.521-.224l.26-.223zM233.423 24.777c-.26.223-.26.223-.521 0v-.223c.261.223.261.223.521.223zM177.994 17.857c0-.446 0-.446.521-.223 0 .223-.261.223-.521.223zM329.966 49.107c-.26.447-.26.447-.78.223.26 0 .26 0 .78-.223zM291.712 33.929c.26.223 0 .446-.521.67.261-.224.261-.447.521-.67zM144.685 20.982c0 .223.26.223.26.223h-.52c.26 0 .26 0 .26-.223zM70 31.92c-.26 0-.26.223-.52.223 0-.223 0-.447.52-.223zM147.547 21.652c-.26.223-.52.223-.78 0h.78zM230.819 22.098v-.67c.261.447.781.67 0 .67zM77.026 29.688c.26 0 .26-.224.52-.224 0 .447-.26.447-.52.224zM105.911 22.768h.521c-.261.223-.261.223-.521 0zM131.934 17.188c0-.224 0-.447.26-.67 0 .446 0 .446-.26.67zM70.52 23.66c.26 0 .521-.223.781.224-.26 0-.52-.223-.78-.223zM114.759 23.884c.26 0 .52.223.78.223v.223c-.52-.223-.78-.223-.78-.446zM72.342 26.116h-.52c.26 0 .26 0 .52-.223v.223zM238.366 25.223c.26 0 .26.223.521.223-.521 0-.521 0-.521-.223zM177.473 15.625c-.26-.223 0-.223 0-.223s.26 0 0 .223c.26 0 .26 0 0 0zM334.129 52.232l-.26-.223c.26-.223.26 0 .26.223.261-.223 0-.223 0 0zM122.826 17.634s.26-.223.521-.223c0 .223-.261.223-.521.223zM31.227 47.321l.26.224v.223c-.26 0-.26-.223-.26-.447 0 .224 0 0 0 0zM239.667 140.625c-.26-.223-.26-.223 0 0-.26-.223 0-.446 0-.446v.446c0-.223 0-.223 0 0zM173.83 20.09h-.52s.26 0 .26-.224c.26 0 .26 0 .26.223 0-.223 0 0 0 0zM189.183 21.205c0-.223 0-.446.26-.67.26.447.26.447-.26.67zM168.886 20.982h.26c-.26.223-.26.223-.26 0 0 .223 0 .223 0 0zM180.336 20.982c-.26.447-.52.223-.78.223.52 0 .52 0 .78-.223zM203.236 21.205v.447h-.26s0-.223.26-.447c-.26 0 0 0 0 0zM278.701 32.143c.26 0 .26 0 .521.223v.223l-.521-.446c0 .223 0 .223 0 0zM191.266 21.429c.26 0 .26 0 0 0v0zM122.306 22.098v-.223h.26c-.26 0 0 0-.26.223.26 0 .26 0 0 0zM121.785 22.098h-.52l.26-.223c0 .223.26.223.26.223zM123.606 22.321l-.26-.223v-.223c0 .223.26.446.26.446zM76.505 29.91l.26-.223h.26c-.26.224-.26.447-.52.224 0 .223 0 .223 0 0zM137.398 22.321h.521v.224c0-.224-.26 0-.521-.224zM222.493 22.768v-.447l.26.224s0 .223-.26.223c.26 0 .26 0 0 0zM115.019 9.598c0 .447-.26.447-.52.223.26 0 .26 0 .52-.223zM238.106 24.107l-.521.447c0-.224 0-.224-.26-.447h.781zM109.034 24.554h.26c0 .223 0 .223-.26 0 0 .223 0 .223 0 0zM239.146 24.554h.261c0 .223-.261.223-.261 0zM78.327 24.33h.52v.224c-.26 0-.26 0-.52-.224 0 .224 0 .224 0 0 0 .224 0 0 0 0zM234.463 23.66c-.26 0-.26.224 0 0h-.26.26c-.26 0-.26 0 0 0zM218.589 23.214c0 .224-.26.224 0 0-.26.224-.26.224-.26 0v-.223c0 .223 0 .223.26.223zM117.101 23.214c-.261 0-.261.224-.261 0l-.26-.223h.26l.261.223zM113.978 22.545c0 .223 0 .223 0 0h-.52v-.224c.26.224.52.224.52.224zM139.74 22.098h.26v.223c0-.223-.26-.223-.26-.223zM290.671 35.268v-.67l.26.223c-.26.224-.26.224-.26.447zM192.046 20.982h.26v.223c0-.223-.26-.223-.26-.223zM187.362 141.295c-.26 0-.26 0 0 0-.26-.224 0-.224 0-.224v.224zM100.187 12.723s.26 0 .52.223c-.52 0-.52 0-.52-.223zM175.131 20.313l-.26-.224c.26 0 .26 0 .26.224.261-.224.261 0 0 0zM295.356 36.16c0 .224.26.447-.26.447.26-.223.26-.223.26-.446zM298.738 37.277c-.26 0-.26.223-.26.223h-.26s0-.223.26-.223h.26zM39.554 41.964c0-.223-.26-.223 0 0 0-.223 0-.223.26-.223-.26 0 0 0-.26.223.26-.223 0 0 0 0zM179.035 18.08c.26-.223.26 0 .521 0h-.521zM173.569 17.634c.261 0 .261 0 .521.223-.26 0-.521 0-.521-.223zM174.612 16.964l.26.224h-.52s0-.224.26-.224zM172.789 15.402h-.52c.26-.223.26-.223.52 0zM248.255 26.786c-.26 0-.26 0 0 0-.26-.224 0-.224 0-.224v.224zM221.712 19.866c0-.223 0-.223-.26-.446.521 0 .521.223.26.446.261 0 .261 0 0 0zM118.662 19.866l.26.223s0 .224-.26.224v-.447z"/></g><defs><clipPath id="clip0"><path fill="#fff" d="M0 0h369v150H0z"/></clipPath></defs></svg>