<svg viewBox="0 0 151 230" fill="none" xmlns="http://www.w3.org/2000/svg"><path fillRule="evenodd" clipRule="evenodd" d="M119.935 56.516l.041-.058c1.666 1.147 3.276 2.387 5.016 3.408 1.215.715 2.804 1.296 3.816-.12 1.048-1.463-.009-2.79-1.238-3.533-2.407-1.458-4.897-2.81-7.459-3.97-1.812-.823-4.039-3.928-5.558-1.354-1.284 2.174 2.314 3.187 3.891 4.586.449.4.992.696 1.491 1.04zm-38.153 46.538c1.806-.163 3.665-.677 5.413-.426 6.464.934 11.497 3.269 11.33 10.194-.042 1.788-.382 4.435 2.011 4.36 2.632-.08 2.365-3.044 2.409-4.913.23-9.58-11.87-15.176-21.163-9.215zm16.861 21.745c-3.229.561-4.154 3.027-5.46 4.915-17.083 24.718-31.37 51.199-47.978 76.222-.736 1.108-2.854 2.828-.468 3.884 2.112.938 3.443-.833 4.671-2.8 12.657-20.286 25.63-40.374 38.132-60.755 4.104-6.69 8.256-13.477 11.103-21.466zm-20.937-33.87c-.422 5.02-2.078 9.584-4.667 13.636-14.413 22.551-26.465 46.46-40.155 69.425-3.547 5.948-6.502 12.248-9.849 18.32-1.14 2.067-2.674 4.544-.09 5.854 2.878 1.456 2.713-2.007 3.592-3.561 5.222-9.243 10.452-18.483 15.606-27.765 7.426-13.372 14.744-26.807 22.202-40.161 3.776-6.761 7.348-13.698 11.783-20.014 3.625-5.163 3.69-10.144 1.578-15.733zM121.17 31.55c-4.029 2.253-.682 4.188.771 4.736 6.865 2.584 11.896 9.653 20.525 8.136 2.193-.385 3.563 1.608 2.485 4.249-2.504 6.127-3.806 13.02-10.722 16.232-1.799.835-1.615 2.757-2.111 4.225-4.606 13.63-8.342 27.57-7.243 42.021.726 9.546-4.309 16.429-8.489 23.673-13.571 23.518-27.626 46.756-41.457 70.125-2.83 4.784-7.9 6.615-12.446 8.249-23.393 8.421-45.494-3.885-50.967-25.936-.148-.595-.133-1.475-.519-1.732-7.538-5.043-1.91-10.202.398-14.567 6.77-12.809 13.864-25.474 21.47-37.804 9.234-14.964 18.28-30.071 28.679-44.297 1.73-2.367 3.56-4.415 6.059-5.912 12.698-7.6 23.675-17.376 34.41-27.432 6.037-5.654 6.475-14.14 10.152-21.037 2.405-4.515 4.372-6.5 8.936-3.158l-.291.213.36.016z" fill="#fff"/><mask id="bottle-a" maskUnits="userSpaceOnUse" x="119" y="17" width="31" height="25"><path fillRule="evenodd" clipRule="evenodd" d="M123.85 17.237l25.577 5.436-3.986 18.751-25.577-5.437 3.986-18.75z" fill="#fff"/></mask><g mask="url(#bottle-a)"><path fillRule="evenodd" clipRule="evenodd" d="M121.1 31.32c1.369-2.26 2.679-4.561 4.118-6.774 4.133-6.361 5.997-6.884 12.761-3.271 2.322 1.24 4.299 3.125 6.619 4.367 3.563 1.91 4.21 3.722 1.994 7.609-4.825 8.46-4.494 8.61-13.43 4.09-3.965-2.007-8.006-3.87-12.003-5.795.011.004-.348-.012-.348-.012l.289-.214z" fill="#A25517"/></g><path fillRule="evenodd" clipRule="evenodd" d="M77.706 90.93c2.112 5.588 2.046 10.571-1.576 15.732-4.436 6.317-8.01 13.253-11.785 20.014-7.458 13.355-14.775 26.789-22.2 40.163-5.155 9.281-10.385 18.522-15.609 27.764-.878 1.553-.713 5.017-3.591 3.561-2.584-1.31-1.05-3.787.09-5.854 3.347-6.072 6.302-12.371 9.849-18.32 13.692-22.966 25.743-46.875 40.155-69.426 2.59-4.051 4.246-8.615 4.667-13.634zM98.644 124.799c-2.847 7.989-7 14.775-11.103 21.467-12.502 20.379-25.475 40.468-38.133 60.753-1.227 1.967-2.56 3.738-4.67 2.801-2.386-1.056-.268-2.776.468-3.884 16.607-25.023 30.895-51.503 47.979-76.222 1.304-1.887 2.229-4.353 5.46-4.915zM81.781 103.054c9.294-5.961 21.395-.365 21.163 9.214-.044 1.87.223 4.834-2.409 4.915-2.393.073-2.053-2.573-2.01-4.361.167-6.926-4.866-9.261-11.331-10.193-1.748-.252-3.605.262-5.413.425zM119.935 56.516c-.499-.345-1.042-.64-1.492-1.04-1.576-1.4-5.175-2.413-3.891-4.587 1.52-2.574 3.746.53 5.559 1.353 2.562 1.16 5.052 2.513 7.459 3.97 1.229.745 2.286 2.071 1.238 3.534-1.012 1.416-2.601.834-3.817.12-1.74-1.02-3.35-2.261-5.016-3.408a.868.868 0 01-.04.058z" fill="#1D5DB5"/></svg>