<svg viewBox="0 0 133 202" fill="none" xmlns="http://www.w3.org/2000/svg"><path fillRule="evenodd" clipRule="evenodd" d="M105.21 49.903l.035-.05c1.465 1.007 2.88 2.098 4.41 2.995 1.068.628 2.465 1.14 3.355-.105.921-1.286-.008-2.452-1.088-3.107-2.117-1.281-4.306-2.47-6.558-3.49-1.593-.723-3.55-3.453-4.886-1.19-1.129 1.911 2.035 2.802 3.42 4.032.395.352.873.611 1.312.915zM71.67 90.815c1.587-.144 3.222-.595 4.758-.374 5.683.82 10.107 2.873 9.96 8.96-.037 1.573-.336 3.899 1.768 3.834 2.314-.071 2.079-2.676 2.118-4.32.203-8.42-10.434-13.34-18.605-8.1zm14.822 19.116c-2.839.493-3.652 2.661-4.8 4.32-15.017 21.73-27.578 45.01-42.178 67.007-.646.974-2.508 2.486-.411 3.415 1.856.824 3.026-.733 4.106-2.462 11.127-17.833 22.532-35.493 33.522-53.409 3.608-5.882 7.258-11.848 9.76-18.871zM68.086 80.156c-.371 4.412-1.826 8.425-4.103 11.987-12.67 19.824-23.265 40.843-35.3 61.031-3.119 5.23-5.716 10.768-8.659 16.106-1.002 1.817-2.35 3.995-.079 5.146 2.53 1.28 2.385-1.764 3.158-3.13 4.591-8.126 9.189-16.249 13.72-24.408 6.528-11.756 12.96-23.567 19.517-35.306 3.32-5.944 6.46-12.042 10.359-17.594 3.186-4.539 3.244-8.918 1.387-13.832zm38.209-52.2c-3.541 1.98-.599 3.681.678 4.163 6.035 2.271 10.457 8.486 18.043 7.152 1.929-.339 3.133 1.414 2.185 3.735-2.201 5.386-3.345 11.447-9.425 14.27-1.582.734-1.42 2.423-1.856 3.714-4.049 11.982-7.334 24.237-6.368 36.94.639 8.393-3.788 14.443-7.463 20.812-11.93 20.675-24.285 41.103-36.444 61.647-2.489 4.206-6.944 5.815-10.941 7.252-20.565 7.402-39.995-3.415-44.806-22.801-.13-.523-.116-1.296-.456-1.522-6.626-4.434-1.68-8.969.35-12.806 5.952-11.26 12.187-22.395 18.874-33.233 8.118-13.155 16.07-26.436 25.212-38.942 1.521-2.081 3.13-3.882 5.326-5.197 11.163-6.682 20.813-15.276 30.25-24.116 5.308-4.97 5.692-12.43 8.925-18.494 2.114-3.969 3.844-5.713 7.856-2.776l-.256.187.316.014z" fill="#EEE2D9"/><mask id="a" maskUnits="userSpaceOnUse" x="105" y="15" width="27" height="22"><path fillRule="evenodd" clipRule="evenodd" d="M108.651 15.373l22.485 4.779-3.503 16.484-22.485-4.78 3.503-16.483z" fill="#fff"/></mask><g mask="url(#a)"><path fillRule="evenodd" clipRule="evenodd" d="M106.234 27.753c1.204-1.987 2.355-4.01 3.62-5.955 3.634-5.592 5.272-6.052 11.218-2.875 2.042 1.09 3.78 2.747 5.819 3.839 3.133 1.678 3.702 3.272 1.753 6.688-4.242 7.437-3.951 7.57-11.806 3.597-3.486-1.765-7.038-3.402-10.552-5.095.01.003-.306-.011-.306-.011l.254-.188z" fill="#A25517"/></g><path fillRule="evenodd" clipRule="evenodd" d="M68.085 80.156c1.857 4.913 1.799 9.293-1.386 13.83-3.9 5.554-7.04 11.651-10.36 17.595-6.557 11.74-12.988 23.55-19.517 35.307-4.53 8.159-9.128 16.282-13.72 24.408-.773 1.365-.628 4.41-3.158 3.13-2.271-1.152-.923-3.329.08-5.147 2.942-5.337 5.539-10.875 8.657-16.105 12.037-20.189 22.632-41.208 35.301-61.032 2.277-3.561 3.732-7.574 4.103-11.986zM86.492 109.931c-2.503 7.023-6.155 12.989-9.761 18.872-10.99 17.915-22.395 35.575-33.523 53.408-1.079 1.729-2.25 3.286-4.105 2.462-2.098-.929-.236-2.441.41-3.415 14.6-21.997 27.161-45.276 42.18-67.007 1.146-1.658 1.959-3.826 4.799-4.32zM71.668 90.814c8.17-5.24 18.808-.32 18.605 8.1-.04 1.644.196 4.25-2.118 4.321-2.104.065-1.805-2.262-1.767-3.834.146-6.088-4.278-8.14-9.962-8.96-1.536-.222-3.169.23-4.758.373zM105.209 49.903c-.439-.303-.916-.563-1.311-.915-1.386-1.23-4.55-2.12-3.421-4.031 1.337-2.264 3.294.466 4.887 1.189 2.252 1.02 4.441 2.209 6.557 3.49 1.08.655 2.01 1.82 1.088 3.107-.889 1.245-2.286.733-3.355.105-1.529-.897-2.945-1.988-4.409-2.996l-.036.051z" fill="#1D5DB5"/></svg>