<svg viewBox="0 0 157 134" fill="none" xmlns="http://www.w3.org/2000/svg"><path fillRule="evenodd" clipRule="evenodd" d="M109.602 36.83l-.057-.13c1.152-.569 2.338-1.08 3.451-1.719 1.577-.902 4.201-1.392 3.104-3.966-1.012-2.374-2.84-4.39-5.977-3.267-2.564.917-5.064 2.013-7.609 2.984-2.95 1.126-2.07 3.005-1.138 5.037.954 2.077 1.985 3.764 4.682 2.568 1.174-.52 2.362-1.006 3.544-1.508zM129.58 57.3c-1.556-3.813-4.867-5.318-8.432-3.834-3.894 1.62-6.197 5.94-4.928 9.239 1.248 3.244 5.696 4.968 9.243 3.584 4.664-1.82 5.922-4.567 4.117-8.989zm-69.435.628c-3.291 3.238-4.876 6.778-6.812 10.091-.459.786-.683 2.448-1.627 2.027-4.448-1.985-3.502 2.07-3.728 3.613-1.143 7.788 1.57 14.601 6.573 20.394 8.317 9.63 23.437 11.908 34.324 5.459 11.427-6.77 17.794-23.504 13.361-35.113-6.983-18.288-30.25-23.074-45.022-9.237-1.095 1.026-3.226 2.165-1.991 3.787 1.335 1.754 2.593-.973 4.922-1.021zM138.558 41.9c5.456 11.138 9.257 23.038 15.52 33.8 1.609 2.765.983 4.334-1.896 5.623-6.466 2.893-12.79 6.1-19.254 8.993a11138.15 11138.15 0 01-59.623 26.488c-7.22 3.18-13.936 7.397-21.403 10.075-7.183 2.576-9.12 1.854-12.572-4.792-3.628-6.985-7.474-13.856-11.223-20.778 1.25-1.873-.033-3.457-.765-4.94-4.396-8.906-8.838-17.79-13.434-26.592-1.325-2.537-4.154-4.753-3.782-7.599.469-3.576 4.679-3.202 7.17-4.656 16.902-9.861 34.596-18.176 52.363-26.31 15.773-7.22 32.279-12.6 48.521-18.64 2.472-.92 3.515-.438 4.906 1.845 2.861 4.698 4.718 9.843 7.277 14.642 2.381 4.466 4.139 9.414 8.195 12.841z" fill="#EEE2D9"/><mask id="CameraColouredA" maskUnits="userSpaceOnUse" x="0" y="0" width="144" height="104"><path fillRule="evenodd" clipRule="evenodd" d="M.625 52.009L121.849.552l21.927 51.657-121.224 51.457L.625 52.009z" fill="#fff"/></mask><g mask="url(#CameraColouredA)"><path fillRule="evenodd" clipRule="evenodd" d="M138.558 41.9c-4.056-3.427-5.813-8.375-8.195-12.841-2.558-4.8-4.415-9.945-7.277-14.642-1.39-2.283-2.433-2.766-4.906-1.846-16.241 6.041-32.747 11.42-48.52 18.64-17.768 8.134-35.462 16.45-52.362 26.31-2.492 1.454-6.703 1.08-7.171 4.657-.373 2.846 2.456 5.062 3.781 7.598 4.597 8.803 9.039 17.687 13.434 26.592.733 1.484 2.016 3.068.765 4.94C20.85 90.581 14.112 79.541 8.07 68.082c-.375-.711-.636-1.484-1.039-2.177-4.269-7.349-4.087-7.054 3.425-11.864 23.87-15.283 49.163-27.756 75.507-38.022 11.017-4.294 22.152-8.46 33.652-11.463 2.159-.563 3.383-.189 4.103 1.888 4.204 12.129 11.709 22.876 14.841 35.455z" fill="#A25517"/></g><path fillRule="evenodd" clipRule="evenodd" d="M82.005 93.333c12.943-5.644 17.14-20.406 8.76-30.797-4.487-5.564-15.989-9.309-20.533-6.39-6.997 4.493-11.79 10.804-13.795 18.933-1.136 4.61-1.087 9.28 2.298 13.144 5.587 6.382 15.498 8.5 23.27 5.11zM60.146 57.93c-2.328.048-3.587 2.775-4.922 1.02-1.234-1.62.897-2.76 1.99-3.785 14.772-13.838 38.04-9.052 45.023 9.236 4.433 11.61-1.934 28.343-13.36 35.113-10.888 6.45-26.007 4.171-34.325-5.46-5.002-5.792-7.715-12.605-6.573-20.393.226-1.543-.719-5.598 3.728-3.613.944.421 1.168-1.24 1.628-2.027 1.935-3.313 3.52-6.854 6.811-10.091z" fill="#A25517"/><path fillRule="evenodd" clipRule="evenodd" d="M129.58 57.3c1.805 4.423.547 7.17-4.117 8.99-3.547 1.384-7.995-.34-9.243-3.584-1.269-3.3 1.034-7.618 4.928-9.24 3.565-1.483 6.876.023 8.432 3.835zM109.601 36.829c-1.181.502-2.37.988-3.543 1.508-2.698 1.196-3.729-.491-4.682-2.568-.933-2.032-1.812-3.911 1.138-5.037 2.545-.971 5.044-2.067 7.609-2.985 3.137-1.122 4.965.894 5.977 3.268 1.097 2.574-1.527 3.064-3.104 3.966-1.114.638-2.299 1.15-3.452 1.719l.057.129zM72.136 67.943c-2.678 2.225-4.559 10.441-2.828 12.921 1.12 1.605 2.697 2.333 4.472.88 3.33-2.727 2.15-11.954-1.73-13.825.51-.372 1.055-.706 1.526-1.124 1.899-1.687 1.338-3.44-.133-4.947-1.214-1.242-2.664-1.022-3.698.336-1.36 1.786-1.465 3.494.79 4.753.55.306 1.069.67 1.601 1.006zm9.868 25.39c-7.772 3.39-17.683 1.27-23.27-5.11-3.384-3.864-3.435-8.533-2.297-13.144 2.005-8.13 6.798-14.44 13.794-18.934 4.545-2.918 16.046.826 20.533 6.39 8.381 10.392 4.183 25.154-8.76 30.798z" fill="#07398A"/><path fillRule="evenodd" clipRule="evenodd" d="M72.051 67.92c3.881 1.87 5.06 11.097 1.73 13.824-1.775 1.454-3.352.725-4.472-.88-1.73-2.48.15-10.696 2.829-12.92l-.087-.024z" fill="#EEE2D9"/><path fillRule="evenodd" clipRule="evenodd" d="M72.137 67.943c-.533-.336-1.051-.7-1.601-1.005-2.255-1.26-2.15-2.968-.79-4.753 1.033-1.359 2.484-1.579 3.697-.337 1.471 1.508 2.032 3.26.133 4.948-.47.417-1.015.752-1.526 1.125l.087.022z" fill="#EEE2D9"/></svg>