<svg viewBox="0 0 112 96" fill="none" xmlns="http://www.w3.org/2000/svg"><path fillRule="evenodd" clipRule="evenodd" d="M78.044 26.085l-.041-.092c.825-.407 1.674-.774 2.472-1.23 1.13-.647 3.008-.998 2.223-2.841-.725-1.7-2.034-3.144-4.28-2.34-1.837.657-3.627 1.442-5.45 2.137-2.112.806-1.483 2.152-.815 3.607.683 1.488 1.421 2.696 3.353 1.84.84-.373 1.692-.721 2.538-1.08zM92.35 40.746c-1.114-2.73-3.485-3.808-6.038-2.746-2.789 1.161-4.438 4.254-3.53 6.617.894 2.323 4.08 3.558 6.62 2.566 3.34-1.303 4.24-3.27 2.948-6.437zm-49.725.45c-2.357 2.319-3.492 4.854-4.878 7.227-.33.563-.49 1.753-1.166 1.451-3.185-1.421-2.508 1.483-2.67 2.588-.818 5.577 1.125 10.456 4.707 14.605 5.957 6.897 16.785 8.528 24.581 3.909 8.184-4.848 12.744-16.832 9.569-25.146-5-13.097-21.664-16.524-32.242-6.614-.785.734-2.31 1.55-1.426 2.711.956 1.256 1.857-.697 3.525-.731zm56.154-11.48c3.908 7.977 6.63 16.5 11.115 24.206 1.152 1.98.704 3.105-1.358 4.028-4.63 2.071-9.16 4.368-13.789 6.44A7921.459 7921.459 0 0152.05 83.359c-5.17 2.277-9.98 5.297-15.328 7.215-5.144 1.845-6.53 1.328-9.003-3.431-2.598-5.003-5.353-9.924-8.038-14.881.896-1.34-.023-2.475-.547-3.538-3.148-6.377-6.33-12.74-9.621-19.043-.949-1.817-2.975-3.404-2.708-5.442.335-2.561 3.35-2.294 5.135-3.335 12.104-7.062 24.775-13.017 37.499-18.841 11.296-5.171 23.116-9.023 34.748-13.35 1.77-.659 2.517-.313 3.513 1.322 2.05 3.364 3.38 7.049 5.212 10.486 1.705 3.198 2.964 6.742 5.868 9.196z" fill="#fff"/><mask id="a" maskUnits="userSpaceOnUse" x="0" y="0" width="103" height="74"><path fillRule="evenodd" clipRule="evenodd" d="M0 36.956L86.814.106 102.517 37.1 15.703 73.95 0 36.957z" fill="#fff"/></mask><g mask="url(#a)"><path fillRule="evenodd" clipRule="evenodd" d="M98.78 29.717c-2.905-2.454-4.163-5.998-5.869-9.196-1.832-3.437-3.162-7.122-5.211-10.486-.996-1.635-1.743-1.98-3.514-1.322-11.631 4.327-23.451 8.179-34.748 13.35-12.723 5.824-25.395 11.78-37.498 18.841-1.785 1.041-4.8.774-5.135 3.335-.267 2.038 1.759 3.625 2.708 5.442 3.291 6.303 6.473 12.666 9.62 19.043.525 1.063 1.444 2.197.548 3.538-5.197-7.682-10.023-15.589-14.35-23.795-.268-.509-.456-1.062-.744-1.559-3.057-5.263-2.927-5.052 2.453-8.496 17.093-10.945 35.207-19.877 54.074-27.23 7.89-3.074 15.863-6.058 24.1-8.208 1.545-.403 2.422-.136 2.937 1.351 3.011 8.686 8.386 16.383 10.629 25.392z" fill="#A25517"/></g><path fillRule="evenodd" clipRule="evenodd" d="M58.279 66.55c9.269-4.041 12.275-14.613 6.273-22.055-3.213-3.984-11.45-6.666-14.704-4.576-5.01 3.218-8.443 7.737-9.88 13.559-.813 3.302-.778 6.645 1.646 9.413 4.002 4.57 11.1 6.087 16.665 3.66zM42.625 41.197c-1.668.035-2.569 1.987-3.525.731-.884-1.161.642-1.977 1.426-2.711 10.578-9.91 27.241-6.483 32.242 6.614 3.175 8.314-1.385 20.298-9.568 25.146-7.797 4.619-18.625 2.987-24.582-3.91-3.582-4.148-5.525-9.027-4.707-14.604.162-1.105-.514-4.01 2.67-2.588.676.302.837-.888 1.166-1.451 1.386-2.373 2.521-4.908 4.878-7.227z" fill="#A25517"/><path fillRule="evenodd" clipRule="evenodd" d="M92.35 40.746c1.293 3.167.392 5.134-2.948 6.438-2.54.991-5.726-.244-6.62-2.567-.908-2.363.741-5.455 3.53-6.616 2.553-1.063 4.924.015 6.038 2.745zM78.043 26.085c-.846.36-1.697.708-2.537 1.08-1.932.857-2.67-.352-3.353-1.838-.668-1.456-1.298-2.802.814-3.608 1.823-.695 3.613-1.48 5.45-2.137 2.246-.804 3.555.64 4.28 2.34.786 1.843-1.094 2.194-2.223 2.84-.797.457-1.646.824-2.472 1.23l.041.093zM51.213 48.368c-1.918 1.593-3.265 7.477-2.025 9.253.802 1.15 1.931 1.67 3.202.63 2.386-1.953 1.54-8.56-1.24-9.9.367-.267.757-.506 1.094-.805 1.36-1.209.958-2.464-.095-3.543-.87-.89-1.908-.732-2.648.24-.974 1.28-1.05 2.503.566 3.404.393.22.765.48 1.146.72zM58.28 66.55c-5.565 2.428-12.663.91-16.664-3.659-2.424-2.767-2.46-6.11-1.645-9.413 1.436-5.822 4.868-10.341 9.879-13.56 3.254-2.089 11.49.592 14.704 4.577 6.002 7.442 2.996 18.013-6.273 22.056z" fill="#07398A"/><path fillRule="evenodd" clipRule="evenodd" d="M51.15 48.351c2.78 1.34 3.625 7.947 1.24 9.9-1.272 1.041-2.401.52-3.203-.63-1.24-1.776.108-7.66 2.026-9.253l-.062-.017z" fill="#fff"/><path fillRule="evenodd" clipRule="evenodd" d="M51.212 48.368c-.381-.241-.752-.501-1.146-.72-1.615-.902-1.54-2.126-.566-3.404.74-.973 1.779-1.131 2.648-.241 1.053 1.08 1.455 2.335.095 3.543-.337.299-.727.538-1.093.805l.062.017z" fill="#fff"/></svg>