<svg width="365" height="182" viewBox="0 0 365 182" fill="none" xmlns="http://www.w3.org/2000/svg">
<g clip-path="url(#clip0)">
<path fill-rule="evenodd" clip-rule="evenodd" d="M167.365 62.8283L214.042 35.7835C218.453 32.7881 229.968 29.8434 230.317 40.5052C230.92 52.6901 216.923 42.847 214.156 47.4607C201.273 68.9715 185.493 89.5113 171.636 91.8245C155.713 94.893 95.9596 45.8139 120.082 39.4676C131.327 36.507 163.83 64.0563 167.365 62.8283Z" fill="#EEE1D9"/>
<path fill-rule="evenodd" clip-rule="evenodd" d="M362.326 158.892C350.471 154.961 323.233 152.606 320.101 150.258L232.471 77.9103C218.709 66.763 197.389 76.2666 185.264 86.9347C173.654 98.6246 164.08 109.118 131.391 118.244C59.7187 138.257 121.732 171.321 159.857 161.082C181.212 155.024 214.15 117.873 214.15 117.873C227.312 134.243 266.929 148.256 303.271 162.564C304.058 164.528 305.175 166.108 306.51 166.968C307.396 167.539 310.854 167.92 315.766 168.113C316.105 168.146 316.445 168.157 316.785 168.148C329.043 168.526 349.272 167.701 362.161 165.331C365.207 165.461 366.124 160.155 362.326 158.892Z" fill="#EEE1D9"/>
<path fill-rule="evenodd" clip-rule="evenodd" d="M150.343 95.1944C150.343 95.1944 170.842 121.265 167.126 128.313C161.325 139.317 108.778 163.017 100.239 144.22C87.1847 129.623 70.8144 42.279 108.172 38.871C112.649 38.4617 120.503 38.3474 123.048 41.254C140.538 61.21 150.343 95.1944 150.343 95.1944Z" fill="#0D3C88"/>
<path fill-rule="evenodd" clip-rule="evenodd" d="M117.166 38.9061C117.071 38.4809 110.439 29.8468 116.617 27.1083C118.794 26.2897 120.254 25.3599 120.39 23.9828C121.12 16.5576 116.557 15.6279 115.535 11.8867C114.447 7.8949 110.287 8.50415 106.377 8.74849C99.9518 9.1483 89.1409 17.1764 97.4926 28.0857C99.1966 30.3069 102.278 31.5476 105.813 36.2629C106.704 37.4496 106.977 38.1287 107.625 40.3531C110.061 48.6572 122.84 44.9129 117.166 38.9061Z" fill="#EEE1D9"/>
<path d="M100.357 77.1393C100.357 77.1393 112.898 51.6081 92.6084 49.0251" stroke="#D93F01" stroke-width="0.567994" stroke-miterlimit="10"/>
<path fill-rule="evenodd" clip-rule="evenodd" d="M82.7488 57.1167C67.9683 87.4933 45.02 143.991 24.5881 150.547C18.3339 150.303 3.77226 149.728 3.47399 152.901C3.36928 154.012 16.8425 153.365 12.4032 155.097C7.964 156.83 0.945023 158.089 1.12907 159.187C1.44638 161.091 12.8697 158.623 11.959 159.66C12.4826 160.558 0.348457 161.332 0.00576019 163.198C-0.365501 165.248 12.8602 162.963 13.1299 164.426C13.2949 165.308 3.22014 166.448 3.55332 167.599C4.03881 169.246 14.4499 168.031 22.3193 166.013C23.9059 166.755 15.3638 173.682 16.8266 174.704C18.3212 175.428 27.114 165.6 27.114 165.6C32.3306 165.6 97.5579 108.274 105.627 89.6097C124.793 60.9975 96.1934 29.5103 82.7488 57.1167Z" fill="#EEE1D9"/>
<path d="M360.828 167.454C341.513 168.58 323.54 169.726 306.024 167.936L306.046 166.483L363.252 165.029L360.828 167.454Z" fill="#0D3C88"/>
<path d="M353.359 156.046C350.637 156.087 347.965 156.167 345.293 156.408C342.644 156.63 340.015 157.054 337.43 157.677C334.854 158.301 332.355 159.209 329.98 160.384C329.389 160.679 328.793 160.99 328.228 161.336C327.683 161.704 327.164 162.11 326.676 162.551C325.664 163.433 324.687 164.376 323.646 165.248C324.528 164.22 325.363 163.154 326.292 162.158C326.753 161.636 327.255 161.152 327.793 160.711C328.349 160.292 328.904 159.895 329.485 159.517C331.83 158.052 334.392 156.964 337.075 156.294C339.744 155.614 342.485 155.258 345.239 155.234C347.968 155.189 350.693 155.462 353.359 156.046Z" fill="#0D3C88"/>
<path fill-rule="evenodd" clip-rule="evenodd" d="M338.385 121.303C331.382 134.745 324.686 146.78 320.073 149.328C320.073 149.011 147.082 119.088 147.082 119.088C118.124 116.426 97.7172 123.896 97.6411 139.857C105.139 159.165 112.961 174.263 147.323 174.637L315.211 167.952C315.183 167.974 315.16 167.996 315.132 168.015C320.602 169.462 326.873 175.697 330.388 176.732C333.904 177.766 343.989 141.773 344.639 122.839C345.416 119.897 340.574 117.952 338.385 121.303Z" fill="#EEE1D9"/>
<path d="M333.659 129.338C332.996 131.975 332.39 134.589 331.927 137.223C331.461 139.843 331.195 142.495 331.133 145.156C331.073 147.805 331.305 150.452 331.825 153.051C331.958 153.685 332.108 154.355 332.282 154.986C332.498 155.607 332.757 156.213 333.056 156.798C333.647 158.004 334.307 159.194 334.881 160.425C334.116 159.305 333.294 158.223 332.577 157.068C332.193 156.487 331.855 155.877 331.568 155.243C331.308 154.609 331.067 153.974 330.854 153.301C330.039 150.657 329.646 147.9 329.69 145.134C329.723 142.382 330.086 139.644 330.772 136.979C331.433 134.328 332.402 131.763 333.659 129.338Z" fill="#0D3C88"/>
<path d="M346.275 123.804C339.958 153.254 335.423 171.591 331.647 177.293L330.248 176.894L344.822 121.364L346.275 123.804Z" fill="#0D3C88"/>
<path d="M80.7816 181.352C64.0892 181.352 50.5574 167.82 50.5574 151.127C50.5574 134.435 64.0892 120.903 80.7816 120.903C97.474 120.903 111.006 134.435 111.006 151.127C111.006 167.82 97.474 181.352 80.7816 181.352Z" fill="white"/>
<path d="M62.5114 145.308C64.3244 139.607 67.535 134.45 71.8508 130.307C76.1666 126.164 81.4503 123.167 87.2207 121.589C80.4985 121.552 73.9405 123.664 68.5028 127.616C63.0651 131.568 59.0322 137.154 56.9922 143.56C54.9522 149.965 55.0117 156.854 57.1621 163.223C59.3125 169.592 63.4414 175.108 68.9465 178.965C65.15 174.338 62.5721 168.834 61.4481 162.955C60.3241 157.076 60.6896 151.009 62.5114 145.308Z" fill="#1164EA"/>
<path d="M99.8682 157.21C101.685 151.512 102.048 145.45 100.925 139.576C99.8017 133.701 97.2273 128.201 93.4363 123.575C98.9347 127.435 103.057 132.95 105.203 139.316C107.349 145.683 107.406 152.568 105.367 158.969C103.327 165.37 99.2969 170.953 93.8635 174.904C88.4301 178.855 81.8771 180.968 75.1589 180.936C80.929 179.355 86.2122 176.356 90.5277 172.212C94.8432 168.068 98.0541 162.911 99.8682 157.21Z" fill="#1164EA"/>
<path d="M89.9573 122.328C89.9573 122.328 68.4497 146.101 71.6038 179.927C93.7429 154.161 89.9573 122.328 89.9573 122.328Z" fill="#1164EA"/>
<path fill-rule="evenodd" clip-rule="evenodd" d="M112.49 11.3441C110.951 13.8826 100.172 9.1229 102.019 20.2956C102.158 21.1364 103.155 23.8368 99.0487 23.7479C94.9427 23.6591 97.6716 28.9963 100.391 26.956C103.11 24.9157 107.953 35.6504 112.036 41.8412C110.412 48.7904 87.8348 54.7401 80.9967 41.8412C87.0733 30.4179 90.1258 19.8545 90.3321 12.5943C94.8792 -9.25598 123.285 2.03726 112.49 11.3441Z" fill="#A1551F"/>
<path d="M218.669 18.4358C214.043 18.4358 210.295 20.1493 210.295 22.2436V52.4646C210.292 52.5259 210.292 52.5874 210.295 52.6487C210.295 54.7588 214.043 56.2883 218.669 56.2883C223.295 56.2883 227.043 54.578 227.043 52.4646V22.2594C227.043 20.1493 223.295 18.4358 218.669 18.4358Z" fill="white" stroke="#EEE1D9" stroke-width="0.317315" stroke-miterlimit="10"/>
<path d="M218.669 26.0831C214.044 26.0831 210.295 24.3712 210.295 22.2594C210.295 20.1477 214.044 18.4358 218.669 18.4358C223.294 18.4358 227.043 20.1477 227.043 22.2594C227.043 24.3712 223.294 26.0831 218.669 26.0831Z" fill="white" stroke="#EEE1D9" stroke-width="0.317315" stroke-miterlimit="10"/>
<path d="M218.669 56.3043C214.044 56.3043 210.295 54.5924 210.295 52.4806C210.295 50.3689 214.044 48.657 218.669 48.657C223.294 48.657 227.043 50.3689 227.043 52.4806C227.043 54.5924 223.294 56.3043 218.669 56.3043Z" fill="#1164EA"/>
<path d="M227.043 52.6648H210.295V33.3657H227.043V52.6648Z" fill="#1164EA"/>
<path d="M218.669 37.3734C214.044 37.3734 210.295 35.6615 210.295 33.5497C210.295 31.438 214.044 29.7261 218.669 29.7261C223.294 29.7261 227.043 31.438 227.043 33.5497C227.043 35.6615 223.294 37.3734 218.669 37.3734Z" fill="#0D3C88"/>
<path fill-rule="evenodd" clip-rule="evenodd" d="M221.637 34.4129L220.282 34.3812L206.942 9.21494L208.294 8.51685L221.637 34.4129Z" fill="#A1551F"/>
<path fill-rule="evenodd" clip-rule="evenodd" d="M227.163 15.2786C225.445 15.2791 223.797 15.9536 222.571 17.157C221.346 18.3604 220.642 19.9966 220.61 21.7137H227.042V28.3773H227.163C228.876 28.3396 230.506 27.6325 231.705 26.4075C232.903 25.1825 233.574 23.5369 233.574 21.8232C233.574 20.1095 232.903 18.4639 231.705 17.2389C230.506 16.0138 228.876 15.3067 227.163 15.269V15.2786Z" fill="#F7931E"/>
<path fill-rule="evenodd" clip-rule="evenodd" d="M229.736 16.9384L228.515 19.0517L227.296 21.165L226.075 19.0517L224.856 16.9384C226.423 16.3164 228.169 16.3164 229.736 16.9384Z" fill="#FBB03B"/>
<path fill-rule="evenodd" clip-rule="evenodd" d="M233.082 21.1363L230.645 21.2728L228.208 21.406L229.312 19.2261L230.417 17.0493C231.793 18.0225 232.746 19.4843 233.082 21.1363Z" fill="#FBB03B"/>
<path fill-rule="evenodd" clip-rule="evenodd" d="M223.874 17.0938L225.2 19.1436L226.523 21.1935L224.086 21.314L221.649 21.4378C221.81 19.759 222.605 18.205 223.874 17.0938Z" fill="#FBB03B"/>
<path fill-rule="evenodd" clip-rule="evenodd" d="M230.95 26.2862L229.656 24.2205L228.358 22.1516L230.798 22.0627L233.238 21.9739C233.053 23.6503 232.235 25.1927 230.95 26.2862Z" fill="#FBB03B"/>
<path fill-rule="evenodd" clip-rule="evenodd" d="M227.041 23.5796L227.504 22.707L228.799 24.7759L230.094 26.8448C229.136 27.2718 228.088 27.458 227.041 27.3874" fill="#FBB03B"/>
<path fill-rule="evenodd" clip-rule="evenodd" d="M225.711 31.3412C225.711 31.3412 222.954 32.5914 223.036 34.197C223.055 34.5779 223.143 34.9521 223.296 35.3013C222.779 35.8937 222.496 36.6549 222.5 37.4416C222.505 38.2283 222.797 38.9861 223.322 39.5723C222.787 40.1646 222.492 40.934 222.492 41.7317C222.492 42.5293 222.787 43.2987 223.322 43.891C223.123 44.3365 223.021 44.8186 223.02 45.3062C223.02 47.061 224.359 48.0573 225.876 48.5111V48.5492L225.902 48.5333L225.946 48.5492C226.31 48.6575 226.686 48.7214 227.066 48.7396C227.473 48.8166 227.894 48.7349 228.243 48.5111C228.539 48.3522 228.775 48.1002 228.913 47.794C229.582 46.7214 230.122 44.5542 230.22 40.3053C230.506 29.0819 225.711 31.3412 225.711 31.3412Z" fill="#EEE1D9"/>
</g>
<defs>
<clipPath id="clip0">
<rect width="364.826" height="181.361" fill="white" transform="matrix(-1 0 0 1 364.826 0)"/>
</clipPath>
</defs>
</svg>
