<svg viewBox="0 0 359 113" fill="none" xmlns="http://www.w3.org/2000/svg"><g clipPath="url(#squiggleClip0)" fill="#EEE1D9"><path d="M212.817 107.237c.315 0 .63-.083.945-.083 1.89.083 3.623-.251 5.356-.585.157 0 .315-.083.472-.083.63-.084 1.26.25 2.048 0 .63-.167 1.418-.251 2.048-.334.472-.084.788 0 1.26 0 1.103.083 1.89 0 3.151-.251.157 0 .315-.084.472-.084 2.206 0 4.411-.334 6.616-.584.315 0 .63-.084.788-.251.63-.417 1.418-.668 2.52-.501.158 0 .315-.083.63-.167.315-.083.63-.167.946-.167.472 0 1.102.167 1.417.084a5.988 5.988 0 001.103-.418c.788-.251 1.418.084 2.205 0 .945-.501 2.048-.585 3.466-.752 1.575-.167 2.993-.501 4.411-.751.315-.084.787-.167 1.102-.251.63-.083 1.26-.167 1.891-.334.157-.083.63-.167.787-.167.945 0 1.733-.251 2.521-.418 2.205-.501 4.41-.918 6.773-1.169.158 0 .473-.083.63-.167.788-.167 1.418-.334 2.206-.418.63-.083 1.26-.25 2.047-.417 1.103-.167 2.206-.501 3.151-.835.788-.25 1.418-.418 2.363-.501.945-.167 1.89-.501 2.835-.752.788-.25 1.576-.418 2.521-.501.945-.084 1.732-.418 2.52-.752.315-.083.473-.167.788-.25 1.102-.084 2.205-.25 2.993-.752 0-.084.157-.084.315-.167.315-.084.787-.167 1.102-.25.315-.084.788 0 .946-.251.157-.334.63-.25 1.102-.25 1.103-.168 1.891-.502 2.836-.836a21.254 21.254 0 013.465-1.002c.158 0 .315-.084.473-.084 1.418-.584 3.15-1.002 4.568-1.503 1.418-.501 2.678-1.002 3.938-1.503.158-.084.315-.167.63-.25 1.26-.168 2.048-.752 3.308-1.003.158 0 .473-.084.63-.25.473-.502 1.418-.752 2.363-1.003.158 0 .158-.083.315-.083 2.363-.919 4.726-1.838 6.931-2.924.631-.25.946-.668 1.733-.835.63-.083.945-.584 1.733-.835.315-.083.315-.25.63-.334l1.103-.585s.157 0 .157-.083c1.103-.835 3.151-1.336 3.781-2.422 0-.084.315-.167.472-.25 1.103-.418 2.206-.836 2.521-1.588 0-.083.157-.083.315-.166 1.26-.502 2.048-1.337 2.993-2.005.315-.25.945-.501 1.418-.752.472-.334.945-.668 1.102-1.085.315-.501.788-.835 1.418-1.253.63-.334 1.26-.668 1.418-1.17.63-.25.63-.584.472-.835 0-.668.473-1.169 1.418-1.503.788-.25 1.26-.585.945-1.17 0-.083 0-.25.158-.333.787-.585 1.102-1.253 1.575-1.838.158-.334.315-.584.158-.918-.158-.167 0-.418.157-.501.315-.251.315-.418.158-.669v-.25c.945-.501.472-1.086.63-1.67 0-.167-.158-.418 0-.585.63-.752.315-1.503.472-2.172v-.5c0-.335-.315-.669-.157-1.086 0-.168 0-.335-.158-.502-.157-.584-.157-1.169-.472-1.67-.473-.584-.473-1.253-.788-1.837-.158-.167 0-.418-.158-.585-.315-.919-.63-1.837-1.26-2.672-.315-.502-.472-1.086-.63-1.587-.157-.669-.787-1.337-1.418-1.921-.945-.752-1.732-1.587-2.52-2.422-.788-.919-1.733-1.754-2.363-2.673-.157-.083-.315-.25-.472-.25-.315-.084-.473-.251-.473-.502 0-.083-.315-.167-.315-.25-.945-.752-2.205-1.336-3.466-2.005-.63-.334-.945-.668-1.417-1.085-.945-.752-1.733-1.504-2.836-2.172-.945-.5-1.733-1.085-2.52-1.587l-.473-.25c-.63-.25-1.417-.334-1.89-.668-.473-.334-1.418-.418-1.575-.835-1.261-.418-2.363-1.003-3.466-1.42-.315-.084-.63-.25-.945-.418-.945-.584-2.048-.918-3.308-1.253-.63-.167-.945-.417-1.575-.668-.63-.334-1.103-.668-2.048-.751-.158 0-.473-.084-.473-.167-.157-.418-.787-.502-1.417-.669-.631-.167-1.418-.25-1.733-.668 0-.083-.315-.167-.473-.167-.787.167-1.102-.25-1.418-.417a10.47 10.47 0 00-2.677-.752c-.473-.084-.946-.25-1.418-.418a29.7 29.7 0 00-5.198-1.67c-.788-.167-1.733-.334-2.363-.668-.473-.25-1.103-.334-1.733-.418-1.103-.25-2.206-.5-2.993-.835-.315-.167-.788-.334-1.26-.334-.315 0-.63-.167-.945-.25a3.824 3.824 0 00-1.733-.418c-.63 0-1.103-.084-1.733-.25-.473-.168-1.26-.168-1.733-.251-.472-.084-.787-.334-1.26-.501-1.733-.334-3.623-.752-5.356-1.086-.787-.167-1.575-.167-2.363-.25l-1.102-.585c-.315.083-.631.083-1.103.167a12.343 12.343 0 00-3.308-.668c-.158 0-.473-.084-.63-.084-.945-.167-1.891-.25-2.993-.501 0 0-.315-.084-.315-.25-.315-.335-.788-.502-1.576-.502-.472 0-.787-.083-1.26-.167-.787-.25-1.575-.417-2.52-.083a2.46 2.46 0 01-1.103 0 8.974 8.974 0 01-1.733-.418c-.472-.167-.945-.25-1.575-.25-.63-.084-1.26-.25-1.89-.418-.63-.167-1.418-.334-2.048-.334-1.575 0-3.15-.25-4.726-.418-.63-.083-1.26 0-1.575-.334-.158-.083-.315-.083-.473-.083-.787.083-1.575-.167-2.205-.167-1.26 0-2.363-.334-3.465-.167-.158-.752-.316-.835-1.418-.501-1.103 0-1.89-.084-2.836 0-1.26.083-2.363-.167-3.623-.25l-2.363-.252c-1.102-.167-2.047-.25-3.15-.584-.945-.25-2.048-.501-3.308-.418-.315 0-.788.084-1.26-.083-.158-.084-.63-.084-.788-.084-1.103.167-2.048-.083-2.993-.417-.315.083-.473.167-.788.334-.315-.167-.63-.334-1.102-.418-.158-.083-.63-.083-.63-.083-.63.417-1.261.167-1.733-.084 0 0-.158-.083-.315-.083-1.89 0-3.938-.585-5.829-.084-.315.084-.63 0-.945 0-.472 0-.787-.083-1.26-.083-.945 0-.945 0-1.575-.585-.315.083-.63.083-.945.167 0-.25-.158-.334-.63-.334-.473 0-.788.083-.946.334-.315-.084-.315-.334-.787-.334-1.418 0-2.836 0-4.253-.167-.473-.084-1.103.083-1.576.083-.787 0-1.575.084-2.363 0-.787 0-1.417.167-2.047.167-.788.084-1.576.084-2.363-.167-.63-.25-1.576-.25-2.363-.417-.473.083-.788.25-1.26.334h-.315c-.788-.167-1.418-.25-2.206-.167-.63.083-1.26 0-1.89-.167-1.103-.167-2.363-.084-3.151-.585-.157-.083-.787-.167-1.26-.083-1.26.25-2.363.25-3.623-.084-1.103-.334-2.363-.167-3.308.084-1.418.334-2.835.083-4.253-.084-.315 0-.63-.083-.945 0-1.26.25-2.521.25-3.781 0-.63-.083-1.102-.334-1.733 0a42.08 42.08 0 01-2.835-.334c-1.418.25-3.151.668-5.041.334-.787.25-1.575.25-2.363.084-.157 0-.472 0-.472.083-.63.334-1.103.167-1.733.084-.473-.084-1.103-.167-1.733.083-.787.25-1.575.167-2.363 0-1.26-.25-2.52-.25-3.938-.083-.63.083-1.418.167-2.048.334-.315.083-.472.25-.787.417-.315.084-.315-.167-.473-.167-.63-.083-1.103-.083-1.733-.083-.63-.084-1.102-.167-1.732 0-.158.083-.631 0-.788 0-1.26 0-2.52-.084-3.938 0-1.103.083-2.206.083-3.308-.084-1.103-.25-1.103-.167-2.993.084l.472-.501c-.63-.167-1.102-.167-1.732.083.157.167.315.25.63.501l-.945.25c-.631.084-1.261 0-1.733.251-.158.084-.315 0-.473 0-1.103-.083-2.048-.083-3.15.251-.315.083-.945 0-1.261-.084-1.417-.417-2.835-.334-4.253 0-.63.167-1.26.251-1.89.167-.63-.083-1.26 0-1.89.084-1.26.167-2.52.25-3.78.334 0 .167.157.418.157.585-.788.25-.473-.418-1.103-.334-.945-.334-.945-.334-2.048-.25 0 .083-.157.25-.157.333-1.26 0-2.52-.083-3.781.084-1.103.167-2.363.083-3.466.167-1.575.167-3.15.25-4.725.25-.788 0-1.576.167-2.52.25-.946.836-2.679.418-4.096.836-.316-.084-.473-.25-.788-.334-.63-.167-1.103-.167-1.418.25-.157.251-.472.335-.945.251-1.575-.25-2.205-.167-3.78.25-.473.168-1.103.251-1.576.418-.472-.083-.945-.25-1.575-.334-.473-.083-1.103-.083-1.733-.083 0 .083-.157.25-.315.417-.315.084-.63.084-.945.167-.157.167-.157.334-.473.501-.157.084-.315.25-.472.25-.788 0-1.418.251-2.048.335-.945.083-1.89.083-2.835.167h-.158c-.945-.418-1.733-.084-2.52.084-1.103.167-2.206.334-3.15.751l-.316.084c-.63-.25-1.103.083-1.575.167h-.158c-.63 0-.945-.418-1.733-.334-.63.25-.472.584-.63 1.002-.315 0-.787.083-1.102.083-.788-.083-1.418.084-1.89.418-.316.334-.788.501-1.576.585-.157 0-.315 0-.315.083-1.102.25-2.205.418-3.308.167-.315.25-.787.418-.945.585-.157.417-.63.5-1.26.668-1.418.334-2.993.668-4.253 1.17-1.418.584-2.993 1.001-4.726 1.419-.315.084-.473.167-.63.334-.473.418-1.103.752-2.048.835-.473.084-.788.167-.945.418-.158.25-.473.417-.788.501-.157.083-.473.167-.473.25-.472.92-2.205 1.42-2.677 2.339-.158.167-.473.334-.788.501-.945.585-1.418 1.336-2.363 1.921-.315.167-.315.501-.473.752-.157.334-.314.668-.63.918-.472.502-.63 1.003-.63 1.587 0 .25-.157.418-.315.585-.315.25-.63.585-.787.835 0 .084-.158.084-.158.167 0 .334.473.668 0 1.002-.315.25-.157.585-.315.919 0 .084.158.167.158.25.157.335.315.669 0 1.003-.158.25-.158.668-.158.919v1.586c0 .25.158.501.158.752.157 1.086.63 2.172 1.102 3.257.158.418.158.919.473 1.337.315.334.63.584.945 1.085-.315.919.315 1.838 1.26 2.756.63.585.945 1.17 1.26 1.754.158.25.316.501.473.668.473.418.945.836 1.103 1.337.157.25.315.5.63.751.63.585 1.418 1.17 1.733 1.838.315.417.945.668 1.102 1.085.158.502 1.103.585 1.103 1.086 1.103.167 1.103.835 1.733 1.253.63.417 1.26.919 1.732 1.336.473.418 1.26.752 1.576 1.253 0 0 0 .084.157.084 1.89.751 2.993 1.837 4.569 2.672.315.167.945.25 1.417.418 0 .417.473.835 1.26 1.169.473.167.946.417 1.26.668 1.103.501 1.89 1.086 3.151 1.503.158.084.473.168.63.251 1.26.752 2.836 1.336 4.253 1.92 2.993 1.087 5.671 2.423 8.507 3.509.315.167.63.25 1.102.334.63.083 1.103.334 1.576.584.63.502 1.733.836 2.835 1.003 1.26.25 2.206.668 3.15 1.169.63.25 1.103.584 1.89.668.316 0 .474.25.631.334.473.167.945.334 1.418.418a6.381 6.381 0 012.52.751c.158.084.315.084.473.084.472-.084.63.083.787.25.473.418 1.103.752 2.206.752.472 0 1.102.167 1.418.334.472.25.945.334 1.575.418.787.167 1.575.334 1.89.668.63.417 1.26.585 2.048.752.787.083 1.26.334 1.89.5.945.335 1.733.752 2.836 1.003 1.26.417 2.678.668 3.938.918.315.084.787.084.945.168 1.26.417 2.835.584 3.938 1.085.473.167.788.334 1.418.418.472.083.787.25 1.26.334.315.084.63.167.788.167.472-.084.787.084 1.102.167.788.25 1.576.501 2.521.585.787.083 1.102.334 1.26.751.63.084 1.103.084 1.733.167.945 0 1.89.084 2.363.669 0 .083.472.166.63.166h1.102c.473.418 1.103.669 2.206.669.787 0 1.417.25 2.205.417.63.167 1.26.25 1.733.501.63.25 1.26.25 1.89.335.473.083 1.103.083 1.575.25l.945.25c.473.084 1.103.168 1.576.251.472.084.787.25 1.102.418.473.167.946.334 1.418.417.473.084.945 0 1.418.084 1.89.334 3.938.668 5.828 1.002.158.167.158.334.315.585.63.083 1.418.167 2.048.25.788.084 1.575.167 1.89.585.473 0 .946-.084 1.418-.084.473 0 .945.084 1.418.25.315.084.472.251.788.419l-.316.166c-.157-.166-.472-.25-.945 0h.945c.473.502.788.502 2.048.335-.315-.084-.63-.168-.787-.251.157-.084.157-.167.157-.167 1.418-.167 2.678 0 3.938.334.946.25 1.891.334 2.993.418.473 0 .945 0 1.418.167.158.083.473.083.63.083.63-.083 1.103 0 1.575.167.946.25 1.891.25 2.836.25.63 0 1.26 0 1.733.168 2.047.752 2.52.5 4.725.5.158.168.315.419.631.586.157 0 .315.083.315 0 .63-.334 1.417-.251 2.205-.167.157 0 .315 0 .472.083 1.576.334 3.309.334 4.884.501.315 0 .63.084.945.167v.501c.472.167.945.167 1.26-.083.473-.418 1.103-.418 1.89-.25.631.083 1.103.166 1.733.166 2.521.334 5.199.167 7.876.501-.157.167-.157.25-.315.418.315.167.946 0 1.103.334.158.167.788.334 1.418.084.315-.168.787-.084 1.26-.168v-.25c.158-.167.473-.084.63 0l.63.334c.315-.167.788-.25.945-.418.63 0 1.418.084 2.048 0 .788-.083 1.418 0 2.048.251 0 .167 0 .334.158.501.157 0 .472 0 .472-.083.158-.167.158-.335.315-.418.315-.084.63 0 1.103 0 .157 0 .315.084.472.167-.157.084-.315.084-.472.167-.158 0-.158.084-.315.084 0 .083 0 .083.157.167.63.083 1.103.167 1.733.25h.315c.945-.584 1.733-.083 2.363.167.63.167 1.26.334 2.048.167a4.04 4.04 0 011.418 0c.315.084.787 0 1.102.084.315.083.788.083.945.25.315.167.631.334 1.261.418.945.083 1.575.167 2.678 0 0-.25-.158-.334-.473-.25-.473.083-.788.083-1.26-.168.315-.083.472-.167.787-.25.158.167.315.25.788.083-.473 0-.63 0-.945-.083l-.473-.501c.788-.084 1.576-.084 2.206 0 .472.5.472.5 1.732 1.002.788-.084 1.418-.25 1.891-.585.157.084 1.417.501 1.575.501.788.084 1.418.25 2.205.334.63 0 1.261-.083 1.733-.083.473-.084 1.103-.167 1.575-.167.158 0 .473-.084.473 0 .788.334 1.733.25 2.678.334.315 0 .63.084.787.25.316.084.316.251 0 .418-.472.084-.315.25-.157.334.157.167.473.167.788.084.157-.084.472-.167.63-.167h.787c.158.167.315.334.63.501.158-.167.158-.251.315-.334.316-.25.631-.334.946-.167.63.334 1.26.501 2.047.501.158 0 .158.167.316.25.157.167.472.167.63.084.157-.334.945-.251 1.26-.585.157-.25 1.102-.167 1.418-.5.157-.084.63-.084.945-.084-.788.25-.788.25-1.418.918.473.251 1.103.167 1.733.251.157 0 .472.083.63.083 0 0 0 .084.157.167-.63.251-1.26.585-2.047.669-.631.083-.473.501-1.103.584-.473 0-1.103 0-1.575.084-.315 0-.473.167-.788.25l-.945-.751c-.158.083-.315.25-.63.334-1.103-.084-2.206.083-3.466-.084-1.103-.083-2.205-.083-3.465-.083-.158-.167-.158-.418-.315-.585-.946-.167-1.891-.167-2.363.501-.63-.083-1.103.167-1.733-.083-.473-.084-1.103-.084-1.575-.084-.158-.167.315-.334-.315-.585.157.334.315.418.315.585-.788 0-1.733 0-2.521-.083-.63 0-1.102-.084-1.733-.084.158-.167.158-.167.158-.251-.788.084-.788-.334-1.26-.584-.63 0-1.26.417-2.048.25-.63-.083-1.26-.083-1.89-.083-.158-.084-.158-.167-.315-.251-.315-.083-.63-.083-.788-.083 0 0-.158.083-.158.167.158.25.473.167.788.167.158 0 .315 0 .473-.084-.158.167-.158.334-.315.585-.946.083-1.576-.418-2.521-.334-.157 0-.472.167-.787.25-.473.084-.946 0-1.418.084-.473.083-.788-.084-1.26-.084-.945-.083-2.048-.167-2.993-.167-1.103 0-2.206 0-3.308-.083-.63 0-1.261-.084-1.891-.167-1.26-.084-2.52-.167-3.78-.334-.158 0-.315-.084-.315 0-1.261.334-2.363 0-3.623 0h-1.103c-.63 0-1.103 0-1.575-.167-1.103-.418-2.206-.334-3.308-.167a6.062 6.062 0 01-1.733 0c-1.26-.167-2.678-.25-3.938-.334-.158 0-.315.083-.473.083.788.418 1.733.501 2.836.501.787 0 1.575 0 2.52.084-.63.334-1.418.417-2.048.417-1.418-.083-2.835-.167-4.095-.584-.158-.084-.316-.084-.473-.167-1.103.584-2.363-.084-3.938 0 .63-.25.945-.334 1.26-.501 0-.25-.473-.167-.63-.25-.315-.085-.63-.085-.945-.085-.788-.083-1.733-.083-2.521-.166-.472 0-.63.166-.787.334-.63.083-1.103.167-1.733.167-.473 0-.63-.167-.788-.502h1.576c0-.25-.473-.25-.788-.25-.788 0-1.733 0-2.363-.25-.472.334-.945.5-1.103.835l-1.417-.251c.157-.084.157-.25.315-.25a17.71 17.71 0 011.26-.251c-.945-.501-1.89-.418-2.836-.501.316.167.631.334 1.103.5-.472.084-.787.168-1.103.084-1.102-.25-2.52-.167-3.623-.5-.315-.084-.787-.084-1.102-.084-1.26.083-2.521-.084-3.938-.167 0-.418.315-.752-.315-1.17-.473 0-.946-.083-1.576-.083l-.472.501c-1.26.334-2.363-.083-3.466-.167 0-.668-.472-1.17-1.733-1.17-.787 0-1.26-.333-2.047-.333-.631 0-1.261-.167-1.891-.334-.63-.167-1.26-.084-1.733-.418-1.417.25-2.52-.334-3.78-.25 0 0-.158 0-.315.083.157.084.315.167.472.167 1.891.418 3.939.668 5.986.835.946.084 1.733.25 2.521.501.315.084.315.084.472.585-.472.084-1.102.084-1.575-.084-.472-.25-1.26-.167-1.733-.5-.157-.168-.63.166-.945 0-.315-.084-.63-.251-.945-.251-1.26-.084-2.52-.25-3.623-.668-.315-.167-.788-.25-1.26-.167-.788.167-1.26 0-1.891-.167-1.102-.25-2.362-.418-3.15-.92-.158-.083-.473-.166-.63-.083-.788.084-1.418-.25-2.048-.417-.315.083-.788.25-1.103.25-.315 0-.787-.167-1.102-.25-.946-.25-1.891-.501-2.836-.585-.787-.083-1.418-.417-2.205-.668-.473-.167-.788-.25-1.418-.167-.157.084-.472 0-.63 0-1.26-.418-2.835-.418-4.096-1.002-.472-.25-.945-.418-1.575-.334h-.157c-1.576-.585-3.466-.752-5.356-.919-.63-.084-1.26-.167-1.733-.25a11.27 11.27 0 01-2.52-.752c-.473-.25-1.103-.501-1.733-.752-.158.167-.158.25-.315.334h-.315c-.158-.334-.473-.668-1.26-.584h-.158c-1.103-.669-2.52-.752-3.938-1.003-.315-.083-.473-.167-.788-.25-.157-.084-.472-.167-.63-.084-.787.167-1.26-.083-1.89-.167-.945-.167-1.733-.417-2.678-.668-.945-.167-1.418-.501-1.575-1.086-.788.084-1.26-.25-2.048-.25-.945.083-1.89-.25-2.048-.835h-.158c-.315 0-.787.083-.787.083-.63-.334-1.576-.334-2.206-.752 0-.083.158-.083.158-.167h-.158v.167c-.315-.083-.63-.167-.787-.25-.473-.418-1.26-.585-2.206-.585-.315 0-.787-.167-1.102-.25-.63-.167-1.103-.501-1.733-.668-.63-.167-.945-.669-1.733-.585-.787 0-1.103-.334-1.733-.501-.63-.167-1.26-.501-1.89-.752-.63-.167-1.102-.5-1.89-.5-.315 0-.63-.084-.788-.168-.787-.418-1.89-.501-2.678-.919-.787-.334-1.732-.668-2.678-1.002a1.768 1.768 0 00-.63-.167c-1.102-.334-2.048-.752-2.678-1.336-.315-.25-.63-.334-1.102-.418-.788-.083-1.733-.167-2.206-.584-1.102-.167-1.89-.502-2.52-1.003-1.103-.167-1.733-.668-2.678-.918-.788-.25-1.26-.752-1.89-1.002-.788-.251-1.576-.502-2.206-.836-1.102-.584-2.363-1.252-3.623-1.67-.63-.167-1.102-.501-1.575-.835-.945-.501-1.89-.835-2.678-1.42s-2.048-1.002-2.993-1.503c-.473-.251-.945-.502-1.26-.752-.473-.334-.945-.668-1.575-.919-.315-.083-.473-.417-.788-.584-1.103-.418-1.575-1.086-2.363-1.67-.787-.585-1.733-1.087-2.52-1.671-.158-.167-.473-.334-.63-.501a3.006 3.006 0 00-1.418-.835c-.158-.084-.473-.251-.473-.334-.157-.334-.315-.585-.787-.836-.315-.167-.315-.5-.63-.751-.63-.669-1.418-1.253-2.048-1.921-.788-.835-1.89-1.587-2.363-2.506-.315-.668-1.103-1.336-1.89-1.92-.63-.585-1.103-1.17-1.576-1.838-.315-.418-.472-.919-1.102-1.336-.788-.585-.63-1.337-1.103-2.005V44.6c.63-.585.157-1.086-.315-1.67-.158-.168 0-.418-.158-.502-.315-.25.315-.25.315-.417-1.102-.752-.945-.752-1.26-1.838a14.221 14.221 0 01-.472-3.675c0-.167 0-.25-.158-.417-.157-.668-.157-1.337 0-2.088.158-.835.473-1.67.945-2.506.158-.167 0-.334-.157-.417-.315-.334-.158-.585-.158-.919.315-1.086.63-2.088 1.575-3.007 0-.584.473-1.002.946-1.503.157-.167.315-.418.472-.501.473-.25.63-.418.63-.752 0-.167.158-.25.315-.417.946-.919 2.206-1.838 3.308-2.756.158-.084.315-.251.315-.334.158-.251.315-.335.63-.418.158 0 .316-.084.316-.084.157-.584 1.26-.668 1.89-1.002.315-.167.63-.334.787-.5.473-.502.946-1.003 1.733-1.337 1.103-.418 2.206-.919 3.15-1.504.788-.5 1.891-.835 2.994-1.252.315-.084.63-.167.787-.25.788-.585 2.048-.836 3.15-1.254.788-.25 1.419-.5 1.891-.918 1.26.167 2.048-.084 2.836-.585.157-.167.63-.25.945-.334a28.06 28.06 0 012.52-.668c.158-.084.315-.084.473-.084.945-.083 1.89-.25 2.678-.5.787-.251 1.733-.502 2.678-.669 1.417-.25 2.678-.501 4.095-.752a30.71 30.71 0 002.678-.584c.63-.084 1.103-.334 1.733-.167.158 0 .315 0 .473-.084.472-.167 1.102-.25 1.732-.334.473-.083.946-.25 1.418-.334.158 0 .315-.083.473-.167.945-.167 1.89-.167 2.835-.501.788-.25 1.89-.418 2.993-.501 1.103-.084 2.048-.25 2.993-.334.315 0 .63-.084.788-.167.787-.25 1.575-.334 2.363-.334h.472c1.26-.167 2.363-.334 3.623-.501a14.53 14.53 0 012.678-.251c.473 0 1.103-.084 1.575-.084.946-.083 1.418-.584 2.52-.417.788.083 1.734 0 2.521-.084 1.733-.334 3.623-.25 5.514-.668.315-.083.63-.083 1.102-.083.788 0 1.576.083 2.363-.084.473-.083.945.084 1.418.084.472 0 1.103 0 1.575-.084.315 0 .63-.167.788-.334.157-.25.472-.25.945-.25 1.575.25 3.15-.084 4.726-.084 1.26 0 2.52-.25 3.938-.084.315 0 .63-.167.945-.167.63-.083 1.418-.083 2.205-.083.473 0 .788 0 1.261-.084.157-.083.472-.167.63-.167.787-.083 1.417.334 2.047.084.788-.25 1.418-.084 2.048 0h.315c.945-.418 2.048-.585 3.308-.501.946.083 2.048-.167 2.993 0 .158 0 .473 0 .63-.084 1.418-.5 2.836-.25 4.411-.167.315 0 .63.084.945 0 2.048-.334 4.096-.334 6.144-.334.63 0 1.26 0 1.733.084.63.083 1.26.083 1.732-.084.315-.083.63-.083.788-.167 1.103-.25 2.048-.25 3.15-.083.631.083 1.418.167 2.048.083.945-.083 1.733 0 2.678-.083.63 0 1.26-.084 2.048-.084h.945c1.418.084 2.993.167 4.411-.083.472-.084 1.103 0 1.575.083.788.084 1.418.084 2.206.084 1.417 0 2.835-.084 4.41-.084.945 0 2.048.084 2.993.167.473 0 1.103.084 1.418 0 .63-.167 1.26-.083 1.89 0 .788.084 1.575.25 2.363-.083 1.103 0 2.363.083 3.466.083.157 0 .315.084.472.084 1.26-.334 2.363 0 3.466.167.472.083.945.167 1.26.083.945-.167 1.733.167 2.678-.083.157-.084.63 0 .945.083h2.52c.631.084 1.261.084 2.048.084.945 0 1.891.083 2.836-.167.157 0 .315-.084.315 0 1.575.083 2.993.167 4.568.25l2.835.25c.631.084 1.261 0 1.891.168.63.083 1.26 0 1.89.083 0 .167.158.25.158.334 0 .334.315.502.945.502.63.083 1.102.083 1.733.167.157-.167.315-.251.472-.418.473.501.473.501 1.418.418h1.103c-.316-.251-.788-.084-1.103-.167-.473 0-.63-.168-.788-.418.945-.084 1.891-.084 2.836-.084.945 0 1.89-.083 2.678.084 1.575.334 3.308.417 5.04.585 1.261.167 2.521.25 3.781.083.63-.083 1.418-.25 2.048.167 0 .084.157.084.315.084 1.733-.084 3.15.25 4.726.5.472.084.787.084 1.26.084.787-.083 1.575-.083 2.205.084.315.083.63.083 1.103.167.472.083.945.083 1.26.167 1.418.417 2.993.5 4.568.334.473-.084.945 0 1.418.083 1.103.167 2.205.334 3.308.251.63-.084 1.26.083 1.89.083.63 0 1.103.168 1.576.335.63.25 1.417.25 2.205.334.473.083.788.167 1.103.25.787.167 1.575.167 2.52.167.945 0 3.466.25 4.096.501.472.167.787.25 1.417.167.158 0 .473-.083.473 0 .63.418 1.575.25 2.363.25s1.733.084 2.52.251c.63.168 1.103.251 1.891.168.787-.084 1.575.083 2.205.25 1.26.25 2.205.585 2.993 1.17.157.083.157.25.315.5.473 0 .945 0 1.26-.083.315-.084.473-.334.945-.167.315.083.473.25.788.501.63 0 1.418 0 2.205-.084.63 0 1.261 0 1.891.168.945.167 1.732.417 2.678.5 1.102.084 2.047.335 2.835.836.158.083.315.083.473.083.315-.083.63-.083.787.084.158.334.788.5 1.418.5l.473-.25.945.502c.315.083.787.083 1.26.167.157.083.157.25.315.334 0 0 0 .083.157.083.788.084 1.891-.167 2.678.501-.315.084-.472.167-.787.25.472.168.945.251 1.417.418.473-.083.158-.25.316-.417.157-.167.315-.25.63-.334.472.167.787.25 1.26.417.63.167 1.103.25 1.89.25 1.103-.083 2.205.084 2.993.502.315.167.63.167.945.25.63.084 1.103.335 1.576.585.787.501 1.89.668 3.15.668.473 0 .945.084 1.26.25.788.251 1.733.335 2.521.418.945 0 1.732.168 2.363.669.157.167.63.25 1.102.334.788.083 1.575.167 2.363.5-.473 0-.788 0-1.103.084v.167l1.418.501c.315.084.63.084.945.084.788 0 1.26.167 1.891.418-.158.083-.315.25-.473.334.158.167.473.334.63.584 2.048.084 3.781.585 5.671.919 0 .501.63.752 1.103 1.086.157.083.315.25.63.25 1.102-.083 1.733.668 2.835.501.473-.083.63-.167.788.167 0 .084.315.084.472.084.788 0 1.261.25 1.891.501.472.25.945.501 1.575.585.945.167 1.733.584 2.363 1.002.315.167.315.5.472.835 1.418.167 2.521.668 3.624 1.253.63.334 1.732.417 2.047 1.002.63.167 1.261.334 2.048.501-.157.084-.315.25-.315.334.63.501 1.418.752 2.205 1.002 2.206.669 3.151 1.337 3.939 2.339.472.083.945.25 1.417.418-.157.167-.315.25-.63.417.315.084.945.167.945.334.158.501 1.261.501 1.261.919l2.835 1.503c.158.084.315.25.473.418.472.751.945 1.42 1.732 2.088l.631-.334v.417c0 .334-.158.585.63.668.315 0 .472.251.63.418.315.501.787 1.002 1.575 1.42l.945 1.253c-.157.417 0 .668.63.918.158.084.158.25.158.334 0 .084 0 .167.157.25.945.335 1.26.92 1.576 1.42.157.418.315 1.003 1.26 1.253.157 0 .315.167.315.251.315 1.086 1.102 2.088 1.417 3.174 0 .083.158.25.158.334-.63.417 0 .752.158 1.169.315.501.472 1.002.63 1.503-1.733-.835-2.048-.751-2.363-.584.315.334.63.668.945 1.086 0 .083 0 .25-.158.417-.157.501-.472 1.086.158 1.587 0 .083 0 .167-.158.25-.157.251-.157.418.158.585.472.25.788.585.945.919.158.25 0 .584-.157.752-.473.417-.631.835-.631 1.252 0 .167 0 .501-.157.585-.788.334-.315.668-.158 1.002.315-.083.473-.083.788-.167.158.585.315 1.002-.788 1.42-.472.083-.63.334-.787.501-.158.25 0 .334.315.501-.63.167-.945.334-.945.752 0 .334-.158.668-.158.918.315 0 .788 0 .63.335-.315.584-.945 1.085-1.89 1.503.157.167.315.334.63.5-.157.251-.157.502-.63.67-.158-.084-.158-.252-.315-.419l-.473.251-.945 1.503c0 .084.158.167.158.25-.315.168-.63.252-.945.418-.473.335-.631.752-1.103 1.086-.315.334-.315.835-1.103 1.086-.157.084-.157.25-.157.334 0 .25 0 .501-.473.752-.315.083-.157.417-.472.584-.158.084-.631.084-.946.25-.472.251-.945.502-1.26.836-.472.418-.787.919-1.26 1.42-.473.083-.945.167-1.418.334-.315.167-.63.418-.787.668-.473.418-.788.919-1.733 1.253-.315.083-.473.25-.788.25-.787.084-1.102.418-1.575.752-.315.25-.473.585-.788.835-.315.25-.787.418-1.102.585-1.103.585-1.891 1.336-3.151 1.837-.315.084-.472.25-.63.334-.157.084-.157.25-.473.334-.63.251-1.417.418-1.89.669-.315.334-.787.668-1.26.918l-.473.25-1.89.502c-.157.585-.157.585-.945.919-.788.334-1.575.835-2.678.835-.315 0-.473.167-.788.25-.472.084-.315.585-.945.585-.472 0-.787.334-1.26.501-.473.167-.945.334-1.575.501-.945.25-1.733.585-2.363 1.086-.315.25-.473.418-1.103.501-.787.084-1.26.334-1.733.585a8.851 8.851 0 01-2.835.918c-1.103.251-2.205.585-3.151 1.086-.472.334-1.102.668-2.047.668-.788.501-2.206.668-3.151 1.086-1.103.585-2.52.919-3.78 1.253-.946.25-1.891.5-2.836.584-.157 0-.472.168-.63.251-1.103.668-2.52 1.086-4.096 1.42l-3.78 1.002c-.945.25-1.891.585-2.993.668a6.264 6.264 0 00-2.206.668c-.787.334-1.732.585-2.678.752-1.102.167-2.047.418-2.993.585-.63.083-1.102.25-1.575.501-1.102.501-2.363.918-3.938.835-.788-.084-1.89 0-2.363.501 0 .084-.157.084-.315.084-.945 0-1.575.417-2.363.501-.787.083-1.575.334-2.363.417-1.575.084-2.835.418-4.095.919-.945.334-1.891.501-2.993.25-.63.418-1.575.502-2.363.585-1.418.167-2.678.334-3.938.752-.473.167-.945.25-1.575.25-.316 0-.631 0-.946.167 0 .084-.157.084-.315.084-.945-.167-1.732.167-2.678.417-.315.084-.63.084-.787.084-.63-.084-1.103 0-1.575.167-.316.084-.788.084-1.261.167h-.315c-.945.501-2.363.334-3.308.585-.472.083-.945.167-1.418 0-.157-.084-.63 0-.787 0-.945.167-1.733.417-2.678.668-.63-.334-1.418-.167-2.048 0-.788.167-1.575.334-2.363.417-.157-.167-.315-.25-.472-.334-.158-.167-.158-.25-.473-.25-.157 0-.157.167-.315.334v.083a7.051 7.051 0 00-1.26.334c-.158 0-.315.084-.473.084-1.417-.084-2.835.334-4.253.334-.472 0-.945.084-1.418.167a80.15 80.15 0 01-3.623.334c-.63.084-1.26.084-1.89.167a5.635 5.635 0 01-2.363 0c-.788-.167-1.418-.167-2.048.167-.63.334-1.575.251-2.363.251-.63 0-1.26 0-1.89.083-.945.167-2.048.084-2.993.084-.157 0-.472-.084-.63-.167-.788-.251-.788-.251-1.575.167h-.158v-.167c0 .083 0 .083-.157.167-.473-.084-.788-.251-1.261-.334-.63.167-.787.668-1.575.668-.787 0-1.417.083-2.205.083s-1.733.084-2.521.084c-.63 0-1.26.083-1.732 0-.788-.167-1.733-.084-2.521 0-1.102.083-2.205.167-3.308.167a26.42 26.42 0 01-3.623-.251c-.315 0-.63-.167-.945-.334-.63 0-1.103.418-1.89.167-.63-.167-1.26.084-1.891-.25-.157-.084-.63-.084-1.102-.084-1.418.167-2.678.084-4.096-.25-.157-.084-.472-.084-.63-.084-.788.167-1.575-.083-2.205-.167-1.576-.334-3.308-.584-4.884-1.086-1.575-.501-1.89-.584-2.678-1.586-.157-.084-.472-.251-.63-.251-.472-.083-.315-.334-.315-.501-.315-.084-.787-.251-1.26-.418.473-.083.63-.167.945-.167.158-.334-.63-.334-.472-.668 1.26-.501 1.26-.501 1.89-1.002.315 0 .63.083 1.103 0 1.89-.084 3.465.167 4.883.668.315.084.63.084.945.084l.315.167.158-.084c-.158 0-.315 0-.473-.083.473-.334 1.103-.251 1.575 0 .473.25.788.417 1.418.334.158 0 .158 0 .315.083 1.733.501 3.623.585 5.356.585.473 0 .788.083 1.26.083 1.103.084 2.206.167 3.151.084 1.417-.167 2.678.167 3.938.167.472 0 .787 0 1.26.083 1.26.167 2.52.084 3.781-.083a5.984 5.984 0 011.732 0c.473.083.946 0 1.418 0 .315-.084.63-.084 1.103 0 .157 0 .315.083.315.083l1.89-.25c.63-.084 1.103.25 1.733.083.63-.167 1.575-.083 2.205.084 1.26.334 2.363.334 3.623 0 .158-.084.315-.084.473-.084 1.26.334 2.52-.25 3.781-.083.315.083.787 0 1.102-.084l2.836-.501zm-63.798-13.53c-.158 0-.158-.083-.315-.083h-.158c.315.083.315.083.473.083.157.167.315.25.63.084-.157 0-.473 0-.63-.084zm72.146-89.782c-.157-.167-.472-.25-.945 0h.945c.473.334.631.084.788-.167-.315.084-.63.084-.788.167zM86.954 83.935c0-.083 0-.083 0 0l-.157-.083c.157 0 .157 0 .157.084.158.334.158.334.788.25-.158-.167-.315-.334-.788-.25zm28.827 8.269c0 .418.63.418 1.26.501 0 0 .158-.083.315-.083v-.168c-.472-.25-.945-.5-1.575-.25-.472-.334-1.26-.501-1.89-.501-.63 0-.945-.167-1.418-.25-.315-.084-.63-.168-.945-.168 0 .084-.158.084 0 .084 0 .083.157.167.315.25 1.103.585 2.363.752 3.938.585zm-8.349-1.92l-.63.333-.63.334a2.72 2.72 0 001.89-.25c-.157-.167-.315-.25-.63-.418zm33.238 2.421c.158.334.158.418.473.418.472 0 .945.083 1.102-.25-.472-.084-.945-.168-1.575-.168zm79.55 6.514c-.945-.417-.945-.417-2.047-.083.63 0 1.102 0 2.047.084zM96.248 88.362c.63.334 1.103.25 1.733 0-.63-.25-1.103-.083-1.733 0zm74.509 7.35c-1.102 0-1.102 0-1.417.334.472 0 .945.083 1.417-.334zm42.375 3.173c.157.251.472.418.945.334 0 0 .157-.083.157-.166 0-.251-.472-.251-.787-.251 0 0-.158 0-.315.083zm-33.711.167h-.157c-.315 0-.63 0-.788.167 0 .084 0 .168.158.168.315.083.472-.084.63-.168.157-.083.157-.166.157-.166zm-.787-2.672h-.788c0 .083.158.167.158.083.157 0 .315 0 .63-.083zm7.403 3.174v.083c.158.084.473.084.63.167 0-.083 0-.167.158-.25-.315.083-.63 0-.788 0zm-11.814-3.341v-.084h-.788s-.157 0-.157.084l.157.083c.473-.083.63-.083.788-.083zm29.3 2.84l.315.166h.315s.157-.166 0-.166c0 0-.158-.084-.315-.084 0 0-.158.084-.315.084zm-79.551-5.012c-.157-.083-.157-.167-.315-.167-.157 0-.157.084-.315.084.158.083.315.083.63.083zm-14.334-2.756h-.315v.084c.157 0 .157 0 .315-.084 0 .084 0 0 0 0zm95.617 8.018c0 .084-.157.084-.157.167.157 0 .157.084.315 0 0 0 0-.084.157-.167 0 .084-.157 0-.315 0zM2.52 27.644s.158 0 0 0c.158 0 .158 0 .158-.083v-.084c0 .084-.158.168-.158.168zM166.82 99.22c-.157 0-.157 0 0 0 0 .083 0 .083.158.083 0 0 .157 0 .157-.084h-.315zm65.688-90.033c-.157 0-.157.083-.315.083l.158.084c.157-.084.315-.084.157-.167.158 0 .158 0 0 0zm-71.516 85.857l-.158-.084-.157.084c.157.083.157.083.315 0 0 .083 0 .083 0 0zm-15.753 1.92c-.157 0-.157-.083-.315-.083v.084h.315c-.157 0-.157 0 0 0zM209.351 2.84c.158 0 .158-.084.315-.084v-.083c-.157.083-.315.083-.315.167zm-61.907 94.542c.157-.083.157-.083.315-.083-.158-.084-.158-.167-.315-.167l-.158.083c0 .084.158.167.158.167zm28.354-1.002c-.157 0-.157-.084-.315-.084l-.157.084h.472c-.157 0-.157 0 0 0zm-10.081-.835c0 .083 0 .083 0 0 .157.083.157.083.315.083-.158 0-.158-.083-.315-.083.157 0 0 0 0 0zm-17.328 1.837s0 .084 0 0c0 .084 0 0 0 0zm23.156 1.086c.158 0 .158.083.315.083 0 0 .158 0 .158-.083l-.158-.084c-.157 0-.157.084-.315.084zm16.383 1.253s.157 0 0 0c.157-.084 0-.084 0-.084v.084c-.158 0 0 0 0 0zm2.363.167c.157 0 .157.083.315.083 0 0 .157 0 .157-.083l-.157-.084c-.158 0-.315 0-.315.084zM111.528 87.61s-.158 0 0 0c-.158 0-.158.084 0 0 0 .084 0 0 0 0zm-11.972-2.923h-.157c0 .084.157.084.157 0 0 .084 0 .084 0 0zm92.94 15.284c.157 0 .157.084.315.084l.157-.084-.157-.083c-.158 0-.315.083-.315.083zm6.143.167c0 .084-.157.084 0 0-.157.084 0 .084 0 .084v-.084c.158.084 0 0 0 0zM40.484 14.282s0-.084 0 0c0-.084-.157-.084-.157-.084 0 .084 0 .084.157.084zm220.22-5.847c-.157 0-.157 0 0 0 0-.083-.157-.083-.157-.083-.158.083-.158.083.157.083-.157.084-.157.084 0 0zm-37.963-4.677s0 .084 0 0l.157.084s0-.084-.157-.084c.157 0 0 0 0 0zm-3.308.084s0-.084 0 0c0-.084-.158-.084-.158-.084 0 .084 0 .084.158.084zm-40.012 93.457c.158 0 .158.083.315.083 0 0 0-.083.158-.083-.158 0-.158-.084-.473 0 .158-.084.158 0 0 0z"/><path d="M239.911 100.556c-.315.083-.63.167-1.103.25-.315-.083-.472-.167-.787-.25-.945.25-2.048.501-3.151.835.158-.251.315-.334.315-.501.158-.251-.157-.418-.63-.334-.472.083-.945.167-1.26.25-.472-.167-.315-.417 0-.501 1.103-.25 2.205-.5 3.466-.167.157.084.472.084.63 0 .63-.334 1.417-.25 2.048-.25h.472c.315-.25-.315-.167-.315-.418.315 0 .473-.084.945-.084v.919c.473.084.945.167 1.418.167 0 .334-.473.334-.63.418-.158.083-.473.083-.63 0-.473.083-.63-.084-.788-.334zM188.558 101.057c.63-.418.63-.418 2.678-.167-.787.417-.787.417-2.678.167zM222.899 98.969c1.26-.084 2.205-.167 3.308-.25-.945.417-1.733.5-2.52.5-.158-.083-.315-.167-.788-.25zM201.476 97.299c0-.084 0-.167.157-.167.315-.168.946-.168 1.261 0 .157.083.157.167 0 .25-.315.167-.946.167-1.418-.083 0 .083 0 0 0 0zM243.22 100.89c.315.083.788.083 1.26.167-.472.083-.787.083-1.26-.167zM179.422 100.389c0 .083 0 .083 0 0-.473.083-.788.167-1.103-.084v-.083c.158-.167.473-.167.945 0 .158.083.158.167.158.167zM245.11 100.055c.472-.167.63-.25.787-.25.158 0 .315.083.63.166-.157.084-.157.167-.315.167-.315 0-.63-.083-1.102-.083zM243.693 99.72c.157-.083.315-.166.315-.25h.472c0 .084-.157.167-.157.167-.158.084-.315.084-.63.084zM205.412 100.806h-1.103v-.083c.315 0 .631 0 1.103-.084v.167zM355.219 67.4v.166c-.158.084-.158.25-.315.25-.158.084-.158-.166.157-.333 0 .083 0 0 .158-.084zM180.997 100.472h-.63v-.167h.63c.158.084.158.084 0 .167zM254.087 100.389c.158 0 .158-.084.315-.084.158 0 .315.084.473.084 0 .083-.158.167-.158.167-.157 0-.315-.084-.63-.084v-.083zM160.203 98.969h1.418c-.788.334-1.103.167-1.418 0zM199.584 6.765c-.473.083-.945.25-1.418 0 .473.083.945.083 1.418 0zM221.954 97.883c0 .084.157.084.157.167-.157 0-.315.084-.315.084 0-.084-.157-.084 0-.167l.158-.084zM182.887 96.296c0 .084 0 .084 0 0 0 .084-.157.084-.157.084v-.084h.157zM141.773 97.299s0 .083 0 0c-.157.083-.157 0-.157 0h.157zM212.816 107.237c-.157 0-.157 0-.315-.084 0 .084.158 0 .315.084-.157 0-.157 0 0 0zM243.219 99.136h-.157l.157-.084v.084zM226.994 99.637s0 .084 0 0c-.157.084-.315 0-.315 0l.158-.083s0 .083.157.083zM182.256 100.388s.158.084 0 0c0 .084 0 .084-.157.084.157 0 .157 0 .157-.084zM206.515 100.723c.158 0 .158.083.315.083l-.157.084c-.158-.084-.158-.084-.158-.167-.158 0 0 0 0 0zM201.633 101.39c0 .084 0 .084-.157.084 0 0 0-.084.157-.084-.157 0 0 0 0 0zM218.016 101.642l-.157-.085c.157 0 .157 0 .157.085zM212.818 101.809c0-.085 0-.085 0 0h0zM227.31 105.817c.157-.084.157-.084.157 0h-.157z"/></g><defs><clipPath id="squiggleClip0"><path fill="#fff" transform="rotate(180 179.5 56.5)" d="M0 0h359v113H0z"/></clipPath></defs></svg>