<svg width="358" height="827" viewBox="0 0 358 827" fill="none" xmlns="http://www.w3.org/2000/svg">
<path fill-rule="evenodd" clip-rule="evenodd" d="M17.6904 969.011L121.008 937.416C121.263 937.671 121.518 937.926 121.773 938.181C123.174 885.184 122.155 766.833 116.677 710.269C103.428 544.272 92.0896 461.847 124.066 380.823C124.066 380.823 158.336 402.608 167.763 403.627C177.19 404.647 282.164 365.409 282.164 365.409C298.726 372.543 314.396 383.499 320.765 427.705C334.779 505.799 322.931 706.32 322.549 701.224C322.549 700.715 324.587 863.909 310.064 944.551C309.172 946.971 308.281 949.137 307.261 951.175C310.064 960.475 315.16 966.845 309.3 973.979C269.17 1002.01 150.819 979.075 178.337 967.482L265.348 937.926C261.271 867.476 243.818 705.556 243.818 705.556C243.818 705.556 221.779 592.683 215.154 491.913C206.746 552.808 190.439 680.714 190.439 680.331C190.312 679.822 192.86 887.987 157.826 945.188C157.189 946.207 156.552 947.226 156.042 948.118C156.934 964.297 166.489 973.979 158.718 983.661C117.059 1012.2 -11.1011 980.221 17.6904 969.011Z" fill="#EEE1D9"/>
<path d="M298.853 92.5264C319.236 66.9198 302.42 63.3527 271.08 62.9705C255.156 62.8431 248.276 37.6187 248.276 37.6187C249.041 29.2106 246.748 21.312 238.34 17.2354C238.34 17.2354 238.34 10.1012 224.581 7.80806C215.663 6.4067 199.739 0.801281 186.235 0.0369048C172.476 -0.727471 160.755 10.4834 161.647 24.2421C162.284 32.9051 167.253 40.294 182.285 41.568C194.515 42.5872 204.325 46.1542 211.969 50.6131C196.044 56.4733 185.98 55.5815 186.107 57.1103C186.235 60.4226 189.037 85.2648 171.839 100.935C155.15 116.222 155.277 158.517 208.402 142.593C237.193 133.93 297.197 151.638 313.121 135.841C339.747 109.47 290.954 102.463 298.853 92.5264Z" fill="#A1551F"/>
<path d="M10.2986 253.555C10.2986 253.555 117.566 139.281 131.197 129.344C158.97 108.833 187.379 114.439 187.379 114.439L174.13 201.705L81.2581 271.136L139.478 315.342L158.715 322.094L149.797 380.951C140.242 387.958 130.943 395.092 116.292 401.462C116.292 401.462 111.451 395.092 118.967 389.232C125.974 383.754 130.815 380.441 131.07 380.569C121.77 386.301 112.47 392.034 107.247 392.671C107.247 392.671 103.68 387.958 109.54 382.989C115.273 378.148 128.904 367.065 129.669 368.084C127.63 369.613 115.018 354.198 116.292 348.974L25.3313 315.342C-20.9135 291.646 10.2986 253.555 10.2986 253.555Z" fill="#EEE1D9"/>
<path d="M242.925 106.667C242.925 106.667 264.2 110.871 290.571 115.075C308.025 117.878 275.921 146.16 280.125 169.219C315.414 194.316 308.789 233.426 294.393 275.467C281.909 305.15 298.597 354.835 318.344 406.557C269.551 367.447 216.554 485.415 216.554 485.415C216.554 485.415 108.905 404.137 120.88 391.907C127.887 384.773 134.511 148.198 190.82 111.126L242.925 106.667Z" fill="#1164EA"/>
<path d="M209.163 73.7991L201.01 110.871C196.042 127.942 235.025 124.63 245.344 106.158L237.19 56.728C240.63 52.524 244.707 48.1925 237.573 44.2432L224.323 41.8227C224.323 41.8227 204.704 38.0008 208.017 23.7325C208.017 23.7325 193.366 25.3886 184.321 20.4202C181.901 16.8531 182.283 38.1282 179.225 46.6638C178.333 49.4665 183.557 85.0099 209.163 73.7991Z" fill="#EEE1D9"/>
<path d="M159.48 116.604L157.952 202.979C150.818 211.387 143.301 210.622 135.403 202.979L136.931 116.604H159.48Z" fill="#B98984"/>
<path d="M130.434 145.013C133.364 143.74 145.977 141.829 164.831 141.319C183.813 140.682 197.317 151.893 197.317 151.893L214.516 172.913L212.732 211.259L178.845 191.003C173.876 186.035 155.277 175.588 155.277 175.588C131.199 172.913 143.811 166.034 143.811 166.034C128.651 164.123 135.912 154.696 135.912 154.696C124.829 152.275 127.504 146.287 130.434 145.013Z" fill="#EEE1D9"/>
<path d="M141.518 123.484H155.786C161.137 123.484 165.596 119.152 165.596 113.674C165.596 108.323 161.264 103.865 155.786 103.865H141.518C136.167 103.865 131.708 108.196 131.708 113.674C131.708 119.152 136.167 123.484 141.518 123.484Z" fill="#B98984"/>
<path d="M131.963 108.833H154.129C163.302 108.833 170.818 101.444 170.818 92.1442V86.6662C170.818 77.4937 163.429 69.9773 154.129 69.9773H131.963C122.79 69.9773 115.274 77.3663 115.274 86.6662V92.1442C115.401 101.317 122.79 108.833 131.963 108.833Z" fill="#B98984"/>
<path d="M168.272 102.846H167.126V75.965H168.272C171.839 75.965 174.77 78.8951 174.77 82.4622V96.4757C174.77 99.9154 171.839 102.846 168.272 102.846Z" fill="#B98984"/>
<path d="M127.377 79.5321V89.3416V99.1511C132.346 111.254 39.729 148.835 37.3084 145.778C34.8879 142.72 37.3084 89.3416 37.3084 89.3416L39.729 30.8668C39.8564 30.8668 126.995 67.8116 127.377 79.5321Z" fill="#B98984"/>
<path d="M37.3075 146.415C28.4423 146.415 21.2556 120.292 21.2556 88.0676C21.2556 55.8432 28.4423 29.7202 37.3075 29.7202C46.1727 29.7202 53.3594 55.8432 53.3594 88.0676C53.3594 120.292 46.1727 146.415 37.3075 146.415Z" fill="#EEE1D9"/>
<path d="M395.035 311.775C404.59 298.016 397.583 279.671 397.583 279.671C397.583 279.671 340.51 156.861 332.102 144.886C314.649 120.553 289.679 117.114 289.679 117.114C257.32 129.344 239.103 158.263 276.557 191.768C296.941 216.228 307.132 244.637 334.14 274.193C353.887 310.756 374.142 325.534 395.035 311.775Z" fill="#EEE1D9"/>
<path fill-rule="evenodd" clip-rule="evenodd" d="M368.156 251.007L213.243 171.002C198.21 160.938 194.643 187.564 199.993 200.049C226.747 227.057 289.808 284.003 341.276 321.712C387.775 355.727 431.599 288.334 368.156 251.007Z" fill="#EEE1D9"/>
<path d="M41.0035 88.8319C41.0035 94.6921 45.3349 99.9154 50.6855 100.425C56.0362 100.935 60.2402 96.6031 60.2402 90.7429C60.2402 84.8827 55.9088 79.7868 50.6855 79.1498C45.3349 78.7676 41.0035 82.9717 41.0035 88.8319Z" fill="#B98984"/>
</svg>
