<svg width="167" height="102" viewBox="0 0 167 102" fill="none" xmlns="http://www.w3.org/2000/svg"><path d="M120.682 68.412c-.093-.587.154-.924.74-1.017 4.804-.817 8.752-2.515 11.847-5.095 3.096-2.578 5.396-5.587 6.897-9.027 1.499-3.438 2.294-7.268 2.38-11.492.057-5.75-1.148-11.461-3.604-17.133-2.458-5.67-5.912-10.423-10.367-14.26.347 1.06 1.069 4.58 2.164 10.574.148.547-.078.891-.672 1.03-.596.14-.956-.113-1.087-.753-.146-.548-.345-1.567-.596-3.062-.252-1.492-.458-2.612-.62-3.352-.162-.74-.388-1.683-.67-2.826a34.207 34.207 0 00-.916-3.08c-.139-.308-.112-.614.08-.915-.023-.145.027-.305.151-.475.299-.378.675-.482 1.122-.313l.277.048c2.935.678 5.369 1.062 7.306 1.148 1.938.085 3.953-.295 6.046-1.136.563-.238.964-.077 1.204.485.238.563.078.966-.487 1.205-3.366 1.344-7.08 1.63-11.139.856 4.292 3.953 7.66 8.812 10.101 14.575 2.445 5.76 3.604 11.581 3.48 17.464-.023 4.422-.843 8.478-2.455 12.158-1.615 3.682-4.082 6.914-7.401 9.694-3.319 2.777-7.572 4.593-12.761 5.44-.586.093-.927-.154-1.02-.74v-.001z" fill="#1658B3"/><mask id="a" maskUnits="userSpaceOnUse" x="-.145" y="53.988" width="113.516" height="47.988" fill="#000"><path fill="#fff" d="M-.145 53.988h113.516v47.988H-.145z"/><path d="M16.932 96.7a44.18 44.18 0 01-3.941.088 18.99 18.99 0 01-4.097-.492c-1.28-.284-2.353-.75-3.222-1.396-.893-.665-1.38-1.585-1.462-2.762.007-.086.008-.214.002-.383-.009-.19.004-.372.04-.548.012-.193.039-.356.081-.49.018-.152.069-.235.152-.248a.604.604 0 01.465.117c.12.087.225.208.313.364.065.138.123.3.173.482.048.163.07.308.07.435.03.187.025.357-.014.512a1.8 1.8 0 00-.06.424.774.774 0 00.029.378c.016.103.099.218.246.343.611.497 1.415.868 2.41 1.112.997.244 2.064.403 3.202.476 1.139.072 2.268.083 3.386.031a73.471 73.471 0 003-.193c.557-1.3 1.212-2.785 1.966-4.457.753-1.671 1.529-3.399 2.328-5.184a656.166 656.166 0 012.432-5.328c.802-1.764 1.535-3.368 2.197-4.813.662-1.444 1.222-2.66 1.68-3.646.456-1.008.738-1.637.847-1.888-.615.013-1.257.052-1.927.117-.67.065-1.316.147-1.938.246a31.196 31.196 0 00-3.874.907c-.712.199-1.397.436-2.055.71-.657.276-1.184.573-1.58.89-.28.237-.472.438-.573.602-.084.141-.137.277-.158.408-.025.11-.052.21-.08.3a.649.649 0 01-.219.226.713.713 0 01-.465-.117 2.151 2.151 0 01-.287-.4 2.194 2.194 0 01-.147-.518l-.08-.497c-.008-.318.175-.634.55-.949.396-.318.89-.62 1.482-.906.613-.29 1.28-.566 2.004-.83.723-.265 1.43-.495 2.122-.69a27.19 27.19 0 011.863-.521c.553-.131.954-.217 1.202-.256a31.954 31.954 0 013.389-.351 20.68 20.68 0 013.494.11c1.166.11 2.278.347 3.335.709a9.27 9.27 0 012.817 1.461c.824.633 1.495 1.44 2.014 2.418.514.959.817 2.121.908 3.488a11.865 11.865 0 01-.647 4.724 17.904 17.904 0 01-2.323 4.418 24.274 24.274 0 01-3.547 3.945 29.508 29.508 0 01-4.392 3.252 28.613 28.613 0 01-4.81 2.427c-1.662.648-3.28 1.098-4.856 1.35l-.653.105c-.248.04-.55.077-.907.113a7.17 7.17 0 01-.262.552 4.44 4.44 0 01-.284.619c.055.076.13.149.226.218a.387.387 0 01.206.286c.023.145-.038.293-.184.444a1.91 1.91 0 01-.5.462c-.191.137-.396.255-.614.353a1.858 1.858 0 01-.483.173c-.165.027-.365-.026-.6-.159-.23-.112-.337-.254-.322-.426.01-.066.09-.301.237-.707.169-.41.4-.957.695-1.64zm2.648-1.986l.218-.035c1.513-.242 3.071-.672 4.674-1.29a29.587 29.587 0 004.653-2.21 33.52 33.52 0 004.271-3.009 24.401 24.401 0 003.451-3.547c.968-1.26 1.717-2.559 2.247-3.897.551-1.341.795-2.676.731-4.004-.08-1.305-.424-2.386-1.03-3.245a6.95 6.95 0 00-2.248-2.094 10.53 10.53 0 00-2.902-1.193 17.255 17.255 0 00-2.948-.484 306.378 306.378 0 01-5.416 12.593c-1.906 4.17-3.806 8.31-5.7 12.415zM42.666 90.638a2.587 2.587 0 01-.766-.005 2.065 2.065 0 01-.801-.222 1.724 1.724 0 01-.654-.5 1.49 1.49 0 01-.347-.774c-.05-.31-.006-.7.132-1.168.134-.489.315-1.017.544-1.585.248-.57.527-1.157.834-1.758.305-.623.616-1.204.934-1.743.314-.56.607-1.053.88-1.48.289-.449.52-.794.695-1.034l.093-.015c.187-.03.41.04.672.21.279.148.436.335.473.563l-.341.66c-.231.419-.507.952-.83 1.598a64.894 64.894 0 00-1.012 2.042 40.05 40.05 0 00-.925 1.996c-.263.616-.437 1.122-.522 1.518-.086.396-.025.577.182.544.81-.13 1.616-.47 2.42-1.024a21.164 21.164 0 002.416-2.044 42.42 42.42 0 002.389-2.613c.803-.957 1.59-1.89 2.359-2.799.017-.024.057-.04.12-.05.165-.027.368.046.609.22.24.174.379.375.415.603.03.186-.13.52-.478 1-.348.481-.811 1.044-1.388 1.689-.56.62-1.21 1.276-1.95 1.969a41.376 41.376 0 01-2.24 1.951 18.44 18.44 0 01-2.153 1.492c-.676.426-1.262.68-1.76.76zm3.128-11.749c-.166.027-.345-.03-.537-.168-.172-.143-.214-.338-.126-.586.06-.158.172-.389.336-.69a24 24 0 01.514-.975c.202-.33.398-.638.586-.923.188-.285.338-.479.45-.581.186-.03.397.032.635.185.254.129.398.297.431.504.04.121-.02.343-.18.666-.164.303-.367.633-.607.99-.22.354-.445.676-.675.968-.23.292-.402.479-.516.56l-.311.05z"/><path d="M53.035 88.501c-.465-.116-.784-.246-.955-.389-.172-.142-.275-.455-.31-.938-.028-.441-.061-1.116-.1-2.023a87.67 87.67 0 01-.017-2.897c.03-1.004.092-1.948.184-2.834.093-.886.244-1.536.453-1.952a.424.424 0 01.344-.246c.186-.03.38.055.583.257.22.177.35.39.39.639-.002.255-.012.724-.03 1.406.002.68-.005 1.435-.02 2.266-.02.81-.041 1.61-.064 2.4-.001.786-.006 1.424-.012 1.914.23-.292.564-.728 1.003-1.308.435-.6.916-1.25 1.442-1.951l1.666-2.147a41.761 41.761 0 011.654-2.017c.519-.614.969-1.121 1.351-1.523.403-.404.7-.61.89-.62a.84.84 0 01.388.034c.152.018.296.058.434.121a.812.812 0 01.33.266.628.628 0 01.162.42c.017.104-.018.216-.105.336-.305.091-.705.378-1.202.861-.476.48-1.01 1.065-1.601 1.754-.57.686-1.175 1.43-1.812 2.234-.616.8-1.213 1.585-1.791 2.358-.561.748-1.078 1.436-1.552 2.064a26.81 26.81 0 01-1.081 1.416l-.622.1zM63.86 83.902c-.14-.87-.026-1.823.34-2.859.366-1.036.88-2.01 1.542-2.923a10.397 10.397 0 012.299-2.376c.87-.67 1.741-1.075 2.612-1.214.622-.1 1.084.06 1.384.48.319.395.518.84.597 1.338.093.58-.084 1.203-.53 1.87a8.671 8.671 0 01-1.72 1.804 13.117 13.117 0 01-2.226 1.44c-.786.401-1.47.649-2.05.742l-.311.05a.625.625 0 01-.29-.018c-.042.134-.08.3-.112.496-.036.176-.07.362-.102.558-.012.193-.025.376-.04.548.006.17.015.295.029.378.109.684.526.967 1.252.851.601-.096 1.292-.366 2.071-.81.8-.446 1.62-.97 2.46-1.572a52.174 52.174 0 002.524-1.965c.823-.705 1.56-1.344 2.213-1.915.65-.593 1.188-1.083 1.615-1.47.427-.387.662-.583.703-.59.228-.037.481.019.76.165.275.126.434.324.478.593.023.145-.193.456-.649.932-.434.473-1.016 1.023-1.745 1.65a57.544 57.544 0 01-2.457 1.986 49.191 49.191 0 01-2.685 1.959c-.905.59-1.759 1.1-2.563 1.525-.782.423-1.423.674-1.92.754a2.96 2.96 0 01-1.092-.049 3.595 3.595 0 01-1.059-.436 3.095 3.095 0 01-.86-.786c-.242-.323-.399-.701-.468-1.136zm2.206-3.157l.186-.03a4.123 4.123 0 001.386-.509c.485-.29.943-.618 1.374-.984.43-.366.826-.748 1.188-1.146.358-.419.638-.793.84-1.123.224-.333.352-.597.384-.794.05-.22-.029-.314-.236-.28a4.178 4.178 0 00-1.563.6c-.505.293-.98.656-1.42 1.088-.445.41-.84.867-1.185 1.368a9.858 9.858 0 00-.848 1.474l-.106.336zM86.496 83.626a2.59 2.59 0 01-.767-.005 2.063 2.063 0 01-.8-.222 1.724 1.724 0 01-.655-.5 1.49 1.49 0 01-.347-.774c-.05-.31-.006-.7.132-1.168.135-.489.316-1.017.544-1.585.249-.57.527-1.157.835-1.758a25.67 25.67 0 01.933-1.743c.315-.56.608-1.053.88-1.479.29-.45.521-.795.695-1.035l.094-.015c.186-.03.41.04.671.21.279.147.436.335.473.563l-.341.66c-.23.419-.507.952-.829 1.598a65.113 65.113 0 00-1.013 2.042 40.05 40.05 0 00-.924 1.996c-.263.616-.437 1.122-.523 1.518-.085.396-.024.577.183.544.809-.13 1.615-.47 2.42-1.024a21.145 21.145 0 002.416-2.044 42.42 42.42 0 002.388-2.613c.804-.957 1.59-1.89 2.36-2.799.017-.024.056-.04.118-.05.166-.027.37.047.61.22.24.174.379.375.415.603.03.187-.13.52-.477 1-.349.481-.812 1.044-1.389 1.689-.56.62-1.21 1.277-1.95 1.969a41.376 41.376 0 01-2.239 1.951 18.43 18.43 0 01-2.153 1.492c-.676.426-1.263.68-1.76.76zm3.127-11.749c-.166.027-.345-.03-.537-.168-.172-.143-.213-.338-.126-.586a6.18 6.18 0 01.336-.69 24 24 0 01.514-.975c.203-.33.398-.638.586-.923.189-.285.338-.479.45-.581.186-.03.398.032.635.185.255.129.398.297.432.504.04.121-.02.343-.18.666a12.35 12.35 0 01-.608.99c-.22.354-.445.676-.674.968-.23.292-.402.479-.517.56l-.31.05z"/><path d="M92.395 81.663c-.023-.145.078-.512.303-1.1a33.83 33.83 0 01.816-2.075c.36-.8.746-1.648 1.156-2.543.427-.918.837-1.748 1.228-2.49a27.72 27.72 0 011.038-1.887c.3-.516.502-.781.606-.798.186-.03.403.063.65.278.265.192.414.39.447.598.01.062-.089.312-.295.748-.19.413-.422.886-.698 1.418a46.806 46.806 0 01-1.243 2.398l.641-.772c.307-.346.65-.73 1.028-1.152.4-.425.808-.862 1.226-1.311.434-.474.855-.902 1.261-1.286.407-.383.781-.698 1.125-.944.34-.267.603-.416.79-.445.29-.047.593.053.909.3.313.226.49.474.534.743.033.207.001.542-.095 1.003-.096.462-.226.982-.388 1.56a56.226 56.226 0 01-.478 1.797c-.16.6-.295 1.152-.405 1.658-.114.486-.187.89-.22 1.215-.016.3.049.438.194.415.165-.027.398-.17.696-.43.316-.285.665-.627 1.048-1.028.379-.422.784-.88 1.215-1.374.428-.515.846-1.027 1.253-1.539.428-.514.828-1.003 1.201-1.466.369-.484.686-.896.95-1.236a.344.344 0 01.234-.133c.187-.03.399.032.636.185.237.154.375.354.415.603.023.145-.11.442-.399.892-.293.43-.681.927-1.165 1.493a38.845 38.845 0 01-1.565 1.78 36.084 36.084 0 01-1.73 1.743 19.26 19.26 0 01-1.609 1.309c-.472.372-.843.58-1.112.624-.394.063-.792-.033-1.194-.287-.399-.234-.63-.547-.693-.941-.04-.249-.008-.647.096-1.194.1-.569.225-1.184.375-1.845.166-.685.345-1.362.536-2.03l.462-1.698a86.401 86.401 0 00-2.121 2.092 55.801 55.801 0 00-2.222 2.458 42.99 42.99 0 00-2.094 2.661 19.921 19.921 0 00-1.623 2.618l-.39.158c-.551.003-.995-.245-1.33-.743z"/></mask><path d="M16.932 96.7a44.18 44.18 0 01-3.941.088 18.99 18.99 0 01-4.097-.492c-1.28-.284-2.353-.75-3.222-1.396-.893-.665-1.38-1.585-1.462-2.762.007-.086.008-.214.002-.383-.009-.19.004-.372.04-.548.012-.193.039-.356.081-.49.018-.152.069-.235.152-.248a.604.604 0 01.465.117c.12.087.225.208.313.364.065.138.123.3.173.482.048.163.07.308.07.435.03.187.025.357-.014.512a1.8 1.8 0 00-.06.424.774.774 0 00.029.378c.016.103.099.218.246.343.611.497 1.415.868 2.41 1.112.997.244 2.064.403 3.202.476 1.139.072 2.268.083 3.386.031a73.471 73.471 0 003-.193c.557-1.3 1.212-2.785 1.966-4.457.753-1.671 1.529-3.399 2.328-5.184a656.166 656.166 0 012.432-5.328c.802-1.764 1.535-3.368 2.197-4.813.662-1.444 1.222-2.66 1.68-3.646.456-1.008.738-1.637.847-1.888-.615.013-1.257.052-1.927.117-.67.065-1.316.147-1.938.246a31.196 31.196 0 00-3.874.907c-.712.199-1.397.436-2.055.71-.657.276-1.184.573-1.58.89-.28.237-.472.438-.573.602-.084.141-.137.277-.158.408-.025.11-.052.21-.08.3a.649.649 0 01-.219.226.713.713 0 01-.465-.117 2.151 2.151 0 01-.287-.4 2.194 2.194 0 01-.147-.518l-.08-.497c-.008-.318.175-.634.55-.949.396-.318.89-.62 1.482-.906.613-.29 1.28-.566 2.004-.83.723-.265 1.43-.495 2.122-.69a27.19 27.19 0 011.863-.521c.553-.131.954-.217 1.202-.256a31.954 31.954 0 013.389-.351 20.68 20.68 0 013.494.11c1.166.11 2.278.347 3.335.709a9.27 9.27 0 012.817 1.461c.824.633 1.495 1.44 2.014 2.418.514.959.817 2.121.908 3.488a11.865 11.865 0 01-.647 4.724 17.904 17.904 0 01-2.323 4.418 24.274 24.274 0 01-3.547 3.945 29.508 29.508 0 01-4.392 3.252 28.613 28.613 0 01-4.81 2.427c-1.662.648-3.28 1.098-4.856 1.35l-.653.105c-.248.04-.55.077-.907.113a7.17 7.17 0 01-.262.552 4.44 4.44 0 01-.284.619c.055.076.13.149.226.218a.387.387 0 01.206.286c.023.145-.038.293-.184.444a1.91 1.91 0 01-.5.462c-.191.137-.396.255-.614.353a1.858 1.858 0 01-.483.173c-.165.027-.365-.026-.6-.159-.23-.112-.337-.254-.322-.426.01-.066.09-.301.237-.707.169-.41.4-.957.695-1.64zm2.648-1.986l.218-.035c1.513-.242 3.071-.672 4.674-1.29a29.587 29.587 0 004.653-2.21 33.52 33.52 0 004.271-3.009 24.401 24.401 0 003.451-3.547c.968-1.26 1.717-2.559 2.247-3.897.551-1.341.795-2.676.731-4.004-.08-1.305-.424-2.386-1.03-3.245a6.95 6.95 0 00-2.248-2.094 10.53 10.53 0 00-2.902-1.193 17.255 17.255 0 00-2.948-.484 306.378 306.378 0 01-5.416 12.593c-1.906 4.17-3.806 8.31-5.7 12.415zM42.666 90.638a2.587 2.587 0 01-.766-.005 2.065 2.065 0 01-.801-.222 1.724 1.724 0 01-.654-.5 1.49 1.49 0 01-.347-.774c-.05-.31-.006-.7.132-1.168.134-.489.315-1.017.544-1.585.248-.57.527-1.157.834-1.758.305-.623.616-1.204.934-1.743.314-.56.607-1.053.88-1.48.289-.449.52-.794.695-1.034l.093-.015c.187-.03.41.04.672.21.279.148.436.335.473.563l-.341.66c-.231.419-.507.952-.83 1.598a64.894 64.894 0 00-1.012 2.042 40.05 40.05 0 00-.925 1.996c-.263.616-.437 1.122-.522 1.518-.086.396-.025.577.182.544.81-.13 1.616-.47 2.42-1.024a21.164 21.164 0 002.416-2.044 42.42 42.42 0 002.389-2.613c.803-.957 1.59-1.89 2.359-2.799.017-.024.057-.04.12-.05.165-.027.368.046.609.22.24.174.379.375.415.603.03.186-.13.52-.478 1-.348.481-.811 1.044-1.388 1.689-.56.62-1.21 1.276-1.95 1.969a41.376 41.376 0 01-2.24 1.951 18.44 18.44 0 01-2.153 1.492c-.676.426-1.262.68-1.76.76zm3.128-11.749c-.166.027-.345-.03-.537-.168-.172-.143-.214-.338-.126-.586.06-.158.172-.389.336-.69a24 24 0 01.514-.975c.202-.33.398-.638.586-.923.188-.285.338-.479.45-.581.186-.03.397.032.635.185.254.129.398.297.431.504.04.121-.02.343-.18.666-.164.303-.367.633-.607.99-.22.354-.445.676-.675.968-.23.292-.402.479-.516.56l-.311.05z" fill="#1658B3"/><path d="M53.035 88.501c-.465-.116-.784-.246-.955-.389-.172-.142-.275-.455-.31-.938-.028-.441-.061-1.116-.1-2.023a87.67 87.67 0 01-.017-2.897c.03-1.004.092-1.948.184-2.834.093-.886.244-1.536.453-1.952a.424.424 0 01.344-.246c.186-.03.38.055.583.257.22.177.35.39.39.639-.002.255-.012.724-.03 1.406.002.68-.005 1.435-.02 2.266-.02.81-.041 1.61-.064 2.4-.001.786-.006 1.424-.012 1.914.23-.292.564-.728 1.003-1.308.435-.6.916-1.25 1.442-1.951l1.666-2.147a41.761 41.761 0 011.654-2.017c.519-.614.969-1.121 1.351-1.523.403-.404.7-.61.89-.62a.84.84 0 01.388.034c.152.018.296.058.434.121a.812.812 0 01.33.266.628.628 0 01.162.42c.017.104-.018.216-.105.336-.305.091-.705.378-1.202.861-.476.48-1.01 1.065-1.601 1.754-.57.686-1.175 1.43-1.812 2.234-.616.8-1.213 1.585-1.791 2.358-.561.748-1.078 1.436-1.552 2.064a26.81 26.81 0 01-1.081 1.416l-.622.1zM63.86 83.902c-.14-.87-.026-1.823.34-2.859.366-1.036.88-2.01 1.542-2.923a10.397 10.397 0 012.299-2.376c.87-.67 1.741-1.075 2.612-1.214.622-.1 1.084.06 1.384.48.319.395.518.84.597 1.338.093.58-.084 1.203-.53 1.87a8.671 8.671 0 01-1.72 1.804 13.117 13.117 0 01-2.226 1.44c-.786.401-1.47.649-2.05.742l-.311.05a.625.625 0 01-.29-.018c-.042.134-.08.3-.112.496-.036.176-.07.362-.102.558-.012.193-.025.376-.04.548.006.17.015.295.029.378.109.684.526.967 1.252.851.601-.096 1.292-.366 2.071-.81.8-.446 1.62-.97 2.46-1.572a52.174 52.174 0 002.524-1.965c.823-.705 1.56-1.344 2.213-1.915.65-.593 1.188-1.083 1.615-1.47.427-.387.662-.583.703-.59.228-.037.481.019.76.165.275.126.434.324.478.593.023.145-.193.456-.649.932-.434.473-1.016 1.023-1.745 1.65a57.544 57.544 0 01-2.457 1.986 49.191 49.191 0 01-2.685 1.959c-.905.59-1.759 1.1-2.563 1.525-.782.423-1.423.674-1.92.754a2.96 2.96 0 01-1.092-.049 3.595 3.595 0 01-1.059-.436 3.095 3.095 0 01-.86-.786c-.242-.323-.399-.701-.468-1.136zm2.206-3.157l.186-.03a4.123 4.123 0 001.386-.509c.485-.29.943-.618 1.374-.984.43-.366.826-.748 1.188-1.146.358-.419.638-.793.84-1.123.224-.333.352-.597.384-.794.05-.22-.029-.314-.236-.28a4.178 4.178 0 00-1.563.6c-.505.293-.98.656-1.42 1.088-.445.41-.84.867-1.185 1.368a9.858 9.858 0 00-.848 1.474l-.106.336zM86.496 83.626a2.59 2.59 0 01-.767-.005 2.063 2.063 0 01-.8-.222 1.724 1.724 0 01-.655-.5 1.49 1.49 0 01-.347-.774c-.05-.31-.006-.7.132-1.168.135-.489.316-1.017.544-1.585.249-.57.527-1.157.835-1.758a25.67 25.67 0 01.933-1.743c.315-.56.608-1.053.88-1.479.29-.45.521-.795.695-1.035l.094-.015c.186-.03.41.04.671.21.279.147.436.335.473.563l-.341.66c-.23.419-.507.952-.829 1.598a65.113 65.113 0 00-1.013 2.042 40.05 40.05 0 00-.924 1.996c-.263.616-.437 1.122-.523 1.518-.085.396-.024.577.183.544.809-.13 1.615-.47 2.42-1.024a21.145 21.145 0 002.416-2.044 42.42 42.42 0 002.388-2.613c.804-.957 1.59-1.89 2.36-2.799.017-.024.056-.04.118-.05.166-.027.37.047.61.22.24.174.379.375.415.603.03.187-.13.52-.477 1-.349.481-.812 1.044-1.389 1.689-.56.62-1.21 1.277-1.95 1.969a41.376 41.376 0 01-2.239 1.951 18.43 18.43 0 01-2.153 1.492c-.676.426-1.263.68-1.76.76zm3.127-11.749c-.166.027-.345-.03-.537-.168-.172-.143-.213-.338-.126-.586a6.18 6.18 0 01.336-.69 24 24 0 01.514-.975c.203-.33.398-.638.586-.923.189-.285.338-.479.45-.581.186-.03.398.032.635.185.255.129.398.297.432.504.04.121-.02.343-.18.666a12.35 12.35 0 01-.608.99c-.22.354-.445.676-.674.968-.23.292-.402.479-.517.56l-.31.05z" fill="#1658B3"/><path d="M92.395 81.663c-.023-.145.078-.512.303-1.1a33.83 33.83 0 01.816-2.075c.36-.8.746-1.648 1.156-2.543.427-.918.837-1.748 1.228-2.49a27.72 27.72 0 011.038-1.887c.3-.516.502-.781.606-.798.186-.03.403.063.65.278.265.192.414.39.447.598.01.062-.089.312-.295.748-.19.413-.422.886-.698 1.418a46.806 46.806 0 01-1.243 2.398l.641-.772c.307-.346.65-.73 1.028-1.152.4-.425.808-.862 1.226-1.311.434-.474.855-.902 1.261-1.286.407-.383.781-.698 1.125-.944.34-.267.603-.416.79-.445.29-.047.593.053.909.3.313.226.49.474.534.743.033.207.001.542-.095 1.003-.096.462-.226.982-.388 1.56a56.226 56.226 0 01-.478 1.797c-.16.6-.295 1.152-.405 1.658-.114.486-.187.89-.22 1.215-.016.3.049.438.194.415.165-.027.398-.17.696-.43.316-.285.665-.627 1.048-1.028.379-.422.784-.88 1.215-1.374.428-.515.846-1.027 1.253-1.539.428-.514.828-1.003 1.201-1.466.369-.484.686-.896.95-1.236a.344.344 0 01.234-.133c.187-.03.399.032.636.185.237.154.375.354.415.603.023.145-.11.442-.399.892-.293.43-.681.927-1.165 1.493a38.845 38.845 0 01-1.565 1.78 36.084 36.084 0 01-1.73 1.743 19.26 19.26 0 01-1.609 1.309c-.472.372-.843.58-1.112.624-.394.063-.792-.033-1.194-.287-.399-.234-.63-.547-.693-.941-.04-.249-.008-.647.096-1.194.1-.569.225-1.184.375-1.845.166-.685.345-1.362.536-2.03l.462-1.698a86.401 86.401 0 00-2.121 2.092 55.801 55.801 0 00-2.222 2.458 42.99 42.99 0 00-2.094 2.661 19.921 19.921 0 00-1.623 2.618l-.39.158c-.551.003-.995-.245-1.33-.743z" fill="#1658B3"/><path d="M16.932 96.7a44.18 44.18 0 01-3.941.088 18.99 18.99 0 01-4.097-.492c-1.28-.284-2.353-.75-3.222-1.396-.893-.665-1.38-1.585-1.462-2.762.007-.086.008-.214.002-.383-.009-.19.004-.372.04-.548.012-.193.039-.356.081-.49.018-.152.069-.235.152-.248a.604.604 0 01.465.117c.12.087.225.208.313.364.065.138.123.3.173.482.048.163.07.308.07.435.03.187.025.357-.014.512a1.8 1.8 0 00-.06.424.774.774 0 00.029.378c.016.103.099.218.246.343.611.497 1.415.868 2.41 1.112.997.244 2.064.403 3.202.476 1.139.072 2.268.083 3.386.031a73.471 73.471 0 003-.193c.557-1.3 1.212-2.785 1.966-4.457.753-1.671 1.529-3.399 2.328-5.184a656.166 656.166 0 012.432-5.328c.802-1.764 1.535-3.368 2.197-4.813.662-1.444 1.222-2.66 1.68-3.646.456-1.008.738-1.637.847-1.888-.615.013-1.257.052-1.927.117-.67.065-1.316.147-1.938.246a31.196 31.196 0 00-3.874.907c-.712.199-1.397.436-2.055.71-.657.276-1.184.573-1.58.89-.28.237-.472.438-.573.602-.084.141-.137.277-.158.408-.025.11-.052.21-.08.3a.649.649 0 01-.219.226.713.713 0 01-.465-.117 2.151 2.151 0 01-.287-.4 2.194 2.194 0 01-.147-.518l-.08-.497c-.008-.318.175-.634.55-.949.396-.318.89-.62 1.482-.906.613-.29 1.28-.566 2.004-.83.723-.265 1.43-.495 2.122-.69a27.19 27.19 0 011.863-.521c.553-.131.954-.217 1.202-.256a31.954 31.954 0 013.389-.351 20.68 20.68 0 013.494.11c1.166.11 2.278.347 3.335.709a9.27 9.27 0 012.817 1.461c.824.633 1.495 1.44 2.014 2.418.514.959.817 2.121.908 3.488a11.865 11.865 0 01-.647 4.724 17.904 17.904 0 01-2.323 4.418 24.274 24.274 0 01-3.547 3.945 29.508 29.508 0 01-4.392 3.252 28.613 28.613 0 01-4.81 2.427c-1.662.648-3.28 1.098-4.856 1.35l-.653.105c-.248.04-.55.077-.907.113a7.17 7.17 0 01-.262.552 4.44 4.44 0 01-.284.619c.055.076.13.149.226.218a.387.387 0 01.206.286c.023.145-.038.293-.184.444a1.91 1.91 0 01-.5.462c-.191.137-.396.255-.614.353a1.858 1.858 0 01-.483.173c-.165.027-.365-.026-.6-.159-.23-.112-.337-.254-.322-.426.01-.066.09-.301.237-.707.169-.41.4-.957.695-1.64zm2.648-1.986l.218-.035c1.513-.242 3.071-.672 4.674-1.29a29.587 29.587 0 004.653-2.21 33.52 33.52 0 004.271-3.009 24.401 24.401 0 003.451-3.547c.968-1.26 1.717-2.559 2.247-3.897.551-1.341.795-2.676.731-4.004-.08-1.305-.424-2.386-1.03-3.245a6.95 6.95 0 00-2.248-2.094 10.53 10.53 0 00-2.902-1.193 17.255 17.255 0 00-2.948-.484 306.378 306.378 0 01-5.416 12.593c-1.906 4.17-3.806 8.31-5.7 12.415zM42.666 90.638a2.587 2.587 0 01-.766-.005 2.065 2.065 0 01-.801-.222 1.724 1.724 0 01-.654-.5 1.49 1.49 0 01-.347-.774c-.05-.31-.006-.7.132-1.168.134-.489.315-1.017.544-1.585.248-.57.527-1.157.834-1.758.305-.623.616-1.204.934-1.743.314-.56.607-1.053.88-1.48.289-.449.52-.794.695-1.034l.093-.015c.187-.03.41.04.672.21.279.148.436.335.473.563l-.341.66c-.231.419-.507.952-.83 1.598a64.894 64.894 0 00-1.012 2.042 40.05 40.05 0 00-.925 1.996c-.263.616-.437 1.122-.522 1.518-.086.396-.025.577.182.544.81-.13 1.616-.47 2.42-1.024a21.164 21.164 0 002.416-2.044 42.42 42.42 0 002.389-2.613c.803-.957 1.59-1.89 2.359-2.799.017-.024.057-.04.12-.05.165-.027.368.046.609.22.24.174.379.375.415.603.03.186-.13.52-.478 1-.348.481-.811 1.044-1.388 1.689-.56.62-1.21 1.276-1.95 1.969a41.376 41.376 0 01-2.24 1.951 18.44 18.44 0 01-2.153 1.492c-.676.426-1.262.68-1.76.76zm3.128-11.749c-.166.027-.345-.03-.537-.168-.172-.143-.214-.338-.126-.586.06-.158.172-.389.336-.69a24 24 0 01.514-.975c.202-.33.398-.638.586-.923.188-.285.338-.479.45-.581.186-.03.397.032.635.185.254.129.398.297.431.504.04.121-.02.343-.18.666-.164.303-.367.633-.607.99-.22.354-.445.676-.675.968-.23.292-.402.479-.516.56l-.311.05z" stroke="#1658B3" stroke-width=".6" mask="url(#a)"/><path d="M53.035 88.501c-.465-.116-.784-.246-.955-.389-.172-.142-.275-.455-.31-.938-.028-.441-.061-1.116-.1-2.023a87.67 87.67 0 01-.017-2.897c.03-1.004.092-1.948.184-2.834.093-.886.244-1.536.453-1.952a.424.424 0 01.344-.246c.186-.03.38.055.583.257.22.177.35.39.39.639-.002.255-.012.724-.03 1.406.002.68-.005 1.435-.02 2.266-.02.81-.041 1.61-.064 2.4-.001.786-.006 1.424-.012 1.914.23-.292.564-.728 1.003-1.308.435-.6.916-1.25 1.442-1.951l1.666-2.147a41.761 41.761 0 011.654-2.017c.519-.614.969-1.121 1.351-1.523.403-.404.7-.61.89-.62a.84.84 0 01.388.034c.152.018.296.058.434.121a.812.812 0 01.33.266.628.628 0 01.162.42c.017.104-.018.216-.105.336-.305.091-.705.378-1.202.861-.476.48-1.01 1.065-1.601 1.754-.57.686-1.175 1.43-1.812 2.234-.616.8-1.213 1.585-1.791 2.358-.561.748-1.078 1.436-1.552 2.064a26.81 26.81 0 01-1.081 1.416l-.622.1zM63.86 83.902c-.14-.87-.026-1.823.34-2.859.366-1.036.88-2.01 1.542-2.923a10.397 10.397 0 012.299-2.376c.87-.67 1.741-1.075 2.612-1.214.622-.1 1.084.06 1.384.48.319.395.518.84.597 1.338.093.58-.084 1.203-.53 1.87a8.671 8.671 0 01-1.72 1.804 13.117 13.117 0 01-2.226 1.44c-.786.401-1.47.649-2.05.742l-.311.05a.625.625 0 01-.29-.018c-.042.134-.08.3-.112.496-.036.176-.07.362-.102.558-.012.193-.025.376-.04.548.006.17.015.295.029.378.109.684.526.967 1.252.851.601-.096 1.292-.366 2.071-.81.8-.446 1.62-.97 2.46-1.572a52.174 52.174 0 002.524-1.965c.823-.705 1.56-1.344 2.213-1.915.65-.593 1.188-1.083 1.615-1.47.427-.387.662-.583.703-.59.228-.037.481.019.76.165.275.126.434.324.478.593.023.145-.193.456-.649.932-.434.473-1.016 1.023-1.745 1.65a57.544 57.544 0 01-2.457 1.986 49.191 49.191 0 01-2.685 1.959c-.905.59-1.759 1.1-2.563 1.525-.782.423-1.423.674-1.92.754a2.96 2.96 0 01-1.092-.049 3.595 3.595 0 01-1.059-.436 3.095 3.095 0 01-.86-.786c-.242-.323-.399-.701-.468-1.136zm2.206-3.157l.186-.03a4.123 4.123 0 001.386-.509c.485-.29.943-.618 1.374-.984.43-.366.826-.748 1.188-1.146.358-.419.638-.793.84-1.123.224-.333.352-.597.384-.794.05-.22-.029-.314-.236-.28a4.178 4.178 0 00-1.563.6c-.505.293-.98.656-1.42 1.088-.445.41-.84.867-1.185 1.368a9.858 9.858 0 00-.848 1.474l-.106.336zM86.496 83.626a2.59 2.59 0 01-.767-.005 2.063 2.063 0 01-.8-.222 1.724 1.724 0 01-.655-.5 1.49 1.49 0 01-.347-.774c-.05-.31-.006-.7.132-1.168.135-.489.316-1.017.544-1.585.249-.57.527-1.157.835-1.758a25.67 25.67 0 01.933-1.743c.315-.56.608-1.053.88-1.479.29-.45.521-.795.695-1.035l.094-.015c.186-.03.41.04.671.21.279.147.436.335.473.563l-.341.66c-.23.419-.507.952-.829 1.598a65.113 65.113 0 00-1.013 2.042 40.05 40.05 0 00-.924 1.996c-.263.616-.437 1.122-.523 1.518-.085.396-.024.577.183.544.809-.13 1.615-.47 2.42-1.024a21.145 21.145 0 002.416-2.044 42.42 42.42 0 002.388-2.613c.804-.957 1.59-1.89 2.36-2.799.017-.024.056-.04.118-.05.166-.027.37.047.61.22.24.174.379.375.415.603.03.187-.13.52-.477 1-.349.481-.812 1.044-1.389 1.689-.56.62-1.21 1.277-1.95 1.969a41.376 41.376 0 01-2.239 1.951 18.43 18.43 0 01-2.153 1.492c-.676.426-1.263.68-1.76.76zm3.127-11.749c-.166.027-.345-.03-.537-.168-.172-.143-.213-.338-.126-.586a6.18 6.18 0 01.336-.69 24 24 0 01.514-.975c.203-.33.398-.638.586-.923.189-.285.338-.479.45-.581.186-.03.398.032.635.185.255.129.398.297.432.504.04.121-.02.343-.18.666a12.35 12.35 0 01-.608.99c-.22.354-.445.676-.674.968-.23.292-.402.479-.517.56l-.31.05z" stroke="#1658B3" stroke-width=".6" mask="url(#a)"/><path d="M92.395 81.663c-.023-.145.078-.512.303-1.1a33.83 33.83 0 01.816-2.075c.36-.8.746-1.648 1.156-2.543.427-.918.837-1.748 1.228-2.49a27.72 27.72 0 011.038-1.887c.3-.516.502-.781.606-.798.186-.03.403.063.65.278.265.192.414.39.447.598.01.062-.089.312-.295.748-.19.413-.422.886-.698 1.418a46.806 46.806 0 01-1.243 2.398l.641-.772c.307-.346.65-.73 1.028-1.152.4-.425.808-.862 1.226-1.311.434-.474.855-.902 1.261-1.286.407-.383.781-.698 1.125-.944.34-.267.603-.416.79-.445.29-.047.593.053.909.3.313.226.49.474.534.743.033.207.001.542-.095 1.003-.096.462-.226.982-.388 1.56a56.226 56.226 0 01-.478 1.797c-.16.6-.295 1.152-.405 1.658-.114.486-.187.89-.22 1.215-.016.3.049.438.194.415.165-.027.398-.17.696-.43.316-.285.665-.627 1.048-1.028.379-.422.784-.88 1.215-1.374.428-.515.846-1.027 1.253-1.539.428-.514.828-1.003 1.201-1.466.369-.484.686-.896.95-1.236a.344.344 0 01.234-.133c.187-.03.399.032.636.185.237.154.375.354.415.603.023.145-.11.442-.399.892-.293.43-.681.927-1.165 1.493a38.845 38.845 0 01-1.565 1.78 36.084 36.084 0 01-1.73 1.743 19.26 19.26 0 01-1.609 1.309c-.472.372-.843.58-1.112.624-.394.063-.792-.033-1.194-.287-.399-.234-.63-.547-.693-.941-.04-.249-.008-.647.096-1.194.1-.569.225-1.184.375-1.845.166-.685.345-1.362.536-2.03l.462-1.698a86.401 86.401 0 00-2.121 2.092 55.801 55.801 0 00-2.222 2.458 42.99 42.99 0 00-2.094 2.661 19.921 19.921 0 00-1.623 2.618l-.39.158c-.551.003-.995-.245-1.33-.743z" stroke="#1658B3" stroke-width=".6" mask="url(#a)"/></svg>