<svg width="360" height="320" viewBox="0 0 360 320" fill="none" xmlns="http://www.w3.org/2000/svg">
<g clip-path="url(#clip0)">
<path d="M324.052 143.626C330.665 140.542 334.722 133.807 337.806 127.235C340.686 121.068 343.121 114.657 345.068 108.125C347.056 107.395 349.044 109.18 350.343 110.884C358.133 121.271 361.5 134.862 359.472 147.683C357.443 160.504 350.059 172.392 339.429 179.857" fill="#EEE1D9"/>
<path d="M131.618 188.338C151.742 172.677 182.577 168.944 206.271 167.686C225.584 166.672 245.14 166.915 264.046 171.419C274.636 173.934 285.55 177.139 295.49 181.886C296.991 179.249 297.803 176.45 297.6 173.61C297.113 165.657 293.461 158.841 284.13 153.161C276.056 148.252 265.75 144.965 255.039 142.693C237.796 139.082 219.051 137.906 200.956 139.366C191.422 140.137 181.968 141.476 173.002 143.586C155.109 147.765 138.961 155.109 130.563 165.82C126.505 171.013 126.708 177.87 128.899 183.347C129.548 185.092 130.441 186.755 131.618 188.338Z" fill="#B98984"/>
<path d="M159.368 106.705C170.526 81.8749 191.623 61.6698 216.941 51.6484C223.392 49.0923 230.33 47.1448 237.227 47.8345C244.165 48.5243 251.062 52.257 254.024 58.5457C256.986 64.8344 254.714 73.5575 248.384 76.3976C253.659 73.0707 260.556 74.0444 266.52 75.9107C273.783 78.2234 281.37 82.6863 282.952 90.1111C284.007 95.1015 281.938 100.376 278.489 104.149C275.04 107.922 270.375 110.357 265.628 112.183" fill="#EEE1D9"/>
<path d="M347.463 189.96C346.611 167.686 340.363 148.617 324.458 132.753C310.664 118.999 293.055 109.748 274.798 103.5C245.342 93.357 213.33 90.1518 182.454 94.1685C166.185 96.2782 150.037 100.092 134.701 105.975C104.149 117.66 76.5602 138.19 62.2381 168.254C55.2596 182.86 55.7059 201.97 59.4386 217.347C61.1832 224.447 63.6175 231.425 67.5936 237.592C72.5029 245.179 79.4814 251.184 86.8656 256.337C118.431 278.368 156.853 288.551 195.154 288.349C221.526 288.227 248.06 285.022 273.337 277.313C290.621 272.038 305.633 262.098 319.062 249.805C335.656 234.549 348.356 212.924 347.463 189.96ZM273.986 191.948C266.926 195.884 259.015 199.089 249.927 200.793C236.619 203.268 222.662 204.282 208.745 204.323C188.581 204.404 168.376 201.118 151.741 194.058C147.846 192.395 144.154 190.488 141.598 188.053C139.529 186.065 138.23 183.834 137.297 181.562C135.35 176.612 135.106 170.485 138.798 165.779C146.345 156.123 160.87 149.55 176.937 145.777C185.011 143.91 193.49 142.653 202.092 142.003C218.361 140.705 235.199 141.76 250.738 145.006C260.354 147.034 269.645 149.996 276.907 154.419C285.306 159.531 288.592 165.617 288.998 172.798C289.444 180.101 282.75 187.039 273.986 191.948Z" fill="#EEE1D9"/>
<path d="M68.7295 120.864C62.6842 140.704 60.7367 165.291 62.2379 186.065C62.9682 196.045 65.0374 206.026 68.973 215.236C70.0279 217.711 71.4479 221.565 73.2331 224.608C89.2592 224.852 105.853 219.902 119.323 212.031C125.856 208.217 132.55 203.632 137.703 197.831C136.323 193.286 132.712 188.58 130.968 183.955C124.476 166.671 122.732 147.886 123.097 129.547C123.786 95.4661 133.93 61.4257 120.175 28.8054C107.192 -1.908 67.2283 -6.16812 40.1665 7.0991C16.5938 18.6217 1.90659 43.6549 0.243116 69.4591C-1.13635 90.7597 3.65121 112.02 17.527 128.533C20.0425 131.535 23.0854 134.537 26.9398 134.984C24.5055 134.7 33.2691 98.8742 34.6486 95.5878C39.7608 83.6189 46.7392 72.9077 58.4241 66.6596C91.0444 49.2134 72.6651 107.962 68.7295 120.864Z" fill="#EEE1D9"/>
<path d="M50.5936 72.0971C50.269 65.0781 49.6605 58.059 48.7679 51.0806C48.3216 47.713 47.6724 44.1021 45.238 41.83C43.534 40.2071 41.1808 39.5174 38.8682 38.9494C29.5771 36.5962 19.9208 35.5413 10.3457 35.7847C4.5438 46.0496 1.01399 57.6533 0.243116 69.4599C-1.13635 90.7605 3.65121 112.02 17.527 128.534C20.0425 131.536 23.0854 134.538 26.9398 134.985C24.5055 134.701 33.2692 98.875 34.6486 95.5886C38.503 86.5815 43.4123 78.3047 50.5936 72.0971Z" fill="#B98984"/>
<path d="M17.6487 69.744C14.8898 58.6677 14.1189 47.1046 15.2955 35.7848C13.632 35.7443 12.0091 35.7443 10.3457 35.7848C4.5438 46.0497 1.01399 57.6534 0.243116 69.46C-1.13635 90.7606 3.65121 112.021 17.527 128.534C20.0425 131.536 23.0854 134.538 26.9398 134.985C25.3169 134.782 28.6439 118.877 31.484 107.233C26.6153 94.8584 20.854 82.6461 17.6487 69.744Z" fill="#A1551F"/>
<path d="M66.7416 42.7226C78.0208 42.7226 78.0208 25.1953 66.7416 25.1953C55.4624 25.1953 55.4624 42.7226 66.7416 42.7226Z" fill="#0D3C88"/>
<g opacity="0.1">
<path opacity="0.1" d="M340.848 157.056C339.834 157.989 338.82 159.003 337.887 160.058C328.798 170.363 324.66 185.822 318.493 199.008C302.873 232.399 267.453 249.804 232.479 255.687C180.06 264.451 113.48 266.074 66.4971 235.726C66.8622 236.334 67.2274 236.984 67.6331 237.592C72.5424 245.179 79.5209 251.184 86.9051 256.337C118.47 278.367 156.893 288.551 195.193 288.348C221.565 288.227 248.1 285.021 273.376 277.313C290.66 272.038 305.672 262.098 319.102 249.804C335.736 234.59 348.436 212.965 347.543 190.001C347.016 178.072 345.027 167.118 340.848 157.056Z" fill="#B98984"/>
</g>
<path d="M239.133 318.454C235.482 317.723 231.952 316.466 228.909 315.046C207.852 305.105 192.313 291.432 179.532 272.688C173.528 263.884 164.967 252.523 169.835 241.569C176.895 225.664 196.654 219.944 212.599 216.211C234.954 211.018 256.62 208.624 279.3 213.939C286.441 215.602 294.393 218.808 296.503 225.583C298.085 230.574 295.773 236.132 292.04 239.905C288.307 243.719 283.317 246.113 278.448 248.425C285.629 253.456 293.541 259.867 293.338 268.428C293.176 275.366 287.212 281.208 280.436 283.642C273.661 286.077 266.195 285.752 258.973 285.225C261.002 289.931 263.071 294.719 263.599 299.79C264.126 304.862 262.949 310.339 259.217 313.991C253.902 319.265 246.274 319.874 239.133 318.454Z" fill="#EEE1D9"/>
<g opacity="0.14">
<path opacity="0.14" d="M137.705 197.832C136.325 193.288 132.714 188.581 130.97 183.956C124.478 166.672 122.734 147.887 123.099 129.548C123.788 95.4672 133.932 61.4269 120.177 28.8065C116.445 20.0023 110.521 13.389 103.299 8.72314C107.073 16.7159 110.034 25.5202 111.373 32.7015C117.743 66.6607 106.383 102.649 103.746 136.527C101.636 163.304 102.894 190.772 110.156 216.698C113.361 215.278 116.445 213.696 119.366 211.992C125.898 208.178 132.552 203.593 137.705 197.832Z" fill="#B98984"/>
</g>
<g opacity="0.42">
<g opacity="0.42">
<path opacity="0.42" d="M42.602 19.1906C51.4874 12.9425 61.5494 10.4675 72.3011 11.7659C76.0744 12.2122 76.0338 6.28858 72.3011 5.84228C60.6162 4.42224 49.2153 7.30289 39.5997 14.0785C36.5161 16.2694 39.4779 21.4221 42.602 19.1906Z" fill="white"/>
</g>
<g opacity="0.42">
<path opacity="0.42" d="M74.3285 141.273C69.7844 160.991 70.9204 180.831 77.8989 199.86C79.1972 203.43 84.9179 201.888 83.6196 198.277C77.0063 180.222 75.7485 161.559 80.0492 142.815C80.9012 139.122 75.1805 137.54 74.3285 141.273Z" fill="white"/>
</g>
<g opacity="0.42">
<path opacity="0.42" d="M88.1245 238.85C99.9717 253.781 116.485 262.788 135.31 265.182C139.084 265.669 139.043 259.745 135.31 259.258C118.026 257.027 103.096 248.263 92.3035 234.671C89.9503 231.669 85.7713 235.888 88.1245 238.85Z" fill="white"/>
</g>
<g opacity="0.42">
<path opacity="0.42" d="M152.512 116.483C171.419 106.299 192.476 105.082 213.493 106.461C217.307 106.705 217.307 100.781 213.493 100.538C191.381 99.1178 169.35 100.7 149.51 111.371C146.183 113.156 149.145 118.268 152.512 116.483Z" fill="white"/>
</g>
<g opacity="0.42">
<path opacity="0.42" d="M190.771 267.941C196.614 280.356 205.986 290.377 217.914 297.153C221.241 299.06 224.243 293.907 220.917 292.041C209.8 285.752 201.361 276.501 195.924 264.979C194.26 261.489 189.148 264.492 190.771 267.941Z" fill="white"/>
</g>
</g>
</g>
<defs>
<clipPath id="clip0">
<rect width="360" height="319.103" fill="white"/>
</clipPath>
</defs>
</svg>
