<svg width="311" height="268" viewBox="0 0 311 268" fill="none" xmlns="http://www.w3.org/2000/svg"><path fill-rule="evenodd" clip-rule="evenodd" d="M17.776 163.771c-1.072.187-2.238.327-3.496.467-1.26.093-2.425.046-3.59-.047 0 3.311 0 6.621-.047 9.605-.094 8.859-.42 13.662 3.217 14.128 2.797-.186 3.73-1.818 3.823-8.533.14-5.921.187-10.63.093-15.62z" fill="#FFAF26"/><path fill-rule="evenodd" clip-rule="evenodd" d="M28.453 158.969c.326-4.43.186-14.081.186-19.397 0-3.637.42-15.993-.046-20.329.42-3.683-6.388-3.963-13.382-4.243-4.01.187-14.175-.979-14.455 4.01-.979 10.724-.839 37.488-.513 40.752 1.26 4.802 6.901 4.569 13.989 4.336 9.325 0 13.195 1.305 14.22-5.129z" fill="#EEE1D9"/><path fill-rule="evenodd" clip-rule="evenodd" d="M15.258 115.046c-4.01.186-14.175-.979-14.454 4.01-.467 4.989-.653 16.086-.746 23.267 1.538-.14 2.517.186 3.217.839 1.399 1.165 1.585 2.937 3.87 2.937 3.59 0 3.543-4.196 7.88-3.87l13.661.094v-2.705c0-3.637.42-15.993-.046-20.329.42-3.73-6.575-4.15-13.382-4.243z" fill="#1E1E1E"/><path fill-rule="evenodd" clip-rule="evenodd" d="M246.666 207.495c-4.336.979-3.73 5.548-6.667 10.118l-159.137-6.808c-9.046 1.492 40.472-10.118 30.867-46.16l-29.375-2.518c-12.263 11.47-85.886 31.706-52.129 82.296 25.691 31.66 172.752-5.688 221.897-14.314l12.869 4.616c.652.279 1.258.466 1.818.652l19.863 7.134c11.377 3.264-20.982-33.944-40.006-35.016z" fill="#E2D2C9"/><path fill-rule="evenodd" clip-rule="evenodd" d="M114.479 71.577c-14.827-1.725-43.969 52.689-44.761 33.292L59.693 42.902l-.047-6.481c-.839-3.684 4.476-9.652 3.73-15.2-1.911-.793 7.554-18.651 6.248-19.863C68.18.052 60.532 18.33 59.227 17.91c-.793-.233 1.398-17.718.28-17.905-1.586-.28-2.332 10.212-5.223 19.07-.979 2.612-2.051 1.073-4.802 3.777-1.306 1.306-1.539 5.036-.28 8.766L46.59 46.26s-.047 0-.047.047c-4.01 16.412-27.137 78.006-4.383 94.372 58.89 42.384 108.501-64.858 72.318-69.1zM260.514 246.054c-2.145 1.399-2.238 3.404-2.238 5.922l-129.762-33.758c11.377-2.238 47.326-7.32 42.43-38.14l-56.371-14.781C6.306 211.97 25.189 263.446 77.504 267.223c8.253.606 133.539-3.124 191.403-1.819 0 .047.047.047.047.094l6.341.093c.606 0 1.212.046 1.818.046.187 0 .373 0 .513-.046l30.634.466c11.284-.699-30.261-25.132-47.746-20.003z" fill="#EEE1D9"/><path fill-rule="evenodd" clip-rule="evenodd" d="M164.976 202.971c-5.456 4.71-3.218-10.211-23.034-14.454-21.914-4.709-65.977-5.595-67.888-2.331 0 0 28.209-25.412 26.484-36.136-4.197-25.784-7.554-49.471-.373-68.96.932-2.472 4.662-5.643 8.486-7.88 2.191-1.26 3.497-1.446 5.222-1.54 0 0 10.491-.326 15.2.14 1.679.187 9.326 1.213 13.056 2.145 47.419 11.797 42.896 111.764 22.847 129.016z" fill="#1164EA"/><path fill-rule="evenodd" clip-rule="evenodd" d="M114.665 73.302c.187-1.305 6.575-2.005-1.445-10.211-1.072-.886-4.523-1.585-4.989-5.968-.466-4.103 1.958-8.86 2.704-13.662-.792-3.217 4.849-4.57 8.999-5.129 6.808-.839 17.858 4.57 12.077 19.07-1.399 3.498-4.803 7.088-5.782 17.252-.373 3.218-2.938 6.808-5.689 6.528-3.59-.373-7.367-5.455-5.875-7.88z" fill="#EEE1D9"/><path fill-rule="evenodd" clip-rule="evenodd" d="M136.487 38.193c12.123 6.202 19.211-12.869 35.81-11.19 12.356 1.259 9.978-8.067 30.727-7.274 20.749.793 18.557 30.68-3.591 29.002-22.101-1.725-23.733-11.237-36.741-6.808-13.009 4.383-26.344.187-26.205-3.73z" fill="#A1551F"/><path fill-rule="evenodd" clip-rule="evenodd" d="M136.487 38.193c2.192.046 3.87 1.865 3.824 4.056-.047 2.191-1.866 3.87-4.057 3.823-2.191-.046-3.87-1.865-3.823-4.056a3.892 3.892 0 014.056-3.823z" fill="#1164EA"/><path fill-rule="evenodd" clip-rule="evenodd" d="M112.008 42.949c2.238 2.284 12.496-5.362 13.288 6.9.047.933-.326 4.01 4.01 2.938 4.337-1.12 2.751 5.222-.652 3.73-3.404-1.492-2.518 6.854-.886 6.434 1.678-.466 19.629-5.781 5.548-21.401-8.066-21.728-32.638-8.3-21.308 1.399z" fill="#A1551F"/><path fill-rule="evenodd" clip-rule="evenodd" d="M117.743 145.947L17.635 171.732c-8.486 4.896-18.65 10.77-9.325 13.521 17.392-3.03 102.765-1.911 128.177-1.352 47.232 1.073 28.069-109.106-3.264-106.448-22.894 1.958 5.175 64.251-15.48 68.494z" fill="#EEE1D9"/></svg>