<svg viewBox="0 0 144 15" fill="none" xmlns="http://www.w3.org/2000/svg"><path d="M140.605.28l-4.349 5.823h-.134L131.773.28h-3.395l6.467 8.23v6.045h2.683V8.51L144 .28h-3.395zm-19.268 5.823h-7.736V.268h-2.675V14.55h2.675V8.59h7.736v5.96h2.67V.269h-2.67v5.835zM83.775.28H81.29v9.754h-.067L72.565.28h-2.34v14.275h2.482V4.76h.055l8.749 9.795h2.264V.28zM63.096 12.077h-8.862V8.586h6.363V6.107h-6.363V2.721h8.862V.28H51.56v14.274h11.536v-2.478zm-24.944-1.08h-.072L33.799.28h-3.093l6.283 14.275h2.227L45.502.28H42.41l-4.257 10.717zm-16.167 3.558h2.675V.28h-2.675v14.275zM7.104 9.264h4.58v2.486c-.641.222-1.78.52-3.622.52-3.269 0-5.082-1.642-5.082-4.852 0-3.207 1.821-4.856 5.082-4.856 3.32 0 5.024 1.03 5.97 1.812V1.507C12.98.645 10.616 0 8.067 0 4.26 0 0 1.557 0 7.41c0 5.851 4.261 7.413 8.067 7.413 2.314 0 4.734-.532 6.245-1.49V6.786H7.104v2.478zm83.038-1.855c0 5.852 4.262 7.41 8.067 7.41 2.549 0 4.914-.64 5.969-1.507v-2.868c-.942.783-2.65 1.813-5.97 1.813-3.26 0-5.077-1.641-5.077-4.848 0-3.21 1.817-4.851 5.078-4.851 3.319 0 5.023 1.03 5.969 1.812V1.507C103.119.645 100.754 0 98.205 0c-3.805 0-8.063 1.557-8.063 7.41z" fill="#1658B3"/></svg>