<svg width="92" height="76" viewBox="0 0 92 76" fill="none" xmlns="http://www.w3.org/2000/svg">
<g clip-path="url(#clip0)">
<path d="M87.1099 61.3675H4.91062C2.47672 61.3675 0.485352 59.3762 0.485352 56.9423V5.31418C0.485352 2.88028 2.47672 0.888916 4.91062 0.888916H87.1099C89.5438 0.888916 91.5352 2.88028 91.5352 5.31418V56.9423C91.5352 59.3762 89.5438 61.3675 87.1099 61.3675Z" fill="#1658B3"/>
<path d="M46.0281 55.4673H61.996L46.0281 75.0122L30.0234 55.4673H46.0281Z" fill="#1658B3"/>
<path d="M63.5094 16.7092C59.0841 12.3577 51.8562 12.3577 47.4309 16.7092L45.8083 18.2949L44.2226 16.7461C39.7973 12.3577 32.5694 12.3577 28.1441 16.7461C23.7189 21.0976 23.7189 28.2149 28.1441 32.5664L30.2461 34.6315L43.0425 47.2435C43.8907 48.0548 44.8126 48.7186 45.8083 49.2349C46.8409 48.7186 47.7997 48.0548 48.6479 47.2066L61.4074 34.6315L63.5094 32.5664C67.9346 28.178 67.9346 21.0607 63.5094 16.7092Z" fill="#EEE1D9"/>
</g>
<defs>
<clipPath id="clip0">
<rect width="91.0498" height="74.1232" fill="white" transform="translate(0.485352 0.888916)"/>
</clipPath>
</defs>
</svg>
