<svg viewBox="0 0 117 117" fill="none" xmlns="http://www.w3.org/2000/svg"><circle cx="58.5" cy="58.5" r="54.5" fill="#1164EA"/><circle cx="58.5" cy="58.5" r="53.5" stroke="#1656AF" stroke-width="2"/><path fill-rule="evenodd" clip-rule="evenodd" d="M64.333 62.222l-.248-.517c-.483-1.008-.983-2.05-1.465-3.08-.148-.316-.39-.426-.741-.336a9.998 9.998 0 01-1.111.225c-.417.058-.57.31-.665.551-.508 1.289-1.033 2.598-1.54 3.864l-.19.474c-.272-1.145-.54-2.322-.803-3.466-.24-1.05-.488-2.134-.728-3.151-.081-.343-.307-.475-.67-.39-.313.071-.633.135-.943.196l-.388.077-1.7.346.07.277c.487 1.902.979 3.853 1.454 5.74.472 1.876.96 3.815 1.441 5.693l.065.251.254-.051c.363-.074.748-.147 1.12-.216.54-.1 1.098-.205 1.609-.319.221-.049.28-.192.323-.297l.007-.016c.322-.775.641-1.564.95-2.327l.297-.735.587-1.446.026-.065.455.946 1.08 2.246c.028.056.053.126.08.2.084.227.187.51.45.62.25.102.543.026.827-.048a4.05 4.05 0 01.246-.06c.428-.082.855-.17 1.287-.258l.717-.147 3.025-13.062-3.518.716-1.66 7.565zM50.906 51.859c-.468.07-.953.143-1.436.242l-.173.035-1.658 7.554-1.93-4.037-.209.042-.433.09c-.339.072-.69.145-1.03.202-.307.051-.49.204-.611.51-.508 1.291-1.034 2.603-1.543 3.87l-.204.509c-.239-1-.478-2.006-.715-3.006-.299-1.258-.596-2.508-.889-3.727l-.062-.256-.257.053c-.506.102-1.027.194-1.53.282-.51.089-1.038.181-1.556.286l-.28.057.07.277c.066.26.15.564.23.858.072.27.145.535.203.762l.543 2.126c.622 2.43 1.264 4.943 1.887 7.418.098.389.339.472.538.472.104 0 .196-.023.25-.036.282-.07.572-.126.852-.18.17-.034.34-.067.51-.103.087-.019.182-.03.283-.044.277-.036.59-.077.82-.268.232-.192.333-.502.423-.774.031-.095.06-.184.093-.264.43-1.054.857-2.109 1.294-3.188l.266-.655.314.652c.482 1.001.98 2.036 1.464 3.058.068.145.249.53.705.427.506-.113 1.063-.213 1.601-.31.242-.043.481-.086.71-.129.36-.068.408-.372.434-.536.006-.036.011-.073.02-.111.583-2.535 1.182-5.113 1.761-7.606l.636-2.736c.098-.42.181-.791.27-1.183l.217-.965-.413.084c-.498.102-.99.176-1.465.248zM87.72 50.666c-.456.078-.926.16-1.406.262-.198.042-.696.516-.741.573-.314.399-.51.654-.735.946l-.465.602-1.232 1.586-.389.5a2.277 2.277 0 01-.04-.034l-.75-.661c-.737-.65-1.5-1.323-2.253-1.98-.12-.105-.318-.203-.514-.166a32.97 32.97 0 01-1.23.202c-.49.074-.999.15-1.514.256l-.219.044v12.527l3.482-.708v-7.092l.499.416 1.735 1.45c.177.147.43.213.712.186.348-.033.677-.2.878-.448.453-.555.904-1.111 1.355-1.668l.823-1.015.108-.131v7.228l.326-.067c.497-.1.991-.185 1.47-.267.47-.081.958-.165 1.44-.263l.218-.044V50.374l-.327.066a41.78 41.78 0 01-1.231.226zM33.115 55.437c-.625-.128-1.277-.2-1.908-.27a41.294 41.294 0 01-1.18-.14c-.292-.036-.568-.07-.805-.155a.436.436 0 01-.31-.366c-.034-.26.127-.553.411-.75.339-.234.745-.36 1.026-.424.478-.11.827-.088 1.037.066.204.148.321.44.36.893l.027.333.32-.095.676-.198c.487-.142.99-.289 1.481-.44.97-.3 1.09-.498.852-1.419-.307-1.187-1.165-1.878-2.551-2.053-1.434-.181-2.909.098-4.384.831-1.548.77-2.636 2.243-2.707 3.668-.094 1.881.715 2.95 2.473 3.268.358.064.73.088 1.09.111.26.017.53.034.784.067l.304.038c.515.063 1.048.127 1.51.279.198.065.318.19.356.371.062.294-.102.666-.418.948-.581.522-1.34.74-1.978.569-.45-.12-.776-.42-.915-.846-.052-.156-.082-.33-.115-.513a8.711 8.711 0 00-.05-.27l-.06-.29-3.322.976-.012.19c-.086 1.379.591 2.683 1.686 3.245.591.304 1.335.447 2.134.447 1.648 0 3.531-.61 4.798-1.678 1.513-1.276 2.158-3.276 1.534-4.756-.362-.857-1.103-1.423-2.144-1.637zM71.076 60.564l.327-.066c.495-.101.995-.176 1.478-.249.48-.072.978-.147 1.47-.247l.218-.044V47.436l-3.493.71v12.418zM91.184 49.88a.97.97 0 010-1.94.97.97 0 010 1.94zm-.002-2.22a1.25 1.25 0 00-1.248 1.25 1.25 1.25 0 002.497 0 1.25 1.25 0 00-1.249-1.25z" fill="#fff"/><path fill-rule="evenodd" clip-rule="evenodd" d="M91.31 48.781a.244.244 0 01-.102.017h-.23v-.274h.236c.044 0 .076.006.098.018.04.021.059.063.059.124 0 .058-.02.096-.06.115zm.25.502a.521.521 0 01-.006-.095v-.069a.333.333 0 00-.03-.16.19.19 0 00-.1-.08.205.205 0 00.122-.1.303.303 0 00.017-.25.319.319 0 00-.05-.085.253.253 0 00-.096-.072.442.442 0 00-.161-.026h-.488v1.02h.208v-.4h.208c.06 0 .1.011.122.033.021.022.032.065.033.13l.002.095a.501.501 0 00.023.143h.235v-.026a.085.085 0 01-.04-.058z" fill="#fff"/><circle cx="58.5" cy="58.5" r="56.5" stroke="url(#paint0_linear)" stroke-width="4"/><defs><linearGradient id="paint0_linear" x1="4" y1="58.91" x2="113" y2="58.91" gradientUnits="userSpaceOnUse"><stop stop-color="#FEAD5C"/><stop offset="1" stop-color="#B72B8E"/></linearGradient></defs></svg>