<svg viewBox="0 0 17 14" fill="none" xmlns="http://www.w3.org/2000/svg"><path fill-rule="evenodd" clip-rule="evenodd" d="M.732 11.855a9.358 9.358 0 004.98 1.6c6.085.178 9.674-4.799 9.603-9.358A6.604 6.604 0 0017 2.47a6.618 6.618 0 01-1.897.455c.688-.38 1.227-1 1.494-1.749a6.635 6.635 0 01-2.104.726A3.29 3.29 0 0012.13.809C10.015.747 8.402 2.652 8.82 4.69a9.335 9.335 0 01-6.654-3.58 3.217 3.217 0 00.885 4.353 3.297 3.297 0 01-1.473-.45c-.08 1.5.967 2.934 2.533 3.293a3.32 3.32 0 01-1.48.012 3.273 3.273 0 002.993 2.337 6.652 6.652 0 01-4.892 1.199z" fill="#fff"/></svg>