<svg viewBox="0 0 301 304" fill="none" xmlns="http://www.w3.org/2000/svg"><path d="M227.743 214.571l-2.134 3.201c-1.133-.856-2.379-1.13-3.488.07-.89 1.002-.907 2.175.379 3.332l9.061 8.565-2.705 2.878-9.026-8.437c-3.169-2.975-2.756-6.182-.363-8.699 2.358-2.644 5.321-3.119 8.276-.91zM217.906 227.392l6.855 9.037-3.185 2.391-6.819-8.909c-1.5-1.923-3.374-2.231-5.077-.936-1.702 1.295-1.924 3.212-.424 5.136l6.818 8.909-3.185 2.391-6.9-8.955c-2.999-3.846-2.055-7.613 1.442-10.365 3.788-2.696 7.522-2.627 10.475 1.301zM203.341 237.324l-3.21 2.055c-1.233-2.202-3.143-2.638-4.825-1.761-1.554.842-2.372 2.099-1.679 3.351.576 1.078 1.868 1.271 4.331.729l1.951-.402c3.265-.626 5.144.436 6.26 2.465 1.457 2.76.207 5.923-3.411 7.747-3.537 1.87-6.867 1.277-8.324-1.482l-.153-.302 3.256-2.136.117.174c.892 1.472 2.312 1.63 3.692.905 1.508-.76 2.071-1.946 1.495-3.025-.377-.858-1.168-.983-3.202-.628l-2.161.391c-3.602.65-5.874-.097-7.143-2.427-1.61-3.062-.187-6.342 3.524-8.328 3.828-1.813 7.403-1.082 9.482 2.674zM183.321 255.568l-4.708-14.166 3.715-1.232 4.708 14.166 5.085-1.747 1.053 3.283-13.919 4.6-1.054-3.284 5.12-1.62zM161.369 254.549l1.78-2.004-.671-7.582 3.883-.385 1.73 18.288-3.882.385-.57-6.236-5.882 6.78-5.104.447 6.046-6.687-8.032-11.531 4.557-.433 6.145 8.958zM136.749 244.711l12.718.957-1.294 18.298-12.508-.946.213-3.427 8.658.703.203-3.218-8.075-.589.213-3.427 8.075.589.322-4.763-8.785-.668.26-3.509zM122.345 241.402l12.368 2.91-4.168 17.854-12.241-2.945.796-3.313 8.466 1.993.704-3.15-7.803-1.832.796-3.313 7.803 1.833 1.114-4.639-8.549-2.039.714-3.359zM113.891 245.867l2.812-6.688 3.579 1.487-7.023 16.992-6.913-2.834c-3.042-1.291-4.628-4.015-3.286-7.341 1.343-3.327 4.572-4.081 7.661-2.871l3.17 1.255zm-1.296 3.245l-2.879-1.198c-1.318-.53-2.432-.085-2.867 1.066-.482 1.233.094 2.311 1.284 2.876l2.797 1.152 1.665-3.896zM98.806 237.659l-3.349-1.894c1.408-2.107.874-4.022-.668-5.108-1.46-1.041-2.925-1.117-3.78.012-.726 1.094-.197 2.254 1.385 4.224l1.183 1.529c2.096 2.583 2.027 4.802.63 6.7-1.765 2.549-5.182 2.874-8.51.562-3.328-2.312-4.3-5.549-2.534-8.099l.138-.244 3.349 1.894-.139.244c-.91 1.42-.391 2.789.905 3.737 1.378.994 2.727.897 3.361-.034.543-.769.41-1.489-.936-3.11l-1.382-1.749c-2.25-2.885-2.635-5.253-1.1-7.396 1.985-2.747 5.612-3.061 9.022-.703 3.746 2.334 4.789 5.826 2.425 9.435zM76.366 222.065l8.402-3.42 2.55 2.733-10.402 15.726-2.796-2.871 7.302-10.814-8.657 3.489-1.638-1.678 3.907-8.434-11.21 6.669-2.632-2.779 16.183-9.554 2.551 2.732-3.56 8.201zM59.275 217.022L57 213.801l15.097-10.492 2.274 3.221-15.096 10.492zM68.354 197.537l1.718 3.444-16.447 8.115-1.718-3.444 3.181-7.339-7.792-2.042-1.636-3.398 16.447-8.115 1.717 3.444-11.065 5.461 6.628 1.813.495 1.032-2.582 6.281 11.054-5.252zM60.282 178.457l.904 3.737-17.852 4.31-.905-3.737 4.651-6.508-7.208-3.646-.87-3.61 17.853-4.31.905 3.737-11.987 2.897 6.136 3.255.32 1.149-3.934 5.623 11.987-2.897zM38.701 163.243l-.348-3.959 18.345-1.559.348 3.959-18.345 1.559zM44.77 150.226l11.564.519-.152 3.892-18.347-.915.188-3.764 12.079-7.253-11.646-.565.153-3.892 18.347.915-.189 3.764-11.996 7.299zM59.502 128.562c-1.16 4.719-5.48 7.974-11.409 6.449-5.847-1.479-8.211-6.256-7.051-10.976.955-3.975 3.685-6.516 7.43-6.657l.184 3.868c-1.64.04-3.47 1.37-4.004 3.648-.636 2.651.867 5.329 4.478 6.188 3.692.905 6.334-.718 6.97-3.368.489-2.197-.127-4.158-1.76-5.082l-1.001 4.057-3.192-.837 1.956-8.033.873.172c5.883 1.606 7.573 6.433 6.526 10.571zM73.442 88.281l2.134-3.2c1.132.855 2.379 1.13 3.488-.07.89-1.002.907-2.175-.379-3.333l-9.026-8.437 2.706-2.878 8.98 8.519c3.168 2.975 2.756 6.182.316 8.78-2.301 2.354-5.264 2.828-8.22.62zM83.363 75.507l-6.936-9.083 3.138-2.31 6.82 8.91c1.499 1.922 3.373 2.23 5.076.935 1.702-1.295 1.924-3.212.424-5.135l-6.772-8.991 3.185-2.392 6.854 9.037c2.953 3.928 2.055 7.613-1.524 10.32-3.579 2.706-7.313 2.637-10.265-1.29zM97.882 65.656l3.21-2.055c1.233 2.203 3.143 2.638 4.825 1.761 1.554-.841 2.372-2.098 1.679-3.35-.53-1.16-1.868-1.272-4.331-.73l-1.777.285c-3.265.627-5.144-.436-6.214-2.546-1.457-2.76-.126-5.877 3.411-7.747s6.821-1.196 8.324 1.483l.153.301-3.256 2.136-.117-.174c-.892-1.472-2.312-1.63-3.692-.905-1.508.76-2.071 1.947-1.577 2.979.377.858 1.169.983 3.202.628l2.161-.39c3.602-.651 5.874.096 7.097 2.508 1.529 3.015.141 6.423-3.524 8.328-3.874 1.895-7.413 1.29-9.574-2.512zM117.981 47.459l4.708 14.166-3.715 1.232-4.708-14.166-5.166 1.7-1.007-3.364 13.919-4.6 1.054 3.284-5.085 1.748zM139.933 48.478l-1.78 2.004.67 7.582-3.882.385-1.649-18.242 3.882-.385.57 6.236 5.882-6.78 5.104-.446-6.046 6.687 8.032 11.53-4.557.433-6.226-9.004zM164.472 58.27l-12.718-.958 1.375-18.251 12.508.946-.213 3.427-8.657-.703-.203 3.218 8.029.67-.214 3.427-8.029-.67-.322 4.763 8.785.668-.341 3.462zM179.04 61.67l-12.404-3.036 4.25-17.808 12.241 2.944-.842 3.395-8.467-1.993-.703 3.15 7.803 1.832-.796 3.313-7.803-1.832-1.114 4.638 8.549 2.039-.714 3.359zM187.411 57.16l-2.812 6.688-3.579-1.487 7.023-16.992 6.995 2.88c3.043 1.291 4.628 4.015 3.286 7.341-1.342 3.327-4.572 4.08-7.66 2.871l-3.253-1.301zm1.25-3.164l2.88 1.199c1.317.53 2.431.085 2.867-1.067.481-1.232-.095-2.31-1.284-2.876l-2.798-1.152-1.665 3.896zM202.496 65.368l3.302 1.975c-1.407 2.107-.873 4.022.668 5.108 1.46 1.04 2.926 1.117 3.78-.012.727-1.094.197-2.254-1.384-4.224l-1.183-1.529c-2.097-2.583-2.028-4.802-.631-6.7 1.765-2.55 5.183-2.874 8.464-.48 3.328 2.311 4.3 5.549 2.535 8.098l-.139.245-3.348-1.894.092-.163c.911-1.42.391-2.789-.905-3.737-1.378-.994-2.726-.897-3.361.034-.542.769-.41 1.488.936 3.11l1.382 1.75c2.25 2.884 2.635 5.252 1.1 7.394-1.985 2.748-5.612 3.062-9.103.658-3.573-2.45-4.57-6.025-2.205-9.633zM224.892 81.044l-8.402 3.419-2.55-2.733 10.403-15.726 2.795 2.871-7.301 10.815 8.657-3.49 1.637 1.679-3.907 8.433 11.21-6.669 2.632 2.779-16.392 9.544-2.551-2.733 3.769-8.19zM241.983 86.086l2.275 3.222-15.05 10.41-2.275-3.221 15.05-10.41zM232.857 105.653l-1.717-3.444 16.528-8.07 1.718 3.445-3.181 7.339 7.792 2.042 1.636 3.398-16.529 8.069-1.717-3.444 11.065-5.461-6.628-1.813-.494-1.033 2.582-6.28-11.055 5.252zM240.976 124.651l-.905-3.737 17.806-4.229.905 3.737-4.732 6.462 7.162 3.728.869 3.609-17.888 4.183-.905-3.737 12.069-2.851-6.09-3.336-.321-1.149 3.935-5.623-11.905 2.943zM262.509 139.946l.348 3.96-18.344 1.559-.348-3.96 18.344-1.559zM256.359 152.917l-11.518-.601.153-3.891 18.347.915-.189 3.764-12.078 7.253 11.727.611-.153 3.892-18.347-.915.189-3.764 11.869-7.264zM241.628 174.582c1.16-4.72 5.561-7.928 11.408-6.449 5.847 1.478 8.166 6.337 7.006 11.057-.955 3.975-3.686 6.517-7.43 6.657l-.184-3.867c1.639-.041 3.469-1.371 4.003-3.649.637-2.65-.867-5.329-4.477-6.188-3.692-.905-6.335.718-6.971 3.368-.57 2.151.128 4.158 1.761 5.082l1.001-4.057 3.191.837-2.037 7.987-.873-.172c-5.755-1.642-7.491-6.386-6.398-10.606zM57.958 102.317a4.685 4.685 0 006.387-1.763 4.685 4.685 0 00-1.78-6.382 4.685 4.685 0 00-6.387 1.763 4.685 4.685 0 001.78 6.382zM236.659 203.38a4.686 4.686 0 006.387-1.763 4.686 4.686 0 00-1.781-6.383 4.685 4.685 0 00-6.387 1.764 4.685 4.685 0 001.781 6.382z" fill="#FFF" /></svg>