<svg viewBox="0 0 115 118" fill="none" xmlns="http://www.w3.org/2000/svg"><path fill-rule="evenodd" clip-rule="evenodd" d="M100.401 48.003c-4 .025-6.494.173-10.173 1.012 2.888 2.115 5.786 4.217 8.684 6.318 5.325 3.863 10.648 7.725 15.91 11.659-5.704 8.568-16.668 14.396-25.582 15.73-2.716-3.902-4.642-8.57-6-13.804-2.716 3.901-11.878 12.741-25.83 12.741-15.111 0-23.136-8.84-25.828-12.741-1.358 5.235-3.284 9.902-6 13.803C16.668 81.388 5.679 75.585 0 66.991c5.803-4.369 11.694-8.637 17.583-12.904 2.331-1.689 4.662-3.377 6.986-5.072-3.703-.84-6.173-.987-10.198-1.012.184-1.338.427-2.705.666-4.051.34-1.91.671-3.776.816-5.456l.574.056c1.28.128 2.248.225 3.5-.056.447-.093 4.497-2.962 9.572-6.558 1.66-1.176 3.43-2.43 5.22-3.69-9.903-18.939-21.385-7.284-21.385-7.284C10.371 8.47 23.83 0 23.83 0c9.111 6.568 15.013 18.15 17.457 23.656 3.803-2.618 7.137-4.79 8.989-5.778l.372-.196c1.877-.99 3.935-2.073 5.95-2.397.246-.025.493-.05.764-.05 0 0 .593 0 .84.05 2.07.333 4.161 1.445 6.1 2.475l.221.118c1.852.987 5.186 3.185 8.989 5.778C75.955 18.149 81.857 6.593 90.969 0c0 0 13.482 8.47 10.494 20.964 0 0-11.482-11.655-21.384 7.285 1.79 1.26 3.559 2.513 5.22 3.69 5.075 3.595 9.124 6.464 9.571 6.557 1.26.283 2.253.183 3.534.054l.54-.054c.147 1.699.476 3.589.812 5.52.23 1.326.464 2.67.645 3.987zM57.337 77.239h.074c14.569-.024 26.446-12.1 27.335-27.36H45.583l-6.568-15.926-1.507.642 6.618 15.285h-1.901l-8.593-10.248-1.235 1.062 8 9.186h-10.37c.864 15.26 12.766 27.36 27.31 27.36z" fill="#1658B3"/><path d="M30.002 107.143h2.667l1.901 6.395h.025v-6.395h2.148v9.852h-2.617l-2.025-6.791h-.025v6.791h-2.074v-9.852z" fill="#1658B3"/><path fill-rule="evenodd" clip-rule="evenodd" d="M38.52 112.081c0 3.136.42 5.112 3.457 5.112 3.285 0 3.458-2.396 3.458-5.112s-.173-5.111-3.458-5.111c-3.037 0-3.456 1.975-3.456 5.111zm4.52 0c0 2.692-.149 3.556-1.087 3.556-.914 0-1.037-.864-1.037-3.556 0-2.716.123-3.58 1.037-3.58.938 0 1.086.889 1.086 3.58zM46.966 112.081c0 3.136.42 5.112 3.457 5.112 3.284 0 3.457-2.396 3.457-5.112s-.173-5.111-3.457-5.111c-3.037 0-3.457 1.975-3.457 5.111zm4.543 0c0 2.692-.148 3.556-1.086 3.556-.914 0-1.062-.864-1.037-3.556 0-2.716.123-3.58 1.037-3.58.938 0 1.086.889 1.086 3.58zM59.09 107.143h-3.432v9.827h3.186c3.062 0 3.506-1.654 3.506-5.235 0-3.407-.963-4.592-3.26-4.592zm-.518 8.148h-.593v-6.42h.642c1.21 0 1.408.642 1.408 3.037 0 2.963-.395 3.383-1.457 3.383z" fill="#1658B3"/><path d="M64.103 107.143h2.32v7.975h3.359v1.877h-5.68v-9.852zM71.042 107.143h5.68v1.876h-3.359v1.976h3.16v1.876h-3.16v2.247h3.531v1.877h-5.852v-9.852zM80.4 113.983v.345c0 .741.197 1.309 1.012 1.309s1.037-.617 1.037-1.161c0-2.123-4.222-.938-4.222-4.617 0-1.581.84-2.889 3.235-2.889 2.32 0 3.136 1.16 3.136 2.691v.222h-2.223c0-.469-.05-.814-.197-1.037-.148-.247-.37-.345-.692-.345-.568 0-.913.345-.913 1.061 0 2.05 4.222 1.013 4.222 4.495 0 2.222-1.234 3.136-3.358 3.136-1.68 0-3.235-.519-3.235-2.568v-.642H80.4zM18.644 87.215h3.802v6.37h.025l3.556-6.37h4.099l-4.223 6.963 4.741 9.186h-4.272l-2.913-6.1-1.013 1.581v4.519h-3.802v-16.15z" fill="#1658B3"/><path fill-rule="evenodd" clip-rule="evenodd" d="M40.25 87.215h-4.74l-4.1 16.149h3.926l.568-3.087h3.852l.593 3.087h3.926l-4.025-16.15zm-2.47 2.938h.05l1.383 7.186h-2.766l1.334-7.186zM46.423 87.215h5.901c2.766 0 4.593 1.284 4.593 3.975 0 1.877-.987 3.359-2.543 3.63v.05c1.21.172 2.988.691 2.988 4 0 1.901-.84 4.469-5.334 4.469h-5.605V87.215zm3.803 6.445h1.037c1.308 0 1.852-.741 1.852-1.902 0-.84-.445-1.753-1.828-1.753h-1.061v3.655zm1.16 6.889H50.201v-4.37h1.234c1.186 0 2 .69 2 2.271 0 1.136-.518 2.099-2.049 2.099z" fill="#1658B3"/><path d="M70.746 98.03c0 3.161-.914 5.655-5.31 5.655-4.42 0-5.308-2.494-5.308-5.655V87.215h3.803V99.14c0 1.26.493 2.025 1.506 2.025 1.012 0 1.506-.74 1.506-2.025V87.215h3.803V98.03zM76.129 90.277h-3.383v-3.062H83.34v3.062h-3.407v13.087h-3.803V90.277z" fill="#1658B3"/><path fill-rule="evenodd" clip-rule="evenodd" d="M84.772 95.29c0 5.136.69 8.395 5.679 8.395 5.383 0 5.68-3.926 5.68-8.395 0-4.47-.297-8.396-5.68-8.396-5.013 0-5.68 3.26-5.68 8.396zm7.432 0c0 4.42-.247 5.852-1.778 5.852-1.481 0-1.704-1.432-1.728-5.852 0-4.42.247-5.853 1.728-5.853 1.556 0 1.778 1.408 1.778 5.853z" fill="#1658B3"/></svg>