<svg viewBox="0 0 250 242" fill="none" xmlns="http://www.w3.org/2000/svg"><path d="M151.504 64.525c-.895-.721-1.781-1.41-2.701-2.13-1.409-1.466-2.84-2.907-3.427-3.5-2.746-2.338-4.716-3.933-6.558-5.37l-.12-.008c-5.992-5.48-12.461-10.419-19.839-13.722-4.448-1.99-7.946-1.715-10.323.086a7.568 7.568 0 00-1.629 1.72c.167-.46.363-.903.569-1.276.269-.564.526-.974.455-1.217-.054-.22-.434-.272-1.283.17a10.279 10.279 0 00-2.242 3.278c-.543 1.234-.877 2.542-1.061 3.81-.332 1.302-.549 2.554-.637 4.323l.08.59.041.297.015.19c.012.26.082.49.051.8.006.575-.074 1.224-.184 1.892-.228 1.345-.668 2.794-1.187 4.277-.199.341-.586.94-.97 1.534-.61 1.807-1.313 3.616-1.989 5.293l-2.314 3.243c-1.394 2.805-2.62 5.582-3.916 8.262a108.11 108.11 0 01-1.93 2.758 64.94 64.94 0 01-2.347 4.191 41.51 41.51 0 01-1.282 1.971 24.06 24.06 0 01-1.364 1.789c-1.932 2.315-4.346 4.311-6.954 6.308-1.303 1-2.65 2.007-3.995 3.068-1.363 1.076-2.633 2.14-3.934 3.224a249.842 249.842 0 00-25.398 24.622l-1.676 1.898-1.62 1.864c-.51.573-1.135 1.213-1.77 2.033-.316.41-.633.867-.921 1.386-.145.257-.28.534-.4.821-.059.148-.122.29-.172.443l-.076.229-.037.116-.018.056-.048.188-.036.17-.016.097-.021.145-.026.225-.035.377-.046.699c-.025.459-.04.913-.041 1.383 0 .24.001.482.009.733-1.426.746-2.697 1.681-3.803 2.666a33.555 33.555 0 00-2.352 2.326 61.655 61.655 0 00-2.11 2.403l-.537.674c-.181.248-.362.49-.544.762a8.882 8.882 0 00-1.006 1.994 6.884 6.884 0 00-.315 2.546 9.62 9.62 0 00.417 2.095c.384 1.213.815 2.179 1.267 3.15.456.962.9 1.933 1.416 2.864.443 1.223.897 2.241 1.324 3.226 1.613 2.052 2.624 2.741 4.67 5.243.481.884.996 1.714 1.51 2.529.498.829 1.05 1.593 1.581 2.374.896.737 1.832 1.396 2.675 2.03.841.976 1.599 1.907 2.182 2.504a60.07 60.07 0 008.18 5.804c.712.399 1.404.82 2.12 1.191l1.073.551.535.274.266.137.067.034.016.008.128.057a3.564 3.564 0 001.434.279c.12-.001.111-.005.17-.008a4.485 4.485 0 00.765-.142l.117-.035.06-.021.24-.095.237-.104c.085-.041.105-.055.162-.085l.28-.159.215-.137.2-.134.163-.119a19.46 19.46 0 001.317-1.09 52.357 52.357 0 001.721-1.62c.571-.758 1.013-1.36 1.762-2.391.8-.797 1.622-1.627 2.354-2.292l.233-.2.032-.028.385-.187.143.144.215.209.29.247c.18.16.433.329.695.484a4.96 4.96 0 001.712.622c.305.065.561.072.82.076.254.003.54.014.746-.022.445-.056.873-.1 1.397-.275.519-.136.93-.369 1.367-.592.197-.12.376-.247.561-.374l.273-.194.234-.198c1.253-1.073 2-2.159 2.693-3.074.35-.472.658-.872.961-1.242.277-.315.553-.598.718-.711.098.041.222.099.348.176.658.372 1.464 1.045 2.22 1.75 1.538 1.447 3.02 3.134 4.52 4.854.765.871 1.483 1.729 2.415 2.69l2.433 2.438 9.588 9.603 3.18 2.5 3.605 3.608c1.04 1.011 2.078 2.02 2.844 2.767l2.139 1.561 2.145 2.149 1.075 1.077c.378.365.738.738 1.138 1.1.773.731 1.609 1.45 2.573 2.102.961.645 2.096 1.241 3.429 1.488 1.329.26 2.755.064 3.924-.393 1.186-.449 2.186-1.091 3.065-1.78 1.775-1.364 3.251-2.941 4.561-4.698.43-.781.827-1.535 1.156-2.368.342-.821.635-1.707.843-2.715.439-.923.697-1.854.861-2.759.063-.458.131-.904.12-1.352.018-.457-.008-.869-.038-1.27-.124-.536-.242-1.074-.521-1.674-.261-.585-.696-1.234-1.301-1.709-.602-.479-1.251-.729-1.788-.891-.547-.163-1.024-.255-1.467-.346-.894-.178-1.676-.352-2.451-.595a15.241 15.241 0 01-2.237-.896c-1.451-.705-2.81-1.655-4.097-2.698a35.63 35.63 0 01-1.871-1.655l-.892-.881c-.296-.293-.547-.59-.822-.883-.447-.361-.81-.74-1.19-1.088-.334-.374-.695-.717-.993-1.097a15.037 15.037 0 01-.735-2.313c-.389-.861-.646-1.787-.867-2.727a17.307 17.307 0 01-.347-2.908c-.026-.989.032-1.986.146-2.976.126-.99.318-1.972.547-2.935.084-.951.156-1.652.354-2.88.546-1.613 1.201-3.233 1.913-4.876l1.079-2.502c.351-.856.729-1.727.981-2.715.154-.47.224-.998.317-1.508l.05-.816c.01-.275-.031-.572-.05-.857-.038-.291-.126-.598-.204-.892-.136-.298-.228-.603-.435-.878-.35-.571-.898-1.029-1.469-1.312a4.447 4.447 0 00-1.799-.472l-.032-.002-.123.001a1.36 1.36 0 00-.192.022c-.05.007-.161.035-.14.031l-.081.025-.162.05-.322.099-.637.196c-.843.258-1.673.509-2.493.724-1.14.503-1.801.75-2.543 1.009-1.041.014-2.076-.044-3.052-.253a7.26 7.26 0 01-1.568-.242 15.975 15.975 0 011.808-1.948c1.037-.96 2.182-1.85 3.365-2.707 2.365-1.728 4.878-3.288 7.349-5.101 1.073-.591 1.976-1.138 2.785-1.505.457-.312.91-.583 1.363-.801a7.361 7.361 0 011.399-.499c.985-.245 2.084-.316 3.24-.318 1.15 0 2.4.055 3.617.086l3.665.106 14.582.425 3.608.11c1.152.041 2.34.142 3.534.236 2.394.196 4.84.404 7.348.372.623.007 1.26-.047 1.89-.07.638-.072 1.27-.098 1.913-.216 1.278-.17 2.57-.519 3.829-1.002l.935-.409c.307-.149.603-.334.903-.501.15-.088.299-.171.447-.265l.442-.322c.301-.205.574-.459.845-.716.543-.512 1-1.127 1.384-1.768.355-.654.656-1.337.833-2.02.224-1.205.21-2.214.174-3.088-.043-.875-.14-1.612-.219-2.281l.17-2.875c.042-.865.089-1.647.09-2.42-.183-.838-.37-1.568-.712-2.832-.712-6.059-2.493-12.516-4.834-18.108-.67-1.117-1.086-1.736-1.59-2.52-2.271-4.99-5.179-9.877-8.394-14.526-.521-.75-.985-1.528-1.478-2.297l-1.04-1.96c-3.142-4.121-6.524-8.037-10.01-11.778z" fill="#B98984"/><path d="M161.255 75.2c-.853-.734-1.535-1.28-2.091-1.745-.591-1.048-1.027-1.773-1.446-2.486l-1.327-.886a206.142 206.142 0 00-6.707-7.48l-1.416-.834a195.525 195.525 0 00-6.415-6.382c-.357-.34-.654-.735-.981-1.106l-.641-1.051a124.168 124.168 0 00-6.355-5.454c-.581-.263-1.161-.502-1.762-.752-.867-.683-1.762-1.332-2.127-1.6a73.678 73.678 0 00-4.162-2.037 1.958 1.958 0 01-.078.032c-7.601-4.876-13.964-6.73-17.526-3.947a7.12 7.12 0 00-.926.872c.076-.269.16-.534.236-.773.219-.688.271-1.284-.83-1.034-1.077.916-1.996 2.294-2.545 3.645-.425.65-.79 1.291-1.207 2.232-.21 1.8-.144 3.647.132 5.523-.053.242-.139.67-.207 1.097l.04.153-.617 1.468c-.706.644-1.146 1.083-1.613 1.526-.864 1.412-1.71 2.86-2.532 4.278-.463.457-.903.901-1.353 1.362-3.334 5.862-6.485 11.798-9.538 17.782a540.171 540.171 0 00-4.5 9.015l-2.185 4.553c-.348.753-.698 1.487-1.043 2.261l-.118.063a6.87 6.87 0 00-.867.547l-1.616 1.21.692 1.892c1.932 5.279 4.383 10.384 7.362 15.169.22.672.395 1.261.615 1.796 1.01.989 1.747 1.221 2.8 2.594l1.167 2.962.735.578.734.523.812 1.62.89 1.042.922.985c.611.648 1.206 1.297 1.811 1.918 1.254 1.199 2.432 2.416 3.701 3.494.478.23.858.414 1.517.734 4.913 4.199 10.307 7.807 16.017 10.804l1.54.808 1.377-1.076 5.26-4.109c.624.135 1.248.266 1.87.358 1.159-.042 1.818-.08 2.303-.127 1.117.152 1.969.272 2.816.339.801.07 1.601.127 2.192.146l1.467-.302c4.436.304 8.915.328 13.327.203.882-.219 1.699-.448 2.704-.72 1.019.188 1.852.31 2.625.436 3.958-.251 7.891-.667 11.619-1.254l1.703-.696 1.463.207c1.13-.166 2.303-.33 3.536-.584 1.214-.245 2.582-.649 3.757-1.34.242-.224.429-.43.627-.651a5.77 5.77 0 00.297-.352c.112-.142.232-.294.369-.465.152-.153.349-.355.434-.5l.261-.449c.133-.284.243-.557.336-.828.174-.532.293-1.052.399-1.57.188-1.03.293-2.054.36-3.075.126-2.037.07-4.053-.061-5.98l-.567-1.495.268-1.833c-.496-3.89-1.336-7.759-2.435-11.517l-.071-1.826c-3.275-10.354-8.675-19.901-15.228-27.91z" fill="#EEE1D9"/><path fillRule="evenodd" clipRule="evenodd" d="M159.628 73.805l.13.17c.09.037.181.077.272.116.338.146.673.29.963.366.738.186 1.673 1.116 2.627 2.066.549.546 1.105 1.1 1.633 1.52.41.592.814 1.228 1.229 1.882l.182.286a66.22 66.22 0 011.427 2.322c.135.123.269.243.403.363.282.253.564.506.858.792.135.243.277.494.422.75.288.509.589 1.04.877 1.578l.464.454.694.677a94.896 94.896 0 014.083 8.932l.045 1.05c.045.158.079.32.113.483.052.245.104.49.19.723 1.517 4.164 2.725 8.462 3.464 12.811l.267.508.354.674c.264 1.896.489 3.988.524 6.125-.073.243-.157.488-.269.817l-.163.478a30.103 30.103 0 01-.421 4.806c-.217 1.452-.658 2.919-1.088 4.106l-.045.418c-.049.451-.084.782-.151 1.175-.71 1.447-1.709 2.904-3.098 4.137a10.998 10.998 0 01-5.131 2.566c-.069-.003-.142-.004-.217-.006-.198-.004-.417-.008-.646-.036l-.475-.075-.53-.084c-.462.151-.943.247-1.445.346l-.348.07-.303-.133-.815-.358c-.089-.031-.172-.074-.255-.116a1.466 1.466 0 00-.326-.134c-3.157-.671-5.808-2.058-8.291-3.542-2.462-1.517-4.719-3.227-6.874-5.012-4.298-3.584-8.191-7.484-11.879-11.484l-.696-1.433-.874-.479-.216-.119a202.224 202.224 0 01-3.471-3.968c-.513-.895-.848-1.502-1.142-2.036l-.203-.367-.971-.634-.6-.392a257.44 257.44 0 01-5.911-7.426l-.777-.54-.55-.381c-4.418-5.928-8.398-12.224-11.769-18.854l-.073-.489-.203-1.356c-.344-.442-.691-.915-1.044-1.395-.179-.245-.36-.49-.542-.736a26.059 26.059 0 01-.086-.924l-.021-.25a99.367 99.367 0 01-1.725-4.102l-.437-.522-.373-.446a41.747 41.747 0 01-.11-1.577c-.858-2.396-1.617-4.85-2.211-7.377-.594-2.527-1.042-5.123-1.201-7.818-.051-1.354-.079-2.72.066-4.126.107-1.394.392-2.831.856-4.262a12.233 12.233 0 012.268-4.14 10.57 10.57 0 013.996-2.955c.196-.142.413-.28.668-.443l.134-.085.193-.12.327-.2.637-.312.348-.015.461-.02a351.295 351.295 0 00.821.05c.559.02 1.101.119 1.634.22.47-.128.963-.2 1.651-.3l.361-.052c.798.268 1.634.553 2.928 1.167 4.65 1.344 9.196 3.972 13.398 6.92.261.317.497.619.748.939l.365.464c.413.145.877.319 1.38.52l.871 1.244c1.056.845 2.136 1.721 3.172 2.612.499.202.98.41 1.401.593 1.807 1.57 3.47 3.162 4.746 4.387a139.358 139.358 0 012.784 4.046l.323.162.61.309a168.734 168.734 0 014.848 5.344l.455 1.158a167.98 167.98 0 012.579 3.086c.077.455.401 1.025.772 1.678.349.615.741 1.305 1.007 2.041-.485-.59-.954-1.164-1.409-1.722-1.963-2.403-3.685-4.513-5.499-6.475-.359-.223-.708-.429-1.099-.66l-.384-.227a425.43 425.43 0 01-.931-1.445l-.606-.966-.398.094-.322.075a170.32 170.32 0 0110.074 11.775c.175.224.348.45.521.675zm-24.07-27.024l-.495-.163.202.548c.049.016.112.041.174.066.131.052.262.104.265.071.008-.095-.041-.229-.09-.363a3.13 3.13 0 01-.056-.16z" fill="#B98984"/><path d="M61 127.102l.225-.184-3.84-4.674-2.059 1.691.056.067-.224.184.055.067-.223.185.055.067-.224.183.055.068-.225.184.056.068-.224.184.055.067-.224.184.056.068-.225.184.055.068-.223.184.055.067-.224.183.055.068-.224.184.056.067-.225.185.055.067-.223.184.055.068-.224.184.055.067-.225.184.056.068-.224.184.055.067-.224.184.056.068-.225.184.056.067-.223.184.055.067-.225.185.056.068-.225.183.056.067-.224.184.054.068-.223.184.055.068-.224.184.056.067-.224.184.055.068-.224.183.055.067-.225.185.056.067-.224.185.055.067-.223.184.055.067-.225.185.056.068-.224.184.055.067-.224.183.055.068-.224.184.056.067-.225.185.056.067-.224.184.055.068-.224.184.056.067-.225.185.055.066-.224.184.055.068-.224.184.058.07-.221.18.112.138-.19.156.112.137-.19.156.113.136-.19.156.112.138-.19.154.112.138-.19.155.113.138-.19.156.113.136-.19.156.111.137-.19.156.112.137-.19.156.113.136-.19.156.113.138-.19.155.112.137-.19.156.112.137-.19.156.113.136-.19.156.112.137-.19.156.111.136-.188.155.133.162-.158.13.172.21-.105.085.172.21-.104.085.172.209-.104.086.172.21-.105.085.173.21-.105.086.172.209-.104.086.172.21-.105.085.173.21-.104.085.172.21-.105.086.173.209-.105.086.173.21-.105.085.172.21-.104.085.172.209-.104.086.171.209-.103.087.171.21-.104.085.172.21-.104.085.172.209-.104.087.171.208-.103.086.17.208-.103.087.177.215-.08.066.191.231-.032.026.191.232-.032.026.191.231-.03.026.19.233-.032.025.191.232-.031.026.19.232-.03.026.19.232-.032.026.19.231-.03.026.19.232-.031.026.19.232-.031.026.19.231-.031.026.19.232-.03.026.189.231-.031.026.19.232-.031.025.19.232-.031.026.19.232-.03.026.19.232-.031.026.19.232-.03.026.19.232-.032.026.19.231-.03.026.19.232-.023.02.191.233-.017.015.192.232-.017.015.191.233-.018.015.192.233-.017.014.192.234-.018.014.192.234-.017.013.191.234-.017.014.192.234-.018.014.192.233-.017.015.192.233-.018.014.191.234-.017.013.192.234-.018.015.192.233-.017.014.192.233-.018.015.192.234-.018.014.193.233-.018.014.191.233-.017.015.192.234-.018.013.192.234-.017.015.191.233-.017.014.191.234-.017.013.192.234-.018.015.193.233-.018.014.192.233-.018.015.192.234-.017.013.192.234-.018.014.191.233-.016.015.19.234-.017.013.192.234-.017.015.192.233-.018.014.192.233-.018.014.192.234-.018.015.193.233-.018.014.192.233-.018.015.192.234-.017.013.191.234-.018.014.192.233-.017.015.192.233-.018.014.192.234-.017.015.191.232-.017.015.192.233-.018.014.191.234-.016.014.192.234-.018.014.191.233-.017.015.192.232-.017.015.191.234-.018.014.192.233-.017.015.192.233-.018.014.192.234-.017.014.191.233-.017.015.192.233-.018.014 3.84 4.675 2.059-1.691-.192-.233.017-.015-.192-.234.018-.014-.192-.233.018-.014-.192-.233.018-.015-.192-.234.017-.013-.192-.234.018-.014-.192-.234.017-.013-.192-.234.019-.014-.192-.234.017-.014-.192-.233.018-.014-.192-.234.017-.015-.191-.233.017-.014-.192-.233.018-.015-.192-.233.018-.015-.193-.233.018-.014-.191-.233.017-.015-.191-.233.016-.014-.191-.234.018-.014-.192-.234.016-.014-.191-.233.018-.014-.192-.234.017-.015-.191-.232.017-.015-.192-.233.018-.014-.192-.235.018-.014-.193-.233.018-.014-.192-.234.017-.014-.192-.233.018-.015-.191-.233.017-.015-.192-.233.018-.014-.192-.233.017-.015-.191-.234.017-.014-.192-.233.017-.015-.19-.232.016-.015-.191-.234.017-.013-.192-.234.018-.015-.192-.233.017-.014-.191-.233.017-.015-.191-.233.017-.015-.192-.233.018-.014-.192-.233.016-.014-.19-.235.017-.013-.192-.234.018-.014-.192-.233.017-.015-.192-.233.018-.014-.191-.234.017-.015-.193-.233.018-.014-.191-.233.017-.014-.191-.234.017-.014-.192-.234.018-.014-.192-.233.017-.014-.192-.234.018-.014-.191-.233.023-.019-.19-.231.032-.026-.191-.232.031-.026-.19-.232.031-.025-.19-.232.031-.026-.19-.232.03-.026-.19-.232.032-.025-.19-.232.03-.026-.19-.233.03-.025-.19-.232.032-.026-.19-.232.03-.026-.19-.232.031-.025-.19-.232.031-.026-.19-.232.03-.026-.19-.232.03-.025-.189-.231.032-.026-.191-.232.031-.025-.19-.232.032-.027-.191-.231.03-.026-.19-.232.032-.025-.191-.233.032-.025-.178-.217.08-.065-.171-.209.103-.085-.171-.209.103-.087-.171-.209.104-.086-.172-.209.104-.086-.172-.209.105-.086-.173-.21.104-.085-.172-.21.105-.085-.172-.21.105-.085-.173-.209.104-.086-.172-.211.104-.085-.172-.209.105-.086-.172-.209.104-.086-.172-.21.104-.086-.172-.209.104-.085-.172-.21.105-.086-.173-.21.105-.086-.173-.209.105-.086-.172-.209.104-.085-.171-.21.104-.086-.133-.162.158-.13-.111-.135.188-.155-.112-.137.19-.156-.113-.137.19-.155-.112-.138.19-.155-.112-.138.19-.155-.113-.137.19-.156-.112-.137.19-.155-.111-.138.189-.155-.113-.138.19-.155-.112-.136.19-.156-.113-.138.19-.156-.111-.137.19-.156-.113-.136.19-.156-.112-.137.19-.156-.113-.136.19-.156-.112-.138.19-.155-.057-.07.22-.182-.055-.067.225-.183-.056-.068.224-.184-.055-.067.224-.185-.055-.067.224-.184-.055-.068.223-.184-.055-.067.224-.184-.056-.068.226-.184-.056-.067.224-.184-.055-.067.224-.184-.056-.068.225-.185-.056-.067.224-.184-.055-.067.224-.184-.055-.067.224-.184-.056-.068.225-.184-.055-.068.223-.184-.055-.067.224-.184-.056-.068.225-.184-.055-.068.224-.183-.055-.067.224-.184-.056-.068.224-.184-.055-.067.223-.184-.055-.068.225-.184-.056-.068.224-.184-.055-.067.224-.184-.054-.068.223-.184-.055-.067.224-.184-.056-.068.224-.184-.055-.067.224-.184-.056-.067.225-.184-.055-.068.224-.184-.055-.067.223-.184-.055-.068.225-.184-.056-.068.224-.184-.055-.067.224-.184-.056-.068.224-.183-.055-.067.225-.185-.055-.067.223-.184-.055-.068z" fill="#EEE1D9"/><path d="M120.903 145.636l-.035.027-.185-.236-.035.027-.184-.235-.035.027-.185-.236-.035.027-.184-.235-.035.027-.185-.236-.035.027-.184-.235-.082.063-.168-.215-.158.124-.14-.179-.157.122-.14-.179-.158.123-.14-.179-.02.016-.018-.023-.219.172-.074-.095-.22.171-.074-.095-.219.171-.073-.094-.219.171-.074-.095-.219.171-.074-.094-.22.171-.074-.095-.218.171-.074-.095-.22.172-.074-.095-.218.171-.074-.095-.22.172-.074-.095-.219.171-.074-.095-.219.171-.074-.094-.218.171-.074-.095-.219.171-.075-.095-.219.172-.074-.095-2.101 1.642.005.006-.233.182.025.032-.237.185.026.033-.237.184.026.033-.237.185.025.032-.236.184.026.034-.236.185.025.031-.237.185.026.033-.237.185.026.032-.236.185.025.032-.237.185.026.032-.237.185.026.033-.237.184.026.033-.236.185.025.032-.237.184.026.033-.237.185.026.033-.237.184.026.033-.237.185.025.033-.236.185.025.032-.236.184.025.033-.236.185.025.032-.236.185.025.032-.237.185.026.032-.236.185.025.033-.236.185.025.032-.236.185.025.032-.237.185.026.032-.236.185.025.033-.236.184.025.033-.236.185.025.033-.236.184.025.032-.236.185.025.033-.236.184.025.033-.237.185.025.032-.236.185.025.033-.236.184.025.033-.236.185.025.032-.236.185.025.032-.236.185.025.032-.236.185.025.033-.236.185.025.032-.236.185.026.033-.237.184.025.032-.236.185.025.033-.236.184.025.033-.236.185.025.032-.236.184.025.033-.236.185.025.033-.236.184.026.033-.237.185.026.032-.237.185.025.032-.236.185.025.032-.236.185.026.033-.237.185.025.031-.236.185.025.033-.236.185.025.032-.236.185.026.033-.238.185.025.032-.236.185.025.032-.236.185.026.033-.237.184.026.033-.237.185.026.033-.237.184.005.006-.238.186.003.004-.239.187.004.005-.239.186.003.004-.238.186.004.004-.24.187.005.005-.24.186.004.005-.239.186.004.005-.238.186.003.004-.239.187.003.004-.239.186.004.005-.238.186.004.004-.24.187.004.004-.239.187.003.004-.239.186.004.005-.238.186.003.004-.239.187.004.004-.24.187.005.005-.24.186.004.004-.238.186.003.004-.239.187.004.005-.239.187.004.004-.239.186.004.005-.239.186.004.004-.24.187.004.004-.239.187.004.004-.238.186.003.005-.239.186.004.004-.24.187.004.005-.238.186.004.004-.24.186.005.005-.24.187.004.004-.239.187.003.004-.238.186.004.005-.239.186.003.004-.238.187.003.004-.24.187.005.005-.238.186.003.004-.239.186.004.005-.239.187.003.004-.238.186.003.004-.239.187.004.004-.24.186.005.005-.24.187.004.004-.238.186.003.004-.239.187.004.004-.239.187.004.004-.239.186.004.004-.24.187.005.005-.24.186.004.004-.239.187.004.005-.238.186.003.004-.239.187.004.004-.24.186.004.005-.238.187.003.004-.238.186.003.004-.239.187.004.005-.239.186.003.004-.238.186.003.004-.238.187.003.005-.239.186.004.005-.24.186.145.185-.064.051.186.238-.013.01.186.238-.013.009.187.239-.013.01.186.239-.012.009.186.238-.014.01.187.239-.013.01.186.238-.012.01.186.238-.013.01.187.239-.013.01.186.238-.013.01.186.238-.012.01.186.238-.013.011.186.238-.013.01.186.238-.012.01.186.238-.013.011.186.238-.012.009.186.238-.013.011.186.238-.013.011.186.238-.012.009.186.238-.013.011.186.238-.013.011.186.238-.012.009.186.238-.013.01.186.239-.012.01.186.238-.013.01.187.239-.013.01.186.238-.013.01.187.239-.012.009.186.238-.013.011.186.238-.013.01.186.239-.012.009.186.238-.013.011.186.238-.013.01.186.239-.012.009.186.238-.013.011.186.238-.012.009.186.239-.013.01.186.238-.013.01.186.239-.012.009.186.239-.013.01.186.238-.013.01.186.239-.012.009.186.239-.013.01.186.238-.012.01.186.238-.013.01.187.239-.014.01.186.238-.012.01.187.239-.013.009.187.238-.014.01.186.238-.013.011.187.239-.012.009.186.238-.014.01.186.238-.013.011.187.239-.012.009.186.238-.013.01.186.238-.013.01.187.239-.013.01.186.238-.013.01.186.238-.013.01.187.239-.013.01.186.238-.013.01.186.238-.013.01.187.239-.013.01.186.238-.012.01.186.238-.013.01.186.239-.013.01.186.238-.012.01.186.238-.012.009 3.729 4.774.013-.01.185.238.035-.028.184.236.034-.027.185.236.035-.027.185.236.035-.027.184.235.035-.026.184.236.036-.028.184.237.035-.027.184.236.035-.028.185.236.034-.026.184.235.034-.027.185.237.035-.028.185.237.035-.028.185.237.034-.027.184.235.035-.027.185.236.034-.027.184.236.036-.027.184.236.035-.027.184.237.035-.028.185.236.035-.026.184.235.035-.027.184.236.036-.027.184.235.034-.027.185.237.035-.028.184.236.034-.027.186.237.035-.027.184.235.034-.027.185.237.035-.028.184.236.035-.027.184.237.035-.028.184.236.036-.028.184.237.035-.027.184.236.036-.027.184.236.035-.027.184.236.034-.027.185.236.035-.027.184.235.034-.026.185.236.035-.027.185.236.035-.028.185.237.034-.027.184.236.035-.028.185.237.034-.027.184.235.036-.027.184.236.035-.027.184.237.036-.028.184.236.034-.027.185.236.035-.027.185.236.035-.027.184.235.034-.026.185.236.035-.028.185.237.034-.027.184.236.036-.028.185.236.076-.06.176.226.076-.059.177.226.076-.059.177.226.077-.06.176.225.076-.059.177.227.076-.06.177.226.076-.06.177.227.077-.06.176.226.076-.06.177.227.076-.06.177.226.076-.059.177.226.077-.06.176.226.076-.059.177.226.076-.059.177.226.076-.061.177.226.076-.059.177.226.077-.06.176.226.076-.059.177.226.076-.059.177.226.076-.06.177.227.077-.06.176.225.076-.059.177.227.076-.06.177.226.076-.06.177.227.077-.06.176.226.076-.06.177.227.076-.06.177.226.076-.059.176.226.077-.061.177.227.076-.059.176.225.077-.059.177.227.076-.06.176.226.077-.06.177.226.076-.059.176.226.077-.06.177.227.094-.074.171.218.1-.078.169.217.101-.079.169.217.1-.078.169.217.1-.078.169.217.1-.078.17.216.099-.077.17.216.1-.078.17.216.1-.078.169.217.101-.078.169.216.1-.078.168.216.1-.078.17.217.099-.078.17.217.1-.078.169.217.1-.079.17.217.1-.078.169.217.101-.079.169.217.1-.078.169.217.169-.132.122.157.202-.157.099.128.201-.158.101.129.201-.158.1.129.202-.157.1.128.201-.157.1.128.201-.158.1.129.202-.157.1.128.201-.157.101.128.201-.157.099.128.202-.158.1.129.201-.157.101.128.201-.157.1.128.225-.176.04.051.238-.186v.001l.239-.187.001.001.239-.186.239-.186.001.001.238-.186.001.001.239-.186h.001l.239-.186.001.001.239-.186v.001l.238-.186.001.001.239-.187.001.002.239-.187.001.001.238-.187.001.001.239-.187.001.002.238-.186.001.001.239-.187v.001l.239-.187.002.002.238-.187.001.001.238-.186.001.001 2.101-1.642-.002-.003.238-.187-.054-.069.228-.178-.055-.07.228-.178-.055-.07.229-.178-.055-.071.228-.178-.054-.069.228-.179-.054-.069.228-.179-.055-.07.228-.178-.054-.07.228-.178-.054-.07.228-.178-.055-.07.228-.179-.054-.069.228-.178-.055-.071.228-.178-.054-.07.228-.178-.054-.069.228-.179-.055-.07.228-.178-.054-.07.228-.178-.055-.071.228-.178-.054-.069.228-.179-.054-.069.228-.179-.054-.069.228-.178-.055-.071.228-.178-.088-.113.205-.16-.122-.155.182-.142-.122-.155.181-.142-.121-.154.182-.142-.121-.156.181-.141-.121-.156.181-.141-.122-.155.182-.142-.122-.156.182-.142-.122-.155.181-.141-.121-.155.182-.142-.121-.155.18-.141-.121-.156.182-.142-.121-.154.181-.142-.121-.156.181-.141-.122-.155.182-.142-.122-.156.182-.141-.121-.156.18-.141-.12-.155.181-.142-.121-.155.181-.141-.17-.217.08-.063-.181-.232.052-.041-.182-.233.053-.042-.181-.232.052-.041-.182-.233.053-.041-.182-.234.053-.041-.181-.232.052-.041-.181-.233.052-.041-.182-.233.053-.041-.182-.233.052-.041-.181-.233.053-.041-3.729-4.773-.05.039-.166-.213-.138.108-.153-.196-.137.107-.152-.194-.137.107-.153-.195-.138.107-.152-.195-.137.108-.153-.196-.137.108-.152-.195-.138.107-.153-.195-.137.107-.152-.195-.138.108-.152-.196-.138.108-.152-.196-.129.1-.157-.201-.129.101-.156-.201-.129.101-.158-.201-.128.1-.157-.201-.129.1-.156-.2-.129.1-.157-.201-.129.101-.157-.201-.129.1-.157-.201-.128.1-.157-.2-.129.101-.157-.201-.129.1-.157-.201-.128.1-.158-.201-.128.1-.157-.2-.129.101-.157-.201-.129.1-.157-.201-.128.1-.157-.201-.13.101-.157-.202-.064.05-.178-.228-.058.045-.181-.231-.057.045-.181-.232-.057.045-.182-.232-.058.045-.181-.231-.057.044-.181-.231-.058.045-.181-.231-.057.044-.181-.231-.058.045-.181-.231-.057.045-.181-.232-.057.045-.181-.232-.058.046-.182-.233-.058.046-.181-.232-.057.045-.181-.232-.058.046-.181-.232-.057.045-.181-.231-.057.044-.181-.231-.058.045-.181-.231-.057.044-.182-.232-.058.046-.181-.232-.057.045-.181-.232-.058.046-.112-.144.018-.014-.184-.236.036-.028-.184-.236.036-.028-.185-.236.036-.028-.185-.237.036-.028-.184-.235.037-.029-.184-.236.036-.028-.184-.235.036-.029-.185-.236.036-.028-.185-.236.037-.029-.184-.236.036-.028-.184-.236.036-.028-.185-.236.036-.028-.184-.236.037-.029-.184-.235.036-.028-.185-.237.036-.028-.184-.235.036-.028-.184-.237.036-.029-.184-.235.036-.028-.184-.236.036-.028-.184-.236.036-.029-.159-.202.111-.087-.147-.187.149-.116-.146-.187.148-.115-.145-.187.149-.117-.145-.186.148-.116-.147-.187.149-.117-.145-.186.148-.117-.145-.186.149-.116-.146-.187.149-.116-.146-.187.148-.115-.146-.188.149-.116-.146-.186.149-.117-.146-.186.149-.117-.146-.186.148-.116-.145-.186.149-.117-.145-.187.148-.115-.147-.188.149-.116-.146-.187.149-.116-.145-.186.148-.117-.145-.186.149-.117-.146-.186.148-.116-.146-.186.149-.117-.146-.187.149-.116-.146-.187.149-.116-.146-.186.149-.117-.146-.186.149-.117-.146-.187.148-.116-.146-.186.149-.116-.14-.18.155-.121-.103-.132.199-.156-.104-.133.197-.155-.104-.134.197-.154-.104-.133.198-.156-.103-.132.198-.155-.104-.133.197-.154-.104-.133.198-.156-.104-.133.198-.155-.105-.134.198-.155-.103-.132.198-.155-.104-.133.197-.154-.104-.133.198-.156-.104-.133.198-.155-.104-.133.197-.154-.104-.133.199-.156-.105-.133.198-.155-.104-.133.198-.155-.104-.133.198-.155-.104-.133.198-.155-.104-.133.198-.155-.105-.133.198-.155-.104-.133.198-.155-.104-.133.198-.155-.104-.133.198-.155-.104-.133.197-.155-.104-.133.198-.155-.096-.123.203-.159-.092-.118.208-.162-.092-.118.208-.162-.091-.117.207-.163-.092-.118.208-.162-.091-.117.207-.162-.092-.118.208-.162-.091-.117.208-.163-.092-.117.207-.163-.091-.117.208-.162-.092-.118.207-.162-.092-.118.208-.162-.091-.117.208-.163-.092-.117.208-.162-.092-.118.208-.162-.092-.117.208-.162-.092-.118.208-.162-.092-.117.208-.163-.092-.118.208-.162-.092-.118.208-.162-.099-.127.2-.156-.14-.179.158-.124-.139-.178.157-.123-.139-.179.159-.124-.14-.179.159-.124-.14-.178.158-.124-.139-.178.159-.124-.14-.179.158-.124-.139-.178.158-.124-.14-.178.158-.123-.139-.179.159-.124-.14-.179.158-.124-.139-.178.158-.123-.14-.18.159-.124-.163-.207.059-.046-3.729-4.773z" fill="#A1551F"/><path d="M133.176 49.856l-.172-.22-.093.073-.172-.22-.092.072-.172-.22-.093.072-.171-.219-.093.073-.172-.22-.093.072-.171-.22-.093.072-.172-.22-.093.073-.172-.22-.092.072-.172-.219-.093.073-.172-.22-.092.072-.173-.22-.092.071-.172-.219-.093.073-.172-.22-.092.072-.172-.22-.092.072-.172-.22-.094.073-.171-.219-.092.072-.172-.22-.093.072-.172-.22-.093.073-.172-.22-.092.072-.172-.22-.093.073-.172-.22-.093.072-.172-.22-.092.072-.172-.22-.093.073-.172-.219-.092.072-.172-.22-.092.072-.172-.22-.093.073-.172-.22-.093.072-.172-.22-.092.073-.171-.22-.094.073-.172-.22-.092.072-.172-.22-.093.073-.172-.22-.093.073-.171-.22-.093.072-.172-.22-.093.072-.172-.22-.092.073-.172-.22-.093.073-.172-.22-.092.072-.172-.22-.093.073-.172-.22-.092.072-.172-.22-.093.073-.171-.22-.093.073-.172-.221-.094.073-.171-.22-.092.073-.172-.22-.093.072-.172-.22-.093.073-.172-.22-.092.072-.172-.22-.093.073-.172-.22-.144.113-.147-.188-.157.123-.14-.178-.159.124-.139-.179-.158.124-.14-.18-.158.125-.14-.179-.158.124-.14-.179-.158.123-.14-.178-.157.123-.14-.178-.158.124-.14-.178-.158.124-.14-.18-.158.124-.14-.178-.158.124-.14-.18-.158.124-.139-.178-.159.123-.139-.178-.158.123-.14-.178-.158.124-.14-.179-.159.124-.139-.178-.158.123-.14-.18-.158.124-.139-.178-.159.124-.139-.178-.158.123-.14-.178-.158.124-.14-.18-.159.124-.139-.178-.158.123-.14-.179-.159.124-.139-.178-.158.123-.139-.178-.159.124-.14-.18-.158.124-.139-.178-.159.124-.139-.178-.158.123-.14-.18-.159.125-.139-.179-.158.124-.139-.179-.159.124-.14-.179-.158.124-.14-.178-2.1 1.641 3.729 4.774.12-.093.159.203.121-.094.16.205.122-.095.161.205.121-.094.16.205.121-.095.161.206.121-.096.162.206.121-.094.16.205.121-.094.16.205.122-.095.161.205.121-.095.161.207.121-.095.16.205.121-.094.161.205.122-.095.161.206.121-.095.16.206.121-.095.161.205.122-.095.16.206.121-.095.161.206.122-.095.16.205.121-.094.16.206.122-.096.161.206.121-.094.16.205.122-.095.161.205.121-.094.16.205.121-.095.161.206.122-.096.161.207.121-.095.16.205.121-.094.161.205.121-.094.161.206.122-.096.16.206.121-.095.16.206.122-.095.16.205.122-.095.161.206.121-.095.16.206.122-.095.161.205.121-.095.161.206.121-.094.16.205.121-.094.161.205.121-.095.16.206.122-.096.16.206.122-.095.161.206.121-.095.161.205.121-.094.16.205.121-.094.161.205.121-.095.161.206.122-.095.16.206.121-.095.161.205.121-.094.161.206.122-.095.16.205.121-.095.161.206.121-.095.161.206.122-.095.16.205.121-.094.16.205.122-.095.16.206.121-.095.161.206.122-.095.16.205.121-.095.161.206.121-.095.16.206.122-.095.161.205.121-.095.161.206.122-.095.16.206.12-.094.161.205.122-.095.161.206.121-.095.16.206.121-.095.161.205.121-.095.161.205.121-.094.161.206.122-.095.16.205.121-.094.161.205.121-.095.161.206.121-.094.16.205.122-.095.161.205.121-.094.16.205.121-.095.161.206.121-.096.161.206.122-.094.16.205.121-.094.16.205.122-.095.161.205.121-.094.161.206.121-.095.16.205.121-.094.161.205.116-.09.153.196 2.102-1.642-3.729-4.773-.093.072z" fill="#fff"/><path d="M150.977 83.596l-.089-.114-.022.017-.088-.112-.022.017-.088-.113-.022.018-.089-.113-.021.016-.087-.112-.022.018-.089-.113-.023.018-.088-.113-.021.016-.088-.112-.022.017-.088-.112-.022.017-.088-.113-.022.017-.088-.113-.023.018-.088-.113-.022.017-.087-.112-.022.017-.089-.113-.022.018-.088-.113-.022.017-.088-.113-.022.017-.088-.112-.022.017-.088-.112-.022.017-.088-.113-.022.017-.088-.112-.022.017-.088-.112-.022.016-.088-.113-.022.018-.087-.113-.023.018-.089-.113-.021.017-.088-.113-.022.017-.088-.112-.022.017-.089-.113-.022.017-.087-.112-.022.017-.088-.112-.023.017-.088-.113-.022.017-.087-.112-.022.017-.089-.112-.022.017-.088-.113-.022.017-.088-.113-.022.018-.088-.113-.022.018-.088-.113-.022.017-.088-.113-.022.017-.088-.112-.021.017-.089-.113-.022.017-.088-.112-.022.017-.087-.112-.023.017-.088-.114-.022.017-.088-.112-.043.034-.082-.104-.06.046-.076-.097-.06.047-.077-.098-.06.047-.077-.099-.06.048-.076-.097-.06.046-.077-.098-.059.047-.077-.098-.06.047-.077-.098-.059.047-.077-.098-.06.047-.076-.098-.06.047-.077-.098-.06.047-.076-.097-.06.047-.077-.098-.06.046-.076-.097-.059.047-.077-.098-.061.047-.076-.098-.06.046-.076-.097-.061.047-.076-.098-.06.047-.077-.098-.06.047-.076-.097-.06.046-.077-.098-.06.047-.076-.097-.06.047-.077-.098-.06.047-.077-.098-.06.046-.076-.097-.06.047-.077-.098-.06.047-.076-.098-.059.047-.077-.098-.061.047-.076-.097-.059.047-.077-.099-.061.048-.076-.099-.06.047-.076-.097-.06.046-.076-.098-.061.048-.077-.099-.059.047-.076-.097-.061.047-.077-.098-.059.047-.076-.098-.06.047-.077-.098-.06.047-.076-.097-.06.046-.077-.098-.06.047-.076-.097-.06.047-.077-.098-.06.047-.077-.098-.072.056-.065-.084-.104.082-.038-.049-.104.082-.038-.048-.104.081-.038-.048-.104.082-.039-.05-.104.082-.037-.048-.104.08-.037-.047-.105.082-.038-.048-.104.08-.037-.047-.104.08-.038-.047-.104.08-.038-.048-.105.082-.038-.049-.103.081-.038-.048-.105.082-.037-.047-.104.08-.038-.048-.103.082-.039-.05-.104.082-.038-.048-.104.081-.038-.048-.104.081-.037-.048-.104.081-.038-.048-.105.082-.037-.049-.104.081-.038-.048-.104.081-.038-.048-.104.082-.038-.048-.104.08-.038-.047-.104.081-.038-.048-.104.081-.038-.048-.103.081-.038-.048-.104.081-.038-.048-.104.082-.038-.049-.104.081-.038-.048-.104.081-.037-.048-.105.082-.038-.048-.104.08-.037-.047-.105.081-.038-.048-.104.081-.037-.048-.104.081-.038-.048-.104.081-.037-.048-.11.085-.005-.006-.936.731.017.022-.113.088.018.023-.113.088.018.023-.112.087.017.023-.112.088.017.023-.112.088.018.022-.113.088.018.023-.113.088.017.022-.112.088.017.022-.113.088.018.023-.112.087.018.023-.113.088.017.023-.112.088.017.023-.112.087.018.022-.113.088.017.023-.113.088.018.023-.112.087.018.023-.113.088.017.022-.112.088.018.023-.113.088.017.022-.112.088.017.023-.112.088.018.022-.113.088.018.023-.112.088.017.022-.112.089.017.022-.113.088.017.022-.112.088.018.022-.113.089.017.022-.112.087.018.023-.113.088.018.023-.113.088.018.023-.112.087.017.023-.112.088.017.022-.112.088.017.022-.113.088.018.023-.113.088.018.023-.112.088.017.022-.113.088.018.023-.113.088.018.022-.112.088.017.023-.112.088.017.022-.112.087.018.023-.113.089.017.022-.113.088.018.023-.112.087.017.022-.113.089.018.022-.112.088.017.022-.112.088.017.023-.112.088.017.023-.112.087.018.023-.113.088.018.023-.112.088.017.022-.113.088.017.022-.113.088.018.023-.112.088.018.023-.113.088.017.022-.112.087.018.023-.113.088.018.023-.113.088.018.023-.112.087.017.022-.113.088.018.023-.113.088.017.023-.112.087.018.023-.113.088.017.022-.112.088.018.023-.113.088.018.022-.113.088.018.023-.112.088.017.022-.113.088.018.023-.112.088.018.022-.113.089.017.022-.113.088.017.022-.112.088.018.022-.113.089.018.022-.112.087.017.023-.112.088.017.023-.112.089.017.021-.112.088.017.022-.113.088.018.023-.112.088.018.023-.113.088.017.022-.113.088.018.023-.112.088.017.022-.112.088.017.023-.112.088.017.022-.112.088.018.023-.113.088.017.022-.112.087.018.023-.113.089.018.022-.113.089.017.022-.112.087.017.022-.112.088.017.023-.112.088.018.022-.113.088.018.023-.113.088.018.023-.112.088.017.022-.113.088.017.022-.112.088.018.023-.113.088.017.022-.112.088.017.023-.112.088.018.023-.113.088.018.022-.112.087.017.023-.112.088.017.022-.113.089.018.023-.112.087.017.022-.113.089.018.022-.113.088.017.023-.112.087.018.023-.113.088.018.022-.112.088.017.023-.112.088.017.022-.113.088.018.023-.113.088.018.023-.112.088.017.022-.112.088.017.022-.113.088.018.023-.113.088.018.022-.112.087.017.023-.112.089.017.022-.112.088.015.019-.114.089.015.018-.113.089.016.02-.113.088.014.018-.113.09.015.019-.113.088.015.019-.114.089.015.02-.112.088.015.02-.113.087.015.02-.114.088.015.019-.113.088.015.02-.113.088.015.019-.114.088.016.02-.113.088.014.02-.112.087.015.02-.114.089.015.02-.112.088.014.018-.113.089.015.018-.114.09.016.019-.113.088.015.019-.113.088.015.02-.114.088.015.02-.113.087.015.02-.113.089.074.095-.025.02.089.114-.002.002.09.114-.003.002.091.115-.003.002.09.115-.002.001.09.115-.002.002.089.115-.002.001.09.115-.003.002.09.114-.003.002.091.115-.002.001.089.115-.002.002.089.115-.002.001.089.115-.001.001.09.115-.002.002.09.114-.003.002.09.115-.003.002.09.115-.001.001.089.115-.002.002.089.114-.002.002.09.116h-.002l.09.115-.003.002.09.115-.002.001.09.115-.002.002.089.115-.001.001.089.115-.002.002.09.115-.003.002.09.114-.002.002.09.114-.003.002.09.115-.002.002.089.115-.001.001.089.115-.002.002.089.114-.001.001.09.116-.003.002.09.114-.003.002.09.115h-.002l.089.115-.002.002.09.116h-.001l.089.115-.002.002.089.115-.002.001.09.115-.002.002.09.115h-.001l1.794 2.297.002-.002.09.114.002-.002.09.116.003-.002.089.114.002-.002.09.115.002-.002.09.114.002-.001.09.115.003-.002.089.114.003-.001.089.114.003-.002.089.115.002-.002.09.116.002-.002.09.114.002-.002.09.115.002-.002.09.115.003-.002.089.115.003-.002.089.115.003-.002.09.115.002-.002.09.115.002-.002.09.115.003-.002.089.115.003-.002.089.114.003-.002.09.116.002-.002.09.114.002-.002.09.115.001-.001.09.114.002-.002.09.115.003-.001.089.114.003-.002.089.115.003-.002.09.115.002-.002.09.115.002-.002.09.114.002-.002.089.115.002-.001.09.115.003-.002.089.115.003-.002.089.114.002-.002.09.115.002-.002.091.115.002-.002.089.115.003-.002.089.114.003-.002.09.116.002-.002.09.114.002-.002.09.115.002-.002.09.115.003-.001.089.114.003-.002.089.115.003-.002.09.115.001-.001.09.114.002-.002.09.116.003-.002.089.114.003-.002.089.115.003-.002.089.115.003-.002.09.115.002-.002.09.115.002-.002.09.114.002-.002.09.115.002-.002.09.115.003-.002.089.115.003-.002.089.114.002-.002.09.115.002-.002.09.115.002-.001.09.115.002-.002.09.114.002-.002.09.116.003-.002.089.114.002-.002.09.115.002-.002.091.115.002-.002.089.115.003-.002.089.114.003-.001.09.115.002-.002.09.115.002-.002.09.115.002-.001.09.114.002-.002.089.115.003-.002.089.114.003-.002.09.116.002-.002.09.114.002-.002.09.115.002-.002.09.115.003-.001.089.114.003-.002.089.115.003-.002.089.114.003-.002.09.116.001-.002.09.115.002-.002.09.114.002-.001.09.114.002-.002.09.116.003-.002.089.114.003-.002.089.115.003-.002.09.115.002-.002.09.115.002-.002.089.114.003-.002.09.116.003-.002.089.114.002-.002.09.115.002-.002.09.115.003-.002.089.115.002-.001.09.114.002-.002.09.116.003-.002.089.114.002-.002.09.115.032-.025.069.089.113-.088.014.018.114-.089.014.018.113-.088.014.018.114-.089.014.018.114-.089.014.018.113-.088.014.018.113-.089.014.018.114-.089.013.017.113-.088.014.018.114-.089.014.018.114-.088.014.018.113-.089.014.018.114-.088.013.017.113-.088.014.018.114-.089.014.018.113-.089.014.018.113-.088.014.018.114-.089.014.018.114-.089.013.017.113-.088.014.018.114-.089.014.018.113-.088.016.02.112-.087.018.024.113-.089.019.024.112-.087.018.023.113-.087.018.023.113-.088.019.024.112-.088.018.024.112-.087.018.022.112-.087.019.024.112-.087.018.023.113-.088.019.023.112-.087.018.024.113-.089.019.024.112-.088.018.024.112-.087.019.023.113-.088.018.024.112-.088.019.024.112-.087.018.022.113-.088.019.025.112-.088.019.024.112-.088.017.023.113-.087.018.023.113-.088.018.024.113-.088.018.024.113-.088.019.024.112-.088.018.024.112-.088.019.024.113-.088.018.024.112-.088.019.024.112-.088.018.024.113-.088.018.023.112-.088.019.024.112-.088.018.024.112-.088.019.024.113-.088.018.024.112-.088.019.024.112-.088.019.024.112-.088.019.023.112-.087.019.024.112-.089.019.024.112-.087.018.023.112-.088.019.024.112-.089.02.025.112-.088.018.023.112-.087.018.024.112-.088.019.024.113-.088.018.023.112-.087.019.023.112-.087.018.024.113-.089.019.024.112-.087.018.023.113-.088.019.024.112-.088.018.024.112-.088.018.023.112-.087.019.023.113-.088.018.024.112-.088.019.024.112-.087.019.023.112-.087.018.024.113-.089.019.024.112-.088.018.024.113-.088.019.024.112-.088.018.024.112-.088.018.023.113-.088.019.024.112-.088.018.024.112-.088.019.024.113-.088.018.024.112-.088.019.024.112-.088.018.024.112-.088.019.024.113-.088.018.024.112-.088.019.024.113-.088.018.023.112-.087.018.023.112-.088.02.025.112-.089.018.023.112-.087.019.024.112-.088.019.024.112-.088.019.023.112-.087.019.023.112-.087.018.024.112-.088.019.024.113-.088.018.023.112-.087.018.023.112-.088.019.025.113-.089.019.024.112-.087.018.022.113-.088.018.024.112-.088.019.024.112-.087.018.023.112-.087.019.024.113-.089.018.024.112-.088.019.024.112-.087.019.023.112-.088.019.024.112-.088.019.024.112-.087.018.022.112-.088.019.024.112-.088.019.024.112-.088.019.024.112-.088.019.024.112-.088.018.024.112-.088.019.024.113-.088.018.024.112-.088.019.024.112-.088.018.024.112-.088.018.023.113-.088.019.024.112-.088.019.025.113-.088.018.023.112-.088.018.024.112-.088.019.024.113-.088.018.023.112-.087.019.024.039-.031.007.008.936-.732-.036-.046.105-.082-.037-.047.105-.081-.037-.047.106-.083-.037-.046.104-.081-.035-.046.105-.083-.036-.046.104-.082-.036-.047.105-.081-.037-.047.106-.083-.037-.046.105-.082-.036-.047.104-.081-.036-.047.105-.082-.037-.046.106-.083-.037-.047.105-.081-.036-.047.105-.082-.036-.047.104-.082-.035-.046.104-.081-.036-.047.105-.082-.037-.046.105-.082-.037-.047.106-.082-.037-.047.105-.082-.036-.046.105-.083-.036-.046.105-.082-.037-.047.105-.082-.037-.046.105-.082-.036-.047.104-.082-.036-.046.105-.083-.035-.045.104-.082-.036-.047.105-.082-.036-.047.105-.082-.037-.046.105-.082-.036-.047.104-.082-.036-.046.105-.082-.037-.047.106-.082-.037-.047.105-.081-.037-.047.106-.083-.036-.045.104-.082-.037-.047.106-.082-.036-.046.104-.082-.036-.047.105-.082-.071-.09.069-.055-.073-.094.064-.05-.074-.095.066-.051-.074-.094.066-.051-.074-.094.066-.052-.074-.094.065-.052-.074-.094.065-.05-.074-.095.065-.051-.073-.094.065-.051-.074-.095.066-.051-.074-.094.066-.052-.074-.094.065-.05-.074-.095.065-.051-.073-.094.065-.051-.074-.095.065-.051-.073-.094.064-.05-.073-.095.066-.052-.074-.095.065-.05-.074-.094.066-.051-.075-.095.066-.051-.074-.094.065-.05-.074-.096.065-.05-.073-.095.065-.051-.074-.095.066-.051-.074-.094.066-.051-.074-.094.065-.05-.074-.096.065-.05-.074-.095.066-.051-.074-.095.065-.051-.073-.094.065-.051-.074-.095.065-.05-.074-.095.066-.05-.075-.096.066-.05-.074-.095.066-.051-.074-.095.065-.051-.073-.094.064-.05-.073-.095.065-.05-.074-.096.066-.05-.074-.095.065-.051-.074-.095.066-.051-.074-.094.066-.051-.074-.095.064-.05-.073-.095.065-.05-.074-.096.065-.05-.074-.097.061-.047-.088-.112.027-.021-.087-.111.026-.02-.088-.113.027-.02-.088-.112.025-.02-.087-.111.027-.02-.088-.113.026-.02-.087-.112.026-.02-.088-.113.026-.02-.087-.11.026-.021-.088-.112.027-.02-.088-.113.026-.02-.087-.112.026-.02-.088-.111.026-.021-.087-.112.026-.02-.088-.113.026-.02-.086-.111.025-.02-.088-.112.027-.02-.088-.113.026-.02-.087-.111.026-.02-.087-.113.025-.02-.087-.11.026-.021-.087-.112.026-.02-.087-.113.026-.02-.088-.112.025-.02-.086-.112.026-.02-.088-.112.026-.02-.087-.113.025-.02-.087-.11.026-.021-.087-.112.026-.02-.087-.113.026-.02-.088-.112.025-.02-.086-.111.026-.02-.088-.113.026-.02-.087-.112.026-.02-.087-.112.025-.02-.087-.112.026-.02-.088-.112.027-.02-.088-.113.026-.02-.087-.112.026-.02-.088-.112.026-.02-.087-.112.026-.02-.087-.112.026-.02-.087-.112.023-.018-.091-.115-.089-.115-.09-.115-.09-.115-.089-.114-1.345-1.722-.09-.115-.09-.115-.089-.115-.09-.114-.09-.115-.005.003z" fill="#1164EA"/><path d="M149.772 85.558l-.003.003-.089-.114-.02.016-.088-.113-.019.015-.088-.113-.02.015-.088-.114-.019.015-.088-.113-.02.015-.088-.112-.02.015-.089-.114-.019.015-.088-.113-.019.015-.088-.113-.019.015-.089-.114-.02.016-.088-.113-.019.014-.088-.112-.02.015-.089-.114-.019.016-.088-.113-.019.014-.088-.112-.019.014-.088-.113-.02.016-.089-.114-.019.015-.089-.112-.018.014-.089-.113-.019.016-.089-.114-.019.015-.088-.113-.02.015-.088-.113-.019.015-.089-.114-.019.016-.088-.113-.019.014-.088-.112-.02.015-.089-.114-.02.015-.088-.112-.019.014-.088-.114-.02.016-.088-.113-.019.015-.088-.113-.02.015-.089-.114-.018.015-.089-.113-.019.016-.089-.113-.019.015-.089-.114-.019.015-.088-.113-.02.016-.088-.113-.019.015-.089-.114-.019.015-.088-.113-.019.015-.089-.114-.02.015-.088-.112-.019.015-.089-.113-.049.038-.079-.101-.061.048-.076-.097-.062.047-.076-.097-.061.048-.075-.096-.062.047-.076-.097-.06.047-.076-.097-.062.048-.076-.097-.061.048-.076-.097-.06.047-.077-.098-.061.048-.076-.096-.061.047-.076-.097-.061.048-.076-.097-.062.048-.075-.097-.061.047-.076-.097-.061.048-.076-.097-.061.048-.077-.098-.061.048-.075-.096-.062.048-.076-.098-.061.048-.076-.097-.061.047-.076-.097-.061.048-.075-.097-.062.048-.076-.097-.06.047-.076-.097-.062.048-.076-.098-.061.048-.076-.096-.061.048-.076-.098-.061.048-.076-.097-.061.047-.076-.097-.061.048-.076-.097-.062.047-.075-.096-.061.047-.076-.097-.061.048-.076-.098-.061.048-.077-.097-.061.048-.075-.097-.101.08-.04-.052-.105.083-.036-.046-.105.082-.036-.045-.105.083-.035-.045-.106.082-.035-.046-.106.083-.035-.045-.106.082-.035-.045-.105.083-.036-.046-.106.082-.035-.044-.105.082-.036-.046-.106.083-.035-.045-.105.082-.036-.046-.106.083-.035-.045-.104.082-.036-.046-.106.082-.035-.045-.105.083-.036-.045-.105.082-.036-.046-.105.083-.036-.045-.105.082-.035-.045-.106.083-.036-.046-.105.082-.035-.045-.106.083-.035-.045-.105.082-.036-.046-.106.083-.035-.045-.105.082-.036-.046-.106.083-.035-.045-.105.082-.036-.045-.105.083-.015-.02-.936.732.036.045-.106.082.036.046-.106.083.035.045-.105.082.035.045-.105.083.035.045-.105.083.035.045-.106.082.036.045-.106.083.036.046-.106.082.036.045-.106.082.035.045-.105.083.035.046-.105.082.035.045-.105.082.036.046-.105.082.035.045-.106.082.036.046-.105.083.035.045-.106.082.035.045-.106.083.036.046-.105.082.035.045-.105.082.035.046-.105.083.035.045-.105.082.035.046-.105.082.035.045-.106.083.036.045-.106.082.036.046-.106.082.036.045-.106.083.035.045-.105.082.063.081-.075.058.076.098-.061.048.076.097-.061.048.076.097-.061.048.076.097-.061.048.075.096-.061.048.076.098-.061.048.076.097-.061.047.076.098-.062.048.076.097-.061.047.076.097-.061.048.076.097-.061.048.076.098-.061.047.075.097-.061.048.076.097-.061.048.076.097-.061.048.076.097-.062.048.076.098-.06.047.075.097-.061.047.076.098-.062.048.076.096-.061.048.077.098-.061.048.075.096-.061.048.076.097-.062.048.077.098-.062.048.076.097-.061.048.075.096-.06.048.076.097-.062.048.077.097-.062.048.076.097-.061.047.076.097-.062.049.076.097-.061.048.077.097-.062.048.076.096-.062.048.087.112-.024.019.088.113-.02.015.089.114-.02.015.089.113-.019.015.088.112-.02.016.089.114-.019.014.089.113-.02.016.088.112-.019.015.089.114-.02.015.089.113-.019.015.088.113-.02.015.089.114-.019.015.088.113-.019.014.089.114-.02.016.088.112-.018.015.088.113-.02.015.089.114-.019.015.088.113-.019.015.088.113-.02.015.089.114-.019.015.088.112-.019.016.088.113-.019.014.089.114-.02.015.089.113-.019.015.088.113-.02.015.089.114-.019.015.089.112-.02.016.089.114-.02.015.088.113-.018.014.088.113-.02.016.089.113-.019.015.088.113-.019.015.088.113-.019.015.089.114-.02.015.088.113-.019.015.088.113-.019.015.089.114-.02.015.089.113-.019.014.088.113-.02.016.089.113-.019.015.089.113-.02.015 1.794 2.296.003-.002.015.02.02-.016.089.114.019-.015.088.113.02-.015.088.112.019-.014.088.114.02-.016.088.113.02-.015.088.113.019-.015.088.113.02-.016.089.114.019-.015.088.113.019-.015.088.113.019-.015.089.114.02-.016.088.113.019-.015.089.113.018-.015.089.114.02-.015.088.112.019-.014.088.113.02-.016.089.114.018-.015.089.113.019-.015.088.113.019-.015.089.114.02-.016.088.113.02-.015.088.113.019-.015.088.114.02-.015.088.112.019-.014.088.113.02-.016.089.114.019-.015.088.113.019-.015.089.113.019-.016.089.114.019-.015.088.113.02-.015.088.113.019-.015.088.114.02-.016.088.113.019-.014.089.113.02-.015.088.113.019-.015.088.113.019-.015.089.113.02-.015.088.113.019-.015.088.113.019-.015.089.114.033-.026.085.108.06-.047.076.097.062-.048.075.097.061-.048.076.097.061-.047.076.097.062-.049.076.098.061-.047.075.096.061-.048.077.097.061-.047.076.097.06-.047.077.097.061-.048.075.097.062-.048.076.097.061-.048.076.097.061-.048.076.098.061-.048.076.098.061-.048.076.096.061-.048.076.098.062-.048.076.097.06-.047.076.097.062-.048.075.097.061-.048.076.097.062-.048.076.098.061-.048.076.097.061-.047.075.096.061-.048.077.098.061-.048.076.097.06-.047.076.097.063-.048.075.096.061-.047.076.097.061-.048.076.098.061-.048.076.096.06-.047.077.098.061-.048.076.097.061-.048.076.097.083-.064.056.071.106-.082.035.045.105-.082.036.045.106-.082.035.045.105-.082.035.044.106-.082.036.046.105-.083.035.045.106-.082.035.045.106-.082.035.045.106-.082.035.045.105-.082.036.046.105-.083.035.045.106-.082.035.046.106-.083.035.045.106-.082.035.046.106-.083.035.045.106-.082.035.045.105-.083.036.046.106-.082.035.045.105-.083.036.046.106-.082.035.045.105-.083.035.045.106-.082.036.046.105-.083.035.045.106-.082.035.045.106-.083.035.046.105-.082.035.045.106-.082.036.046.936-.732-.027-.035.105-.083-.035-.045.106-.082-.036-.045.106-.083-.036-.046.106-.082-.035-.045.105-.082-.035-.045.105-.083-.035-.046.105-.082-.035-.045.106-.082-.036-.046.105-.083-.035-.045.105-.082-.036-.045.106-.083-.036-.045.106-.082-.036-.046.106-.083-.035-.044.105-.083-.035-.045.105-.082-.035-.046.105-.083-.035-.045.106-.082-.036-.046.105-.082-.035-.045.106-.083-.036-.045.106-.082-.036-.046.106-.082-.035-.045.105-.083-.035-.045.105-.082-.035-.046.105-.083-.035-.044.106-.083-.036-.046.104-.082-.035-.044.106-.083-.047-.06.093-.073-.076-.097.062-.048-.076-.097.061-.048-.075-.097.061-.047-.076-.098.06-.047-.076-.097.062-.048-.076-.098.061-.048-.075-.096.061-.048-.076-.097.06-.048-.076-.097.062-.048-.076-.097.061-.048-.075-.097.061-.048-.076-.097.061-.048-.076-.097.061-.048-.076-.097.061-.048-.076-.097.061-.048-.075-.097.061-.047-.077-.097.063-.049-.076-.097.06-.048-.076-.097.061-.048-.075-.096.061-.048-.076-.098.061-.047-.076-.097.061-.048-.076-.098.061-.047-.075-.097.061-.048-.076-.097.062-.048-.076-.098.06-.047-.076-.097.061-.048-.075-.097.061-.048-.076-.097.062-.048-.076-.097.06-.047-.075-.097.061-.048-.077-.098.062-.048-.076-.097.062-.047-.082-.105.042-.034-.088-.112.019-.015-.089-.114.019-.014-.088-.113.019-.016-.088-.112.02-.016-.089-.114.019-.014-.088-.113.019-.016-.088-.112.02-.016-.089-.113.019-.015-.088-.113.019-.015-.088-.113.019-.015-.089-.114.02-.015-.089-.113.019-.015-.088-.112.02-.016-.089-.114.019-.015-.088-.113.019-.014-.088-.113.019-.016-.088-.113.018-.015-.088-.113.02-.015-.088-.113.019-.015-.089-.113.02-.015-.089-.114.019-.014-.088-.113.019-.016-.088-.113.02-.015-.089-.114.019-.014-.088-.113.018-.015-.088-.113.02-.015-.089-.114.02-.015-.089-.113.019-.015-.088-.113.02-.015-.089-.114.02-.015-.089-.113.019-.015-.088-.112.02-.016-.089-.114.019-.014-.089-.113.02-.015-.088-.113.019-.015-.089-.114.019-.015-.088-.113.019-.015-.089-.113.02-.016-.088-.112.019-.016-.088-.113.019-.014-1.794-2.297z" fill="#0D3C88"/><path fillRule="evenodd" clipRule="evenodd" d="M148.894 42.05a1.745 1.745 0 01-1.25.473 2.348 2.348 0 01-1.196-.376c-.661-.43-1.187-1.077-1.305-2.004.049.068.185.043.214.016-.311-.14-.256-.408-.152-.564l.029-.04c.089-.12.193-.259.118-.483.055-.046.11-.003.155.032.019.015.036.029.05.034.083-.232.11-.485.136-.741.038-.361.076-.727.273-1.041a.148.148 0 00.088.073l-.05-.507.074.113c.357-1.157.566-2.358.774-3.551.211-1.212.42-2.417.782-3.56.004.065.124.105.209.131l-.064-.22.087.006c-.089-.2.012-.34.109-.474.078-.108.154-.212.123-.342.02.031.029.046.042.055.01.007.023.01.046.018.008-.142.106-.254.204-.367.094-.108.188-.216.203-.35.005.026.045.036.072.026a4.64 4.64 0 00-.266-.346c-.126-.155-.253-.311-.326-.443.858-1.347 1.535-2.992 1.308-4.535.173.033.189-.074.205-.182.013-.09.027-.181.134-.189-.029-.253.008-.526.043-.783.04-.296.077-.572.008-.776.06-.05.1-.105.139-.159.093-.128.179-.249.537-.259-.208-.399-.087-.978.014-1.459l.012-.057.049.058c-.072-.44.205-.845.396-1.125l.051-.075c-.207-.27-.108-.53-.008-.793.087-.23.175-.463.066-.708a8.56 8.56 0 01.287-.739c.132-.315.271-.646.365-.969a.406.406 0 00.254.027c-.223-.167-.14-.357-.068-.524.065-.15.122-.282-.063-.358.339-.09.273-.215.204-.346-.066-.125-.135-.255.14-.365-.022.024.013.043.044.059h.002c.036-.185.261-.65.665-.716-.211.034-.193-.08-.173-.208.013-.086.028-.179-.029-.234l.043-.16c.162-.608.326-1.223.375-1.79.193.097.144.043.068-.04-.085-.091-.203-.22-.061-.219l.132-.012a.814.814 0 01.044-.057c.082-.1.193-.236.011-.412-.01-.006-.016-.007-.023-.005a.728.728 0 01.266-.137c.144-.051.287-.102.352-.27.075.007.094.009.113.007.024-.002.048-.009.179-.018l-.204-.103a.442.442 0 01.391-.02c.226-.654.972-.896 1.714-.535.768.374 1.233 1.251 1.04 1.96l-1.587 5.808-.026.187c-.138 1.01-.275 2.005-.6 3.005l-.053-.056c-.008.26-.1.506-.192.75-.126.339-.253.675-.154 1.047l-.172-.08a7.287 7.287 0 00-.123.804c-.04.341-.079.683-.179 1.02l-.202-.048.075.275-.091-.055c-.006.21-.082.435-.156.657-.103.307-.204.609-.118.854l-.187-.14c-.077.257-.092.537-.107.816-.027.515-.054 1.029-.467 1.401a.105.105 0 00-.04-.06c-.009-.008-.017-.015-.021-.028-.007.006-.011.014-.016.023l-.009.015-.111.401c.001.075.004.15.012.224l-.059-.051-.024.091c.023.302-.079.537-.205.75l-.307 1.127a.909.909 0 00.047.111l-.098.07-.024.088c.188.052.156.168.12.298-.032.112-.066.235.036.335l-.16-.119c.142.59-.112 1.088-.364 1.58-.242.474-.481.942-.364 1.481l-.135-.021a6.227 6.227 0 00-.129.672c-.044.285-.086.56-.2.882-.114.53-.298 1.047-.482 1.563-.299.837-.596 1.67-.59 2.553l-.104-.033c.065.542-.071 1.033-.208 1.529-.103.37-.206.744-.226 1.143-.03.259-.086.524-.201.79zm-.3-13.688l-.001.019c-.002-.006-.001-.012.001-.019zm-.946 1.519l-.014.044a.067.067 0 01.014-.044zm6.548-20.417l-.057.211.002-.025c.007-.07.014-.14.055-.186zm-.503.716l.135.069c-.182.007-.061.13.072.266l.007.008.201-.737c-.034.061-.106.095-.279.056-.073.068-.005.104.058.138.039.021.077.041.077.067-.048.072-.106.055-.157.041-.057-.016-.105-.03-.114.093zm.112.717l-.047.172c-.009-.07.001-.129.047-.172zm-2.041 6.56c-.152.822-.305 1.65-.648 2.427l-.002.055c-.012.317-.025.633-.039.948l2.131-7.8c-.278.43-.524.853-.456 1.337-.596.923-.79 1.973-.986 3.032zm-2.087 8.442a.397.397 0 00.027-.042l.023-.036-.488 1.784.001-.031c.022-.632.043-1.257.437-1.675zm-.967 3.645l-.353 1.293c.074-.446.185-.88.353-1.293z" fill="#fff"/><path d="M148.073 27.618c-.004-.009-.012-.02-.016-.026l.016.026zM153.183 9.571a.432.432 0 01.061-.063c-.043-.006-.046.042-.061.063z" fill="#2C76EC"/><path fillRule="evenodd" clipRule="evenodd" d="M174.35 34.087c.093-.157.453-.504.854-.425-.209-.041-.156-.14-.096-.25.04-.075.083-.154.049-.224l.103-.149c.343-.494.69-.993.917-1.49.149.155.12.09.076-.011-.05-.113-.12-.273.013-.224l.127.035a.9.9 0 01.059-.036c.109-.063.258-.15.144-.374a.038.038 0 00-.019-.013h-.001a.733.733 0 01.293-.032c.151.003.301.006.417-.126.068.033.085.042.104.047.023.007.047.008.172.046l-.157-.165a.449.449 0 01.373.116c.423-.518 1.244-.5 1.878.06.657.58.86 1.519.453 2.095l-3.273 4.646-.081.155c-.457.88-.907 1.744-1.534 2.55l-.032-.071c-.091.236-.257.43-.422.621-.227.265-.453.528-.481.902l-.135-.133c-.143.223-.259.459-.376.695-.146.298-.294.597-.496.87l-.172-.114-.019.277-.067-.082c-.073.19-.217.37-.358.547-.196.246-.387.487-.385.741l-.13-.193c-.155.209-.259.46-.363.71-.192.462-.383.922-.889 1.12a.099.099 0 00-.018-.07.062.062 0 01-.011-.032c-.007.003-.013.008-.02.013a.106.106 0 01-.016.012l-.231.33a1.763 1.763 0 00-.062.208l-.038-.067-.053.075c-.075.283-.247.465-.434.616l-.651.922c.001.039.003.077.009.12l-.113.029-.051.073c.158.113.09.207.015.313-.066.092-.137.192-.074.32l-.111-.165c-.058.59-.457.957-.851 1.32-.378.35-.752.695-.817 1.23l-.12-.068c-.139.202-.239.389-.337.57-.133.246-.261.483-.471.736-.278.447-.618.857-.956 1.265-.549.662-1.096 1.322-1.375 2.13l-.086-.066c-.113.518-.4.921-.689 1.327-.217.306-.435.613-.581.971a2.612 2.612 0 01-.431.648 1.872 1.872 0 01-1.305.063 2.537 2.537 0 01-1.004-.596c-.539-.527-.946-1.239-.878-2.165.034.076.174.08.207.06-.331-.272-.125-.526.109-.728.111-.08.207-.17.21-.366.067-.022.103.036.134.084.013.02.024.038.037.048.153-.184.26-.408.368-.633.151-.317.305-.637.589-.855a.145.145 0 00.059.097l.116-.48.033.129c.708-.935 1.291-1.962 1.87-2.982.588-1.036 1.172-2.065 1.879-2.984-.017.06.079.135.149.19l.003.002.011-.225.08.036c-.018-.214.121-.307.255-.395.108-.072.212-.141.225-.27.016.064.016.064.059.097.053-.127.181-.196.308-.265.123-.067.247-.133.303-.252-.004.027.031.05.059.051a4.666 4.666 0 00-.137-.41 3.317 3.317 0 01-.161-.518c1.237-.934 2.401-2.205 2.685-3.695.152.09.201-.003.25-.096.042-.078.083-.156.187-.126.055-.241.176-.477.292-.7.133-.258.257-.498.258-.71a.718.718 0 00.181-.096c.129-.085.248-.164.586-.05-.066-.44.238-.932.489-1.337l.025-.04.027.07c.074-.43.467-.706.735-.895l.069-.049c-.106-.317.07-.521.249-.728.155-.18.313-.363.289-.625.139-.182.319-.374.506-.575.226-.243.463-.497.655-.761a.419.419 0 00.229.111c-.154-.229-.016-.374.105-.5.109-.116.205-.216.057-.351.346.036.324-.102.302-.246-.021-.137-.044-.28.249-.285-.028.015-.001.044.023.069h.001zm-8.203 12.476a.1.1 0 01-.007.015.037.037 0 01.007-.015zm-1.373 1.061l-.027.035a.064.064 0 01.027-.035zm12.109-15.817l-.104-.108c.048-.109.088-.08.137-.046.043.03.093.066.16.018.009-.025-.02-.056-.05-.09-.049-.052-.1-.109-.01-.145.149.095.228.09.279.046l-.425.603-.007-.013c-.079-.169-.151-.321.02-.265zm-.229.585l-.1.141c.014-.066.042-.117.1-.14zm.705-1.001l.122-.173c-.053.026-.082.088-.111.148l-.011.025zm-6.48 9.194c.121-.3.241-.6.361-.903.572-.592.982-1.297 1.39-1.997.524-.901 1.044-1.794 1.898-2.43.093-.469.461-.77.859-1.066l-4.508 6.396zm-3.873 5.485l-.01.025 1.031-1.463c-.013.008-.024.017-.036.027-.012.009-.023.019-.037.027-.503.246-.724.812-.948 1.384zm-1.878 2.675c.213-.381.456-.74.747-1.06l-.747 1.06z" fill="#fff"/><path d="M165.9 45.701l-.006-.03.006.03zM176.498 30.963a.477.477 0 01.078-.037c-.038-.02-.056.022-.078.037z" fill="#2C76EC"/><path fillRule="evenodd" clipRule="evenodd" d="M199.953 58.245a.456.456 0 01.26.291c.624-.228 1.406.18 1.778.949.385.798.183 1.675-.452 1.959l-5.059 2.271-.16.1c-.825.515-1.637 1.022-2.571 1.386l.008-.076c-.196.155-.434.235-.67.315-.327.11-.652.22-.862.527l-.049-.184a6.619 6.619 0 00-.668.401c-.274.18-.549.36-.858.49l-.091-.185-.154.227-.016-.104c-.158.124-.37.204-.579.284-.29.11-.574.217-.699.436l-.014-.231c-.237.099-.451.26-.666.421-.394.297-.787.593-1.319.502.021-.03.021-.05.021-.069 0-.012 0-.022.006-.033a.08.08 0 00-.023.001l-.019.002-.363.163a2.01 2.01 0 00-.157.148l.001-.078-.083.037c-.205.204-.442.27-.677.305l-1.017.455-.005.009c-.016.03-.033.061-.046.097l-.113-.032-.079.036c.078.178-.026.224-.144.276-.101.045-.212.094-.222.236l-.014-.197c-.344.474-.867.584-1.385.693-.497.104-.99.208-1.312.632l-.068-.12c-.219.102-.398.21-.572.315a4.05 4.05 0 01-.771.39c-.461.239-.955.415-1.447.59-.8.286-1.596.57-2.239 1.12l-.041-.103c-.352.385-.804.586-1.254.785l-.08.036a5.11 5.11 0 00-.691.354l-.044.03c-.184.13-.493.349-.831.451a2.103 2.103 0 01-1.146-.475 2.752 2.752 0 01-.711-.879 2.77 2.77 0 01-.317-1.098 2.163 2.163 0 01.288-1.266c0 .086.123.148.16.144-.204-.446.195-.547.541-.632a.405.405 0 00.286-.201c.067.015.069.083.072.14a.239.239 0 00.007.06c.222-.079.426-.216.631-.353.287-.193.578-.389.93-.43a.156.156 0 00.001.114l.341-.353-.037.129c1.071-.437 2.081-1.016 3.084-1.593 1.02-.585 2.033-1.166 3.097-1.59-.045.043.002.16.034.243l.122-.187.05.07c.092-.192.256-.2.414-.206.129-.006.253-.011.328-.116a.209.209 0 00-.013.067.152.152 0 00.016.047c.108-.082.252-.075.395-.069.138.006.277.013.384-.06-.018.021 0 .058.025.074.034-.123.062-.273.089-.424.034-.193.069-.386.12-.524 1.522-.164 3.151-.654 4.139-1.784.084.155.172.1.261.047.074-.046.149-.091.222-.012.168-.18.391-.32.601-.452.242-.152.467-.294.573-.472.075.017.14.013.203.01.152-.007.294-.014.526.257.163-.41.665-.673 1.081-.892l.045-.023-.012.074c.277-.33.749-.364 1.073-.388l.085-.006c.068-.328.32-.412.577-.497.222-.075.448-.15.558-.386.21-.084.459-.157.719-.233.314-.091.644-.188.941-.315a.414.414 0 00.138.213c-.017-.275.174-.329.341-.375.151-.043.283-.08.224-.27.277.208.327.079.38-.056.05-.129.103-.262.355-.117-.031-.001-.023.035-.016.07l.001.003c.159-.087.64-.2.941.075-.157-.144-.062-.201.044-.265.072-.042.148-.088.154-.166l.152-.07c.544-.248 1.094-.5 1.537-.81.05.21.058.14.071.03.014-.123.034-.295.122-.184l.092.095a.649.649 0 01.07-.001c.124.002.293.004.309-.246-.003-.012-.007-.017-.012-.021.097.015.182.069.267.122.127.08.253.16.417.106.042.063.052.08.066.094.016.017.036.031.125.127l-.051-.222zm-17.54 7.804l-.013.01a.038.038 0 01.013-.01zm-1.702.204l-.041.016a.067.067 0 01.041-.016zm-.258 1.141a5.5 5.5 0 011.167-.523l-1.167.523zm2.946-1.33l-.027.02 1.611-.723a.666.666 0 00-.04.004.54.54 0 01-.049.006c-.551-.049-1.019.32-1.495.693zm6.04-2.703c.255-.194.507-.39.761-.588.783-.213 1.485-.605 2.183-.996.898-.502 1.789-1 2.836-1.106.312-.352.777-.422 1.264-.471l-7.044 3.16zm9.361-4.201l.002-.014c.016-.186.03-.352.149-.217l-.035-.147c.096-.067.115-.022.14.032.021.048.046.104.128.097.02-.016.011-.058.001-.102-.014-.07-.03-.145.064-.13.089.176.165.197.237.173l-.686.308zm.756-.34l.019-.011c.056-.037.113-.075.173-.075l-.192.087zm-1.249.562c.046-.05.095-.078.155-.07l-.155.07z" fill="#fff"/><path d="M182.634 65.186c.004-.009.005-.022.009-.03l-.009.03zM199.045 58.01c.03 0 .057.001.085.007-.022-.035-.06-.009-.085-.008z" fill="#2C76EC"/><path fillRule="evenodd" clipRule="evenodd" d="M216.012 83.508a.446.446 0 01.175.348c.678-.062 1.392.515 1.619 1.33.235.844-.141 1.619-.838 1.73l-5.622.894-.189.056c-.944.284-1.872.563-2.88.672l.029-.07c-.234.099-.488.114-.741.13-.35.022-.697.044-.984.284l.001-.189c-.259.053-.508.133-.758.215-.317.102-.635.206-.974.252l-.039-.203-.211.18.012-.105c-.186.079-.415.102-.641.124-.313.031-.62.062-.802.242l.048-.229c-.258.035-.51.135-.763.236-.465.184-.928.368-1.424.143a.1.1 0 00.038-.061c.003-.012.006-.022.015-.03a.083.083 0 00-.024-.006c-.006 0-.013 0-.018-.003l-.399.063c-.066.03-.131.065-.192.102l.021-.074-.12.019a1.17 1.17 0 01-.715.113l-1.102.176a.38.38 0 01-.037.034c-.019.016-.039.033-.057.057l-.101-.06-.087.014c.029.192-.086.21-.215.23-.111.017-.233.036-.281.17l.04-.195c-.463.37-1.005.34-1.541.312-.514-.028-1.023-.056-1.452.27l-.035-.131c-.242.041-.447.1-.647.156-.268.076-.527.15-.855.176-.514.112-1.044.154-1.573.196-.859.069-1.714.137-2.49.501l-.012-.11c-.447.28-.942.358-1.435.434-.385.06-.769.12-1.126.276a2.933 2.933 0 01-.705.148c-.837-.294-1.323-.958-1.569-1.672a2.574 2.574 0 01-.113-1.175c.066-.449.277-.881.632-1.194-.027.078.075.174.112.182-.063-.45.302-.46.634-.441.17.008.255.007.395-.116.062.032.046.1.033.156a.174.174 0 00-.009.058c.238-.018.473-.098.71-.177.334-.113.671-.226 1.027-.175a.154.154 0 00-.031.11l.429-.252-.071.115c1.165-.145 2.308-.444 3.444-.74 1.154-.302 2.3-.601 3.454-.736-.056.03-.042.155-.031.243l.169-.148.029.082c.141-.163.305-.127.461-.093.128.027.25.054.352-.028-.035.058-.035.058-.029.111.128-.05.267-.007.406.036.134.042.267.084.392.042-.023.015-.015.056.005.078.065-.108.131-.245.197-.383.086-.178.172-.358.26-.478 1.534.235 3.258.182 4.526-.654.041.172.142.143.243.114.085-.025.17-.05.221.045.212-.13.467-.207.708-.28.277-.084.536-.163.688-.308a.729.729 0 00.195.062c.151.032.292.063.446.385.267-.353.829-.478 1.294-.582l.052-.011-.031.068c.357-.245.825-.158 1.148-.098l.09.017c.154-.299.423-.315.697-.33.237-.014.478-.029.65-.228.229-.028.494-.034.771-.04.33-.007.677-.014.999-.06a.415.415 0 00.078.242c.057-.27.258-.273.434-.275.159-.002.298-.003.291-.203.216.272.299.16.387.044.084-.11.17-.226.378-.02-.03-.01-.032.032-.034.067.179-.043.68-.028.901.314-.116-.178-.007-.209.113-.243.082-.022.169-.047.196-.12l.181-.03c.593-.1 1.193-.2 1.707-.384-.008.216.019.15.061.047.047-.115.112-.276.169-.146l.064.116c.02.003.042.01.066.017.122.034.288.08.37-.158.002-.012-.002-.018-.005-.023.091.04.159.113.227.187.104.11.206.221.382.211.024.072.029.09.038.107.011.02.028.04.088.156l.01-.228zm-19.245 2.999l-.016.006a.032.032 0 01.016-.006zm-1.722-.244l-.043.005a.066.066 0 01.043-.005zm-.556 1.036c.423-.114.85-.19 1.283-.204l-1.283.204zm3.231-.521l-.026.01 1.77-.281a.457.457 0 00-.039-.006c-.016-.002-.033-.004-.051-.008-.527-.189-1.087.046-1.654.285zm7.431-1.375l.109-.045c.823-.003 1.614-.2 2.401-.397 1.013-.253 2.017-.504 3.071-.335.4-.26.874-.207 1.364-.128l-7.737 1.23c.264-.106.527-.215.792-.325zm9.494-1.32l-.004.01.753-.12c-.077.005-.146-.035-.186-.228-.089-.038-.093.038-.097.11-.003.044-.006.087-.029.098-.082-.016-.091-.076-.099-.127-.009-.06-.017-.108-.128-.067l-.005.15c-.08-.162-.139-.003-.205.173zm.847-.128l-.022.007.212-.034c-.06-.016-.125.005-.19.027z" fill="#fff"/><path d="M197.212 85.73l.001-.001c.006-.007.011-.019.016-.026l-.017.026zM215.187 83.045a.338.338 0 01.08.03c-.012-.041-.055-.025-.08-.03z" fill="#2C76EC"/></svg>