<svg width="242" height="199" viewBox="0 0 242 199" fill="none" xmlns="http://www.w3.org/2000/svg"><g clip-path="url(#clip0)"><path d="M96.905 186.736c.754 1.933 1.509 4.055 1.037 6.083-.566 2.452-2.688 3.772-4.574 4.809-.613.331-1.367.708-2.027.378-.378-.189-.708-.566-.99-.943a349.911 349.911 0 01-20.466-31.076c.518.896 14.995-8.582 18.485-3.206 1.462 2.216 2.216 7.544 3.206 10.185 1.84 4.527 3.584 9.148 5.329 13.77z" fill="#9D6D6A"/><path d="M241.955 105.817c-5.281-.33-10.61-.519-15.891-.849-9.101-.566-18.202-1.179-27.256-2.169-1.934-.189-3.867-.377-5.8-.613-1.226-.142-1.934-.943-1.887-1.934.048-1.084.849-1.697 2.122-1.744h.566c9.667 1.084 19.287 1.886 29.001 2.499 6.13.377 12.26.943 18.39 1.367" fill="#fff"/><path d="M28.34 141.561c.048-.896-.33-1.745-.046-2.594 2.31-2.028 4.574-4.102 6.979-6.036 12.024-9.855 23.247-20.607 33.197-32.584 6.602-7.97 12.826-16.222 17.683-25.417 4.15-7.828 8.111-15.703 10.375-24.285.896-3.395 1.697-6.838 3.395-9.95.66-1.226 1.414-2.405 2.923-2.782.378.236.283.566.236.896-.849 5.046-.896 10.138-.754 15.278.094 3.773.566 7.545 1.084 11.27.66 4.575 2.217 8.913 3.82 13.204 1.084 2.876 2.075 5.753 3.065 8.676.141.472.33.85.896.802v.047c-.377.33-.283.708-.094 1.18 1.367 2.97 2.97 5.8 4.479 8.676 4.056 7.592 9.479 14.241 14.902 20.843 1.65 1.98 3.3 4.008 5.187 5.8 1.509 1.933 3.301 3.631 5.045 5.328 3.395 3.395 6.932 6.649 10.752 9.526 5.47 4.055 11.034 7.969 17.07 11.175.896.472 1.886.802 2.782 1.179-.754.896-1.886 1.038-2.876 1.085-6.979.33-13.958 1.084-20.89 1.933-1.038.142-2.075.33-3.16.425-7.639.566-15.278.754-22.87 1.65-5.329.613-10.657 1.32-15.939 2.358-1.367.283-3.819.66-6.13 1.037h-.094c-1.698.189-3.395.425-4.998 1.038-.19 0-.425 0-.66.047-4.009.802-4.81 1.462-8.677 2.735-4.622 1.462-9.148 3.112-13.675 4.763-.142.047-.236.141-.378.235-2.405.802-4.81 1.698-7.12 2.783-.094.047-.236.047-.33.094-4.008 1.603-7.78 3.678-11.6 5.611-1.132.142-1.98-.33-2.877-.99-2.075-1.603-4.15-3.206-5.989-5.093-3.63-3.584-6.743-7.592-9.242-12.071-1.886-3.396-3.348-6.98-4.48-10.705-.802-2.405-1.132-4.762-.99-7.167z" fill="#B98984"/><path d="M168.487 150.52c-6.036-3.206-11.601-7.073-17.071-11.176-3.866-2.876-7.356-6.13-10.751-9.525-1.745-1.745-3.537-3.395-5.046-5.329a78.77 78.77 0 017.215-10.704c1.745-2.169 3.678-4.244 5.517-6.366.33-.377.566-.754.849-1.132 1.792-1.32 2.311-3.395 1.226-5.281-3.159-5.47-6.602-10.704-10.94-15.326-1.839-1.933-3.678-3.866-5.753-5.564-1.32-1.037-2.782-1.603-4.48-.896-.566.236-.943.802-1.414 1.179-5.187 3.3-10.799 5.706-16.646 7.545h-.095c-.565.047-.707-.33-.896-.802-.99-2.876-1.98-5.8-3.065-8.676-1.603-4.292-3.206-8.63-3.819-13.204-.519-3.725-.943-7.45-1.085-11.27-.141-5.093-.094-10.186.755-15.278.047-.33.141-.66-.236-.896.33-.378.66 0 1.037-.095 3.254-.66 6.225.472 9.101 1.745 6.791 3.065 13.015 7.168 18.863 11.742 3.961 3.065 7.733 6.413 11.175 10.044 8.347 8.77 15.75 18.296 22.116 28.576 3.254 5.234 5.942 10.799 7.97 16.693 1.839 5.329 2.876 10.846 3.772 16.41.236 1.415.047 2.829.283 4.244.424 2.499.047 4.951 0 7.451-.047 3.253-.613 6.46-1.368 9.619-.424 1.792-1.037 3.49-1.98 5.093-.613 1.038-1.698 1.462-2.452 2.264-.896-.283-1.886-.566-2.782-1.085zM.283 160.234c.33-1.603.566-3.348 1.98-4.432 3.207-2.405 6.367-4.857 9.715-6.979 4.102-2.594 8.158-5.188 12.307-7.687 1.32-.801 2.594-1.65 4.056-2.169-.283.896.094 1.745.047 2.594-.142 2.405.188 4.762.896 7.026 1.179 3.678 2.593 7.262 4.48 10.704 2.499 4.48 5.611 8.441 9.242 12.072 1.886 1.839 3.914 3.489 5.989 5.093.896.707 1.744 1.131 2.876.99-.471.754-1.132 1.226-1.886 1.65-1.509.896-3.065 1.745-4.527 2.688-6.319 4.008-12.968 7.404-19.24 11.506-2.829 1.839-5.422 2.169-8.44.236-2.028-1.273-4.244-2.358-6.083-3.867-3.631-2.971-5.989-6.979-8.064-11.081-1.509-2.971-2.405-6.083-2.97-9.384-.52-3.018-.99-5.942-.378-8.96z" fill="#EEE1D9"/><path d="M179.805 6.837c-4.905 9.29-9.903 18.533-15.42 27.492-1.085 1.792-2.122 3.584-3.254 5.329-.613.943-1.745 1.179-2.593.66-.802-.519-1.038-1.556-.519-2.546.236-.472.519-.944.801-1.415 2.405-4.008 4.857-8.017 7.215-12.072 4.433-7.686 8.535-15.514 13.251-23.059.377-.613.754-1.179 1.556-1.273 1.32-.142 2.216 1.179 1.556 2.499-.801 1.556-1.792 2.924-2.593 4.385zM178.815 63.047c1.273-.849 2.546-1.698 3.867-2.5 7.403-4.29 15.137-7.827 22.776-11.694a1.54 1.54 0 01.471-.142c.896-.141 1.462.19 1.792.802.378.66.283 1.415-.33 1.886-.471.425-.99.755-1.556 1.038-8.394 4.48-17.023 8.488-25.039 13.675-1.132.754-2.217.566-2.83-.283-.613-.943-.377-1.98.849-2.782zM189.754 129.159c.377.094.754.283 1.132.471 4.149 2.122 8.299 4.339 12.213 6.932.566.377 1.226.66 1.698 1.179.471.519.613 1.085.377 1.745-.236.613-.708.896-1.321.99-.471.047-.896-.094-1.744-.566-4.244-2.641-8.724-4.951-13.251-7.168a3.995 3.995 0 01-.754-.471c-.661-.613-.896-1.368-.425-2.169.472-.849 1.179-1.179 2.075-.943zM129.207 36.121c-.094.99-.66 1.556-1.651 1.556-.896 0-1.461-.66-1.603-2.263.189-2.17.425-4.905.707-7.592.142-1.18.944-1.792 1.934-1.65.943.14 1.603.942 1.509 2.121a500.552 500.552 0 01-.896 7.828z" fill="#fff"/><path d="M111.193 87.945c5.847-1.84 11.458-4.291 16.646-7.545.094.094.235.141.235.236-.33 3.065 1.462 5.281 3.065 7.498 3.16 4.29 6.791 8.157 10.28 12.166 1.509 1.744 2.924 3.631 4.763 5.092.896.708 1.839 1.132 3.018.896-.283.378-.566.802-.849 1.132-1.839 2.122-3.772 4.197-5.517 6.366-2.735 3.348-5.093 6.932-7.215 10.704-1.886-1.792-3.536-3.772-5.187-5.8-5.423-6.602-10.846-13.25-14.901-20.843-1.509-2.876-3.159-5.705-4.48-8.676-.188-.472-.33-.849.095-1.179 0 0 .047 0 .047-.047z" fill="#9D6D6A"/><path d="M146.229 105.392c-1.839-1.461-3.254-3.301-4.762-5.092-3.49-4.009-7.168-7.875-10.28-12.166-1.604-2.217-3.396-4.433-3.065-7.498 0-.047-.142-.142-.236-.236.471-.424.849-.943 1.414-1.179 1.698-.707 3.16-.141 4.48.896 2.075 1.65 3.914 3.631 5.753 5.564 4.338 4.622 7.828 9.856 10.94 15.326 1.085 1.886.566 3.961-1.226 5.281-1.132.236-2.075-.188-3.018-.896z" fill="#B98984"/></g><defs><clipPath id="clip0"><path fill="#fff" d="M0 0h241.955v198.1H0z"/></clipPath></defs></svg>