<svg width="738" height="254" viewBox="0 0 738 254" fill="none" xmlns="http://www.w3.org/2000/svg"><g clip-path="url(#a)"><path d="M668.559 193.413c0 11.165-5.628 21.295-14.722 28.678-9.094 7.339-21.61 11.931-35.387 11.931H424.047c-27.553 0-50.109-18.279-50.109-40.609 0-8.78 3.512-16.974 9.455-23.637 1.395-1.576-14.047.631-12.381-.765 8.644-7.294 37.593-15.668 50.874-16.163 1.261-.045 2.521 0 3.782.09 10.67.946 73.34-4.142 95.49-4.142 21.746 0 82.345 5.313 94.996 4.232a34.128 34.128 0 0 1 5.673-.09c14.541.811 50.334 7.699 58.843 16.478 6.753 6.888-12.111 14.542-12.111 23.997Z" fill="#E6E6E6"/><path d="M516.477 181.977s-4.413-1.891-37.278-4.232c-38.584-2.746-63.616-45.472-63.526-59.023.045-11.121-.585-6.663-9.049-12.156-1.351-.9-11.03-7.834-17.243-14.182-14.137-14.407-34.577-37.458-36.108-38.808-2.161-1.891-7.068.81-11.93.54-4.863-.27-7.609-3.512-8.824-6.258-1.216-2.701-3.512-2.026-11.121-4.322-7.608-2.296-6.483-5.673-6.483-5.673 15.037-5.267 39.574 5.538 39.574 5.538s54.566 31.245 74.601 43.76c1.846 1.171 3.421 2.162 4.592 2.927 14.047 9.455 82.795 91.889 82.795 91.889Z" fill="#B98984"/><path d="M712.05 57.538c-.766 1.35-5.268 1.936-5.763 4.277-.45 2.34-.856 5.132-2.341 7.473-1.261 1.981-3.107 4.277-3.647 4.953-2.701 6.753-18.639 45.381-33.811 60.103-.09.09-.18.135-.27.225-3.692 8.014-37.233 20.8-53.036 18.279-3.286 7.519-8.509 16.253-14.407 24.627-11.93 16.883-26.652 32.235-33.901 33.181-15.037 1.936-55.196-15.983-56.367-18.774-1.17-2.792 31.605-16.748 28.724-29.264-2.206-9.59-5.943-11.121 4.187-24.177.045-.09.135-.18.18-.225l-.225-.045s-5.178-3.737-8.014-8.779c-.45-.765-17.378-46.282-17.198-50.56.765-19.313 17.423-53.755 20.395-59.743.135-.765.585-3.466 1.17-5.492.675-2.432 2.341-4.413 3.692-6.168 1.306-1.756-1.081-5.178-.585-6.529.495-1.35 2.296-1.17 4.322.36 2.026 1.531 6.348 10.67 3.241 13.552-1.575 1.44-3.016 3.107-4.052 4.412-1.035 1.306-1.71 2.296-1.71 2.296-1.351 7.789-7.654 45.112-5.223 55.467 1.396 5.898 13.912 23.546 22.601 35.297v-.045s7.338 8.104 13.191 7.788c8.059-.45 14.317.316 21.34 3.152.225.09.946.405 1.171.45 8.104.36 49.434-3.872 56.862-7.924 5.088-2.791 14.092-12.245 22.511-21.835 8.419-9.635 16.208-19.36 18.864-22.736 0 0 1.215-4.952 1.26-9.59.046-4.637 10.626-7.743 13.372-7.203 2.746.495 4.232 1.8 3.467 3.197Z" fill="#EEE1D9"/><path d="M477.803 90.718s-67.667 23.096-106.071 54.476c0 0-10.49 7.159-14.001 10.22-3.557 3.062-13.912 15.218-12.471 18.234 1.44 3.016 10.445-5.718 18.639-5.763 8.193-.045 9.544-2.656 11.795-8.734 1.081-2.881 1.891-4.907 2.476-6.213 1.981-1.035 17.018-8.329 58.618-12.291 16.658-1.575 28.319-13.236 28.319-13.236s-4.007 18.459-5.718 39.259c-.99 11.885-1.215 24.581.495 35.026 2.251 13.777 7.834 23.637 19.45 22.781 35.882-2.656 60.959-21.205 60.959-21.205 3.647.676-36.333-106.656-62.49-112.554Z" fill="#EEE1D9"/><path d="M604.088 169.596s-20.214 34.982-39.168 41.06c-10.22 3.286-26.158-3.827-37.458-11.526-7.744-5.267-13.372-10.805-13.462-13.416-.045-.63.27-1.126.946-1.351 7.518-2.746 17.288-14.947 19.134-18.909.54-1.17.54-3.106.27-5.357-.585-5.358-2.341-12.606-.27-16.703 2.926-5.853 35.387-23.997 35.387-23.997l2.296.675s-20.575 26.878-12.741 30.93c4.862 2.521 39.709-27.283 39.709-27.283l5.267-.315-9.724 10.445c-6.934 7.384-6.528 14.767-3.602 20.89 4.187 8.689 13.416 14.857 13.416 14.857Z" fill="#0D3C88"/><path d="M701.965 200.751c0 11.796-6.753 22.466-17.603 30.255-10.85 7.743-25.842 12.561-42.32 12.561H409.551c-32.956 0-59.924-19.27-59.924-42.816 0-9.274 4.187-17.919 11.3-24.942 1.666-1.666 3.512-3.196 5.448-4.682 10.355-7.699 24.672-12.651 40.564-13.146 1.486-.045 3.017 0 4.503.09 12.786.99 86.531 6.663 113.049 6.663 26.022 0 99.677-5.448 114.804-6.618a48.99 48.99 0 0 1 6.799-.09c17.378.855 32.775 7.023 42.995 16.252 8.059 7.294 12.876 16.523 12.876 26.473Z" fill="#fff"/><path fill-rule="evenodd" clip-rule="evenodd" d="M572.663 121.603c-.09-.765 11.391-3.286 3.287-14.317-1.261-1.71-4.907-3.466-5.493-4.772-1.711-3.692.135-11.57-.27-15.847-1.17-3.017 4.187-1.306 8.194-2.252 6.618-1.575 18.099 2.432 14.182 17.064-.946 3.511-3.827 14.406-3.602 24.356.045 3.152-8.419.18-11.165.18-3.512.045-6.303-1.891-5.133-4.412Z" fill="#EEE1D9"/><path d="M570.998 87.432s-8.96-3.287-4.818-11.75c6.979-14.183 18.909.63 23.051-.901 4.187-1.486 13.282 2.25 12.787 10.084-.496 7.79-6.619 10.67-5.853 13.912.72 3.197-3.737 4.817-4.142 3.782-.135-.405.36-1.576-.09-3.197-.27-.9-1.576-1.08-1.306-1.305 2.611-2.161 1.126-7.519-1.576-4.998-2.656 2.522-5.987.63-6.708-.585-.765-1.26 0-5.988-3.692-5.493-3.736.45-4.682 1.306-7.653.45Z" fill="#A1551F"/><path d="M714.571 211.781c-8.374 5.043-16.973 7.609-22.871 9.77-14.452 5.313-37.323.81-43.175-3.512-20.755-15.487-40.52-20.124-63.526-6.213-11.3 6.844-20.665 10.22-28.048 10.896-10.625 1.035-20.305-1.126-26.653-4.683-20.395-11.435-40.519-20.124-63.525-6.213-8.374 5.043-16.974 7.609-22.871 9.77-14.452 5.313-37.323.81-43.176-3.512-20.755-15.487-40.519-20.124-63.525-6.213-28.274 17.064-45.202 10.04-45.202 10.04v37.458h384.304l64.561.225c-.901-18.234.36-36.647.09-54.926-8.464-.36-17.199 1.576-26.383 7.113Z" fill="#1164EA"/><path d="M624.709 91.709c4.772-9.59-.856-9.635-10.941-7.609-5.132 1.036-9.049-6.618-9.049-6.618-.36-2.791-5.042-8.194-9.634-7.969-2.972.135-8.465-.585-12.832.09-4.457.676-7.473 5.088-6.258 9.41.766 2.746 2.882 4.772 7.834 4.142 4.007-.54 7.384 0 10.13.9-4.727 2.972-8.014 3.377-7.879 3.872.27 1.035 2.837 8.87-1.576 15.037-4.322 6.033-1.395 19.63 14.587 10.895 8.645-4.727 29.129-3.151 33.181-9.319 6.709-10.175-9.409-9.094-7.563-12.831Z" fill="#A1551F"/><path d="M344.572 210.781c-8.374 5.043-16.973 7.609-22.871 9.77-14.452 5.313-37.323.81-43.176-3.512-20.754-15.487-40.519-20.124-63.525-6.213-11.3 6.844-20.665 10.22-28.048 10.896-10.625 1.035-20.305-1.126-26.653-4.683-20.395-11.435-40.519-20.124-63.525-6.213-8.374 5.043-16.974 7.609-22.871 9.77-14.452 5.313-37.323.81-43.176-3.512-20.755-15.487-40.52-20.124-63.525-6.213C-61.072 227.935-78 220.911-78 220.911v37.458h384.304l64.561.225c-.901-18.234.36-36.647.09-54.926-8.464-.36-17.199 1.576-26.383 7.113Z" fill="#1164EA"/></g><defs><clipPath id="a"><path fill="#fff" d="M0 0h741v260H0z"/></clipPath></defs></svg>