<svg viewBox="0 0 278 276" fill="none" xmlns="http://www.w3.org/2000/svg"><path fillRule="evenodd" clipRule="evenodd" d="M57.433 182.827c-.155-.02-.31-.042-.464-.066-1.159-.001-3.03-1.222-3.498-2.285-.135-.22-.115-.442-.095-.665.011-.123.023-.246.008-.369l-.016-.099a3.446 3.446 0 00-.018-.112c-.787.008-1.148-.606-1.453-1.124a15.23 15.23 0 01-.064-.108c-.286-.482-.629-.924-.972-1.366-.388-.501-.777-1.002-1.084-1.562-.957-1.748-2.076-3.431-3.523-4.835l-.227-.22c-1.037-1.004-2.076-2.01-3.007-3.099-.177-.207-.372-.397-.568-.587-.33-.322-.66-.643-.898-1.04l-.166-.138c-.201-.164-.401-.327-.562-.545-.391-.529-.792-1.183-.483-1.679.236-.379.789-.424 1.311-.466.13-.011.258-.021.379-.036.21-.027.29.118.37.264a.647.647 0 00.17.225.306.306 0 00.048.019c.023.008.045.016.067.031.215-.025.365.093.514.21.08.063.16.126.25.167.562-.401 1.185-.306 1.808-.211.278.042.555.085.827.083.607-.004 1.178.183 1.631.658a.27.27 0 01-.028-.002l-.076-.004c.034.013.07.019.105.006.87.333 1.652.106 2.431-.122.198-.058.396-.115.596-.164l.278-.069c.659-.164 1.317-.329 2.019-.308.219.005.383-.078.56-.169l.033-.016c1.152-.58 2.397-.883 3.72-.973.395-.026.816-.135 1.144-.327.953-.559 2.025-.808 3.096-1.056l.486-.114c.175-.042.331-.133.488-.224.271-.158.542-.315.912-.214.94-.401 1.936-.63 2.97-.741.08-.008.16-.02.241-.032l.144-.021c.557-.027 1.092-.151 1.627-.274.65-.15 1.299-.3 1.988-.277.395.012.753-.116 1.113-.245.293-.105.587-.21.903-.24l-.006-.006.226-.031c.144.026.285-.002.425-.029.2-.039.398-.078.606.035l.002-.002c.098-.087.197-.174.35-.137.233.041.416-.072.599-.184.217-.134.434-.267.732-.144.3-.089.599-.181.898-.272.655-.201 1.31-.402 1.973-.58.615-.165 1.156-.468 1.696-.771.527-.296 1.053-.591 1.648-.758 1.121-.938 2.492-1.384 3.864-1.831.414-.135.829-.27 1.236-.418.167-.054.324-.141.481-.228.389-.215.778-.429 1.306-.147.15-.03.268.041.386.112.039.023.077.047.117.066.67.01 1.478-.087 1.7-.631.21-.516.59-.793.97-1.069.176-.128.352-.256.51-.408.351-.334.772-.572 1.193-.809.19-.108.382-.216.567-.333 1.472-.935 2.744-2.087 3.65-3.587-.276-.194-.304-.46-.332-.725-.014-.134-.028-.268-.074-.393-.17-.427-.467-.547-.902-.466-.153.028-.303.061-.452.095-.623.14-1.234.278-1.982-.016-.698-.277-1.203.44-1.59.998-.225.065-.357.226-.49.387a1.866 1.866 0 01-.208.229c-.05.167-.18.255-.309.343-.043.03-.087.059-.127.092.181.153.177.286-.01.405-.07.649-.488 1.09-.94 1.473l-.02.016c-.245.208-.67.571-.805-.225-.052-.316-.333-.182-.44-.115-.411.255-.504.008-.6-.246-.019-.05-.038-.1-.059-.147-.51.166-.977.411-1.445.657-.472.249-.945.497-1.463.664a4.725 4.725 0 01-1.494.254c-.91.58-1.886 1.045-2.862 1.51-.676.322-1.352.643-2.006 1.004-.233.127-.338-.017-.434-.201-.174.055-.235.219-.295.384-.08.216-.16.432-.494.4-.783.463-1.573.911-2.53 1.003-.143.058-.3.107-.454.157-.284.09-.563.179-.752.31-.542.378-1.029.638-1.717.504-.055.473-.383.481-.707.488-.225.006-.449.011-.576.175-.256.328-.627.448-.998.567-.265.086-.53.172-.753.333-.004.004-.02-.006-.048-.022a1.104 1.104 0 00-.071-.042c-.019-.134.072-.161.17-.19.124-.037.26-.078.212-.333l-.485.081c-1.13.19-2.253.378-3.321.779.136.239.328.243.553.247.17.003.36.007.56.111-.553.13-1.087.28-1.614.429-1.26.355-2.476.698-3.797.707-.593.005-1.203.069-1.752.24-.288.089-.576.061-.862.034-.27-.026-.54-.052-.807.021-.259.071-.266-.081-.274-.241-.006-.129-.012-.263-.153-.286l-.592-.016h-.001c-.316-.001-.628.031-.94.062-.553.057-1.107.114-1.685-.016l-.076-.017c-.349-.08-.815-.188-.916.401-.005.04-.299.033-.458.021-.295-.025-.59-.054-.886-.084a28.028 28.028 0 00-1.657-.132c-.784-.029-1.547.099-2.308.227l-.372.062a3.719 3.719 0 01-.319.03l-.151.011-.06.005-.192.018c-.44.294-.95.301-1.46.307-.31.004-.621.008-.917.078a21.372 21.372 0 01-4.006.208c-.435-.017-.871-.069-1.304-.12-.225-.027-.45-.053-.673-.075a2.679 2.679 0 01-1.97-1.183c-1.173-.303-1.646-1.168-1.897-2.216-.181-.39-.355-.77-.385-1.216-.047-.725-.457-1.405-.865-1.964-.316-.43-.526-.898-.736-1.363-.185-.411-.369-.82-.624-1.199a17.507 17.507 0 00-.724-.734c-.544-.529-1.086-1.056-1.37-1.62-.337-.673-.865-1.103-1.385-1.527-.418-.34-.83-.677-1.136-1.131-.15-.224-.186-.456-.22-.683-.035-.224-.069-.445-.212-.653-.086-.128.08-.587.453-.163.402-.338.52-.757.235-1.254-.199-.347-.129-.623.114-.864.164-.164.403-.232.578-.041.072.08.183.113.295.146.225.068.456.137.404.579-.015.133.002.273.02.414.035.285.07.574-.156.824.067.036.145.059.223.083.228.068.456.137.412.521-.02.177.23.351.405.375.208.027.419.07.63.112.787.16 1.578.32 2.255-.318.16-.152.452-.222.586-.055.318.406.73.341 1.07.287.076-.012.15-.024.218-.029.747-.059 1.5-.097 2.252-.135 2.3-.116 4.603-.232 6.782-.966.121-.041.321-.103.377-.048 1.127 1.094 2.308.654 3.337.271.136-.051.27-.101.401-.146.713-.245 1.398-.288 2.09-.331l.353-.023c1.914-.13 3.753-.439 5.367-1.426.245-.096.499-.158.753-.221.448-.111.9-.222 1.32-.518.814-.576 1.767-1.068 2.871-1.156.447-.036.806-.263 1.164-.489.152-.097.305-.193.464-.275.58-.297 1.134-.446 1.821-.284.718.168 2.087-.566 2.278-1.143-.67-.474-1.392-.445-2.109-.322l-.06.01c-.243.042-.465.08-.687-.1-.79-.644-1.604-.447-2.389-.256-.098.024-.196.048-.294.07a3.127 3.127 0 01-.239.038c-.28.037-.585.077-.756.356.054.105.14.108.234.111.1.004.206.007.288.135a4.962 4.962 0 00-.342.069c-.248.055-.487.108-.52.054-.379-.655-.781-.489-1.179-.325-.2.083-.4.165-.595.142-.12-.014-.243.017-.37.048-.158.04-.323.081-.496.038-.435.599-1.11.776-1.816.876-1.077.152-2.12.416-3.164.679-.446.112-.891.225-1.34.328-.12.032-.241.067-.362.102-.66.191-1.32.383-2.048.022l-.463.006c.041.473-.243.496-.596.38-.302-.101-.205-.195-.108-.289.046-.045.092-.09.095-.135-.36-.279-.568-.096-.736.195.268.233.143.248-.038.27a3.164 3.164 0 00-.088.011c-.876.128-1.752.003-2.624-.121-.25-.036-.501-.072-.751-.102-.607-.072-1.2-.032-1.793.009-.624.043-1.246.086-1.878-.004l-.077-.011c-.337-.046-.712-.096-.867-.514v-.001l.001-.001-.001.001h-.001c-.332-.071-.668-.108-1.004-.146-.65-.072-1.299-.145-1.912-.454-.4.212-.759.038-1.118-.135l-.156-.074c-.975.307-2.263-.436-2.436-1.376a8.05 8.05 0 00-.262-.959 17.626 17.626 0 01-.133-.43c-.68.039-.6-.26-.52-.558.035-.128.069-.255.044-.356a.57.57 0 01-.012-.031l-.017-.04c-.118-.29-.202-.588-.285-.886-.115-.41-.23-.821-.435-1.214-.273-.521-.473-1.103-.313-1.701.182-.683.009-1.349-.165-2.016a15.294 15.294 0 01-.134-.546 27.417 27.417 0 00-.104-.45c-.158-.676-.316-1.35-.273-2.057.034-.519-.18-1.007-.394-1.495a6.9 6.9 0 01-.287-.727c-.197-.628-.227-1.2-.072-1.792-.037-.086-.07-.174-.103-.261-.153-.402-.304-.8-.788-1.014-.187-.082-.223-.34-.202-.573.062-.822-.208-1.604-.531-2.373-.09-.052-.145-.132-.2-.213-.065-.094-.131-.189-.254-.247-.626-.291-.777-.74-.335-1.185.299-.298.539-.587.677-.983.1-.289.318-.252.536-.214a.884.884 0 00.3.019c.082-.097.122-.225.163-.354.073-.236.147-.473.486-.51.04-.249.121-.481.204-.714.109-.306.218-.614.234-.972.027-.591.477-.945.921-1.294.184-.145.367-.288.518-.448.122-.128.245-.255.369-.382.446-.461.894-.922 1.268-1.437.38-.523.9-.871 1.42-1.218.308-.206.616-.411.894-.653.107-.094.191-.218.275-.342.177-.263.355-.528.768-.512.15-.132.243-.307.336-.481.11-.206.219-.411.422-.546l.611-.572c.616-.577 1.232-1.153 1.853-1.723.028-.025.06-.048.09-.071.118-.087.228-.168.149-.357-.06-.145-.168-.135-.28-.124-.08.007-.164.015-.23-.04.157-.277.324-.208.605-.073.441.214.937.107 1.023-.358.09-.473.525-.569.704-.504.547.198 1.075.137 1.601.076.306-.035.61-.07.918-.054.73.036 1.433.204 2.134.371.642.154 1.282.307 1.939.357.555.042 1.077.237 1.604.432.435.162.873.325 1.334.403-.06.151-.166.15-.283.149-.078 0-.162-.001-.24.044.33.29.625.539 1.07.402.38-.46.84-.23 1.218-.039.098.049.19.095.274.126.826.3 1.613.726 2.398 1.151.235.127.47.253.705.377.11.058.196.161.282.264.04.049.081.097.124.141.182-.008.194.096.206.199a.311.311 0 00.039.141c.065.094.07.093.226-.061.064-.063.121-.056.203-.007.59.353 1.128.724 1.51 1.35.159.26.465.444.769.626.118.072.237.143.346.218.119.081.236.165.354.248.605.429 1.21.857 1.954 1.013-.345-.33-.685-.666-1.025-1.002-1.007-.993-2.014-1.987-3.155-2.841-.484-.362-.958-.736-1.433-1.109a57.402 57.402 0 00-1.857-1.422c-.869-.63-1.682-1.336-2.495-2.043-.515-.447-1.03-.894-1.558-1.322-.222-.18-.47-.325-.718-.47-.344-.203-.69-.407-.971-.701-.667-.206-1.263-.558-1.86-.91-.233-.137-.466-.274-.703-.403-.369-.2-.737-.403-1.105-.605-1.239-.682-2.477-1.364-3.756-1.967l-.016-.007c-.275-.13-.48-.228-.652.085-.035.064-.098.136-.167.156-.325.104-.75-.046-.765-.291-.018-.287-.287-.452-.549-.612-.374-.228-.733-.447-.328-1.002.278-.38.596-.75 1.224-.715.436.023.716-.256.993-.534.116-.116.232-.231.359-.325a4.38 4.38 0 00.169-.131c.27-.217.523-.421.957-.25.233.091.368-.054.49-.186.038-.04.073-.078.11-.108.23-.192.446-.4.662-.608.32-.31.64-.618 1.006-.87.87-.606 1.933-.748 2.987-.89l.392-.053c.114-.016.23-.02.346-.023.258-.008.514-.015.74-.16.106-.652.445-1.124 1.016-1.465.31-.184.502-.496.691-.802l.095-.152c.273-.433.673-.737 1.077-1.042.35-.266.703-.534.976-.89.166-.217.882-.117 1.315-.005.603.159 1.189.215 1.79.198a.91.91 0 00.105-.106c.09-.097.182-.183.278-.252.697-.611 1.456-1.078 2.553-.753.293-.226.476-.053.66.119.061.058.123.117.19.16.134.056.279.065.428.074.254.017.522.034.773.284-.08.031-.155.065-.23.099-.362.162-.684.307-1.093.024-.03.133-.121.247-.212.362-.18.227-.359.454-.073.818l.143.085.137.08c.21-.183.448-.109.554.096.21.404.551.493 1.013.5-.137.168-.304.17-.456.173-.117.003-.226.005-.307.08.403.63 1.022.643 1.642.655h.022c.521-.722 1.462-.792 2.606-.194.058.03.118.074.178.117.116.083.23.164.322.15.634-.11.78.28.882.749.51.345 1.077.56 1.644.777.598.228 1.196.456 1.727.835h.001c.268-.184.486-.384.166-.801 1.725.777 3.254 1.82 4.783 2.862.45.308.9.615 1.356.915-.013.083-.09.098-.172.115-.068.014-.139.028-.18.08.175.206.352.41.53.615.257-.396.515-.627 1.004-.146.16.158.382.256.613.36.11.049.221.099.33.156a1.92 1.92 0 01-.228.104c-.179.073-.345.14-.418.328v.002c.123.045.239.117.355.189.29.18.582.363.992.114.075-.046.323.165.57.376.116.099.232.197.33.27l.843.839.184.081c.154.068.309.137.462.212.23.11.366.243.087.427l.145.327c.462.494.99.913 1.52 1.334.386.305.771.61 1.132.945 1.046.97 1.911 2.035 2.719 3.168.55.747 1.166 1.443 1.782 2.139.208.235.416.47.621.707.575.662 1.219 1.254 1.862 1.846.613.564 1.225 1.127 1.776 1.75.258.308.519.613.78.919.607.712 1.214 1.424 1.785 2.163.75.966 1.609 1.827 2.469 2.688.187.188.374.375.56.564.071.072.179.11.286.148.052.019.104.037.151.06.06.042.118.085.176.128.122.089.243.179.37.261.01.005.018.011.027.017.1.067.215.143.294-.042.01-.024-.024-.082-.059-.142-.074-.127-.15-.259.202-.06.16.089.374.21.102.413-.11.08-.196.192-.28.301a1.61 1.61 0 01-.034.043c-.078.101-.167.219-.059.357.142.184.29.105.416.002.453-.374.79-.077 1.116.257.041.041.064.1.087.158l.024.059c.055.124-.065.181-.186.239-.169.08-.34.161-.037.429.102.091.189.05.283.006.118-.055.247-.115.428.078.142.152.288.3.433.448.615.627 1.225 1.248 1.522 2.1.032.013.07.022.107.032.081.02.163.041.192.09.272.447.627.84.981 1.233.555.615 1.11 1.231 1.354 2.058.032.106.057.217.083.33.115.501.235 1.024.916 1.195.134-.082.253-.019.368.062.433-.195.899-.138 1.365-.082.473.057.945.114 1.383-.09.08-.037.153-.085.227-.132l.103-.065c.323-.524.73-.799 1.404-.43.04.023.133-.056.226-.136.045-.038.09-.076.13-.104.473-.815.055-1.546-.343-2.244a12.368 12.368 0 01-1.235-2.899l-.063-.113-.124-.226c-.431-.346-.673-.781-.703-1.312-.385-.59-.748-1.192-1.111-1.794-.465-.771-.93-1.543-1.443-2.289a18.126 18.126 0 01-.819-1.352c-.377-.663-.752-1.324-1.237-1.901-.282-.337-.534-.694-.787-1.052-.551-.782-1.105-1.568-1.985-2.157-.718-.481-1.469-1.327-1.91-2.227-.188-.04-.315-.136-.353-.328a63.015 63.015 0 00-.823-.729c-1.074-.942-2.147-1.883-2.977-3.062-.062-.087-.154-.124-.237-.158-.066-.027-.126-.051-.16-.096a2.354 2.354 0 00-.43-.396c-.316-.247-.635-.495-.653-1.015-.014-.455-.455-.814-.847-1.132a28.02 28.02 0 01-.096-.078c-.724-.59-1.303-1.305-1.882-2.02-.31-.383-.62-.766-.954-1.13-.486-.317-.809-.768-1.132-1.22-.153-.213-.305-.427-.476-.626l-.374-.442c-.892-1.057-1.783-2.113-2.972-2.884-.279-.18-.53-.409-.661-.729-.088-.078-.187-.144-.287-.21-.23-.153-.46-.305-.536-.608a1.09 1.09 0 00-.451-.503c-.337-.027-.585-.25-.721-.504-.535-.99-1.37-1.731-2.19-2.46-.119-.104-.236-.208-.353-.313l-.249-.228c-.603-.556-1.231-1.135-2.13-1.341-.275-.062-.853-.72-.467-1.418-.447.097-.72-.017-1.052-.31-.735-.649-1.488-1.313-2.407-1.726-.602.042-1.046-.287-1.487-.613-.2-.149-.4-.297-.615-.41-.374-.196-.728-.45-1.08-.703-.45-.324-.895-.644-1.372-.835-.958-.384-1.738-1.002-2.517-1.619-.537-.425-1.074-.85-1.668-1.198a55.762 55.762 0 00-1.171-.658c-.585-.323-1.171-.646-1.74-1-.721-.449-1.38-.86-1.846-1.6-.025-.04-.048-.095-.075-.156-.11-.254-.266-.616-.73-.409-.094.042-.14-.13-.14-.24-.002-.152.058-.248.218-.273.103-.017.206-.043.31-.07.217-.055.432-.11.638-.073.326.059.651.04.976.021.485-.027.97-.055 1.458.173.647.3.94-.2 1.07-.619.174-.558.469-.934.988-1.163h.001l-.002-.002c.224-.12.432-.271.64-.422.476-.344.953-.688 1.626-.678.269-.052.56-.016.849.02.428.052.846.104 1.163-.137.74-.562 1.346-.267 2.024.1a824.745 824.745 0 011.727-.062c.793-.24 1.59-.413 2.46-.202.233.056.384-.079.537-.216.142-.126.286-.255.498-.238.747-.51 1.605-.758 2.518-.828.35-.028.591-.217.83-.405.18-.14.357-.279.578-.35.195-.084.391-.166.587-.249l.388-.164c.265-.01.531-.007.797-.004.631.007 1.261.014 1.87-.153.185-.05.339-.148.495-.247.268-.17.541-.344.98-.284.845.118 1.627.416 2.409.713.199.076.398.152.598.225l.038.012c.164.053.592.189.43.61-.091.234.155.31.349.353l.024.005c.152.034.314.07.398-.108.066-.137-.006-.217-.092-.315-.064-.072-.136-.153-.167-.272.416.22.838.367 1.258.514.61.215 1.216.427 1.786.856.569.428 1.253.795 1.926 1.157l.497.269c.784.431 1.503.938 2.015 1.685.2.098.41.187.618.275.458.195.915.389 1.285.69.362.295.744.567 1.126.84.851.605 1.702 1.212 2.336 2.072l.048.063c.098.128.184.24.14.432-.06.286.114.422.384.303.456-.204.431.12.328.327-.133.28.006.433.157.599.027.03.055.06.081.092.212.252.314.166.445.055a.825.825 0 01.165-.117c.289-.146.435.147.551.38.032.064.061.123.09.168.501.755 1.055 1.431 1.798 1.984l.034.024c.305.226.74.548.312 1.024-.107.119-.185.297-.02.427.593.468.962 1.09 1.33 1.712.19.32.379.64.6.939.307.417.657.8 1.007 1.183.549.601 1.096 1.2 1.472 1.924.723.66 1.542 1.5 1.596 2.3.045.644.414.852.768 1.05.217.123.429.242.556.458.037.062.084.119.132.176.1.12.202.242.212.42-.177-.022-.251-.144-.322-.264-.058-.095-.114-.188-.221-.227-.039-.014-.07-.05-.101-.086-.053-.063-.103-.123-.185-.049-.014.012.005.044.031.087.043.072.104.174.061.264.001.337.205.567.417.805.151.17.306.345.391.565.107.276.199.146.318-.025.089-.126.194-.275.332-.297-.016.57.341.919.701 1.27.185.18.371.36.507.574.074.116.156.225.237.332.268.356.521.691.429 1.228-.04.238.06.69.354.956l.077.033c.187.082.403.177.485-.043.063-.173-.023-.316-.115-.47-.066-.111-.136-.228-.155-.365l1.526 1.998.352.462c.116.181.227.366.339.55.343.567.686 1.133 1.14 1.635.397.443.565.884-.046 1.237l.041.09.109.247c.424.202.419.017.414-.19-.003-.132-.006-.274.1-.331l.65 1.045 1.656 2.665c-.498-.292-.759-.551-.983-.984-.157-.305-.31-.588-.713-.585.683.881 1.198 1.855 1.712 2.828.57 1.078 1.14 2.156 1.939 3.109.083-.273-.046-.507-.175-.741-.119-.216-.239-.432-.19-.679-.715-.724-1.153-1.582-1.433-2.52.133.189.278.374.422.558.464.591.928 1.183 1.015 1.962.435.49.732 1.057 1.029 1.624.168.32.335.639.528.946.149.238.309.473.468.708.48.705.961 1.412 1.162 2.232-.912-.162-.912-.166-.938-.993l-.003-.075c-.021-.622-.352-.837-.923-.528-.328.578-.384 1.058.332 1.549.244.167.282.48.32.788.02.166.04.331.092.471.131.355.432.658.734.962.146.147.291.294.419.448l.341.408c.596.715 1.192 1.429 1.751 2.169.03.04.056.079.082.117.132.193.236.347.506.21.027-.013.054-.029.08-.043.17-.096.331-.187.403.121.046.203.22.357.392.508.268.236.528.466.28.862-.227.364-.023.524.176.68.123.096.243.19.261.33.539-.231.668.092.795.411.061.152.121.304.226.393.182.155.297.383.414.613.081.16.162.32.267.46.561.747 1.536 1.088 2.306.845.826-.257 1.399-1.11 1.362-2-.018-.415.144-.716.577-.812a11.706 11.706 0 00-.579-2.681c-.329-.978-.724-1.936-1.119-2.894-.25-.607-.501-1.215-.734-1.828-.197-.516-.507-1-.82-1.488-.225-.35-.451-.703-.637-1.071-.316-.625-.56-1.273-.804-1.921-.274-.729-.549-1.459-.926-2.156-.223-.41-.426-.663-.858-.762v-.002c-.485-.412-.784-.939-1.084-1.467-.197-.348-.395-.697-.647-1.013.073-.107.179-.081.281-.056.107.026.21.051.26-.085l-.764-1.3-.588-1.001-.09-.106c-.176-.205-.353-.411-.427-.68-.465-.202-.623-.59-.782-.983a3.89 3.89 0 00-.202-.443c-.644-1.148-1.532-2.147-2.48-3.043-.37-.349-.685-.737-1-1.126-.368-.453-.736-.906-1.191-1.296-1.05-.9-1.941-1.966-2.828-3.025a40.814 40.814 0 00-.22-.263c-.259-.033-.411-.207-.564-.382-.11-.127-.221-.253-.373-.326l-.019-.001c-.687-.073-.901-.294-.798-.83l-.001-.01a11.047 11.047 0 00-2.188-2.617 3.13 3.13 0 01-.926-1.447c-.672-.453-1.178-1.08-1.671-1.689l-.016-.018a307.833 307.833 0 01-3.762-4.777l-.606-.779a5.048 5.048 0 01-.335-.51c-.192-.317-.383-.635-.698-.868-.08-.35-.287-.632-.495-.914a4.364 4.364 0 01-.335-.504c-.192-.247-.32-.527-.449-.808-.171-.374-.343-.75-.664-1.044-.868-.96-1.499-2.061-2.129-3.161a108.73 108.73 0 00-.308-.535c-.07-.12-.142-.24-.215-.36-.312-.515-.627-1.033-.719-1.636-.026-.173-.152-.243-.285-.318-.117-.065-.24-.134-.307-.278-.25-.54-.441-1.093-.632-1.646l-.113-.328c-.526-.533-.868-1.17-1.143-1.842-.177-.442-.44-.807-.869-1.068-.351-.215-.544-.56-.735-.902-.035-.064-.07-.127-.107-.19-.847-.622-1.045-1.816-.443-2.593.111-.144.203-.303.296-.465.046-.08.093-.161.143-.242.335.626.721.489 1.104.353.185-.065.369-.13.547-.11l.002.003c.236-.897.941-.893 1.707-.767.181.03.361.063.541.096l.335.061c.272-.111.549-.044.819.021.075.018.149.036.222.05.865.164 1.68.018 2.495-.128.506-.091 1.013-.182 1.531-.198.097-.044.202-.082.307-.119.229-.08.458-.162.605-.318.697-.745 1.663-1.014 2.607-1.186.983-.179 1.921-.414 2.752-.9.686-.401 1.311-.308 1.951.128.736.503.925 1.281.915 2.04-.003.28.015.43.204.6.053.01.101.031.141.065.546.032 1.084.134 1.622.236.214.04.427.08.641.116.43.073.858.035 1.287-.004.424-.038.849-.075 1.28-.008 1.976.339 3.795 1.033 5.28 2.497l.28.203c.131.13.299.192.467.255.2.075.399.15.538.336l.527.182c-.003.037.022.076.055.114-.017-.037-.033-.072-.055-.114a9.359 9.359 0 011.537 1.344c.114.123.125.283.135.438.015.223.029.436.354.514.326.008.625.137.924.267.315.136.629.272.976.269-.276-.734-.79-1.307-1.305-1.882-.346-.387-.693-.774-.968-1.211-.318-.502-.385-.87-.065-1.296a1.12 1.12 0 00-.074-.074c-.06-.056-.12-.112-.137-.177-.046-.171-.212-.121-.364-.076-.18.054-.34.101-.253-.234.035-.134.052-.276.069-.42.05-.411.102-.834.571-1.092l.018-.01c.369-.207.761-.427.947-.927.15-.405.585-.555 1.127-.158.052.038.104.078.156.118.455.345.959.728 1.609.406.107-.053.386.014.455.11.718.99 1.658 1.03 2.684.848.276-.05.6-.008.849.237.604.599 1.378.811 2.153 1.023.934-.204 1.813-.292 2.826.111.372.147.78.204 1.195.262.442.062.892.125 1.315.3.459.19.922.374 1.385.559l.635.254c.672-.157 1.338-.017 2.002.123.271.057.541.114.811.15.271.038.135.114.022.178-.035.02-.068.038-.086.053h-.002c-.092.223-.104.482.216.453.084-.007.188.015.294.038.249.053.507.109.526-.22.03-.53.386-.587.67-.472.304.122.184.226.057.336-.069.06-.139.121-.146.188-.023.258.059.472.3.502.568.07 1.128-.08 1.527-.404.495-.4.899-.361 1.226.293.067.135.226.282.307.179.144-.182.318-.108.488-.035.167.07.329.14.451-.042.067-.097-.006-.187-.128-.243-.072-.032-.152-.041-.231-.05-.135-.015-.271-.03-.373-.162.815-.11.963-.052 1.461.564.559.694 1.281.62 1.605-.192.068-.171.168-.162.274-.152.035.003.071.007.106.003.466-.043.924.047 1.38.17h.001c.414-.143.827-.046 1.24.05.337.08.675.158 1.013.107 1.277-.254 2.458.14 3.54.85.208.137.403.138.592.14.144 0 .284 0 .423.06.42.18.851.326 1.283.471.766.258 1.536.517 2.258.977l.168.108c.503.325 1.076.695 1.732.796.493.077.891.488 1.214.856.661.752 1.47 1.375 2.256 1.926.226.158.463.306.7.455.457.286.918.575 1.321.946.35.322.728.61 1.106.897.511.39 1.022.779 1.467 1.255.37.396.876.573 1.38.749.202.07.404.14.597.225.134.06.272.112.409.164.422.162.844.322 1.171.674.554.023 1.032.285 1.509.546.273.15.545.299.832.404.21.077.426.147.645.218.578.188 1.169.38 1.695.714 1.026.65 2.155 1.002 3.284 1.353.592.184 1.185.368 1.762.596.182-.123.375-.07.568-.017.168.046.336.093.497.023.157.026.313.095.47.163.358.158.717.316 1.094-.036.048-.044.308.029.365.112.117.169.021.279-.075.39a.65.65 0 00-.108.15l.384.313c1.002.024 1.886.382 2.674 1.038.205.171.339.353.307.616l.191.148.337.26.069.05.069.047.002.002c1.03.432 1.749 1.23 2.446 2.055.246.076.402.258.559.442.111.13.223.261.368.356.049.033.009.034-.054.034-.071 0-.169.002-.204.049.146.066.17.187.194.307a.964.964 0 00.029.121c.023-.01.051-.027.078-.042.053-.03.103-.06.11-.052.171.194.386.354.598.51.254.188.501.371.657.605.095.142.194.285.294.428.627.898 1.269 1.819 1.027 2.995.121.633.5 1.05 1.125 1.255.234.106.475.186.716.265.474.156.949.312 1.369.672.326.278.767.305 1.208.332.193.012.387.024.57.057l.213.006c1.618.034 3.03.762 4.38 1.6a23 23 0 00.568.34c.443.258.888.518 1.297.849.568.46 1.099.922 1.49 1.532.325.161.508.45.691.738.184.29.367.58.695.741 1.121.975 2.025 2.131 2.893 3.514.039-.258-.05-.4-.137-.538-.067-.108-.133-.212-.135-.368l1.336 1.596c1.947 1.459 3.645 3.166 5.23 4.995l.509.58c.569.645 1.137 1.288 1.643 1.984l.077.103c.138.183.272.362.318.59.795.832 1.443 1.737 1.621 2.877.047.294.247.48.453.673.147.137.298.278.399.463.454.831.644 1.704.833 2.575.08.366.159.731.258 1.093.264.967.502 1.953.515 2.963a26.835 26.835 0 01-.195 3.386c.601 1.928.811 3.859.615 5.822-.042.416-.222.589-.48.788-.152 1.128-.38 2.229-.911 3.231.108.149.062.287.016.424-.04.117-.079.233-.023.356.089.147.07.302.05.459-.023.189-.047.381.114.567.083.094-.153.404-.285.327-.216-.128-.316-.018-.412.087-.071.078-.139.153-.251.128-.425.372-.436.892-.446 1.395-.001.095-.003.19-.008.284-.027.536-.12 1.392-.425 2.192-.259.522-.518 1.045-.779 1.568l.005.186-.001-.001.001.002c-1.219 1.901-2.788 3.488-4.505 4.947l-.036.03c-.152.132-.254.22-.501.119-.172-.073-.373.03-.484.19-.02.031.038.151.09.195.119.101.185.037.257-.032.066-.064.137-.133.261-.077-.266.654-.8 1.042-1.33 1.426-.205.149-.409.297-.597.46a16.837 16.837 0 01-2.083 1.552c-.397.249-.823.453-1.251.657-.3.144-.6.288-.89.447a1.668 1.668 0 01-.303.112c-.366.112-.752.23-.359.87.028.046-.062.196-.135.251-.829.621-1.764.97-2.865.87a1.12 1.12 0 01-.104-.017c-.084-.016-.169-.032-.212.001-.787.625-1.546.263-2.306-.197-.027.058-.05.119-.073.18-.052.136-.104.272-.196.372-.191.206-.463.455-.633-.068-.108-.334-.463-.511-.62-.398-.256.184-.525.106-.794.029-.26-.076-.52-.151-.767.013-.042.028-.047-.031-.056-.118-.012-.127-.031-.315-.178-.378l-.514-.092-.208-.037c-.381.441-.754.191-1.127-.06l-.048-.032c-.255.082-.463.233-.672.385-.192.139-.385.279-.617.369-.794.308-1.65-.112-1.902-1.031-.159-.125-.35-.1-.541-.075-.254.032-.508.065-.686-.254-.198.04-.356-.053-.515-.146-.103-.06-.205-.12-.319-.144-1.065-.119-2.038.117-3.072.463a.336.336 0 01-.044-.11c-.041-.14-.1-.343-.367-.318-.192.017-.219.158-.246.299a.629.629 0 01-.057.19c-.211.37-.496.435-.78.012a.912.912 0 00-.133-.145c-.093-.087-.185-.174-.194-.32-.011-.189-.162-.192-.3-.174-.187.025-.155.133-.114.274l.004.013c.186.654-.183.794-.748.896a6.488 6.488 0 00-.596.149c-.356.101-.714.202-1.104.195-.372-.006-.532.237-.692.48-.055.083-.11.166-.173.239l.44.546.126.091.14.101c.627.007 1.085.375 1.529.77.543.283 1.085.565 1.628.846l1.052.547c.079.03.16.057.241.084.179.06.357.119.52.208a17.425 17.425 0 006.35 2.004c.349.041.692.194 1.035.349.197.088.394.177.593.244.921.313 1.867.46 2.812.606.552.086 1.103.172 1.65.29.102.023.208.04.315.059.42.071.861.146 1.196.494.516-.093.967.083 1.466.279 1.208.473 2.315 1.152 3.407 1.821l.221.136c1.925 1.179 3.472 2.727 4.442 4.843.168.367.329.738.489 1.11.327.756.654 1.513 1.048 2.241.795 1.468 1.313 3.001 1.472 4.634.075.759.455 1.461.823 2.14l.082.153c.356.66.571 1.271.198 1.929.032.226.086.453.139.679.146.617.292 1.235.015 1.849a.31.31 0 00-.04.12c.646.036.648.623.649.935 0 .053 0 .097.003.13.142 1.563.026 3.116-.09 4.668l-.026.341c-.017.236-.045.471-.074.707-.044.371-.089.744-.093 1.127-.01.992-.409 1.914-.958 2.738-.104.244-.203.49-.302.736-.395.983-.79 1.967-1.506 2.776-.237.935-.782 1.684-1.327 2.435-.4.55-.801 1.101-1.08 1.726-.166.369-.529.697-.953.862-.22.085-.152.217-.09.339.045.088.087.171.014.225-.63.468-1.067 1.102-1.504 1.737-.467.68-.934 1.359-1.64 1.833-.021-.004-.036-.019-.048-.036.004.018.017.033.048.037-1.282 1.446-2.564 2.895-3.65 4.5l-1.017 1.353-1.169 1.554c-.049.122-.16.182-.271.241-.126.067-.252.133-.286.292.251.263.069.296-.085.324-.062.012-.12.022-.142.047l-.286.321c-.873.98-1.749 1.963-2.703 2.866-.193.183-.4.357-.607.532-.305.258-.612.517-.88.806-.119.128-.277.225-.437.323-.369.227-.747.459-.669 1.094.016.134-.311.287-.64.44-.151.071-.303.142-.42.211-.394.506-1.005.639-1.589.765-.091.02-.182.039-.271.06a.59.59 0 00-.319.205.525.525 0 01-.196.151c-1.416.816-2.943.781-4.584.462-.288-.055-.576-.128-.866-.201-.877-.22-1.764-.443-2.651-.209-.291.075-.536.243-.783.411-.265.182-.531.364-.859.434a.896.896 0 00-.242.106c-.147.082-.294.164-.495.078l-.006.001c-.413.248-.855.418-1.37.376-.925.333-1.681.912-2.436 1.492-.647.496-1.295.993-2.049 1.335-.432.745-1.178 1.111-1.906 1.468-.191.094-.381.187-.563.286-.621.336-1.334.518-2.047.701-.313.08-.627.16-.932.253-.99.044-1.985.1-2.936.328-1.638.394-3.325.303-5.007.212l-.099-.006c-.193-.01-.387.016-.581.042-.405.055-.812.11-1.211-.168a.301.301 0 01-.097.119c-.061.357-.109.593-.656.532-.243-.027-.48-.078-.72-.128-.407-.086-.819-.173-1.264-.15-.997.051-2.018-.34-2.839-1.077-.261-.115-.538-.174-.77-.033-.292.176-.444.006-.604-.17l-.061-.067-.991.202-.845.171a8.931 8.931 0 00-.175.049c-.212.196-.487.243-.762.291a6.663 6.663 0 00-.138.025l.003.016c-.152.182-.363.188-.574.194-.11.004-.22.007-.322.035-.336.212-.688.211-1.094.21h-.113c-.758 0-1.638.19-2.19.626-.385.306-.78.367-1.18.429-.14.022-.281.044-.422.077a38.01 38.01 0 00-1.107.645c-.974.582-1.947 1.164-3.055 1.518-1.511.974-3.233 1.461-4.956 1.949-.92.26-1.841.521-2.729.856-.139.353-.434.332-.717.312-.114-.008-.227-.017-.326 0a72.44 72.44 0 01-.19.033c-.646.115-1.318.235-1.954-.24a10.564 10.564 0 01-4.727-.593c-.417-.151-.85-.251-1.284-.35-.483-.111-.967-.222-1.432-.404-.865-.039-1.648-.385-2.428-.728-.272-.12-.544-.24-.818-.346-.307-.118-.619-.217-.931-.317-.435-.139-.872-.278-1.297-.468l-.065-.029c-1.056-.472-2.058-.919-2.608-2.047-.093-.193-.307-.336-.521-.479-.096-.065-.193-.13-.279-.199-.867-.194-1.667-.949-1.597-1.511.004-.029.005-.064.007-.1.004-.088.009-.18.045-.192.318-.106.567-.317.816-.527.307-.259.612-.517 1.044-.58.228-.146.454-.294.681-.441a59.52 59.52 0 011.604-1.021c.262-.16.57-.27.909-.25.694-.838 1.634-1.347 2.573-1.855.298-.162.596-.323.886-.495.352-.194.682-.421 1.012-.648.54-.371 1.079-.742 1.714-.968.168-.261.422-.388.734-.428.05-.031.087-.079.124-.127.071-.092.141-.184.297-.157l.205-.103c.291-.146.581-.292.87-.439l.162-.11.252-.171c.301-.214.588-.445.876-.677.531-.429 1.065-.86 1.693-1.182l-.008.233-.008.238c.397-.276.801-.543 1.204-.811 1.06-.704 2.119-1.408 3.073-2.249.238-.209.447-.448.656-.687.096-.111.193-.221.292-.329l1.666-2.138c.238-.347.485-.688.733-1.029.638-.881 1.277-1.762 1.764-2.753.118-.237.177-.486.236-.733.057-.243.115-.485.227-.71-.152-.079-.146-.17-.137-.303l.004-.073c.015-.35.016-.519.087-.558.066-.036.193.04.449.187.022.013.06 0 .098-.014l.052-.016.098-.271c.072-.199.145-.398.204-.602.557-1.894 1.396-3.657 2.236-5.42.575-1.207 1.15-2.415 1.634-3.665l.217-.272.391-.49c-.125-.612.147-1.104.408-1.578.084-.151.167-.301.235-.452.177-.391.305-.806.434-1.222.264-.851.528-1.703 1.203-2.348.185-.177.235-.397.13-.652-.268-.239-.143-.417-.019-.593.105-.151.21-.3.066-.484-.269.032-.433.223-.602.419-.157.182-.317.369-.569.436l-.276.383-.275.384c.011.05-.006.084-.053.102-.342.639-.836 1.152-1.331 1.664-.347.36-.694.72-.989 1.124-.024.821-.417 1.52-.855 2.125-.236.325-.44.668-.645 1.011-.224.377-.449.754-.714 1.105l-.043.108c-.313.791-.62 1.565-1.357 2.117-.347.26-.525.758-.676 1.231-.089.279-.292.517-.495.755-.091.107-.182.213-.263.324-.332.526-.759.964-1.225 1.38-.454.405-.724.938-.994 1.471-.13.257-.26.513-.409.754-.143.228-.325.388-.504.546-.116.101-.23.202-.333.32-.581.816-1.287 1.524-1.993 2.231-.302.302-.604.605-.896.916-.568.607-1.19 1.167-1.812 1.726-.278.251-.557.501-.831.756-.205.426-.473.795-.919 1.001-.606.28-.95.769-1.259 1.339-.317.586-.814 1.057-1.311 1.516-1.323 1.221-2.652 2.432-4.246 3.331a.906.906 0 01-.526.122c-.858.704-1.916.97-2.979 1.237l-.311.079c-.722.184-1.466.198-2.21.212-.328.006-.656.012-.983.033a.719.719 0 00-.045.062c-.037.053-.074.108-.106.103-.812-.134-1.26.318-1.709.771-.24.241-.479.482-.774.635-.858.446-1.652 1.002-2.446 1.559-.337.236-.674.472-1.016.7-.582.46-1.255.773-1.929 1.085-.454.211-.908.422-1.334.678-.327.196-.565-.064-.797-.316-.081-.088-.161-.175-.243-.241-1.121.168-2.26.184-3.4.2-.45.007-.901.013-1.35.029-1.723.06-3.376-.474-5.016-1.004-.463-.149-.924-.298-1.386-.433-.884-.259-1.709-.768-2.534-1.278a23.019 23.019 0 00-1.182-.699c-.233-.126-.46-.261-.688-.397-.618-.368-1.236-.736-1.961-.899-.47-.108-.86-.404-1.249-.699a9.142 9.142 0 00-.449-.327c-.46-.199-.912-.42-1.363-.64-.718-.352-1.436-.703-2.19-.965a.243.243 0 01-.134-.099c-.441-.825-1.2-1.221-1.957-1.617-.33-.173-.66-.345-.963-.552a8 8 0 00-.154-.052l-.181-.061c-.675-.364-1.23-.854-1.578-1.536a1.096 1.096 0 00-.18-.222c-.21-.221-.43-.452.17-.633.069-.021.121-.165.007-.273-.052-.049-.127 0-.2.048-.112.074-.22.145-.227-.163-.004-.176.136-.21.278-.245a.572.572 0 00.21-.079c.988-.724 2.089-1.195 3.383-1.227.56-.013 1.057-.282 1.405-.613.798-.752 1.775-1.12 2.783-1.5l.07-.027c.932-.351 1.838-.757 2.743-1.162a85.7 85.7 0 011.456-.642c.983-.421 2.011-.729 3.039-1.037a45.528 45.528 0 001.837-.577c.119-.04.236-.086.354-.132l.156-.061c.506-.177.938-.469 1.373-.763.48-.324.963-.65 1.555-.831a5.21 5.21 0 01.215-.059c.481-.126 1.146-.3 1.288-.983.012-.058.138-.087.263-.116.056-.013.113-.026.159-.041.591-.783 1.439-1.214 2.286-1.645.255-.13.511-.26.759-.399.586-.331 1.181-.649 1.776-.967 1.192-.636 2.385-1.273 3.508-2.018a.81.81 0 01.294-.098c.05-.011.1-.021.148-.035.466-.442 1.034-.738 1.602-1.034.428-.223.856-.447 1.241-.733.489-.363 1.04-.636 1.592-.909.809-.4 1.618-.8 2.232-1.487.074-.083.201-.118.328-.154a1.67 1.67 0 00.173-.054c.341-.447.824-.709 1.309-.973.337-.183.676-.367.968-.614l.085-.074c.173-.153.392-.348.673-.368l.002-.001c.074-.063.143-.131.212-.199.205-.203.409-.405.727-.461l.661-.468c1.47-1.04 2.939-2.081 4.409-3.123a.177.177 0 00.1-.039 2.061 2.061 0 01-.1.039c.105-.129.204-.263.303-.396.331-.448.66-.894 1.236-1.146.512-.224.769-.683 1.029-1.147.191-.34.383-.683.679-.939.181-.158.156-.395.129-.644-.025-.239-.052-.489.102-.693.042-.056.074-.124.106-.191.071-.148.141-.297.316-.328.858-.159.969-.812 1.03-1.507l.008-.098c.028-.364.056-.71.533-.821.251-.057.23-.268.157-.516-.168-.588-.047-1.112.314-1.598.355-.477.775-.913 1.18-1.321.248-.253.397-.561.544-.867.172-.354.341-.706.663-.966.082-.067.15-.152.218-.238.107-.133.216-.27.385-.344.283-.327.503-.698.724-1.069.255-.43.511-.859.863-1.22l.078-.177c.18-.4.355-.786-.232-1.197-.241-.168-.34-.092-.46-.001-.024.018-.049.037-.075.054-.662.451-1.236.987-1.646 1.679-.027.046-.058.091-.088.136-.074.109-.147.217-.171.338-.102.566-.257.766-.816.255-.3-.274-1.654.297-1.887.807-.059.13-.155.185-.247.238-.072.042-.142.082-.189.157-.041.741-.335.555-.629.369-.151-.095-.303-.191-.419-.16v.001c-.16.293-.401.505-.696.66l-.028.211-.019.145c.327.359.324.506-.005.978-.39.56-.935.938-1.476 1.313-.561.389-1.118.775-1.493 1.358-.294.456-.695.813-1.097 1.17-.408.363-.817.727-1.113 1.194-.094.149-.257.174-.418.199-.049.008-.099.015-.146.027a.58.58 0 01-.327.587c-.417.203-.692.539-.966.875-.187.23-.375.46-.607.646a32.91 32.91 0 00-.305.405c-.912 1.067-1.929 2.034-2.947 3.001-.892.849-1.785 1.698-2.606 2.614l-.001-.002v.001l.001.001-1.682 1.554-1.681 1.555c-.107.49-.461.747-.816 1.005-.194.141-.388.281-.543.46-.021-.18.099-.275.217-.368.137-.108.272-.215.183-.45-.194.009-.291.136-.388.264-.078.103-.156.206-.286.247-.118 1.044-.874 1.648-1.586 2.216-.106.084-.211.168-.313.252a61.871 61.871 0 00-2.204 1.946c-.468.426-.936.852-1.413 1.27-.029.026-.055.061-.081.095-.042.057-.083.112-.135.119-.682.094-1.081.528-1.484.966-.142.154-.284.308-.439.449-.508.458-1.098.833-1.686 1.206-.161.102-.322.204-.48.307a7.328 7.328 0 01-.743.411c-.112.057-.225.113-.336.172l-.012.002c-1.025.762-2.185 1.299-3.345 1.835-.436.201-.872.403-1.3.616-.083.042-.287.036-.291.02-.223-.745-.612-.521-.935-.335-.093.053-.18.103-.256.126-.586.18-1.191.211-1.794.241a13.02 13.02 0 00-1.028.079 9.846 9.846 0 00-2.266.574 97.235 97.235 0 01-4.32 1.511c-.077.026-.147.085-.218.144-.166.139-.338.283-.605.017v-.001l-.002.001c-.174.108-.33.239-.487.371-.271.227-.542.454-.904.556.103.759-.38.914-.881 1.075-.118.038-.237.076-.35.123-.289.12-.35-.011-.429-.178l-.03-.062c-.08.015-.164.019-.248.022-.172.007-.345.014-.49.118.11.097.238.11.41.126.113.011.245.024.402.063-.317.114-.614.234-.9.35-.604.245-1.16.47-1.744.566-.715.116-1.358.387-2.001.658-.48.202-.959.404-1.468.543-.722.196-1.273.03-1.876-.209-.7-.28-1.366-.613-1.872-1.25-.15-.19-.429-.288-.704-.384a4.83 4.83 0 01-.322-.122c-.67-.292-1.03-.904-.843-1.586.077-.289-.074-.401-.23-.517a1.24 1.24 0 01-.144-.119c-.145.166-.233.077-.325-.014-.039-.04-.079-.081-.125-.101-.084-.039-.163-.101-.242-.163-.202-.158-.406-.317-.696-.113a.29.29 0 01-.128.037c-.024.004-.048.007-.07.012l.02-.061c.02-.054.037-.107.05-.163.036-.167-.099-.307-.213-.285-.85.174-1.301-.369-1.73-.886a6.102 6.102 0 00-.347-.394c-.37-.374-.765-.718-1.16-1.062a18.86 18.86 0 01-1.261-1.166c-.094-.098-.186-.198-.28-.298-.478-.515-.96-1.036-1.595-1.287-.583-.232-.99-.63-1.397-1.03a9.917 9.917 0 00-.51-.475.562.562 0 01-.215-.502l-.001-.001c-.172-.112-.352-.213-.533-.315-.617-.347-1.233-.694-1.488-1.447-.722-.343-1.1-.962-1.48-1.581-.188-.309-.377-.617-.609-.892-.393-.466.085-1.273.69-1.362.153-.022.311.004.469.03.261.043.521.085.754-.093.395-.092.801-.035 1.208.022.492.069.984.138 1.453-.059.414-.173.86-.195 1.31-.218.421-.021.845-.042 1.25-.186.094-.033.223-.025.366-.017.262.015.57.033.792-.19l-.266-.008-.227-.007c.651-.635 3.056-1.523 4.841-1.796l2.308-.835.972-.376c1.34-.519 2.679-1.037 4.02-1.55.207-.079.423-.137.638-.195.089-.024.177-.048.265-.074.216-.1.434-.201.65-.299l2.125-1.137c.801-.548 1.713-.878 2.624-1.206.572-.207 1.144-.413 1.688-.674.862-.412 1.669-.929 2.475-1.446.337-.216.673-.431 1.014-.64.054-.032.103-.07.152-.109.115-.089.23-.179.394-.187 1.726-.888 3.393-1.892 4.998-2.935.425-.276.876-.511 1.328-.747.812-.422 1.626-.846 2.294-1.509.489-.484 1.138-.813 1.787-1.142.29-.147.581-.294.857-.455.315-.277.681-.47 1.087-.595a14.393 14.393 0 012.331-1.32c.208-.158.417-.315.626-.471.782-.587 1.567-1.175 2.283-1.82.63-.566 1.338-1.029 2.045-1.491.821-.538 1.642-1.074 2.337-1.772.129-.129.327-.191.524-.254.09-.028.18-.057.263-.091 1.501-.973 2.551-2.328 3.364-3.888-.05-.321.12-.57.274-.797a1.22 1.22 0 00.04-.059c.399-.594.682-1.249.964-1.904.224-.517.447-1.035.728-1.523.237-.409.208-.89-.033-1.435.499.201.759.008.898-.385-.105-.29-.182-.565.085-.802.138-.123.242-.299.012-.474-.199-.155-.366-.08-.497.067l-.058.065c-.171.193-.339.383-.65.366.017.543-.233.382-.44.249a.731.731 0 00-.171-.094c-.286-.085-.474.032-.661.147-.048.03-.096.06-.146.086-.591.316-1.165.659-1.74 1.001-.966.577-1.933 1.153-2.981 1.602a33.7 33.7 0 01-1.241.492c-.741.283-1.479.565-2.151.926-.353.191-.714.372-1.077.554-1.177.59-2.367 1.188-3.339 2.139-.045-.082-.051-.183-.058-.28-.012-.199-.024-.378-.358-.321l-.08.136c.029 1.224-.826 1.882-1.621 2.496-.106.081-.211.162-.313.243-.26.208-.475.464-.691.722-.411.488-.823.979-1.544 1.14-.504.112-.781.585-1.049 1.069-.387.692-1.131 1.07-1.845 1.433l-.117.059a1.558 1.558 0 00-.121.167c-.083.124-.167.248-.284.287-1.208.392-2.141 1.165-3.076 1.938l-.03.024c-.24.198-.538.291-.833.383l-.167.053-.133.161-.068.083h-.001c-.421.381-.923.638-1.449.856-.15.109-.298.221-.446.333-.755.569-1.511 1.139-2.476 1.381l-.07.016c-.14.03-.266.058-.292.209-.08.456-.298.37-.648.231l-.023-.009c-.202-.083-.406.024-.608.131-.069.036-.136.072-.204.1-.347.147-.662.349-.978.551-.533.341-1.065.682-1.747.758-.145.016-.276.176-.39.317l-.056.068c-.04.048-.075.105-.109.161-.125.207-.24.395-.619.053-.232-.211-.398.137-.452.287-.176.474-.58.589-.989.705-.057.016-.115.032-.172.05-.258.077-.531.134-.805.192-.598.126-1.195.253-1.627.581-.86.655-1.86.923-2.855 1.189-.33.089-.66.177-.985.279l-.491.157c-1.234.396-2.484.797-3.835.814-.586.322-1.222.416-1.908.312l-.722.227-.938.294c-.645-.019-1.256.125-1.865.268-.308.072-.615.144-.926.195-.438.071-.882.071-1.324.071-.579 0-1.154 0-1.707.16-.152.075-.304.153-.456.23a20.371 20.371 0 01-1.217.588c-.3.142-.606.287-.905-.222-.155-.263-.576-.222-.814-.053-.566.402-1.184.33-1.832.169-.263.379-.626.315-.988.252-.249-.043-.497-.086-.713.013-.219.154-.475.126-.732.098-.265-.029-.531-.058-.759.112-.093.069-.238.057-.383.045-.27-.022-.54-.044-.485.45zm88.659-13.536l.002.016c.002.013.003.026.007.039l.006-.007-.007-.021-.008-.027zm-29.926-88.613l.053-.004-.003-.007-.003-.005-.014.005a.172.172 0 01-.033.011zm-1.658 134.947a.241.241 0 00-.171-.089c-.039-.003-.072-.008-.107-.013l-.031-.005a.65.65 0 00.309.107zm-26.194-29.511c-.01.04-.02.08-.033.12a.17.17 0 01.033-.12zm28.723 23.203a.466.466 0 01.015.083l.03-.02c.023-.015.046-.031.076-.044a10.19 10.19 0 01-.096-.015l-.025-.004zm-27.223-26.444c-.024.002-.047.004-.072-.001-.068-.013-.078.036-.059.109.007.026.01.048.011.07l.002.015a.358.358 0 00.004.027c.048-.081.097-.154.15-.222l-.036.002zm105.906 35.948c.107.035.218.058.329.076-.083.069-.248.06-.329-.076zM160.727 64.289c-.018-.043-.037-.09-.058-.137a5.398 5.398 0 00-.064-.148c.159.026.146.14.122.285zm.075-1.224a.084.084 0 00.05-.09l-.01.02-.007.014-.033.056zm37.998 12.73a.867.867 0 00-.146.016l-.006.001c.007-.012.017-.022.024-.034a.135.135 0 00.012-.03l.003-.011.002-.007.041.024.07.041zm-55.592 139.538h-.001l-.027.026a.13.13 0 00.084-.08.946.946 0 01-.056.054zm-20.974-20.459a.565.565 0 01-.036.058l-.009.013-.01.015-.004.006a.114.114 0 00-.022-.022l-.006-.005-.006-.006.036-.023a2.43 2.43 0 00.057-.036zm-62.535-62.97a.242.242 0 01-.002-.028l-.041.013-.044.015a.387.387 0 00-.043.015l.08.016.059.011-.002-.007-.004-.017-.001-.008-.002-.01zm-4.62-47.326a.439.439 0 00-.125 0l.059-.076c.023.029.044.053.066.076zm51.712-5.416l-.003-.006-.001-.005-.001-.004-.001-.016.003-.025c.006-.041.012-.086-.048-.075a.277.277 0 01-.051 0h-.035a6.815 6.815 0 00.142.147.086.086 0 00-.005-.016zm-.827-24.058c.099-.082.193-.182.273-.303.007.207-.046.357-.273.303zm80.018 18.868a.755.755 0 01-.218.21c.093.029.172-.002.22-.21h-.001-.001zm14.331 11.026a.544.544 0 01.066.264l-.031-.12-.026-.096-.018-.064.009.016zm-53.234 89.026a2.483 2.483 0 00-.079.289.84.84 0 00-.181.013c.085-.097.165-.191.26-.302zm-45.318 13.678l.002-.003c.029-.044.055-.083.115-.086-.043.018-.083.071-.051.111.01.013.02.019.03.026.008.005.016.009.024.017l-.059.002a.914.914 0 00-.119.008c.008-.012.017-.022.026-.033.011-.014.023-.027.032-.042zm-.689-20.585c-.03.056-.065.113-.108.166.033-.06.07-.115.108-.166zm-33.005-3.298l.072-.009-.073.042-.053.031.003-.021.002-.011v-.009a.103.103 0 00.002-.018l.047-.005zM40.71 127.294c.029-.024.057-.049.097-.074-.058.005-.112.018-.169.028.012.026.021.053.023.088l.05-.042zm83.827-18.118l.012-.013c.01.026.022.047.034.069a.532.532 0 00-.038.01h-.001a.64.64 0 01-.106.022.393.393 0 00.099-.088zm81.699 47.875a.137.137 0 00.01.043c.008.02.026.04.048.061a.502.502 0 00-.061-.12l.001.007.002.009zm-91.133 49.454a.228.228 0 01.083.148 1.032 1.032 0 01-.083-.148zm-7.153-51.573l-.009-.004a.064.064 0 00.01.013l.008.011c.009.01.019.021.027.035.006-.011.012-.006.02.001.012.01.029.024.054-.012a.811.811 0 00-.052-.022l-.057-.022h-.001zm119.239-44.735c.05-.006.098-.012.142-.021-.052.045-.099.047-.142.021zm3.378 13.408a1.452 1.452 0 00-.275.014c.107-.105.195-.081.275-.014zm-9.956 37.859a.03.03 0 01.005-.007l.003.001.024.012.02.01c.033.031.041.074.041.123a.821.821 0 01-.11-.13c.005-.004.008-.004.012-.006l.002-.001.003-.002zm-40.448 51.468c-.062-.062-.138-.084-.27.001l-.001.001-.001.001-.001.001c.095-.011.185-.01.273-.004zm-77.311-89.255c.041-.007.08-.011.126-.025.133-.043.085-.004.039.033l-.028.024c-.01.008-.017.016-.017.02v.022l.002.025.001.016a.121.121 0 01.001.019c-.023-.027-.049-.054-.074-.08l-.017-.018-.033-.036zm42.536 6.388l.032-.039.016-.019.007-.009a2.331 2.331 0 01-.121-.084c.01.061.019.128.028.208a.47.47 0 01.038-.057zM120.759 67.08c.013.035.027.08.04.105a.286.286 0 01-.056-.106l.016.001zM160.572 85.3c-.028-.038-.085.006-.135.074l.008-.004a1.647 1.647 0 01.127-.07zm-20.461 71.23v-.001c-.079-.051-.145-.093-.017-.151a.655.655 0 01.085-.029c.018-.006.037-.011.055-.018-.034.051-.068.108-.109.175l-.014.024zM54.899 91.621c-.04-.031-.081-.06-.123-.091.011.061.015.11.012.15a.355.355 0 00.11-.06zm61.713 9.151l-.029-.075a.734.734 0 00.165-.048 2.195 2.195 0 01-.106.096l-.03.027zm64.65-11.27l-.002-.005-.001-.005a.962.962 0 01-.122-.292.862.862 0 00.126.306l-.001-.003zm34.859 29.521l-.004-.004v-.004h.003l.001-.003.001-.005.003-.003c0 .007-.004.012-.004.019zm.001-.016l-.002.002a.002.002 0 00-.002.002.27.27 0 01.021-.136l.002-.004-.01.074-.007.046-.002.016zm2.328 81.966c.02-.075-.004-.126-.139-.126.034.023.071.06.108.096l.016.016.015.014zM168.825 217.2a.333.333 0 00.074.112.891.891 0 00-.165.019l.016-.023.024-.035c.017-.025.033-.049.051-.073zm-.898-1.318a.16.16 0 01-.067.109c.022-.037.047-.073.067-.109zm-35.9-61.872a.735.735 0 01-.133.063c.043-.024.087-.043.133-.063zm-15.082-7.424l-.012-.001-.008-.001-.028-.003-.004.027-.004.029-.007.056c.009-.02.019-.036.029-.052l.007-.012.027-.043zm-18.498-21.214c-.048-.124-.037-.244.063-.297a1.162 1.162 0 00-.064.297zm49.35 6.149a1.519 1.519 0 01-.025.128.251.251 0 01.025-.128zM128.685 82.37l-.041.033a1.425 1.425 0 00-.063-.122l.03-.001a5.29 5.29 0 01.212-.008.938.938 0 00-.138.098zm16.287 1.961l-.011-.043c0 .051.01.093.032.122l-.006-.02-.003-.01-.003-.012-.005-.02-.004-.017zm18.466 3.434c.018.103-.075.205-.152.257a1.41 1.41 0 00.152-.257zm-5.349 89.04a1.485 1.485 0 00-.241.168c.045-.11.136-.154.241-.168zm-8.162-54.173a2.984 2.984 0 00-.012-.046l-.005-.019a.08.08 0 01.022.007c.01.004.019.009.032.009.007 0 .011-.003.018-.004l-.016.052-.022.077a.776.776 0 00-.017-.076zm-6.274-11.69c.029.026.063.04.102.043l-.01-.004c-.03-.012-.061-.024-.092-.039zm54.753.614l.086.077a.213.213 0 01-.016.025l-.005.006-.005.007-.003.004-.007.013-.015-.038-.035-.094zm15.103 9.396c-.038-.037-.105-.055-.242-.033-.164.027-.217.098-.232.184.124-.067.284-.114.474-.151zm-54.353 88.803v-.02a.162.162 0 00-.003-.049l.07-.006.043-.004a.83.83 0 00-.108.097l-.001-.005v-.007l-.001-.006zm14.501-20.527h-.001l-.018-.013-.027-.02a.224.224 0 01-.039.044l-.006.006c.053.01.106.021.165.039l-.031-.023-.027-.021-.016-.011v-.001zm-47.517-42.532a.162.162 0 01.056-.118c-.015.038-.036.078-.056.118zm-44.937-35.478a2.78 2.78 0 00-.298-.181c.132.017.246.062.298.181zm108.481 78.271a.612.612 0 01-.026.224l.015-.135.011-.089zm-14.977 9.333a.368.368 0 00-.119-.031l.113.052.004-.013.002-.008zm-18.616-64.648l-.13-.245c.074.028.172.058.281.09-.016.069-.052.126-.151.155zM134.98 91.507a.605.605 0 01-.044-.01c.036.016.072.034.109.052l.004.003.064.031a.253.253 0 00-.133-.076zm65.78 42.764a.408.408 0 00-.025-.033c-.02-.026-.04-.052-.055-.09l.006.003.015.009.007.003.006.003.01.004.029.013a.585.585 0 01.007.088zm-14.398 12.198c-.05-.018-.084-.05-.084-.109.027.037.054.074.084.109zm-31.232.311l-.005-.003-.01-.007-.023-.014h-.001a.28.28 0 01-.032-.02c.108.002.217.007.324.014-.069.072-.145.114-.253.03zm40.197 36.466c.044.048.09.094.136.133a.307.307 0 01-.136-.133zm9.723-11.753l.01.003.004.003c-.011-.001-.024-.005-.035-.005l-.003-.001-.004-.001-.002-.001.017.001a.057.057 0 00.013.001zm.014.006a.019.019 0 00.008.002v.001h.006l.005.001.003.001a.03.03 0 00.009.002c.073.042.137.069.196.091a.664.664 0 01-.227-.098zm-11.408 13.113c.108.096.197.181.268.261l.022-.087.035-.136c-.091-.071-.206-.062-.325-.038zm-16.54 6.195a.234.234 0 00.068.022l-.046.044-.065.062a.47.47 0 00.043-.128zm.104-6.477a.155.155 0 01-.074.092l.074-.092zm-3.476-33.112c.06.049.082.102-.038.189-.174.125-.252.014-.317-.109.088-.011.202-.039.355-.08zm11.503-2.209a.41.41 0 00.069-.01.154.154 0 00.006-.062.992.992 0 01-.115.076l.02-.002.02-.002zm3.73 28.811c-.008-.019.007-.045.024-.071l.002.03.001.033.007.095-.034-.087zm-40.808-31.384l.003.001.001-.046-.001-.029.001-.021.002-.029a.596.596 0 00-.063.1l-.004.008c.007.003.014.003.022.004.012 0 .025.001.039.012zm-1.724-39.114a.59.59 0 01.151-.078.274.274 0 00-.074.1.973.973 0 00-.077-.022zm8.315-.818a.2.2 0 00-.123-.077l.012.02c.04.063.076.121.104.172l.003-.033a.314.314 0 00.004-.082zm-1.33-.653c-.023-.04-.053-.078-.082-.117.095.003.109.052.082.117zM163.791 126a1.654 1.654 0 00-.093-.114l.007.01a.792.792 0 00.086.104zm-1.946-3.17a.45.45 0 00.041.089 22.134 22.134 0 01-.203-.007c.062-.027.115-.055.162-.082zm11.41 2.785c-.019-.007-.038-.014-.062-.019.04.017.071.027.106.038l.001-.005-.02-.006-.025-.008zm.814-.895c.036-.09.098-.144.215-.119a2.278 2.278 0 00-.215.119zm.505 50.847a1.931 1.931 0 00-.097.023.303.303 0 01.054.09.906.906 0 00.043-.052.594.594 0 01.069-.078l-.069.017zm8.814-.863a.186.186 0 01.02-.01l.019-.011c.015-.008.031-.017.049-.025a.632.632 0 00-.037.112l-.044-.023a.346.346 0 01-.05-.027.354.354 0 00.043-.016zm6.156-17.246c.008.092.021.185.042.279-.114-.083-.129-.177-.042-.279zm2.86 11.346a.484.484 0 00-.014-.094l-.007-.037c.026.012.05.019.074.023l-.019.037a.463.463 0 00-.034.071zm-5.921-2.426a.582.582 0 01-.086-.058c.043 0 .071.019.086.058zm1.725 1.689c-.082-.048-.138-.119-.116-.263.086.013.181.058.274.103a1.09 1.09 0 00-.158.16zm-32.231-12.341l.011.016c.011.015.022.031.034.045.019-.062-.023-.099-.095-.131l.026.036.024.034zm-14.884-18.625a.523.523 0 00-.219-.033c.084-.094.176-.193.297-.274a.66.66 0 00-.078.307zm-1.214-.764c.094.104.113.221-.041.231a.535.535 0 00.041-.231zm49.49 47.704l.049.006c.024.003.048.006.076.012a.594.594 0 00-.108.036.31.31 0 00-.017-.054zm-32.934-16.334l.012.003.024.008.013.008.013.007a.69.69 0 01-.016-.24l-.017.015a.298.298 0 01-.051.043c-.166.1-.055.133.022.156zm32.797-84.552a.724.724 0 01-.663-.175c.217.093.442.154.663.175zm-71.839 20.126c.133.05.233.09.305.13a.384.384 0 00-.143-.14c-.073-.044-.122-.029-.162.01zm-4.363 34.036a1.8 1.8 0 00.026.045l.034.059c-.037-.022-.074-.035-.11-.056l.017-.013.015-.016a.081.081 0 01.018-.019zm-18.85-7.426a2.2 2.2 0 00-.29-.108c.093-.078.173-.022.29.108zm24.39 11.517a.732.732 0 01.271-.152l-.018.074-.013.054-.009.035a.97.97 0 00-.231-.011zm104.834-24.777a.014.014 0 01.007-.002.008.008 0 01.005-.002.288.288 0 01.033.005.187.187 0 00.025.004l-.038-.056-.034-.053a1.693 1.693 0 01-.007.077v.001l-.003.03c.004 0 .008-.002.012-.004zm-172.053-3.732a.542.542 0 01-.008.271c-.003-.09.002-.18.008-.271zM182.89 72.41c.041-.053.084-.088.125-.127-.034.018-.07.052-.104.083-.005.007-.007.014-.01.022l-.003.006-.002.004-.006.012zm-55.871-7.255a.142.142 0 01-.173-.024c.058.012.115.02.173.024zm-7.364 36.584h.001l.032.014c-.003.004-.004.009-.006.014l-.002.007-.001.005-.002.004-.02-.015c-.03-.023-.061-.047-.098-.071.035.017.065.03.096.042zm-51.972 41.773c-.03.007-.06.014-.089.015-.032.107-.003.171.05.216a1.13 1.13 0 01.1-.243l-.061.012zm32.62-87.606c.02.09.042.178.071.263-.079-.084-.117-.17-.071-.263zM213.82 147.62a.442.442 0 00.089-.011.165.165 0 00.027-.055.62.62 0 01-.067.039l-.016.008-.033.019zM55.051 101.561a.236.236 0 01.023.118 2.023 2.023 0 00-.065-.144.246.246 0 00.02.013.246.246 0 01.022.013z" fill="#EEE1D9"/></svg>