<svg viewBox="0 0 551 555" fill="none" xmlns="http://www.w3.org/2000/svg"><path fillRule="evenodd" clipRule="evenodd" d="M106.894 444.54c-1.07 1.372-2.977 1.105-3.874-.414-.405-.687-.236-1.168.274-1.743.72-.814 1.591-1.446 2.451-2.071.182-.132.363-.263.542-.396a257.736 257.736 0 003.148-2.388c2.431-1.864 4.863-3.729 7.453-5.391 1.252-.803 2.462-1.675 3.672-2.548 1.224-.883 2.448-1.766 3.719-2.579l.003-.001-.005.001c.247-.52.727-.679 1.209-.839l.124-.042.176-.156.176-.156.004-.006c.141-.443.521-.574.911-.698l.288-.243.288-.243-.001.001c.571-.41 1.158-.803 1.743-1.196 1.301-.874 2.601-1.746 3.74-2.795 1.514-1.392 3.199-2.54 4.882-3.686 1.293-.88 2.585-1.76 3.798-2.749.135-.11.255-.249.378-.39.296-.339.601-.691 1.138-.676.248-.126.334-.359.419-.593.071-.193.142-.387.306-.519a.957.957 0 00.537-.37 4.274 4.274 0 00-.537.37c-.488-.75-.822-1.571-1.156-2.392a27.642 27.642 0 00-.504-1.188c-1.378-1.237-2.355-2.736-3.204-4.386-.803-1.559-2.108-2.805-3.496-3.866-1.304-.998-2.478-2.009-3.276-3.507-.464-.87-1.184-1.548-1.908-2.229-.433-.408-.868-.817-1.25-1.27-1.437-1.705-2.937-3.357-4.437-5.009-.957-1.054-1.914-2.108-2.855-3.177l-.038-.043c-.299-.34-.567-.644-1.014-.774-3.084-.884-4.748-3.35-6.383-5.772l-.26-.383c-.286-.422-.563-.848-.841-1.274-.859-1.318-1.716-2.633-2.806-3.792-.271-.287-.458-.655-.644-1.022-.085-.168-.169-.335-.262-.494-.536-.442-.9-1.015-1.264-1.589-.297-.468-.594-.935-.984-1.332-.734-.482-1.299-1.136-1.863-1.79-.444-.514-.888-1.028-1.415-1.459-.129-.106-.247-.24-.365-.372-.201-.228-.399-.451-.647-.529-1.042-.328-1.867-.983-2.695-1.641-.636-.506-1.274-1.013-2.016-1.376-.247-.121-.497-.239-.748-.358-1.017-.483-2.055-.976-2.971-1.655a40.99 40.99 0 00-1.51-.508c-1.361-.44-2.727-.88-3.96-1.695l.345-.529.398-.612c.338-.522.795-.714 1.33-.353.963.645 2.029 1.063 3.097 1.482.99.388 1.983.777 2.895 1.349 1.272.798 2.73 1.185 4.281 1.319 2.984.253 5.844 1.094 8.702 1.935.654.192 1.309.385 1.965.57.264.075.518.172.772.269.706.269 1.407.536 2.291.323.577-.139 1.543.177 2.153.751.342.207.728.3 1.115.392.507.122 1.014.244 1.419.623a1.239 1.239 0 00-.175.429c.048-.125.105-.263.175-.429 2.601.909 5.001 2.23 7.393 3.58.883.499 1.512 1.23 2.142 1.962.254.295.508.591.78.871.313.325.63.648.946.971 1.621 1.656 3.243 3.313 4.572 5.23.954 1.156 1.63 2.477 2.243 3.833.113.028.167.099.159.215 1.126 1.163 1.685 2.653 2.232 4.11l.114.303c.08.212.193.426.309.645.378.715.782 1.481.14 2.389-.118.161.34.791.607 1.159l.006.007c1.647 2.242 2.848 4.724 4.048 7.205.537 1.11 1.073 2.219 1.65 3.307.082.153.114.332.146.512.016.085.031.17.052.252.793.992.928 2.17 1.062 3.344.049.428.098.856.179 1.274.124.644.26 1.091.862 1.342v.001c1.478-.253 2.549-1.2 3.594-2.122.262-.232.523-.463.789-.68.941-.775 1.9-1.527 2.859-2.278 1.384-1.084 2.768-2.168 4.096-3.32.156-.172.305-.351.455-.531.515-.618 1.032-1.238 1.813-1.554 1.094-.446 1.313-1.296 1.177-2.346-.952-.984-1.696-2.06-2.101-3.416-.545-1.833-1.712-3.372-2.842-4.862l-.375-.496c-1.331-1.775-2.337-3.71-3.337-5.635l-.232-.445c-.742-1.425-1.583-2.786-2.424-4.146-.672-1.085-1.343-2.171-1.963-3.289-.947-1.702-2.033-3.318-3.12-4.935-1.385-2.061-2.772-4.124-3.874-6.37a10.788 10.788 0 00-.63-1.076c-.432-.68-.867-1.363-1.002-2.198l-.001-.001v.001c-.318-.727-.637-1.451-.958-2.175-.25-.466-.501-.926-.753-1.39l-1.58-2.363a1323.113 1323.113 0 01-3.347-5.013c-.222-.332-.531-.597-.839-.862-.531-.456-1.061-.911-1.149-1.709-.306-.587-.785-1.02-1.264-1.452-.421-.38-.842-.76-1.147-1.245a7.225 7.225 0 00-.136-.204c-.172-.251-.341-.497-.362-.821-.851-.194-1.135-.857-1.42-1.519a8.9 8.9 0 00-.194-.433c-1.36-1.357-2.777-2.656-4.194-3.955-2.238-2.052-4.477-4.104-6.493-6.386-.987-.761-1.976-1.506-3.237-1.788-.608-.136-1.07-.51-1.539-.89-.348-.281-.699-.565-1.115-.758-3.437-1.589-7.064-2.438-10.752-3.111l.001-.001c-1.407-.331-2.838-.443-4.27-.555-.736-.058-1.472-.116-2.206-.203-.965-.314-1.963-.388-2.966-.462-.983-.073-1.972-.146-2.938-.447-.418-.13-.783-.341-1.143-.549-.411-.239-.816-.473-1.289-.578-.126-.027-.293-.312-.27-.451.04-.254.224-.447.547-.445.29.002.582-.012.874-.026.563-.026 1.126-.053 1.672.031.688.105 1.38.188 2.072.27 1.57.187 3.14.374 4.666.823 1.754.265 3.506.53 5.26.797.001-.002 0-.002.002-.003.987.182 1.953.459 2.919.735 1.352.388 2.706.776 4.12.905.359.034.655.229.949.423.204.135.408.269.631.349.169.06.341.135.513.211.821.359 1.665.729 2.372-.468.241-.411.613-.237.949-.08l.094.044c1.951.885 3.924 1.715 5.971 2.356 2.763.866 5.126 2.452 7.496 4.044l.726.486a29.565 29.565 0 014.104 3.337c.439.425.935.737 1.442 1.007 3.372 1.798 6.145 4.332 8.719 7.091.175.188.385.348.596.508.47.358.944.719 1.038 1.393.381.409.79.792 1.199 1.175.921.863 1.842 1.726 2.436 2.881v-.001c.059.118.177.199.296.28.215.147.429.293.279.665a.409.409 0 01.218.304l.003.002c.218.209.485.362.753.514.485.276.97.552 1.159 1.164.238.366.476.731.711 1.095l.003.006-.001-.004v-.001c.131.175.264.349.397.523.991 1.297 1.981 2.593 2.306 4.265.17.331.341.658.512.989l.005.004c.429.31.733.678.609 1.257.089.091.184.177.278.263.194.177.388.354.532.566 1.995 2.948 3.612 6.103 5.233 9.265l.355.693c.77 1.498 1.376 3.063 1.981 4.626.691 1.786 1.381 3.569 2.314 5.249.337.606.404 1.273.472 1.947.05.503.101 1.01.265 1.497.329.97.537 1.982.746 2.994.108.523.216 1.046.34 1.564a6.91 6.91 0 01-.049 3.489c.04.459.063.905-.154 1.348-.252.514.12.951.431 1.201.418.334.842-.021 1.188-.34 2.443-2.256 5.046-4.314 7.649-6.373 1.586-1.253 3.171-2.507 4.721-3.805-.078-.222-.265-.238-.452-.254-.176-.015-.351-.029-.435-.217l-1.082-1.299-1.411-1.695c-.434-.217-.603-.611-.772-1.007a4.909 4.909 0 00-.2-.428l-1.097-2.143-1.202-2.35a.124.124 0 01-.018-.021c-.685-.527-.999-1.283-1.314-2.037-.06-.144-.119-.287-.182-.429-1.117-2.114-2.622-3.937-4.126-5.759-.864-1.047-1.727-2.093-2.516-3.193-.301-.42-.624-.832-.948-1.246-1.15-1.468-2.319-2.961-2.61-4.922l-.009-.057c-.025-.167-.047-.312-.224-.439-2.198-1.552-3.547-3.786-4.884-6.002-.401-.663-.8-1.324-1.221-1.965-3.409-5.197-6.217-10.751-8.849-16.396-.876-1.879-1.878-3.697-2.88-5.516-1.073-1.948-2.147-3.897-3.069-5.923-.105-.231-.28-.42-.455-.61-.268-.291-.538-.584-.562-1.027-.522-.469-.736-1.092-.88-1.751-.431-1.352-1.313-2.398-2.196-3.445-.592-.702-1.185-1.405-1.644-2.201-1.489-2.592-2.839-5.256-4.165-7.925-.299-.602-.512-1.506-.145-2.296a16.834 16.834 0 01-.227-.643c-.156-.464-.313-.928-.553-1.344-1.324-2.301-2.116-4.788-2.721-7.347-.204-.525-.46-1.03-.717-1.535-.518-1.02-1.036-2.04-1.12-3.217-.124-1.748-.847-3.259-1.575-4.779a43.009 43.009 0 01-.641-1.377c-.584-1.334-1.235-2.484-2.241-3.559-1.007-1.076-1.603-2.427-2.197-3.777-.219-.495-.437-.991-.676-1.472a1.461 1.461 0 01-.107-.428c-.03-.192-.058-.38-.168-.5-.975-1.066-1.755-2.265-2.534-3.463-.397-.609-.794-1.218-1.215-1.809l-.121-.17c-.972-1.363-1.918-2.69-2.643-4.238-.368-.789-.998-1.449-1.631-2.113-.419-.438-.839-.879-1.188-1.36-.125-.172-.274-.339-.424-.508-.539-.607-1.103-1.241-.738-2.265l.305.276c2.982 2.687 5.948 5.361 8.344 8.533.224.295.458.587.693.88.772.964 1.556 1.944 2.059 3.134.741 1.751 2.022 3.231 3.297 4.632.594.651 1.061 1.303 1.402 2.085.819.531 1.279 1.332 1.74 2.132.285.495.57.991.94 1.423 2.082 2.431 3.977 5.004 5.726 7.684.065.1.145.2.226.301.323.402.67.836.243 1.442 1.321 2.257 2.851 4.376 4.473 6.414 1.519 1.912 3.099 3.774 4.678 5.635.661.779 1.322 1.557 1.978 2.339.572.035.802.436 1.03.832.101.176.202.352.332.494a504.377 504.377 0 016.273 7.035c.257.296.462.638.666.981.066.112.133.223.201.333 1.726 2.774 3.615 5.422 5.613 8.02 1.063 1.382 1.987 2.894 2.913 4.406.447.731.894 1.461 1.357 2.178 1.307 2.019 2.51 4.098 3.714 6.176.44.76.881 1.52 1.326 2.278 1.47 2.499 2.721 5.089 3.976 7.687l.166.343.072.148c.293.6.588 1.203.538 1.906l.09.152c1.11.93 1.588 2.218 2.002 3.542a45.55 45.55 0 00.166.406c1.122 1.729 1.776 3.656 2.43 5.581.14.413.281.827.426 1.238.432 1.223.845 2.452 1.259 3.681a238.86 238.86 0 001.328 3.874c.183.51.327.966.117 1.481.174.554.36 1.104.546 1.654.605 1.79 1.209 3.579 1.375 5.498.127 1.474.343 2.943.559 4.412.095.651.191 1.302.279 1.954.202.19.204.43.206.665.001.15.003.298.057.429.362.888 1.111 1.067 1.783.397 1.141-1.139 2.327-2.232 3.512-3.325 1.794-1.652 3.587-3.305 5.225-5.118.299-.334.65-.618 1.001-.902.554-.449 1.109-.898 1.468-1.544l-.23-.369-.21-.34c-.97.234-1.462-.412-1.885-1.087-.706-1.135-1.568-2.143-2.431-3.15-.24-.28-.479-.56-.716-.843-1.343-1.611-2.307-3.492-3.12-5.383a83.947 83.947 0 01-.985-2.43c-.72-1.831-1.44-3.661-2.447-5.369l-.045-.076c-.084-.145-.17-.294-.292-.398-1.505-1.299-2.336-3.009-3.167-4.717-.422-.869-.844-1.738-1.355-2.552-.907-1.445-1.703-2.949-2.496-4.447-.353-.667-.705-1.332-1.066-1.991-.22-.4-.444-.8-.668-1.202-1.081-1.932-2.175-3.889-2.904-5.976-.58-1.658-1.259-3.27-1.939-4.881-.41-.974-.821-1.947-1.209-2.929-.664-1.68-1.369-3.343-2.074-5.007-1.197-2.824-2.394-5.648-3.391-8.552-.241-.3-.235-.643-.228-.986.004-.219.008-.438-.051-.646-.422-.312-.361-.722-.24-1.147-.173-.424-.47-.787-.767-1.149-.51-.623-1.02-1.246-.902-2.183l-.078-.061.008-.099c.193.074.317.126.414.208-.051-.16-.128-.292-.414-.208-.344-.118-.572-.39-.603-.712-.097-.977-.298-1.939-.5-2.9-.313-1.493-.627-2.986-.545-4.533l.004-.006-.002.003c-.89-2.984-1.735-5.977-2.189-9.063-.972-2.035-1.397-4.221-1.821-6.402-.086-.445-.172-.89-.263-1.333a234.477 234.477 0 01-.89-4.628c-.379-2.039-.757-4.078-1.204-6.102-.284-1.289-.649-2.56-1.014-3.831-.376-1.309-.752-2.618-1.039-3.946-.253-1.164-.703-2.26-1.152-3.356-.574-1.402-1.149-2.803-1.311-4.346-.142-1.336-.374-2.662-.606-3.99a131.38 131.38 0 01-.332-1.96c-.084-.527-.158-1.057-.232-1.586a87.1 87.1 0 00-.104-.737c-.368-.64-.809-1.84-.448-1.968 1.069-.379.754-.887.477-1.333-.09-.144-.175-.282-.208-.407-.368-1.394-.812-2.764-1.256-4.135-.581-1.796-1.164-3.594-1.576-5.45-.638-2.853-1.828-5.577-3.446-8.062-.294-.448-.417-.946-.541-1.444a6.879 6.879 0 00-.284-.951c-.601-1.47-1.178-2.95-1.754-4.43-.351-.9-.701-1.799-1.057-2.697-.366-.923-.68-1.837-.433-2.859.11-.446.043-.915-.175-1.349-.324-.651-.114-1.236.237-1.91 1.01.577 1.247 1.604 1.442 2.449l.006.023c.944 4.071 2.486 7.956 4.013 11.806l.314.792c1.437 3.63 2.92 7.271 4.409 10.887 1.141 2.771 2.325 5.653 2.572 8.742v.001a351.973 351.973 0 002.899 8.416c.214.598.416 1.202.618 1.807.41 1.231.822 2.465 1.347 3.657l.111.249c.458 1.035.926 2.091.774 3.286.826.714 1.217 1.682 1.604 2.641.102.252.203.503.313.749.178.401.365.798.552 1.195.534 1.133 1.069 2.267 1.403 3.489.261.945.822 1.724 1.386 2.507.434.602.87 1.206 1.172 1.891 1.161 2.626 2.364 5.25 3.802 7.731 1.155 1.99 2.387 3.945 3.616 5.897l.395.627c.401.634.747 1.293 1.094 1.951.232.441.464.882.713 1.316.616 1.075 1.207 2.166 1.797 3.255.239.442.478.884.719 1.325 1.715 2.403 3.091 4.958 4.344 7.657.389.838.756 1.689 1.124 2.542 1.056 2.449 2.116 4.909 3.718 7.085.456.618.953 1.295.752 2.174.508 1.031.961 2.088 1.414 3.144.656 1.53 1.312 3.061 2.138 4.516.334.589.528 1.244.721 1.896.143.481.286.961.484 1.41.628 1.432 1.11 2.909 1.592 4.385.287.878.574 1.757.891 2.625.569 1.554 1.082 3.127 1.596 4.699.235.72.47 1.44.71 2.157.074.235.156.468.238.701.178.507.356 1.014.453 1.537.578 3.163 1.554 6.21 2.729 9.19.253.642.298 1.265.289 1.912-.015 1.251.265 2.399.749 3.575.602 1.48 1.121 3.045.852 4.713.406.622.721 1.318.562 2.043-.183.817-.025 1.596.134 2.377.126.617.251 1.235.209 1.873-.058.898.742 1.191 1.499.672.089-.064.163-.148.236-.232l.043-.048c.961-1.074 2.049-2.014 3.137-2.954 1.332-1.15 2.663-2.301 3.763-3.697.412-.524.919-.963 1.426-1.403.779-.674 1.558-1.349 1.997-2.335a33.469 33.469 0 00-.3-.857c-.35-.976-.701-1.952-.765-3.007l-.068-.167-.081-.159c-.789-.528-.988-1.367-1.171-2.214-.669-.37-1-.985-1.349-1.642a169.44 169.44 0 00-.314-.592c-1.773-3.344-3.561-6.715-4.778-10.263-1.025-2.992-2.446-5.786-3.852-8.552l-.527-1.04c-1.094-2.165-2.108-4.365-3.12-6.565a275.334 275.334 0 00-2.186-4.671c-2.224-4.605-4.443-9.211-6.337-13.979-.713-1.796-1.538-3.553-2.363-5.312-.758-1.614-1.516-3.23-2.189-4.878-.41-1.005-.575-2.116-.739-3.218-.045-.304-.09-.609-.14-.91l-.028-.17c-.18-1.079-.355-2.137-.72-3.197-.431-1.266-.593-2.661-.668-4.008-.166-3.06-.589-6.075-1.163-9.079-.031-.166.006-.346.042-.526.017-.081.033-.163.043-.243l-.001-.001c-.371-.49-.56-1.036-.522-1.657.086-1.592-.213-3.138-.652-4.655-.298-1.031-.283-2.078-.268-3.124.008-.52.015-1.04-.016-1.558-.21-3.434-1.221-6.675-2.252-9.898-.208-.651-.335-1.322-.462-1.992-.198-1.048-.396-2.092-.902-3.052-1.151-2.185-1.833-4.499-2.414-6.903-.393-1.627-1.205-3.177-2.005-4.706l-.23-.439c-.335-.644-.539-1.354-.744-2.066-.194-.673-.388-1.346-.693-1.965-.613-1.241-.897-2.532-1.172-3.85-.177-.354-.369-.701-.561-1.049-.63-1.146-1.261-2.291-1.377-3.645-.034-.42-.323-.672-.607-.919l-.039-.034c-.586-.512-.77-1.207-.954-1.904-.156-.588-.312-1.177-.709-1.661-.822-1.002-1.346-2.181-1.801-3.408.105-.028.2-.057.279-.08.133-.04.22-.066.225-.054.419.874.98 1.652 1.543 2.432.525.728 1.052 1.458 1.466 2.269.79 1.545 1.757 3.001 2.724 4.456.404.608.808 1.217 1.2 1.832 2.452 3.854 4.84 7.742 6.447 12.048.94 1.509 1.743 3.091 2.545 4.669.352.692.703 1.384 1.065 2.068 1.028 1.934 1.881 3.931 2.733 5.926.579 1.356 1.158 2.712 1.791 4.045.855.624 1.227 1.532 1.599 2.44.189.462.378.923.63 1.348.171.363.34.724.507 1.088.314.618.62 1.242.926 1.865.708 1.444 1.416 2.888 2.235 4.265.86 1.453 1.823 2.87 3.291 3.882.666.459 1.039 1.32 1.116 2.206.3.247.24.531.181.815-.031.145-.061.29-.044.43l.755 1.612.755 1.612c1.32.6 1.797 1.859 2.203 3.067l.019.056c.29.864.563 1.677 1.216 2.343.463.471.642 1.085.822 1.7.18.62.362 1.242.836 1.723.056.055.023.321-.041.355-.98.539-.69 1.141-.396 1.755.096.199.192.399.246.599.379 1.408.99 2.72 1.602 4.036.598 1.285 1.198 2.574 1.585 3.957.285 1.023.856 2.011 1.426 2.996.229.397.458.793.668 1.19.808 1.526 1.333 3.161 1.857 4.793.539 1.678 1.078 3.354 1.922 4.908 1.012 1.864 1.519 3.88 2.027 5.895.322 1.278.644 2.556 1.094 3.796.487 1.342.867 2.736 1.24 4.112.122.457.183.936.243 1.416.093.733.185 1.467.499 2.121.515 1.08.823 2.222 1.13 3.362.284 1.053.567 2.104 1.012 3.103.227.512.236.997.174 1.536-.02.171-.049.342-.079.514-.091.531-.183 1.066.031 1.604.081.155.17.308.258.46.388.671.776 1.343.624 2.192l-.001.009c-.342 1.599-.07 3.157.202 4.713.104.596.208 1.193.278 1.791.144 1.241.214 2.455.044 3.697-.121.885.23 1.68.578 2.468l.151.347a.263.263 0 01.238.186c1.06-.149 1.831-.906 2.328-1.655 1.029-1.546 2.336-2.824 3.642-4.102.826-.807 1.652-1.615 2.407-2.489.281-.326.551-.662.822-.998.667-.827 1.334-1.656 2.166-2.34.387-.319.378-.809.075-1.246-.591-.201-.658-.666-.726-1.131-.035-.242-.07-.483-.179-.689-.999-1.907-1.722-3.918-2.042-6.064-.289-1.919-1.2-3.538-2.351-5.089-.909-1.225-1.357-2.724-1.787-4.162l-.158-.526c-.392-1.28-.978-2.459-1.564-3.635-.403-.808-.804-1.615-1.143-2.454a103.816 103.816 0 01-2.591-7.112c-.66-2.057-1.17-4.16-1.681-6.264-.211-.87-.422-1.74-.643-2.607a.99.99 0 01-.019-.253c.001-.13.001-.256-.065-.322-1.253-1.262-1.52-2.858-1.786-4.455-.149-.89-.297-1.78-.616-2.612-.326-.849-.6-1.717-.874-2.586-.33-1.046-.66-2.094-1.084-3.116-.924-2.22-1.6-4.556-1.8-6.988l-.009-.142a1.634 1.634 0 00-.065-.445c-.68-1.92-.95-3.917-1.22-5.915-.169-1.25-.338-2.5-.608-3.731l-.005-.023c-.083-.383-.163-.747-.36-1.081a8.107 8.107 0 01-1.076-3.34c-.55-.771-.712-1.666-.86-2.58-.712-4.414-1.326-8.845-1.641-13.299a33.352 33.352 0 00-.217-1.977c-.222-1.719-.444-3.445.019-5.179.056-.547.134-1.092.213-1.637.161-1.115.321-2.232.295-3.379l-.004-.187c-.011-.447-.021-.902-.063-1.352l-.075-.811c-.302-3.237-.603-6.475-.274-9.732l-.056-.203c-.103-.36-.205-.719-.062-1.099-.236-.349-.466-.699-.273-1.149-.047-.459-.09-.918-.133-1.378-.215-2.278-.429-4.561-1.089-6.752-.373-1.236-.664-2.496-.954-3.751-.326-1.412-.65-2.817-1.088-4.173-.675-2.097-1.243-4.222-1.811-6.345-.386-1.443-.772-2.886-1.191-4.317a148.253 148.253 0 00-.991-3.209c-.703-2.216-1.407-4.436-1.899-6.712-.082-.385-.218-.758-.353-1.132a15.485 15.485 0 01-.193-.548 10.195 10.195 0 01-.189-.722c-.137-.577-.274-1.156-.642-1.654-.386-.527-.364-1.124-.342-1.729.022-.586.044-1.179-.305-1.721 2.091 1.876 2.956 3.345 3.823 6.467.307.595.637 1.177.968 1.76.773 1.362 1.547 2.726 2.019 4.238l.001.001c.524.118.507.483.49.848-.003.071-.007.142-.006.211l.011.017c1.061 1.047 1.62 2.387 2.174 3.713.193.461.385.921.598 1.366 1.239 2.604 2.077 5.371 2.915 8.135.225.742.449 1.483.682 2.221.04.115.104.224.169.332.145.244.29.488.157.81 1.025 2.144 1.732 4.401 2.438 6.658.195.62.389 1.241.59 1.858.036.115.018.248.001.381a1.905 1.905 0 00-.02.18l-.001.002c1.35 2.897 2.212 5.954 3.075 9.014.131.463.261.927.394 1.39.969 3.393 2.255 6.676 3.541 9.964l.164.417c.369.945.748 1.886 1.126 2.827 1.354 3.368 2.708 6.736 3.654 10.269.59 2.194 1.205 4.425 2.132 6.543.437.999.757 2.05 1.078 3.1.14.462.281.923.432 1.38.198.594.399 1.187.601 1.78 1.203 3.544 2.407 7.086 2.896 10.828.004.037.006.075.008.114.004.097.008.195.055.264 1.357 2.084 1.612 4.407 1.871 6.758.061.552.121 1.105.197 1.657.113.827.262 1.656.41 2.487.191 1.063.382 2.131.502 3.205.309.872.331 1.779.352 2.684l.005.196c.092.474.185.948.279 1.421.207 1.05.414 2.1.604 3.153l.063.342c.399 2.179.797 4.358 1.141 6.545l.061.377c.288 1.805.577 3.611.578 5.447l.077.168c.307.666.614 1.332.487 2.105v-.001l.001-.001c.218.372.327.752.119 1.164.696 3.86 1.144 7.735.588 11.654a98.582 98.582 0 01-.423 2.64l-.194 1.152c.31.842.259 1.7.208 2.557-.022.371-.044.741-.036 1.11.003.213 0 .427-.004.641-.015.827-.03 1.651.397 2.421 1.475-1.015 2.639-2.342 3.804-3.67.866-.989 1.733-1.977 2.727-2.836.432-.483.866-.962 1.3-1.442 1.127-1.244 2.253-2.488 3.325-3.778.573-.687 1.015-1.281.173-2.47-.68-.964-1.145-2.165-1.604-3.348a51.13 51.13 0 00-.416-1.051c-1.178-2.862-2.259-5.761-3.341-8.66-.334-.897-.668-1.793-1.006-2.689-.023-.06-.055-.125-.087-.192-.144-.293-.306-.623.164-.794.145-.055.354.063.561.181.094.053.188.106.275.144l-.234-.539-.329-.753-.072.024c-.28.095-.538.183-.795-.145a7.99 7.99 0 01-1.453-2.976c-.555-2.175-1.226-4.316-1.898-6.456-.54-1.72-1.08-3.44-1.558-5.177-.321-1.169-.77-2.303-1.217-3.435-.131-.33-.261-.659-.388-.989-.146-.381-.268-.736-.176-1.139-.769-.853-1.086-1.906-1.403-2.958-.153-.506-.305-1.011-.507-1.494-.555-1.327-1.02-2.69-1.486-4.053-.314-.917-.627-1.835-.968-2.742-.148-.397-.222-.798-.296-1.2-.03-.168-.061-.337-.098-.505-.038-.068-.078-.135-.118-.202-.307-.522-.614-1.044-.442-1.706l-.075-.226c-.058-.175-.117-.351-.173-.525-.178-.527-.377-1.046-.576-1.565-.427-1.114-.853-2.228-1.073-3.411-1.273-2.888-2.268-5.853-2.797-8.984-.217-1.276-.596-2.574-1.158-3.737-1.059-2.193-1.721-4.511-2.383-6.828-.381-1.335-.762-2.67-1.219-3.98-.765-2.189-1.362-4.429-1.959-6.668-.511-1.917-1.022-3.832-1.637-5.714-.717-2.199-1.351-4.422-1.984-6.644-.734-2.578-1.469-5.156-2.335-7.698-.931-2.742-1.695-5.575-2.018-8.487-.087-1.307-.679-2.428-1.268-3.542-.223-.422-.446-.844-.64-1.274-1.18-2.612-2.026-5.322-2.874-8.038-.163-.523-.326-1.047-.492-1.57-.17-.535-.347-1.068-.523-1.602-.732-2.209-1.465-4.418-1.674-6.729-.21-2.344-1.021-4.469-1.834-6.599-.177-.463-.353-.927-.524-1.393-.49-1.341-.707-2.709-.582-4.171 2.756 4.791 5.033 9.79 7.308 14.785a821.015 821.015 0 001.514 3.31c.111.245.197.504.283.762.255.765.51 1.529 1.397 1.937.279.132.538.658.529.995-.043 1.937.719 3.609 1.481 5.281.254.558.509 1.116.733 1.684l.001.001c.665.494 1.068 1.222 1.231 1.967.3 1.373.879 2.585 1.658 3.727.027.038.065.077.103.116.069.07.135.138.125.192-.384 1.857.509 3.251 1.397 4.638.395.614.788 1.228 1.069 1.88.307.716.714 1.4 1.122 2.087.396.664.792 1.331 1.101 2.03 1.709 3.887 3.877 7.509 6.049 11.137.317.528.634 1.057.949 1.587.715 1.199 1.47 2.367 2.224 3.536.379.586.758 1.172 1.131 1.762 1.64 2.475 3.059 5.078 4.478 7.68.411.755.823 1.51 1.24 2.262.054.098.11.195.166.293.299.524.601 1.051.728 1.653.152.342.305.682.459 1.023v.001-.001c.257.264.397.546.119.884.086.709.388 1.317.698 1.939.089.178.178.358.263.541 1.471 3.153 2.661 6.429 3.141 9.906l.02.144c.063.465.118.874.403 1.304.868 1.32 1.297 2.813 1.432 4.385.511.543.661 1.197.594 1.917l.133.349c.15.393.3.786.452 1.18.159.244.259.496.085.776 1.23 2.867 1.955 5.872 2.462 8.938.03.208.147.393.263.578.196.31.391.62.18 1.04.168.452.313.913.458 1.373.377 1.195.754 2.39 1.527 3.441.324.442.347 1.03.369 1.603.009.223.017.444.044.654l.037.303c.126 1.015.251 2.019.546 3 .08 1.215.314 2.414.547 3.612.391 2.01.782 4.019.451 6.102.807 2.263.811 4.663.762 6.973-.018.859.063 1.713.143 2.567.125 1.328.25 2.652.005 3.984-.154 1.122-.027 2.186.677 3.124.43.054.851.055 1.226-.2.561-.707 1.121-1.417 1.681-2.126a442.562 442.562 0 014.012-5.037 205.858 205.858 0 014.403-5.206c.631-.727.246-1.298-.159-1.898l-.013-.021c-.754-.179-.94-.767-1.123-1.345a4.017 4.017 0 00-.241-.637 32.436 32.436 0 00-.446-.814c-.597-1.066-1.199-2.139-1.264-3.419a526.68 526.68 0 00-1.269-2.64c-.962-1.059-1.352-2.403-1.73-3.711a33.252 33.252 0 00-.296-.982c-1.027-3.182-2.241-6.267-3.733-9.244-.536-1.065-.882-2.187-1.228-3.311-.133-.431-.266-.862-.409-1.291-.202-.156-.139-.302.019-.445a83.602 83.602 0 00-.199-.664l-.008-.027c-1.171-2.152-2.064-4.408-2.461-6.839-.761-1.492-1.317-3.063-1.873-4.634-.384-1.084-.767-2.167-1.217-3.223-.951-2.24-1.944-4.462-2.935-6.684-.566-1.268-1.132-2.535-1.69-3.806-.462-1.052-.929-2.102-1.396-3.152-2.003-4.506-4.008-9.014-5.621-13.697-.552-1.604-1.065-3.221-1.579-4.838-.852-2.682-1.703-5.363-2.73-7.985-.26-.662-.433-1.356-.607-2.051a34.948 34.948 0 00-.253-.977c-.346-.697-.623-1.394-.754-2.195-.228-1.402-.568-2.783-.908-4.163-.47-1.908-.94-3.817-1.116-5.786a3.59 3.59 0 00-.089-.474c-.054-.233-.109-.465-.089-.693.201-2.394-.268-4.704-.737-7.015-.298-1.471-.597-2.943-.723-4.437-.122-1.429-.461-2.841-.8-4.252a67.017 67.017 0 01-.434-1.892c-.031-.149-.068-.298-.105-.447-.21-.854-.42-1.706.455-2.441.213-.179.163-.478.061-.734-.467-1.187-.651-2.441-.835-3.693-.185-1.266-.371-2.528-.848-3.713-.887-2.203-1.21-4.512-1.533-6.819-.233-1.657-.465-3.314-.905-4.929-.346-1.263-.583-2.554-.819-3.842-.19-1.036-.38-2.07-.626-3.086-.326-1.346-.844-2.667-1.382-4.039-.26-.662-.525-1.336-.775-2.031 1.355.687 1.881 1.974 2.331 3.071l.116.283c.862 2.065 1.516 4.216 2.171 6.366.24.79.481 1.58.731 2.365.054.166.063.346.073.527.004.086.009.172.018.257v-.002c.442.509.542 1.133.642 1.757.084.528.169 1.056.461 1.515.243.237.356.532.368.869.726 1.262 1.016 2.696 1.296 4.074l.119.581c.282 1.34.594 2.675.906 4.009.445 1.905.891 3.81 1.25 5.736.673 3.59 1.979 7.03 3.279 10.454l.226.593a615.388 615.388 0 013.026 8.206c.037.098-.007.226-.051.355-.021.062-.043.123-.055.182l.253.742c.564.764.831 1.649 1.099 2.536.186.614.372 1.23.658 1.809l.338.683c1.157 2.342 2.313 4.68 3.567 6.981a125.272 125.272 0 001.874 3.286c.746 1.28 1.493 2.559 2.186 3.868.363.686.822 1.319 1.281 1.952.195.27.39.539.578.812.03.045.076.084.12.123.062.055.122.108.136.172.324 1.606 1.174 2.948 2.024 4.289.651 1.028 1.302 2.055 1.716 3.2.023.061.04.126.057.188.384.706.76 1.417 1.136 2.127.814 1.536 1.627 3.073 2.519 4.562.911 1.522 1.601 3.144 2.291 4.764.541 1.27 1.081 2.539 1.727 3.759l.205.385c.551 1.027 1.103 2.055 1.175 3.272.027.468.311.792.604 1.126.268.306.543.62.633 1.061.046.222.126.438.205.655.163.441.326.886.21 1.392l.036.091c.058.151.115.301.174.451v.002l.412.962.099.231c.191.499.388.994.585 1.49.784 1.973 1.567 3.942 1.941 6.077.225 1.286.567 2.552.909 3.818.388 1.434.775 2.868.993 4.327a75.33 75.33 0 00.539 3.061c.347 1.832.695 3.666.806 5.548l.002.034c.108 1.822.219 3.683.586 5.498.044.295.101.589.158.884.228 1.168.455 2.336-.163 3.502l-.012.02c.606 1.404.439 2.821.271 4.239-.092.771-.183 1.542-.15 2.311-.006.185-.014.371-.022.558-.019.462-.039.924-.022 1.387.012.327.175.663.543.736.281.058.469-.175.628-.381.203-.259.418-.513.632-.767.508-.602 1.017-1.204 1.38-1.882.204-.382.504-.706.803-1.03.543-.587 1.085-1.172 1.052-2.092.987-.148 1.519-.839 2.05-1.528.371-.482.743-.964 1.269-1.261v.004l.001-.002c.554-1.079 1.352-1.97 2.187-2.837.467-.874 1.093-1.631 1.719-2.389.231-.279.462-.559.685-.844.792-1.021 1.587-2.04 2.463-3.165-.168-.124-.332-.251-.495-.377-.374-.289-.742-.574-1.14-.813-.507-.305-.446-.716-.38-1.167l.002-.008c-.711-1.849-1.673-3.567-2.636-5.287-.396-.707-.792-1.415-1.171-2.132-1.049-1.986-1.845-4.117-2.635-6.232l-.091-.244c-.441-1.177-.957-2.293-1.702-3.289a7.051 7.051 0 01-1.159-2.423c-.218-.509-.438-1.017-.657-1.525l-.447-1.036c-.31-.271-.499-.602-.515-1.018-1.257-2.297-2.254-4.679-2.806-7.262-.166-.789-.537-1.534-.908-2.278-.16-.321-.32-.642-.463-.966-.058-.131-.124-.259-.189-.387-.229-.448-.457-.896-.368-1.44l.001.002v-.001-.001c-1.546-2.782-2.595-5.765-3.647-8.754l-.087-.247c-.965-2.745-1.733-5.546-2.501-8.347-.49-1.789-.981-3.577-1.522-5.351a41.273 41.273 0 01-.548-2.045c-.209-.833-.416-1.663-.68-2.457-.57-1.714-.976-3.462-1.382-5.209-.288-1.237-.576-2.473-.921-3.696-.566-2.005-.899-4.086-1.212-6.154-.433-2.847-.741-5.709-1.049-8.57-.245-2.272-.489-4.544-.796-6.805-.316-2.334-.456-4.672-.596-7.008-.115-1.928-.23-3.854-.444-5.775-.452-4.061-1.157-8.085-1.862-12.11l-.114-.653c-.655-3.744-1.219-7.503-1.777-11.26-.077-.527-.215-1.042-.353-1.556-.216-.807-.431-1.612-.415-2.461-.708-2.863-1.853-5.563-2.997-8.263-.466-1.1-.933-2.2-1.369-3.31a28.35 28.35 0 00-.432-1.021c-.273-.623-.545-1.246-.734-1.894-.287-.984-.502-1.987-.716-2.992a102.26 102.26 0 00-.266-1.222c.592-.033.824.341 1.047.701.05.08.099.16.151.233l.129.182c1.117 1.575 2.213 3.12 2.861 5.025.374 1.101.923 2.164 1.472 3.227.265.514.53 1.028.776 1.547.116.239.202.492.289.744.041.12.082.24.126.359.358.524.647 1.066.472 1.731l.049.078-.005.007.006-.006.096.074c.25.191.501.381.309.783.087.21.172.424.254.636.366.188.621.47.783.852 2.1 4.928 4.082 9.892 5.671 15.016.419 1.349.813 2.708 1.207 4.065.722 2.486 1.442 4.97 2.314 7.396 1.3 3.614 2.664 7.22 4.221 10.756 1.237 2.811 2.322 5.688 3.408 8.566a254.722 254.722 0 002.274 5.878c.943 2.321 1.738 4.684 2.534 7.051l.488 1.446c.588 1.737 1.327 3.476 2.113 5.167l.001.002.001-.003c.079.179.158.357.239.536v.001c.043.068.089.135.134.202.248.367.494.733.353 1.229 1.696 3.575 2.758 7.347 3.529 11.215.265 1.329.597 2.643.93 3.957.551 2.175 1.101 4.35 1.346 6.591 1.558 3.925 2.591 7.971 3.305 12.142.211 1.237.376 2.48.542 3.724.254 1.907.508 3.815.927 5.706.622 2.808.832 5.72 1.04 8.6l.011.163c.173 2.39.262 4.786.351 7.181.047 1.256.094 2.512.152 3.768l.017.331c.047.934.094 1.861-.126 2.787-.188.786-.078 1.547.354 2.438 1.319-1.522 2.37-3.171 3.411-4.804.597-.937 1.191-1.87 1.831-2.77.457-.397.734-.928 1.01-1.46.34-.652.679-1.303 1.35-1.707l.007.014c.296-1.235 1.042-2.193 1.788-3.151.355-.455.71-.911 1.016-1.396.089-.141.183-.279.277-.417.414-.608.825-1.211.754-2.022-.833-.528-1.305-1.173-1.617-2.215l-.005-.019a410.132 410.132 0 01-1.569-5.352c-.153-.543-.195-1.001.044-1.49v-.001c-.589-.645-.833-1.447-1.075-2.243-.064-.209-.127-.416-.196-.621-.432-1.283-.964-2.529-1.495-3.775-.702-1.643-1.403-3.286-1.875-5.013-.903-3.307-2.225-6.456-3.546-9.601-.35-.835-.701-1.67-1.044-2.508-1.89-4.63-3.604-9.321-5.319-14.013l-.918-2.507c-.531-1.449-.822-2.996-1.111-4.527l-.119-.624c-.313-1.617-.575-3.245-.838-4.871a363.46 363.46 0 00-.341-2.089c-.303-2.16-.851-4.265-1.399-6.37a99.766 99.766 0 01-.882-3.567l-.033-.136c-.068-.273-.134-.536.078-.792a.567.567 0 01-.058-.294l.001-.002c-.318-.698-.516-1.414-.319-2.184a56.63 56.63 0 00-.171-.682v-.002h.001-.001c-.522-.636-.573-1.391-.625-2.144-.024-.353-.047-.705-.12-1.045-.706-3.313-1.2-6.66-.629-10.068.093-.545.028-1.096-.036-1.649-.087-.737-.173-1.476.111-2.206-.63-2.973-.77-5.987-.825-9.013-.01-.535-.08-1.07-.149-1.604a34.469 34.469 0 01-.087-.702l.001-.001-.002-.001c-.274-.817-.382-1.696-.273-2.512.302-2.233-.084-4.388-.471-6.543a49.33 49.33 0 01-.433-2.694l-.077-.614c-.226-1.776-.452-3.563-.117-5.36-.059-.31-.128-.619-.197-.93-.182-.814-.366-1.639-.374-2.529.351.235.404.585.455.929.048.32.096.634.38.847a13.741 13.741 0 00-.263-4.761c-.213-.914-.315-1.854-.416-2.795-.068-.625-.135-1.251-.236-1.87a593.653 593.653 0 00-1.071-6.335c-.168-.977-.337-1.953-.503-2.931a6.093 6.093 0 00-.036-.186c-.038-.196-.078-.394-.062-.588.301-4.016-.734-7.711-2.615-11.23-.522-.978-.894-2.045-1.262-3.099l-.051-.147c-.412-1.19.349-1.654 1.131-2.13.124-.076.248-.152.368-.231.908 1.055 1.293 2.3 1.673 3.532.16.517.319 1.032.515 1.53.316.798.556 1.628.796 2.457.307 1.061.613 2.121 1.076 3.11.856 1.828 1.379 3.743 1.9 5.655.111.408.222.816.337 1.223.51 1.816 1.018 3.644 1.442 5.478.84 3.629 1.483 7.304 2.126 10.977l.028.162c.49 2.779.922 5.569 1.354 8.358l.415 2.664c.193 1.219.495 2.405 1.093 3.496.369.674.496 1.41.622 2.147.084.489.169.979.324 1.451v.001c.334.381.503.828.534 1.332.239.245.396.526.375.883v-.001c.258.333.486.671.292 1.118l.303.729h-.003l.002.002c1.421 3.176 2.559 6.445 3.352 9.835.318 1.361.649 2.718.981 4.075.554 2.269 1.109 4.537 1.598 6.819.709 3.3 2.144 6.295 3.579 9.29.426.89.852 1.78 1.26 2.678.548 1.21 1.131 2.402 1.713 3.595.224.458.448.916.67 1.375.29.604.521 1.127.024 1.816-.531.734-.337 1.44.484 2.01.783.541 1.047 1.387 1.178 2.352.1.743.22 1.482.341 2.222.28 1.71.56 3.42.577 5.163.002.204-.005.383-.193.503-.157.274-.049.512.059.75.088.196.177.391.119.606.265 1.002.315 2.027.365 3.052.045.918.09 1.835.288 2.737.045.093.099.184.153.275.115.196.231.393.262.602.18 1.215.523 2.397.866 3.577.456 1.568.911 3.132.978 4.767.033.823.171 1.632.308 2.441.198 1.168.396 2.336.283 3.54-.015.151-.007.295.001.436.02.371.039.72-.351 1.11-.272.274-.164.692-.053 1.124.063.246.128.495.124.726 1.09-.089.693.709.53 1.036-.023.047-.042.084-.05.108-.365.985-.236 1.933-.104 2.9.026.187.051.374.073.563.11.94.233 1.88.357 2.82.342 2.609.685 5.218.734 7.853.006.335.106.635.204.931.085.255.168.508.191.778.009.103.025.208.042.314.072.47.145.946-.417 1.266-.151.849.199 1.558.615 2.253l.094.096.192.198.631-.311c.885-1.612 2.037-3.027 3.189-4.442.743-.913 1.486-1.826 2.158-2.792l.764-1.229.926-1.487c.956-1.776 2.17-3.372 3.385-4.968l.222-.292.001.001h.001v-.001c-.506-.604-.663-1.228-.889-2.317-.278-1.338-.569-2.698-1.073-3.963a69.787 69.787 0 01-1.051-2.869c-.371-1.061-.742-2.12-1.167-3.157-1.19-2.89-2.214-5.84-3.239-8.789-1.124-3.235-2.247-6.469-3.588-9.623-.232-.547-.453-1.1-.674-1.653-.481-1.204-.962-2.409-1.562-3.551-.367-.7-.549-1.435-.73-2.17a14.457 14.457 0 00-.393-1.387l-.396-1.106c-1.127-3.147-2.257-6.301-3.122-9.521-1.959-7.279-3.695-14.606-4.816-22.08-.402-2.673-.31-5.314-.219-7.951l.036-1.048c.101-3.251-.302-6.435-.716-9.623-.146-1.119-.185-2.236-.224-3.352a65.197 65.197 0 00-.088-1.927c-.034-.515-.034-1.03-.034-1.545-.001-.913-.002-1.828-.186-2.758-.158-.807-.14-1.645-.123-2.489a19.4 19.4 0 00-.011-1.6c-.045-.736-.084-1.472-.123-2.207-.109-2.08-.219-4.159-.479-6.232-.043-.35 0-.71.044-1.072.02-.167.04-.333.052-.499-.119-3.042-.496-6.056-.873-9.07a254.524 254.524 0 01-.455-3.792c-.379-3.418-.88-6.784-1.721-10.127-.213-.842-.371-1.71-.53-2.578-.123-.672-.246-1.344-.395-2.008-.201-.903-.443-1.786-.898-2.597-.636-1.123-.925-2.293-.447-3.673.83.096 1.297.66 1.523 1.425.351 1.184.833 2.32 1.314 3.456.569 1.343 1.138 2.686 1.491 4.107.187.756.56 1.42.935 2.086.259.462.52.925.72 1.422.383.95.738 1.912 1.093 2.873.278.754.557 1.508.849 2.257 1.072 1.967 1.369 4.12 1.668 6.283l.101.724c.217 1.519.357 3.049.496 4.578.235 2.569.47 5.137 1.068 7.649.424 1.788.609 3.596.793 5.4.123 1.2.245 2.398.438 3.587.094.587.16 1.188.226 1.79.172 1.562.344 3.134 1.014 4.485a37.996 37.996 0 012.097 5.211 164.017 164.017 0 012.343 7.861c.318 1.175.697 2.338 1.077 3.504.286.879.572 1.759.833 2.645.045.15.082.308.12.467.105.438.21.881.469 1.19 1.1 1.31 1.535 2.893 1.934 4.459.524 2.062 1.126 4.103 1.729 6.144.713 2.414 1.425 4.827 2.006 7.273.47 1.979.796 4.041 1.114 6.081.305 1.954.773 3.884 1.241 5.815.216.889.431 1.778.631 2.67.039.171.046.349.053.528.003.08.006.159.012.238l.001.001c.561 1.487.74 3.051.919 4.614l.019.167c.132 1.151.386 2.288.639 3.424.375 1.682.75 3.362.729 5.081-.023 1.98.297 3.916.617 5.854.325 1.967.651 3.937.618 5.959-.029 1.731.394 3.475.817 5.213.154.637.309 1.273.441 1.908l.021.099c.132.621.256 1.209.058 1.83a.676.676 0 01.263.22c.073-.079.152-.085.243-.025 1.378-1.799 2.34-3.828 3.301-5.856.202-.426.403-.852.609-1.275.099-.206.195-.414.29-.623.44-.96.88-1.922 1.722-2.637.257-.39.491-.793.725-1.195.515-.886 1.03-1.772 1.781-2.526.86-.867.791-1.814.204-2.729-1.575-2.352-2.758-4.908-3.939-7.462-.295-.637-.59-1.274-.89-1.908a156.73 156.73 0 01-.674-1.44c-.621-1.336-1.241-2.671-1.953-3.965-.59-1.071-1.079-2.19-1.567-3.309-.507-1.161-1.014-2.324-1.636-3.434-1.367-2.435-2.424-5.011-3.48-7.588-.533-1.299-1.066-2.598-1.639-3.88-1-2.238-1.673-4.568-2.346-6.902-.357-1.242-.75-2.476-1.143-3.711-.945-2.968-1.89-5.937-2.343-9.011-.315-2.131-.855-4.198-1.394-6.261-.38-1.453-.76-2.904-1.059-4.376-.685-3.364-1.215-6.773-1.419-10.23-.045-.752-.067-1.507-.09-2.263-.062-2.054-.123-4.112-.624-6.127-.115-.463-.161-.904-.026-1.357a14.917 14.917 0 01-.093-.364c-.023-.094-.046-.189-.071-.283-.177-.522-.444-1.008-.713-1.495-.43-.781-.863-1.564-.922-2.506-.061-.962-.248-1.917-.435-2.87-.062-.32-.125-.639-.183-.959-.186-1.035-.455-2.044-1.053-2.93-.351-.521-.168-.992.023-1.483.176-.451.358-.919.137-1.457-.359-.869-.498-1.827-.638-2.786-.069-.475-.139-.95-.235-1.415a3.18 3.18 0 00-.059-.238c-.08-.296-.158-.581.069-.873-.594-1.471-.85-3.019-1.105-4.568-.175-1.063-.351-2.125-.636-3.164-.133-.487-.056-1.03.021-1.574.035-.248.07-.495.086-.738l-.31-1.211c-.493-1.923-.985-3.847-1.467-5.772a4.23 4.23 0 00-.082-.28c-.104-.333-.21-.671-.053-1.032-.19-1.47-.61-2.883-1.03-4.297-.35-1.178-.7-2.357-.917-3.568h.001l-.001-.001c-.11-.266-.24-.525-.371-.784-.337-.67-.674-1.342-.659-2.138v-.098c0-.226-.001-.45.226-.598.314-.204.6-.129.902.055.937.565 1.037 1.496 1.137 2.431l.013.128c.133.18.285.34.438.5.32.337.642.675.785 1.197.442 1.608 1.111 3.13 1.781 4.653.601 1.366 1.202 2.733 1.641 4.166.883 2.879 1.81 5.763 2.981 8.535.986 2.338 1.682 4.765 2.378 7.194.746 2.601 1.493 5.205 2.596 7.702 1.117 2.524 1.877 5.199 2.638 7.874.33 1.164.661 2.328 1.021 3.48.468 1.495.874 3.013 1.28 4.532.88 3.292 1.761 6.586 3.268 9.648 1.641 3.331 2.566 6.851 3.493 10.378.213.814.427 1.628.65 2.441.467 1.702.948 3.417 1.605 5.054.931 2.322 1.706 4.695 2.482 7.069.425 1.3.849 2.6 1.3 3.891l.001.001c-.008.521.186.991.379 1.461.201.486.401.971.376 1.513l-.001-.001c.172.531.346 1.059.519 1.589.157.146.138.279-.027.402l.088.196c.249.549.498 1.098.531 1.716l.615 2.749.266 1.186c-.24.529-.007.969.221 1.397.042.08.085.16.124.24 1.367 2.806 2.282 5.814 2.448 8.859.095 1.748.424 3.451.752 5.151.351 1.822.702 3.641.765 5.508.026.776.134 1.548.242 2.321.144 1.036.289 2.074.238 3.13-.006.142.079.29.198.497.068.118.147.255.226.422 1.193-1.116 1.986-2.472 2.769-3.81.618-1.058 1.23-2.104 2.027-3.012.384-.913.914-1.743 1.444-2.572.276-.432.552-.864.807-1.307.145-.253.303-.503.461-.753.638-1.011 1.282-2.03 1.171-3.34v-.001c-.284-.416-.618-.798-.951-1.179-.633-.724-1.266-1.447-1.554-2.409-.745-1.07-1.384-2.2-2.024-3.332-.682-1.207-1.366-2.418-2.183-3.563-1.569-2.2-3.101-4.61-3.632-7.408-.65-1.354-1.353-2.679-2.056-4.005-.949-1.79-1.898-3.58-2.719-5.446-1.745-3.972-2.805-8.094-3.716-12.292a115.624 115.624 0 00-1.626-6.63c-.055-.193-.118-.383-.181-.573-.223-.667-.441-1.323-.281-2.075.06-.279-.096-.654-.252-.929-.875-1.545-1.279-3.258-1.676-4.947-.095-.403-.19-.804-.29-1.202-.962-3.795-1.578-7.692-2.134-11.577-.299-2.079-.524-4.169-.749-6.259-.279-2.595-.558-5.188-.978-7.759-.317-1.942-.68-3.881-1.042-5.819-.369-1.977-.739-3.954-1.06-5.93-.152-.943-.361-1.877-.571-2.813-.456-2.038-.916-4.09-.796-6.275.125-2.252-.58-4.637-1.557-6.843-.83-1.872-1.415-3.838-2-5.803-.178-.6-.357-1.2-.542-1.797-.398-1.285-.626-2.603-.853-3.92-.299-1.728-.598-3.453-1.278-5.094-.288-.694-.084-1.346.127-2.02.145-.464.293-.938.286-1.443 1.197.496 1.882 1.242 2.262 2.268l.261.704c.779 2.102 1.558 4.203 2.308 6.312l.349.98c.826 2.314 1.652 4.63 2.406 6.968.881 2.725 1.717 5.465 2.553 8.205.286.939.573 1.878.861 2.816a.743.743 0 01.016.263c-.002.04-.004.08-.003.118 0 2.803.839 5.404 1.678 8.006.417 1.296.835 2.59 1.149 3.911.531 2.227 1.237 4.369 1.994 6.517.378 1.071.904 2.042 1.477 3.002l.002.003c.584.378.722.954.713 1.595l.185.408.209.46.002.003.001.003-.001-.006c1.578 1.927 2.496 4.232 3.143 6.548.122.439.248.877.374 1.316.663 2.305 1.331 4.627 1.479 7.048.006.087.022.174.038.261.043.231.086.459-.07.683a.302.302 0 01.046.271v.001l.095.155c.202.326.404.651.16 1.07.83 4.936 2.591 9.579 4.415 14.211.392.994.689 2.026.987 3.059.155.539.31 1.078.478 1.611.314.989.62 1.98.927 2.972.812 2.633 1.625 5.267 2.592 7.844.16.427.315.857.47 1.287.417 1.158.836 2.321 1.369 3.442.374.787.514 1.653.654 2.525.089.555.179 1.111.33 1.651.254.906.351 1.857.447 2.808.044.422.087.845.143 1.263.584.955.635 2.02.684 3.075.021.436.042.871.1 1.296.274 2.003.367 4.033.46 6.062.038.829.076 1.658.126 2.485.063.073.107.168.152.263.112.236.224.473.615.371 2.677-3.954 4.615-8.275 6.326-12.709v-.001c-1.167-.601-1.571-1.686-1.98-2.782-.079-.212-.158-.425-.243-.634-.316-.78-.781-1.476-1.248-2.175-.446-.665-.892-1.333-1.212-2.078a40.303 40.303 0 00-.248-.565c-.262-.592-.523-1.181-.705-1.806a18.864 18.864 0 00-.237-.424v-.002l-.317-.669a39.374 39.374 0 01-.169-.438v.002c-.244-.266-.414-.566-.462-.927l-.084-.205-.118-.297-.175-.314-.371-.668c-.152-.322-.305-.642-.458-.962l-.227-.474-.792-1.383c-.47-.135-.659-.5-.765-.933a.992.992 0 01-.344-.73 3.718 3.718 0 00-.165-.192c-.22-.245-.44-.49-.404-.873-.549-.392-.631-.998-.709-1.571-.027-.199-.053-.395-.099-.576-.439-1.755-1.278-3.317-2.114-4.874-.313-.583-.626-1.165-.918-1.757-2.162-4.396-3.578-8.994-4.549-13.778a117.127 117.127 0 01-1.701-10.877c-.187-1.762-.43-3.516-.672-5.27-.34-2.457-.68-4.913-.867-7.386-.202-2.692-.656-5.345-1.111-7.997-.382-2.234-.765-4.468-.996-6.724a35.437 35.437 0 01-.204-3.724c.011-3.306-.595-6.505-1.394-9.696-.329-1.313-.55-2.652-.77-3.99-.097-.59-.194-1.178-.3-1.764-.588-.98-.672-2.03-.757-3.167-.035-.46-.061-.92-.086-1.382-.067-1.222-.134-2.448-.39-3.672-.706-3.347-.664-6.768-.566-10.175.007-.26.081-.523.158-.772l.039-.133c.097-.343.204-.724.593-.778.536-.075.787.333.968.802 1.109 2.867 1.806 5.782 2.064 8.882.209 2.512.592 5.042.979 7.553.028.182.078.363.128.545.123.448.247.897.033 1.373.388.632.498 1.377.609 2.12.166 1.123.333 2.246 1.448 2.987l.252 1.735.566 3.899c.825 1.338 1.099 2.887 1.101 4.36.002 2.707.635 5.145 1.968 7.483.936 1.647 1.384 3.483 1.83 5.307.115.473.231.946.355 1.415a127.902 127.902 0 012.195 9.778c.522 2.865 1.504 5.577 2.485 8.289.241.665.482 1.331.717 1.999.199.567.281 1.144.364 1.719.064.45.129.9.249 1.342.266.977.547 1.949.829 2.921.696 2.403 1.392 4.806 1.851 7.279.161.86.618 1.669 1.072 2.474.172.304.344.608.499.913 2.04 4.005 3.417 8.236 4.279 12.634.127.651.171 1.319.215 1.985.022.319.043.638.073.954.169 1.799.618 3.526 1.069 5.257l.185.715.001-.001c.155.544.332 1.082.509 1.62.581 1.771 1.162 3.539.975 5.502-.058.61.094 1.824 1.418 1.565.089-.16.17-.326.251-.492.322-.661.644-1.321 1.459-1.576.073-.144.12-.301.167-.458.087-.296.176-.593.444-.803a13.257 13.257 0 011.323-3.045c.315-.528.466-1.107.057-1.673-.947-1.309-1.64-2.753-2.334-4.199-.568-1.184-1.137-2.369-1.846-3.48-1.418-2.219-2.524-4.597-3.073-7.203a3.427 3.427 0 00-.361-.921c-2.276-4.127-3.282-8.652-4.288-13.179a691.75 691.75 0 00-.31-1.389 24.803 24.803 0 00-.545-1.915 24.976 24.976 0 01-.535-1.868 237.47 237.47 0 01-.841-3.83c-.449-2.096-.897-4.191-1.437-6.262-.307-1.183-.341-2.362-.375-3.539a46.864 46.864 0 00-.042-1.126c-.051-.962-.261-1.886-.47-2.808-.161-.709-.322-1.417-.411-2.141-.402-3.305-.607-6.625-.47-9.949.063-1.519.067-3.001-.313-4.484-.499-1.944-.473-3.921-.448-5.897.009-.703.017-1.405.003-2.106-.017-.724-.046-1.436-.149-2.149-.011-.077-.047-.162-.081-.245-.051-.122-.1-.238-.06-.313.692-1.324.413-2.623.134-3.925-.168-.78-.336-1.56-.295-2.347.121-2.384-.191-4.75-.502-7.115-.075-.568-.15-1.136-.219-1.703a5.524 5.524 0 00-.185-.967c-.575-1.822-.646-3.696-.718-5.57-.03-.786-.06-1.572-.127-2.354-.428-.626-.456-1.325-.423-2.053.047-1.023.673-1.845 1.62-1.968.404-.053.802.076.977.484.116.27.249.534.383.799.476.943.952 1.888.639 3.038.549.8.669 1.712.788 2.623.042.322.084.644.146.962.28 1.433.626 2.85.973 4.268.383 1.57.767 3.141 1.061 4.734l.111.593c.303 1.62.606 3.235.688 4.877.079 1.552.358 3.076.637 4.602.349 1.904.698 3.81.66 5.776-.02 1.055.23 2.118.482 3.183.128.544.256 1.089.349 1.634.585 3.459 1.184 6.928 2.037 10.328.258 1.029.464 2.072.67 3.116.425 2.151.85 4.303 1.735 6.332.675 1.548.976 3.181 1.276 4.812.156.852.313 1.703.523 2.542.077.309.133.626.188.943.101.57.201 1.142.431 1.675 1.448 3.367 2.17 6.92 2.892 10.472.191.938.382 1.876.586 2.811.227 1.044.513 2.074.799 3.103.396 1.428.793 2.855 1.033 4.321.134.816.283 1.628.432 2.44.321 1.75.642 3.5.813 5.284.069.727.182 1.45.295 2.175.168 1.078.336 2.159.364 3.254.008.327.045.72.457.756.286.026.429-.187.577-.407.039-.059.078-.117.12-.172.184-.238.246-.539.308-.839.095-.466.19-.929.738-1.15.165-.225.264-.486.363-.746.131-.344.263-.689.545-.952.181-.71.563-1.317.946-1.926.348-.552.696-1.106.897-1.74.295-.927.263-1.695.008-2.645-.385-1.46-1.057-2.788-1.728-4.115-.56-1.106-1.119-2.212-1.511-3.392a172.79 172.79 0 00-.367-1.086c-.586-1.725-1.172-3.447-1.459-5.258-.088-.554-.254-1.092-.42-1.63-.227-.737-.454-1.474-.482-2.254a1.01 1.01 0 01-.009-.267 67.194 67.194 0 01-2.389-9.894c-.507-3.125-1.421-6.068-2.478-9.008-.109-.299-.182-.657-.127-.963.181-1.042-.053-2.028-.286-3.006-.146-.615-.292-1.227-.333-1.847a57.938 57.938 0 00-.277-2.811c-.22-1.915-.44-3.83-.272-5.757.115-1.335-.158-2.596-.43-3.854-.084-.387-.168-.774-.24-1.163-.023-.126-.049-.252-.074-.377-.119-.586-.237-1.167-.119-1.733.348-1.664.057-3.21-.457-4.798a32.906 32.906 0 00-.126-.378c-.288-.864-.584-1.75-.542-2.693-.236-.328-.478-.698-.243-1.083.162-.264.401-.184.637-.106.086.029.172.057.253.069 1.591.222 2.458 1.526 2.746 2.722.492 2.038 1.319 3.914 2.147 5.793.167.378.334.757.498 1.137.164.382.271.782.377 1.183.163.613.326 1.225.696 1.763.913 1.68 1.503 3.51 1.946 5.331.655 2.706 1.514 5.338 2.375 7.974l.376 1.155c.482 1.481.922 2.975 1.338 4.479l.225.816c.754 2.738 1.507 5.474 2.53 8.133.061.162.067.344.073.527.002.085.005.171.014.255l.216.756c.665 2.317 1.331 4.635 1.686 7.024.396 2.663.087 5.315-.221 7.959-.044.381-.088.761-.13 1.142-.046.421-.139.839-.232 1.256-.163.729-.326 1.457-.232 2.2.021.164-.106.292-.22.406-.159.16-.292.294.039.468.349.181.573-.116.793-.408l.098-.129c1.479-1.845 2.099-4.026 2.524-6.293l.004.008-.002-.009c.083-.594-.133-1.115-.348-1.635-.106-.256-.212-.512-.282-.777-.535-2.014-.782-4.068-1.028-6.122l-.076-.63c-.172-1.424-.443-2.832-.714-4.24-.369-1.918-.737-3.835-.857-5.789-.194-3.119-.239-6.241.219-9.344.198-1.355.398-2.709.697-4.045.038-.168.07-.339.103-.511.135-.722.272-1.455.851-2.01-.007-.08-.024-.164-.041-.248-.036-.183-.073-.366-.012-.507.654-1.493.991-3.077 1.328-4.66.337-1.588.674-3.174 1.33-4.669.166-2.642.833-5.21 1.697-7.662.687-1.95 1.225-3.94 1.764-5.928.542-2.003 1.084-4.004 1.776-5.962.978-3.789 2.08-7.532 4.185-10.88.26-.415.529-.823.799-1.231.765-1.16 1.532-2.322 2.103-3.628-.564 4.674-.757 9.353-.95 14.024-.15 3.633-.299 7.261-.623 10.878a3.686 3.686 0 00-.279-.147.4.4 0 00.279.147c.088 1.629-.038 3.249-.165 4.869-.118 1.505-.235 3.01-.181 4.522a81.88 81.88 0 01.02 3.608c-.005.547-.01 1.093-.011 1.64.241 5.01-.139 9.987-.728 14.959l-.01.295c-.028.852-.056 1.705-.477 2.488-.031.203-.059.407-.087.61-.162 1.185-.324 2.368-1.025 3.402-.255.368-.086.658.082.948.05.087.1.173.139.261.782-.232 1.18-.837 1.577-1.441.219-.332.437-.664.719-.934.753-.82 1.451-1.689 2.148-2.558 1.239-1.543 2.477-3.086 4.027-4.352l.002-.002-.001.001h-.001c.527-1.237 1.369-2.253 2.209-3.268.362-.437.723-.874 1.06-1.327.424-.573.877-1.119 1.329-1.665.904-1.09 1.809-2.182 2.491-3.487.665-1.272 1.858-2.163 3.043-3.049.408-.305.816-.61 1.201-.928 2.699-2.236 5.797-3.745 8.985-5.154 1.459-.646 2.893-1.346 4.328-2.046 1.394-.681 2.788-1.362 4.207-1.994.421-.186.861-.316 1.302-.445.687-.201 1.374-.403 1.982-.823.227-.156.643-.107.958-.052.448.078.991.23.894.824-.08.484-.445.396-.778.316a3.18 3.18 0 00-.182-.04 2.748 2.748 0 00-1.915.304c-.752.44-1.559.727-2.365 1.014-.366.131-.732.262-1.093.407-.112.044-.23.081-.349.12-.381.12-.775.246-1.009.618-.825 1.314-1.961 2.329-3.097 3.343-.869.777-1.738 1.553-2.468 2.463-1.717 2.143-3.418 4.275-4.84 6.651-1.342 2.242-2.974 4.328-4.641 6.349-.306.372-.542.785-.776 1.197-.315.551-.627 1.099-1.103 1.536l-.401.635c-.896 1.424-1.792 2.847-3.021 4.027a.014.014 0 01-.003.004l.002-.002c-.78 2.037-2.17 3.682-3.664 5.187-.514.516-.985 1.064-1.457 1.611a38.08 38.08 0 01-1.132 1.277c-.343.361-.693.581-1.152.677-1.128 2.287-2.888 4.001-4.949 5.438l-.863.599c-2.281 1.58-4.555 3.155-6.63 5.038-.897.813-1.221 1.741-1.561 2.718l-.156.44c.041.335-.161.512-.376.698l-.09.079c-.336.305-.684.638-.311 1.151 1.82-1.822 4.022-3.138 6.202-4.431 4.674-2.767 9.058-5.92 13.368-9.22.759-.582 1.514-1.17 2.269-1.759 2.02-1.573 4.042-3.148 6.144-4.597 2.936-2.026 5.829-4.103 8.724-6.181l1.906-1.367c.737-.529 1.603-.884 2.466-1.237.314-.129.627-.257.933-.393l1.445-.641c2.871-1.271 5.742-2.541 8.498-4.058.477-.262.98-.379 1.494-.472.141-.024.29-.017.438-.009.186.01.372.019.538-.036.987-.327 1.999-.563 3.009-.799.747-.175 1.493-.349 2.226-.559a34.58 34.58 0 011.12-.293c1.542-.385 3.118-.779 4.336-1.984.293-.29.732-.035 1.134.404-1.048.5-1.69 1.295-1.905 2.438-.133.711-.643 1.095-1.412 1.035-.884-.072-1.663.251-2.45.601l-.171.078c-.536.246-1.104.506-1.659.512-1.529.019-2.758.707-3.982 1.479l-.002.002c-.277.691.031.645.357.596.242-.037.494-.075.523.187-1.767 1.157-3.617 2.246-5.669 2.934-.701.235-1.267.619-1.861 1.022l-.135.091c-.554.376-1.25.697-2.006.629-.652.921-1.62 1.289-2.59 1.656-.403.154-.807.307-1.188.5-1.546.856-3.032 1.749-4.409 2.915-2.369 2.006-4.795 3.944-7.222 5.881-1.851 1.479-3.703 2.957-5.528 4.465-1.325 1.094-2.598 2.249-3.87 3.404-.997.905-1.994 1.81-3.016 2.685-2.746 2.349-5.859 4.187-8.976 5.977-.533.305-1.097.561-1.665.818-.794.359-1.593.721-2.317 1.223a.974.974 0 01-.551.178c-2.07-.093-3.776.856-5.481 1.804l-.397.221-.001.001-.001.001.003-.002c-.367.662-.965.859-1.677.827l-.065-.004v.001c-.098.05-.204.089-.31.129-.267.1-.536.2-.674.468a548.775 548.775 0 00-2.261 4.46l-.616 1.224c.407.253.723.115 1.017-.014.253-.111.491-.215.756-.056l.088-.04c.141-.455.512-.561.883-.667.076-.022.152-.043.226-.068.921-.497 1.841-.993 2.761-1.487l.001-.001h.003a245.34 245.34 0 003.221-1.571c2.687-1.328 5.373-2.655 8.158-3.718.668-.254 1.284-.587 1.895-.917.709-.383 1.411-.763 2.181-1.013.487-.158.972-.323 1.457-.488.992-.339 1.985-.677 2.993-.953 8.091-2.217 15.966-5.083 23.746-8.172.927-.368 1.851-.741 2.776-1.114 3.569-1.438 7.138-2.877 10.798-4.027 1.499-.471 2.976-1.014 4.452-1.558 3.003-1.105 6.006-2.211 9.196-2.705.167-.026.333-.054.5-.082 1.279-.214 2.564-.429 3.841.107-.125.292-.343.504-.566.72-.229.222-.463.448-.605.772-.3.697-1.001 1.013-1.872 1.181l-.065.012c-2.599.498-5.223 1-7.58 2.323a5.568 5.568 0 00-.395.251c-.465.314-.931.628-1.576.375a.652.652 0 00-.352.104c.511.718-.088 1.297-.511 1.416-.593.168-1.172.386-1.752.604-1.224.462-2.45.923-3.801.909-2.2.621-4.291 1.522-6.381 2.424-1.552.669-3.105 1.338-4.702 1.893-.422.241-.845.484-1.266.727l-.006.004c-.496.714-1.241.993-1.986 1.273-.305.115-.61.229-.899.374-3.35 2.24-6.725 4.413-10.463 6.011-1.72.736-3.311 1.835-4.837 2.941-2.764 2.002-5.871 3.293-8.974 4.581-.54.225-1.08.449-1.617.677-.599.253-1.191.52-1.782.787-1.303.588-2.607 1.177-3.991 1.62-3.151 1.005-6.356 1.336-9.603 1.514-1.115.059-2.217.123-3.293.398-1.524.393-3.071.58-4.646.554-.748.202-1.025.801-1.298 1.391-.078.17-.157.34-.246.499-.397.703-.753 1.428-1.11 2.154-.611 1.244-1.223 2.488-2.04 3.622l-.001.001c.001.04.005.08.005.119 0 .025-.002.05-.007.074-.02.084-.051.172-.082.26-.101.29-.205.589.051.822.285.26.513.087.751-.093.078-.058.156-.118.238-.163 2.644-1.49 5.364-2.837 8.12-4.105 2.488-1.432 5.186-2.297 7.926-3.119 1.367-.411 2.759-.716 4.151-1.02 1.717-.376 3.434-.751 5.103-1.327.878-.302 1.8-.43 2.726-.558.768-.106 1.538-.213 2.288-.42 1.914-.527 3.845-.984 5.777-1.442 3.416-.808 6.834-1.618 10.153-2.812.216-.077.43-.183.648-.29.564-.277 1.151-.565 1.832-.402.929-.644 1.96-.914 3.074-1.135l.352-.068c1.073-.208 2.182-.422 3.168-.824 3.729-1.511 7.599-2.543 11.467-3.575 1.37-.366 2.741-.731 4.104-1.118 3.441-.976 6.959-1.884 10.579-1.911 1.085-.008 2.168-.039 3.25-.071 1.067-.03 2.133-.061 3.2-.07.298-.003.596-.008.895-.013.93-.016 1.86-.033 2.784.029 1.039.07 2.095.253 2.796 1.29-.558.709-1.311.637-1.997.572a9.882 9.882 0 00-.36-.03c-1.302-.074-2.527.153-3.784.387l-.443.082c-2.377.435-4.751.888-7.058 1.576-1.139.338-2.302.576-3.465.814-1.567.321-3.133.642-4.643 1.207-.464.174-.959.247-1.456.321-.659.099-1.323.197-1.924.531-2.403 1.427-5.037 2.302-7.663 3.175l-.655.218c-2.66.89-5.297 1.831-7.862 2.968-.902.4-1.818.771-2.734 1.142-1.665.676-3.329 1.35-4.904 2.194-2.026 1.083-4.117 1.995-6.211 2.907-.583.254-1.165.508-1.747.765-.904.334-1.775.745-2.647 1.157-1.167.55-2.334 1.101-3.58 1.467v.001c-.927.57-1.951.875-2.975 1.18-.608.181-1.215.362-1.803.598-3.832 1.542-7.716 2.902-11.813 3.578-.562.094-1.133.135-1.704.175-1.125.081-2.252.161-3.318.647-.235.107-.66-.035-.926-.188-1.842-1.053-3.788-.849-5.723-.647-.331.035-.662.07-.992.098-.28.024-.562.042-.843.059-1.211.076-2.428.151-3.556.774-.418.229-.592-.087-.762-.398a1.653 1.653 0 00-.209-.325c-1.119.961-1.764 2.241-2.405 3.513-.208.412-.415.823-.637 1.221-.911 1.633-1.699 3.335-2.486 5.038-.337.727-.673 1.454-1.019 2.176l-.002.002c2.502-.781 4.897-1.82 7.293-2.858a480.871 480.871 0 011.642-.71c1.367-.59 2.73-1.178 4.189-1.533.806-.195 1.563-.518 2.323-.843.793-.339 1.59-.679 2.45-.877 3.028-.7 6.087-1.434 8.972-2.561 2.248-.879 4.579-1.378 6.899-1.874.607-.13 1.213-.26 1.816-.396a89.705 89.705 0 017.47-1.371l.001-.001c1.247-.521 2.55-.737 3.897-.714l.094.032c.84-.371 1.697-.675 2.637-.546l.008.001c.527.072 1.027.14 1.399-.38.206-.289.54-.412.864-.311.804.253 1.466-.069 2.12-.387.157-.077.314-.153.472-.221 1.245-.542 2.501-1.011 3.88-1.037 1.529-.572 3.081-1.056 4.721-1.194 1.555-.133 3.04-.565 4.525-.998 1.01-.294 2.02-.588 3.053-.788.181-.035.356-.104.53-.172.417-.165.825-.325 1.297 0 .183.127.424.109.536-.039.496-.661 1.003-.55 1.664-.217.361.185.777.058 1.181-.065.118-.035.235-.071.349-.098l.003-.001c.777-.957 1.818-1.41 2.982-1.758.471-.14.959-.212 1.447-.284.87-.128 1.742-.257 2.519-.772.326-.214.763.029 1.071.313.766.117 1.49-.204 1.838-.752.361-.567.796-.567 1.252-.568.115 0 .231 0 .347-.009h.016c.389-.195.786-.29 1.21-.106.737-.66 1.635-.741 2.53-.821.414-.037.827-.074 1.224-.168.652-.153 1.31-.283 1.967-.413 2.228-.439 4.451-.877 6.394-2.214.526-.363.954-.256 1.398.151.653.595 1.416.944 2.326.889.216-.022.432-.046.648-.07.492-.056.984-.111 1.477-.138.397-.022.869.065.896.54.021.336-.355.537-.703.542a6.91 6.91 0 00-.687.055c-.549.062-1.098.124-1.638-.121-.608.07-.787.518-.951.931-.101.25-.195.488-.378.619-.187.134-.471.076-.788.011-.408-.083-.87-.178-1.248.112-1.456 1.118-3.227 1.34-4.934 1.541-4.463.526-8.811 1.415-12.902 3.325-.387.181-.782.218-1.174.254a5.023 5.023 0 00-.742.106v.001h.001c-.148.06-.287.15-.425.239-.324.21-.646.418-1.09.247a2.314 2.314 0 00-.454.266c-.275.19-.549.38-.93.327-.393.2-.788.396-1.184.591-1.234.61-2.468 1.22-3.624 1.984-.584.385-1.236.75-1.999.715l-.001.002c-.46.196-.915.406-1.37.617-1.024.473-2.048.946-3.12 1.263-2.91.86-5.535 2.276-8.159 3.729a47.209 47.209 0 00.667.404c.263-.075.524-.148.789-.218h-.001.003c.421-.348.922-.526 1.439-.664l.34-.196c.922-.535 1.842-1.069 2.979-1.01l-.004.003.462-.204.34-.148c3.648-1.996 7.555-3.334 11.493-4.613 2.246-.73 4.521-1.351 6.797-1.971 1.002-.273 2.004-.547 3.005-.83 3.941-1.118 7.955-1.93 11.965-2.742l.639-.129c1.64-.334 3.332-.633 5.113-.459-.789 1.128-1.149 1.295-3.455 1.681l-.001-.001h-.001l-.203.09c-.812.356-1.607.704-1.7 1.83-.043.496-.519.825-1.025.697-1.254-.313-2.268.207-3.281.728-.195.1-.389.199-.585.293-1.368.655-2.815 1.077-4.263 1.5-1.044.304-2.088.609-3.103 1.001l-.405.153c-.59.222-1.168.439-1.726.784-1.154.711-2.369 1.356-3.734 1.61-.211.194-.442.337-.747.329l-.001-.001c-.909.885-2.057 1.32-3.2 1.753-.495.187-.989.374-1.462.597-2.085.986-4.231 1.84-6.378 2.695-1.199.477-2.398.954-3.587 1.454-.781.329-1.539.713-2.297 1.096-.46.233-.92.466-1.386.686-1.93.916-3.835 1.886-5.74 2.856-1.28.652-2.559 1.304-3.846 1.939a298.352 298.352 0 01-3.462 1.674c-3.029 1.45-6.063 2.902-8.958 4.613-1.06.626-2.222.977-3.385 1.329-.687.208-1.375.416-2.042.68-3.903 1.55-7.942 2.593-12.08 3.303-1.242.213-2.432.618-3.623 1.024-1.227.418-2.456.837-3.746 1.048-2.415.397-4.801.991-7.17 1.581-.527.132-1.053.263-1.579.391-3.363.821-6.689.997-10.081 1.1-.572.017-1.138.163-1.705.309-.515.133-1.031.266-1.552.302-.292.021-.59.078-.889.135-.905.173-1.825.348-2.642-.444a.605.605 0 01-.569-.309c-1.299.844-2.105 2.126-2.847 3.411-1.765 3.057-3.448 6.161-5.126 9.264-.382.703-.846 1.332-1.322 1.959-.225.29-.314.617-.179.915.2.44.582.342.943.249l.088-.022c.408-.101.819-.195 1.23-.29.924-.213 1.85-.426 2.751-.712.838-.267 1.686-.515 2.534-.764 1.741-.511 3.482-1.021 5.128-1.689 1.888-.768 3.823-1.36 5.757-1.95 1.305-.399 2.609-.797 3.897-1.25 2.059-.722 4.242-1.208 6.444-1.535 1.644-.245 3.271-.613 4.897-.98.476-.108.953-.215 1.429-.32 3.897-.852 7.829-1.369 11.818-1.613 1.548-.096 3.115-.252 4.67-.414 2.259-.235 4.535-.32 6.808-.116l.066-.047c.317-.223.632-.446 1.056-.236l.09.001.002.001c.18.001.361-.029.542-.059.397-.066.793-.132 1.177.124 1.017.192 2.031-.011 3.011-.207.326-.065.648-.129.965-.178.815-.128 1.634-.169 2.452-.21 1.047-.053 2.093-.105 3.124-.34.892-.204 1.814.028 2.708.252l.152.039a291.144 291.144 0 001.084-.474c.632-.242 1.292-.297 1.953-.352a12.84 12.84 0 001.039-.115c.622-.103.725.338.717.83 1.34-.938 2.64-1.516 4.436-.989 1.577.463 3.212-.004 4.798-.456a88.9 88.9 0 01.584-.165c.113-.031.223-.072.334-.114.315-.119.629-.238.988-.105.32-.716.941-.79 1.549-.863.221-.027.439-.053.642-.109.839-.236 1.647-.566 2.454-.895 1.189-.484 2.377-.969 3.668-1.156.248-.037.497-.071.746-.105 1.178-.162 2.366-.325 3.466-.715 2.473-.876 5.049-1.253 7.624-1.629 2.429-.355 4.856-.71 7.194-1.484a33.857 33.857 0 014.559-1.187c.392-.071.768-.138 1.164-.08.504.067.849.273.915.843.062.522-.06.895-.566 1.116-1.194.521-2.368 1.021-3.658 1.357-1.978.517-3.919 1.173-5.862 1.828-.879.297-1.757.594-2.64.878-2.767.891-5.6 1.524-8.432 2.156-1.197.267-2.395.534-3.587.821-1.184.286-2.37.563-3.556.84-2.292.536-4.583 1.072-6.861 1.668-.2.052-.41.055-.619.059-.369.006-.736.012-1.041.289-.883.747-1.919 1.215-2.955 1.683-.48.216-.96.433-1.424.677-2.266 1.191-4.578 2.31-6.94 3.298a221.77 221.77 0 01-4.662 1.862c-.881.344-1.761.688-2.638 1.037-.902.361-1.828.658-2.755.954-1.653.529-3.307 1.059-4.832 1.955-1.172.688-2.528.982-4.026.86-1.03-.086-2.084.202-3.122.486a28.09 28.09 0 01-1.023.266c-3.008.704-6.045 1.034-9.11 1.191-1.166.059-2.332.127-3.498.195-2.763.161-5.527.321-8.3.37-1.383.023-2.776.143-4.17.263-.941.08-1.883.161-2.824.213-1.333.074-2.668.036-4.002-.001a78.844 78.844 0 00-2.381-.044c-1.148.002-2.296.025-3.443.047-2.05.039-4.1.079-6.15.006-.939-.036-1.879-.06-2.82-.084-.675-.018-1.35-.035-2.025-.057-.121-.003-.243-.022-.366-.04-.206-.031-.41-.062-.6-.021-1.537.334-3.064.536-4.635.259-.694-.122-1.283.198-1.803.636a3.921 3.921 0 01-.294-.126c.083.049.184.092.294.126a65.701 65.701 0 01-6.467 8.765l-.002-.003v.005l-.059.105-.122-.008a3.83 3.83 0 00-.081.235c-.101.31-.201.619-.533.79-.129.155-.168.355-.207.555-.055.285-.111.571-.43.725-.677 1.301-1.364 2.593-2.188 3.816a6.549 6.549 0 01-.226.31c-.344.45-.706.926-.463 1.593a.323.323 0 01.353-.015c1.379-.935 2.846-1.26 4.559-1.176 1.47.07 3.061-.223 4.429-.773 1.943-.783 3.966-1.072 5.986-1.361a86.89 86.89 0 001.688-.252c3.885-.633 7.765-1.274 11.615-2.082.213-.044.435-.039.657-.035.108.003.217.005.324.001 2.435-.203 4.782-.817 7.129-1.431 2.016-.527 4.031-1.054 6.1-1.321 2.863-.371 5.737-.651 8.613-.926 1.292-.125 2.626-.272 3.831-.59.579-.152 1.119-.037 1.646.074.604.128 1.19.252 1.792-.034l.084-.055c.682-.449 1.337-.881 2.261-.426.297.146.723.076 1.115.012.08-.014.16-.027.237-.038 3.903-.575 7.825-.925 11.752-1.275l1.442-.129c2.599-.235 5.21-.467 7.81-.697 1.232-.108 2.396-.465 3.544-.817.262-.081.524-.161.785-.238 1.199-.355 2.43-.545 3.66-.735 1.598-.248 3.195-.494 4.719-1.102.604-.24 1.253-.219 1.91-.198.664.021 1.336.042 1.973-.207.12-.047.402.101.493.236.685 1.014 1.655.89 2.61.768.084-.011.168-.022.252-.031 2.992-.354 5.954-.874 8.902-1.484 1.094-.227 2.2-.312 3.319-.198 1.328-.475 2.729-.485 4.099-.496.232-.001.464-.003.695-.007.659-.011 1.319-.069 1.98-.126 1.52-.133 3.043-.265 4.555.162.248-.135.497-.16.75-.015l.001.001c1.287-.261 2.584-.22 3.881-.179.982.031 1.964.062 2.942-.038.401-.041 1.006-.072.973.363-.027.359.147.653.316.938.2.337.392.663.234 1.068-.191.492-.713.476-1.172.461h-.03c-1.224-.04-2.433.109-3.64.257-.278.034-.555.068-.833.1-.978.112-1.979.25-2.656 1.06-.243.292-.389.237-.621.151-.046-.017-.096-.036-.15-.053-1.398-.437-2.779-.358-4.225-.009-1.448.35-2.976.432-4.475.492a51.645 51.645 0 00-12.889 2.176c-1.305.394-2.622.719-3.98.875-.647.075-1.318.168-1.916.41-1.654.664-3.38 1.074-5.106 1.483-1.425.339-2.85.677-4.237 1.159-.316.11-.632.215-.948.319-1.076.357-2.143.71-3.152 1.27-.634.351-1.367.274-2.09.199-.201-.021-.402-.042-.599-.054l.001-.002-.002.001c-1.161-.02-2.18.423-3.201.867-.576.251-1.153.502-1.757.67-1.694.471-3.303 1.175-4.914 1.88-1.885.825-3.773 1.652-5.805 2.106-.52.117-1.036.151-1.549.186-.456.03-.909.061-1.36.148-2.788.538-5.611.811-8.435 1.083-1.642.159-3.284.317-4.919.528l-.817.106c-2.769.363-5.597.734-8.431.42l-.513-.06c-1.293-.153-2.582-.306-3.879.106-.247.077-.65-.045-.88-.328l.001-.001h-.002l.057-.038c-3.897.797-7.815 1.363-11.808 1.412-5.289.068-10.577.198-15.861.394-.957.036-1.899-.068-2.841-.171-1.064-.117-2.128-.234-3.216-.152-.326.025-.654.061-.983.097-1.274.14-2.57.282-3.842-.222-.385-.151-.747.133-.967.51-.211.353-.504.362-.833.176-1.058.32-1.595 1.217-2.096 2.056l-.048.08c-1.202 2.02-2.558 3.929-3.916 5.841l-.082.116-1.687 2.166-1.687 2.165c-.566.728-1.093 1.476-1.155 2.525.763.383 1.586.537 2.427.633l-.001.001h.002c2.561-.212 5.089-.643 7.617-1.075 1.822-.31 3.645-.621 5.479-.85 1.088-.135 2.173-.296 3.26-.456 2.838-.419 5.677-.838 8.559-.817.411.003.791-.086 1.17-.175.251-.059.502-.118.76-.149 6.182-.76 12.388-1.217 18.599-1.608.49-.441 1.069-.409 1.639-.378.196.011.392.022.582.013.984-.048 1.953-.214 2.922-.38 1.155-.197 2.31-.395 3.49-.392.529-.283 1.062-.174 1.599-.065l.168.034c4.925-.724 9.86-.908 14.813-.252.3.04.606.047.911.054.145.003.29.006.433.013 1.609.019 3.222.038 4.83.059.284.003.439.195.594.387l.025.031c1.401-.562 2.775-.571 4.105.215 1.346-.266 2.694-.177 4.041-.087.981.065 1.961.13 2.941.058.315-.023.634-.025.952-.028.538-.005 1.075-.01 1.594-.11.153-.03.33-.018.512-.007.532.035 1.104.072 1.217-.902.031-.284 1.161-.264 1.817-.24 2.798.102 5.569-.162 8.317-.708.593-.117 1.143-.325 1.698-.535l.341-.128c.162-.059.323-.137.486-.216.538-.259 1.092-.526 1.735-.166.328.019.639-.105.95-.229.476-.19.951-.379 1.486-.053-.201-.393-.213-.784.258-.939a4.312 4.312 0 011.35-.203c1.337-.002 2.675.017 4.013.036l1.39.019a28.143 28.143 0 011.678-.255c1.574-.208 3.15-.416 4.543-1.345.199-.13.526-.189.76-.133 1.295.308 2.59.181 3.88.055.54-.053 1.079-.106 1.617-.127 2.801-.111 5.581-.591 8.335-1.149l.112-.023c.404-.088.546-.118.787.453.383.909 1.45.795 2.272.694 1.064-.125 2.095-.035 3.126.158.077.014.162.025.25.035.449.056.968.121.923.723-.047.68-.483 1.242-1.295 1.23a37.219 37.219 0 01-.67-.016c-.887-.025-1.773-.05-2.663.126-.256.051-.522.062-.787.073-.687.029-1.369.058-1.861.778-.134.197-.407.177-.674.158-.089-.006-.178-.012-.26-.011-2.733.053-5.375.638-8.016 1.222a95.503 95.503 0 01-3.378.705c-.381.07-.713.275-1.044.478-.506.313-1.009.622-1.679.439l-.167.066-.917.359c-.406.126-.779.343-1.152.56-.667.388-1.335.776-2.19.643l-.067.015c-.677.535-1.468.649-2.3.633l-.405.172c-.902.334-1.821.571-2.79.57a522.749 522.749 0 01-8.637 2.125c-.972.233-1.944.466-2.916.702-1.178.284-2.366.538-3.556.792-1.299.278-2.601.555-3.891.874-.167.041-.35.021-.533.001-.084-.009-.168-.019-.25-.022-.109.057-.22.133-.331.208-.243.166-.487.332-.707.306-2.221-.265-4.189.494-6.15 1.25-.749.289-1.496.577-2.257.808-2.056.625-4.135 1.094-6.229 1.534-2.506.503-5.044.798-7.581 1.094l-.584.068c-1.624.188-3.24.324-4.873.349a95.985 95.985 0 00-3.941.164c-1.36.075-2.719.15-4.083.166a323.39 323.39 0 01-17.864-.297c-.633-.027-1.248.039-1.862.105-.546.059-1.091.118-1.645.11a428.356 428.356 0 00-5.196-.027c-3.447-.004-6.893-.009-10.334-.176-.687-.034-1.375-.062-2.064-.091-3.354-.138-6.718-.277-10.028-.967-.277-.058-.554-.125-.831-.191-.741-.178-1.483-.356-2.226-.371-1.264-.026-2.521-.162-3.778-.297-1.912-.206-3.823-.412-5.755-.233-.44.508-.96.666-1.586.363l-.423.105c-.025.035-.054.07-.083.104a.668.668 0 00-.143.215c-.596 1.822-1.75 3.285-2.905 4.749-.653.828-1.307 1.656-1.86 2.55-1.086 1.752-2.425 3.348-3.763 4.943a99.437 99.437 0 00-1.723 2.091 3.633 3.633 0 00-.115.214c-.079.157-.159.315-.278.435-.633.639-.388.917.382.871a41.824 41.824 0 002.312-.22c.312-.035.623-.071.935-.103.166-.041.32-.13.475-.218.321-.183.642-.366 1.06-.13l.024.003c3.915-.676 7.821-1.216 11.824-1.313.568-.015 1.14-.015 1.715-.016 2.288-.003 4.609-.006 6.814-.867.102-.04.237-.001.372.039.066.019.132.039.195.049.523.061 1.046.135 1.569.209 2.071.292 4.142.584 6.246.1.336-.076.675-.139 1.014-.202.501-.094 1.002-.187 1.49-.323 2.657-.74 5.333-.824 8.084-.666 1.781.102 3.574-.005 5.367-.111.775-.047 1.551-.093 2.325-.122.11-.004.22-.014.329-.024.413-.037.823-.075 1.205.186 1.841-.333 3.701-.332 5.562-.325h.002c.869-.132 1.741-.092 2.611-.051.29.013.58.026.87.033.141.003.282.007.424.009v-.001l.007-.001c.125-.06.173-.057.179-.019 1.831-.235 3.641.045 5.432.323.342.053.683.105 1.023.154 1.588.228 3.175.29 4.76.352.723.029 1.445.057 2.167.101 1.517.093 3.036.142 4.556.191 2.582.083 5.165.166 7.735.469.701.082 1.334.368 1.967.654.543.246 1.086.492 1.673.609 1.133.105 2.269.118 3.407.13 2.014.022 4.029.044 6.031.582 2.251.606 4.536 1.082 6.82 1.559 1.354.283 2.709.565 4.056.875l.383.087c.953.215 1.92.433 2.754 1.006l.002.001c2.924.677 5.848 1.356 8.771 2.034l1.732.402.005.003.002.001-.008-.007c1.138.353 2.303.592 3.469.831 1.452.297 2.903.595 4.301 1.112.755.113 1.459.386 2.164.659.205.08.41.159.616.235.782.12 1.499.43 2.215.74.301.13.601.259.905.375.638-.054 1.2.069 1.59.632l.555.18c.422.138.843.275 1.266.41.582.184.611.574.404 1.056-1.037.945-2.298 1.28-3.657 1.254-1.314-.029-2.632.003-3.947.035-1.561.038-3.118.076-4.663.012-.579-.023-1.16-.04-1.741-.057-2.152-.063-4.32-.126-6.464-.534a81.516 81.516 0 00-11.513-1.336c-1.939-.089-3.876-.219-5.813-.349-2.223-.149-4.445-.298-6.669-.385-2.613-.102-5.24-.022-7.852.126a18.598 18.598 0 01-3.331-.136 16.56 16.56 0 00-5.072.138c-2.077.388-4.173.571-6.269.754-1.03.09-2.061.18-3.089.294-1.425.16-2.844.358-4.257.597-1.377.234-2.724.038-4.07-.158-.854-.124-1.707-.249-2.567-.263-2.273-.038-4.554-.017-6.822.121-1.39.083-2.767-.058-4.11-.206-2.614-.284-5.206-.082-7.782.118l-.811.063c-2.894.218-5.702.062-8.577-.256a103.016 103.016 0 01-3.455-.462c-1.689-.245-3.377-.489-5.082-.611-.991-.072-1.975-.307-2.951-.54l-.478-.114-.385-.09c-4.021-.94-8.038-1.878-12.116-2.568-.816-.138-1.628-.374-2.443-.612-.767-.223-1.538-.447-2.321-.592-.194-.036-.386-.077-.579-.118-.822-.173-1.64-.346-2.519-.151-.695.152-1.248-.203-1.799-.556-.224-.143-.447-.287-.68-.396l.002-.003-.002.002-.002.001a6.75 6.75 0 00-.886.033c-.748.061-1.497.123-2.196-.45-.266-.216-.491-.036-.725.151-.143.114-.289.231-.449.261-2.798 4.492-6.246 8.475-9.695 12.459l-.63.728a30.05 30.05 0 00-1.233 1.56 65.27 65.27 0 01-.563.737l-.001.004s.001-.002.003-.002c.181.568.458.81 1.153.709.774-.113 1.558-.178 2.341-.243 1.113-.093 2.225-.186 3.31-.416 4.292-.912 8.538-.784 12.843-.052 1.207.204 2.451.184 3.696.165a38.358 38.358 0 011.978.002c.611.021 1.226.011 1.84.002 1.859-.03 3.719-.059 5.488.761l.262-.046c.912-.165 1.822-.329 2.732.062.56-.271 1.147-.244 1.737-.147l2.981.143.596.028c.192-.025.383-.056.575-.088.885-.146 1.77-.293 2.628.23 4.368-.321 8.675-.039 12.857 1.402l.01-.001c.092-.056.183-.116.274-.175.501-.328 1.001-.655 1.673-.345.087.015.176.025.264.034.285.03.568.059.793.284.971.034 1.885.178 2.843.517.788.274 1.672.207 2.553.14.322-.024.644-.049.961-.056 2.519-.063 5.022.161 7.454.884.279.067.571.071.864.075.554.009 1.108.017 1.571.447l.022.01c.387-.057.763-.075 1.057.25.422-.647.994-.588 1.61-.328.901-.153 1.71.133 2.519.42.282.1.565.201.852.282v.002c1.565-.248 3.033.125 4.539.525 1.743.466 3.535.568 5.327.67 1.066.061 2.133.122 3.19.26.27.035.545.047.821.059.701.029 1.403.059 2.029.48a.426.426 0 00-.066.229l.023-.079c.015-.049.03-.098.043-.15l.19-.014.196-.014.001.001h.002c.288-.069.528.045.767.159.076.036.151.072.227.102a3.64 3.64 0 00.159-.069c.259-.12.518-.239.786.051.966.278 1.96.412 2.953.546 1.14.154 2.281.307 3.38.679 1.566-.343 3.131-.124 4.699.094 1.772.248 3.547.495 5.33-.067.217-.069.471.063.751.208.232.12.48.248.739.28 1.134.134 2.259.338 3.384.542.428.077.856.155 1.285.229h.001c.895-.456 1.841-.406 2.786-.357.227.012.455.024.682.029v.001l.35-.033c3.774-.358 7.547-.715 11.283.397.134.041.271.102.409.165.5.225 1.014.456 1.483-.305.085-.137.534-.083.855-.044l.089.01c.904.11 1.816.153 2.729.196 1.958.092 3.916.184 5.789.937.256.103.534.097.813.091.374-.009.751-.017 1.079.237.342-.023.673.06.911.29l.037.036c.265.259.568.556.452.973-.132.473-.599.499-.977.489a39.04 39.04 0 01-2.241-.134l-.516-.041c-4.514-.346-9.018-.57-13.543.036-3.927.524-7.866.972-11.805 1.419-1.603.182-3.205.364-4.806.552-.412.047-.817.141-1.222.235-.681.158-1.363.316-2.078.252-.065-.008-.163-.018-.191.019-.819 1.039-1.943 1.104-3.066 1.169-.802.046-1.604.093-2.295.493-.216.123-.536.193-.768.134-1.783-.443-3.428.052-5.071.546-.359.108-.718.216-1.078.314-1.348.368-2.682.407-4.082.269-3.303-.329-6.639-.392-9.801.766-1.147.42-2.266.335-3.382.25-.561-.043-1.121-.085-1.684-.063-.486.018-.973.05-1.461.082-1.406.091-2.816.183-4.225-.037-.209.16-.423.263-.711.254a120.6 120.6 0 01-.85-.027c-1.534-.053-3.068-.105-4.604.103-.398.053-.826-.052-1.242-.154-.1-.025-.2-.049-.298-.071-.247-.056-.484-.188-.72-.319-.569-.317-1.139-.635-1.854.1-.195.199-.751-.076-1.167-.281a5.453 5.453 0 00-.109-.054c-.945-.462-1.95-.479-2.97-.497l-.442-.008c-1.258-.035-2.5.063-3.745.16-.468.037-.937.074-1.407.104-.495.031-.987.031-1.48.032-.836.001-1.676.002-2.54.151-1.387.241-2.996.483-4.38-.402a9.79 9.79 0 01-3.456-.46c-3.399-1.081-6.897-1.606-10.447-1.736-.282-.011-.522-.143-.758-.272-.325-.179-.643-.354-1.052-.197-.593.445-1.198.314-1.804.184-.288-.063-.577-.125-.864-.125-1.023.404-2.017.167-2.999-.068-.28-.066-.558-.133-.836-.184-.171-.032-.341-.073-.512-.114-.397-.095-.796-.19-1.206-.173-2.785.116-5.317-.86-7.828-1.827-.211-.081-.421-.163-.632-.243a23.765 23.765 0 00-1.555-.514c-.711-.217-1.42-.434-2.099-.74-.505-1.034-1.408-1.593-2.462-1.834-2.85-.649-5.553-1.718-8.254-2.786-1.532-.606-3.063-1.211-4.622-1.74-.54.008-1.014-.207-1.482-.446-.985-.061-1.764.439-2.35 1.108a310.083 310.083 0 00-4.315 5.057c-.565.672-1.131 1.344-1.698 2.014-.772 1.266-1.733 2.375-2.752 3.447-.421.441-.939.994-.03 1.515v-.001l.784.1h-.001l2.174-.065c2.119-.064 4.238-.129 6.355-.165.893-.017 1.833.111 2.662.294 2.554.575 5.128.545 7.7.514 1.794-.021 3.586-.042 5.369.142.104.011.21.015.317.018.41.015.827.03 1.115.438l.311.011c.731.022 1.463.045 2.057.6.16.151.397.257.524.134.81-.768 1.631-.529 2.45-.29.348.101.696.203 1.042.227.559.038 1.118.085 1.677.133.481.041.963.081 1.445.116 3.546.255 7.018 1.073 10.361 2.131.373.118.749.233 1.126.35 2.546.786 5.135 1.585 7.414 3.075.216.143.476.292.724.308 1.724.105 3.085.984 4.446 1.863.446.288.891.576 1.35.836a11.372 11.372 0 003.323 1.235 46.01 46.01 0 018.074 2.452c1.437.584 2.824 1.29 4.211 1.996a75.478 75.478 0 003.078 1.509c1.181.535 2.238 1.258 3.295 1.98.718.491 1.436.981 2.192 1.413.333.19.669.378 1.005.566 1.604.898 3.222 1.804 4.608 2.968.689.578 1.465 1.012 2.237 1.444.975.545 1.945 1.088 2.728 1.914 2.04.558 3.623 1.885 5.18 3.19.175.147.35.294.525.439 1.05.872 2.087 1.489 3.414 1.653v.003l-.001.002.003-.003.077.067c1.973 1.726 3.943 3.449 6.388 4.535.54.239 1 .681 1.448 1.11l.229.219c.777.726 1.597 1.404 2.418 2.082 1.435 1.186 2.871 2.372 4.072 3.819 1.023 1.233 2.177 2.335 3.331 3.438.443.423.886.847 1.322 1.278.825.813 1.55 1.729 2.275 2.646.324.41.649.821.983 1.222.165.244.365.474.565.704.642.736 1.284 1.474.75 2.668-.07.719-.345 1.194-1.17 1.294a72.887 72.887 0 00-4.229.669l-.26.045c-.561.096-1.15.197-1.593.49-.725.478-1.415.586-2.189.324-.506-.172-.982-.064-1.458.043-.287.065-.573.13-.865.133-1.777.34-3.512.339-5.127-.639-1.926.137-3.786-.302-5.624-.736-.294-.069-.588-.139-.881-.206a50.824 50.824 0 00-4.237-.744c-1.827-.251-3.532-.894-5.236-1.536-1.172-.442-2.344-.884-3.555-1.198-.225-.059-.45-.121-.675-.182a61.18 61.18 0 00-.458-.125c-.757.204-1.456-.01-2.153-.224a15.491 15.491 0 00-.508-.15c-2.24.05-4.358-.522-6.482-1.095a95.503 95.503 0 00-1.571-.414c-8.532-2.143-17.087-4.199-25.757-5.725-.986-.173-1.913-.502-2.84-.831-.357-.127-.713-.254-1.073-.372-3.028-.99-6.143-1.643-9.26-2.295-3.179-.664-6.32-1.483-9.461-2.315-3.74-.99-7.361-2.301-10.984-3.612l-1.325-.479c-1.835-.661-3.615-1.484-5.392-2.306-.487-.226-.974-.451-1.461-.673a15.868 15.868 0 00-4.907-1.348c-.944-.102-1.784-.397-2.464-1.066-.24-.238-.497-.419-.821-.514-2.016-.617-3.939-1.468-5.861-2.32-1.623-.719-3.245-1.438-4.924-2.015-3.107-1.065-6.151-2.286-9.182-3.536-.416-.171-.791-.389-1.165-.608-.172-.1-.343-.199-.519-.295-1.024.484-1.83-.035-2.586-.521a7.511 7.511 0 00-.66-.395c-1.014-.515-1.609-.282-2.162.393-.89 1.085-1.881 2.072-2.871 3.06-1.038 1.036-2.076 2.071-3.001 3.22-.595.736-1.268 1.406-1.943 2.077-.811.806-1.623 1.614-2.302 2.541-.026.268-.266.45-.508.634-.405.308-.817.622-.254 1.347.079.102-.048.081-.2.056-.103-.017-.217-.036-.287-.02-.642.15-.841.528-.595 1.141 1.533-.483 3.077-.899 4.712-.782.997-.271 1.988-.144 2.978-.018.301.039.602.077.903.104l1.636.152c2.705.253 5.409.507 8.126.543.116.001.233.073.35.144.047.028.095.057.142.081.711-.384 1.428-.214 2.144-.011 1.299.039 2.573.086 3.806.669.873.416 1.892.349 2.834.287l.266-.017c1.763-.108 3.426.261 5.105.634l.299.066 2.466.548 1.699.378v.001l.954.397 1.42.589c.586-.217 1.332-.3 1.677.138.61.772 1.405.873 2.202.975.316.04.632.08.937.162.88.456 1.793.82 2.775 1.006.84.158 1.612.472 2.347.949l.069.045c.765.501 1.517.994 2.62.666.456-.138.888.142 1.332.429.264.171.532.344.812.435l.388.126c1.926.626 3.855 1.253 5.595 2.335.768.476 1.625.742 2.477 1.006l.419.13c1.122.357 2.042 1.044 2.962 1.73.531.396 1.062.792 1.632 1.125a66.816 66.816 0 002.829 1.542c.95.498 1.9.996 2.825 1.54.152.089.307.172.462.255.481.257.958.512 1.322.941.704-.151 1.139.252 1.573.655a10.373 10.373 0 00.25.228v-.002c4.144 2.437 7.891 5.327 10.718 9.291 1.683 2.36 4.053 3.819 6.548 5.217 1.266.712 2.561 1.377 3.856 2.042 2.952 1.516 5.904 3.032 8.515 5.104.359.285.795.262 1.201.241.516-.027.983-.052 1.174.567.27.873.882 1.263 1.515 1.667.115.074.232.148.346.225.231.155.459.317.686.479.47.334.939.669 1.441.94.647.349.873.91 1.101 1.518.737-.322 1.172.141 1.59.63.018.02-.024.121-.064.157a.309.309 0 01-.121.057l-.058.02c2.359.665 4.07 2.299 5.758 3.913l.293.279c.808.77 1.655 1.498 2.5 2.224 1.04.895 2.078 1.787 3.04 2.753 1.869 1.875 3.777 3.795 4.735 6.377.029.079.067.156.105.232.051.102.102.204.13.312.109.385.167.8-.214 1.065-.32.219-.637.011-.904-.164l-.004-.003c-1.311-.86-2.54-1.844-3.617-2.966-1.933-2.005-4.155-3.634-6.379-5.264-.762-.559-1.524-1.117-2.275-1.691-.527-.403-1.038-.825-1.551-1.248-.746-.617-1.495-1.234-2.295-1.794-1.127-.784-2.345-1.38-3.565-1.975-.308-.151-.617-.302-.924-.456-.104.425.172.558.434.684.082.039.163.078.23.125.915.639 1.837 1.27 2.76 1.9.91.622 1.821 1.244 2.725 1.876.08.055.162.108.246.162.398.255.823.528 1.07 1.17-1.419-.372-2.528-1.115-3.589-1.826a18.02 18.02 0 00-.176-.118c-1.643-1.099-3.233-2.277-4.823-3.455a247.268 247.268 0 00-2.281-1.677 6.14 6.14 0 00-.369-.24c-.427-.262-.852-.523-.976-1.093-1.538-.452-2.91-1.255-4.275-2.054a80.475 80.475 0 00-1.015-.587c-5.675-3.211-11.439-6.246-17.398-8.898a73.217 73.217 0 00-2.198-.59c-1.655-.426-3.311-.853-4.856-1.529-2.436-1.069-4.939-1.968-7.427-2.862l-1.528-.551c-1.9-.69-3.781-1.427-5.661-2.164-1.902-.745-3.804-1.491-5.725-2.186-.409-.149-.82-.294-1.232-.439-2.168-.765-4.351-1.535-6.33-2.774a5.769 5.769 0 00-2.215-.811c-1.945-.264-3.748-.948-5.555-1.632a98.623 98.623 0 00-1.373-.512 527.681 527.681 0 00-6.672-2.353c-.999-.348-1.998-.695-2.996-1.045l-.1-.035c-.465-.16-.937-.324-1.006-.939l-.007-.004c-1.375.356-2.621.248-3.547-.995a57.362 57.362 0 01-6.852-2.253c-.966-.384-1.939-.755-2.911-1.126-2.256-.861-4.511-1.722-6.689-2.749-1.046-.493-2.119-.903-3.19-1.312-.987-.377-1.973-.754-2.935-1.195a57.214 57.214 0 01-.755-.353c-1.511-.716-3.017-1.429-4.77-1.427-.227.001-.456-.172-.685-.345a3.524 3.524 0 00-.32-.225v-.001l-.001-.002c-1.704 1.166-3.161 2.602-4.62 4.04-.478.471-.956.943-1.442 1.405-1.722 1.633-3.461 3.253-5.235 4.907-.786.732-1.578 1.47-2.38 2.22.571.466 1.218.51 1.846.552.461.031.912.062 1.316.259.454-.212.907-.315 1.346.045l.073-.028c.277-.105.559-.211.837.028l.001-.001c.147.015.302-.021.457-.058.338-.08.675-.16.923.293l.393-.037c.483.077.976.091 1.47.104 1.042.028 2.083.057 3.02.683.195-.095.319-.022.401.163.091-.053.132-.167.172-.28.07-.192.138-.383.449-.267 1.161.435 2.376.558 3.59.681 1.014.102 2.028.205 3.01.489.962.205 1.927.399 2.891.594 2.87.578 5.74 1.156 8.544 2.027a.016.016 0 00.007.004l.006.003 2.977.932 1.446.453c.076.024.153.045.23.067.35.098.701.195.937.519.108-.029.172.013.191.122l.002.001c.523.033 1.04.09 1.481.411.473-.144.839.065 1.183.346.854-.15 1.549.251 2.242.652 1.185.233 2.358.52 3.53.806.779.191 1.558.381 2.34.555 1.748.389 3.488 1.214 4.985 2.216.788.528 1.646.886 2.505 1.245.993.414 1.985.829 2.867 1.504 1.689 1.291 3.559 2.298 5.433 3.306 1.202.648 2.407 1.296 3.565 2.02 1.417.886 3.055 1.786 4.795 2.124 1.437.28 2.559 1.016 3.485 2.049 1.396 1.554 2.906 2.946 4.795 3.868.566.274 1.159.655 1.184 1.222.051 1.089.728 1.388 1.545 1.735l.14.06c1.759.751 3.515 1.5 5.014 2.758.42.352.937.527 1.463.704.407.138.819.277 1.195.502 1.058.633 2.193 1.113 3.329 1.594 1.057.448 2.116.896 3.116 1.468.305.174.667.195 1.036.216.486.027.983.056 1.374.437 3.824 1.094 7.55 2.469 11.299 3.853 2.7.997 5.412 1.999 8.182 2.903-1.764.765-1.814.756-3.227.515l-.135-.023c-4.864-.826-9.601-2.155-14.281-3.697-.051-.017-.106-.041-.163-.065-.145-.063-.297-.128-.388-.083-1.165.589-2.222.205-3.279-.179-.576-.209-1.153-.419-1.748-.471-1.709-.151-3.446-.66-5.144-1.157-.251-.073-.5-.147-.749-.218-2.355-.678-4.744-1.181-7.133-1.684-1.213-.256-2.427-.511-3.636-.79-1.841-.424-3.691-.813-5.54-1.203-3.491-.734-6.981-1.469-10.417-2.437-1.543-.433-3.061-.949-4.58-1.464a133.9 133.9 0 00-3.083-1.019c-1.418-.443-2.842-.868-4.266-1.293-2.022-.603-4.044-1.206-6.048-1.862l-.775-.253c-3.418-1.116-6.844-2.235-10.171-3.596a348.307 348.307 0 01-4.443-1.865c-1.111-.472-2.221-.944-3.332-1.406-2.43-1.012-4.713-2.232-7.004-3.485-.445-.244-.932-.374-1.422-.504a9.473 9.473 0 01-.99-.302c-3.755-1.462-7.15-3.557-10.554-5.657l-1.175-.724a99.825 99.825 0 00-1.72-1.024c-1.753-1.026-3.504-2.051-5.034-3.419-.124-.112-.244-.228-.366-.345l-.205-.198c-2.067-.742-3.861-.835-5.549 1.094-1.855 2.122-4.02 3.924-6.184 5.726-1.188.989-2.375 1.978-3.512 3.019l-.015.014c-.242.223-.47.433-.506.874.82.602 1.784.721 2.75.84.606.075 1.213.15 1.787.344 3.83.251 7.546 1.098 11.277 1.947l.34.078.563.128c1.438.329 2.892.661 4.36.874.701.105 1.406.303 1.953.826v.002c.265-.038.435.092.55.314.054.007.109.013.164.018.308.032.614.063.829.347.143.006.294-.003.444-.012.327-.019.655-.037.91.089 1.399.688 2.892 1.055 4.385 1.421.673.165 1.347.331 2.011.525 2.088.611 4.111 1.389 6.134 2.167 1.277.491 2.554.982 3.847 1.431.987.343 1.99.646 3.039.814 1.035.166 1.997.576 2.907 1.178 1.175.78 2.481 1.287 3.789 1.796.843.327 1.686.655 2.496 1.056.278.139.566.261.854.383l.407.175h.002l-.002-.001c.109-.034.175-.129.242-.225.104-.149.209-.301.479-.231.352.088.321.291.291.494-.013.089-.027.178-.007.256a3.065 3.065 0 011.631.619l.89.346c1.301.506 2.602 1.012 3.903 1.516 3.171 1.584 6.295 3.242 8.934 5.671.448.059.736.352 1.023.644.069.071.139.141.21.209 1.649.922 3.369 1.697 5.089 2.472 1.495.674 2.989 1.348 4.438 2.118 1.178.623 2.159 1.43 3.127 2.275 1.128.984 2.319 1.809 3.669 2.478 1.191.587 2.164 1.488 3.137 2.389.375.348.751.696 1.139 1.026 1.396.414 2.625 1.164 3.829 1.948.857.558 1.753 1.061 2.646 1.562.989.555 1.973 1.107 2.895 1.729 1.245.837 2.582 1.43 3.916 2.022.943.418 1.883.835 2.789 1.337l1.776.984a637.79 637.79 0 014.897 2.728c.435.245.897.446 1.36.647.91.395 1.824.792 2.536 1.527l4.256 2.593 2.195 1.338c-.428.594-.877.665-1.33.535-.471-.134-.944-.258-1.417-.382-1.484-.388-2.966-.777-4.366-1.472-2.818-1.402-5.719-2.626-8.629-3.836-2.063-.859-4.182-1.539-6.301-2.219a144.321 144.321 0 01-3.389-1.117c-.811-.28-1.618-.558-2.418-.865a2.297 2.297 0 01-.353-.186c-.224-.135-.448-.271-.726-.237-2.287.285-4.169-.7-6.04-1.679-.604-.316-1.206-.631-1.821-.903-.597-.264-1.192-.531-1.788-.798-3.281-1.469-6.556-2.936-10.027-3.956-1.992-.585-3.925-1.396-5.845-2.202l-.232-.098c-2.089-.876-4.254-1.508-6.418-2.139-1.355-.395-2.709-.791-4.044-1.246-1.382-.47-2.777-.907-4.172-1.343-3.101-.97-6.202-1.94-9.155-3.286-1.459-.665-2.964-1.017-4.468-1.369-.563-.132-1.126-.264-1.687-.412-1.625-.432-3.123-1.13-4.617-1.827-.277-.129-.553-.258-.83-.385-1.62-.747-3.311-1.155-5.025-1.518-1.209-.256-2.196-.808-3.229-1.506-1.136-.769-2.475-1.256-3.793-1.735a237.646 237.646 0 01-.939-.343c-.832-.302-1.63-.591-2.175-1.379-.283-.408-.735-.552-1.183-.694a8.087 8.087 0 01-.362-.122c-.946-.351-1.795-.823-2.357-1.697-.724.05-1.202-.359-1.636-.859-1.067-.251-1.979-.816-2.889-1.379a22.957 22.957 0 00-1.125-.669c-1.255-.685-2.523-1.347-3.792-2.01-3.156-1.646-6.313-3.294-9.264-5.307-.431-.293-.907-.503-1.382-.713-.648-.285-1.293-.57-1.823-1.064l-.001-.001v-.001l-.001.002c-.243-.027-.39-.204-.538-.382-.172-.207-.344-.414-.669-.382-1.496 1.44-2.992 2.879-4.491 4.318-.152.17-.343.298-.533.426-.291.196-.583.391-.737.735-.091.44-.441.576-.792.712l-.066.026-.315.286c-.195-.022-.384-.03-.575-.04.148.108.321.158.575.04-.633.774-1.421 1.365-2.21 1.957a27.99 27.99 0 00-1.024.794c-1.264 1.041-1.258 1.048-.122 2.297l.013.014c.116.129.201.289.286.449.039.072.078.145.119.214 1.58.785 2.963 1.791 4.166 3.12.596.661 1.347 1.158 2.102 1.658.439.291.879.582 1.291.907.793.627 1.55 1.294 2.306 1.961.847.746 1.693 1.492 2.588 2.18.134.104.218.275.302.445.037.074.074.148.115.217.425-.056.572.237.721.534l.024.047c.153.142.317.273.482.403.47.372.939.744 1.115 1.379.275.581.651 1.101 1.028 1.622.508.703 1.016 1.406 1.275 2.256 1.911 1.235 3.329 2.895 4.167 5.005 1.168 2.944 2.827 5.607 4.646 8.169.337.476.57.996.801 1.512.193.429.384.856.633 1.254.581.924 1.182 1.836 1.783 2.747.87 1.321 1.741 2.641 2.548 3.999.692 1.164 1.289 2.384 1.887 3.604.286.582.571 1.165.867 1.741.232.455.454.916.677 1.378.548 1.136 1.095 2.272 1.79 3.306.564.835 1.309 1.55 2.052 2.263.302.29.604.579.893.876.649.67 1.074 1.48 1.499 2.289.365.695.73 1.39 1.236 1.995.187 2.719 1.821 4.593 3.449 6.46.418.479.835.958 1.228 1.45.789.989 1.87 1.635 2.947 2.28.382.229.764.457 1.132.701l.049.032c.389.257.717.475.819.949.484.146.906.387 1.172.841.663-.162 1.037.21 1.333.727.51.119.771.504 1.031.889.132.193.263.386.425.545l.195.193c.584.577 1.157 1.144 1.947 1.421.692.241 1.045.665.994 1.392-.366-.121-.737-.225-1.108-.33-.592-.166-1.185-.332-1.764-.572-.597-.248-1.242-.274-1.894-.301-.604-.024-1.212-.049-1.793-.25-.062-.021-.124-.04-.185-.059-.374-.114-.711-.218-.787-.7a.577.577 0 00.096-.155c-.013.02-.023.039-.034.058-.018.031-.035.062-.062.097-.905-.6-1.937-.671-2.972-.742h-.006c-1.243.744-1.824-.002-2.406-.749-.135-.173-.27-.347-.414-.501-1.499-.846-2.657-2.071-3.815-3.296-.719-.76-1.438-1.521-2.24-2.192a11.394 11.394 0 01-.387-.346c-.302-.278-.605-.557-.964-.752-2.34-1.284-4.219-3.11-6.099-4.936-.727-.705-1.454-1.411-2.207-2.086-1.183-1.06-2.232-2.25-3.28-3.439-1.058-1.199-2.115-2.397-3.306-3.459-1.876-1.677-3.361-3.665-4.845-5.652-.746-.998-1.491-1.996-2.286-2.954-1.465-1.77-2.683-3.857-3.364-6.183-.358-1.226-.997-2.431-1.76-3.463-1.032-1.405-1.861-2.923-2.69-4.442-.581-1.064-1.162-2.128-1.813-3.153-2.336-3.679-4.666-7.335-7.466-10.697-2.015-2.417-3.678-5.107-4.869-8.043-.202-.501-.52-.917-.837-1.332-.24-.314-.48-.628-.669-.977-.08 0-.169-.009-.259-.019-.199-.022-.399-.044-.506.047-.755.62-1.566 1.163-2.377 1.707-1.075.72-2.151 1.441-3.1 2.343-.977.93-2.007 1.861-3.352 2.288-.785.985-1.7 1.828-2.779 2.493-.104.105-.207.211-.31.318-1.61 1.515-3.424 2.752-5.24 3.99-.336.229-.673.459-1.009.69-2.043 1.41-4.004 2.94-5.929 4.506-2.112 1.715-4.266 3.367-6.533 4.873-.67 1.007-1.689 1.546-2.703 2.084-.487.258-.973.515-1.419.823-.702.486-1.371 1.021-2.039 1.555-1.076.861-2.15 1.719-3.358 2.37-2.013 1.086-3.756 2.525-5.498 3.963-1.229 1.014-2.458 2.029-3.78 2.918-.719.48-1.252 1.099-1.785 1.784zm167.475-18.544a1.72 1.72 0 00.081-.496c.029.188.047.373-.081.496zm-68.495-224.819l-.063.037c-.167.099-.352.209-.393.372.139-.159.287-.303.456-.409zm-61.689 201.285c-.078.202-.227.257-.375.21.129-.055.256-.121.375-.21zm-15.561-14.9l-.047-.015a1.394 1.394 0 00-.18-.05c.031-.039.077-.052.15-.002.026.018.047.039.07.058l.007.009zm-.227-.065c-.003.005-.007.008-.011.012a.08.08 0 00-.026.047c-.042.259-.176-.148-.031-.077a.136.136 0 01.036.009.15.15 0 00.032.009zm4.875-47.526l-.032-.042a.914.914 0 00-.042-.049l.082.121.013.019.041.059-.004-.013-.006-.016v-.001a.18.18 0 01-.008-.021 1.092 1.092 0 01-.044-.057zm17.086 20.101c-.041-.047-.079-.076-.119-.119.035.003.054-.018.081-.029l.01.038.008.03c.007.025.014.051.02.08zm-5.101-45.543c.043-.019.077-.022.119-.039l-.019-.016a.094.094 0 01-.025-.023l-.036.037-.039.041zm20.969-29.758l-.151-.079c-.147-.077-.295-.154-.441-.233.246-.101.442.072.592.312zm11.82 42.944c.025.097.053.197.089.3a.25.25 0 01-.089-.3zm-6.505-35.939l.039.067-.005.031-.003.017-.005.023-.011.033a.836.836 0 00-.009-.114l-.006-.057zm35.699 83.878a17.57 17.57 0 00-.012.085l.036-.008a2.2 2.2 0 01.111-.024l-.008-.021c-.035-.087-.071-.174-.104-.267a1.656 1.656 0 01-.023.235zm75.145 3.417c.223-.131.381-.074.531.157-.149-.047-.3-.091-.451-.134l-.08-.023zm14.157-1.78a1.792 1.792 0 01-.164-.309.473.473 0 01.164.309zM192.654 266.332l-.007-.015.029.01.016.006.045.015.014.005c-.019.014-.039.034-.058.05l-.03-.054-.009-.017zm8.59 31.701c-.052-.08-.057-.175-.016-.276.003.093.008.185.016.276zm-15.704-36.305a.2.2 0 00.025.001c.016-.001.031-.001.043.006a.218.218 0 00.142.033.333.333 0 00.005.023v.001l.002.007.002.012-.024-.003-.051-.004-.067-.004-.025-.002a.333.333 0 01-.024-.032c-.007-.01-.014-.021-.023-.031l-.005-.007zm1.595-.654a.382.382 0 00.074-.132l-.021.007-.027.01-.027.009-.05.016.051.09zm148.382 101.888l-1.329-1.031-.004-.003c-1.181-.916-2.361-1.831-3.538-2.752a15.751 15.751 0 01-.661-.554c-.374-.324-.747-.647-1.159-.907-1.489-.934-3.03-1.694-4.794-2.103-1.357-.314-2.672-.814-3.987-1.314h-.001a71.388 71.388 0 00-1.706-.632l-.343-.243c-1.659-1.18-3.319-2.36-5.444-2.584-1.616-1.273-3.5-1.96-5.384-2.647l-.001-.001h-.002l-.001-.001h-.002v-.001h-.002c-.67-.245-1.34-.489-1.999-.76-.288-.144-.583-.18-.887-.059a5.082 5.082 0 01-.116-.089c-.268-.209-.535-.418-.924-.25v.001l-.483-.069-.367-.052a3.077 3.077 0 01-.009-.238c-.003-.354-.006-.711-.52-.797-.365-.061-.399.156-.433.375-.022.141-.044.282-.155.35-.298-.943-.932-1.506-1.876-1.828-1.883-.642-3.68-1.488-5.478-2.335-.758-.356-1.516-.713-2.28-1.055a20.302 20.302 0 01-.303-.138c-.671-.309-1.352-.623-2.122-.643-1.037-.616-2.181-.919-3.326-1.223-.794-.21-1.588-.42-2.347-.735-2.528-1.046-5.187-1.599-7.914-1.797l.006-.021.001-.004a.08.08 0 00.006-.022c-2.723-.879-5.479-1.58-8.364-1.63-.288-.226-.622-.288-.97-.353l-.12-.023c-1.251-.235-2.505-.268-3.771-.221-1.307.048-2.612-.029-3.917-.105-1.465-.086-2.929-.172-4.396-.083a6.658 6.658 0 01-.72-.304 4.143 4.143 0 00-1.914-.286c-3.053.228-6.097.382-9.154.013a3.7 3.7 0 00-2.432.567.569.569 0 01-.064.066c-.018.018-.036.035-.053.054-.865-.075-1.709.066-2.554.208h-.003c-.273.046-.546.091-.821.13l-.102.014c-.8.114-1.699.243-2.022-.806a6.43 6.43 0 01.262-.034c2.069-1.636 4.034-3.431 5.615-5.51.508-.669 1.111-1.26 1.713-1.849 1.043-1.022 2.083-2.041 2.628-3.463a1.078 1.078 0 01-.212-.283.52.52 0 01.179-.028 6.831 6.831 0 012.902.172l.012.004c1.051.293 2.163.604 3.262.107l.041-.033.02-.016c.366.172.76.286 1.154.401.836.244 1.675.488 2.261 1.277.089.119.312.132.543.146.134.008.27.016.385.045.486.125.975.235 1.463.344 1.205.269 2.41.538 3.589 1.054.375.164.741.354 1.109.546.841.438 1.694.882 2.694 1.031.927.139 1.837.4 2.746.661.964.277 1.928.554 2.912.684.553.073.941.38 1.317.678.372.294.733.58 1.231.622l-.002.029c-.004.077-.008.155.006.259.101.172.221.344.398.426 5.358 2.554 11.079 3.976 16.785 5.395 1.023.254 2.046.509 3.067.769 1.424.365 2.868.659 4.312.954h.001v.001h.004c2.407.492 4.817.984 7.151 1.799.572.201 1.061.532 1.552.865.482.327.967.656 1.537.864 6.306 2.311 12.462 4.98 18.568 7.784.223.102.448.213.676.325v.001c1.23.607 2.541 1.254 4.029.783.064.062.122.127.169.203.585.553 1.247 1.008 2.02 1.209 2.489.648 4.954 1.377 7.416 2.114.763.227 1.525.447 2.318.209.295.404.751.575 1.204.745l.074.028c6.402 2.414 12.517 5.447 18.512 8.722.803.439 1.619.857 2.436 1.275 2.983 1.528 5.971 3.058 8.312 5.598.326.353.774.695 1.278.253.144 1.116-.696 1.307-1.462 1.398-.633.073-1.265.163-1.897.252v.001c-2.409.341-4.819.683-7.274.129l-.212-.048c-.798-.184-1.636-.378-2.4.129l-.076-.031c-.383-.393-.882-.428-1.378-.462l-.138-.01a1.19 1.19 0 00-.12-.001l-.052.001c-.256-.501-.051-.908.541-1.201a1.71 1.71 0 01.346-.112c.271-.067.554-.138.731-.474-1.415-.428-2.83-.484-4.226-.54-.61-.025-1.217-.049-1.82-.104a4.905 4.905 0 01-1.027-.492c-.542-.281-1.129-.366-1.717-.452-.255-.037-.51-.074-.761-.127l-.56-.12c-3.455-.737-6.881-1.469-9.823-3.755l-.087-.068-.105-.083-.171-.134c-1.323-1.045-2.761-2.18-4.7-1.941zM233.343 234.678c.105-.157.213-.207.337-.171a2.28 2.28 0 00-.337.171zm-3.435 25.293l.021-.025a.262.262 0 00.022-.025l.002-.004.001-.005.009.007a.106.106 0 00.011.009h-.018c-.001.042.011.076.01.117-.02-.023-.038-.05-.058-.074zm14.706 26.379l.071.221c.186-.266.191-.502.107-.726a3.397 3.397 0 00-.178.505zm-1.5 8.354a.873.873 0 00-.103-.001c.022-.063.03-.116.055-.182l.027.101v.001l.001.001v.001l.02.079zm90.044 9.433c-.162.013-.322.025-.483.05.136-.189.295-.211.483-.05zm-95.513-91.351c.035.003.067.017.103.017l-.014.021a.192.192 0 01-.013.017l-.019.027-.005.008-.006.008-.008-.018a6.094 6.094 0 01-.038-.08zm22.46-29.846c-.014.051-.029.101-.041.152.05-.068.1-.146.149-.222l-.023-.048-.016-.035-.018-.038c-.01.046-.022.091-.035.136l-.016.055zm6.837 32.107c.208.176.396.328.565.449l-.006-.001h-.007c-.354-.093-.61-.282-.552-.448zM418.51 251.85l-.148.046c.279.105.78.188.685-.219-.178.06-.358.116-.537.173zm-125.225-48.249c-.038.044-.076.09-.117.132l.016-.067.015-.059.027-.107.03-.119c.006.036.014.071.022.106l.004.017.007.028.002.012.008.04-.014.017zm-12.776 3.253l.021.047.016.036a1.68 1.68 0 01.474-.056l-.001-.005-.001-.006a.066.066 0 01-.004-.015c-.005-.029-.172-.034-.334-.038l-.056-.002-.047-.002-.057-.002-.032-.002.021.045zm3.281 9.143a.863.863 0 00.172.054c-.037.064-.071.119-.11.189-.009-.041-.02-.08-.03-.119l-.001-.002v-.001l-.015-.055-.01-.038-.006-.028zm33.274-27.057c.019.047.035.092.053.141.057-.028.113-.055.168-.084-.031-.009-.063-.016-.094-.024a2.624 2.624 0 01-.127-.033zm26.428-6.053c.005-.032.01-.065.012-.1.022.051.036.095.062.147l-.027.018-.027.017-.031.059a.604.604 0 01.002-.074l.009-.067zm-7.942-39.534l.001-.02-.032-.058-.017-.028.048.106zm.301 2.213c.03-.05.058-.1.082-.144.013.097.022.196.019.295-.037-.049-.066-.101-.101-.151zm33.753-61.25l-.007-.021-.011-.034-.017.048-.023.067-.01.028-.021.06a.91.91 0 01.133.01l-.024-.084-.02-.074zM102.007 321.025a.5.5 0 01-.112.369c-.004-.188.041-.298.112-.369z" fill="#EEE1D9"/></svg>