<svg width="267" height="253" viewBox="0 0 267 253" fill="none" xmlns="http://www.w3.org/2000/svg"><path fill-rule="evenodd" clip-rule="evenodd" d="M15.231 159.73l.005.007a1.741 1.741 0 00-.263.027c.078-.092.214-.116.258-.034zm23.927-41.295c-.027 0-.053 0-.078.003.001-.032-.002-.062.002-.096.026.035.05.06.076.093zm-3.75-3.419c.112.151.236.297.382.437-.11-.016-.22-.031-.325-.043a.752.752 0 01-.058-.394zM24.153 94.034c.012-.094.047-.14.092-.16 0 .14.008.281.022.422-.083-.019-.136-.083-.114-.262zm19.85-22.896c-.036.003-.07.004-.105.005 0-.019-.003-.036-.001-.055.035.015.07.034.105.05zm42.263-55.182l.005-.102c.008.048.016.097.022.146-.01-.008-.021-.02-.027-.044zM104.5 31.57c-.08.019-.164.04-.258.072a3.08 3.08 0 00.163-.28c.03.069.062.138.095.208zm3.584 72.838c-.032-.082-.05-.165-.077-.247.074.03.118.093.077.247zm54.983-27.642l.017-.107a.2.2 0 01-.017.107zm-22.993 40.393l-.004.001a.417.417 0 01.075-.098c-.024.034-.049.064-.071.097zm69.537 20.115a1.898 1.898 0 01-.23-.099l.251.022c-.01.03-.013.05-.021.077zM74.474 206.843c.136-.149.275-.297.413-.447-.045.21-.23.35-.413.447zM58.21 228.265l.115.025-.022.031a.27.27 0 01-.093-.056zm-19.067 22.298a.39.39 0 01.178-.131v.049c-.06.032-.118.056-.178.082zm16.09-19.943c-.053-.001-.106-.002-.165-.011.048-.031.086-.059.126-.087.014.031.025.073.039.098zm-8.275-101.711c.2.148.165.337.152.523-.12-.224-.234-.449-.347-.674.064.051.129.102.195.151zm-1.495-53.51c0-.03.012-.052.016-.079.01.042.017.086.03.125-.015-.016-.033-.028-.046-.046zm12.883 22.555c.035-.014.064-.02.095-.026a.973.973 0 00-.19.303.373.373 0 01.095-.276zM74.59 73.493a2.555 2.555 0 01-.174.095 4.675 4.675 0 00-.031-.201c.068.035.136.069.205.106zm11.9-58.645l.01-.088c.15.15.361.296.42.49a2.042 2.042 0 00-.43-.402zm60.965 87.031c.038.03.071.066.093.111a.455.455 0 01-.091.095 2.359 2.359 0 00-.002-.206zm75.71 69.623a.686.686 0 01.081-.021c-.009.008-.018.011-.026.019-.019 0-.037.003-.055.002zm-97.477 58.53c-.06.118-.114.27-.29.439-.139-.03-.262-.088-.306-.273.195-.08.394-.133.596-.166zm-77.942-57.503c.01-.015.017-.035.026-.051l.056.123c-.029-.029-.055-.05-.082-.072zm.76-82.324c.035.01.069.02.108.033-.013.027-.015.05-.03.078l-.078-.111zm29.118-4.793c-.037.025-.068.06-.103.09.026-.046.06-.078.103-.09zm.421-25.818l-.028.076c0-.004-.004 0-.006-.005-.006-.03.007-.063.011-.094l.023.023zm-.835-17.072c.014-.032.03-.063.043-.095-.002.043-.014.076-.043.095zm26.038 42.207c.04.093.019.163-.054.228.02-.07.038-.147.054-.228zm62.048 14.678a1.584 1.584 0 01-.271.119c-.035-.053-.065-.104-.108-.16a2.8 2.8 0 00.379.04zm-16.668 50.513c-.001-.057-.012-.105-.006-.167l.102.021c-.035.051-.067.101-.096.146zm88.012-10.605c.022-.051.037-.089.057-.132.037.063.076.112.113.168-.056-.013-.112-.028-.17-.036zm-70.841 57.696c-.004-.002-.009-.001-.015-.003-.03-.009-.053-.024-.079-.037.031.014.063.028.094.04zm2.82.661c-.239.07-.446.013-.573-.181.195.045.386.107.573.181zm18.163 8.63a.25.25 0 01.087.084 1.724 1.724 0 00-.087-.084zM33.387 162.379l-.041.015a2.597 2.597 0 00-.046-.058c.028.016.058.026.087.043zm-16.634-30.692c-.098.071-.21.157-.332.254-.093-.094-.133-.203.054-.357.09.049.183.082.278.103zm-3.84 3.837c-.026.055-.052.107-.075.17-.008-.072-.02-.136-.032-.2.034.014.07.023.106.03zm61.184 11.472l.11.076c-.079 0-.108-.029-.11-.076zm57.625-56.437c.031-.01.069-.017.108-.025a.325.325 0 01-.062.083c-.016-.019-.029-.04-.046-.058zm20.754-34.472c-.047.04-.088.07-.131.105-.009-.023-.023-.041-.035-.063.055-.013.107-.024.166-.042zM161.953 52a3.016 3.016 0 00-.151-.336c.072.046.145.094.219.145a.356.356 0 01-.068.19zm-15.778 10.085c.026-.013.042-.033.072-.043.011-.007.022-.006.034-.01-.022.012-.04.02-.063.034a.089.089 0 01-.012.005c-.011.01-.02.007-.031.014l-.01.007h-.01c.007-.004.013-.003.02-.007zm16.753 78.425c-.109.047-.219.09-.329.135.064-.136.2-.167.329-.135zm-30.376 85.992c.084.119.076.244-.037.368.017-.114.032-.231.037-.368zm-90.4-60.985c.009-.126.07-.223.232-.274-.083.088-.16.18-.233.274zm-4.72-85.695c.002-.023.012-.037.017-.056.022.093.056.185.102.276-.058-.029-.103-.089-.12-.22zm174.132 12.172c.035-.018.057-.044.088-.065a.812.812 0 00-.003.07l-.085-.005zm-64.288 53.91a.383.383 0 01-.131.137c.044-.044.089-.087.131-.137zm90.841-3.658l-.067.024c-.007.005-.015.009-.022.015l-.004-.006.026-.009.037-.023.03-.001zM67.405 172.284c-.027 0-.052-.006-.079-.006.01-.014.02-.026.032-.039.015.016.032.029.047.045zm38.438-121.752l-.03-.015.023-.002c-.025-.019-.043-.042-.067-.061a.43.43 0 01.146.07c-.026-.003-.05-.01-.079-.01l.007.018zm80.937 31.701a1.727 1.727 0 01-.177.135c.01-.043.023-.084.031-.126a.65.65 0 01.146-.009zM73.818 187.803c-.006.002-.012.008-.019.011-.026-.012-.053-.022-.077-.037.032.006.064.019.096.026zm-16.012-30.958a.416.416 0 01.004.082l-.018-.007.014-.075zm22.227-26.543c-.006-.044-.02-.082-.03-.124.022.001.045-.002.068-.005-.012.043-.026.083-.038.129zm124.005-49.459c.093-.1.185-.21.277-.341a7.133 7.133 0 01-.071.376.414.414 0 00-.206-.035zm-78.792 84.311c.02.041.031.083.031.127-.012-.044-.026-.086-.031-.127zm-12.385 7.659c-.018.052-.03.109-.044.167a.196.196 0 01.044-.167zm-32.333 2.861c-.176-.05-.352-.099-.53-.144a.712.712 0 01.181-.149c.132.112.248.21.35.293zm72.435-10.737c-.02-.014-.04-.026-.058-.04.025.004.05.013.076.017-.005.009-.012.014-.018.023zm8.982 1.225c.136.09.256.161.363.215-.041.002-.082.008-.124.01a.654.654 0 01-.239-.225zm-82.824-12.315c-.053.048-.104.083-.158.144.008-.087.005-.166.002-.242.052.033.102.067.156.098zm11.557 19.911a4.022 4.022 0 00-.043-.343c.095.109.123.242.043.343zm-6.125-39.297c-.057.035-.115.07-.168.113l-.113-.258c.098.057.193.107.28.145zm24.817 8.377l-.297-.075c.103.023.206.043.297.075zM89.22 153.54c-.112-.075-.15-.147-.164-.218.07.077.136.158.204.236-.014-.006-.027-.01-.04-.018zm49.473-20.423c.062.018.125.042.188.055-.068.013-.13-.009-.188-.055zm19.049 37.726a.186.186 0 01-.154.024c.052-.009.104-.018.156-.025l-.002.001zM96.314 95.776c-.002.024.004.044-.001.07l-.045.02.046-.09zm-2.322-33.98c-.026-.104-.017-.202.068-.25-.024.082-.046.165-.068.25zm-16.985 74.549c-.008-.029-.023-.052-.032-.081.029.011.06.015.087.024-.018.019-.037.04-.055.057zm-66.738 6.377a1.66 1.66 0 00.273-.074.012.012 0 01.003.005.594.594 0 01-.276.069zm75.898 44.305c.075-.005.151-.008.228-.019a.397.397 0 01-.228.019zm-46.519-38.211c-.065.048-.137.066-.207.038.069-.009.138-.021.207-.038zM94.587 15.555c-.054-.008-.11-.014-.166-.02l-.008-.058c.065.02.12.047.174.078zm138.838 146.988l.013-.054c.032-.182.155-.208.3-.199-.104.086-.205.174-.313.253zM61.458 102.202a.37.37 0 01-.191.09.809.809 0 00-.02-.28c.073.061.142.125.211.19zm124.463 113.509c.061-.061.13-.142.212-.241.019.044.026.099.002.187-.069.031-.142.042-.214.054zm17.298 10.459c.637-.153.412-.626.302-1.036.18-.43.098-.854.001-1.293-.19-.853-.593-1.765-.439-2.564.215-1.119-.375-1.834-.795-2.655a57.97 57.97 0 00-.554-1.036c.086-.242-.014-.41-.216-.538l-.211-.335a.505.505 0 00-.267-.514c-.975-1.67-1.809-3.466-3.785-4.24-.265-.719-.8-1.229-1.336-1.737-.183-.17-.404-.463-.665-.22-.411.385-.579.132-.804-.19-.66-.947-1.583-1.579-2.595-2.095l-.023-.006c-.362-.374-.78-.621-1.321-.588-.766-.939-1.716-1.659-2.735-2.298l-.002-.001c-.043-.081-.085-.165-.129-.246-.634-.665-1.267-1.335-1.91-1.994a.78.78 0 00-.608-.222c-1.67-1.531-3.267-3.154-5.353-4.151-2.928-1.786-6.023-3.214-9.371-3.984-1.326-.304-2.668-.675-4.062-.599-1.788-.631-3.637-.956-5.526-1.082-2.461-1.176-5.141-1.735-7.676-2.712-1.321-.51-2.539-1.146-3.659-1.993-.3-.368-.82-.488-1.052-.932-.037-.446-.431-.603-.696-.866l-.001-.001c-.106-.35-.358-.604-.565-.891-.716-.997-.575-1.848.479-2.42.971-.53 1.974-1.016 3.093-1.182 2.073-.307 4.143-.268 6.214.038 3.023.447 5.942 1.358 8.915 2.026 4.723 1.065 9.48 1.192 14.268.659 3.176-.353 6.358-.591 9.552-.48 1.377.048 2.747.135 4.113-.1 2.791.002 5.492-.476 8.092-1.503v-.002l.001.002c.118.029.212 0 .261-.122 1.51-.436 3.165-.505 4.37-1.721a1.38 1.38 0 00.807-.414c1.28-.47 2.398-1.24 3.557-1.933.843-.504 1.587-1.213 2.528-1.5.885-.269 1.732-.58 2.525-1.047.75-.12 1.42-.476 2.102-.767 2.185-.931 4.457-1.666 6.537-2.839 1.871-.762 3.768-1.466 5.597-2.318.701-.326 1.512-.522 2.062-1.145h.002c1.668-.774 3.243-1.747 4.786-2.715 1.917-1.2 3.78-2.509 5.653-3.788 1.73-1.185 3.427-2.429 4.642-4.196 1.283-1.616 2.719-3.111 3.815-4.874 1.262-1.445 2.782-2.58 4.368-3.635 1.288-.86 2.639-1.618 3.861-2.58.636-.501 1.435-.642 2.251-.611 1.29.056 2.575.159 3.709.845.551.333.865.171 1.216-.295.713-.944.613-1.574-.437-2.28-.548-.369-1.205-.548-1.697-1.008a1.378 1.378 0 00-1.061-.558c-2.137-1.207-4.438-1.974-6.819-2.501-2.072-.46-4.103-1.048-6.248-1.237-3.221-.283-6.48-.323-9.645-1.126-.555-.142-1.123-.236-1.688-.331-1.959-.326-3.911-.701-5.88-.947-1.57-.198-3.095-.823-4.721-.538-.679-.101-1.356-.213-2.048-.171l-.556-.032a4.818 4.818 0 00-1.588-.093l-.5-.072a2.511 2.511 0 00-.547-.113c-1.561-.288-3.143-.217-4.708-.108-3.131.215-6.23.706-9.278 1.484-1.662.41-3.302.891-4.858 1.615-2.216 1.034-4.697 1.518-6.61 3.183-.349.23-.837.276-.997.755-.269-.119-.487-.031-.676.169l-.004.002c-.168.099-.338.196-.507.295-.526.081-1.011.252-1.389.652-.328.117-.655.242-.985.355-1.498.513-3.06.97-4.619.871-3.601-.231-6.942.459-10.064 2.251-2.032.758-3.697 2.122-5.476 3.301-2.024.989-4.063 1.947-6.07 2.969-1.83.934-3.715 1.705-5.769 1.908-1.85.185-3.718.333-5.496-.466-1.723-.774-2.071-2.963-.669-4.252 2.138-1.963 4.558-3.527 7.117-4.871 3.415-1.795 6.929-3.399 10.248-5.378 2.077-1.241 4.127-2.499 6.405-3.393 3.046-1.195 5.625-3.186 8.138-5.247.959-.789 1.971-1.51 2.951-2.272.766-.595 1.436-1.277 1.882-2.152 1.11-.899 1.974-2.021 2.864-3.122.448-.505.896-1.011 1.343-1.518 1.065-1.013 2.013-2.131 2.921-3.286 1.456-1.87 2.701-3.883 3.975-5.876.39-.311.737-.654.874-1.155.291-.18.541-.389.572-.761.504-.177.561-.717.859-1.062.136-.034.208-.115.202-.261.376-.276.693-.602.87-1.046l.002-.001c.177-.095.307-.228.345-.437v-.002.002c1.431-1.631 2.684-3.37 3.598-5.358.94-2.046 2.17-3.98 2.801-6.142.48-1.641 1.445-3.052 1.893-4.685.201-.142.213-.353.211-.57l.09-.252c.283-.304.311-.725.477-1.082 1.112-2.39 1.419-5.012 2.132-7.519.392-1.384.561-2.81 1.048-4.205.551-1.57.934-3.237 1.331-4.876.278-1.15.827-2.242.804-3.464.645-1.131.751-2.422 1.044-3.654.548-2.307 1.216-4.589 1.59-6.935.622-1.894 1.034-3.838 1.438-5.787.44-2.12.905-4.238 1.405-6.345.098-.411-.006-.748-.237-.962-.355-.327-.659.061-.896.277-1.823 1.663-3.874 3.067-5.579 4.866l-.036.034c-.799.22-1.372.702-1.711 1.463-1.252.528-2.473 1.112-3.553 1.955l.005-.012c-.374.028-.633.23-.827.537l-.001.001-.007-.031c-2.148 1.12-4.409 1.987-6.619 2.966-.994.44-2.07.729-2.963 1.392l.001.002-.002-.003c-1.023.16-1.762.962-2.749 1.21-1.398.353-2.773.764-4.001 1.555-1.221.45-2.183 1.306-3.255 1.997-1.438.922-2.97 1.707-4.424 2.627-.555.352-1.188.762-1.865.886-.957.178-1.739.64-2.465 1.238a87.996 87.996 0 00-2.437 2.074c-2.49 2.208-5.08 4.313-7.365 6.746-1.457 1.55-2.817 3.196-4.551 4.463h-.001c-.499.7-1.076 1.357-1.48 2.108-1.013 1.875-2.503 3.451-3.26 5.505-.386 1.042-.7 2.165-1.396 3.088l.001.001c-1.161 1.252-2.182 2.584-2.702 4.254-.171.554-.42 1.222-.853 1.52-.695.478-1.146 1.082-1.604 1.747-.779 1.131-1.406 2.353-2.139 3.505-1.642 2.577-3.208 5.195-4.798 7.802-1.263 2.073-2.535 4.145-3.551 6.36-.536.358-.781.946-1.103 1.459-.949 1.5-1.899 2.982-3.333 4.089-1.258.975-2.432 2.068-3.871 2.777-1.255.621-2.325-.003-2.426-1.371a4.6 4.6 0 01.027-.795c.237-2.395.769-4.694 2.238-6.676.257-.125.334-.373.415-.62.362-.446.717-.9 1.092-1.337 1.841-2.153 3.69-4.301 5.535-6.451.164-.145.348-.273.486-.44 3.122-3.771 5.689-7.9 7.873-12.274.957-1.63 1.814-3.324 2.939-4.852.821-1.115 1.396-2.34 1.682-3.698.821-1.954 1.286-4.014 1.851-6.046.237-.805.402-1.642.722-2.412.852-2.042 1.057-4.223 1.468-6.36.354-.27.172-.697.301-1.034.608-.01.21-.57.441-.801 1.268-1.26.867-3.022 1.336-4.524.091-.34.278-.688.256-1.02-.053-.826.756-1.555.244-2.413a.27.27 0 00.017-.242c.241-.225.284-.5.217-.807.018-.743.518-1.438.515-2.076-.004-.878.063-1.76.106-2.628.097-1.943-.137-3.885.038-5.816.119-1.32.04-2.61-.146-3.905.591-.544.125-1.183.091-1.742-.115-1.857-.118-3.748-.858-5.515-.011-.1-.02-.2-.032-.301.039-.282.099-.569-.159-.789l-.003-.008c-.075-.993-.633-1.82-.941-2.735-.434-1.746-.323-3.61-1.123-5.28-.073-.155-.129-.345-.113-.51.186-1.833-.156-3.687.22-5.512.281-.623.347-1.355.958-1.814 1.52-1.14 2.695-2.716 4.464-3.544.48-.225.826-.526.655-1.133-.172-.611-.507-1.026-1.189-1.072-.844-.061-1.683-.06-2.509.157-3.022.795-5.891 1.852-8.352 3.915-2.462 2.069-4.861 4.178-6.645 6.873-.853 1.284-1.574 2.676-1.748 4.265-.248.386-.174.814-.155 1.235l.001-.002-.061.412h0c-.162 2.807-.887 5.487-1.71 8.16-.19.62-.243 1.257-.576 1.863-.781 1.432-1.454 2.922-2.172 4.388v.003l-.001-.001c-2.444 3.566-5.438 6.718-7.791 10.352-.331.178-.58.445-.803.742-.541.068-.743.623-1.163.83-1.93.95-3.432 2.47-5.085 3.782-1.552 1.232-2.932 2.67-4.538 3.855-1.132.837-2.241 1.754-3.004 2.975-.427.681-.958 1.25-1.499 1.832-.621.669-1.274 1.336-1.523 2.265-.335.366-.52.813-.68 1.275-.217.1-.226.293-.209.496l-.001.001c-.199.117-.274.307-.309.523-.691.913-1.202 1.901-1.413 3.049-.255 1.383-.531 2.775-.904 4.118-.534 1.923-.913 3.844-.965 5.834-.42 1.5-.514 3.043-.544 4.583-.024 1.322.209 2.658.151 3.962-.135 3.033-.102 6.068-.199 9.103l-.001.001c-.14.154-.06.332-.054.503.103 2.279-.127 4.469-1.64 6.328-.555.682-1.036 1.446-1.885 1.81-.764.326-1.304.111-1.544-.677-.107-.353-.3-.633-.448-.95-.525-1.125-1.139-2.268-1.172-3.516-.068-2.535-.533-5.032-.598-7.564l-.097-1.113h-.001c.484-1.195.591-2.469.791-3.724.398-2.484 1.127-4.895 1.619-7.358l.01-.023c.345-.482.407-1.056.523-1.612.023-.087.048-.172.072-.258.309-.263.217-.66.333-.988.199-.248.267-.534.24-.848.011-.09.024-.178.037-.267.765-2.278 1.619-4.53 2.174-6.875.607-2.15.959-4.352 1.353-6.548-.118-.517.303-.95.222-1.462.184-.168.169-.369.087-.58l.323-3.038c.266-.587.263-1.21.24-1.835a25.66 25.66 0 00.051-6.77c-.288-2.267-.993-4.483-1.515-6.72.067-.592-.009-1.14-.446-1.589-.249-.142-.146-.405-.205-.611.005-.492-.165-.947-.283-1.417-.385-1.503-1.186-2.864-1.52-4.364-.215-.97-.499-1.813-1.243-2.472l-.001-.003c-.031-1.107-.579-2.089-.767-3.158-.069-.342.279-.741-.142-1.034l-.021-.033c-.379-1.126-.622-2.322-1.171-3.359-.769-1.453-1.234-2.981-1.619-4.555-.02-.718-.035-1.436-.687-1.93.318-.367.154-.739.009-1.114-.791-2.052-1.59-4.102-2.937-5.876-.859-1.132-1.225-2.524-1.958-3.722-.362-.59-.836-1.117-.854-1.861h-.001l.001-.002c-.622-1.334-1.174-2.702-1.759-4.048-1.004-2.305-2.071-4.553-3.473-6.64-.476-.38-.719-.943-1.1-1.4-1.791-1.832-4.21-2.874-5.975-4.744-.6-.636-1.296-1.006-2.203-.762-.284-.29-.751-.255-1.023-.584-.137-.165-.341-.317-.578-.157-.299.204-.384.564-.232.823.63 1.077.839 2.286 1.183 3.453l-.131 1.28c-.445.255-.222.509.027.714.201.165.474.242.607.492l-.167 1.74c-.177.532-.263 1.104-.339 1.642-.191 1.36-.684 2.712-.334 4.118l.002.001h-.001c-.204.937.08 1.875-.004 2.814.01.659.014 1.316.028 1.974.046 2.155-.454 4.215-1.219 6.198-.41 1.064-1.133 2.003-1.611 3.046-.49 1.068-.898 2.159-1.844 2.943-.218.182-.291.538-.432.812l-.854 1.034c-.347.39-.722.76-1.037 1.175-.532.696-.92 1.537-1.556 2.106-.844.754-1.26 1.636-1.432 2.697-.331.292-.176.795-.422 1.088-1.031 1.231-1.346 2.77-1.73 4.237-.643 2.456-1.546 4.84-1.72 7.434-.07 1.035.06 2.107-.213 3.13-.279 1.04-.066 2.11-.195 3.165-.04.334-.132.97.384 1.267-.4.137-.58.615-.52.83.232.853-.292 1.644-.102 2.47-.11.745-.236 1.489-.336 2.236-.244 1.801-.84 3.53-1.047 5.34-.254 2.194-.52 4.38.486 6.479.085.176-.021.433.01.645.081.565.04 1.133.196 1.708.362 1.323.535 2.697.922 4.011.477 1.612.656 3.31 1.386 4.848.623 2.876 1.47 5.684 2.486 8.445.079.27.056.577.28.797.356 1.088.644 2.208 1.084 3.264 1.827 4.393 3.105 9.009 5.291 13.259.2.388.317.815.476 1.224.666 1.699 1.024 3.452.915 5.286-.034.599-.404 1.186-.205 1.782.332 1.003-.052 1.7-.808 2.291-1.43.077-2.892.401-4.184-.557v-.001s-.042-.04-.042-.038h-.001v-.002c-2.19-1.547-3.045-4.162-4.824-6.042-.447-1.602-1.433-2.936-2.192-4.38-.888-1.683-1.833-3.335-2.752-5.001l-.002-.001a25.673 25.673 0 00-1.839-3.345c-.086-.149-.182-.295-.258-.451-.593-1.222-1.078-2.565-2.18-3.401-.926-.702-1.192-2.042-2.438-2.391-.101-.03-.16-.204-.238-.314-1.033-1.424-1.901-2.942-2.67-4.53-.75-1.545-1.325-3.165-1.987-4.743-.585-1.398-1.25-2.822-1.397-4.367-.072-.732-.307-1.36-.563-2.04-.89-2.374-2.33-4.434-3.518-6.636-.136-.252-.289-.44-.526-.565-.616-.323-.933-.918-1.29-1.459-.632-.959-1.294-1.882-2.214-2.589-.916-1.5-2.4-2.442-3.616-3.638-1.78-1.751-4.163-2.838-5.583-5.01-.135-.206-.453-.281-.635-.469-1.385-1.423-3.189-2.363-4.221-4.222-1.222-2.199-3.032-4.028-4.279-6.241-.487-.868-1.221-.734-1.664.154-.227.455-.294.93-.308 1.41a9.473 9.473 0 01-.272 1.976l-.387 2.78c-.036.657-.073 1.314-.107 1.97l-.143.707c-.15.17-.161.37-.121.583.001.151.003.306.006.457-.125.309-.196.622-.124.957-.31 2.38-.268 4.779-.288 7.164-.028 3.33-.16 6.648-.434 9.96-.106 1.272-.096 2.599-.564 3.793-.353.9-.476 1.775-.45 2.713a13.76 13.76 0 01-.296 3.302c-.377 1.725-.133 3.455.058 5.147.284 2.505 1.55 4.678 2.805 6.82.067.234.22.393.423.512-.057.264.102.426.273.581.936 1.326 2.287 2.332 2.959 3.861.034.17.02.372.111.501 1.091 1.528 1.83 3.259 2.705 4.906.466.878 1.125 1.65 1.456 2.593.583 1.662 1.429 3.193 2.29 4.715.052.41.268.735.541 1.029l.001.007c1.27 3.116 3.113 5.935 4.627 8.924.28.552.947.814 1.162 1.432.307.886.948 1.476 1.714 1.964 3.48 2.218 6.958 4.433 10.43 6.66.492.315.982.604 1.566.695.592.368 1.165.772 1.78 1.1 1.422.76 2.865 1.482 4.3 2.22v-.001c.703.607 1.412 1.205 2.108 1.817.406.358.89 1.849.62 2.168-.395.47-.956.751-1.606.774-.131.005-.274-.038-.395-.004-1.265.355-2.55.102-3.824.14-.636-.135-1.288-.094-1.925-.347-1.639-.652-3.407-.974-4.927-1.933l-2.866-1.626-.002-.001c-.865-.537-1.701-1.091-2.489-1.76-1.818-1.546-3.708-3.011-5.625-4.436-2.464-1.833-5.318-2.959-8.06-4.287-1.594-.772-3.248-1.429-4.971-1.736-2.056-.364-4.01-1.064-6.032-1.526-.276-.336-.688-.171-1.026-.274-.056-.077-.13-.098-.218-.063-.564-.124-1.015-.809-1.697-.342v.001c-.046-.04-.096-.045-.149-.013-.229-.28-.554-.226-.859-.256-2.195-.216-4.39-.093-6.585.009-.259.012-.51.127-.78.026-1.254-.469-2.63-.192-3.905-.736-1.027-.44-2.07-.777-2.853-1.618-.173-.185-.261-.512-.603-.431-.732.17-1.376-.145-2.058-.308-.918-.222-2.028.723-1.805 1.537.448 1.62.066 3.363.774 4.936.068.152.03.352.039.53.65 1.723.51 3.619 1.23 5.339.744 1.784 1.35 3.624 2.324 5.305.46.698.878 1.445 1.235 2.177.526 1.071 1.532 2.001 1.321 3.377-.022.152.074.359.18.482.815.934 1.34 2.062 2.048 3.07.835 1.186 1.906 2.174 2.657 3.428.403.671.508 1.524 1.186 2.027l.005-.005a.014.014 0 01-.005.006c.074.608.687.729 1.003 1.116.271.464.18 1.24.5 1.443.854.546 1.204 1.547 2.037 2.035.399.235.655.539.96.852 1.887 1.933 3.843 3.784 6.472 4.697.204.195.418.372.73.333.141.177.323.27.552.27 1.003.685 2.245.69 3.338 1.192 1.216.558 2.607.758 3.944.999.47.084.967.549 1.484.094v-.001.001c.607.261 1.235.423 1.903.399.028.032.052.085.088.097 2.614.866 5.35.715 8.038.901 1.487.101 2.993-.003 4.489.113.479.036.993.14 1.26-.443l.017-.005c.142.182.412.401.538.319.664-.436 1.476-.08 2.133-.455h-.003l.004-.001c.613.329 1.27.053 1.9.141.963.133 1.838.557 2.752.853l.001-.001v.002c-.358 1.13-1.091 1.951-2.104 2.537-1.673.696-3.284 1.52-4.86 2.413-2.832 1.217-5.28 2.947-7.19 5.397-.534.241-1.041.538-1.21 1.136-.195.692-.595 1.262-.93 1.879-.77 1.415-1.054 2.976-.332 4.446.515 1.052 1.278 2.016 2.287 2.736.896.643 1.722 1.385 2.589 2.072 1.25.993 2.613 1.71 4.148 2.24 1.755.607 3.555.69 5.343.918 3.001.383 5.908-.256 8.797-.972.774-.192 1.517-.493 2.323-.562a2.083 2.083 0 001.21-.501c.132.02.281.087.392.049 1.892-.684 3.875-1.144 5.709-1.93 2.04-.873 4.288-1.386 5.985-2.966 1.222-.085 1.952-1.097 2.927-1.633 1.41-.774 2.959-1.404 4.074-2.658.435-.073.747-.524 1.32-.461-1.006 1.239-1.944 2.419-2.907 3.578-1.22 1.468-2.548 2.855-3.668 4.394-1.582 2.17-3.418 4.11-5.193 6.106a277.505 277.505 0 01-4.384 4.827c-1.93 2.071-3.915 4.089-5.829 6.173-1.1 1.202-2.364 2.269-3.138 3.753-.307.585-.777 1.071-1.16 1.6-.444.613-1.159.995-1.468 1.638-.496 1.029-1.297 1.765-2.012 2.599-.803.936-1.778 1.724-2.428 2.792-1.06 1.259-2.118 2.519-3.182 3.775-.476.558-1.114 1.006-1.16 1.834-.491.021-.826.285-1.05.7-.243.446-.624.685-1.065.934-.968.547-1.736 1.346-2.297 2.32-.085.144-.085.31-.264.421-1.73 1.057-2.838 2.768-4.266 4.141-.974.935-2.07 1.802-2.78 3.001-.97.938-1.93 1.888-2.913 2.813-.957.901-1.478 2.06-1.992 3.229-.27.613-.133 1.166.082 1.771.403 1.13 1.375 1.641 2.248 2.275.297.324.626.337.983.104h-.002.002c.202-.008.405-.015.609-.025.113.196.295.213.441.091.373-.307.793-.577.99-1.05 2.503-2.769 5.003-5.538 7.505-8.303 1.953-2.12 3.928-4.219 5.854-6.363 1.835-2.041 3.728-4.032 5.444-6.18.5-.764 1.27-1.276 1.687-2.168.277-.595.822-1.201 1.378-1.693 1.56-1.391 3.194-2.687 4.702-4.151 2.243-2.183 4.49-4.366 6.64-6.637 2.22-2.345 4.259-4.862 6.389-7.296.875-.999 1.666-2.077 2.553-3.048 1.194-1.306 2.407-2.607 3.53-3.965 3.617-4.371 7.146-8.814 10.689-13.244.43-.542.957-1.034 1.172-1.73v.001c1.875-1.906 3.465-4.044 5.053-6.184.142-.18.339-.402.533-.348.365.101.185.416.136.659-.335 1.689-.736 3.367-.995 5.066-.306 2.007-.592 4.056-.399 6.067.383 4.002 1.037 7.977 2.031 11.882.473 1.856 1.103 3.699 1.492 5.546.42 1.996 1.17 3.837 1.78 5.742.187.584.588 1.106.64 1.735.076.941.55 1.699 1.142 2.35 1.877 2.062 3.848 4.033 5.987 5.829l.002.001-.003-.001a9.238 9.238 0 002.812 2.333c2.026 1.388 4.026 2.817 6.087 4.149 1.688 1.091 3.445 2.078 5.429 2.563h.002c.749.58 1.691.575 2.547.828.375.111.663-.065.898-.351.472-.145.634-.527.844-.94.563-1.112.916-2.308 1.139-3.499.195-1.047.694-1.96.945-2.98.568-2.306.526-4.636.625-6.968a7.113 7.113 0 00-1.484-4.701c-.976-1.271-1.601-2.735-2.559-4.002-.631-.837-.726-1.782-.17-2.729.254-.088.408-.286.556-.494l.538.024c.114.061.247.194.337.17 1.637-.44 2.842.541 3.888 1.445 1.356 1.172 2.557 2.528 3.924 3.712 2.835 2.458 5.695 4.87 9.207 6.307 1.295.53 2.58 1.262 4.046 1.161.919-.062 1.835-.211 2.757-.178.503.017.966-.09 1.439-.203h.001l.119.038.117-.039h.001c1.456-.042 2.91-.112 4.327-.505.393.01.794.076 1.145-.183l.447-.084c.393.073.762.002 1.114-.177.363-.021.738.034 1.064-.186.835-.044 1.672-.068 2.439-.465v-.003l.002.001c.966-.046 1.813-.481 2.685-.837.859.043 1.633-.345 2.453-.497 2.607-.488 5.197-1.114 7.826-1.421 1.926-.225 3.929-.741 5.853.175.146.072.348.02.525.026.591.148 1.184.287 1.772.446 1.548.416 3.138.715 4.551 1.529 1.34 1 2.682 1.997 4.017 3.003.382.287.918.527 1.082.917.417.99 1.16 1.773 1.587 2.744.107.443.118.92.374 1.335.523-.103.684-.611 1.131-.718z" fill="#9D6D6A"/></svg>