<svg width="372" height="353" viewBox="0 0 372 353" fill="none" xmlns="http://www.w3.org/2000/svg">
<path d="M331.592 181.178C338.524 178.901 343.353 172.695 347.195 166.535C350.787 160.754 353.965 154.678 356.674 148.423C358.735 147.934 360.497 149.942 361.584 151.788C368.086 163.026 369.816 176.922 366.28 189.411C362.743 201.9 354 212.828 342.559 218.978" fill="#EEE1D9"/>
<path d="M135.21 202.729C157.051 189.568 188.111 189.522 211.787 191.086C231.084 192.371 250.473 194.934 268.711 201.651C278.927 205.405 289.383 209.884 298.69 215.777C300.493 213.337 301.631 210.653 301.767 207.809C302.228 199.855 299.411 192.654 290.82 185.906C283.386 180.073 273.543 175.587 263.178 172.059C246.485 166.427 228.013 163.033 209.872 162.335C200.313 161.969 190.768 162.176 181.614 163.207C163.352 165.232 146.447 170.607 136.836 180.245C132.191 184.92 131.578 191.752 133.104 197.451C133.541 199.26 134.23 201.018 135.21 202.729Z" fill="#B98984"/>
<path d="M172.456 124.968C186.482 101.638 209.829 84.0804 236.157 77.1353C242.866 75.3631 249.986 74.253 256.752 75.7566C263.559 77.2651 269.965 81.7902 272.159 88.386C274.353 94.9819 271.062 103.374 264.44 105.442C270.072 102.765 276.805 104.551 282.506 107.112C289.442 110.27 296.446 115.602 297.136 123.162C297.591 128.243 294.91 133.234 291.038 136.571C287.166 139.909 282.244 141.772 277.314 143.021" fill="#EEE1D9"/>
<path d="M349.336 229.963C351.134 207.745 347.194 188.069 333.285 170.429C321.221 155.135 304.835 143.86 287.448 135.488C259.405 121.92 228 114.937 196.866 115.26C180.461 115.424 163.975 117.294 148.048 121.315C116.326 129.29 86.4948 146.4 68.7051 174.551C60.042 188.225 58.2166 207.253 60.0975 222.964C60.9869 230.221 62.5756 237.44 65.7915 244.035C69.7654 252.151 75.9817 258.942 82.702 264.935C111.429 290.557 148.371 305.23 186.424 309.575C212.624 312.585 239.352 312.552 265.365 307.899C283.153 304.713 299.238 296.625 314.032 286.013C332.32 272.835 347.496 252.871 349.336 229.963ZM276.143 223.215C268.666 226.284 260.43 228.528 251.204 229.141C237.696 230.018 223.717 229.369 209.895 227.757C189.863 225.444 170.191 219.782 154.512 210.798C150.842 208.684 147.402 206.352 145.153 203.631C143.335 201.412 142.311 199.042 141.654 196.675C140.308 191.529 140.793 185.417 145.018 181.182C153.657 172.49 168.86 167.688 185.261 165.849C193.499 164.954 202.068 164.712 210.686 165.088C226.994 165.731 243.588 168.777 258.632 173.844C267.939 177 276.813 181.044 283.499 186.297C291.231 192.37 293.772 198.803 293.322 205.982C292.898 213.286 285.427 219.38 276.143 223.215Z" fill="#EEE1D9"/>
<path d="M80.7767 128.267C72.4189 147.249 67.5664 171.431 66.591 192.236C66.1313 202.233 67.0011 212.389 69.8154 222.001C70.5691 224.583 71.5215 228.579 72.9328 231.812C88.8168 233.957 105.881 231.012 120.19 224.795C127.129 221.784 134.32 218.026 140.126 212.877C139.295 208.201 136.269 203.1 135.085 198.3C130.691 180.368 131.189 161.508 133.729 143.343C138.459 109.584 152.572 76.9889 142.787 42.9665C133.542 10.929 94.3662 1.9549 65.9207 11.9158C41.1469 20.5586 23.5918 43.6713 18.8769 69.0955C14.9786 90.0817 17.2085 111.76 29.0259 129.803C31.1672 133.083 33.8322 136.425 37.6063 137.326C35.2229 136.755 48.1775 102.223 49.9373 99.1237C56.4342 87.8463 64.6348 78.0393 76.9788 73.2225C111.44 59.772 86.216 115.924 80.7767 128.267Z" fill="#EEE1D9"/>
<path d="M68.558 77.6919C69.0689 70.684 69.2979 63.6423 69.24 56.6072C69.1966 53.2105 68.9807 49.5481 66.8333 47.0031C65.3339 45.1894 63.0793 44.2252 60.8504 43.3866C51.9043 39.9471 42.4416 37.7534 32.9053 36.8584C25.9259 46.3619 21.0436 57.4646 18.8766 69.0962C14.9782 90.0824 17.2082 111.76 29.0256 129.804C31.1669 133.084 33.8319 136.426 37.606 137.327C35.2226 136.756 48.1772 102.224 49.937 99.1245C54.8334 90.6386 60.6905 83.0031 68.558 77.6919Z" fill="#B98984"/>
<path d="M36.1258 71.4446C34.7013 60.1191 35.3085 48.5462 37.8206 37.4462C36.1737 37.2084 34.5623 37.0157 32.9057 36.8586C25.9263 46.3621 21.044 57.4647 18.877 69.0963C14.9787 90.0825 17.2086 111.761 29.026 129.804C31.1673 133.084 33.8323 136.426 37.6065 137.327C36.0191 136.933 41.2106 121.536 45.4129 110.311C42.0476 97.4458 37.7768 84.6359 36.1258 71.4446Z" fill="#A1551F"/>
<path d="M88.0786 50.442C99.278 51.781 101.359 34.3776 90.1593 33.0386C78.9599 31.6997 76.8792 49.1031 88.0786 50.442Z" fill="#0D3C88"/>
<g opacity="0.1">
<path opacity="0.1" d="M346.675 196.506C345.557 197.313 344.43 198.199 343.378 199.136C333.131 208.29 327.186 223.147 319.498 235.508C300.024 266.809 262.788 279.887 227.364 281.576C174.274 284.055 107.973 277.763 64.9247 242.052C65.215 242.699 65.5005 243.387 65.8311 244.04C69.805 252.156 76.0213 258.947 82.7416 264.94C111.469 290.562 148.41 305.235 186.464 309.58C212.664 312.59 239.391 312.557 265.404 307.903C283.192 304.718 299.278 296.63 314.072 286.018C332.395 272.885 347.572 252.921 349.411 230.013C350.304 218.106 349.63 206.993 346.675 196.506Z" fill="#B98984"/>
</g>
<path d="M226.519 344.688C222.98 343.529 219.625 341.862 216.772 340.09C197.044 327.721 183.237 312.3 172.773 292.171C167.855 282.716 160.704 270.42 166.838 260.12C175.736 245.167 196.034 241.832 212.31 240.018C235.124 237.516 256.92 237.711 278.809 245.681C285.702 248.18 293.217 252.307 294.508 259.285C295.487 264.428 292.53 269.672 288.376 272.976C284.217 276.319 278.978 278.104 273.869 279.822C280.402 285.67 287.497 292.974 286.279 301.451C285.295 308.32 278.679 313.413 271.663 315.026C264.646 316.639 257.272 315.43 250.164 314.049C251.619 318.963 253.105 323.963 253.027 329.061C252.949 334.159 251.13 339.458 246.99 342.641C241.087 347.247 233.441 346.946 226.519 344.688Z" fill="#EEE1D9"/>
<g opacity="0.14">
<path opacity="0.14" d="M140.127 212.879C139.297 208.203 136.27 203.101 135.087 198.301C130.693 180.369 131.191 161.51 133.73 143.344C138.461 109.586 152.573 76.9905 142.789 42.9681C140.128 33.783 135.031 26.5132 128.414 21.0231C131.212 29.4073 133.108 38.5008 133.584 45.7903C135.878 80.2656 120.326 114.65 113.686 147.976C108.412 174.314 106.4 201.737 110.534 228.341C113.885 227.312 117.134 226.107 120.237 224.761C127.176 221.75 134.327 217.988 140.127 212.879Z" fill="#B98984"/>
</g>
<g opacity="0.42">
<g opacity="0.42">
<path opacity="0.42" d="M66.904 24.2109C76.4683 19.0617 86.7529 17.7987 97.2745 20.3642C100.968 21.2553 101.631 15.3688 97.9777 14.4825C86.544 11.6854 74.8818 13.1923 64.5297 18.7785C61.2079 20.5879 63.5371 26.0558 66.904 24.2109Z" fill="white"/>
</g>
<g opacity="0.42">
<path opacity="0.42" d="M83.9135 149.196C77.0607 168.235 75.8335 188.07 80.5037 207.792C81.369 211.492 87.2323 210.64 86.3718 206.9C81.9486 188.188 82.9153 169.508 89.4107 151.406C90.695 147.841 85.2026 145.591 83.9135 149.196Z" fill="white"/>
</g>
<g opacity="0.42">
<path opacity="0.42" d="M86.0284 247.721C96.0194 263.953 111.346 274.856 129.755 279.468C133.444 280.399 134.106 274.513 130.458 273.586C113.561 269.319 99.7764 258.845 90.6739 244.068C88.6938 240.807 84.0435 244.501 86.0284 247.721Z" fill="white"/>
</g>
<g opacity="0.42">
<path opacity="0.42" d="M164.488 133.863C184.47 125.996 205.522 127.287 226.226 131.151C229.984 131.846 230.688 125.964 226.93 125.27C205.143 121.235 183.08 120.191 162.113 128.43C158.598 129.808 160.932 135.236 164.488 133.863Z" fill="white"/>
</g>
<g opacity="0.42">
<path opacity="0.42" d="M184.497 288.791C188.824 301.812 196.94 312.875 207.98 321.019C211.057 323.307 214.65 318.547 211.568 316.299C201.276 308.735 193.995 298.548 189.964 286.462C188.727 282.8 183.294 285.174 184.497 288.791Z" fill="white"/>
</g>
</g>
</svg>
