<svg width="987" height="527" viewBox="0 0 987 527" fill="none" xmlns="http://www.w3.org/2000/svg"><path fill-rule="evenodd" clip-rule="evenodd" d="m412.904 182.431 135.52-78.493c12.806-8.66 46.248-17.228 47.261 13.727 1.751 35.377-38.878 6.818-46.893 20.176-37.403 62.463-83.191 122.069-123.451 128.794-46.248 8.937-219.724-133.585-149.707-152.01 32.613-8.568 127.044 71.399 137.27 67.806Z" fill="#EEE1D9"/><path fill-rule="evenodd" clip-rule="evenodd" d="M978.936 461.301c-34.455-11.424-113.501-18.241-122.622-25.059L601.858 226.191c-39.983-32.337-101.893-4.79-137.086 26.164-33.719 33.903-61.541 64.398-156.433 90.93-208.116 58.133-28.006 154.13 82.639 124.373 62.002-17.597 157.63-125.478 157.63-125.478 38.233 47.538 153.208 88.258 258.787 129.716 2.303 5.712 5.527 10.318 9.397 12.805 2.579 1.659 12.621 2.764 26.901 3.317 1.013.092 1.935.092 2.948.092 35.561 1.106 94.339-1.29 131.743-8.199 8.936.46 11.608-14.925.552-18.61Z" fill="#EEE1D9"/><path fill-rule="evenodd" clip-rule="evenodd" d="M363.523 276.401s59.515 75.729 48.736 96.181C395.4 404.551 242.836 473.37 218.054 418.738c-37.864-42.379-85.402-296.006 23.032-305.864 12.99-1.197 35.838-1.474 43.208 6.91 50.762 57.948 79.229 156.617 79.229 156.617Z" fill="#0D3C88"/><path fill-rule="evenodd" clip-rule="evenodd" d="M267.158 112.967c-.276-1.198-19.531-26.349-1.566-34.272 6.357-2.395 10.595-5.067 10.963-9.12 2.119-21.558-11.147-24.23-14.095-35.101-3.133-11.608-15.201-9.858-26.625-9.12-18.61 1.197-50.026 24.505-25.796 56.105 4.975 6.449 13.911 10.042 24.137 23.769 2.58 3.409 3.409 5.435 5.252 11.884 7.094 24.138 44.221 13.267 27.73-4.145Z" fill="#EEE1D9"/><path d="M218.33 223.98s36.391-74.162-22.479-81.625" stroke="#D93F01" stroke-width="1.646" stroke-miterlimit="10"/><path fill-rule="evenodd" clip-rule="evenodd" d="M167.292 165.848C124.36 254.014 57.752 418.093-1.578 437.072c-18.15-.737-60.436-2.396-61.265 6.817-.276 3.224 38.786 1.382 25.888 6.357-12.99 5.067-33.258 8.66-32.705 11.884.92 5.528 34.087-1.658 31.415 1.382 1.566 2.58-33.719 4.883-34.732 10.318-1.105 5.989 37.312-.644 38.14 3.593.461 2.58-28.743 5.897-27.822 9.213 1.382 4.791 31.6 1.29 54.448-4.698 4.606 2.119-20.176 22.295-15.938 25.243C-19.82 509.3 5.7 480.74 5.7 480.74c15.109 0 204.523-166.475 227.924-220.646 55.737-83.007-27.362-174.397-66.332-94.246Z" fill="#EEE1D9"/><path d="M974.606 486.176c-56.106 3.316-108.25 6.633-159.105 1.381l.092-4.237 166.014-4.146-7.001 7.002ZM952.956 453.102c-7.923.092-15.662.368-23.4 1.013-7.739.737-15.386 1.843-22.848 3.685-7.462 1.843-14.74 4.422-21.65 7.831a53.824 53.824 0 0 0-5.067 2.764c-1.566 1.013-3.04 2.303-4.514 3.501-2.948 2.579-5.804 5.343-8.845 7.831 2.58-2.948 4.975-6.081 7.647-8.937 1.382-1.474 2.672-2.948 4.33-4.238 1.658-1.197 3.225-2.395 4.883-3.501 6.725-4.33 14.28-7.37 22.018-9.397 7.739-2.026 15.754-2.948 23.677-3.04 8.107 0 16.03.737 23.769 2.488Z" fill="#0D3C88"/><path fill-rule="evenodd" clip-rule="evenodd" d="M909.472 352.222c-20.36 39.062-39.799 73.978-53.158 81.349 0-.922-502.28-87.798-502.28-87.798-84.112-7.739-143.35 13.911-143.534 60.344 21.742 56.013 44.497 99.866 144.271 100.971l487.448-19.439c-.092.093-.184.093-.184.185 15.846 4.238 34.087 22.295 44.313 25.335 10.226 3.04 39.338-101.525 41.273-156.525 2.211-8.476-11.792-14.188-18.149-4.422Z" fill="#EEE1D9"/><path d="M895.745 375.53c-1.935 7.647-3.686 15.293-5.067 22.94-1.29 7.647-2.119 15.293-2.304 23.032-.092 7.647.461 15.385 2.027 22.94.369 1.842.829 3.777 1.29 5.62.553 1.75 1.382 3.5 2.211 5.251 1.75 3.501 3.593 6.909 5.251 10.502-2.211-3.224-4.606-6.356-6.725-9.765-1.013-1.658-2.119-3.317-2.948-5.251-.737-1.843-1.474-3.686-2.119-5.62-2.395-7.647-3.409-15.754-3.317-23.677.093-8.015 1.198-15.938 3.133-23.677 2.119-7.831 4.882-15.293 8.568-22.295Z" fill="#0D3C88"/><path d="M932.319 359.5c-18.333 85.495-31.507 138.744-42.47 155.327l-4.054-1.197 42.379-161.224 4.145 7.094Z" fill="#0D3C88"/><path d="M161.579 526.619c-48.489 0-87.797-39.308-87.797-87.797s39.308-87.798 87.797-87.798c48.49 0 87.798 39.309 87.798 87.798 0 48.489-39.308 87.797-87.798 87.797Z" fill="#fff"/><path d="M108.514 421.87c11.147-34.916 38.878-59.79 71.767-68.819-38.97-.184-75.268 24.69-87.705 63.752-12.438 39.062 2.764 80.428 34.64 102.723-21.558-26.349-29.85-62.739-18.702-97.656ZM216.948 456.418c11.148-34.916 2.856-71.307-18.702-97.655 31.876 22.387 47.077 63.66 34.64 102.722-12.437 39.062-48.735 64.029-87.705 63.753 32.889-8.937 60.62-33.903 71.767-68.82Z" fill="#1164EA"/><path d="M188.205 355.17s-62.463 69.004-53.25 167.212c64.213-74.808 53.25-167.212 53.25-167.212Z" fill="#1164EA"/><path fill-rule="evenodd" clip-rule="evenodd" d="M253.615 33c-4.514 7.37-35.745-6.45-30.402 25.98.368 2.487 3.317 10.318-8.66 10.042-11.885-.277-3.962 15.2 3.869 9.304 7.923-5.896 21.927 25.243 33.811 43.208-4.698 20.176-70.293 37.404-90.101 0 17.689-33.166 26.533-63.844 27.086-84.941 13.174-63.476 95.72-30.679 64.397-3.593Z" fill="#A1551F"/><path d="M561.875 53.544c-13.451 0-24.322 4.975-24.322 11.056v88.258c0 6.172 10.871 10.594 24.322 10.594 13.45 0 24.321-4.974 24.321-11.055V64.692c0-6.173-10.871-11.148-24.321-11.148Z" fill="#fff" stroke="#EEE1D9" stroke-width=".921" stroke-miterlimit="10"/><path d="M561.875 75.747c-13.433 0-24.322-4.95-24.322-11.055 0-6.106 10.889-11.056 24.322-11.056 13.432 0 24.321 4.95 24.321 11.056 0 6.105-10.889 11.055-24.321 11.055Z" fill="#fff" stroke="#EEE1D9" stroke-width=".921" stroke-miterlimit="10"/><path d="M561.875 163.452c-13.433 0-24.322-4.949-24.322-11.055s10.889-11.055 24.322-11.055c13.432 0 24.321 4.949 24.321 11.055s-10.889 11.055-24.321 11.055Z" fill="#1164EA"/><path d="M586.181 152.877h-48.643V96.864h48.643v56.013Z" fill="#1164EA"/><path d="M561.875 108.452c-13.433 0-24.322-4.949-24.322-11.055s10.889-11.055 24.322-11.055c13.432 0 24.321 4.95 24.321 11.055 0 6.106-10.889 11.055-24.321 11.055Z" fill="#0D3C88"/><path fill-rule="evenodd" clip-rule="evenodd" d="m570.442 99.884-3.869-.092-38.786-73.057 3.962-2.027 38.693 75.176Z" fill="#A1551F"/><path fill-rule="evenodd" clip-rule="evenodd" d="M586.565 44.424c-10.41 0-18.794 8.291-18.978 18.702h18.702v19.346h.368c10.503 0 19.071-8.475 19.071-19.07-.185-10.503-8.66-18.978-19.163-18.978Z" fill="#F7931E"/><path fill-rule="evenodd" clip-rule="evenodd" d="m594.027 49.214-3.5 6.173-3.501 6.172-3.501-6.172-3.501-6.173c4.606-1.934 9.397-1.75 14.003 0ZM603.7 61.375l-7.094.368-7.093.37 3.224-6.358 3.224-6.357c4.238 3.133 6.634 7.186 7.739 11.977ZM576.984 49.675l3.869 5.988 3.87 5.989-7.094.368-7.094.369c.461-5.252 2.856-9.397 6.449-12.714ZM597.528 76.3l-3.777-5.989-3.778-5.988 7.094-.276 7.094-.277c-.553 5.16-2.948 9.305-6.633 12.53ZM586.196 68.469l1.382-2.488 3.778 5.989 3.777 5.988a18.79 18.79 0 0 1-8.844 1.566" fill="#FBB03B"/><path fill-rule="evenodd" clip-rule="evenodd" d="M582.328 91.04s-8.016 3.593-7.739 8.291c.092 1.106.276 2.212.737 3.225-1.474 1.658-2.303 3.777-2.303 6.173 0 2.395.921 4.606 2.395 6.264a9.45 9.45 0 0 0-2.395 6.265 9.45 9.45 0 0 0 2.395 6.265 10.123 10.123 0 0 0-.921 4.145c0 5.067 3.869 8.015 8.383 9.305v.092h.185c1.197.369 2.303.553 3.224.553 1.106.184 2.211.092 3.409-.645a3.946 3.946 0 0 0 1.934-2.119c1.935-3.132 3.501-9.397 3.778-21.742.829-32.613-13.082-26.072-13.082-26.072Z" fill="#EEE1D9"/></svg>