<svg viewBox="0 0 130 115" fill="none" xmlns="http://www.w3.org/2000/svg"><path fillRule="evenodd" clipRule="evenodd" d="M77.18 34.09c-.081-.46-.202-.968-.33-1.508a12.739 12.739 0 00-.512-1.658l.18-.643a49.594 49.594 0 00-.526-1.118 23.357 23.357 0 00-1.693-3.465 20.294 20.294 0 00-.425-.549c-.08-.1-.158-.199-.236-.3a28.89 28.89 0 00-2-2.67c-.135-.152-.268-.306-.4-.46-.232-.27-.463-.539-.706-.79l-.59-.595-.286-.293-.31-.277-.796-.593c-.194-.166-.385-.317-.567-.46l-.228-.181-.358-.285-.342-.237-.238-.207c-.2-.174-.379-.33-.558-.474l-.683-.332-.374-.269-.382-.245-.151-.099c-.202-.132-.4-.263-.605-.383l-1.088-.418c-.549-.3-1.105-.592-1.59-.79-.374-.152-.643-.2-.882-.243-.07-.013-.139-.025-.207-.04-.359-.172-.7-.313-1.006-.44l-.29-.12c-.626-.157-1.081-.25-1.52-.34l-.068-.013c-.324-.066-.306-.133-.287-.208.009-.032.017-.066 0-.1a34.281 34.281 0 015.181 1.74c.06.018.121.03.183.04a21.31 21.31 0 00-.954-.43l-.047-.02a15.596 15.596 0 00-.795-.324l-.628-.237-.5-.18a22.213 22.213 0 00-2.384-.59l-.166-.056c-.407-.137-.79-.266-1.169-.377l-1.461-.235-.023-.018c-.104-.085-.176-.144-.859-.201l.794.228a6.13 6.13 0 01-1.588-.076l-.675-.157c-.365.001-.667.002-1.04-.044a9.752 9.752 0 01-1.413-.116l-.001-.286c.33 0 .638.028.925.054.161.015.316.03.464.038.48.06.962.091 1.446.091a11.01 11.01 0 00-3.304-.205l-.96.002-1.437-.004-.334-.079c-.572.002-1.159.043-1.738.108-.576.052-1.148.135-1.714.25.07.008.143.008.214 0 1.166-.162 2.381-.228 3.556-.279-.033.042.187.063.427.087.219.02.455.044.534.085-.881.002-1.754.084-2.54.166l-.738.16-1.016.003c-1.368.178-2.736.465-3.954.722l-.014.003c-.136 0-.177-.023-.214-.043-.062-.034-.11-.061-.58.045l-.698.304c-.793.216-1.53.448-2.316.696-.785.248-1.586.544-2.38.848l-.357.001.228-.097c.458-.193.734-.31.248-.206l-.65.375a38.495 38.495 0 00-10.756 6.578l-.793.573c-.14.155-.27.316-.402.478-.086.106-.173.212-.263.318l-.673.653c-.13.131-.255.266-.378.397a22.03 22.03 0 01-.231.247l-.633.86c-.277.305-.547.624-.816.942-.432.51-.859 1.013-1.298 1.445.199-.281.401-.552.599-.815.188-.251.37-.496.54-.736a13.213 13.213 0 00-1.82 2.251c-.284.49-.676 1.019-1.067 1.548-.13.177-.261.353-.388.528l-.467.645c-.225.381-.403.79-.528 1.216.348-.462.704-.9 1.068-1.329-.404.75-.856 1.472-1.352 2.163-.066.158-.128.316-.213.534l-.087.22a26.993 26.993 0 00-1.657 3.673.246.246 0 01-.064.096c.08-.413.18-.805.289-1.228l.025-.1c.135-.222.27-.444.42-.723.13-.243.262-.53.425-.886l.072-.155c.197-.43.473-1.12.338-1.096a27.125 27.125 0 00-2.06 4.768c0 .08-.02.16-.041.239-.01.04-.021.08-.029.119 0 .088.035.064.068.041.062-.043.119-.082-.066.634l-.098.155c-.088.14-.18.288-.29.473l.003 1.135c-.205.892-.349 1.797-.43 2.709l.067.896.065.548a11.352 11.352 0 00.301 3.016c.044.069.089.145.14.232.062.105.132.224.22.363.184.727.413 1.443.688 2.141.033.12.05.242.048.366a18.723 18.723 0 001.675 3.028c.168.325.36.634.527.904l.326.427c.085.109.18.213.276.32l.003.003.001.001.001.001.085.095.407.468c.09.1.19.2.296.306.07.07.14.14.213.216.334.253.796.554 1.376.894.286.269.541.483.796.696.122.103.24.197.357.291.127.102.255.204.39.319 1.11.734 2.284 1.369 3.507 1.896l.659.054 1.12.41.914.299.866.14c1.213.329 2.444.59 3.686.785.068 0 .134.023.21.051.046.017.097.036.155.051l.2.285c1.177.214 2.369.338 3.565.372.405-.049.952-.122 1.285-.178l2.144-.006.937.07c.294.48.616.943.964 1.386l.367.46.366.396c.211.23.437.448.676.649l.502.73a25.415 25.415 0 003.725 3.292l.7.387.365.325.406.316.89.434c.307.2.623.37.95.544l.267.144.612.332.31.166.31.158.588.27h.002c.65.3 1.303.602 1.993.874.35.075.692.178 1.025.307.456.17.927.296 1.407.378.447.066.898.108 1.35.123l1.159-.003-.231-.245c.249-.001.471.03.67.06h.001l.072.01.05.007a16.671 16.671 0 01-.913-.244c.184 0 .334.036.502.078.065.016.133.032.205.047-.27-.078-.604-.18-.794-.252a1.074 1.074 0 01-.175-.094l.794.26a92.906 92.906 0 01-1.871-2.227c.196.093.378.213.54.356l.014.013c.304.271.55.491.503.303l-.046-.073c-.202-.32-.417-.66-.64-1.028-.147-.245-.373-.535-.62-.852h-.001c-.154-.197-.315-.402-.47-.614l-.637-.69a37.798 37.798 0 01-2.136-3.272 23.088 23.088 0 01-.852-1.054 21.621 21.621 0 01-.48-1.468c.268.543.564 1.073.885 1.586a9.792 9.792 0 00-.42-.963h-.001c-.156-.327-.314-.655-.426-.972l-.215-.396a3.76 3.76 0 01-.2-.444 3.072 3.072 0 01-.168-.572 3.413 3.413 0 01-.073-.793c.12.514.29 1.016.504 1.499.04.1.085.228.135.37.174.49.402 1.13.6 1.216a12.193 12.193 0 01-.848-2.38 5.098 5.098 0 01-.139-1.182 2.924 2.924 0 01-.001-.54l1.683-.005a40.089 40.089 0 002.762-.491l.793-.082c1.823-.43 3.61-.997 5.347-1.697l.128-.036.074-.021.048-.014c.25-.07.5-.141.75-.225a31.949 31.949 0 003.4-1.692l.794-.375.943-.471c.154-.185.33-.351.523-.494l.404-.31.436-.343.444-.35.403-.359a3.22 3.22 0 00.57-.62l.199-.148c.214-.158.418-.31.594-.474.16-.168.327-.335.485-.491v-.001l.001-.001c.155-.153.3-.296.416-.422.206-.144 0 .166-.356.525-.207.226-.453.456-.69.68h-.001v.001c-.307.288-.602.566-.79.807a7.32 7.32 0 00.619-.494c.268-.237.522-.493.776-.75.113-.114.226-.228.34-.34.104-.104.202-.213.3-.323.076-.084.152-.168.23-.25.183-.191.349-.39.515-.59l.499-.604c.129-.154.248-.318.37-.484l.051-.071.053-.073.063-.083c.291-.388.558-.742.823-1.166a5.11 5.11 0 00.293-.548l-.06.079-.058.08c-.144.194-.292.393-.46.636l-.34.43-.427.509.332-.454.245-.365c.15-.223.26-.398.356-.557.169-.286.286-.53.454-.884l.09-.19c.38-.445.745-.906 1.045-1.312a20.978 20.978 0 001.523-3.68c.174-.413.3-.755.442-1.144.227-1.144.407-2.16.531-3.177l.077-.794-.002-.794a11.67 11.67 0 00-.044-1.93zm-6.592 17.066l-.096.112a1.71 1.71 0 00.167-.275c.033-.064.065-.126.11-.19.419-.35.145-.03-.181.353zm-59.239-7.693c0-.214 0-.429.046-.659l-.046.66zm37.36 18.202a1.725 1.725 0 00.001.294h.016c.029.193.069.384.12.571v-.317c-.055-.18-.1-.363-.136-.548zm25.18-35.188c-.377-.5-.713-1.03-1.005-1.585a5.383 5.383 0 011.005 1.585zm-.809-.796v-.001c-.06-.093-.117-.178-.17-.265h.008c-.43-.515-.501-.483-.158.199l.335.5.414.665v-.397c-.17-.306-.308-.517-.429-.7zm-2.492-4.372c.26.414.182.45.096.488-.046.021-.094.043-.094.123.193.191.364.404.51.634-.483-.468-.503-.557-.53-.688-.007-.031-.014-.064-.028-.105-.214-.273-.44-.529-.667-.787l-.13-.148-.382-.467a24.27 24.27 0 00-.13-.144c-.092-.1-.181-.198-.268-.3a35.734 35.734 0 01-.267-.238c-.202-.183-.411-.372-.632-.553a9.644 9.644 0 01-.891-.792 21 21 0 013.413 2.977zm-4.334-3.205a6.251 6.251 0 00-.684-.53l-.048-.055c.029.074.072.141.127.198.188.15.39.28.605.387zm-.787-.632a9.255 9.255 0 01-1.423-.91 4.661 4.661 0 011.423.91zm-9.427-4.286l-.318-.142a1.4 1.4 0 00-.294 0c.086.056.176.104.27.143l.342-.001zm-3.194-.247c.097.024.193.053.286.087-.1.014-.201.014-.301 0l-.326-.086h.341zm-8.16-.296a2.43 2.43 0 00-.302.001l-.325.104h.341c.098-.027.194-.062.286-.104zm-3.717.336l-.082.03c-.493.043-.976.16-1.433.347.489-.063.969-.18 1.433-.347l.082-.006v-.024zm-9.385 2.7a37.825 37.825 0 00-3.306 1.66l-.357.223c.006.082.279-.069.627-.26.191-.106.405-.224.61-.323.164-.054.337-.114.516-.177.35-.122.719-.25 1.07-.351.381-.2.754-.367 1.127-.527.372-.16.721-.32 1.062-.495.323-.262-.338-.059-.914.119-.159.049-.311.096-.435.13zM11.56 41.525v.199a2.169 2.169 0 010-.222v.023zM24.646 60.6l.246.08.246.062-.492-.142zm29.276 10.896l.143.302-.23-.23a1.29 1.29 0 01-.112-.27c.07.062.137.128.199.198zm-3.035-4.001a1.093 1.093 0 000-.159l-.272-.491-.143-.048.11.187c.099.17.2.343.305.51z" fill="#0D3D87"/><path fillRule="evenodd" clipRule="evenodd" d="M64.724 16.268l.557.308.556.332v-.072l-.549-.355-.564-.324a1.278 1.278 0 00-.286-.127c.082.094.179.174.286.238zm6.962 5.729a1.78 1.78 0 01-.239-.214l-.39-.5a6.235 6.235 0 00-.43-.482v-.072l.23.23.223.238.43.49c.076.093.135.197.176.31zM10.812 50.602c.096.209.21.408.343.595a10.468 10.468 0 01-.342-.876c-.134-.373-.258-.72-.377-.9.095.402.22.797.376 1.181zm11.907 10.973c1.012.395 2.05.72 3.106.977.416.099.838.17 1.263.21l-1.867-.47-.049-.013c-.68-.17-1.46-.365-2.453-.704zM55.92 74.191c.077.058.149.121.215.19l.08.158.08.056a.213.213 0 010 .119.214.214 0 00-.072-.103l-.063-.056-.112-.103a1.844 1.844 0 01-.128-.261z" fill="#0D3D87"/><path d="M56.655 75.395v.047-.174l-.104-.174a.5.5 0 00.104.3z" fill="#1263EB"/><path fillRule="evenodd" clipRule="evenodd" d="M83.169 37.765l.054-.35a12.52 12.52 0 01-.2 2.708c-.05.178-.125.394-.21.637l-.001.002-.001.002c-.048.137-.099.281-.15.432l.11-.778.045-.794-.133.722c-.032.154-.073.308-.107.441l-.002.005-.04.158c-.02.082-.045.126-.073.176-.026.046-.055.098-.085.19l.043-.282v-.001c.061-.384.108-.68-.044-.289l.001.572a20.478 20.478 0 01-1 3.178c-.06.096-.118.19-.175.286-.086.143-.173.287-.268.43l-.323.66-.075.15c-.069.14-.13.266-.265.462-.117.168-.233.313-.334.438-.056.07-.106.133-.149.19a22.61 22.61 0 01-2.247 3.023c-.158.35-.315.683-.497 1.057l.681-.494c-.095.108-.17.196-.244.283a13.42 13.42 0 01-.452.513c-.333.358-.808.851-1.07 1.074-.26.223-.53.454-.926.797l.792-.796.673-.796-.793.423a8.17 8.17 0 00-.578.605 4.388 4.388 0 01-.333.334 6.267 6.267 0 01-.475.35l-.246.001c-.704.465-1.373.98-2.005 1.538l-.895.558-.793.478-.983.63c-.317.191-.69.407-.967.55a11.51 11.51 0 01-.928.44c-.114.047-.23.097-.35.148-.245.105-.504.215-.792.323a23.931 23.931 0 001.674-.52c-.365.215-.706.398-1.054.582-.24.016-.642.153-1.082.302-.434.147-.905.307-1.298.379-.135-.04.174-.144.531-.248.357-.104.658-.208.547-.271-1.007.312-2.07.633-2.808.801-.881.13-1.5.203-2.127.268l.73-.264-1.151.146a17.4 17.4 0 01-1.174.408c-.738.097-1.222.146-1.818.195l-.476.247c-1.055.09-2.115.121-3.175.096-.11-.015-.23-.038-.345-.06a3.013 3.013 0 00-.45-.065l-.491.001a3.32 3.32 0 00-.15.795 6.448 6.448 0 00.076 1.5c.178 1.06.463 2.1.85 3.102a7.82 7.82 0 01-.8-2.38 7.63 7.63 0 01-.228-2.238c-.032-.11-.088-.182-.088-.182.007-.207.03-.421.062-.532.032-.112 0-.143-.095.056-.011.158-.01.317.001.476a1.643 1.643 0 01-.039.289c-.016.08-.031.154-.031.235a2.65 2.65 0 00-.054.651c.03.18.07.357.12.532.025.117.065.257.102.386.026.089.05.172.067.24.04.167.04.334.041.524.09.283.205.566.318.844l.05.124c.209.62.323 1.267.338 1.92.184.445.376.889.567 1.317l.217.737c.221.472.488.92.797 1.34.59 1.253 1.022 2.212 1.334 3.006a48.49 48.49 0 001.37 2.205l.041.061-.604-.292a1.076 1.076 0 00-.063.191v-.103a.552.552 0 01.055-.12l-.151-.07.064.23v.063a.595.595 0 000 .238.608.608 0 00.057.127l-.064-.087-.12-.214-.287-.372-.19-.27-.096-.047a2.282 2.282 0 01-.461-.118c-.105-.03-.218-.066-.331-.101a6.54 6.54 0 00-.654-.182 4.75 4.75 0 01-.461-.142 4.638 4.638 0 01-.493-.237l-.127-.062c-.3-.146-.597-.29-.827-.38-.347-.121-.77-.393-1.173-.65-.409-.263-.797-.511-1.06-.575l-.383-.26-.373-.27-.724-.546c-.397-.26-.762-.582-1.114-.892a37.08 37.08 0 00-.255-.223c-.17-.122-.311-.215-.446-.304a19.9 19.9 0 01-.198-.131 4.273 4.273 0 01-.676-.61l-.494-.618-.077-.077c-.426-.432-.835-.845-1.173-1.301-.159-.214-.33-.422-.504-.633-.22-.266-.443-.537-.651-.833-.26-.368-.498-.737-.733-1.103l-.311-.482-.455-.793c-.066-.116-.127-.243-.187-.37h-.001a4.58 4.58 0 00-.243-.462 2.478 2.478 0 00-.152-.207c-.11-.138-.213-.27-.263-.475-.02-.086-.041-.17-.063-.254a9.888 9.888 0 01-.161-.714l-.493.002a35.515 35.515 0 01-2.732-.319l-.032-.009c-.148-.04-.395-.108-.69-.203l-.794.002-.795-.276a49.646 49.646 0 00-1.132-.195c-.825-.135-1.608-.264-2.546-.526-.183-.142-.31-.253-.437-.364a6.575 6.575 0 00-1.47-.456 30.255 30.255 0 01-2.854-1.303l-.517-.388c-.246-.094-.485-.189-.858-.362-.438-.301-.9-.665-1.337-1.013a7.94 7.94 0 01-1.17-1.053c.08.045.157.091.234.138.126.075.25.15.379.218a1.37 1.37 0 00-.183-.19 18.431 18.431 0 01-2.858-2.82l-.27-.086-.1-.11h-.001c-.095-.104-.196-.214-.29-.341l-.198-.262-.184-.27-.358-.562a8.12 8.12 0 00-.196-.302c-.173-.26-.345-.515-.466-.871a17.148 17.148 0 01-.441-1.508 16.748 16.748 0 01-1.1-4.466l-.357-.357c.003-.149.014-.277.025-.407.014-.16.028-.324.028-.53a17.466 17.466 0 01.984-6.012v-.294c.017-.059.04-.126.061-.193.056-.169.112-.34.112-.403a4.484 4.484 0 00-.002-.58c.167-.167.283-.27.404-.376l.016-.014c.163-.254.305-.541.442-.82.116-.234.229-.462.348-.658l.315-.795c.523-.849 1.09-1.67 1.7-2.458.302-.27.563-.51.793-.732l-.066.153a7.885 7.885 0 00-.203.499 16.916 16.916 0 00-1.755 2.704c.285-.446.547-.835.79-1.194.363-.538.681-1.01.965-1.51a26.056 26.056 0 011.773-2.164c.091-.067.2-.132.316-.2.258-.154.552-.328.77-.597.316-.39.578-.7.942-1.114.028-.02.067-.05.115-.088.101-.077.242-.184.408-.303l.498-.596a42.944 42.944 0 012.765-2.39c.035-.02.071-.043.11-.067.158-.099.341-.212.54-.315l.372-.358c.06-.05.12-.1.181-.153.097-.083.195-.167.302-.245.34-.255.698-.486 1.054-.718.105-.068.209-.137.312-.206.247-.166.493-.33.75-.471l.618-.486.587-.232a38.236 38.236 0 013.965-1.908 40.34 40.34 0 013.966-1.368c.52-.18.93-.308 1.286-.42.165-.052.319-.1.467-.148a.628.628 0 00.245-.152l1.032-.193c.246-.088.5-.176.746-.248a7.35 7.35 0 011.587-.147l.428-.263a4.531 4.531 0 011.381-.004c-.46.073-1.031.17-.523.168l.523-.168c.169-.017.335-.044.5-.08.15-.067.296-.145.436-.232.135.01.261.018.383.025.271.017.516.033.769.06V13l.937-.003.929-.145.904-.113c.244.015.472.045.698.075.107.014.212.029.319.041l.034.004c.323.037.654.076 1.022.144l.452-.176a1.46 1.46 0 01.262 0c.22.015.443.045.665.075l.32.041c.326.039.66.086.977.14l.977.172.953.204v.08a8.341 8.341 0 01-.834-.14l-.826-.142a9.671 9.671 0 00-1.723-.217v.047c2.394.32 4.75.88 7.03 1.673h-.253c-.24-.065-.481-.146-.726-.228-.282-.095-.57-.192-.864-.268a34.338 34.338 0 01-.421-.112c-.4-.109-.79-.214-1.167-.272l-.429.096c-.143-.042-.278-.084-.41-.124a11.59 11.59 0 00-.75-.214l-.254-.15a33.26 33.26 0 00-3.844-.45l-.492.167-1.072.003a3.24 3.24 0 00-.873.074 32.155 32.155 0 0112.113 2.064l-.628-.372 1.446.465a11.231 11.231 0 00-1.36-.695l.683.078a6.484 6.484 0 01-.564-.348c-.072-.08.079-.08.079-.08l.262.063c.346.195.704.367 1.073.513.313.125.608.293.875.498 1.041.434 1.907.852 2.734 1.295l.796.57c.142.07.29.14.438.209.265.124.537.252.802.398l.493.428c.848.56 1.66 1.17 2.434 1.827.067.127.15.244.247.35-.11-.08-.225-.172-.325-.25-.237-.188-.384-.304-.16-.02l.485.27c.177.155.363.3.557.434.19.119.374.248.549.388a22.614 22.614 0 00-2.714-2.446c.451.241.867.545 1.233.902l.692.585c.111.092.22.203.324.308.12.122.235.238.337.31l.143.1c.143.099.287.198.43.311l.644.507.366.396.375.451c.282.314.548.641.796.982l.383.515.199.262.183.293.407.642.223.357.215.388a11.342 11.342 0 00-.691-.895l-.066-.08-.04-.047-.382-.467-.437-.475-.55-.713-.796-.895c-.08-.072-.167-.071-.167-.071-.072-.07-.147-.145-.217-.216l-.001-.001c-.254-.256-.446-.45-.228-.108l.038.029c.124.095.256.195.408.296a26.536 26.536 0 014.433 7.133c.03.085.05.173.064.262l-.415-.793a20.543 20.543 0 00-.07-.145l-.023-.046-.002-.004v-.002a29.755 29.755 0 01-.193-.398c-.12-.253-.279-.57-.51-.998l-.302-.047c.31.451.542.8.638.95.095.151.247.469.39.794l.175.38c.247.532.49 1.057.569 1.531.065.395 0 .399-.067.402-.032.002-.065.004-.083.05.136.474.265.935.383 1.412-.006-.053-.006-.103-.006-.15l-.057-.428c.04-.217.164.029.277.252.127.251.24.474.2-.031l-.16-.468-.216-.548.095-.23c.406.88.606 1.84.587 2.809l.093.363c.091.356.165.641.22.93l-.062.627c.028.162.04.324.053.485.012.163.024.324.053.484.056.317.057.635.058.944.038-.15.068-.274.092-.374v-.002c.05-.207.075-.31.097-.315.031-.008.103.222.152.675l.079-.326zm-31.49 22.86c-.05.527-.05 1.06.005 1.587a3.827 3.827 0 01.066-2.176 5.804 5.804 0 01-.07.588zm29.248-29.897a21.555 21.555 0 00-1.294-2.902.317.317 0 00-.135-.087 22.547 22.547 0 011.43 3.172.635.635 0 000-.183zm-1.838-4.584c.137.224.257.457.359.698a5.761 5.761 0 01-.781-1.26c.155.176.296.364.422.563zm-.428.113a1.631 1.631 0 00-.056-.206 1.628 1.628 0 00-.144-.174.16.16 0 000 .055l.2.325zm-2.79-4.081c.383.393.74.81 1.067 1.251l-.139-.142-.129-.133c-.533-.547-.92-.944-1.276-1.388.172.106.332.23.477.372v.04zm-6.052-4.582l-.986-.529a1.71 1.71 0 01-.237.128 25.6 25.6 0 017.421 5.538c.034.008.07.008.104 0a23.02 23.02 0 00-3.049-2.843 13.2 13.2 0 00-.708-.792 4.974 4.974 0 00-.955-.625 20.82 20.82 0 01-.866-.45l-.724-.427zm-4.284-1.893c.159.07.294.142.437.22h-.063l-.493-.196-.12-.063c.08 0 .183.015.24.039zm-17.18-2.16l-.142.03a.063.063 0 00-.031-.009l.19-.025-.017.003zm.016-.004c.146-.031.294-.062.445-.08l.89-.097.896-.066.46-.001c-.998.054-1.901.142-2.69.244zm-1.809.292l-.666.105.444-.136.222.03zm-2.872.404a3.842 3.842 0 01-1.388.361c.442-.19.91-.311 1.388-.36zm-2.855.802c-.161.111-.341.193-.532.24a7.13 7.13 0 01-.793.216 4.31 4.31 0 011.325-.456zm-1.906.736l-.476.16-.032-.04a7.208 7.208 0 00-.824.375l-.103.064c.492-.2.967-.391 1.435-.56zm-13.656 8.783l.198-.143-.087.103-.38.374h-.056l.325-.334zm-8.14 19.195a2 2 0 000 .246c.034.14.073.27.113.401l.023.075a2.57 2.57 0 010-.262c-.049-.15-.097-.301-.137-.46zm4.428 8.65l-.08-.2.016.033.454.452.486.443c.205.204.43.392.656.58.124.104.249.208.37.314.037.038.07.08.096.127a11.913 11.913 0 01-1.998-1.75zm-.086-.214a.28.28 0 00.005.013l-.005-.013zm0 0c-.018-.047-.018-.085-.018-.127l-.382-.42c.107.174.233.336.375.483l.025.064zm3.904 3.563a.947.947 0 00.16.182l.246.102-.191-.198a1.43 1.43 0 00-.215-.087zm3.11 1.642c.467.123.918.3 1.343.529a3.176 3.176 0 01-1.391-.56l.048.031zm10.152 2.451l.255.102-.048-.031c.092.019.185.03.278.03a1.187 1.187 0 00-.222-.102l-.263.001zm2.465 1.502c.076.133.135.233.16.23.236.497.474.926.39.499l-.017-.027c-.102-.16-.166-.26-.166-.147a21.176 21.176 0 01-.163-.355c-.172-.379-.273-.6-.204-.2zm13.569 9.436l.128.158-.328-.666-.358-.555c.183.365.375.722.558 1.063zm-2.268-5.068c.042.066.08.135.112.207v.246c0-.084-.043-.17-.085-.256-.018-.037-.036-.073-.05-.11a.246.246 0 01-.025-.126l.048.04zm.056-5.771v.04l.135-.04h-.135zm4.232-.075l-1 .003c.021-.065.253-.107.483-.148.193-.035.383-.07.445-.117.556.03.5.11.024.223l.048.04zm2.957-.89c-.571.177-.54.256-.095.255l1.008-.185a6.956 6.956 0 01-.406-.034 4.71 4.71 0 00-.507-.035zm3.66-.032h-.27l.246-.103c.082-.01.165-.01.246-.001-.087.03-.178.052-.27.064l.048.04zm-1.135-.24l.032.044-.047-.04.015-.003zm.417-.095l-.417.096-.11-.147c-.444.13-.904.199-1.366.202l1.103-.21h.262c.485-.102.98-.15 1.476-.14a13.66 13.66 0 00-.948.199zm2.788-.766l-.411.092a.554.554 0 00.089-.05c.028-.019.054-.035.075-.041l.484-.12-.237.119zm-.469.104a.154.154 0 00.058-.012l-.058.012zm1.55-.052a1.9 1.9 0 00.246-.056c.159-.088.301-.16.452-.208-.08.013-.16.031-.238.057-.14.053-.262.112-.386.172l-.074.035zm9.604-6.947l.028-.03a1.8 1.8 0 00.13-.058c.05-.07.096-.145.135-.223l-.265.281c-.016.006-.026.008-.028.006v.024zm4.524-6.435a.86.86 0 00.127-.207c.037-.108.07-.218.096-.33l.03-.067a.48.48 0 010-.064 3.668 3.668 0 01-.03.132l-.038.088c-.048.109-.095.215-.138.328l-.047.12zm1.796-8.516a7.692 7.692 0 01-.178-1.444c.173.446.234.928.178 1.404v.04zm.222 3.302c.007.081.023.161.048.238.017-.075.027-.153.031-.23v-.278l-.08.27zm-56.67-15.872c.97-.886 1.972-1.74 3.002-2.556l-.222.112.467-.43.468-.39c-.14.059-.275.128-.405.207-.235.175-.464.365-.684.547-.24.198-.468.386-.678.536a2.157 2.157 0 01-.357.168 90.32 90.32 0 00-1.822 1.592c-.174.326-.174.461.23.214zm1.948-1.974l-.349.422c-.381.223-.095-.03.216-.304l.133-.118zm9.146-5.455a37.242 37.242 0 00-5.954 3.191c-.31.142-.339.093-.367.044-.018-.03-.035-.061-.125-.042l1.181-.797.27-.001a5.273 5.273 0 001.466-.956l.452-.152.357-.128.182-.097c.154-.082.31-.164.468-.239l.722-.311c.468-.24.975-.455 1.507-.671-.034.03-.058.063-.08.091-.029.039-.051.068-.079.068zm-12.997 9.101l-.215-.11c-.256.314-.503.577-.712.8-.235.252-.422.452-.522.616l.91-.701.54-.605zm10.556-8.224c.007-.078.012-.134.372-.307l.262-.121a39.992 39.992 0 012.251-.973c-.497.247-.936.45-1.336.635-.582.27-1.08.5-1.55.77v-.004zM18.127 48.367c-.24-.516-.48-1.04-.679-1.586 0-.025.002-.046.005-.068.01-.098.021-.202-.181-.63l.035.172c.029.14.061.302.117.518-.014.009-.035.005-.054 0-.065-.014-.123-.026.055.468.17.245.356.61.561 1.016.093.184.19.377.293.57l-.001.042c-.004.11-.008.201.305.632l-.264-.635c.044 0-.022-.14-.115-.336l-.077-.163zm24.77-34.45a3.008 3.008 0 00-1.366.322c.464-.065.921-.172 1.365-.322z" fill="#1263EB"/><path fillRule="evenodd" clipRule="evenodd" d="M51.33 12.625l.293-.12-.262.001a2.082 2.082 0 00-.23.088c.065.015.132.025.199.031zm7.572.338c.082.02.161.047.239.079l-.5-.054a1.192 1.192 0 01-.239-.079l.5.054zm13.425 5.363c.369.329.772.618 1.201.862a3.176 3.176 0 00-1.2-.862zm10.316 16.122c.013.497.073.991.178 1.477.063-.5.002-1.007-.178-1.477zm-65.769 1.85c-.084.074-.144.127-.224.664.04-.112.085-.221.141-.356.043-.105.093-.226.151-.375a2.91 2.91 0 00.214-.398c.045-.118.088-.257.133-.401.058-.184.119-.378.19-.552a2.088 2.088 0 00-.27.437 7.567 7.567 0 00-.314.962 1.383 1.383 0 01-.02.017v.001zm-.61 4.54l-.015.024.001.115c.002.208.004.45-.022.703.039.217.04.44.002.659a7.76 7.76 0 01-.082-.945c.008-.159.035-.316.078-.469.015-.195.046-.344.072-.471.025-.121.045-.222.045-.323.03.548-.009.606-.078.708zM43.964 13.48c.08-.006.159-.007.238 0-.068.034-.14.06-.214.08a.74.74 0 01-.246 0l.222-.08zm-4.243 1.266l.23-.16-.262.049c-.07.046-.136.096-.198.151l.23-.04zm-23.24 23.18v.237c-.029.08-.066.158-.11.23a1.445 1.445 0 01-.001-.245.953.953 0 01.11-.223zm-.138 5.302v.278c.031.077.068.152.112.222v-.238l-.112-.262zm26.55-29.308c.001.079.247.046.747-.066.047-.08-.223-.063-.746.066zM19.1 50.159c.033.079.07.156.112.23.096.14.202.273.319.396a1.41 1.41 0 00-.12-.222l-.31-.404zm51.849 5.81l-.27.072.214-.167c.077-.025.157-.04.238-.048a1.44 1.44 0 01-.182.143zm1.023-.7l.262-.08c.063-.05.122-.106.174-.167a1.447 1.447 0 00-.23.072l-.206.175zm6.843-6.227c-.065.052-.134.1-.206.143a.895.895 0 01.119-.207 1.07 1.07 0 01.198-.143c-.032.072-.069.14-.11.206zm1.045-1.56a.844.844 0 00.158-.19c.089-.146.168-.297.237-.453-.056.063-.109.13-.158.199a3.227 3.227 0 00-.234.438l-.003.007zM58.162 59.98l-.278.001.262-.112c.081.01.161.028.238.055a1.03 1.03 0 01-.222.056zM47.875 12.754h-.27c-.08.016-.156.04-.23.073a.93.93 0 00.238.039l.262-.112zm-31.102 31.44v-.27l.127.246c.005.08.006.16 0 .239a1.52 1.52 0 01-.127-.214zm40.86-30.72c.452.14.926.196 1.398.163a5.123 5.123 0 00-1.397-.163zm5.165 1.186a1.807 1.807 0 01-.223-.103l.477.118c.077.03.15.064.223.103a5.21 5.21 0 01-.477-.118z" fill="#1263EB"/><circle cx="33.969" cy="37.758" r="3.382" transform="rotate(-.15 33.969 37.758)" fill="#EDE0D9"/><path fillRule="evenodd" clipRule="evenodd" d="M31.406 38.569c-.047.03-.101.063-.021.063l.039-.074-.018.01zm.024-.022a1.352 1.352 0 01-.102-.296 1.485 1.485 0 00-.357-.078v-.048a5.038 5.038 0 00-.875-.355h-.365l.04.406-.094.111c0 .138.043.282.085.427l.02.065.127.055c0 .043.02.08.04.119.032.061.065.123.016.207-.053.09-.114.06-.172.029-.028-.015-.056-.029-.082-.029-.04 0-.04 0-.03.006.01.006.03.018.03.042.023.11.073.214.144.301h.11l-.165.199c.034.02.05.054.064.088.02.044.04.089.103.102a.395.395 0 000-.095l-.003-.024c-.006-.035-.013-.072.09-.072 0 .037.021.065.043.094.03.04.06.08.037.144l-.119.104c0 .134.095.142.182.15h.001c.058.005.117.107.174.204.027.048.055.095.08.129l.001.135c.143.166.3.32.47.459h.135v.143h.087a.48.48 0 00.056-.112 4.318 4.318 0 01-.518-.49v-.049c0-.018.019-.035.038-.052.03-.026.062-.055.033-.099h-.11a1.189 1.189 0 00-.001-.166v-.167l-.139-.065c.023.005.032-.032.043-.075a.257.257 0 01.04-.098c.033-.04.051-.022.064-.01a.652.652 0 01.205.287l.001.112c.02.02.038.042.056.064.047.058.095.117.175.133h.095c.047.047.1.091.154.136a3.575 3.575 0 01.148.132h-.006c-.011-.003-.033-.007-.033.025h-.199c.088.286.104.302.24.381h.119v.127l.143-.04.15.087.041.143.127-.048.254.11c0 .052.022.1.043.147a.924.924 0 01.021.051v.104c-.103 0-.198 0-.301.04v-.119a1.248 1.248 0 01-.183-.087.183.183 0 01-.254 0 2.152 2.152 0 010-.253c-.042 0-.073-.024-.104-.048-.04-.03-.08-.061-.143-.039l-.072.096c.023.025.024.061.026.097.002.041.004.083.039.109h.119v.142l.318.182.334.142.143-.056c.343.128.7.212 1.064.252l.111-.088.096.11c.094.04.174-.006.251-.05.08-.046.156-.09.24-.038l.112.08.08-.104h.277a.303.303 0 00.052-.072c.038-.063.074-.122.17-.049l-.04.16h.056c.127-.018.252-.048.373-.09 0-.04.02-.072.04-.103.027-.044.054-.087.03-.15.022.032.048-.016.082-.075.03-.056.067-.121.109-.14.057-.026.04-.042.02-.059-.01-.009-.02-.018-.02-.029 0-.01-.016-.002-.039.01-.05.024-.135.067-.184-.009a.48.48 0 00-.206.062l-.04.018a.087.087 0 00-.047.111c-.024-.036-.049-.016-.062-.005-.004.003-.008.006-.01.006l-.063-.23v-.064l.269-.247c.04.044.088.067.135.091a.353.353 0 01.175.146l.206.048a.949.949 0 01-.036-.096c-.024-.07-.047-.135-.107-.19a.157.157 0 00-.068-.041c-.005-.002-.008-.002-.01-.004-.003-.004-.002-.012.002-.035 0-.008.002-.018.004-.03a.38.38 0 00.127-.065.611.611 0 00.055-.135 4.33 4.33 0 00.468-.295h.047l.001.207-.135.087h-.159c-.047.096-.094.176-.142.255-.047.08 0 .215.16.246v-.135c.146.046.15.04.208-.048l.005-.008-.063-.151.103-.072.04.035c.08.07.16.138.27.131l.02-.001c.113-.007.16-.01.114-.182h-.103v-.206c.03 0 .052-.025.073-.05.027-.033.055-.067.109-.054l.119.087.135-.047.302.118c.036 0 .025-.034.013-.07a.202.202 0 01-.013-.057l-.072-.12.055-.067a1.97 1.97 0 00.119-.155v-.15l.19.07c.064 0 .09-.06.114-.116.009-.02.018-.042.029-.059a.88.88 0 00.134-.238c0-.026.018-.05.037-.076.028-.038.058-.079.034-.131l-.151-.127.086-.214-.087-.071.095-.294c0-.075.02-.146.04-.216.008-.026.016-.052.022-.078l-.087-.095.11-.072-.087-.103.095-.056v-.103a.615.615 0 000-.111c.037 0 .06.023.085.047.026.026.052.052.097.048.058-.006.04-.093.02-.186a.77.77 0 01-.02-.14l-.318-.158-.152-.182c.018-.045.006-.09-.007-.14-.016-.062-.034-.132.006-.217 0 .087.048.19.112.23.064.04.088.134.104.214.005.026.007.035.01.035l.004-.006c.006-.01.018-.03.05-.03l.166-.143-.128-.15.08-.144-.136-.126.071-.08a4.687 4.687 0 00-.232-.69h-.11l.054-.127c-.029-.048-.056-.098-.084-.15-.042-.075-.084-.151-.131-.222l.095-.143h-.151a3.744 3.744 0 00-.263-.333.683.683 0 00-.127 0v-.142a.43.43 0 01-.04-.04c-.036-.041-.072-.081-.143-.063-.095.024-.151-.055-.191-.127v-.11a3.854 3.854 0 00-.644-.412v-.04a.469.469 0 000-.103l-.343-.213-.334-.11v-.127a2.663 2.663 0 00-.492-.087l-.477.002-.119-.111c-.056 0-.09.037-.121.07-.04.044-.077.083-.149.034l-.072-.175-.04-.002c-.058-.006-.11-.011-.11.098l-.127.04-.111-.095-.175.04-.071.135a3.92 3.92 0 00-1.237.567.151.151 0 01-.103-.04 1.363 1.363 0 00-.149.116l-.073.06v.143c-.02.021-.043.04-.065.057-.052.043-.1.082-.117.15v.103c-.03.024-.052.054-.073.083-.036.048-.071.096-.14.116l-.191-.087c.035.138.136.176.243.216a.91.91 0 01.123.053l-.111.096-.175-.095-.198.294-.166.048c-.07.12-.131.245-.182.374l-.04.02c-.091.044-.108.052-.15.179-.032.098.024.14.081.182.026.02.053.038.07.064.038.053-.007.16-.05.262-.02.051-.041.1-.052.143l-.142.087.175.357c-.135.064-.11.16-.07.255l.182.047c0 .047 0 .11.08.119.08.007.04 0 .04 0l-.001-.35.182-.19.047-.001v.15a.836.836 0 00-.118.112l.183.214.159-.096a1.642 1.642 0 010-.198l-.168-.135v-.079h.222a.782.782 0 00-.06-.053c-.051-.04-.101-.081-.107-.138.095 0 .148-.04.2-.081a.328.328 0 01.157-.078c.03-.12.07-.236.118-.35h.119l-.064-.111c0-.035.02-.057.04-.08.03-.032.058-.063.015-.135-.072-.119-.135-.118-.215-.118-.056 0-.032.067-.014.12.008.023.015.043.015.054a.373.373 0 01-.262-.15h.158a2.872 2.872 0 01-.151-.238.55.55 0 00.063-.08l.183.071c.05 0 .067-.04.086-.081.024-.052.048-.107.136-.094l.127.103-.047.056.135.103h.175c.095-.117.2-.223.316-.32l.104.04v-.11l.047-.08-.096-.183.253-.175c.09-.057.186-.106.286-.144h.048c0 .068-.043.086-.088.105-.05.02-.102.042-.102.134h.23c0 .06-.026.11-.052.155-.013.025-.026.05-.035.075l-.095-.064-.071.104.206.11.095-.159h.23c.033 0 .071 0 .115.04-.01.014-.006.031.021.047l.03.018c.02.03.042.058.065.085l.135-.048h.111l.063-.136.096.095v-.095s.079-.04.095 0c.005.013.022.026.043.043.042.032.1.078.116.163.119-.012.238-.012.357-.001l.111-.199.064.127c.025 0 .05-.025.072-.05.03-.029.056-.056.078-.03v.111c.04 0 .12 0 .144.087v.088a.85.85 0 01.175.078v.12h.048l.142-.16v.111c.115.075.224.157.327.246h.111l.143.15c.11-.048.2-.079.285-.107l.04-.013c.097.126.184.259.264.396-.024.102-.058.2-.103.294a1.455 1.455 0 01-.126.247h.103c.035.1.064.204.088.309h.072l.078-.263c.03.099.051.2.064.302.104.087.176.158.24.222l-.191.048v.166l-.119.096-.118.096v.198h-.111c-.014.07-.032.14-.055.207l.087.095c0 .024-.01.044-.02.063-.022.038-.042.075.021.143l.143.048a.382.382 0 01.095-.128c.058-.033.12-.063.182-.087 0 .026.022.05.046.075.034.037.072.078.058.139h-.222c-.035 0-.057.02-.081.039a.175.175 0 01-.07.041c-.048.012-.078.048-.104.078l-.023.026-.158-.063c0 .082-.104.094-.2.106a.414.414 0 00-.133.03c.024.04.065.07.105.099.051.036.1.072.11.13-.088 0-.16 0-.255-.103a.365.365 0 00-.103-.126l-.03.032c-.075.084-.1.11-.098.137 0 .012.006.024.015.042l.002.003h.143v.222a2.434 2.434 0 01-.34.303v.135c-.18.131-.377.236-.587.31 0 .104-.039.2-.134.097l-.072-.262h-.08a.5.5 0 01-.08-.095l.001.238c-.045-.093-.093-.09-.14-.089-.045.002-.087.004-.122-.077v.04a.135.135 0 010 .055v.096c0 .031-.095.055-.103-.08-.048 0-.095 0-.127.08-.022.056-.053.033-.077.015-.01-.008-.02-.015-.026-.014a1.381 1.381 0 01-.056-.167l.055-.111c-.03-.048-.064-.044-.096-.039-.027.004-.054.008-.079-.017-.031-.03-.047.011-.062.05-.012.032-.023.06-.04.054v.095c.018.025.043.028.068.03.03.003.058.006.067.05.014.07-.048.168-.101.25l-.017.027-.001-.23c-.052 0-.092.045-.132.09-.033.037-.066.075-.106.085v-.11a1.323 1.323 0 01-.254-.063c0-.088 0-.175-.104-.111l-.118.175c-.055-.042-.084-.116-.11-.187a.42.42 0 00-.09-.162l-.15.167a.683.683 0 00-.085-.049.721.721 0 01-.106-.062v-.095l-.08-.055-.127.048c-.05 0-.043-.033-.035-.072.006-.03.012-.063-.005-.087h-.119a1.287 1.287 0 01-.151-.134c0-.036.014-.075.028-.112.016-.045.032-.088.019-.119-.012-.027-.054-.027-.09-.027-.035 0-.065 0-.053-.028l.103-.127v-.19l-.207.087.158-.183c-.014 0-.018-.014-.023-.032-.008-.03-.018-.068-.088-.063l-.286.104c.092-.104.155-.166.205-.215l.04-.04c.034-.033.005-.049-.02-.063-.018-.01-.034-.019-.027-.032a.183.183 0 000-.27h-.088l-.098.186zm2.46 1.754l-.055.103c0-.055 0-.075.01-.086.006-.007.016-.01.033-.014l.012-.004zm-.53-4.776l.009.005c.025.016.038.025.046.02.01-.004.01-.03.01-.09l.048-.025c-.034-.034-.14-.011-.164.025a.263.263 0 01.052.065zm-1.705.248l.063-.072c.08 0 .128.048.16.127a.286.286 0 01-.223-.055zm.203-1.39c0 .19-.07.239-.19.23 0-.09.05-.123.105-.161a.444.444 0 00.085-.069zm1.72-.687a.325.325 0 01.096.063c-.052.072-.067.026-.084-.029a.63.63 0 00-.011-.034zm1.316 8.094l.104.048c-.043.073-.063.033-.084-.01-.006-.014-.013-.027-.02-.038zm.302.033c-.01-.053-.02-.105-.088-.105 0 .106.024.113.052.122.016.005.033.01.048.035a.372.372 0 01-.012-.052zm-4.705-1.76c-.019-.014-.029-.031-.038-.048-.018-.032-.035-.063-.113-.063.024.112.024.112.151.111zm2.61-5.327c.01.025.019.05.019.073-.013.005-.018.015-.018.027-.025.049 0 .078.013.092l.003.004a.093.093 0 01-.013.022c-.016.022-.033.045.015.093a.492.492 0 000-.127c0-.013-.005-.029-.01-.044-.004-.014-.008-.028-.008-.04a.158.158 0 01.018-.027l.008-.01c.056-.07.06-.075-.009-.204-.053.042-.035.092-.017.14zm1.028 5.866c.036-.06.045-.028.058.033a.105.105 0 01-.01-.025c-.015-.053-.024-.035-.032-.02-.005.011-.01.022-.016.012zm.058.033a.14.14 0 00.078.059l.006.003h-.015c-.028 0-.036.024-.04.036 0 .004-.002.007-.003.007a1.289 1.289 0 01-.025-.097l-.002-.008zm-2.58.232c.05.016.084.028.084-.06-.012.003-.015.015-.018.028-.005.02-.01.042-.054.027a.947.947 0 01-.027-.009c-.06-.022-.108-.04-.107.057a.165.165 0 00.022-.042c.007-.02.009-.024.057-.013.015.003.029.008.042.012zm1.515-5.62c-.027.038-.04.058-.056.059-.007 0-.013-.003-.022-.01a.438.438 0 00.012-.029c.017-.045.035-.093.066-.037v.016zm-.127 0c.022.024.037.04.05.05-.01.022-.021.034-.034.013l-.007-.011c-.01-.018-.023-.036-.034-.052h.025zm-.08 0h.055c-.029-.042-.054-.065-.054 0zm1.366-1.282c-.033.033-.067.069-.066.142.046.01.095.005.139-.015l.005.015.001.023c.005.078.007.119.07.063a.143.143 0 00-.065-.07.097.097 0 01-.006-.016l-.002-.017-.003.002c-.01-.04-.011-.092-.012-.133-.001-.05-.002-.082-.017-.051a.233.233 0 01-.044.057zm-2.225 6.665l.182-.15c0 .06-.017.12-.033.178a1 1 0 00-.03.123c-.014.096-.16-.034-.237-.104l-.017-.014v-.064a.151.151 0 01.095.008l.04.023zm-.135-.03v-.033a.341.341 0 010-.095c.074 0 .056.029.027.08a.747.747 0 00-.027.047zm1.985 1.389c.005.01.01.02.02.034l-.04-.024a.185.185 0 00.02-.01zm.067-.069a.19.19 0 01-.067.069c-.02-.048.011-.055.06-.067l.007-.002zm.029-.007a.733.733 0 01-.03.007h.001a.202.202 0 01.029-.007zm0 0a.206.206 0 01.21.093l.087-.111c.023-.008.048-.008.074-.008.053-.001.108-.002.14-.072v-.15h-.215l-.08.095c-.056-.032-.084-.048-.111-.047-.026 0-.052.017-.102.048a.301.301 0 000 .15l-.003.002zm3.402-2.519c.064.048.043.085.021.121-.01.018-.02.035-.02.054l.159.079c0 .097-.04.168-.084.25a1.237 1.237 0 00-.074.147l-.365.001a3.18 3.18 0 00.134-.215h.143c0-.038.026-.076.051-.114.017-.026.035-.051.044-.077.01-.024-.004-.055-.019-.087-.023-.052-.048-.11.01-.159zM31 40.102v-.286h-.009a.183.183 0 01-.06-.08c-.019-.038-.037-.076-.091-.094a.103.103 0 000 .143c.026.033.013.076.002.115-.01.035-.02.069-.001.091l.015.02c.05.06.144.176.144.091zm1.464 1.608c.102 0 .177.023.247.045.045.014.088.027.135.033l.038.005c.025.003.032.004.033.007l-.001.004c-.003.005-.008.014.001.032.012.024-.012.024-.044.024-.033 0-.075 0-.099.024-.044.029-.087.06-.126.096 0-.08-.048-.118-.097-.157-.038-.03-.077-.06-.095-.113h.008zm2.152-7.393c.05.043.096.083.171-.004l.047-.223c-.024-.047-.048-.047-.087 0-.04.048-.04.136-.04.136l-.15.048c.021.01.04.027.06.043zm-.48.465c0 .048 0 .08-.047.08a2.223 2.223 0 01-.262 0c.135-.127.222-.127.301-.08h.008zm-1.872-.161l.103-.096-.104-.19-.127.12.128.166zm2.944-.285l.003-.002c.084-.054.094-.06.251.056-.143.033-.214.025-.262-.054h.008zm1.894 1.637h.222a.505.505 0 00-.048-.12l-.008-.015-.103.072a.449.449 0 00-.063.063zm-5.687-.596c0 .03 0 .05-.006.07-.01.032-.04.06-.121.137-.016-.135.031-.191.119-.207h.008zm5.141 4.956c.143-.111.143-.119.142-.206h-.008c-.079.016-.126.072-.134.206zm.806-1.97c.072.063.064.118 0 .15-.063.032-.095-.11-.008-.15h.008zm-.247.207H37.035a.378.378 0 00-.023.087h.063a.432.432 0 00.04-.087zm-.072-.866c.127 0 .095.072 0 .135-.064-.063-.072-.095-.016-.135h.016zm-5.99 1.968c-.088 0-.12 0-.08-.127.04-.127.135.016.08.127zm-.57-2.56l-.009-.01.048-.024a.119.119 0 00-.039.034zm-.008.15c.068-.039.07-.084.008-.15-.051.065-.067.182-.008.15zm3.343-3.241v.063h-.11l-.001-.071a.554.554 0 01.159-.016l-.048.024zm3.048 6.406c-.111-.007-.111.032-.11.136l.047-.024c.095.007.174-.104.063-.112zm-6.511-.752l.047-.064h.048c0 .04 0 .08.04.111l-.055.04a.302.302 0 01-.08-.087zm-.31-.357h.047l.056-.056c-.02 0-.024-.002-.026-.003h-.001l-.013.003c-.024.008-.111.056-.063.056zm-.009-.332s.04-.04.064-.048l.013-.004h.002c.003.002.009.004.033.004l-.064.047h-.047zm2.276-3.953a.306.306 0 000-.08l-.04.08h.04zm-1.522.853v.04h.08v-.04h-.08zm6.726.952h.08l-.08-.04v.04zm-1.103.273l.063-.04-.103.04h.04zm-4.96 3.188h.04a.15.15 0 010 .055h-.047s.007-.087.007-.103v.048z" fill="#EDE0D9"/><path fillRule="evenodd" clipRule="evenodd" d="M31.545 35.853c-.04 0-.08-.063-.04-.087.027-.016.043-.01.058-.005a.062.062 0 00.021.005l-.04.087zm6.454 3.38c0 .069-.035.143-.08.238l-.022.049a1.577 1.577 0 00-.12-.167l-.15-.063.094-.286.135-.064.078-.373.047-.381s.087 0 .087.04v.285l.08.135c0 .059-.039.084-.08.112a.227.227 0 00-.086.079l.064.158h-.04c-.118.128-.118.128-.007.239zm-4.459.973c-.095.104-.158.088-.373.001.043-.065.072-.041.098-.02.013.01.025.02.037.02a.599.599 0 01.127 0l.087-.096a.037.037 0 00.005.004c.011.008.033.023.02.091zm.509.054v.088a.292.292 0 00.043-.074c.01-.03.005-.065-.004-.149l-.075.006c-.067.005-.095.007-.107.022-.008.01-.008.029-.008.06l.15.047zm.58-.152l-.001-.103h.111c.034.008.07.008.103-.001v.087l-.118.048a.206.206 0 01-.025-.015c-.021-.014-.042-.028-.07-.016zm.827 1.577l-.11.064c.285-.017.412-.088.324-.12-.052-.019-.096.005-.137.028a.172.172 0 01-.077.028zm-3.098-1.65c-.031 0-.022-.032-.012-.07.005-.022.011-.045.011-.065a.19.19 0 01.087-.047s.056.055 0 .127c-.028.037-.04.033-.05.03-.01-.003-.017-.005-.036.026zm-.223-.436l-.096-.047a.453.453 0 01-.031.1c-.014.032-.022.051-.008.099a.238.238 0 00.135-.152zm.436.435s-.064.072-.087.072h-.08l.063-.096.103.024zm0 0h-.001c.047-.043.068-.063.086-.06.015.003.026.023.049.06-.039.058-.054.045-.076.026-.014-.012-.031-.026-.059-.026zm-.246-.173a.182.182 0 01-.079 0v-.072l.055.056.024.016zm3.095-.287c0 .087 0 .111-.079.072-.08-.04 0-.103.08-.072zm-.278.264s0 .047-.048.055c-.04.007-.04.002-.049-.031a.634.634 0 00-.006-.024h.103zm-.189.016l-.055.048.032.04H35v-.04a.068.068 0 01-.021-.06c0-.012 0-.012-.027.012zm2.145 1.058a1.033 1.033 0 010-.143.472.472 0 01-.028.055c-.026.047-.042.076.028.088zm-.823-1.92l-.056-.054h.04l.063.055h-.047zm-1.558 1.3v-.096l-.048.024c.047.023.048.063.048.071zm-2.422-.161l.063-.096h.047c-.039.104-.079.12-.11.096zm2.308.089h.055l-.056-.127v.127z" fill="#EDE0D9"/><path fillRule="evenodd" clipRule="evenodd" d="M52.421 38.886c0-.07.022-.136.043-.202.01-.03.02-.061.028-.092l-.088-.095.08-.071-.088-.103.095-.056v-.104a.625.625 0 010-.11c.036 0 .058.022.08.045.025.026.051.053.102.05.063-.006.043-.093.022-.186a.698.698 0 01-.023-.14 2.966 2.966 0 00-.318-.158l-.151-.183a.462.462 0 00-.015-.1c-.017-.073-.035-.154.014-.257a.568.568 0 01.04.098c.018.056.034.107.08.132.057.032.073.098.09.164l.014.05c.008.027.01.036.012.035.002 0 .003-.002.004-.005.005-.01.015-.03.047-.03l.166-.143-.135-.15.087-.144-.135-.127.063-.08a3.9 3.9 0 00-.224-.69l-.12.001a.608.608 0 00.056-.127 2.761 2.761 0 01-.077-.14l-.019-.036h.008a1.407 1.407 0 00-.072-.182l-.03.022a1.015 1.015 0 00-.025-.037V35.6h-.144a3.745 3.745 0 00-.262-.332.79.79 0 00-.135 0v-.142c-.02-.014-.035-.031-.05-.047-.035-.039-.066-.073-.134-.056-.095.024-.15-.055-.199-.127v-.11a3.86 3.86 0 00-.644-.412v-.143l-.318-.134-.334-.11v-.127a2.473 2.473 0 00-.485-.086h-.484l-.112-.11c-.056 0-.091.037-.124.071-.042.044-.078.081-.145.033l.039-.223a.479.479 0 01-.045-.002c-.062-.006-.112-.01-.106.098l-.127.04-.111-.095-.182.04-.072.136a3.97 3.97 0 00-1.229.566.151.151 0 01-.103-.039 1.815 1.815 0 00-.162.121 2.55 2.55 0 01-.068.054v.143a.87.87 0 01-.064.057c-.052.043-.1.083-.117.15v.103a.484.484 0 00-.066.079c-.037.05-.074.1-.14.12l-.19-.087c.029.14.13.177.242.218.04.015.083.03.123.051l-.11.096-.176-.095-.197.294-.167.048a2.77 2.77 0 00-.19.374l-.031.016c-.097.048-.108.053-.15.183-.033.098.024.14.08.182.027.02.053.039.07.064a2.02 2.02 0 00-.101.405l-.15.088.078.155c.034.07.068.138.105.202-.135.063-.111.158-.071.254l.183.047c0 .047 0 .111.08.119.054.005.033-.117.015-.225-.009-.049-.017-.095-.017-.125l.08-.087a3.13 3.13 0 000 .468l.001.183c-.071-.027-.147-.051-.223-.075-.102-.033-.206-.066-.301-.106h-.35l.002.406-.095.11c0 .16.056.326.112.493l.127.055c0 .042.019.08.037.117.03.062.06.124.012.208-.053.091-.11.06-.166.03-.027-.014-.054-.029-.08-.029-.04 0-.04 0-.03.006.01.006.03.018.03.042a.564.564 0 00.143.301h.111l-.166.199c.036.02.05.056.065.09.019.044.037.087.095.1a.399.399 0 000-.096c0-.04 0-.095.086-.095 0 .036.02.064.041.092.03.04.06.08.032.146l-.111.103c0 .135.094.143.181.15h.002c.078.116.163.228.255.334v.135c.14.166.294.32.462.459h.19v.142a.214.214 0 00.088 0 .472.472 0 00.055-.111 3.783 3.783 0 01-.517-.491v-.048c0-.019.019-.036.04-.053.03-.026.062-.055.039-.098h-.112v-.333l-.151-.071c-.12 0-.12 0-.152-.11.08-.001.1.03.12.063.01.017.02.034.04.047.032.023.043-.019.055-.069.01-.035.02-.075.04-.098.036-.043.054-.02.064-.007.003.004.005.007.007.007.008 0 .167.166.199.277v.111c.016.018.03.037.045.056.046.061.094.124.178.142h.103c.047.047.1.091.154.136l.109.093c.03.028.04.036.039.038h-.006c-.011-.002-.033-.006-.033.026h-.198c.08.286.104.302.23.38h.128v.128l.135-.04.159.087v.142l.135-.048.255.11c.016.068.038.135.064.2v.102c-.103 0-.199 0-.302.04v-.118l-.19-.087a.183.183 0 01-.255 0v-.253c0-.096-.128-.127-.239-.087l-.071.095c.022.026.024.062.026.098.002.041.004.083.038.109h.111v.142l.319.182.325.142.143-.056c.346.127.706.211 1.073.251l.11-.087.096.11c.095.04.175-.007.252-.052.078-.045.152-.088.232-.036l.111.08.08-.104.285-.001c.018-.017.032-.042.046-.066.038-.065.076-.129.168-.054l-.039.16.056-.001c.11-.066.214-.144.309-.231 0-.04.02-.073.04-.104.027-.043.054-.086.03-.15.02.032.044-.012.075-.07.03-.056.068-.125.115-.145.029-.012.04-.022.042-.03l.125.03a.635.635 0 00-.112-.326s-.087 0-.08-.11a.277.277 0 00.127-.065.27.27 0 00.056-.135c.164-.088.323-.186.475-.295h.048c.004.069.004.138 0 .207l-.134.087h-.151c-.048.096-.095.176-.142.255-.048.08 0 .214.159.246v-.135c.143.047.15.04.206-.056l-.064-.15.103-.073.055.044c.082.067.158.129.255.122l.022-.001c.105-.007.166-.01.12-.182h-.11l-.001-.206c.036 0 .059-.026.082-.052.028-.032.056-.064.108-.051l.12.087.134-.048.302.118c0 .021-.009.04-.017.056-.012.026-.022.045.018.055a1.078 1.078 0 000-.127.087.087 0 00-.001-.111l-.08-.12.182-.222v-.15l.199.07c.063 0 .089-.06.113-.116.01-.02.018-.042.029-.059.051-.076.096-.155.134-.238 0-.026.017-.051.036-.077.026-.038.054-.078.035-.13l-.151-.127.087-.214-.096-.071.055-.35zm-5.792-4.558c0 .191-.07.239-.19.231 0-.09.05-.123.106-.162a.445.445 0 00.084-.069zm1.721-.687a.493.493 0 01.096.063c-.057.07-.069.029-.083-.023a.451.451 0 00-.013-.04zm3.707 2.131l-.065.05h-.04a.48.48 0 00-.023.111h.222a1.817 1.817 0 00-.094-.16zm-2.14 5.904c.005.016.008.033.014.048a.074.074 0 00-.048-.034c-.029-.009-.054-.017-.059-.121.069 0 .081.053.094.107zm.01-.334a.378.378 0 01.158.12c-.052.024-.133.059-.174-.013l-.254.08a.096.096 0 00-.04.111c-.024-.036-.048-.016-.062-.005-.004.003-.007.006-.009.006a1.712 1.712 0 01-.064-.23v-.064l.31-.096c.04.044.087.067.135.09zm-.29.336a.294.294 0 00-.02-.037l.104.047c-.043.073-.062.033-.083-.01zm-18.032-5.73l-.064-.12c-.001.012-.003.023-.006.033-.009.045-.015.074.07.087zm6.48 3.22l-.12.065c.016 0 .03.003.045.005.067.01.114.016.074-.07zm6.756.087h.048l.055-.056h-.047l-.056.056zm.381.45a.428.428 0 01-.072-.094s0-.048.048-.064c.018.036.034.073.048.111l-.024.048zm6.933-1.247c0 .005.002.01.004.015h-.04a.238.238 0 00.036-.015zm0 0a.096.096 0 01.06-.112c.006.034.001.08-.06.112zm-5.417 2.06a.184.184 0 01.004-.077.631.631 0 01-.03.077.152.152 0 00-.05.01v.064l.017.008.025.022c.063.06.129.12.213.056v-.142l-.088-.056-.055.048a.157.157 0 00-.036-.01zm0 0h-.027l-.004.009-.005.01h.04a.178.178 0 01-.004-.018zm3.513-6.167c-.135 0-.206 0-.254-.055l.01-.006c.085-.05.09-.054.244.06zm-.794-.3a.509.509 0 000 .134l-.159.033c.021.01.04.026.06.041.053.044.103.086.179-.002v-.207c-.017-.047-.08-.047-.08 0zm-.415-.205c.012.005.02.011.026.019-.017.02-.038.038-.061.057a.577.577 0 00-.107.107.199.199 0 00.135 0 .186.186 0 00.008.032c0 .035.012.045.027.05.028.035.06.041.044.02-.009-.011-.021-.014-.033-.017a.129.129 0 01-.011-.003.164.164 0 01-.027-.05c0-.025.01-.052.019-.08.015-.043.03-.087.006-.116a.189.189 0 00.014-.02h-.04zm-.42.175v-.063h.04a.46.46 0 00-.15-.008v.071h.11zm-1.588.274l.096.19-.095.096-.12-.167.12-.12zm-.853 1.047v-.004h.015a.216.216 0 00-.015.004zm0 0c0 .029 0 .048-.006.065-.01.034-.04.06-.121.138.007-.125.062-.182.127-.203zm-.303.361l.127.048-.11.167-.08-.135.063-.08zm-.253.16v-.04h-.08l.001.04h.08zm-.338 1.335c-.072-.064-.064-.12 0-.16.063-.039.103.12.048.16h-.048zm.343 2.65c-.01.036-.02.07 0 .096l.015.008c.032.047.175.198.175.103 0-.032.008-.07.016-.106.015-.074.03-.148-.017-.18-.027-.018-.05-.057-.072-.094-.036-.061-.07-.12-.119-.08-.069.055-.054.074-.017.12l.01.013.008.01c.025.033.013.072.001.11zm.22-.246c-.096 0-.127 0-.088-.127.04-.127.143.047.104.159l-.016-.032zm.417 1.26c.031-.055.071-.055.071-.055l.016.008a.119.119 0 00.041 0c.024.009.03.004.031-.007.057-.017.103-.055.047-.049-.041.004-.044.026-.046.042v.007a.208.208 0 01-.032.007h-.001l-.021-.008c-.056-.023-.106-.043-.106.056zm.268-.476a.285.285 0 010-.071v.048s.032.063.016.063l-.016-.04zm1.012 1.45c-.03 0-.054.025-.079.051-.015.016-.03.033-.048.045 0-.082-.047-.12-.096-.159a.276.276 0 01-.096-.11c.133.005.265.032.39.078l.063.047c.044.033-.01.04-.061.046a.27.27 0 00-.058.01l-.015-.008zm1.502-.005l-.088.112a.215.215 0 00-.238-.087.279.279 0 01-.055.096c-.053-.08-.019-.087.04-.102l.039-.01a.302.302 0 010-.15l.01-.007c.042-.026.065-.04.087-.041.025-.002.051.012.105.04l.012.007.079-.096h.206l.04.15c-.044.084-.1.086-.154.088-.023 0-.046.001-.068.008l-.016-.008zm2.43-1.745c-.087.017-.142.072-.142.207h.008c.166-.111.222-.223.134-.207zm.113.413c0-.103 0-.143.11-.135.112.008-.007.143-.102.135h-.008zm.672-.645a.465.465 0 00.081-.237l-.15-.008c-.001-.018.01-.035.02-.053.02-.036.043-.074-.021-.121-.039.038-.058.058-.06.079-.001.022.019.046.06.095l-.103.191h-.135c-.04.072-.134.215-.134.215h.365a.965.965 0 01.077-.161z" fill="#EDE0D9"/><path fillRule="evenodd" clipRule="evenodd" d="M67.254 38.664c-.017.06-.035.12-.035.183l.017.476.096.071-.095.215.151.127c.024.052-.004.093-.03.132-.017.025-.033.049-.033.074a1.688 1.688 0 01-.134.239.417.417 0 00-.039.07c-.025.053-.05.105-.104.105l-.198-.071v.15c-.033.051-.075.102-.119.155l-.055.068.08.12v.11a.487.487 0 010 .127c-.039-.01-.03-.028-.017-.054a.13.13 0 00.017-.057l-.302-.118-.135.048-.12-.087c-.051-.013-.077.019-.103.05-.021.027-.042.053-.078.054v.206h.111c.045.17-.015.175-.12.181l-.022.002c-.106.007-.193-.067-.277-.139l-.012-.01-.021-.017-.103.072.064.15-.006.008c-.058.088-.062.094-.2.048v.135c-.112-.031-.16-.15-.16-.245.057-.081.107-.166.15-.255h.151l.135-.088a1.8 1.8 0 000-.206 4.467 4.467 0 01-.476.295.373.373 0 01-.055.135.28.28 0 01-.127.064l-.005.03c-.003.023-.004.031-.001.035.002.002.005.003.01.004.01.003.032.01.068.041.06.055.083.12.106.19.011.032.022.064.037.096l-.169-.039c.005.011-.002.023-.037.04-.043.02-.082.087-.114.143-.034.058-.06.104-.076.071.023.065-.002.108-.027.151-.018.032-.036.063-.036.104-.124.04-.251.07-.38.088h-.056v-.159c-.097-.073-.133-.014-.17.05a.306.306 0 01-.053.07h-.278l-.079.104-.111-.079c-.08-.052-.153-.01-.232.035-.078.045-.16.093-.26.054l-.088-.111-.119.087a4.611 4.611 0 01-1.064-.251l-.143.056-.334-.142-.31-.182a.97.97 0 01-.04-.143h-.11c-.035-.025-.037-.067-.04-.108-.001-.036-.003-.072-.025-.098l.071-.095c.058-.022.096.007.135.038.03.024.062.049.104.049-.005.084-.005.17 0 .254a.182.182 0 00.254-.001c.059.034.12.063.183.087v.119c.096-.04.199-.04.294-.04l.047-.104a1.459 1.459 0 01-.072-.198l-.254-.11-.127.047v-.142l-.16-.087-.142.04v-.072h-.127c-.127-.078-.151-.094-.231-.38h.19a.255.255 0 000-.064l-.27-.23h-.096c-.08-.016-.127-.075-.174-.132-.018-.023-.037-.045-.057-.065v-.111c-.024-.111-.183-.278-.191-.278-.002 0-.004-.002-.008-.006-.012-.013-.035-.037-.072.007-.02.023-.031.064-.041.1-.012.04-.021.074-.04.073l.138.065v.333h.088c.029.043-.004.072-.034.099-.019.017-.037.033-.037.052v.047c.156.178.326.342.51.491-.048.048-.048.112-.048.112a.207.207 0 01-.095 0v-.143h-.191a4.288 4.288 0 01-.47-.459v-.135a3.745 3.745 0 01-.263-.332h-.001c-.087-.008-.182-.017-.182-.15l.119-.104c.023-.065-.008-.105-.037-.144-.022-.03-.043-.058-.043-.094-.102 0-.092.04-.083.073.002.008.004.016.004.022 0 .01.012.027.024.044.025.034.05.067-.024.051-.065-.013-.084-.06-.103-.105-.013-.033-.026-.065-.056-.085l.166-.199h-.12a.706.706 0 01-.143-.3v-.048c.03 0 .059.015.088.03.057.03.114.059.166-.03.049-.084.016-.146-.016-.207-.02-.039-.04-.077-.04-.12l-.12-.054a3.985 3.985 0 01-.112-.492l.095-.112-.001-.405h.325c.102.043.21.077.319.112.069.022.138.044.206.069a1.34 1.34 0 010-.183 4.632 4.632 0 01-.002-.468l-.071.087c0 .03.008.076.016.125.019.107.04.23-.015.224-.08-.007-.08-.07-.08-.118l-.183-.048c-.04-.095-.064-.19.071-.254a5.024 5.024 0 01-.183-.357l.142-.087.028-.122c.02-.093.042-.19.074-.283l-.151-.246c.05-.13.061-.136.158-.183l.032-.016c.05-.13.114-.256.19-.374l.166-.048c.06-.102.127-.2.198-.294l.175.095.103-.096a.85.85 0 00-.132-.054c-.115-.04-.226-.078-.226-.215l.182.087c.073-.021.112-.073.15-.124.02-.027.04-.053.064-.075v-.103c.017-.07.064-.11.115-.154a.97.97 0 00.06-.053l-.001-.143.222-.175c.031.025.07.04.11.04a.512.512 0 01-.086.066c-.06.04-.111.072-.11.164.118.008.197-.04.197-.23.373-.26.79-.452 1.229-.568l.071-.135.183-.04.111.095.127-.04c.005.013.009.027.012.04.015.051.027.093.083.023a.993.993 0 00-.095-.063c-.007-.109.044-.104.105-.098l.045.002.072.175c.067.048.104.01.145-.033.033-.034.069-.071.125-.071l.136.158.484-.001c.164.013.326.042.484.086v.127l.334.11.318.134v.143c.226.116.439.253.637.411v.112c.04.071.088.15.191.126.074-.017.107.019.144.058.014.016.029.032.047.045v.143a.79.79 0 01.135 0c.029.037.06.075.094.114.058.07.118.142.169.218h.143l-.04.135c.055.074.097.154.139.233.025.048.05.095.077.14a.613.613 0 01-.055.127h.11c.1.222.177.453.233.69l-.071.079.143.127-.087.143.127.15-.063.058c-.048.044-.092.086-.103.086-.005 0-.011.007-.018.015-.016.018-.034.04-.046-.015-.016-.08-.04-.175-.103-.214-.064-.04-.112-.143-.112-.23-.049.103-.03.184-.014.257.007.035.015.067.015.1l.16.182c.106.045.21.097.31.158 0 .041.01.092.02.14.02.093.037.18-.02.186-.045.004-.069-.021-.093-.046-.023-.024-.047-.05-.09-.05a.607.607 0 010 .112c.002.034.002.069 0 .103l-.102.056.095.103-.11.072.079.095c-.006.037-.017.074-.028.111zm-7.137 1.352c-.015-.012-.024-.028-.033-.043-.019-.034-.037-.067-.119-.067.025.11.033.11.152.11zm4.745 1.766c-.005-.016-.009-.034-.012-.053-.01-.056-.021-.113-.093-.113.005.105.028.113.054.122a.073.073 0 01.051.044zm.172-.284a.39.39 0 00-.146-.11c-.046-.023-.091-.046-.132-.09l-.309.097v.063c.02.078.043.155.072.23.002 0 .006-.002.01-.006.013-.01.035-.025.053-.007a.087.087 0 01.009-.098l.245-.08c.05.075.135.033.184.008l.014-.007zm-.443.19a.428.428 0 01.012.029c.019.047.04.097.091.018l-.103-.047zm-11.654-3.082a1.02 1.02 0 00-.08-.134c.008-.095.008-.191 0-.286 0 0-.056 0-.08-.04l-.046.382-.079.373-.135.064-.094.286.143.063c.043.053.083.108.12.166a1.86 1.86 0 00.102-.286c.08 0 .135 0 .095-.063l-.103.047c-.048-.048-.072-.071-.072-.094 0-.023.025-.045.072-.088h.047l-.064-.159c.029-.057.072-.089.108-.115.045-.033.08-.059.066-.116zm-2.692 3.04l-.111.064c.293 0 .301-.001.325-.12.016-.082-.058-.036-.13.009a.495.495 0 01-.084.047zm9.435-2.43h-.04a.126.126 0 01.056-.055h.047l-.063.056zm.27.38a.269.269 0 00.064.071l.064-.023c-.04-.032-.04-.072-.04-.112h-.048c-.04.017-.04.064-.04.064zm6.959-1.162a.087.087 0 01-.04-.071l.063-.056c.064-.056.072.095-.015.127h-.008zm-5.426 1.968a.334.334 0 000 .095h.009a.386.386 0 00-.008-.095zm5.284-4.618l.103-.072.072.183h-.238s.016-.095.063-.111zm-1.727-1.472c-.112 0-.177-.003-.222-.055.055-.056.063-.064.222.055zm-.768-.165c.013-.046.029-.091.047-.136 0-.047.063-.047.08 0l-.048.207c-.07.087-.118.047-.17.003a.32.32 0 00-.06-.042l.15-.032zm-.404-.335a.097.097 0 00-.012-.006h.016l-.004.006zm-.012.21a.186.186 0 01-.008-.033.214.214 0 01-.143 0c.033-.049.068-.08.098-.105a.276.276 0 00.065-.072c.048.028.029.08.01.13a.24.24 0 00-.022.078v.001zm0 0c0 .035.013.044.028.05a.162.162 0 01-.028-.05zm.028.05c.028.034.06.04.044.02-.009-.012-.021-.015-.033-.018a.118.118 0 01-.011-.003zm-.449-.153v.063h-.103v-.07l.103.007zm-1.482.528l-.104-.19-.127.12.136.166.095-.096zm-.95.851c0 .032 0 .051-.006.07-.01.033-.04.06-.121.137-.016-.135.04-.19.119-.207h.007zm-.183.413l-.119-.047-.071.08.087.134.103-.167zm-.742 1.447c-.08-.063-.071-.119 0-.158.071-.04.103.118.024.158h-.024zm.35 2.651c-.011.035-.021.07-.002.096v.008c.01.01.02.022.029.034.034.043.068.087.162.068l-.001-.285a.314.314 0 01-.064-.087c-.038-.064-.076-.129-.127-.088-.07.056-.054.075-.017.12v.001a.847.847 0 01.017.022c.025.033.014.073.002.111zm.236-.214c-.095 0-.127 0-.087-.127.04-.127.119.015.087.127zm.377.601h-.003v-.023a.063.063 0 01.003.023zm0 0h.045c.032 0 .02.019.01.036-.006.007-.01.015-.01.02h-.048s.004-.031.003-.056zm.11.604l-.072.056c0-.08.03-.082.072-.068v.012zm.061-.004a.089.089 0 00-.006.012.787.787 0 01-.055-.02v-.012c.018.004.034.01.049.015l.012.005zm.066-.044a.088.088 0 00-.066.044c.037.012.06.015.066-.044zm.198-.23v.04c.071.063.262.157.262.11v-.143l-.088-.056-.063.048a.135.135 0 00-.111 0zm.878 1.307c-.044.03-.087.061-.127.096 0-.082-.044-.12-.091-.159a.282.282 0 01-.092-.11c.102 0 .177.023.247.044a.796.796 0 00.134.034l.039.005c.025.003.032.004.033.006 0 .001 0 .003-.002.004-.002.005-.007.014.002.032.014.03-.023.026-.066.023a.227.227 0 00-.077.002v.023zm.848.085a.143.143 0 010-.072v.072zm.66-.09l-.087.112a.223.223 0 00-.246-.087.27.27 0 01-.047.096c-.053-.079-.019-.087.04-.101a.716.716 0 00.039-.01.238.238 0 010-.152l.01-.006c.047-.027.072-.04.096-.041.025-.001.051.013.104.04l.012.007.079-.096h.206v.15c-.03.058-.078.058-.128.057-.026 0-.053 0-.078.008v.024zm2.282-1.57v.025-.024zm.142-.182c-.09.015-.136.065-.142.182.158-.111.237-.198.142-.182zm.225.277c-.11-.007-.118.026-.119.112.096.008.238-.104.119-.112zm-.119.112v.024-.024zm.666-.642a.49.49 0 00.078-.24l-.143-.008c0-.019.009-.036.019-.054.019-.036.039-.073-.02-.121-.042.039-.064.058-.065.08-.001.022.02.046.066.095l-.103.19h-.135a4.52 4.52 0 01-.134.215h.365c.02-.06.047-.11.072-.157z" fill="#EDE0D9"/><path fillRule="evenodd" clipRule="evenodd" d="M67.658 38.434l.08.135c.009.057-.027.083-.07.114-.034.024-.072.051-.097.1l.049.175c-.047.043-.071.065-.072.088 0 .023.024.047.072.095l.103-.048c.04.063-.024.063-.095.063a1.86 1.86 0 01-.103.287 1.577 1.577 0 00-.119-.167l-.143-.063.094-.286.135-.064.079-.373-.001-.381c.014.017.032.01.048.004.021-.008.039-.014.04.035v.286zm-2.723 3.238l.111-.064a.523.523 0 00.086-.047c.073-.045.15-.092.128-.01-.031.12-.04.12-.325.12zm-4.282-1.03h.08v-.055h-.072s-.008.04-.008.056zm-1.466-1.687l.063-.055.04.008c-.046.04-.049.046-.053.047h-.05z" fill="#EDE0D9"/><path fillRule="evenodd" clipRule="evenodd" d="M119.551 79.795c.065-.582.07-.944.029-.814.079-.354.136-.473.18-.566.044-.092.075-.157.104-.4a14.41 14.41 0 00-.131-1.698 6.965 6.965 0 00-.108-.38c-.041-.136-.083-.274-.116-.413a18.871 18.871 0 00-.674-2.507c0-.024.003-.045.006-.067.013-.097.029-.213-.198-.64.048.175.096.365.152.643l-.151-.182a18.85 18.85 0 01-.527-1.313 76.52 76.52 0 00-.184-.487 9.25 9.25 0 00-.878-1.784 9.266 9.266 0 01-.885-1.26 4.626 4.626 0 00-.742-1.26c-.175-.19-.366-.38-.533-.547a39.817 39.817 0 00-.566-.72h-.001l-.001-.002-.002-.001c-.116-.145-.229-.286-.338-.426a15.645 15.645 0 00-.342-.549 9.653 9.653 0 01-.104-.164 9.368 9.368 0 00-1.203-1.267l.135.205c.088.134.18.275.28.437-.193-.198-.391-.38-.644-.615h-.001l-.191-.177-.351-.563-.342-.491-.24-.23c-.261-.25-.5-.48-.739-.68a16.911 16.911 0 01-.633-.568h-.001v-.001l-.241-.223-.692-.411a10.047 10.047 0 00-.59-.594l-.206-.198.652.332-.844-.792c-.212-.11-.434-.214-.611-.298-.141-.067-.254-.12-.311-.152a2.03 2.03 0 01-.333.112 1.551 1.551 0 01-.239-.103 30.932 30.932 0 00-3.617-1.935c-.019-.02-.034-.039-.05-.059-.037-.046-.073-.093-.157-.131a21.338 21.338 0 00-1.24-.545 5.616 5.616 0 00-.658-.176c-.274-.06-.55-.12-1.002-.304l-.716-.34a69.916 69.916 0 00-2.113-.605l-.794-.077a29.658 29.658 0 00-2.169-.415c-.278-.087-.532-.15-.794-.213l-.794.002c-.253.001-.496-.025-.728-.05a7.374 7.374 0 00-.487-.042c-.113-.004-.224-.01-.334-.016-.253-.014-.5-.027-.738-.02l-.723-.118-.73-.093c-.21 0-.48.025-.732.047-.276.025-.529.048-.657.036a9.012 9.012 0 00-1.27.05c-.222.001-.44.024-.641.044-.203.02-.387.039-.534.031-.21-.01-.472.116-.725.24-.102.048-.203.097-.299.136l.707-.002c.199 0 .246 0-.214.207-.28.127-.513.18-.778.24-.17.038-.353.08-.57.145l1.19-.194.5-.073.484-.04.65-.217a27.56 27.56 0 013.755-.295 1.7 1.7 0 01.27 0s.064.07.064.11a1.65 1.65 0 01-.262.056c-1.502.012-3 .154-4.477.425l-.626.216c-.174.032-.35.058-.526.085-.315.048-.63.096-.934.173-.501.146-1.013.248-1.532.305-1.2.382-2.37.855-3.497 1.415l-.991.661-.341.142c-.256.105-.487.2-.698.306a18.72 18.72 0 00-2.955 2.254 6.876 6.876 0 00-.483.62l-.124.124c-.158.158-.304.304-.43.45l-.412.477c-.348.303-.61.55-.87.796.189-.342.363-.644.568-.962l.61-.533.142-.215.34-.446c.165-.18.32-.327.457-.455.134-.126.25-.234.336-.34a2.03 2.03 0 01.384-.355c.036-.026.069-.051.099-.076.193-.171.373-.358.538-.557-.117.097-.236.19-.354.281-.27.21-.53.413-.74.635l-.498.446c-.106.101-.208.206-.31.31l-.15.152-.45.462-.42.5-.42.478c-.134.151-.269.295-.403.422l.347-.628a3.61 3.61 0 00-.839 1.05c-.195.385-.42.755-.671 1.105l-.147.175c-.118.14-.247.293-.368.454a19.7 19.7 0 00-.719 1.344c-.062.102-.127.2-.19.298a6.44 6.44 0 00-.245.393c-.25.595-.468 1.202-.654 1.82 0 .14-.01.306-.02.486-.014.238-.03.5-.024.753l-.118.389a.83.83 0 01-.05.247c-.01.036-.021.07-.029.103a1.685 1.685 0 01-.086.333c-.048-.071-.103.048-.166.215-.031.082-.055.177-.077.267-.023.095-.045.185-.073.25l-.002-.667a4.55 4.55 0 00-.066 2.016c.002.6.058 1.23.112 1.837.026.292.051.578.07.854l-.07-.209c-.058-.173-.117-.345-.162-.52l.001.603a3.17 3.17 0 00.09.793l.302.444c.05.169.09.317.127.454.037.134.07.258.106.38.255.53.519 1.038.798 1.474.303.716.653 1.413 1.045 2.085.128.293.24.531.312.682.31.412.573.729.796.99.138.249.267.46.387.659.103.168.2.327.29.49.167.298.4.518.648.753l.15.143c.168.163.306.319.436.464.104.116.201.226.304.328l.342.46c.294.22.605.442.955.688l.097.1c.31.324.555.578.786.786.72.576 1.478 1.105 2.267 1.582.77.464 1.566.88 2.385 1.248l.644.181a30.107 30.107 0 006.753 1.983c.087.008.175.008.262 0l-.795-.268.294-.096c.572.101 1.056.18 1.636.257.262.08.556.158.858.228.016.15.017.302.001.453.004.05.004.1 0 .15l-.627-.148a3.97 3.97 0 00-1.398-.259c.457.155.932.247 1.414.274l.023.02c.08.07.142.123.557.122-.035.328-.097.66-.152.957-.018.098-.036.193-.051.282a16.675 16.675 0 01-1.469 3.18 3.072 3.072 0 00-.134.341c.539-.696.554-.483.57-.266l.001.018c-.197.366-.403.732-.6 1.074l.128.34a42.6 42.6 0 01-1.923 2.618c-.48.612-.978 1.209-1.496 1.79h.112l.515-.16s.04-.001.5-.065a18.46 18.46 0 011.587-.425c.462-.106.875-.253 1.351-.424l.093-.032v.103c.285-.079.554-.184.824-.289l.052-.02.131-.051 1.007-.384a64.6 64.6 0 01.577-.319l.002-.001c.341-.187.67-.368.96-.541l1.157-.599 1.15-.685a20.418 20.418 0 002.66-2.39c.147-.12.283-.243.443-.385l.302-.267a14.3 14.3 0 001.47-2.656c.214 0 .424.015.637.03.19.014.384.027.586.03l.667.118c1.999.01 3.995-.168 5.961-.532l.651-.001c.554-.091 1.096-.243 1.632-.394.323-.09.643-.18.962-.256l.445-.073.713-.39a17.746 17.746 0 003.734-2.043 14.11 14.11 0 003.041-3.009l.073-.07c.125-.117.252-.237.418-.423.63-.906 1.14-1.889 1.516-2.926.021-.07.037-.142.047-.214l-.08-.286c.142-.413.236-.747.323-1.065l.387-.58-.001-.746a5.022 5.022 0 00-.05-.548zm-18.315-24.246c.411.252.867.42 1.343.497a5.61 5.61 0 00-1.343-.497zm-34.65 16.843l.002.532a.794.794 0 01-.128-.405 3.24 3.24 0 01-.052-.322c-.013-.1-.025-.195-.045-.273-.025-.1-.019-.275-.011-.498.004-.132.01-.28.009-.439l.19-.246.003 1.135c0 .084.009.164.017.242.01.09.02.18.016.274zm.951 5.427c-.191-.317-.255-.3-.142.191h-.032l.016.036c.14.318.307.696.622 1.185-.094-.258-.15-.451-.205-.64a7.948 7.948 0 00-.259-.772zm1.603 2.775a1.482 1.482 0 01-.096-.215 1 1 0 01.191.159l.112.246-.207-.19zm-.706-15.336l.228-.684h-.032c.343-.63.72-1.24 1.131-1.828l-.326.37c-.296.335-.47.532-.68.815-.039.101-.08.2-.118.295-.063.151-.121.293-.165.42-.352.66-.66 1.343-.924 2.043a2.778 2.778 0 01-.16.272c-.117.18-.232.358-.274.626-.035.22-.094.434-.154.652-.049.175-.098.353-.136.54-.054.204-.096.41-.126.62-.01.198-.01.397.002.595.083-.26.146-.525.188-.794.02-.095.036-.186.05-.276.032-.188.064-.372.138-.582l.064-.18c.083-.237.158-.454.26-.67.103-.222.196-.47.309-.772l.077-.206c.088-.22.189-.435.3-.644l.348-.612zm12.998 24.886c-.326-.11-.636-.236-.946-.363v-.071l.945.315a.794.794 0 01.231.158.7.7 0 01-.254-.039h.024zm5.98 6.455a3.173 3.173 0 00-.198.42.048.048 0 00.048 0h-.024l.037-.056c.104-.159.196-.3.287-.492v-.055c-.016-.008-.15.135-.15.183zm-.01-.73a.565.565 0 01-.183.183.714.714 0 01.079-.215c.082-.152.167-.302.248-.446.068-.12.134-.237.194-.349h.08c-.073.121-.132.247-.193.377-.072.152-.147.31-.25.474l.024-.024zm1.55-4.578c-.023-.071-.079-.19-.079-.19l-.024.024c-.008.04-.023.143.009.198l.095.071a.463.463 0 010-.103zm-.023.135a.607.607 0 010 .111.521.521 0 00-.04-.119l.04.008zm-.437.088l.111.103.39.023-.327-.237h-.143V91.3l-.31-.214c.043.104.073.214.088.325l.04.088.151.11v-.095zm11.642-35.747a12.42 12.42 0 00-1.685-.655c-.37-.087-.595-.189-.818-.289a4.023 4.023 0 00-.604-.231 33.097 33.097 0 00-1.947-.471l-.739-.268a29.908 29.908 0 00-3.097-.381c0-.092.296-.104.578-.115.13-.005.258-.01.35-.023.203-.027.356.005.513.038.07.015.142.03.218.04l.064.008c.227.029.462.058.73.101l.747.236c1.67.336 3.315.78 4.926 1.33.444.243.907.451 1.383.623.14.08.269.178.382.292l-1.001-.235zm4.514 1.623l.159.072-.024.032c.108.047.214.095.321.144.233.107.467.213.713.305a8.86 8.86 0 00-1.861-1.066.494.494 0 01-.19.103l-1.025-.362c-.069-.044-.135-.1-.203-.156-.142-.12-.293-.247-.497-.28-.302-.046-.461-.046-.087.2a29.23 29.23 0 013.473 1.783c.064.038.137.08.216.08a13.467 13.467 0 00-1.654-1.027l-.215-.206c.301.12.591.25.874.378zm2.876 34.25c.094-.064.195-.118.301-.16l.468-.136c.143-.039.302-.073.477-.11l.119-.026a4.235 4.235 0 01-1.389.464l.024-.032zm10.861-17.804c.008 0 .008-.06.007-.198-.056-.112-.111-.207-.159-.175.057.122.094.226.117.293.018.052.029.081.035.08zm-6.251-9.98a9.825 9.825 0 011.513 1.735 15.31 15.31 0 01-1.513-1.734zm1.703 1.457c.776.822 1.45 1.734 2.008 2.718a83.424 83.424 0 01-2.008-2.718zm2.69 4.82l.047-.294a18.473 18.473 0 00-.933-1.585l-.096-.222c.276.36.393.425.51.49.079.045.158.089.286.222.127.198.255.397.462.745.157.264.228.582.294.883.022.098.043.193.066.283.328.627.519 1.07.719 1.547 0 .106.055.297.112.494.045.156.091.316.113.442v.103a.688.688 0 010 .111c.014.115.035.23.065.341a1.01 1.01 0 01-.001-.095c.2.613.329 1.247.386 1.889a2.307 2.307 0 01-.08-.318 19.801 19.801 0 00-1.95-5.036zm1.941 11.688c-.084.295-.169.594-.219.883.163-.35.292-.714.386-1.088.04-.137.067-.273.093-.406l.033-.158c.012-.057.027-.113.042-.17.034-.126.068-.252.068-.379.027 0 .041.014.048.021l.005.004.002-.004v-.02a7.268 7.268 0 00.167-2.955c-.008-.047-.055 0-.055 0a4.23 4.23 0 00-.401-1.49c.092.556.151 1.118.179 1.682 0 .04-.002.076-.004.112-.003.072-.006.142.005.237a.322.322 0 00.055.152c.018.027.032.05.033.086l.002.929.002.659c-.007.14-.007.28.001.42a4.865 4.865 0 01-.13.363c-.047.122-.089.229-.114.345-.048.251-.123.513-.198.777zm.739-.644a3.703 3.703 0 01-.11.572c-.103.376-.243.74-.418 1.089.086-.381.18-.794.283-1.128l.141-.556c.023-.087.05-.174.078-.261.031-.097.063-.195.088-.296a3.639 3.639 0 01-.062.58zm.147-3.97a9.575 9.575 0 00-.059 1.589l-.016-.016.017.112c.046.3.077.504.182.284 0-.032.007-.09.015-.161.013-.124.032-.29.031-.45a2.98 2.98 0 00-.003-1.175l-.056-.27c-.06-.743-.176-1.48-.347-2.206a9.986 9.986 0 00-.069-.635l-.029-.222-.294-.373c.035.187.053.369.072.555.025.242.05.493.114.77.112.493.193.969.25 1.405l.068.27c.048.183.091.351.124.524z" fill="#9D6D6A"/><path fillRule="evenodd" clipRule="evenodd" d="M90.367 52.792c.358.001.713.051 1.057.148.344.071.697.092 1.048.06l-.97-.378c-.634.04-1.27.042-1.905.005l-.026-.02c-.094-.07-.166-.123-.705-.042l.7.078c.253.106.526.156.801.149zm-8.324.84a2.844 2.844 0 01-.293.12c-1.304.357-2.58.811-3.815 1.359l-.73.137c.454-.266.946-.46 1.459-.576a19.7 19.7 0 013.38-1.04zm-3.537 1.422c-.224.12-.441.262-.715.44-.142.092-.3.195-.482.31a14.247 14.247 0 00-3.17 2.04 20.734 20.734 0 012.806-1.714c.1-.035.191-.07.282-.103.196-.073.39-.145.677-.233v-.262c.2-.096.414-.161.634-.192.212.024.427-.012.62-.105.585-.259 1.28-.477 2.12-.74.376-.117.781-.244 1.219-.388-.683.113-1.151.194-2 .378-.377.16-.767.289-1.166.385l.515-.343c-.469.113-.92.29-1.34.527zm-4.007 32.444c.144.134.268.25.393.355l.54.268c.565.411 1.153.815 1.798 1.202h-.302c-.334-.22-.557-.379-.796-.56a23.459 23.459 0 01-3.18-2.208 4.466 4.466 0 00-.365-.396c-.095-.097-.199-.202-.305-.316a10.423 10.423 0 00-.169-.173c-.086-.087-.175-.176-.26-.27l-.43-.484c.882.83 1.815 1.604 2.792 2.319.105.095.198.182.284.263zm13.995 4.05l-.144-.118.143.007v.112zM74.69 57.042c.317-.207.618-.383.92-.542a4.338 4.338 0 01-.516.374l-.243.164c-.247.165-.604.404-1.175.8.32-.287.659-.553 1.014-.796zM67.51 79.274a7.071 7.071 0 00-.631-1.452c.115.52.33 1.013.63 1.451zM99.186 54.49c.448.23.927.395 1.422.489a4.09 4.09 0 00-1.422-.489zM85.67 98.201l-.087.253.182-.183c.028-.074.05-.151.063-.23l-.158.16zm-8.814-42.412c.076-.034.156-.06.238-.08l-.42.263-.254.088c.142-.096.277-.184.436-.271zm7.114 45.496c-.084.11-.157.215-.232.323l-.053.075.198-.175.261-.39c-.063.05-.122.106-.174.167zm11.267-48.029c.075.038.146.08.215.127a1.01 1.01 0 01-.238-.008l-.247-.118h.27zm-1.272-.148a1.124 1.124 0 00-.223-.118h-.278l.263.111.238.007zm25.074 24.442c-.072 0-.095.239-.093.747.079.047.126-.2.093-.747z" fill="#9D6D6A"/><path fillRule="evenodd" clipRule="evenodd" d="M114.585 71.886c-.001-.254-.002-.604-.05-.96a.635.635 0 00-.203-.418c-.041-.043-.082-.086-.116-.146a5.11 5.11 0 01-.236-.549c-.047-.12-.094-.24-.14-.347a11.69 11.69 0 00-.407-.848 2.69 2.69 0 01-.169-.424 2.426 2.426 0 00-.087-.243l-.405-.268a26.13 26.13 0 00-.543-1.309.43.43 0 01-.158-.057c-.059-.03-.102-.053-.081-.006.125.256.128.373.131.488.004.12.007.236.15.504.237.444.348.734.527 1.205l.104.27a21.89 21.89 0 00-2.328-3.487l-.397-.166a33.907 33.907 0 00-4.609-4.577 28.164 28.164 0 00-5.344-3.59 4.473 4.473 0 01-.398-.285l-.326-.197.103.047a4.185 4.185 0 00-.5-.356 4.987 4.987 0 00-1.232-.489c.248.162.515.294.794.395l.795.37v.049a11.694 11.694 0 00-.945-.34c-.266-.078-.447-.117-.637-.159l-.062-.013-.18-.072c-.346-.14-.676-.272-1.028-.393l-.255-.135a31.373 31.373 0 00-5.076-1.304h-.254l-.548-.086a.111.111 0 01-.056-.047l.206-.088c1.4.208 2.786.51 4.147.902h.27c.357.102.548.157.596.18.345.17.7.318 1.065.442l-.049-.222-.448-.144c-.347-.112-.65-.21-.95-.289-.071 0-.135 0-.453-.046l-.69-.189s-.176-.11-.343-.182l-.007-.003c-.164-.07-.31-.132-.247-.179.667.15 1.31.33 1.883.496l.627.11.232.114c.676.334.806.398 1.072.39l-.732-.443-.556-.189-.565-.292a31.84 31.84 0 00-3.48-.864l-.642.001a3.476 3.476 0 01-.993-.251 32.773 32.773 0 00-4.963-.4c-.09.018-.179.034-.265.05-.311.06-.598.114-.846.183a26.78 26.78 0 00-3.818.43c-.341.087-.567.16-.736.215l-.057.018-.35.112c-.063-.087-.46.002-.84.106-.3.082-.486.178-.656.266l-.138.07-1.134.375-1.516.227-.927.55c-.389.112-.674.2-.88.272-.923.437-1.818.93-2.68 1.476-.038 0-.067.036-.103.08a.61.61 0 01-.087.095c.372-.208.745-.383 1.118-.559a1.396 1.396 0 01-.182.152 21.591 21.591 0 00-3.083 2.207l-.428.128a19.521 19.521 0 00-3.633 4.368c-.03.067-.057.136-.079.207l.791-1.003c-.097.2-.195.39-.292.575-.146.283-.287.555-.41.832l-.138.193c-.112.156-.24.333-.36.515.037.09-.047.353-.134.622-.06.184-.12.37-.142.506l.23.103c.131-.194.235-.4.335-.6.064-.127.127-.252.195-.37v.087a18.568 18.568 0 00-1.112 2.52c.07-.305.159-.604.244-.89l.03-.103c-.137.202-.256.389-.362.557l-.08.127c-.295.737-.54 1.494-.732 2.264a.896.896 0 000 .207c.174-.54.377-1.071.607-1.59a11.7 11.7 0 00-.338 1.271c0 .063-.03.129-.062.198a1.287 1.287 0 00-.048.112 5.258 5.258 0 00-.102.564 3.207 3.207 0 01-.133.636l-.365.056c-.053.16-.08.276-.108.388-.013.056-.026.11-.042.168 0-.42-.002-.794.045-1.357a13.087 13.087 0 00-.272 2.382l-.078.453.144.65c.001.279.042.565.084.851.016.114.033.227.047.34l.001.643a15.235 15.235 0 002.397 5.662.397.397 0 00.159.103 14.58 14.58 0 01-1.596-3.171c.161.256.316.466.475.682.156.21.316.426.489.697.242.475.509.938.797 1.387.028.056.055.115.083.174.062.133.128.273.205.42.1.19.387.531.623.81l.086.102c.07.13.145.253.219.373l.124.205c.254.29.456.502.61.664.15.157.255.268.321.358.127.14.244.288.35.444a9.256 9.256 0 01-1.018-.998c-.084-.096-.168-.194-.252-.293-.243-.287-.49-.576-.743-.8.334.515.661.959.94 1.331.446.491.868.903 1.274 1.291.095.047.215.122.333.195.236.147.462.287.462.192l-.335-.57a20.98 20.98 0 001.813 1.48c-.065.06-.387-.112-.685-.27-.132-.07-.258-.137-.356-.18.166.192.353.364.557.514.188.13.357.284.502.459l.58.395.597.356a.468.468 0 00.23 0l-.875-.538-.136-.333c.245.162.454.285.67.413.122.072.246.145.38.227v.23l.645.364.668.34c.175.134.35.253.524.371.132.09.31.116.474.14.053.008.105.016.154.025a25.902 25.902 0 004.704 1.496c.178.091.364.165.556.221.436.115.884.178 1.335.187a15.15 15.15 0 00-1.732-.376c.023-.016.02-.039.016-.061-.008-.056-.017-.112.349-.09a9.817 9.817 0 011.715.407c1.904.303 3.831.425 5.757.366.074.232.115.472.121.715-.062.329-.149.653-.26.969-.085.584-.217 1.16-.392 1.724-.048.073-.099.153-.153.239-.117.183-.25.39-.4.612-.076.316-.213.629-.344.929-.125.287-.245.563-.303.819l.064.19c-.038.14-.115.317-.185.477-.117.267-.213.488-.074.413.24-.382.295-.351.36-.314.027.015.055.03.1.02-.103.293-.245.675-.403 1.064-.09.123-.11.072-.134.014-.018-.043-.037-.09-.088-.069 0-.06.035-.173.07-.284.052-.166.103-.328.032-.304l-.403.795-.062.588a13.499 13.499 0 01-1.004 1.694l-.238.064-.355.731-.166.326-.08.143.001.111a.632.632 0 00-.071.143.742.742 0 000 .374.788.788 0 00.057.166.771.771 0 010-.079.803.803 0 01-.048-.207.796.796 0 01.094-.405v-.055l.079-.056.166-.12a7.07 7.07 0 001.093-.955l.254-.271c-.625 1.066-1.091 1.774-1.13 1.821l1.11-.535a.33.33 0 00-.096.112c-.42.286-.873.521-1.348.702a4.78 4.78 0 01.532-.089l-.19.263c.253-.001.523-.043.83-.09h.001l.153-.024c.429-.063.85-.163 1.262-.297l.476-.208c.144-.059.285-.129.42-.207l.682-.399c.154-.09.312-.18.47-.271.304-.173.61-.348.901-.526a27.945 27.945 0 002.663-1.968c.051-.052.099-.108.142-.167l.15-.382.38-.303.333-.294c-.043.07-.08.137-.116.203a3.474 3.474 0 01-.192.322c.276-.251.53-.498.771-.732.104-.101.206-.2.306-.295.217-.208.414-.433.608-.655.103-.118.206-.235.31-.348.024-.029.036-.068.05-.113.012-.041.026-.088.052-.133l.633-.796.617-.867.253-.596c.15-.167.285-.326.388-.462.134-.326.252-.62.339-.882.172-.26.295-.478.4-.667l.114-.2c.09-.154.094-.254.1-.359a.97.97 0 01.017-.165h.151c.21 0 .514-.04.834-.08l.002-.001h.003l.193-.025.683-.002c.91-.129 1.813-.303 2.706-.523.393-.096.42-.128.459-.175h.001c-.334.056-.675.112-1.143.177l.15-.215a36.744 36.744 0 001.5-.353c0 .034.1.026.248.015.093-.008.206-.016.323-.017l.627-.144.302.094c.333-.112.587-.208.793-.295l.301-.319a24.98 24.98 0 002.807-1.238 1.29 1.29 0 01.23-.088l-.356.398a19.208 19.208 0 002.798-1.73l.404-.39.301-.318c.207-.138.375-.26.514-.362.11-.08.201-.147.278-.196.179-.178.333-.379.459-.597.113-.187.238-.368.372-.54.423-.53.519-.538.606-.546.061-.006.118-.012.281-.195.043-.062.088-.123.136-.188.075-.103.156-.213.244-.345l.133-.604c.135-.148.243-.29.351-.433l.05-.065.026-.035c.088-.114.081-.147.075-.178-.003-.017-.007-.033.004-.06.151-.317.281-.644.387-.978a.275.275 0 00.01-.179c-.005-.026-.011-.055-.011-.09.165-.446.339-.923.481-1.407-.001-.137.017-.27.034-.4.011-.083.021-.164.027-.243.011-.14.087-.284.157-.416.033-.064.065-.124.088-.18.124-.613.202-1.235.233-1.859.038-.6.037-1.202-.005-1.802l-.168-.635-.002-.897v-.018l.001-.003h.002l.002.003c.005.006.015.018.034.018l.049.212c.065.289.1.448.119.137l-.022-.06c-.042-.11-.088-.233-.162-.4-.041-.093-.058-.234-.078-.405a3.926 3.926 0 00-.123-.666zm-.667 9.02a5.569 5.569 0 01-.276.448l-.04.061c.123-.425.188-.452.264-.484a.316.316 0 00.052-.025zm-12.693 9.624l.396-.216c.378 0 .077.084-.276.182l-.12.034zm-8.4 6.19a5.154 5.154 0 01-.451.399c.256-.37.316-.378.397-.389a.385.385 0 00.054-.01zM69.338 86.47l.422.165c.187.197.088.136-.094.024a4.87 4.87 0 00-.328-.19zm-5.28-21.327c.135-.247.27-.478.286-.374a4.13 4.13 0 01-.19.429l-.095-.055zm-.182.127c.111-.159.151-.143.183-.127-.134.254-.26.484-.285.381.03-.086.063-.171.102-.254zm0 0c.171-.635.485-1.222.917-1.717-.093.256-.254.53-.435.837-.157.265-.328.556-.482.88zm15.047-11.265l.405-.2c-.405.097-.817.2-.405.2zm13.585-.147c.064 0 .19.063.175.07a.934.934 0 01-.199.001l-.198-.079.222.008zm22.078 18.321l-.087-.174a1.013 1.013 0 000 .198l.088.175a1.013 1.013 0 00-.001-.199zm-.621-.594c0-.095.087 0 .159.143.028.056.059.122.09.189.049.103.098.21.142.287.048.34.065.682.082 1.055-.117-.344-.2-.663-.278-.96-.067-.255-.129-.495-.205-.722l.01.008zm-.064-.158l.054.15-.03-.023a6.504 6.504 0 00-.062-.176l.038.049zm-.199-.301c.047.088.101.172.161.252-.129-.361-.238-.63-.161-.252zM89.498 98.944l.118-.19-.182.111a.64.64 0 00-.095.175c0 .006.014-.006.035-.023.035-.029.089-.073.124-.073zM79.36 90.047a2.684 2.684 0 01-.85-.156c.247.039.532.085.81.132l.04.024zm28.207-27.559l.302.293-.087-.11a2.31 2.31 0 00-.215-.183zm-19.57-9.26l.207.054-.397.002a1.11 1.11 0 01-.191-.048l.381-.009zm1.01.428a2.874 2.874 0 00-.533-.066l-.096-.023a12.53 12.53 0 00-2.008-.075l.564.134c.873.045 1.651.123 2.334.208a.47.47 0 00.064-.064c.008-.015-.056-.079-.12-.079-.064-.009-.133-.022-.204-.035zm-5.64-.473a23.694 23.694 0 013.112-.008c-.15 0-.23.028-.284.047-.03.01-.051.017-.073.017a27.37 27.37 0 00-3.516.144 1.915 1.915 0 01-.215 0c.287-.099.581-.174.88-.224l.096.024zm-5.706 1.535a2.23 2.23 0 01-.42.069l-.103-.063c-.32.165-.616.374-.88.621a25.723 25.723 0 019.618-1.692l-.23-.15a26.212 26.212 0 00-2.644.11l-1.072.002a3.014 3.014 0 00-.793.002.4.4 0 01-.043-.034c-.066-.06-.116-.105-.537.036l.58-.002a.792.792 0 00-.215.12l-.364.192c-.228.038-.455.092-.679.145h-.003l-.167.04-.58.24-1.038.28c-.158.024-.302.056-.43.084zm2.897-.79c.121-.013.258-.04.394-.068.284-.057.57-.115.725-.045-.119.023-.218.044-.304.062-.464.096-.507.104-.815.052zm-5.37 1.778l.262-.08-.38.16.118-.08zm-3.108 1.088a1.02 1.02 0 00-.198 0l-.096-.063c-.055.04-.055.183-.055.183.066.006.133.006.199 0l.15-.12zm-3.915 3.185c.025-.02.05-.036.076-.052a.948.948 0 00.114-.084 21.432 21.432 0 013.749-2.661c.308-.3.675-.534 1.078-.686.238-.056.074.056-.085.164a1.726 1.726 0 00-.169.123 20.641 20.641 0 00-5.919 4.47c.138-.28.3-.545.483-.796l.673-.478zm-2.226 1.53c-.052.04-.102.082-.15.127l-.079.207.166-.136a.93.93 0 00.063-.198zm-.937 2.465l.095-.08-.03.046c-.043.068-.082.129-.12.2-.048.088-.136-.19-.112-.245l.167.078zm-2.35 12.62a.794.794 0 00.001.198l-.19-.079c.085.162.193.311.318.444a.684.684 0 000-.19c-.016-.052-.038-.102-.06-.15a.569.569 0 01-.068-.223zm.649 1.698l.167.38-.135-.23a1.286 1.286 0 01-.223-.229l.19.079zm.656 1.936c.38.671.812 1.312 1.291 1.917l-.19-.078c.117.104.251.187.397.245-.045-.09-.083-.187-.12-.282-.069-.178-.136-.35-.24-.448a11.867 11.867 0 01-.302-.3 19.38 19.38 0 00-.135-.135 12.158 12.158 0 00-.797-1.181c.017.045.034.084.05.117.026.06.046.104.046.145zm2.515 3.184l.015.01.01.007c.242.234.636.522.636.522l-.231-.246c-.093-.084-.184-.173-.263-.25-.195-.192-.309-.303-.166-.043zM69.355 86c.13.149.277.282.438.396l-.191-.079c.22.155.46.278.715.364a3.375 3.375 0 00-.453-.38 2.954 2.954 0 00-.51-.3zm1.782 1.592c.383.132.74.327 1.058.577a2.7 2.7 0 01-1.248-.656l.19.079zm9.748 3.15a.714.714 0 01-.14-.035l.14.035zm-.159-.042l.02.007-.052-.012.032.005zm0 0a.61.61 0 01-.032-.014h.39l.206.063a3.508 3.508 0 01-.564-.049zm3.472.239c-.549.001-.718.002-.88-.032a2.493 2.493 0 01-.226-.061c.306-.016.612 0 .915.046l.19.047zm-1.128-.1l.022.007h-.022v-.007zm0-.103v.103a1.258 1.258 0 00-.392-.05c-.086 0-.12 0-.077-.052.058-.069.176-.047.295-.024.06.011.12.023.174.023zm0 0c.376.06.76.06 1.135-.004a2.382 2.382 0 00-1.135.004zm2.658.01a.813.813 0 01-.077-.02l.077.02zm-.13-.033l.053.014a.767.767 0 01-.026-.009c.095.015.192.011.286-.013a.985.985 0 00-.19-.07c-.063.01-.124.026-.183.048a.815.815 0 00.087.035.656.656 0 01-.028-.005zm-.06-.015l.06.015a.696.696 0 01-.06-.015zm.443 5.04l.087-.103-.11.302c-.015-.023-.004-.066.007-.11.008-.031.016-.062.016-.088zm-2.157 3.825a1.576 1.576 0 00-.127.15l-.15.358.127-.159.15-.35zm.78-1.281l.325-.263-.135.4-.052.154-.08.24c-.079.23-.188.421-.296.608-.045.078-.09.156-.131.235.051-.215.115-.436.177-.654.072-.248.142-.492.192-.72zm4.007 1.443l-.127.191.19-.104a.679.679 0 00.103-.167c0-.006-.017.005-.042.022-.037.024-.09.058-.124.058zm.089.698c.27-.29.582-.537.927-.732-.116.257-.446.453-.899.723l-.028.017v-.008zm1.164-1.613a.703.703 0 00-.01.021v-.015l.01-.006zm0 0c.097-.202.325-.376.635-.613l.21-.162a2.77 2.77 0 01-.845.775zm1.504-1.34a.629.629 0 01-.206.104.645.645 0 01.11-.159l.547-.565h.071c-.116.143-.232.28-.348.415l-.174.205zm.87-1.185h.174l.237-.271a.514.514 0 00-.056-.167.485.485 0 00-.15.128 2.773 2.773 0 00-.206.31zm2-2.585c0 .055-.118.159-.118.143a1.097 1.097 0 010-.199l.134-.167-.015.222zm8.295-3.586l.214-.001v-.016a.882.882 0 00.151-.111h-.191l-.174.128zm-.262-.485l.046-.022a4.87 4.87 0 001.635-.561 7.043 7.043 0 00-1.635.56l-.046.008v.015zm3.634-1.255c-.357.247-.325.319.096.198v-.016c.348-.262.316-.326-.096-.182zm2.284-.69l-.198.08.325-.246a.786.786 0 01.182-.08l-.309.247zm2.633-3.207l-.022.025-.008-.008c.01-.004.02-.01.03-.017zm.255-.293l-.255.293c.059-.04.134-.118.255-.293zm1.069-.915c.023-.06.049-.118.079-.175l.174-.135-.087.199a.542.542 0 01-.166.111zm.192.332c.169-.17.32-.356.451-.556h.016c.094-.136.156-.29.182-.454-.123.135-.232.281-.325.438a5.57 5.57 0 00-.197.343c-.039.073-.081.149-.127.23zm1.641-3.537c0 .03-.025.064-.053.1-.018.025-.037.05-.05.076l.095-.382.102-.19a2.058 2.058 0 01-.078.396h-.016zm.272-5.725c.026.203.064.404.112.603l.175-.159a5.67 5.67 0 00-.105-.718h-.001c-.024-.113-.048-.217-.048-.322h-.135c-.011.199-.011.398.002.596zm.19 2.35a3.7 3.7 0 01-.002-.595c.001-.2.022-.4.062-.595.039.198.058.4.057.603-.01.2-.044.397-.102.588h-.015zm.177 1.23c.016.008.071-.183.071-.183h.016c.014-.13.013-.26-.001-.389-.021-.012-.049.009-.079.031-.026.02-.054.04-.08.041l-.054.381c.024.02.051.048.075.072.024.023.044.043.052.047z" fill="#BA8A85"/><path fillRule="evenodd" clipRule="evenodd" d="M92.84 53.397a3.35 3.35 0 00-1.159-.211c.363.166.762.239 1.16.21zm-23.067 4.29a.428.428 0 00-.214.073c-.224.15-.439.316-.642.494h.064c.187-.098.359-.217.536-.34l.122-.083c.055 0 .15-.143.134-.143zm35.35 1.783l.636.514.589.499.358.443.597.388c.358.31.688.653.987 1.021l-.111.112a7.71 7.71 0 00-1.329-1.148c.435.496.93.938 1.472 1.314.064.062.12.131.168.206.053.117.093.24.12.365.264.324.476.492.679.653.214.168.417.329.658.653.247.124.561.515.866.895.184.23.365.457.527.618l.071-.19a16.253 16.253 0 00-.281-.289 7.85 7.85 0 01-.372-.393c-.059-.067-.126-.15-.199-.238a6.896 6.896 0 00-.541-.61 5.943 5.943 0 01-.709-.672 3.441 3.441 0 01-.239-.333l.101.07c.129.089.264.181.408.294l-.048-.262a37.446 37.446 0 00-2.941-2.827h-.001c-.372-.322-.733-.634-1.125-.941l-.716-.57c-.246-.19-.493-.364-.739-.538l-.247-.047.7.498c.158.109.324.243.471.363.068.055.132.107.19.152zm-21.08 38.742l-.064.127c0-.048 0-.087.063-.127zM62.62 67.003c.164-.747.43-1.469.788-2.145l.199.015c-.373.689-.703 1.4-.987 2.13zM107 60.609a.393.393 0 01.112.198.485.485 0 01-.136-.103l-.588-.53-.001-.064c.207.159.414.325.613.499zm-28.719-6.895a.797.797 0 01.207 0 1.095 1.095 0 01-.175.08 1.045 1.045 0 01-.198 0l.166-.08z" fill="#BA8A85"/><path fillRule="evenodd" clipRule="evenodd" d="M77.136 54.048h.19c.012.006-.056.039-.124.072-.023.01-.046.022-.066.032h-.19l.19-.104zm23.483 2.742l.132.095c.133.095.296.212.489.364l.477.34.581.427.953.347.748.53c.121.153.257.293.406.42.325.299.679.564 1.058.79a3.603 3.603 0 00-.637-.6l-.405-.31-.311-.229-.095-.182-.255-.333-.366-.269-.398-.253-.58-.118a8.993 8.993 0 00-.638-.386 16.232 16.232 0 01-.276-.159c-.294-.174-.588-.34-.883-.498l-.016-.042c-.029-.08-.052-.146-.461-.274l.501.364-.024-.024zm10.685 8.38l-.104-.19a.887.887 0 00-.175-.103c.024.06.054.12.088.174l.191.119zm3.836 9.7a1.186 1.186 0 000 .206c.001.15.001.277.049.42a1.186 1.186 0 000-.206c-.006-.072-.018-.166-.03-.262v-.001l-.019-.158zM81.846 91.191l.405.062-.222.008-.382-.07a.909.909 0 01.199 0z" fill="#BA8A85"/><path fillRule="evenodd" clipRule="evenodd" d="M102.162 75.379h-.063l.119.142a1.047 1.047 0 00-.056-.142zm-2.117.759v-.008l.021.014h-.001c-.007.005-.02.014-.02-.006zm.024.008c.002-.006.001-.005-.003-.002l.003.002zm.34.095H100.338c-.001.001.002.002.005.003.018.007.071.028.082.092.008.047.008.047.013.04.005-.006.014-.02.042 0 .024.016.02.012.008-.005a.26.26 0 01-.056-.114l-.023-.016zM103.009 71.241s.063.048.103 0h-.103zm0 0a.725.725 0 00-.035.045c-.018.024-.029.037-.029.027 0-.016.056-.072.056-.072h.008zm-.022 4.2c.021.07.079.122.151.134l.064-.127a.837.837 0 01-.077-.011c-.056-.01-.105-.019-.138.004zm-.252.484c-.032.072-.079.08-.135 0a.174.174 0 00-.005-.033c-.007-.04-.017-.098.012-.133.04-.048.127-.009.127.055.02.034.02.077.001.111zm-1.402.734v-.048c.079-.127.142-.143.499-.191.009.11-.079.11-.134.111a.761.761 0 01-.175.056l-.063.135c-.063.016-.127-.015-.127-.063zm-.539.117c-.027.028-.082.028-.256.029-.045-.114-.04-.12.058-.21l.013-.013.001.096.214.039a.158.158 0 01-.03.06zm-1.145-.263c-.06-.019-.12-.035-.183-.047l-.07.048c.043.026.082.06.11.103 0 .048.04.119.128.11l.063-.087c-.055-.015-.071-.055-.048-.127zm2.801-.5v-.12c.008-.03.055-.055.055-.055l.064.087-.119.088zm-.072.136c.051 0 .079 0 .091-.014.014-.016.008-.05-.004-.122-.011.016-.029.02-.047.025-.034.008-.067.016-.04.11zm.405-.36a.673.673 0 01.071-.079c.008-.008.064.032.064.032a.05.05 0 010 .047.326.326 0 01-.087.056l-.048-.055zm-4.454.283c0 .095.048.127.135.095.088-.032-.048-.151-.135-.095zm.525.348v-.064l.095.056v.071a.398.398 0 01-.096-.063zm.223.055v.071h.111v-.071l-.095-.056s-.016.048-.016.056z" fill="#EEE1D9"/><path fillRule="evenodd" clipRule="evenodd" d="M91.979 74.207a.53.53 0 00.095-.048l.04.12c-.008.134-.04.253-.198.301-.025.004-.022.031-.02.06.004.032.008.067-.035.068h-.35l.24.19c.022.046 0 .076-.022.107-.017.023-.034.046-.034.076l-.238-.063.151.174-.206.073-.151-.064c-.03.004-.018.026-.004.055.017.033.038.074.004.104-.032.029-.086.014-.135 0-.048-.014-.091-.026-.11 0a.783.783 0 01-.08.091c-.018.02-.037.039-.055.061v.12a.236.236 0 01-.068-.018c-.05-.018-.099-.035-.099.017v.127l-.079.072-.08-.063-.036.033c-.048.044-.102.094-.145.094l.072.215c-.092.06-.203.038-.304.019-.047-.01-.093-.018-.133-.018v.206c-.03.116-.09.067-.167.007l-.007-.006c-.09.041-.183.076-.278.104l-.08-.08c-.027.025-.041.068-.056.113-.023.07-.047.142-.125.142l-.112-.206c-.055.103-.11.238-.055.31.03.037.066.022.103.005.032-.014.066-.028.096-.006l.047.087c-.052-.004-.053.03-.054.063 0 .032-.002.064-.048.064a.344.344 0 00-.094.018c-.061.018-.123.036-.192-.017l.063-.119a1.034 1.034 0 00-.096-.159c-.013 0-.026-.008-.04-.016-.03-.018-.06-.037-.087.017-.04.08-.103.08-.166.08-.008-.096-.064-.096-.127-.095v.103a.103.103 0 000 .047c-.03-.074-.088-.085-.145-.097-.066-.013-.132-.026-.157-.132l-.103.215a.163.163 0 01-.072-.127h-.11l.062-.27c-.042-.125-.096-.08-.162-.023l-.029.024a3.413 3.413 0 01-.794-.3l-.135.056a4.147 4.147 0 01-.501-.356c-.053.035-.143.01-.205-.008-.048-.014-.078-.023-.057.009l.014.021c.045.065.091.132.034.161-.064.032-.08.04-.318-.23a.238.238 0 01.158-.071c.111-.08.111-.175.11-.255-.052-.011-.092.026-.135.066-.04.038-.083.078-.142.078-.041-.071-.038-.153-.036-.233.004-.09.007-.176-.052-.243l.126-.12v-.373a.794.794 0 01.118-.19c-.048-.096-.151-.095-.215-.095a.793.793 0 00-.078.215c-.005.028.008.057.022.087a.218.218 0 01.026.087l-.12.08c-.118-.016-.13-.073-.144-.132a.22.22 0 00-.03-.082l-.135-.04c-.044-.1-.081-.204-.112-.309l.079-.111a1.598 1.598 0 01-.065-.286 1.24 1.24 0 01.174-.31v-.214l.19-.056a2.192 2.192 0 01-.215-.286l-.001-.397-.095.167-.071.144c-.024-.04-.064-.04-.064-.04.005-.16.026-.32.063-.477l-.072-.095c.085-.08.175-.155.27-.223.096-.078.2-.147.308-.207.076-.182.166-.357.269-.525a2.913 2.913 0 01-.184-.309c.056-.08.127-.167.198-.254v-.127c.153-.178.323-.34.507-.486h.135l-.08-.199.08-.063h.134c.096-.07.197-.13.301-.184l.088.047c.054.004.1-.02.144-.044a.269.269 0 01.126-.044l.119.056c.06 0 .08-.049.099-.1.011-.03.023-.06.043-.083l.183.07a.4.4 0 00.055-.238c.21-.054.426-.092.643-.113a.509.509 0 00.286.198h.15l.08-.096c.046.035.089.075.127.12l.159-.112c.119.015.262.039.437.078a.798.798 0 01.048.159c.007.05.038.062.068.075.031.013.063.026.067.083.007.088.048.096.084.104.01.001.02.003.028.007.032.013.059.046.089.083l.022.028.246-.001c.022.083.038.168.048.254h-.143v-.119l-.27.064.207.167c-.077.053-.128.026-.176 0-.045-.023-.088-.046-.15 0v.048c.093.051.189.096.287.134.095.048.188.101.278.158l.135-.15.214-.001v.103c.05.06.112.11.174.16.075.06.151.121.209.204l-.048.183-.118.111-.048-.047a.285.285 0 00.07-.223.167.167 0 00-.142.151l.072.072-.127.103c-.027.078.009.108.044.138.026.022.052.044.052.084v.048l.088.127h.119l-.055.127a.452.452 0 00.261-.144c-.01-.03-.05-.038-.086-.046-.042-.01-.078-.018-.057-.057a.374.374 0 00.019-.041c.022-.054.04-.097.179-.11.105-.01.115.038.126.086.007.032.014.064.05.08h.134l-.055.11c.072.128.134.26.183.397-.033.044-.05.09-.067.137-.027.073-.054.147-.146.205.026.031.075.045.125.059.04.011.082.023.113.044l-.198.104v.071l.12.047a2.09 2.09 0 010 .207l-.142.103-.207-.174.095-.103v-.135h-.048l-.072.103c.009.125.009.25.001.373v.151a.998.998 0 01.319.206v.056a.64.64 0 00.114.04c.1.03.207.062.196.157-.006.053-.017.106-.028.16-.017.082-.034.166-.034.253a.748.748 0 01-.058-.007c-.057-.009-.08-.012-.037.055zm-3.02 2.422l.01-.005c.035-.015.066-.028.015-.099-.02.016-.02.044-.02.068 0 .014 0 .028-.004.036zm13.559-.79l.063-.048-.071-.087s-.032.071.008.135zm-2.824.8c.056 0 .088 0 .103-.095h-.08l-.023.096zm-14.287-4.408h.08a.214.214 0 01-.088 0h.008zm.38 1.004l.005.004h-.008l.003-.004zm0 0c.061-.064.09-.17.004-.132-.085.04-.079.079-.004.132zm4.459-2.572a.36.36 0 01.055-.056v.047l-.055.048v-.04zm-.254-.633c-.013.067-.018.094.056.054h-.016c-.007-.013-.01-.046-.014-.075-.005-.043-.009-.077-.018-.02l-.008.041zm.006-.058h-.016c-.008-.088-.095-.158-.103-.079-.006.062.07.075.103.078v.001h.016zm-.43-.443c.04.048.08.055.167 0h-.016c-.064-.087-.19-.047-.15 0zm.058.715c0-.08.056-.111.103-.096a.245.245 0 01.064-.087c0 .054 0 .074-.01.082-.006.006-.016.006-.031.008-.012 0-.027.002-.046.005-.045.009-.044.034-.043.055.001.02.002.037-.037.033zm0 0h-.01.01zm-.01 0c-.029.003-.03.04-.03.08 0 .047-.002.098-.046.11-.005-.083-.007-.118.008-.142.01-.017.03-.028.063-.048h.006zm-.982-.197c.087.04.166.024.325-.048h-.016c-.326-.07-.397.009-.31.048zm-2.602 3.929a.247.247 0 01-.04-.08h.064a.323.323 0 000 .088l-.024-.008zm2.164 2.115v.071l.001.002v.006l.003-.001.004.009c.006-.011 0-.01-.004-.01l-.003-.004a.247.247 0 000-.073zm.366.181h-.056l-.015.001.005.003c.017.007.069.028.074.092.003.033.004.043.006.044l.004-.004c.006-.007.018-.02.046 0 .02.014.02.012.008 0-.017-.021-.059-.07-.064-.12l-.008-.016zm1.752-.862h-.063l.119.142a1.073 1.073 0 00-.056-.142z" fill="#EEE1D9"/><path fillRule="evenodd" clipRule="evenodd" d="M91.278 75.606a.182.182 0 01-.151-.135c.032-.021.075-.014.13-.004.025.004.053.01.084.012l-.063.127zm-.586.35c.056.08.103.071.135 0a.135.135 0 000-.112c0-.063-.088-.102-.136-.055-.022.022-.006.053.01.083.017.034.033.067-.01.084zm-1.221.686v.047c0 .08.072.08.135.064l.063-.136a.744.744 0 00.175-.056c.055 0 .135 0 .134-.111-.365.049-.436.064-.507.192zm-.793.192c.173 0 .228 0 .256-.028.013-.013.02-.032.03-.06l-.222-.039v-.095l-.014.013c-.09.09-.096.096-.05.21zm-1.073-.338l.175.047c-.016.071 0 .111.056.127l-.063.087c-.127.009-.127-.063-.127-.11a.35.35 0 00-.112-.103l.071-.048z" fill="#EEE1D9"/><path fillRule="evenodd" clipRule="evenodd" d="M80.215 74.19l-.095.047c-.043-.067-.02-.063.037-.055a.748.748 0 00.058.007zm-3.058 2.469l.096.158-.056.048c.07.053.132.035.192.017.03-.01.058-.018.086-.018.041 0 .044-.03.046-.06.003-.035.006-.071.065-.067l-.048-.087c-.034-.023-.067-.008-.1.006-.037.016-.073.032-.106-.006-.064-.071 0-.206.063-.31l.111.207c.075 0 .1-.075.123-.147a.285.285 0 01.051-.108l.088.08c.093-.027.183-.062.27-.105.079.064.15.119.182 0v-.207c.04 0 .085.01.133.018.1.02.211.041.303-.019l-.072-.214c.044 0 .098-.05.146-.094l.036-.033.08.063.08-.072-.001-.127c0-.053.053-.035.106-.017.025.008.05.017.068.017v-.12c.052-.046.1-.096.143-.15.026 0 .054.005.082.011.057.013.116.025.164-.012.039-.03.016-.073-.003-.107-.015-.027-.026-.048.002-.052l.151.063.206-.072-.15-.174.238.063c0-.03.016-.052.031-.074.023-.032.044-.062.016-.109l-.231-.19h.35c.042 0 .039-.036.035-.07-.003-.027-.006-.054.02-.058a.27.27 0 00.19-.302l-.128-.04c0-.086.017-.17.034-.253.011-.054.023-.107.029-.16.01-.095-.097-.126-.197-.156a.65.65 0 01-.114-.041v-.056a1.094 1.094 0 00-.318-.205v-.151a2.941 2.941 0 00-.001-.373l.063-.104h.056v.135l-.095.104.199.174.15-.104a2.061 2.061 0 000-.206l-.12-.048v-.071l.199-.104a.475.475 0 00-.114-.043c-.05-.014-.098-.028-.125-.06.093-.058.12-.131.146-.205.017-.046.034-.093.068-.136a3.603 3.603 0 00-.184-.397l.055-.111h-.135c-.036-.016-.05-.05-.062-.084-.017-.047-.034-.091-.113-.082-.124.015-.154.07-.189.135l-.009.016c-.021.039.015.047.055.057.035.008.073.017.08.046a.452.452 0 01-.253.144l.055-.127h-.119l-.088-.127v-.047c0-.04-.026-.063-.052-.085-.035-.03-.07-.06-.044-.138l.12-.103.047.047.127-.111.047-.183a.956.956 0 00-.205-.199c-.065-.051-.129-.102-.177-.165v-.103h-.223l-.134.152a3.181 3.181 0 00-.279-.158 2.329 2.329 0 01-.286-.135v-.047c.057-.046.1-.024.146 0 .049.025.102.053.18-.001l-.207-.166.27-.064v.119h.143c0-.104 0-.175-.049-.255h-.246c0-.047-.071-.094-.12-.11a.234.234 0 00-.026-.007c-.038-.007-.071-.014-.085-.104-.008-.056-.038-.07-.067-.082-.029-.013-.056-.025-.06-.076a.8.8 0 00-.048-.159 4.493 4.493 0 00-.445-.078l-.15.111-.128-.118-.079.095h-.15a.51.51 0 01-.287-.197 4.218 4.218 0 00-.643.113c0 .063 0 .158-.055.238l-.183-.071c-.019.022-.03.052-.042.08-.02.053-.04.103-.108.103l-.08-.063c-.044 0-.083.02-.123.042a.282.282 0 01-.154.046l-.08-.048a1.913 1.913 0 00-.3.184h-.136l-.079.064.072.198h-.127a3.665 3.665 0 00-.507.486v.127c-.07.08-.137.166-.197.255.054.106.116.21.183.309a3.004 3.004 0 00-.268.524 2.11 2.11 0 00-.31.208 3.78 3.78 0 00-.277.223l.08.095a2.383 2.383 0 00-.063.476s.04 0 .064.04l.071-.143.095-.167.001.397c0 .056.081.14.148.21.026.029.051.054.067.075l-.19.056v.214l-.103.144-.078.166c0 .08 0 .183.072.286l-.08.111c.032.106.07.209.113.31l.135.04a.22.22 0 01.03.081c.014.06.026.116.145.132l.119-.08c0-.03-.013-.06-.026-.087-.013-.03-.026-.058-.022-.087a.793.793 0 01.079-.215c.063 0 .166 0 .206.095-.042.06-.08.124-.11.19v.183c0 .072 0 .135.048.19l-.134.12c.07.076.071.177.072.278 0 .069.001.137.024.198.058 0 .101-.04.142-.078.043-.04.083-.077.136-.065 0 .08 0 .174-.119.254a.238.238 0 00-.15.072c.236.266.246.261.315.23h.003a.611.611 0 01-.048-.183c.032 0 .061.007.09.014.053.014.104.027.172-.015.156.133.324.252.5.356l.135-.056c.252.133.519.233.795.3l.029-.024c.066-.056.12-.102.162.023l-.063.27h.111s0 .08.064.127l.11-.215c.026.106.092.12.158.132.057.012.115.023.145.098v-.151c.063 0 .118 0 .127.095.063 0 .127 0 .166-.08.027-.054.057-.035.086-.017.014.008.028.017.041.017zm0 0a.858.858 0 010-.112c.045.063.026.08.011.094-.006.006-.01.01-.01.018zm2.034-5.436l-.064-.071c0-.08.056-.127.143-.151a.27.27 0 01-.079.222zm11.957.048s.064.047.103 0h-.103zm0 0h-.008s-.055.055-.055.071c0 .01.01-.003.028-.027l.035-.044zm-.164 4.47l-.063.08.047.055a.327.327 0 00.087-.056v-.048c0-.047-.063-.04-.071-.031zm-.402.303v-.119c.015-.032.055-.056.055-.056l.063.088-.118.087zm.023 0c.024.135.016.135-.095.135-.021-.094.013-.102.048-.11.018-.005.036-.009.047-.025zm-4.144.058c0 .095.048.127.143.095 0-.1-.048-.132-.143-.095zm.526.284v.064l.087.063v-.071l-.087-.056zm.222.19v-.07l.015-.056.096.055v.071h-.111zm.571-.032c.016-.072.04-.072.08-.072.007 0 0 .072 0 .072h-.08zm2.911-.676l.056-.047-.064-.088s-.071.072.008.135zm-2.751.707c-.016.095-.048.095-.103.095l.023-.095h.08zm-8.331-4.123h-.04s0 .008.04 0zm-5.683.818c-.08-.056-.088-.096 0-.135.087-.04.087.07 0 .135zm4.454-2.577a.365.365 0 01.056-.056v.048l-.056.048v-.04zm-.209-.675c-.055.096-.079.143 0 .096h-.007a.127.127 0 00.007-.096zm.001-.015c-.014 0-.031 0-.048-.002-.009-.086-.064-.156-.071-.077-.006.056.032.072.071.077v.002h.048zm-.429-.443c.04.047.08.055.159 0h-.048c-.056-.088-.15-.048-.111 0zm.057.714c0-.08.032-.111.095-.096a.417.417 0 01.072-.087c0 .054 0 .074-.01.083-.006.005-.016.005-.031.007-.012 0-.027.002-.047.005-.044.009-.043.033-.042.055.001.02.002.037-.037.033zm0 0h-.01.01zm-.01 0c-.029.003-.03.04-.03.08 0 .047-.002.098-.047.11-.023-.083-.033-.118-.02-.142.008-.017.027-.028.06-.048h.038zm-.983-.196c.087.04.167.023.325-.049h-.047c-.326-.07-.365.01-.278.049zm-2.602 3.928a.245.245 0 01-.04-.08h.055a.328.328 0 010 .088l-.015-.008zm2.14 2.098V76.208c.008-.016 0-.024 0-.024a.246.246 0 000-.08zm.366.183h-.055l-.016.001.006.003c.017.007.068.028.073.091.003.034.004.044.007.044 0 0 .002 0 .004-.003.005-.007.017-.02.043-.002a.203.203 0 00.002 0h-.002c-.022-.02-.057-.059-.062-.102v-.032zm1.753-.862h-.071l.127.143-.056-.143zm.247.055v-.056-.003h.004a.156.156 0 00.035.003.513.513 0 01-.04.088v-.032zm.156-.359v.088a.12.12 0 00.04-.088h-.04z" fill="#EEE1D9"/><path fillRule="evenodd" clipRule="evenodd" d="M79.276 71.303s.071.047.111 0h-.111zm0 0c-.021.025-.031.048-.037.062-.005.012-.007.017-.01.01-.009-.017.047-.072.047-.072zm-.02 4.198a.199.199 0 00.16.135l.063-.127c-.03-.003-.058-.008-.083-.012-.056-.01-.101-.017-.14.004zm-.261.486c-.032.071-.087.08-.135 0 .023-.015.012-.044 0-.075-.012-.032-.025-.067 0-.092.047-.047.095-.008.134.056a.135.135 0 010 .11zm-1.386.734v-.048c.07-.127.142-.143.5-.192.007.111-.08.112-.128.112a.884.884 0 01-.174.056l-.063.135c-.064.016-.135.016-.135-.063zm-.539.116c-.027.028-.084.028-.264.029-.018-.055-.028-.085-.022-.111.006-.03.034-.056.093-.112v.096l.223.039a.159.159 0 01-.03.059zm-1.153-.262l-.175-.048s-.047 0-.071.048c.043.028.08.063.111.103 0 .048 0 .12.12.111l.071-.088c-.056-.015-.08-.055-.056-.126zm2.8-.5v-.12c.016-.031.064-.055.064-.055l.063.087-.126.088zm-.07.136c.052 0 .08 0 .092-.014.014-.016.008-.05-.005-.121-.008.016-.024.02-.041.025-.033.008-.067.016-.046.11zm.41-.359l.064-.08c.008-.008.071-.016.072.032v.048a.325.325 0 01-.088.055l-.047-.055zm-4.46.282c0 .095.049.127.144.095 0-.1-.048-.132-.143-.095zm.525.348v-.064l.095.056v.071l-.095-.063zm.224.055v.071h.11v-.072l-.095-.055s-.016.048-.016.056zM78.782 75.9l.056-.048-.056-.087v.135zm-2.785.603c-.047 0-.063 0-.079.072h.08s.007-.072 0-.072zm.08.103c-.015.096-.047.096-.102.096l.023-.096h.08z" fill="#EEE1D9"/></svg>