<svg width="206" height="181" viewBox="0 0 206 181" fill="none" xmlns="http://www.w3.org/2000/svg">
<path d="M91.8895 120.811C91.4933 120.514 73.2609 105.067 75.2693 97.067C79.7629 96.0723 101.478 90.7816 111.386 71.676C113.274 68.0451 116.967 60.6892 115.825 51.1919C114.431 39.4305 106.644 32.2253 103.95 29.708C93.8806 20.3869 82.0208 19.1058 76.5962 18.5348C61.3974 16.9161 49.8629 22.1349 44.6853 24.5364C40.3401 26.5715 27.5273 32.7511 18.106 47.0811C14.4436 52.6635 3.09949 69.8862 9.70433 86.1769C10.1895 87.3462 11.8334 91.181 15.3747 94.9222C29.3763 109.733 54.9756 103.889 57.7451 103.211C57.7451 103.211 64.2272 115.167 85.8705 119.794L91.8895 120.811Z" fill="#0D3C88"/>
<path d="M93.6634 121.337C93.2969 121 77.5075 103.082 80.6305 95.4533C85.2181 95.1176 107.487 92.9679 120.001 75.5077C122.389 72.1593 127.092 65.4377 127.318 55.8516C127.613 44.0262 120.947 35.7413 118.629 32.8872C109.996 22.2288 98.4589 19.2387 93.1732 17.9048C78.4109 14.1361 66.2427 17.6406 60.778 19.2692C56.1703 20.7048 42.6247 24.972 31.2222 37.8152C26.802 42.798 13.1447 58.192 17.312 75.255C17.6287 76.4837 18.7028 80.5414 21.6693 84.7184C33.4214 101.372 59.5548 99.2728 62.4183 99.006C62.4183 99.006 67.1365 111.744 87.8725 119.438L93.6634 121.337Z" fill="#1164EA"/>
<path d="M45.8432 68.8859C49.0226 68.4324 51.2325 65.4874 50.7791 62.308C50.3256 59.1286 47.3806 56.9187 44.2012 57.3721C41.0218 57.8255 38.8119 60.7706 39.2653 63.95C39.7187 67.1294 42.6638 69.3393 45.8432 68.8859Z" fill="#EEE1D9"/>
<path d="M71.0903 65.2855C74.2697 64.8321 76.4796 61.8871 76.0261 58.7077C75.5727 55.5282 72.6277 53.3184 69.4483 53.7718C66.2688 54.2252 64.059 57.1702 64.5124 60.3496C64.9658 63.5291 67.9108 65.7389 71.0903 65.2855Z" fill="#EEE1D9"/>
<path d="M96.3031 61.6901C99.4826 61.2366 101.692 58.2916 101.239 55.1122C100.786 51.9328 97.8406 49.7229 94.6612 50.1763C91.4817 50.6297 89.2719 53.5748 89.7253 56.7542C90.1787 59.9336 93.1237 62.1435 96.3031 61.6901Z" fill="#EEE1D9"/>
<path d="M144.105 162.408C144.343 162.091 154.909 146.112 151.581 140.394C147.9 140.636 130.001 141.419 118.104 128.962C115.856 126.593 111.344 121.752 110.087 114.182C108.539 104.813 112.91 97.5021 114.427 94.9858C120.086 85.5446 128.911 81.9154 132.953 80.2419C144.25 75.5878 154.292 77.0219 158.849 77.7166C162.649 78.3071 173.889 80.2072 184.36 89.1172C188.432 92.6059 200.998 103.305 199.597 117.305C199.493 118.31 199.086 121.659 197.202 125.325C189.723 139.873 168.737 141.097 166.453 141.21C166.453 141.21 164.152 151.871 148.545 160.289L144.105 162.408Z" fill="#9D6D6A"/>
<path d="M142.843 163.226C143.041 162.879 151.185 145.547 147.084 140.364C143.477 141.126 125.874 144.485 112.327 133.856C109.737 131.819 104.62 127.701 102.269 120.393C99.3877 111.356 102.689 103.49 103.824 100.78C108.072 90.62 116.297 85.767 120.048 83.5336C130.557 77.3287 140.708 77.2964 145.316 77.3471C149.18 77.3976 160.574 77.648 172.2 84.978C176.747 87.8326 190.705 96.6345 191.331 110.699C191.371 111.72 191.459 115.069 190.106 118.977C184.811 134.453 164.181 138.669 161.946 139.129C161.946 139.129 161.196 149.993 146.96 160.586L142.843 163.226Z" fill="#B98984"/>
<path d="M167.897 112.13C170.444 111.767 172.215 109.407 171.851 106.86C171.488 104.312 169.129 102.542 166.581 102.905C164.034 103.268 162.263 105.628 162.627 108.175C162.99 110.723 165.349 112.493 167.897 112.13Z" fill="#EEE1D9"/>
<path d="M147.679 115.014C150.226 114.65 151.997 112.291 151.634 109.743C151.27 107.196 148.911 105.425 146.363 105.789C143.816 106.152 142.045 108.512 142.409 111.059C142.772 113.606 145.132 115.377 147.679 115.014Z" fill="#EEE1D9"/>
<path d="M127.426 117.902C129.973 117.538 131.744 115.179 131.381 112.631C131.017 110.084 128.658 108.313 126.11 108.677C123.563 109.04 121.793 111.4 122.156 113.947C122.519 116.494 124.879 118.265 127.426 117.902Z" fill="#EEE1D9"/>
</svg>
