<svg width="195" height="83" viewBox="0 0 195 83" fill="none" xmlns="http://www.w3.org/2000/svg">
<g clip-path="url(#clip0)">
<path d="M190.143 14.8928C190.143 14.8928 179.432 8.02488 168.435 3.20099C162.181 0.462007 155.435 -0.682644 149.998 0.584648C144.561 1.89282 135.69 7.32991 135.854 10.6003C136.017 14.5657 141.046 13.2167 143.662 10.0689C146.278 6.96199 152.451 2.75131 156.785 3.56892C165.247 5.12237 178.492 15.7922 183.152 19.4305C187.813 23.0689 190.143 14.8928 190.143 14.8928Z" fill="#9D6D6A"/>
<path d="M4.58691 14.8929C4.58691 14.8929 15.2976 8.02504 26.2944 3.20116C32.5082 0.462174 39.2944 -0.723357 44.7314 0.584815C50.1685 1.89299 59.0396 7.33008 58.8761 10.6005C58.7125 14.5659 53.6842 13.2169 51.0679 10.0691C48.4516 6.96215 42.2786 2.75148 37.9453 3.56908C29.5239 5.12254 16.2787 15.7923 11.6183 19.4307C6.9171 23.069 4.58691 14.8929 4.58691 14.8929Z" fill="#9D6D6A"/>
<path d="M179.227 17.1009C173.136 18.2864 165.124 20.0034 158.378 21.5568C151.633 23.1103 137.897 26.9122 128.822 30.2235C122.772 32.431 116.885 34.7203 110.221 37.8272C108.014 38.8492 102.618 42.6102 96.4856 42.4058C91.1302 42.2423 85.6931 38.8084 83.6491 37.8272C77.0265 34.7203 71.0988 32.431 65.0485 30.2235C55.9731 26.9122 42.2373 23.1103 35.492 21.5568C28.7468 20.0034 20.7342 18.2864 14.643 17.1009C9.20594 16.0789 4.01413 15.016 0.825461 16.8147C-0.31919 19.3493 0.130494 23.192 1.60219 27.4845C3.72797 33.6574 13.294 55.5693 25.7625 67.5064C37.9448 79.1982 46.5706 82.0598 55.4008 82.8365C66.5611 83.8177 75.473 80.7516 83.4856 70.8995C88.8 64.2768 88.7183 53.28 97.1805 53.28C105.684 53.28 105.561 64.3177 110.875 70.8995C118.847 80.7925 127.8 83.8177 138.96 82.8365C147.79 82.0598 156.375 79.1982 168.599 67.5064C181.067 55.5693 190.633 33.6574 192.759 27.4845C194.19 23.3964 194.639 19.7172 193.699 17.1826C190.551 14.8933 184.992 15.9971 179.227 17.1009Z" fill="#B98984"/>
<path d="M189.856 13.953C184.91 12.931 154.004 20.2077 143.334 23.3146C132.664 26.4215 119.419 31.2454 111.12 35.0064C105.275 37.6636 102.781 40.4026 97.1802 40.4026C91.5388 40.4026 88.8407 38.1133 83.1992 35.0064C76.3313 31.2454 61.6143 26.4215 50.9854 23.3146C40.3156 20.2077 9.41007 12.931 4.46355 13.953C2.66481 14.3618 1.47928 15.3429 0.825195 16.8146C4.01387 15.0159 9.24655 16.0788 14.6428 17.1008C20.7339 18.2863 28.7465 20.0033 35.4918 21.5567C42.237 23.1102 55.9728 26.9121 65.0483 30.2234C71.0986 32.4309 76.9853 34.7202 83.6488 37.8271C85.6929 38.8083 91.13 42.2422 96.4853 42.4057C102.617 42.6101 108.014 38.8492 110.221 37.8271C116.844 34.7202 122.771 32.4309 128.822 30.2234C137.897 26.9121 151.633 23.1102 158.378 21.5567C165.123 20.0033 173.136 18.2863 179.227 17.1008C184.991 15.997 190.551 14.8932 193.658 17.2234C193.045 15.5473 191.818 14.3618 189.856 13.953Z" fill="#B98984"/>
<path d="M78.4979 69.0599C84.3438 62.2329 87.5733 53.7298 83.6897 46.9845C77.6803 36.4374 43.7496 27.689 35.0012 26.9123C29.237 26.3808 24.8219 26.2173 21.8377 27.3619C20.9792 28.6292 20.2025 30.5506 20.0389 33.4531C19.6301 39.9531 21.061 45.5537 24.9855 53.0757C28.8691 60.5977 40.0294 72.1668 48.4917 74.0065C58.5483 76.1731 66.1929 75.519 74.3281 73.1071C75.7998 71.9624 77.1897 70.6134 78.4979 69.0599Z" fill="#EEE1D9"/>
<path d="M48.4915 74.0063C40.0293 72.2076 28.8689 60.6384 24.9853 53.0756C21.1016 45.5536 19.63 39.953 20.0388 33.453C20.2432 30.5505 20.979 28.6291 21.8375 27.3618C20.284 27.975 19.1394 28.9153 18.4035 30.387C16.1551 34.9247 16.2778 46.3712 25.435 59.412C30.9129 67.2202 40.8469 77.3585 53.5198 77.9308C63.2902 78.3805 69.3814 76.9088 74.3688 73.0661C66.1927 75.5189 58.5481 76.173 48.4915 74.0063Z" fill="#EEE1D9"/>
<path d="M146.197 74.0063C154.659 72.2076 165.819 60.6384 169.703 53.0756C173.586 45.5536 175.058 39.953 174.649 33.453C174.486 30.714 173.791 28.8744 172.973 27.6071C170.03 26.2172 165.41 26.3807 159.319 26.9121C150.53 27.6889 116.64 36.4781 110.59 46.9844C106.706 53.7297 109.936 62.2328 115.782 69.0598C117.049 70.5315 118.357 71.7988 119.706 72.9026C128.127 75.478 135.895 76.2139 146.197 74.0063Z" fill="#EEE1D9"/>
<path d="M140.841 77.9716C153.514 77.3992 163.447 67.2609 168.925 59.4527C178.083 46.4119 178.205 34.9245 175.957 30.4277C175.303 29.1195 174.322 28.2201 173.054 27.6069C173.872 28.8742 174.526 30.7138 174.73 33.4528C175.139 39.9528 173.708 45.5534 169.784 53.0754C165.9 60.5974 154.74 72.1665 146.278 74.0062C135.976 76.2137 128.209 75.5187 119.828 72.9024C124.775 76.8678 130.907 78.4212 140.841 77.9716Z" fill="#EEE1D9"/>
<g opacity="0.3">
<path opacity="0.3" d="M173.668 27.9341C172.768 28.7108 171.828 29.4467 170.888 30.1825C163.12 36.7234 154.127 39.585 146.36 45.717C135.731 53.6478 125.102 60.8019 114.228 67.0157C114.759 67.7107 115.29 68.4057 115.863 69.0597C117.13 70.5314 118.438 71.7987 119.787 72.9025C124.775 76.8679 130.948 78.4214 140.841 77.9717C153.514 77.3993 163.448 67.261 168.925 59.4529C178.083 46.412 178.205 34.9246 175.957 30.4278C175.385 29.324 174.608 28.5473 173.668 27.9341Z" fill="white"/>
</g>
<g opacity="0.3">
<path opacity="0.3" d="M20.7749 27.9341C21.6742 28.7108 22.6145 29.4467 23.5547 30.1825C31.322 36.7234 40.3157 39.585 48.083 45.717C58.7119 53.6478 69.3408 60.8019 80.215 67.0157C79.6835 67.7107 79.1521 68.4057 78.5797 69.0597C77.3124 70.5314 76.0043 71.7987 74.6552 72.9025C69.6678 76.8679 63.4949 78.4214 53.6018 77.9717C40.9289 77.3993 30.995 67.261 25.517 59.4529C16.3598 46.412 16.2372 34.9246 18.4856 30.4278C19.0579 29.324 19.7937 28.5473 20.7749 27.9341Z" fill="white"/>
</g>
</g>
<defs>
<clipPath id="clip0">
<rect width="193.977" height="82.9463" fill="white" transform="translate(0.171875 0.0537109)"/>
</clipPath>
</defs>
</svg>
