<svg width="633" height="975" viewBox="0 0 633 975" fill="none" xmlns="http://www.w3.org/2000/svg"><g clip-path="url(#a)"><path d="M474.043 237.044c-15.196-5.385-12.197-22.658-121.167 8.636-22.894 6.605-42.288 16.562-58.784 28.247 1.1-1.423 1.7-2.236 1.7-2.236-9.098 5.69-19.195-9.144-21.994-13.716 2.499 3.759 11.397 13.411 29.992.203 22.493-15.952 69.481-110.343 69.181-131.07-.3-20.728-23.994-24.284-39.29-13.311-15.195 10.974-30.591 57.305-30.591 57.305l10.497-45.01c-11.697 8.941-27.493 25.198-39.389 38.203-3.499-3.759-65.083-24.792-85.777-3.251-.1 0-5.898 13.208-11.597 22.251a256.646 256.646 0 0 1 5.399-20.423c.1-.304-9.698 3.658-21.094 11.177-3.3-10.973-5.799-18.797-5.799-18.797l-8.598 7.519 7.098-16.46c-20.694-89.514-57.684-105.67-57.684-105.67 2.4 4.573 3.3 16.054 3.4 30.584-23.094 19.711-70.282 68.38-67.682 95 0 0 7.598 12.904 10.297 24.081-4.799-5.182-9.597-10.466-14.196-15.851-.4-.304-15.696 42.065-12.497 69.803 4.599 5.893 9.398 11.481 14.196 16.968a668.294 668.294 0 0 1-16.795-8.84c-.6-.711-3.599 18.797.3 42.065C3.77 275.146-8.525 262.75-8.625 263.156c-3 5.487-6.098 10.974-9.198 16.46 1.2-6.909 2.2-13.818 3.2-20.829-10.898-21.845-40.99-46.128-41.09-45.925a652.52 652.52 0 0 1-5.398 20.016c-2.5-10.262-1.1-24.385-1.1-24.385-11.496-26.722-103.271-51.31-103.171-49.482 9.197 5.995 13.396 10.567 20.394 34.241 6.698 23.674 10.397 26.722 10.497 26.722 4.299 2.236 8.498 4.471 12.697 6.706-3.399-.609-6.798-1.117-10.297-1.727 9.797 16.968 18.195 29.059 18.295 29.059 11.196 3.251 22.493 6.909 33.69 10.872-8.397.101-16.795.305-25.193.711 8.898 14.225 25.693 36.07 25.593 36.171a745.985 745.985 0 0 1 19.995 3.353 5345.797 5345.797 0 0 0-16.696 3.048c12.097 19.712 46.688 27.23 46.787 27.535 13.197 5.385 26.393 11.38 39.49 17.781 15.196 22.556 29.192 46.027 41.788 70.311 2.5 17.577 6.099 34.342 11.297 51.005-16.095-18.898-33.09-36.781-50.886-53.85-15.396-31.295-56.584-87.482-131.964-105.263-110.27-26.011-106.571-8.941-121.467-2.845-14.896 6.097-10.997 13.107 15.896 26.722l26.893 13.615 47.087-12.802s-39.489 17.476-39.589 21.236c-.1 3.759 71.98 29.16 71.98 29.16l39.69-10.973-26.294 13.92s101.573 31.599 123.367 48.668c2 1.524 2.1-1.727-.1-8.026 17.695 17.476 34.49 35.968 50.386 55.374 3.699 9.958 8.098 20.016 13.196 30.278-.7 2.236-1.4 4.674-2.1 7.418 0 0 1.4 1.117 3.5 2.743l-.3.813-16.895 39.727s1.7 1.423 4.498 3.353v.102c-3.799 11.38-7.897 24.08-9.597 31.497-.9 3.861.4 7.316 3 10.161l-8.598 36.171s.7 1.016 2.199 2.439c-3.6 12.599-7.998 32.513-8.398 56.187 0 0 1 1.118 2.8 2.642l-.7 3.963-8.098 47.246c.9 2.642 2.6 4.572 4.699 5.893l-.6 6.503-4.899 55.577s1.5.204 3.899.508l-.7 7.418-5.098 53.85s2.399.915 6.298 1.931l-3.999 56.086s1.2.609 3.2 1.422l-1.7 55.167s28.092 18.9 50.386-6.7l-6.998-50.804c.1-.102.2-.102.3-.203l.9-.61c.5-.305 1.1-.711 1.599-1.117l-5.099-58.423c.1-.102.2-.203.4-.305.1-.102.3-.203.4-.305.4-.305.8-.711 1.1-1.016l.4-.406c.5-.508 1-1.016 1.4-1.524l-7.299-57.712c1.5-.813 2.8-1.727 3.9-2.845.2-.203.4-.406.5-.61.2-.304.499-.609.699-.914l-7.598-54.054c2-.508 3.2-.914 3.2-.914l-.5-53.241c1.199-.61 2.399-1.321 3.698-2.235.5-.305 1-.712 1.6-1.118 0 0-2.9-21.235-.3-48.77 1.5-.102 3.2-.204 4.799-.407l1.2-39.727c1.599-.407 2.898-1.016 3.798-1.931l.4-.406V609.426c0-.508 0-.915.1-1.423v-.406c0-.508 0-1.016.1-1.524v-.102c0-.508 0-1.016.1-1.524v-.305c0-.508 0-1.117.1-1.625v-.305c0-.508 0-1.016.1-1.524v-.203c0-.61.1-1.118.1-1.728v-.406c0-.61.1-1.118.1-1.727 0-.61.1-1.22.1-1.829v-.305c.1-1.219.2-2.439.2-3.76v-.203c0-.609.1-1.219.1-1.93v-.102c0-.609.1-1.219.1-1.93v-.102c0-.61.1-1.219.1-1.829.9-.101 1.9-.406 2.699-.711l6.498-41.963c2.1-.101 3.799-.813 4.999-2.438l-.5-17.883c24.693-26.214 51.886-46.738 79.878-62.182 0 0 0 .102-.1.102 16.696-2.236 32.591-2.337 47.687-.813.4-.102 26.793 8.941 47.387.203-2.399-3.861-4.798-7.62-7.198-11.481a309.893 309.893 0 0 1 13.797 8.23c0-.407 25.093-7.011 40.189-9.958-3.799-5.385-7.698-10.77-11.697-16.053 8.697 4.267 16.895 9.144 24.593 14.326 0 .102 13.196-1.93 30.392-3.353-1.8-2.032-3.599-4.064-5.499-6.096a203.682 203.682 0 0 1 10.397 5.486c.1.305 3.799.61 25.094-3.759 21.494-3.454 26.392-.914 33.39 4.268 3.1-.712-42.388-63.3-75.279-56.29-.1-.101-13.296 8.332-23.694 12.904a308.285 308.285 0 0 1 16.996-15.139c.5-.406-35.69-7.823-62.383 2.439-6.298 5.893-12.297 11.989-17.895 18.289 3.299-6.3 6.798-12.498 10.697-18.696 2.499-2.032-64.183 7.824-93.775 68.177-29.092 15.342-57.484 36.171-83.277 62.893v-.508c.4-1.32.8-2.743 1.2-4.064 35.39-53.241 77.479-101.097 124.866-142.653 35.39-18.898 104.371-43.995 104.371-43.995l-26.992-12.7 40.189 9.144s70.88-28.856 70.58-32.615c-.3-3.76-40.489-19.305-40.489-19.305l47.687 10.872 26.193-14.936c26.893-14.733 30.492-21.845 15.296-27.332Zm-269.526-20.626s9.097-8.331 21.494-18.39c-2.4-.61-4.799-1.219-7.298-1.829 3.599-.508 7.098-.915 10.697-1.219.2.203 3.199-1.524 17.195-15.952 14.296-13.615 19.395-14.428 27.193-14.225-9.698 10.567-16.696 18.797-16.696 18.797l-10.497 62.588.2-48.465c-48.487 60.048-64.782 103.027-70.181 127.616l-14.496.406 14.396-6.299c9.798-30.787 4.599-61.471 1.1-75.696 5.399-6.096 12.497-13.92 17.895-19.407a485.361 485.361 0 0 0-16.995-6.096c8.797-1.219 17.495-1.829 25.993-1.829ZM52.158 347.793a370.17 370.17 0 0 1 19.995-45.315c-.1-.61 22.494-29.263 21.894-53.038-5.199 2.337-10.397 4.877-15.596 7.519a346.798 346.798 0 0 1 14.796-15.038c-.2 0 1.2-16.155 2.5-31.802 0 15.342-.8 38-1.5 56.39-2.4 12.803-2.9 27.129.1 42.471-19.695 53.546-23.694 121.316-1.5 190.713-.3.203-.7.406-1.1.711a749.236 749.236 0 0 0-36.49-81.284c-3.199-23.064-3.998-46.535-3.099-71.327Zm43.088-198.434-1.2.914 1.2-1.828c.1.304 0 .609 0 .914Zm2.4 351.451C78.15 441.575 78.25 383.761 90.948 334.686c-2.9 35.664 20.394 54.156 20.394 54.156 5.299 1.219 10.297 1.524 14.796.914-3.399 38.915-9.797 77.525-19.395 115.525l-9.097-4.471Zm1.8-192.947 8.397 14.224-10.897-7.214c.7-2.337 1.6-4.674 2.5-7.01Zm31.891 80.877c28.192-7.519 40.888-46.129 44.387-59.134-2.399 13.31-1.499 20.118-1.499 20.118.5.711 1 1.422 1.599 2.133-1.399 1.931-2.899 3.861-4.298 5.792a741.683 741.683 0 0 0-51.386 113.086c5.198-26.011 8.997-52.326 11.297-78.642 0-1.118 0-2.235-.1-3.353Zm-36.69-195.996c.3.204.5 1.423.7 3.353a350.365 350.365 0 0 0-20.895 12.802 371.444 371.444 0 0 1 20.295-24.385l20.494 21.947-20.594-13.717Zm-74.78 166.023s.1 0 0 0c3.6-11.583 4.099-22.76 2.8-33.225 5.598 11.583 13.795 22.353 25.692 30.38-.5 4.369-.9 8.738-1.2 13.208.5 13.92 1.3 27.129 2.6 39.728-9.298-17.171-19.195-33.835-29.892-50.091Zm38.49 78.642c10.897 21.946 20.594 44.604 29.292 67.77-.1.102-.1.203-.2.305a684.623 684.623 0 0 0-14.996-18.898c-6.099-16.46-10.797-32.717-14.097-49.177Zm21.894 67.77c1.5 1.931 2.899 3.76 4.398 5.69-.3.61-.5 1.219-.8 1.931a251.58 251.58 0 0 1-3.599-7.621Zm38.389-12.497c15.496-48.059 35.89-93.985 60.684-137.37 21.394 17.883 55.584-23.369 55.584-23.369l-11.696-14.225 16.895 7.214c2.099-.914 4.199-2.032 6.398-3.353-19.694 27.332-27.592 51.92-26.693 56.696-2.099 1.524-4.298 3.048-6.398 4.674-35.09 33.021-66.782 69.802-94.774 109.733Z" fill="#0D3C88"/></g><defs><clipPath id="a"><path fill="#fff" transform="translate(-100)" d="M0 0h733v975H0z"/></clipPath></defs></svg>